<svg id="Layer_1" data-name="Layer 1" xmlns="http://www.w3.org/2000/svg" viewBox="0 0 286.04 285.48"><defs><style>.cls-1{fill:#010101;}.cls-2{fill:#fefefe;}.cls-3{fill:#010201;}.cls-4{fill:#839f5e;}.cls-5{fill:#1d8768;}.cls-6{fill:#1d8767;}.cls-7{fill:#208665;}.cls-8{fill:#208666;}.cls-9{fill:#809e60;}.cls-10{fill:#819d62;}.cls-11{fill:#dfd937;}.cls-12{fill:#020202;}.cls-13{fill:#030303;}.cls-14{fill:#ee8777;}.cls-15{fill:#fefefd;}.cls-16{fill:#fdfdfd;}</style></defs><title>1</title><path class="cls-1" d="M146.45,7.28c35.79,0,71.58-.08,107.37.08,5.84,0,11.79.23,17.48,2,9.63,3,16.12,9.32,19.84,18.69,1.9,4.8,1.77,9.66,1.6,14.67-.3,9.33-.36,18.67-.37,28q0,79,.05,158c0,6.85-.09,13.71.37,20.59.48,7.23.36,14.72-1.87,21.84-3,9.52-9.28,15.89-18.51,19.7-5.52,2.27-11.17,1.74-16.82,1.67l-4.89,0q-87.55-.06-175.13-.14c-8.07,0-16.14.34-24.2.34-6.86,0-13.82.13-20.57-1.44-10.57-2.47-17.78-8.9-21.87-19a29.23,29.23,0,0,1-1.77-14.12c.16-1.62.19-3.26.19-4.89q0-58.19,0-116.35c0-25.88.06-51.77-.05-77.65,0-6.52-.19-13,0-19.56.41-12.11,4.85-22,15.64-28.4,6.1-3.64,12.77-4.11,19.63-4.1q51.93.11,103.84,0Z" transform="translate(-6.98 -7.26)"/><path class="cls-2" d="M11.31,150q0-45.49,0-91c0-7.9.26-15.79.6-23.68C12.41,23.27,24,11.9,36,11.77c48.87-.55,97.74-.16,146.61-.25q34.49-.06,69,.13a97.07,97.07,0,0,1,16,1.1c13.25,2.29,21.25,14.68,21.1,25.47-.91,65.55-.33,131.12-.37,196.67,0,9.34.12,18.67-.11,28-.35,14.18-12.78,25.68-26.46,25.61-52.33-.24-104.65-.1-157-.1-16.35,0-32.71-.17-49.06.06-8,.11-16,.16-23.84-1.21a25.09,25.09,0,0,1-20.23-21c-.72-5.06-.31-10.3-.31-15.46q0-50.4,0-100.81Z" transform="translate(-6.98 -7.26)"/><path class="cls-3" d="M119.66,258.68c0-6.29-.2-12.41,1-18.67C110.15,239.38,101,235.27,93,229c-6.22-4.89-11.42-10.85-13-19-2-10.79,1.13-20.37,7.5-29,5.18-7,11.24-13.2,18.9-17.6a1.26,1.26,0,0,0,.81-1.23c-.07-7.24-.32-14.47-1.11-21.67-.1-.91-.35-1.25-1.28-1.28-12.23-.41-22.23-6.53-32.2-12.7A10.39,10.39,0,0,1,69,123.25c-1.17-2-2.71-1.78-4.33-1.33a10.52,10.52,0,0,1-6.69-.3c-5.07-2-5.94-6-2.91-11.2,1.83-3.13,6.06-4.75,8.84-3.86,3.25,1,5.61,4.51,5.64,8.36a9,9,0,0,1-.76,4.72c-.69,1.27.59,2.24,1.43,3.09,4.55,4.62,10.38,7.16,16.07,10,5.4,2.67,10.93,4.82,17,5.36,1.84.16,3.24.14,2.79-2.38-.73-4.13-.56-8.31-.62-12.47a3.23,3.23,0,0,0-2.61-3.54c-6.75-2.1-7.56-3.44-7.7-10.4-.16-8.42.86-16.79,1.12-25.19.11-3.45,2.86-5.1,7.3-6.42s4.06-1,3.73-5.79c-.3-4.32-.7-8.63-1.07-12.94-.27-3.06,1.77-4.44,6.06-5.81,7.65-2.44,15.65-3.45,23.51-5,11.08-2.22,22-1.31,32.91,1.14,4.93,1.11,9.43,3.09,10.23,8.8a31.26,31.26,0,0,1-.21,10.72c3.61.27,7.28.16,10.95.53,4.91.49,7.22,2.62,7.46,7.6.4,8.11-1.55,15.9-3,23.76-.76,4.2-.8,8.43-1.25,12.64-.92,8.84-5,10.54-12.49,12.16-1.48.32-2.05.61-1.86,2.08a17.6,17.6,0,0,1,0,2.18c0,4.91,0,4.92,4.94,4.51,13.46-1.12,25.26-6.47,36.19-14.1,1.8-1.26,1.37-3,1.38-4.62,0-5.29,2.14-8.58,7-9.81,3-.77,6.26-1.26,8.69,1.77s3.35,6.3,1.66,9.75-5.21,4.2-8.51,5c-2.64.64-5.38.84-7.43-1.6-.9-1.06-1.39-.07-2,.35-8.27,5.94-17.19,10.56-27.15,12.89a43.26,43.26,0,0,1-12.82,1.45c-1.71-.12-2.2.52-2.28,2q-.3,5.29-.77,10.56a1.9,1.9,0,0,0,1.62,2.34c1.64.41,3.23,1,4.86,1.43a45.8,45.8,0,0,1,25.51,17.07c5,6.73,6.23,14.41,5.37,22.74-1,9.73-6.6,16.67-12.65,23.58-8.31,9.49-18.69,15.64-30.59,19.41-1.78.56-3.37,1.67-5.31,1.71-.85,0-.74.66-.72,1.17.31,6.78-.67,13.58.41,20.36.25,1.55.77,1.48,1.91,1.15a22.9,22.9,0,0,1,16.26,1.25,13.76,13.76,0,0,1,2.17,1.09,3.12,3.12,0,0,1,1.52,3c-.12,1.34-1.17,1.68-2.21,2a19.38,19.38,0,0,1-12.43.18c-2.19-.68-4.42-1.12-6.39-2.58-3.52-2.61-3.15-6.43-3.44-10-.38-4.61.12-9.23.41-13.85.13-2.12-.26-3-2.93-2.28-10.66,3-21.6,3.76-32.64,3.36-.27,0-.54,0-.81,0-4.66-.49-5.09-.51-5.26,3.94-.19,4.92-1.59,9.82-.4,14.78.32,1.31-.87,1.7-1.77,2-5.63,1.67-11,4.31-16.94,4.86-2.11.19-4.27.5-5.44-1.86a5.55,5.55,0,0,1,1.85-6.52c4.17-2.91,8.75-2.68,13.39-1.53C115.09,257.25,117.28,258,119.66,258.68Z" transform="translate(-6.98 -7.26)"/><path class="cls-4" d="M116.9,53.44c5.81-1.95,11.95-2.31,17.88-3.68,7.13-1.65,14.36-1.43,21.57-1a56.47,56.47,0,0,1,16.27,3.59A7,7,0,0,1,177,57.49c.7,3,.45,5.95.48,8.93,0,2.37-1.81,2.84-3.67,2.94a37.37,37.37,0,0,0-8.4,1.83c-5.77,1.69-7.76,6.48-8.52,11.74-.84,5.88-1.09,11.83-1.73,17.74a36.41,36.41,0,0,0,1.6,14.29c1.57,5.44,4.66,8.47,10.53,9.09,2.84.3,5.65,1.55,8.57,2,1.28.18.64,1,.64,1.64-.07,8.69-1.08,17.36-.59,26.07l.14,2.49c1.57-1.55.47-3.32,1-4.53a48,48,0,0,1,27.16,13.54c5.63,5.65,8.13,12.95,8.78,21,.86,10.55-3.88,18.56-10.69,25.92-4.94,5.33-9.87,10.59-16.56,13.78a30.17,30.17,0,0,1-9.42,2.39,103.58,103.58,0,0,0-12.88,1.77,18.9,18.9,0,0,1-3.51.35,187,187,0,0,1-27.7-1.23,36.56,36.56,0,0,1-18.65-7.73A81.5,81.5,0,0,1,96.91,204a20.2,20.2,0,0,1-2.5-4.52,123.92,123.92,0,0,0-5.28-12.53,5.25,5.25,0,0,1-.54-4.19c4.25-7.24,10.92-12,17.69-16.44a5.11,5.11,0,0,0,2.62-4.17c2.68.24,5.23,1.39,8,1.31,2.34-.07,4.64.68,7,.17,2.21-.47,4.3-1.42,6.74-1.34-.54-1.23-1.53-1.31-2.33-1.59-6.86-2.46-8.48-6.61-7.9-12.9a77.77,77.77,0,0,0-1.19-21.55c-.37-2-.74-4.13.46-6.07,3.77-1.83,5.42-4.77,5.59-9a55.8,55.8,0,0,1,2.29-13.48A42,42,0,0,0,129,84c-.16-4-2.85-6.68-7.21-7.51a4.35,4.35,0,0,1-2-.56,3.29,3.29,0,0,1-.73-2,131.35,131.35,0,0,0-2.1-16.52A7.26,7.26,0,0,1,116.9,53.44Z" transform="translate(-6.98 -7.26)"/><path class="cls-2" d="M156.82,103.84c-.27-7.35.92-14,1.81-20.57.6-4.48,2.87-8.41,8.09-10.32a43.12,43.12,0,0,1,24.44-1.41c3.39.72,4.26,2,4.34,5.35.13,6.09-1.24,12-2.26,17.94a108,108,0,0,0-1.91,16.35c-.19,9.56-4.23,10.82-11.68,12.63-5.42,1.32-10.75-.64-16-2-3.61-.91-5.05-4-5.59-7.15C157.42,110.93,156.1,107.16,156.82,103.84Z" transform="translate(-6.98 -7.26)"/><path class="cls-5" d="M88.59,182.75c3.15,7.71,5.23,16,10.39,22.7,6.61,8.61,14,16.44,24.42,20.67,4.95,2,10.25,2.51,15.53,3,6.6.56,13.21.59,19.82.53,4.35,0,8.56-1.11,12.84-1.58a105.68,105.68,0,0,0,14.16-2.15,56.13,56.13,0,0,1-13.22,6.7,97.13,97.13,0,0,1-18.25,5.4c-7.82,1.3-15.58,2.29-23.63,1.64-7.62-.63-15.12-1.44-22.27-4-5.62-2.05-11.29-4.63-15.43-8.89-6.44-6.61-12.34-13.92-11.84-24.07C81.47,195.23,83.64,188.45,88.59,182.75Z" transform="translate(-6.98 -7.26)"/><path class="cls-2" d="M114.44,78.14c3.79-.13,7.24.08,10.49,1.74A4.24,4.24,0,0,1,127.35,84a48,48,0,0,1-1.61,14.45c-1.31,4.79-1.52,9.76-2.19,14.66-.48,3.56-2.09,5-5.7,6-6.31,1.59-12.14-.29-17.73-2.6-3.48-1.44-3-5.53-3.19-8.59-.3-6.15,1.39-12.24,1-18.43-.12-1.79.1-3.57-.17-5.39s.86-2.76,2.52-3.25C105,79.4,109.63,77.62,114.44,78.14Z" transform="translate(-6.98 -7.26)"/><path class="cls-6" d="M119.67,120.17c-.15,5.36,1,10.6,1.8,15.86.55,3.87-.27,7.56-.38,11.33-.17,6.13.76,10.59,7.56,12.57a26.57,26.57,0,0,1,3.82,1.8,1.61,1.61,0,0,1-1.2,1.22c-5.65,1.08-11.29,2.3-17.1,1-1.83-.42-3.8-.35-5.27-1.79-.21-7.32-.34-14.65-.65-22-.24-5.77-.67-11.53-1.08-17.28-.17-2.36.54-3.26,2.94-2.3C113.34,121.89,116.48,120.4,119.67,120.17Z" transform="translate(-6.98 -7.26)"/><path class="cls-6" d="M116.9,53.44a22.27,22.27,0,0,1,1.46,7.39c.47,5,1.91,10,1.33,15.12-3,.23-6.08-.26-9.09.47-.93.22-1.72.11-1.8-1.27-.3-5.2-.62-10.4-1.13-15.59-.23-2.34.83-3.53,2.77-4.33A30.81,30.81,0,0,1,116.9,53.44Z" transform="translate(-6.98 -7.26)"/><path class="cls-4" d="M227.48,121.19c-3.52,0-4.06-.44-5-3.93a8.41,8.41,0,0,1,2-8.3,9,9,0,0,1,9-2.33c2.67.76,4,3.4,4.41,6.06.39,2.41-.18,4.65-2.61,6S230.41,121.36,227.48,121.19Z" transform="translate(-6.98 -7.26)"/><path class="cls-4" d="M62,120.75c-.73,0-1.73,0-2.72-.13a5,5,0,0,1-4.52-5.08c-.24-4.24,3.6-7.44,6.4-8,3.2-.59,6,1.88,7,6.07C69.45,118.45,67.61,120.65,62,120.75Z" transform="translate(-6.98 -7.26)"/><path class="cls-7" d="M118.61,260.62a60.59,60.59,0,0,1-17,4.91c-2.24.27-3.69-1.58-3-3.88a4.55,4.55,0,0,1,2.52-3c1.9,2.11,4.15,2.2,6.81,1.6,3-.66,6-1.26,9.07-.53C117.56,259.84,118.55,259.49,118.61,260.62Z" transform="translate(-6.98 -7.26)"/><path class="cls-8" d="M181.8,265.64c-2.87,1.25-5.62.21-8.37-.48-2.34-.58-4.72-1-6.41-3.09-1-1.17-.86-1.64.58-1.93s3-.64,4.44-1A31.2,31.2,0,0,1,181.8,265.64Z" transform="translate(-6.98 -7.26)"/><path class="cls-9" d="M181.8,265.64a66.58,66.58,0,0,1-9.76-6.47,23.75,23.75,0,0,1,11.57,2c1.38.55,3.14,1.38,2.91,2.77s-2.18,1.53-3.63,1.63C182.53,265.64,182.17,265.63,181.8,265.64Z" transform="translate(-6.98 -7.26)"/><path class="cls-10" d="M118.61,260.62c-4.23-1.15-8.41-.21-12.45.75-2.92.7-4.21-.27-5-2.74,6.12-2.76,11.93-.84,17.72,1.21.09,0,.16.33.13.48S118.73,260.52,118.61,260.62Z" transform="translate(-6.98 -7.26)"/><path d="M157.75,165.88a62.58,62.58,0,0,1,22.06,3.3c4.63,1.6,9.16,3.59,10.44,9.15a13.77,13.77,0,0,1,0,6.69,43.77,43.77,0,0,1-18,25.5,73.92,73.92,0,0,1-26.4,11.83c-5.87,1.34-11.69.27-17.54-.08-5.1-.3-9.52-2.31-13.7-5.12-7.22-4.86-8.6-10.23-6-18.4a42.75,42.75,0,0,1,22.61-26.37A58.35,58.35,0,0,1,157.75,165.88Z" transform="translate(-6.98 -7.26)"/><path class="cls-11" d="M185.83,158.2c5.13.78,8.91,3.69,12.38,7a14.14,14.14,0,0,1,4,7.54,5.79,5.79,0,0,1,.23,2.13c-.19,1.13-.44,2.55-1.68,2.83s-1.84-1-2.42-1.86a12.18,12.18,0,0,1-1.24-2.69c-2.3-6.35-6.89-10.34-13.05-12.71-.42-.16-.92-.16-1-.74s.35-.78.8-.92Z" transform="translate(-6.98 -7.26)"/><path class="cls-11" d="M151.81,53.35A2.42,2.42,0,0,1,154,51.92c5.44-.2,10.89-.12,16.17,1.26,2.33.6,4.2,2.17,4.09,5a13.58,13.58,0,0,0,.48,4.29c.4,1.43-.16,2.08-1.71,1.47a9.83,9.83,0,0,1-4.61-3.64c-2.94-4.26-7.36-5.6-12.12-6.18A19,19,0,0,1,151.81,53.35Z" transform="translate(-6.98 -7.26)"/><path class="cls-12" d="M169.47,103.74c.5-4-.24-8.55.25-13.11.35-3.27.95-3.64,4.15-3.34.81.08,1.63.1,2.44.22,1.91.29,3.27,1.06,2.86,3.37a7.36,7.36,0,0,0,.09,1.61c.09,1.61.56,3.32.18,4.81-.54,2.14-2.67.36-3.92,1-.45.25-1.08.28-1.23.93a1.27,1.27,0,0,0,.84,1.54c5.38,1.73,2.8,6.25,3.32,9.63.16,1-1.08,1.34-2,1.52a5.71,5.71,0,0,1-7-6C169.48,105.43,169.47,104.89,169.47,103.74Z" transform="translate(-6.98 -7.26)"/><path class="cls-13" d="M107.1,99.1c0-1.91-.06-3.81,0-5.71s1-3.24,3.2-3.16c2,.08,4.37-.9,4.82,2.56s.34,4.08-3.16,4.51c-.65.08-1.37.07-1.62.74-.33.9.49,1.27,1.06,1.66a6.71,6.71,0,0,0,1.87,1.06c2.85.81,2.65,2.84,1.85,4.87-.63,1.58-1.52,3.16-3.78,2.64s-4.7-.91-4.3-4.28A39.86,39.86,0,0,0,107.1,99.1Z" transform="translate(-6.98 -7.26)"/><path class="cls-14" d="M141.77,211c-1.2-2.68-4-3-6.1-4.35-.56-.34-1.65-.15-1.62-1.08s1-1.24,1.77-1.43c3.73-1,7.34-1.26,10.85,1.11s6.76,4.41,8.8,8.16c.74,1.36.69,2.26-.37,3.29a11.06,11.06,0,0,1-5.32,3.09c-10.84,2.41-21.51,2.31-31.85-2.25a17.87,17.87,0,0,1-3.48-2.05c-2.26-1.68-2.19-3,.06-4.83,5.63-4.51,11.94-5,18.57-3C136,208.6,138.88,209.89,141.77,211Z" transform="translate(-6.98 -7.26)"/><path class="cls-15" d="M151.58,188.51c-4.29,2-8.84,2.19-13.43,1.68-1.65-.18-1.74-1.69-1.71-3,.13-5.14.32-10.29.53-15.43,0-.9.63-1.38,1.55-1.59,4.59-1.05,9.17-2.17,13.77-3.2,1-.23,2.23-.07,2.28,1.23.22,5.49,1.7,10.93.84,16.46-.34,2.14-1.27,3.88-3.87,3.85-.25-.26-.54-.58-.9-.55a15.08,15.08,0,0,1-10-2.65c-1-.69-1.54-.12-1.47,1,.11,1.94,1.49,2.38,3.06,2.23a48.87,48.87,0,0,1,6.73-.44A4.38,4.38,0,0,1,151.58,188.51Z" transform="translate(-6.98 -7.26)"/><path class="cls-16" d="M173.7,178.76a18.76,18.76,0,0,1-.34,5.11c-1.17,4.56-1.22,4.79-5.81,5.28a18.08,18.08,0,0,1-7-.29c-1.09-.31-2.07-.89-2-1.9.35-6.05-1.46-12.05-.22-18.13.26-1.29.76-1.42,1.74-1.33,3.77.33,7.53.64,11.29,1,.56.05,1.46-.06,1.36.91C172.35,172.61,174.51,175.51,173.7,178.76Z" transform="translate(-6.98 -7.26)"/><path d="M151.58,188.51l-10.41.79c-1.17.09-2.45-.27-2.74-1.29a6.36,6.36,0,0,1,.28-3.65c.34-.9,1.17-.64,1.94,0a10.6,10.6,0,0,0,9.12,2.73c1.17-.18,1.86.09,1.77,1.42Z" transform="translate(-6.98 -7.26)"/><path class="cls-13" d="M165,187.12a10,10,0,0,1-3.27-.44c-.89-.23-1.78-.13-1.74-1.47,0-.79-.39-1.74.29-2.26.89-.7,1.71.15,2.37.66,1.29,1,2.79,1,4.27,1.28.78.13,2-.35,1.9,1.11-.1,1.12-1.13,1.12-2,1.12Z" transform="translate(-6.98 -7.26)"/></svg>