<svg id="Layer_1" data-name="Layer 1" xmlns="http://www.w3.org/2000/svg" viewBox="0 0 286.12 285.43"><defs><style>.cls-1{fill:#010101;}.cls-2{fill:#fefefe;}.cls-3{fill:#020305;}.cls-4{fill:#020405;}.cls-5{fill:#75cbdc;}.cls-6{fill:#4299aa;}.cls-7{fill:#e87;}.cls-8{fill:#fdfdfd;}.cls-9{fill:#4399aa;}.cls-10{fill:#4299a9;}.cls-11{fill:#ddda3e;}.cls-12{fill:#fbfbfb;}.cls-13{fill:#63b3c2;}.cls-14{fill:#559fac;}.cls-15{fill:#ddd83e;}.cls-16{fill:#83c2b9;}.cls-17{fill:#deda3c;}.cls-18{fill:#0c0b0c;}</style></defs><title>27</title><path class="cls-1" d="M146.58,7.31c35.79,0,71.59-.08,107.38.08,5.75,0,11.6.25,17.21,2,9.88,3,16.44,9.52,20.15,19.09,1.79,4.61,1.6,9.32,1.46,14.14-.27,9-.45,17.94-.44,26.92.09,53,0,105.9.11,158.85,0,7-.13,13.89.37,20.87.51,7.23.35,14.72-1.82,21.84-3,9.77-9.46,16.22-18.91,20-5.43,2.17-11,1.61-16.57,1.52-1.63,0-3.26,0-4.89,0l-135.89-.14c-18.26,0-36.53-.26-54.78.14-6.62.14-13.21-.06-19.81-.17-15.57-.23-27.27-7-32.49-23.71A21.23,21.23,0,0,1,7,261.14c.87-13.61.3-27.24.33-40.85q.17-82,0-164a196,196,0,0,1,.57-21.13C9.21,22.79,15.78,14.44,27,9.47c5-2.21,10.22-2.12,15.45-2.13q52.07,0,104.11,0Z" transform="translate(-6.94 -7.29)"/><path class="cls-2" d="M145.37,11.62q52.88,0,105.75,0a93.52,93.52,0,0,1,16.55,1.09c12.81,2.33,21.2,14.28,21.05,25.54-.91,65.55-.33,131.12-.37,196.68,0,9.33.13,18.66-.12,28-.38,14.43-13,25.62-26.21,25.57-52.14-.21-104.29-.09-156.43-.1-16.62,0-33.25-.21-49.87.09-6.92.13-13.78-.22-20.64-.7-12.2-.87-22.58-10.45-23.52-22.61-.82-10.64-.21-21.4-.21-32.11q0-29.41,0-58.85,0-62.13,0-124.25c0-5.71,0-11.47,1-17.1C14.55,20.12,26.5,11.58,38,11.65c35.79.21,71.58.07,107.37.07Z" transform="translate(-6.94 -7.29)"/><path class="cls-3" d="M115.88,258.39a3.78,3.78,0,0,0-4-.73,44.16,44.16,0,0,1-14.78,1.54,12,12,0,0,1-2.91-.57c-2.34-.79-2.69-1.77-1.32-3.83,2-3.1,4-6.27,6.86-8.74a4.07,4.07,0,0,0,1.47-3.55c-.12-3.08,0-6.18.12-9.26,0-1.22,0-1.93-1.61-2-9.69-.62-17.56-5.11-24.29-11.86-4.84-4.87-6.4-11.12-7.63-17.59-2.28-12-2-24.15-1.59-36.33.54-14.23,1.11-28.43,3.29-42.54,1.08-7,.95-14.09,2.28-21,.79-4.15,1.66-8.3,2.85-12.35a99.66,99.66,0,0,0,2.42-12.72c1-6.53,6.08-9.58,11.86-10.05,6.32-.53,12.66-1.3,19-1.2,3.64,0,6.16-.41,7.48-4a5.15,5.15,0,0,1,1.43-1.61c3.31-3.19,9.14-1.58,9.94,3,.52,3,2.39,1.9,4,2.18,2.18.39,1.43-1.54,2-2.41.13-.2.07-.53.1-.8,1.14-8.67,1.76-9.39,10.36-10.36a50.31,50.31,0,0,1,18.33.92c3.77,1,5.52,3.27,5,7.17a29.15,29.15,0,0,1-1.33,5.78c-.56,1.54-.5,2.93,1.9,2.89,2.93,0,3.16,2.35,3.3,4.42.23,3.43.16,6.87.59,10.31,1.66,13-.36,25.82-2,38.67-.74,5.91-.86,11.9-2.1,18.46,4-3.52,8-5.84,12.74-6.71a8.35,8.35,0,0,1,7.12,1.6c2.9,2.33,2.19,6.56.29,10.2a33.43,33.43,0,0,1-2.53,3.57c1.17.68,2-.14,2.81-.46,4.77-1.9,9.57-3.71,14.72-4.27,1.21-.13,1.78-.61,1.61-1.92-.23-1.79-.27-3.6-.49-5.39-.74-6,3.85-7.37,8-7a9.25,9.25,0,0,0,3,0c3.4-.79,4.53-.1,5.64,3.21a12.9,12.9,0,0,1,.68,6.95c-.49,2.12.33,2.55,2,2.47,4.18-.19,7.68,1.65,11.21,3.52a5,5,0,0,1,2.87,5c-.07,6.6-1.55,7.69-8.21,9.49-1.67.45-2.36.83-2.35,2.72.1,10.44.26,20.88-.05,31.3-.23,7.87-.54,15.74-1.38,23.59-.62,5.83-4.11,8.93-8.93,11.14a35.87,35.87,0,0,1-12.64,2.7c-6.15.43-12.31.73-18.47,1-1.12,0-1.6.26-1.58,1.5a63.77,63.77,0,0,1-1,13.23,3,3,0,0,0,.67,2.23c1.7,2.86,3.11,5.88,5.3,8.45a1.94,1.94,0,0,1-1.68,3.06c-4.33.08-8.57,1.33-13,.65-3.42-.54-3.88-1.28-1.84-4.18,1.45-2.07,2.69-4.49,4.62-6,3.69-2.88,4.05-6.69,4.12-10.77,0-1.27,0-2.55.12-3.82.3-4.31.32-4.25-4.14-4.29q-30.24-.27-60.49-.66a94.15,94.15,0,0,1-9.45-.93c-1.65-.19-2.46.1-2.28,2.1a32.18,32.18,0,0,1-.76,10.25c-.21.89-.12.86.67,1.37a44.85,44.85,0,0,1,12,12C116,257.2,115.88,257.53,115.88,258.39Z" transform="translate(-6.94 -7.29)"/><path class="cls-4" d="M146.56,47.5c-1.85.13-3.65.28-5.46.36-1.46.07-3.07.2-3.31-1.81s.06-3.77,2.34-4.43a53.27,53.27,0,0,1,22.21-1.56A8,8,0,0,1,168,43.42c1.19,1.65.54,2.85-.25,4.17s-2,1.31-3.31.81a4.31,4.31,0,0,0-1.6-.23A131,131,0,0,1,146.56,47.5Z" transform="translate(-6.94 -7.29)"/><path class="cls-5" d="M136.17,123.8c-3.2,1.26-6.42.86-9.55-.15a3.66,3.66,0,0,1-2.54-3.77c-.1-7.6-.18-15.19.44-22.78a147.71,147.71,0,0,0,.6-15.73c-.12-4.53,1.69-8.68,1.83-13.11.06-1.61,1.51-1.09,2.32-.92,1,.23,2.77-.1,2.47,2-.53,3.6.06,7.22-.07,10.83a24.27,24.27,0,0,0,3.1,13,12,12,0,0,0,16,5.27c1.72-.78,3.32-1.82,5-2.67,3.69-1.86,4.24-5.58,5.37-9,.36-1.1.35-2.32,1.14-3.27.19.2.43.41.44.67.3,6.13.89,12.28-.35,18.37-.64,3.19-.65,6.44-1.39,9.63-.52,2.24-.37,4.64-1.07,6.93a9,9,0,0,0,0,4.31c.15.77.25,1.88,1.18,1.93s1-1.08,1.3-1.81a87.58,87.58,0,0,0,3.64-16.87,60.44,60.44,0,0,0,.69-14.79,131.49,131.49,0,0,1-.95-13.3c0-1.26-1.45-2.53-2.22-3.82.13-.8.21-1.61.39-2.4s.06-1.88,1.48-1.79c1.23.08,2.13.45,2.22,1.83.39,6.39,1.23,12.74,1.28,19.17.07,10.87-1.79,21.56-2.77,32.33-.48,5.29-1,10.57-1.87,15.81a124.2,124.2,0,0,0-12.23,13.1c-1.6,1.89-3.27,2.77-5.92,1.8s-4.73.59-5,3.61a3.66,3.66,0,0,0,0,.81c1.22,7.52,2.2,15.1,6.23,21.8,1.32,2.21,2.65,2.26,4.13.14a17,17,0,0,0,2.89-7.55c.35-2.5,1-2.9,3.22-1.86,5.94,2.73,12.13,2.82,18.4,1.88,5.28-.8,10.68-1,15.69-3.14a4.13,4.13,0,0,0,2.12-1.31,97.23,97.23,0,0,1-10.65.33c-1.07-.07-2.43.4-3-1.14,8.55-.75,16.91-2.71,25.35-4.14,5.33-.9,10.69-1.68,16-2.51,1.44-.22,2.34,0,2.23,1.9-.82,15-.18,30.1-1.24,45.12-.22,3.17-.43,6.32-.39,9.49a4.24,4.24,0,0,1-1.11,3.47,3.68,3.68,0,0,1-2.55.77c-9.17-.07-18.34,1.19-27.49.49-10-.77-20-.26-29.94-.46-2.91-.05-5.81.31-8.7.36-13.39.21-26.69-.59-39.34-5.67-4.77-1.92-8.57-4.79-11.06-9.54-6.61-12.66-12.72-25.51-17-39.18A46.68,46.68,0,0,1,83,154.06c.07-14.61.72-29.22.59-43.83,0-5.18,1.43-10.24,2.06-15.37.9-7.39,1.79-14.78,3.19-22.09a6.73,6.73,0,0,1,1.36-3.5c4.37-.5,8.74-1,13.11-1.5,3-.36,6.09-.87,9.18-.37-1,6.84.08,9.81,4.58,12.43,1.37.72,1.23,2,.9,3.1-3.14,10.46-2.23,21.22-2.31,31.9a23,23,0,0,0,2.25,8.91,4.25,4.25,0,0,0,2.36,2.53c4.64,1.72,9.31,3.22,14.23,1,1.81-.72,3.64-1.42,5.45-2.16,3.52-1.45,4.27-5.26,4.25-7.79a3.69,3.69,0,0,0-3.39-3.64,11.24,11.24,0,0,0-6,.76c-.66.26-1.5.61-1.23,1.49.22.72,1.08.4,1.66.46s1.26,0,1.89,0A17,17,0,0,1,136.17,123.8Z" transform="translate(-6.94 -7.29)"/><path class="cls-6" d="M90.18,69.27C87.92,80.6,87.06,92.15,85,103.51c-1.19,6.54-.78,13.22-.6,19.83.25,8.9-.47,17.77-.68,26.65-.25,10.68,2.36,20.62,6.49,30.28a287.5,287.5,0,0,0,13.39,28.22c2,3.53,5,5.54,8.31,7.07A67.11,67.11,0,0,0,133.38,221c6,.59,12.1,1.36,18.15.94,11.25-.77,22.51-.59,33.75-.3,6.53.17,13.06.64,19.57.3,5.44-.3,10.87-.48,16.31-.41-1,2.64-3.42,3.63-5.58,4.82-3.29,1.81-7,2.38-10.69,2.73-12.57,1.16-25.18,1.25-37.78,1.24-14.17,0-28.34.08-42.5-.17a142.13,142.13,0,0,1-18.4-1.37c-3.91-.58-7.93-.12-11.84-1.2C85,225,77.65,219.84,72.86,211.38c-1.61-2.85-1.46-6.29-2.09-9.45a108,108,0,0,1-2.19-27.55c.9-15.82.64-31.71,3-47.45,1.12-7.41,1.56-14.93,2.34-22.39.68-6.49,3-12.62,4-19,.36-2.32.33-4.75,1-7C80.79,72.92,82,69.7,90.18,69.27Z" transform="translate(-6.94 -7.29)"/><path class="cls-7" d="M152.39,164.77a10.69,10.69,0,0,1,4-2c13.38-5.07,26.66-10.46,40.23-15,8.68-2.89,17.92-3.46,27.1-3.1,3.6.14,6.69,2,9.72,3.83a1.87,1.87,0,0,1,.6.55c1.22,2-1.11,8-3.42,8.6-5.32,1.47-10.83,1.83-16.25,2.74-9.07,1.52-18.1,3.27-27.19,4.59-11.41,1.65-22.87,2.3-34.31.21C152.69,165.2,152.59,165,152.39,164.77Z" transform="translate(-6.94 -7.29)"/><path class="cls-8" d="M134.47,75.22c-.64-5.65,1.18-11.73,1.8-17.94.23-2.2,1.37-2.91,3.44-3.14a61,61,0,0,1,20,.67c4.17.92,5.16,1.93,4.06,6.23-1.83,7.16-3,14.45-4.44,21.69-.67,3.47-1.12,6.8-3.53,9.64-4.42,5.21-13.22,6-17.27,1.36-2.76-3.2-3.66-7.2-4-11.3C134.32,80.27,134.47,78.08,134.47,75.22Z" transform="translate(-6.94 -7.29)"/><path class="cls-9" d="M180.28,168.18c3.4.81,6.82.43,10.23.19a16.84,16.84,0,0,1,2.42-.25c1,.09,2.53-.68,2.82.62.22,1-1.33,1.34-2.22,1.64-9.85,3.41-19.93,5.11-30.36,3.73-2.53-.34-5.14-2.7-7.06-2.19s-.9,4.43-2.25,6.53a40.58,40.58,0,0,1-2.2,3.73c-1.73,2.12-3.2,2-4.6-.4a36.74,36.74,0,0,1-4.93-13.71c-.45-3.22-1.85-6.25-1.73-9.59.15-4,2.6-6,6.23-4.54,2.09.87,3.2.31,4.53-1.19,3.25-3.65,6.23-7.54,9.8-10.9,1-.94,1.93-1.94,3.38-2.14.16.86,1,1.57-.26,2.54-5.4,4.25-9.16,10-13.61,15.16-.72.83-1,2.09-2.72,1.46-1-.38-1.61.62-1.19,1.49,2.48,5.19,2.09,11,3.64,16.36.17.59-.24,1.76.9,1.6.82-.12.75-1.09.85-1.82a19.1,19.1,0,0,0,.11-7c-.17-.72-.64-1.92,1.11-1.64,8.48,1.37,17,1,25.49.27A11.06,11.06,0,0,1,180.28,168.18Z" transform="translate(-6.94 -7.29)"/><path class="cls-7" d="M180.53,135.9c4.68,0,6.08,1.74,5.19,5.27a15,15,0,0,1-7.06,9.17c-5.23,3.32-11.16,5-16.81,7.4-3.15,1.32-6.25,2.76-9.39,4.11-.66.28-1.54.54-2-.16s.23-1.32.71-1.86c6.25-7,11.77-14.75,19.86-20C174.28,137.76,177.59,136.11,180.53,135.9Z" transform="translate(-6.94 -7.29)"/><path class="cls-10" d="M134.48,127.24c-3,2.89-6.45,2.27-9.86,1.29-7-2-9.63-5.55-9.74-13-.09-6.52-.19-13,0-19.55a60.27,60.27,0,0,1,2.34-13.27,3.22,3.22,0,0,0-.19-2.84c2,.06,4,0,6-1.75-.28,6-.24,11.52-.84,16.94a187.05,187.05,0,0,0-.68,24.93c.09,4,2.53,6.18,6.53,6.69C130.16,126.91,132.32,127,134.48,127.24Z" transform="translate(-6.94 -7.29)"/><path class="cls-11" d="M163.61,74.76a4,4,0,0,1,2.88,4.15c-.17,6.29,1.41,12.42,1.21,18.71A117.48,117.48,0,0,1,164.38,121a43.87,43.87,0,0,1-2,5.13c-.24.65-.43,1.17-1.26,1.12s-.77-.56-1-1a9.85,9.85,0,0,1-.71-7.88c1.15-3.38.83-6.86,1.62-10.27,1.85-8,1.51-16.29,1.39-24.5A52.76,52.76,0,0,1,163.61,74.76Z" transform="translate(-6.94 -7.29)"/><path class="cls-12" d="M124.6,66.45c-.51,2.41-.25,5.67-2.39,8.33-1.09,1.37-2.43,2.44-4.11,2.08s-2.5-1.84-2.8-3.61a13.28,13.28,0,0,1,4.26-12.47c1.21-1.16,4.57.94,5,3.13A15.31,15.31,0,0,1,124.6,66.45Z" transform="translate(-6.94 -7.29)"/><path class="cls-12" d="M214.41,139.94c1.8-4,1.72-5.39-.07-7.43,1.15-.61,1.94-.65,2.47.81a14.3,14.3,0,0,1,.55,5.35,9.69,9.69,0,0,0,.52,3.59l-12.15,1c0-2.43,0-4.77,0-7.12,0-2.86,1.48-4.23,4.37-3.81.87.12,1.73.38,2.71.61-1.26.28-2.39.56-3.53.79-.69.14-1.25.41-1.17,1.2a1,1,0,0,0,1.36,1C213.13,134.51,214.15,136.61,214.41,139.94Z" transform="translate(-6.94 -7.29)"/><path class="cls-13" d="M95.86,256c1.65-3.79,4.58-6.43,6.87-9.7,3.31,2.78,5.62,6.54,9.77,9.55C106.49,255.46,101.28,257,95.86,256Z" transform="translate(-6.94 -7.29)"/><path class="cls-14" d="M184.66,259h-11c2.18-3,4-5.54,6-8.09.56-.75.9-.52,1.28.3C182.05,253.76,183.34,256.28,184.66,259Z" transform="translate(-6.94 -7.29)"/><path class="cls-15" d="M136.17,123.8c-.15-2.52-.78-5.1.89-7.41l2.24-.13c2.32,1.15,1.67,3.11,1.35,5C139.71,123.06,137.79,123.17,136.17,123.8Z" transform="translate(-6.94 -7.29)"/><path class="cls-5" d="M140.65,121.25c-.2-1.73.12-3.61-1.35-5C142,116.65,142.39,118.05,140.65,121.25Z" transform="translate(-6.94 -7.29)"/><path class="cls-16" d="M139.74,45.52c4.34-4.66,23-4.28,25.71,0Z" transform="translate(-6.94 -7.29)"/><path class="cls-17" d="M217.26,213.06a3,3,0,0,1-1.57-3c0-3.82-.28-7.65,0-11.44.52-7.53-1.33-14.9-1.25-22.39,0-1.56-1.45-2.92-.28-4.77.42-.66-.91-1.77-2.18-1.74-1.54,0-3.09.14-4.62.06s-1.69-1-.83-2.15c2.45-3.2,8.35-4.42,11.65-2.21a4.85,4.85,0,0,1,1.89,4.17c0,9.9.55,19.85-.35,29.67C219.3,203.75,220.21,208.72,217.26,213.06Z" transform="translate(-6.94 -7.29)"/><path d="M141.55,78.39A50.81,50.81,0,0,1,144.25,64c.78-2.49,4.62-4.77,6.84-4.39,2.47.42,3.81,2.54,4.21,5.86a31.83,31.83,0,0,1-1.24,13.38,12.87,12.87,0,0,1-4.62,6.85c-3.12,2.29-6.1,1.34-7.09-2.36A14.9,14.9,0,0,1,141.55,78.39Z" transform="translate(-6.94 -7.29)"/><path class="cls-18" d="M117.51,67.92c.18-1.07.29-2.58,2.09-2.58,1.37,0,1.73,1.17,1.69,2.31,0,1.35-.65,2.57-2.09,2.72S117.44,69.41,117.51,67.92Z" transform="translate(-6.94 -7.29)"/></svg>