<svg id="Layer_1" data-name="Layer 1" xmlns="http://www.w3.org/2000/svg" viewBox="0 0 286.12 285.42"><defs><style>.cls-1{fill:#010101;}.cls-2{fill:#fefefe;}.cls-3{fill:#080101;}.cls-4{fill:#0a0202;}.cls-5{fill:#fe7900;}.cls-6{fill:#d6000a;}.cls-7{fill:#ee8777;}.cls-8{fill:#d3020a;}.cls-9{fill:#ee8778;}.cls-10{fill:#cf030d;}.cls-11{fill:#fbc603;}.cls-12{fill:#fbfbfb;}.cls-13{fill:#d21f10;}.cls-14{fill:#f7760b;}.cls-15{fill:#c60a0e;}.cls-16{fill:#f7bf0a;}.cls-17{fill:#c50b09;}.cls-18{fill:#f07f0f;}.cls-19{fill:#b21615;}.cls-20{fill:#fcc603;}.cls-21{fill:#0c0c0c;}</style></defs><title>12</title><path class="cls-1" d="M146.57,7.31c35.8,0,71.59-.08,107.38.08,5.93,0,12,.24,17.74,2.09,11.17,3.59,17.67,11.61,20.83,22.56a22.33,22.33,0,0,1,.49,6.75c-.19,6.53-.63,13.05-.8,19.57-.11,4.07.17,8.15.17,12.23,0,52.59-.07,105.18.07,157.77,0,6.94-.1,13.89.36,20.87.5,7.41.41,15.1-1.95,22.36-3,9.26-9.23,15.52-18.25,19.27-5.61,2.33-11.34,1.84-17.08,1.73-1.63,0-3.26,0-4.89,0L88,292.44c-9.36,0-18.73-.36-28.07.12-6.54.34-13-.06-19.54-.14-15.89-.2-27.57-7.14-32.77-23.72A21.27,21.27,0,0,1,7,261.14c.87-13.52.3-27,.33-40.58q.17-82.29,0-164.58c0-8.16-.5-16.34,1.11-24.35C10.68,20.42,17.68,13.1,28.28,9,33,7.14,37.88,7.37,42.73,7.36q51.93-.08,103.84,0Z" transform="translate(-6.94 -7.29)"/><path class="cls-2" d="M145.09,11.64q53.41,0,106.83,0a102.28,102.28,0,0,1,15.46,1c12.28,1.95,21.52,13.54,21.34,25.82-.93,65.74-.33,131.49-.36,197.23,0,9.34.16,18.66-.19,28-.48,13-11.78,24.6-24.78,24.63q-71.4.15-142.8,0c-21.44,0-42.88-.18-64.32.09-7.09.08-14.15-.19-21.18-.71C22.52,286.9,12.45,277,11.56,265.21c-.8-10.55-.21-21.22-.21-31.83q0-37.18,0-74.38,0-54.49,0-109a101.72,101.72,0,0,1,1-17.1C14.55,20.07,26.57,11.58,38,11.65c35.7.22,71.4.08,107.1.08Z" transform="translate(-6.94 -7.29)"/><path class="cls-3" d="M161.94,140.16c4.07-3.55,8-5.81,12.62-6.7a8.4,8.4,0,0,1,7.35,1.63c2.84,2.29,2,6.6.31,10a35.9,35.9,0,0,1-2.82,4c2.39-.13,4.09-1.23,5.89-1.89A49.05,49.05,0,0,1,197,144.08c1.34-.15,1.94-.64,1.76-2.06-.24-1.79-.28-3.61-.5-5.4-.68-5.74,3.56-7.11,7.65-6.93a11.78,11.78,0,0,0,4-.17c2.28-.67,3.86.33,4.69,2.52a13.84,13.84,0,0,1,1,8c-.48,2.09.37,2.4,1.87,2.32,4-.2,7.32,1.53,10.75,3.18,2.62,1.27,3.53,3.09,3.47,6-.14,6.08-2,7.13-7.81,8.73-2.23.62-2.79,1.23-2.76,3.47.13,10.35.27,20.7-.05,31-.24,7.68-.56,15.37-1.35,23-.67,6.59-4.87,9.67-10.33,11.84-5.3,2.1-11,2.06-16.52,2.64-4.24.44-8.53.46-12.79.51-1.47,0-2.07.29-2,1.91a59.42,59.42,0,0,1-1,12.69,2.24,2.24,0,0,0,.22,1.83c2,2.69,3.06,5.92,5.32,8.45,1.39,1.57.66,3.6-1.41,3.63-4.33.07-8.57,1.34-13,.59-3.3-.56-3.76-1.27-1.8-4,1.51-2.14,2.81-4.63,4.8-6.21,3.58-2.83,3.88-6.55,4-10.53.09-2.07-.11-4.17.48-6.23.47-1.65-.22-2.06-1.92-2.07q-29.57-.14-59.13-.46a76.5,76.5,0,0,1-12.73-1c-1.88-.34-3.28-.3-3,2.43a23.05,23.05,0,0,1-.45,8.1c-.43,1.73-.28,2.71,1.57,3.93,4.09,2.7,7.28,6.51,10.36,10.34.39.48.79,1,.33,1.74-3.35-1.51-6.33.76-9.53,1-3.54.24-7.06.69-10.58.17s-4.26-2-2.2-5c1.12-1.65,1.93-3.74,3.45-4.84,4.37-3.18,4.54-7.51,4.39-12.25-.18-5.52,0-5.4-5.44-6.22a30.4,30.4,0,0,1-13.41-5.48c-5-3.65-9.9-7.62-12.12-13.62a75.32,75.32,0,0,1-4-20.2c-1.25-15.62.22-31.2.77-46.79.31-8.47,2-16.89,2.93-25.34.64-5.66.8-11.37,1.73-17a129.86,129.86,0,0,1,3-12.87A103.28,103.28,0,0,0,72.11,77c1-7,6.65-9.85,12.29-10.25,6.24-.45,12.47-.9,18.7-1.41,4.5-.37,4.42-.48,7.58-4.09,1.51-1.74,3.12-4.11,5.8-3.23s5.21,2.19,5.54,5.55c.2,2.17,1.88,1.47,3.1,1.51,1.06,0,2.19.49,2.49-1.42a44.3,44.3,0,0,1,1.8-8.72c.32-.85.42-1.61,1.58-1.9,8.92-2.24,17.84-2.69,26.78-.27,2.77.75,4.31,3.38,3.81,6.72-.33,2.21-1,4.38-1.47,6.57-.24,1.11-.31,2.22,1.33,2.15,3.29-.13,3.93,2.11,4,4.63.14,3.44.15,6.88.58,10.31,1.63,13-.38,25.82-2,38.67C163.32,127.65,163.22,133.6,161.94,140.16Z" transform="translate(-6.94 -7.29)"/><path class="cls-4" d="M150.63,39.39c3.42.71,7.4-.1,10.71,2.27,1.77,1.27,3.12,2.78,1.92,5.2-.73,1.47-1.72,1.86-3.47,1.74-7.66-.51-15.32-1.16-23-.81-1.63.07-3.41.57-3.89-1.69-.53-2.48.52-3.73,2.81-4.53C140.47,39.92,145.44,39.92,150.63,39.39Z" transform="translate(-6.94 -7.29)"/><path class="cls-5" d="M174.81,168.23c9.73-.86,19.25-3.08,28.86-4.74,4.36-.75,8.75-1.29,13.13-2,1.59-.24,2.25.23,2.2,2-.45,15.24-.75,30.48-1.28,45.72-.1,2.79-.33,5.59-.35,8.4,0,1.41.12,3-1.36,3.89a4.19,4.19,0,0,1-2.57.73c-9.62,0-19.24,1.22-28.84.45-5.62-.45-11.26-.64-16.84-.63-6,0-12.14.15-18.21.45-14.52.71-28.84-.38-42.46-6.12a20.24,20.24,0,0,1-10.7-10.28C91.1,195.39,86,184.58,81.77,173.34c-4-10.59-4.15-21.51-3.48-32.5.26-4.27.29-8.53.28-12.78,0-11.26-.08-22.47,2.13-33.63,1.4-7.1,1.79-14.4,3.2-21.53.25-1.25.34-2.54,1.4-3.45,4.19-1.22,8.57-1,12.84-1.63,3.11-.46,6.25-1,9.43-.39-1.08,7.16.28,10.42,5.18,12.55.84,1.1.44,2.31.13,3.4-3,10.59-2.08,21.45-2.09,32.23,0,2.83,1.06,5.51,2.17,8.1a5.09,5.09,0,0,0,2.89,2.76c4.49,1.78,9,2.81,13.73.81,1.59-.62,3.16-1.29,4.77-1.87,3.48-1.25,4.56-4.15,5-7.4.29-2.3-1.36-4.11-3.79-4.41-.89-.1-1.8-.07-2.71-.1-.64,0-1.13-.46-1.72-.65a2.78,2.78,0,0,0-2.77.36c-1,.86-.33,1.76.08,2.63,1.16,1,2.59.18,3.84.56-.68,2.35-1.31,4.7-.37,7.14-3.32,1.68-6.76,1.1-10.06.16s-2.94-4-2.88-6.41q.43-16.86,1.18-33.71c.21-5,1.38-9.84,1.81-14.78.15-1.65,1.08-1.68,2.21-1.52s3,0,2.63,2.17c-.55,3.61.12,7.23,0,10.85a24.46,24.46,0,0,0,2.92,12.54c3.42,6.43,10.24,8.1,17,5.41,7.37-2.94,9.31-9,10.73-15.64a11.47,11.47,0,0,1,.42-1.25,2.39,2.39,0,0,1,.86,2.18c0,3.8.35,7.63-.14,11.41-.91,7-1.78,14-2.8,21a34.72,34.72,0,0,0,0,10,3.79,3.79,0,0,0,2-2.77,68.91,68.91,0,0,0,3.7-20.53c0-7.25.52-14.52-.56-21.74-.31-2.06-.44-4.19-2.24-5.66.15-1,.31-2,.45-2.93s.21-1.8,1.54-1.75c1.17.05,2,.46,2.12,1.64.49,6.3,1.1,12.61,1.32,18.93.43,12.52-2.33,24.81-3,37.26-.2,3.67-1,7.31-1.61,11a7.91,7.91,0,0,1-2.17,2.4A89,89,0,0,0,147.91,152c-1.77,2.18-3.54,4-6.91,2.45-2.18-1-4.26.75-4.63,3.22a5.79,5.79,0,0,0-.06,1.9c1.32,7,2.1,14.21,5.79,20.58,1.88,3.23,3.22,3.23,5.12,0a18.33,18.33,0,0,0,2.32-6.64c.38-2.57,1-3.05,3.17-2,6.87,3.26,14,2.67,21.11,1.59,4.64-.71,9.43-.84,13.75-3a6,6,0,0,0,1.65-1,5.87,5.87,0,0,0-3.22,0,50.73,50.73,0,0,1-9,.24C176.19,169.29,175.13,169.44,174.81,168.23Z" transform="translate(-6.94 -7.29)"/><path class="cls-6" d="M85.3,69.45c-2.41,12.8-3.64,25.78-5.79,38.62a14.28,14.28,0,0,0-.06,2.45c0,13.16.14,26.32-.54,39.47-.55,10.77,2.34,20.8,6.48,30.57C89,189,93.1,197.17,96.87,205.5c3.12,6.88,8.74,10,15.22,12.09a100.85,100.85,0,0,0,35.71,4.25c6.61-.31,13.25-.66,19.83-.63,10.68,0,21.38,1.11,32.08.72,5.44-.2,10.86-.67,16.3-.38-1.49,3.68-4.95,4.7-8.18,5.89-4.55,1.67-9.42,1.89-14.17,2.13-25.29,1.28-50.6.51-75.91.56-7.86,0-15.71-1-23.53-1.71-10.61-1-19.09-6.48-25.38-15.2-1.51-2.09-1.88-4.55-2.23-6.88-1-6.88-3-13.69-2.85-20.66.18-10.68.25-21.36.7-32,.35-8.16.83-16.3,2-24.36,1.38-9.86,1.34-19.89,3.38-29.64,1.24-5.9,3-11.71,3.85-17.69a26.1,26.1,0,0,1,1.69-6.79C77.27,70.78,80.77,69.24,85.3,69.45Z" transform="translate(-6.94 -7.29)"/><path class="cls-7" d="M147.52,164.78c8.52-3.74,17-7.38,25.85-10.26,6.67-2.17,12.85-5.68,19.76-7.21a104.93,104.93,0,0,1,25-2.65c3.84.08,7.07,2,10.28,3.86a1.7,1.7,0,0,1,.58.55c1.25,1.94-1,8-3.3,8.61-5.23,1.43-10.64,1.83-16,2.7-10.23,1.69-20.39,3.86-30.67,5.08C168.62,166.71,158.05,167.39,147.52,164.78Z" transform="translate(-6.94 -7.29)"/><path class="cls-2" d="M129.58,75.39c-.65-5.81,1.19-11.89,1.78-18.09.21-2.28,1.41-2.93,3.44-3.15a60.13,60.13,0,0,1,20,.66c4.2.93,5.16,1.88,4.08,6.22-1.78,7.08-2.81,14.31-4.48,21.41-.32,1.37-.06,2.72-.34,4-1.46,6.88-9.87,11.31-15.13,10.24-4.81-1-6.87-4.49-8.27-8.7C129.33,84.06,129.51,80,129.58,75.39Z" transform="translate(-6.94 -7.29)"/><path class="cls-8" d="M174.81,168.23a46.19,46.19,0,0,0,12.15,0c1.3-.15,3.43-.92,3.84.56.31,1.13-1.9,1.61-3.14,2a67.91,67.91,0,0,1-29.9,3.32c-2-.24-3.73-1.38-5.57-2.09-1.46-.57-1.9-.35-1.93,1.22a15.65,15.65,0,0,1-3,8.33c-2,3-3.56,2.92-5.37-.16a31,31,0,0,1-4.24-11.09c-.59-3.94-2.2-7.67-2.18-11.71,0-4.33,3-6.39,6.9-4.49,1.51.74,2.22.39,3.18-.7,3-3.48,6.13-6.9,9.24-10.31a15.32,15.32,0,0,1,4.62-3.73c.17,1,.8,2-.37,2.92-5.24,4.23-8.95,9.83-13.25,14.89-.74.87-1.3,1.92-2.79,1.7s-1.76.9-1.28,1.89c2.26,4.68,2.12,9.84,3.12,14.77a12.07,12.07,0,0,0,.41,1.57c.17.48.22,1.22.91,1.18.88-.05.77-.87.82-1.47a27,27,0,0,0,.09-7c-.26-1.5,0-2.16,2-1.85a93.33,93.33,0,0,0,23.32.22A18,18,0,0,1,174.81,168.23Z" transform="translate(-6.94 -7.29)"/><path class="cls-9" d="M176.24,135.92c4.09,0,5.48,1.65,4.54,5.41a14.41,14.41,0,0,1-6.71,8.8,65,65,0,0,1-13.24,6.07,100.7,100.7,0,0,0-12.12,5.24c-.89.44-2.26,1.31-3,.31s.6-1.85,1.26-2.63c2.43-2.92,4.79-5.92,7.36-8.72,5.46-6,11.24-11.52,19.23-14.05A8,8,0,0,1,176.24,135.92Z" transform="translate(-6.94 -7.29)"/><path class="cls-10" d="M129.58,127.28a8,8,0,0,1-6.51,2A60,60,0,0,1,115,127a4.77,4.77,0,0,1-2.88-3.09,25.8,25.8,0,0,1-2.17-9.19c0-6.17-.12-12.34,0-18.5.12-5.54,1.91-10.84,2.79-16.27a17.89,17.89,0,0,0,5.53-1.47c-1.31,7.24-.42,14.31-1.42,21.34s-.5,14-.21,20.92c.12,2.72,2,4.65,4.88,5.49A31.84,31.84,0,0,0,129.58,127.28Z" transform="translate(-6.94 -7.29)"/><path class="cls-11" d="M158.63,75.25c2-.8,2.25.86,2.44,2a69,69,0,0,1,1.13,9.37c.19,5.53.23,11.07,0,16.59a67.27,67.27,0,0,1-4.17,21.4c-.43,1.13-.67,3.21-2.22,2.9-1.3-.26-1.14-2.2-1.22-3.54-.37-6.28.91-12.4,1.75-18.56,1.1-8,2-15.94,1.42-24A23.81,23.81,0,0,1,158.63,75.25Z" transform="translate(-6.94 -7.29)"/><path class="cls-12" d="M119.8,65.87c-.64,2.91-.3,6.28-2.56,9-1.11,1.34-2.46,2.39-4.14,2s-2.37-1.76-2.68-3.43c-.93-5,.62-9.06,4.1-12.52,1.2-1.19,4.58.69,5.12,2.85A13.59,13.59,0,0,1,119.8,65.87Z" transform="translate(-6.94 -7.29)"/><path class="cls-12" d="M213,142.26l-12.13,1c0-2.31,0-4.65,0-7-.05-3,1.46-4.41,4.5-3.93.79.12,1.56.34,2.61.57-1.38.31-2.52.58-3.67.82-.72.15-1.2.53-1.05,1.29a1,1,0,0,0,1.18.87c3.51-1.16,5,.54,5.22,4.1,1.13-2.67,2.25-5-.06-7.23,1.8-.8,1.75-.78,2.44.95C213.08,136.47,211.84,139.45,213,142.26Z" transform="translate(-6.94 -7.29)"/><path class="cls-13" d="M179.83,259.08h-9.49c-.89,0-1.5-.17-.73-1.23,1.64-2.24,3.22-4.54,4.89-6.77.88-1.18,1.42-.28,1.68.51C177,254.1,178.62,256.21,179.83,259.08Z" transform="translate(-6.94 -7.29)"/><path class="cls-14" d="M99.06,247.73c2.85,2.31,4.73,5.58,7.75,7.87-3.92-.13-7.7.75-11.53.61C96,253.13,97.74,250.53,99.06,247.73Z" transform="translate(-6.94 -7.29)"/><path class="cls-15" d="M99.06,247.73c-.26,3.27-2.11,5.84-3.78,8.48a5,5,0,0,1-1.06.14c-.94-.08-2.14.46-2.72-.57s.42-1.81,1-2.57c1.42-1.9,3-3.69,4.31-5.67C97.84,246,98.42,246.31,99.06,247.73Z" transform="translate(-6.94 -7.29)"/><path class="cls-16" d="M131.87,123.54c-1.89-2.08-1.76-4.5.37-7.14,1.54.11,3.55-1.14,4.36,1.19.67,2-.79,4.38-3,5.34C133.06,123.18,132.46,123.34,131.87,123.54Z" transform="translate(-6.94 -7.29)"/><path class="cls-17" d="M128.4,115.84a1.66,1.66,0,0,1-1.57-2c.15-1.22,1.2-1.53,2.11-1.74,1.54-.35,3.05-.27,3.87,1.45C131.48,114.53,129.31,114,128.4,115.84Z" transform="translate(-6.94 -7.29)"/><path class="cls-18" d="M140.41,42.88c5.4-.2,10.77-1.37,16.19-.11a5.65,5.65,0,0,1,4.27,3.14c-6.65-.73-12.94-.21-19.21-.6A2.76,2.76,0,0,1,140.41,42.88Z" transform="translate(-6.94 -7.29)"/><path class="cls-19" d="M140.41,42.88a3,3,0,0,1,1.25,2.43,29.17,29.17,0,0,1-6.65-.08C136.4,43,138.55,43.27,140.41,42.88Z" transform="translate(-6.94 -7.29)"/><path class="cls-20" d="M210.63,198.63c1.28-8.79-2-17.91-1.48-27.24.08-1.35-.63-1.71-1.83-1.69a13.69,13.69,0,0,0-3.76.46c-.75.22-1.64.29-2.11-.69a1.82,1.82,0,0,1,.46-2c1.75-2.39,7.2-4,9.92-3,2.37.89,3.76,3.83,3.27,7.06-1,6.31-.32,12.65-.35,19,0,7.21,0,14.43-1.67,21.51-.12.54.15,1.51-.74,1.51s-.86-.95-1-1.64C210.18,207.73,211.11,203.45,210.63,198.63Z" transform="translate(-6.94 -7.29)"/><path class="cls-1" d="M136.64,78a50.5,50.5,0,0,1,2.71-14c.78-2.46,4.67-4.76,6.86-4.36,2.46.45,3.79,2.56,4.18,5.9a30.78,30.78,0,0,1-1.63,14.37,11.88,11.88,0,0,1-4.7,6.13c-2.84,1.82-5.31,1-6.43-2.21A17.33,17.33,0,0,1,136.64,78Z" transform="translate(-6.94 -7.29)"/><path class="cls-21" d="M116.4,67.89a2.5,2.5,0,0,1-2.07,2.48c-1.35.15-1.84-.93-1.74-2.15s.31-2.85,2.08-2.88C116,65.32,116.34,66.47,116.4,67.89Z" transform="translate(-6.94 -7.29)"/></svg>