<svg id="Layer_1" data-name="Layer 1" xmlns="http://www.w3.org/2000/svg" viewBox="0 0 286.13 285.58"><defs><style>.cls-1{fill:#010101;}.cls-2{fill:#fefefe;}.cls-3{fill:#020202;}.cls-4{fill:#050604;}.cls-5{fill:#829f5e;}.cls-6{fill:#1d8767;}.cls-7{fill:#fdfdfd;}.cls-8{fill:#ed8877;}.cls-9{fill:#208666;}.cls-10{fill:#fcfbfc;}.cls-11{fill:#839f5e;}.cls-12{fill:#218565;}.cls-13{fill:#1f8565;}.cls-14{fill:#829f60;}.cls-15{fill:#238465;}.cls-16{fill:#278264;}.cls-17{fill:#f1f0f1;}.cls-18{fill:#f7f5f6;}.cls-19{fill:#dedede;}.cls-20{fill:#dddddc;}.cls-21{fill:#e2e2e3;}.cls-22{fill:#8ca057;}.cls-23{fill:#ded93a;}.cls-24{fill:#e0d938;}.cls-25{fill:#020b05;}</style></defs><title>29</title><path class="cls-1" d="M146.49,7.24c35.79,0,71.58-.11,107.37.09,7,0,14.13.32,20.82,3.15,11,4.64,19.52,17.28,18.26,30.88a140.52,140.52,0,0,0-.5,22c.15,2.26,0,4.54,0,6.81q0,79.48.06,159c0,6.76-.07,13.53.37,20.33.47,7.33.37,14.92-1.94,22.11-3,9.39-9.31,15.69-18.45,19.44-5.52,2.27-11.16,1.69-16.81,1.72-1.63,0-3.26-.06-4.89-.06l-144.62-.14c-15.44,0-30.89-.32-46.32.14-6.81.2-13.58,0-20.36-.2-15.31-.4-26.74-7.37-31.84-23.86a20.75,20.75,0,0,1-.59-7.3c.88-13.62.31-27.25.34-40.88q.15-82.33,0-164.68c0-8.07-.48-16.16,1.1-24.09,2.26-11.34,9.31-18.7,20-22.82,4.65-1.78,9.43-1.55,14.19-1.56q51.92-.09,103.84,0Z" transform="translate(-6.94 -7.21)"/><path class="cls-2" d="M145.39,11.55q52.61,0,105.2,0a101.75,101.75,0,0,1,16.83,1.06c12.8,2.15,21.49,14.21,21.32,25.88-.95,65.87-.34,131.74-.37,197.61,0,9,.07,18-.14,26.94-.33,14.28-12.87,25.61-26.23,25.56-56.5-.21-113-.09-169.5-.1-12.18,0-24.36-.25-36.52.09-7,.19-14-.2-20.91-.7-12.33-.9-22.59-10.58-23.5-22.65-.83-10.92-.21-21.95-.22-32.94q0-30.81,0-61.61,0-60.67.05-121.33a96.59,96.59,0,0,1,.95-16.57C14.58,20,26.53,11.51,38,11.58c35.78.22,71.58.08,107.36.08Z" transform="translate(-6.94 -7.21)"/><path class="cls-3" d="M89.32,150.1c-1.73,2.32-2.93,4.15-4.36,5.78-1.67,1.89-3.67,3.29-6.43,2.59s-3-2.93-3.43-5.06c-1.7-9-3-18-2.56-27.28.15-2.89,1.06-5.12,3.53-6.61s5.09-.84,7.4.68A33.08,33.08,0,0,1,90.86,127c.84-4.83,1.8-9.32,2.88-13.8,3.92-16.25,10.73-30.81,24-41.67a8.52,8.52,0,0,0,3.21-6.4c.79-8.25,9-13.16,16-12.59a12.62,12.62,0,0,1,9.47,5.25c1.41,2,3.16,1,4.69,1.06s1.08-1.62,1.22-2.53A26.77,26.77,0,0,1,157.64,44c3.66-4.77,8.41-6.34,14.19-4.83a44.62,44.62,0,0,0,7.07,1.68c5.76.56,8.22,5.3,11,9.28,4,5.66,4.2,12.23,3.35,18.85a4,4,0,0,0,1,3.35c10.76,13.71,20.27,28.1,23.8,45.61,1.24,6.15,1.81,12.39,2.51,18.61.39,3.51.94,7,1.25,10.54.18,2,.46,3.9,2.19,5.59,2.43,2.37.12,7.46-3.45,7.8s-6.89.25-10.33.39c-2,.09-9.23,5.8-9.74,7.66a2.66,2.66,0,0,0,2.65,3.28c4.71-.34,9.41-.79,14.11-1.19a34.88,34.88,0,0,1,3.53-.24c2.48,0,5,0,5.88,3.15s.07,6.38-2.57,8.11a2.78,2.78,0,0,0-1.36,2.71c.3,9.52-1.65,18.91-1.58,28.43a20.79,20.79,0,0,1-1.57,7.68c-2.36,6-7.68,7.38-13.17,8.07a205.47,205.47,0,0,1-21.17,1.74c-1.42,0-2,.32-1.59,1.86A62.15,62.15,0,0,1,185.63,245c.05.8.12,1.08,1,1.15a12.13,12.13,0,0,1,2.64.59,7.18,7.18,0,0,1,4.05,10.71,11.87,11.87,0,0,1-17.91,2.92c-2.82-2.41-2.77-7.29.13-10.85a7.65,7.65,0,0,1,4.18-2.9c2.29-.49,2.47-1.74,2.17-3.79-.52-3.49-.76-7-.93-10.55-.07-1.52-.47-1.89-2-1.81-9.43.45-18.86,1-28.3,1.06-11.24.12-22.49,0-33.7-.79-2.06-.15-2.1.48-2,2.1.22,3.81.34,7.62.31,11.43,0,.94.16,1.14,1,1.46,3.66,1.48,7.13,3.42,6.79,8.06s-3.8,6.45-7.67,7.81c-2.81,1-5.65,1.6-8.49.48-3.63-1.44-6.1-4.24-6.49-8.08s2.24-6.51,5.37-8.5c.53-.33,1.16-.49,1.72-.78,1.32-.7,3.43-.15,4.06-1.48s.13-3,.19-4.58c.1-2.26.21-4.53.41-6.79.13-1.39-.48-1.91-1.78-2.11a43,43,0,0,1-12-4.16c-4.34-2.06-6.4-5.52-7-10.23-2.41-20.35-2.15-40.79-2-61.22C89.33,153,89.32,151.84,89.32,150.1Z" transform="translate(-6.94 -7.21)"/><path class="cls-4" d="M141,44.69a2.25,2.25,0,0,1-1.83,2.36,71.05,71.05,0,0,0-16,7.88,2.67,2.67,0,0,1-3.87-.51c-1-1.34-1.55-3.08-.26-4.49,4.33-4.72,9.32-8.55,15.56-10.38C138.17,38.5,141.06,41,141,44.69Z" transform="translate(-6.94 -7.21)"/><path class="cls-5" d="M175.4,186.64c10.87.12,21.71-.81,32.57-1.21a58.08,58.08,0,0,0,11-1.7c1.38-.32,1.8-.09,1.66,1.35-.61,6.58-1.21,13.15-1.73,19.74-.22,2.86-.25,5.75-.32,8.62-.19,6.86-2.51,9.88-9.22,11.37s-13.47,1.73-20.25,2.18c-7.15.48-14.3.69-21.46.7a8.29,8.29,0,0,1-3.77-.28c-4.38-.79-8.75-1.57-13.24-1.31a3.8,3.8,0,0,1-1.35-.08c-7.37-2.2-15.17-2.61-22.34-5.75a20.66,20.66,0,0,1-10.24-9,125.19,125.19,0,0,1-13.86-38.23,12.41,12.41,0,0,1-.17-3c.47-7.3-.85-14.47-1.52-21.68a21.23,21.23,0,0,1,2.47-11.81c3.54-7.05,7.91-13.9,9.09-21.78,1.13-7.52,5.44-13.6,7.79-20.52.78-2.33,1.24-4.75,2-7.08,1.05-3.2,2-3.61,5.25-2.78,4.26,1.07,8.44,1.18,12.35-1.27,1.28-.8,2.33-1.75,2.35-3.42l4-3.34c1.35,2.47,1.21,5.19,1.32,7.86.27,6.46,3.94,11.46,10,13.35,2.9.9,5.87.59,8.82.08,14.46.69,21.43-9.43,25.93-23.81,3.43,5.33,6.52,10.61,10.08,15.55,5.47,7.58,8.36,16.19,11,25,2.48,8.17,2.59,16.62,3.72,25,.4,3,.55,6,1,8.92.26,1.7-.43,2.14-1.88,2-6.09-.7-12.09.72-18.12.71a71.46,71.46,0,0,1-20.58-3.07c-7.27-2.19-14.49-4.56-22.07-5.68-4.76-.7-8.37.54-10.9,4.68A40.83,40.83,0,0,0,137.45,162c-1.67,6.58-1.68,13.42,3.68,18.9.19.2.35.41.53.62,2.42,2.88,2.28,3.43-1.18,4.63a14.87,14.87,0,0,0-4.15,2c-.35.26-.78.58-.52,1.11.17.34.58.39.94.43a13.11,13.11,0,0,0,3.25-.16,95.31,95.31,0,0,1,27.66,0c7.66,1,15.3,2,23.05.8a52.52,52.52,0,0,0-6.35-1.29,52.09,52.09,0,0,1-6.46-.94C177,187.86,175.61,188.18,175.4,186.64Z" transform="translate(-6.94 -7.21)"/><path class="cls-6" d="M142.44,79.73c1.53,1.67.23,2.7-1,3.52a15.31,15.31,0,0,1-13.46,2c-3.92-1.14-4-1.15-5,2.95-1.16,4.76-2.42,9.54-5.1,13.67-3.37,5.21-3.57,11.33-5.42,17-2,6-4.83,11.46-7.67,17a23.46,23.46,0,0,0-2.75,14.07c.53,4.46,1.53,8.95,1.28,13.49-.57,10.37,2.17,20,5.88,29.56,2,5.15,4.18,10.2,6.49,15.21,3.4,7.34,9.28,11.49,16.85,13.29,7.86,1.86,15.66,4.17,23.92,4.06,3.77,0,7.45,1.3,11.14,2.18a132.25,132.25,0,0,1-17.9,1c-10.43,0-20.87,0-31.29-.7a51.78,51.78,0,0,1-16.85-3.87c-4.76-2-7.15-4.78-7.55-10.13-1.11-14.95-1.59-29.9-1.74-44.88-.08-7.6-.12-15.2.11-22.79,1-2.92,2.82-5.46,3.83-8.37.48-1.38.39-2.22-1.23-2.93-1.39-.62-3.21-1.12-3.64-3a12.37,12.37,0,0,0,2.79-6.65A124.16,124.16,0,0,1,105.9,88.74c2.25-4.6,6.13-8.06,9.52-11.82,1.75-1.94,3.74-3.67,5.72-5.59a14.1,14.1,0,0,0,8.65,9.32A15.7,15.7,0,0,0,142.44,79.73Z" transform="translate(-6.94 -7.21)"/><path class="cls-7" d="M154.3,70.11c.41-6.1.16-13.69,3.71-20.65.29-.56.56-1.14.89-1.68,3.46-5.69,7.66-7.17,14-5.33,2.84.82,5.15,3.31,8.47,2.66.3-.06.75.72,1.15,1.08,11,9.76,8.58,25.29,3.47,35.13a32.86,32.86,0,0,1-5.69,8.26,15,15,0,0,1-15.23,4.1c-5.23-1.45-8.36-5.32-9.42-10.87A82.93,82.93,0,0,1,154.3,70.11Z" transform="translate(-6.94 -7.21)"/><path class="cls-8" d="M207.21,157.76c-10.89,1-21.71-.12-32.5-1.27-6.48-.7-12.9-1.9-19.45-1.6-5,.22-5.92,1-7.5,5.78-2.38,7.22-.4,9.71,6.84,11.51,19.06,4.74,38.25,4.47,57.55,2.17,2.88-.34,5.78-.47,8.68-.6.91,0,2.24-.39,2.47,1s.55,2.93-.9,4a10.23,10.23,0,0,1-3.67,1.68c-6.38,1.65-13,1.9-19.45,2.13-7.6.26-15.2,1.16-22.84.66a226.55,226.55,0,0,1-26.16-2.93c-7.41-1.36-8.35-4.45-7.63-9.95.88-6.7.94-13.55,4.07-19.83,2.45-4.93,4.11-6,9.64-5.06,6.73,1.1,13.23,3.13,19.77,4.95a71.73,71.73,0,0,0,28.71,2.31c5.09-.65,10.45-1.1,15.36,1.5.71.38,2,.05,1.52,1.58-.36,1.15-1,2-2.26,2Z" transform="translate(-6.94 -7.21)"/><path class="cls-9" d="M175.4,186.64c1.62.88,3.44.81,5.18,1.08,3.74.59,7.49,1.12,11.23,1.66.56.09,1.19.19,1.11.87s-.72.69-1.27.76a70,70,0,0,1-19.45-.19c-10.68-1.47-21.39-2.45-32.15-.54a27.23,27.23,0,0,1-4.34.15c-.65,0-1.33-.11-1.56-.82s.39-1.16.86-1.55a14.22,14.22,0,0,1,6.32-3c2-.39,1.86-1,.63-2.15-3.58-3.44-6.19-7.46-6-12.58.09-3.45-.48-7.07,1.26-10.32,2.39-4.46,3.08-9.91,7.61-13.13-4.25,7.7-4.51,16.29-5.32,24.71-.57,5.92,2.45,9.76,8.28,11.29,7.92,2.08,16.1,2.22,24.16,3.3Z" transform="translate(-6.94 -7.21)"/><path class="cls-10" d="M130.71,56.06a12.49,12.49,0,0,0-3.31,10.26c.56,4.73,3.31,7,8,6.21a8.91,8.91,0,0,0,7.08-6.09A4.51,4.51,0,0,0,140,60.73c-2-1-3.69-.27-5.11,1.21-.54.56-1.17,1.27-.54,2.14s1.32.25,2,.07c1-.26,2-1.46,2.88-.09s-.24,2.37-1.07,3.29a5.93,5.93,0,0,1-4.34,2,2.56,2.56,0,0,1-2.92-2.22c-1.33-5.28,1.44-9.52,6.76-10.35,3.8-.6,8,3.41,8.8,8.31.84,5.5-2.16,11-7,12.82a12,12,0,0,1-14.46-5,11.56,11.56,0,0,1,2.29-14.82A7.67,7.67,0,0,1,130.71,56.06Z" transform="translate(-6.94 -7.21)"/><path class="cls-11" d="M91.37,132c1.94.81,3.17,2.95,5.57,2.91.47,0,.94.24.74.85-1.25,3.78-2.49,7.57-5.27,10.59-2.52-1.67-4.34-1.29-5.74,1.35-1.5,2.81-3.12,5.5-5.76,7.41-2.07-.13-2.39-.61-1.36-2.6a51.46,51.46,0,0,0,3.55-9.37,12.84,12.84,0,0,0,.54-3.19c1.82-4.45.57-8.14-2.83-11.29-2.57-2.65-2.87-4.85-1-7a19.72,19.72,0,0,1,8.48,7.26C89.12,130.07,89.46,131.82,91.37,132Z" transform="translate(-6.94 -7.21)"/><path class="cls-12" d="M166.58,97.68c-2.44,2.11-5.51,1.54-8,.94-6.83-1.67-10.15-5.39-11.5-13.07a87.16,87.16,0,0,1-.65-9.16c2.72-4,4.15-8.21,2.75-13.07-.13-.47-.72-1.32.36-1.52a1.35,1.35,0,0,1,1.66,1.06,10.56,10.56,0,0,1-.07,2.69,55.49,55.49,0,0,0,2,20.12C155,92.41,160,96,166.58,97.68Z" transform="translate(-6.94 -7.21)"/><path class="cls-13" d="M79.85,121.61c-.85,2.57-.91,4.94,1.66,6.67-.89,1-.28,1.87.25,2.71,1.67,2.66,1.49,5.28.15,8a12.37,12.37,0,0,0-1.74,6c1.53-.69,1.88-1.86,2.33-3,.39-.93.29-2.25,1.8-2.31A32.91,32.91,0,0,1,80,153c-.68,1.28-.89,2,.9,2.06-1.69,1.3-2.33,0-2.64-1.24-.56-2.28-.92-4.61-1.31-6.92-1.19-7.13-2.36-14.25-1.51-21.52C75.77,122.69,76.89,121.67,79.85,121.61Z" transform="translate(-6.94 -7.21)"/><path class="cls-14" d="M108.34,247.9c2.72-1,9.93,1.81,11,4.37.77,1.84-.26,3.1-1.5,4.22a6,6,0,0,1-3.58,1.69C109.44,256.64,106.64,251.8,108.34,247.9Z" transform="translate(-6.94 -7.21)"/><path class="cls-14" d="M179.54,250.33c2.52-1.78,8.91-.65,10.52,1.8,1.23,1.88.2,3.23-1,4.56a5.59,5.59,0,0,1-2.86,1.95C182,258.07,178.84,254.17,179.54,250.33Z" transform="translate(-6.94 -7.21)"/><path class="cls-15" d="M108.34,247.9c-.86,5.07,2.68,7.59,5.94,10.28-3,1.32-5.87,1.76-8.4-1s-2.6-4.69.09-7.49A5.46,5.46,0,0,1,108.34,247.9Z" transform="translate(-6.94 -7.21)"/><path class="cls-16" d="M179.54,250.33c.35,4.29,3.2,6.56,6.69,8.31-3,1.44-5.79.52-8.29-1.14-1.66-1.1-.89-2.87-.43-4.42A5.29,5.29,0,0,1,179.54,250.33Z" transform="translate(-6.94 -7.21)"/><path class="cls-17" d="M197.31,172.56c-2.36,0-4.72,0-7.07,0-.65,0-1.78.33-1.59-.78.15-.88-.42-2.41,1.23-2.59a49.43,49.43,0,0,1,5.7-.37c2.25,0,1.09,2.27,2.11,3.14Z" transform="translate(-6.94 -7.21)"/><path class="cls-18" d="M176.81,168.76c.54,0,1.09,0,1.62-.09,1.44-.21,2,.12,1.93,1.82-.09,1.49-.08,2.44-2,2.07-.78-.15-1.66.1-2.41-.12-1-.3-3,.81-2.77-1.7.2-2,1.25-2.52,3-2A3.2,3.2,0,0,0,176.81,168.76Z" transform="translate(-6.94 -7.21)"/><path class="cls-19" d="M171.44,169.78c.49,2.12-.54,2.32-2.06,2a29.17,29.17,0,0,0-3.2-.51c-1.52-.16-1.59-.9-1.48-2.3.14-1.73,1.07-1.32,2-1.24s2.15.17,3.21.32S172.51,168.08,171.44,169.78Z" transform="translate(-6.94 -7.21)"/><path class="cls-20" d="M151,167.53c4.27,0,7.74-.06,11.2,0,1.2,0,.52,1.11.6,1.73s-.11,1.13-.87.9C158.57,169.21,154.89,169.64,151,167.53Z" transform="translate(-6.94 -7.21)"/><path class="cls-21" d="M184.23,172.67c-.47-.47-2.45,1-2-1,.19-.88-.95-3.3,1.57-2.75,1.07.24,3.34-.79,3,2C186.67,172.62,186,173.15,184.23,172.67Z" transform="translate(-6.94 -7.21)"/><path class="cls-22" d="M135.56,41.91c1.48-.21,1.7.93,2.14,1.79.72,1.4-.68,1.28-1.22,1.47A84.76,84.76,0,0,0,123,51.36c-.42.24-.92.8-1.38.13a1,1,0,0,1,.26-1.22C125.67,46.23,130.55,44,135.56,41.91Z" transform="translate(-6.94 -7.21)"/><path class="cls-23" d="M211.35,137.07c.11,7.14-.7,7.81-7.53,6.53a16.58,16.58,0,0,1-3.13-.83c-.59-.24-1.73,0-1.61-1.06.09-.83,1.08-.84,1.75-1.06a7.66,7.66,0,0,1,2.35-.59c3.32,0,2.83-1.88,2.48-4.18-1.14-7.39-2-14.83-3.06-22.24a54.81,54.81,0,0,0-6-17.86c-2-3.87-2.45-8.32-4.68-12.09a1.11,1.11,0,0,1,.68-1.57c1-.41,1.53.18,1.92,1,1.21,2.42,2.05,5,3.4,7.37a77.46,77.46,0,0,1,10.26,27.67c.73,4.81,2.34,9.44,2.9,14.31C211.22,134.08,211.22,135.7,211.35,137.07Z" transform="translate(-6.94 -7.21)"/><path class="cls-24" d="M215.88,207.33c-.14,2-.12,4-.45,5.95-.86,5.23-4.83,7.33-9.29,8.76-2.29.73-4.59,1.63-7.06.25-1.69-.94-2-1.81-.71-3.33,2-2.32,4.62-3.44,7.32-4.5,3.6-1.43,4-2.06,3.24-5.91a22.86,22.86,0,0,1,1-11.22c.34-1.1.79-2.47,2.3-2.22a3,3,0,0,1,2.49,2.54A36.74,36.74,0,0,1,215.88,207.33Z" transform="translate(-6.94 -7.21)"/><path class="cls-1" d="M179.14,64.79c0,4.89-.62,8.54-2.38,11.89s-5.08,4.76-7.87,3.79c-3-1-6-6.07-5.51-9,.09-.47.19-.83.76-.93a6.48,6.48,0,0,0,1.54-.51c3.94-1.89,4.54-3.47,1.63-6.75-1.74-2-1.21-3.34-.51-5.23a4.77,4.77,0,0,1,5-3.36c2.4.08,4.7.79,5.82,3.26A17.28,17.28,0,0,1,179.14,64.79Z" transform="translate(-6.94 -7.21)"/><path class="cls-25" d="M84.3,139.75c-1.3,1.65-1.29,3.95-2.74,5.53-.43.48-.83,1.09-1.53.9s-.63-1-.67-1.6a9,9,0,0,1,1.64-5.1,7.48,7.48,0,0,0-.6-9.28c-1.22-1.55-.6-2,1.11-1.92C84.75,131.54,86.36,135.2,84.3,139.75Z" transform="translate(-6.94 -7.21)"/></svg>