<svg id="Layer_1" data-name="Layer 1" xmlns="http://www.w3.org/2000/svg" viewBox="0 0 286.13 285.58"><defs><style>.cls-1{fill:#010101;}.cls-2{fill:#fefefe;}.cls-3{fill:#020203;}.cls-4{fill:#040709;}.cls-5{fill:#75cbdc;}.cls-6{fill:#4298a9;}.cls-7{fill:#ed8877;}.cls-8{fill:#4299a9;}.cls-9{fill:#fcfcfc;}.cls-10{fill:#75cadb;}.cls-11{fill:#4398a8;}.cls-12{fill:#4397a7;}.cls-13{fill:#76cada;}.cls-14{fill:#4597a7;}.cls-15{fill:#4896a5;}.cls-16{fill:#f3f1f3;}.cls-17{fill:#f3f3f4;}.cls-18{fill:#eaebeb;}.cls-19{fill:#eceded;}.cls-20{fill:#e2e1e2;}.cls-21{fill:#70b7c3;}.cls-22{fill:#c4cb52;}.cls-23{fill:#dbd942;}.cls-24{fill:#dfd939;}.cls-25{fill:#030b0e;}.cls-26{fill:#cfd655;}</style></defs><title>30</title><path class="cls-1" d="M146.49,7.24c35.79,0,71.58-.11,107.38.09,7,0,14.12.32,20.81,3.15,11,4.64,19.52,17.28,18.26,30.88a139.41,139.41,0,0,0-.5,22c.15,2.25,0,4.53,0,6.8q0,79.48.06,159c0,6.76-.06,13.54.37,20.33.47,7.33.37,14.93-1.94,22.11-3,9.39-9.31,15.69-18.45,19.45-5.52,2.26-11.16,1.68-16.81,1.71-1.63,0-3.26-.06-4.89-.07l-144.62-.13c-15.44,0-30.89-.32-46.32.14-6.82.2-13.58,0-20.36-.2-15.32-.4-26.75-7.38-31.84-23.86a20.75,20.75,0,0,1-.59-7.3c.88-13.62.31-27.25.34-40.88q.15-82.33,0-164.68c0-8.07-.48-16.16,1.1-24.09,2.26-11.34,9.31-18.7,20-22.82,4.65-1.78,9.43-1.55,14.19-1.56q51.92-.09,103.84,0Z" transform="translate(-6.94 -7.21)"/><path class="cls-2" d="M11.34,150.12q0-46.75,0-93.52c0-8-.29-16,1.07-23.91,2.28-13.31,14.67-21.06,25.22-21.1q107-.33,213.93,0a98.25,98.25,0,0,1,16,1.1c13,2.18,21.34,14.42,21.17,25.69-.93,65.78-.33,131.57-.37,197.35,0,9.16.12,18.31-.14,27.47-.39,14.11-12.81,25.49-26.36,25.43-52.33-.24-104.65-.1-157-.11-16.36,0-32.71-.22-49.06.09-7,.14-14-.19-20.9-.72a25.6,25.6,0,0,1-23.4-22.23c-.75-5.34-.17-10.87-.17-16.31V150.12Z" transform="translate(-6.94 -7.21)"/><path class="cls-3" d="M85.52,150.1c-1.76,2.36-3,4.26-4.5,5.92s-3.57,3.11-6.23,2.48-3.08-2.86-3.49-5c-1.73-9.19-3-18.42-2.54-27.83.3-5.62,5.16-8.61,10.11-5.91C82,121.47,84.48,124,87,127c.92-4.73,1.83-9.21,2.87-13.66,4-17,11.54-31.82,25.3-43a4.48,4.48,0,0,0,1.69-3.41c.82-8,5.22-13.08,13.16-14.36,5-.8,9.39,1.25,12.49,5.21,1.54,2,3.32,1.08,4.92,1.11,1.11,0,.94-1.68,1.09-2.66a26.65,26.65,0,0,1,5.06-11.9c3.64-4.91,8.41-6.69,14.32-5.15a52.93,52.93,0,0,0,7.34,1.75c5.73.66,8.15,5.39,11,9.38,3.89,5.51,4.08,11.89,3.3,18.33a4.64,4.64,0,0,0,1.08,3.86c10.63,13.57,20.05,27.8,23.61,45.1,1.29,6.24,1.91,12.56,2.57,18.88.4,3.88.91,7.75,1.41,11.61.22,1.69.45,3.25,2,4.52s1.07,3.15.45,4.83a4.29,4.29,0,0,1-4,3.13c-3.27.13-6.53.19-9.8.31-2.21.09-9.39,5.54-10.07,7.61a2.71,2.71,0,0,0,2.53,3.35c4.8-.36,9.58-.82,14.38-1.23,1.17-.1,2.35-.21,3.52-.2,2.42,0,4.8.11,5.69,3.06,1,3.25.11,6.5-2.49,8.15a2.74,2.74,0,0,0-1.43,2.66c.27,9.51-1.57,18.91-1.57,28.42a21.32,21.32,0,0,1-1.64,7.93c-2.43,6-7.79,7.26-13.27,7.94a197,197,0,0,1-21.16,1.74c-1.66,0-1.75.66-1.38,2a63.16,63.16,0,0,1,1.87,12.61c.07,1,.19,1.2,1.11,1.27a11,11,0,0,1,2.64.61,7.08,7.08,0,0,1,3.92,10.56c-4.53,7.26-12.19,7.42-18,2.89-2.94-2.27-2.53-7.65.54-11a11.55,11.55,0,0,1,5-3.07c.63-.21,1.5-.13,1.24-1.28-.95-4.18-.52-8.5-1.15-12.72-.21-1.42-.55-1.69-1.93-1.63-10.15.48-20.31,1.2-30.47,1.15-10.6,0-21.22,0-31.81-.86-1.49-.12-2,0-1.88,1.72.26,4,.31,8,.31,12,0,.86.19,1.1.94,1.22a4.23,4.23,0,0,1,1.26.49c3,1.56,5.73,3.42,5.65,7.27-.07,3.59-2.32,5.83-5.36,7.24a17.11,17.11,0,0,1-7.55,2,10.42,10.42,0,0,1-9.78-8c-.68-3.22,2-8.44,6-9.33,4.85-1.07,6-3.51,5.43-7.91-.26-2.13.81-4.58.12-6.45-.8-2.2-3.79-1.3-5.72-2.11-2.59-1.08-5.25-2-7.79-3.18-4.32-2.06-6.48-5.48-7-10.19-2.39-20.45-2.23-41-2-61.49C85.54,152.89,85.52,151.81,85.52,150.1Z" transform="translate(-6.94 -7.21)"/><path class="cls-4" d="M137.18,44.71a2.26,2.26,0,0,1-1.84,2.35,63.44,63.44,0,0,0-16,7.87,2.65,2.65,0,0,1-3.88-.52c-1-1.35-1.53-3.08-.24-4.49,4.34-4.71,9.32-8.57,15.57-10.39C134.38,38.49,137.28,41,137.18,44.71Z" transform="translate(-6.94 -7.21)"/><path class="cls-5" d="M162.79,97.69c11.24.83,17.75-5.57,22.42-14.72a33,33,0,0,0,3.4-8.84c9.8,13.89,19.1,27.81,22.43,44.75,1.33,6.79,1.57,13.7,2.49,20.53.4,3,.56,6,1,8.93.2,1.41-.06,2.08-1.59,1.91-6.36-.71-12.65.79-18.95.72a69.84,69.84,0,0,1-19.26-2.86c-7.8-2.31-15.51-5-23.66-6-4.43-.53-7.76.91-10.1,4.69a49,49,0,0,0-7.17,14.59c-2.37,7.19-1.47,14.14,4,20.05,2.65,2.88,2.46,3.34-1.22,4.77a18.56,18.56,0,0,0-3.72,1.67c-.43.29-1,.58-.75,1.25.19.45.73.46,1.18.5,2.2.17,4.33-.38,6.49-.61a104.24,104.24,0,0,1,25.76.6,82,82,0,0,0,22.08.66c-2.39-.61-4.18-.8-5.95-1.1s-3.76-.56-5.65-.79c-1.57-.2-3.52.23-4.42-1.75,7.24-.24,14.49-.36,21.72-.73s14.7-.24,21.85-2.23c1.71-.47,1.78.23,1.65,1.61-.55,5.94-.85,11.91-1.59,17.82-.41,3.26-.22,6.49-.36,9.73-.33,7.76-2.87,10.93-10.58,12.26-6.62,1.14-13.34,1.4-20,2-5.41.45-10.87,0-16.26.94a12.14,12.14,0,0,1-3.44-.4,4.54,4.54,0,0,1-2.68.09c-5.06-1.22-10.33-.72-15.37-1.71-8.61-1.69-17.43-2.72-25.42-6.72a18.63,18.63,0,0,1-8.28-8.05c-6-11.66-11-23.72-13.38-36.71-1-5.2-.49-10.49-1-15.73-.3-3-.22-6-.82-8.93-1-4.91.25-9.33,2.46-13.65,4.26-8.33,8.4-16.71,10-26.07a18.54,18.54,0,0,1,2.11-5.86,66.79,66.79,0,0,0,6.19-15.67,16.22,16.22,0,0,1,.78-2.32c1-2.49,1.87-3,4.4-2,3.89,1.54,7.54,1.16,11.36-.35,2.36-.94,3.28-2.9,4.52-4.72l2.7-2.26c2,.7,1.63,2.55,1.8,4,.22,2,.06,4.13.59,6.17,1.92,7.49,6.85,11.2,14.59,10.9A27.72,27.72,0,0,0,162.79,97.69Z" transform="translate(-6.94 -7.21)"/><path class="cls-6" d="M139.37,79.23c.28,2.67-1.3,3.9-3.48,5-4.41,2.26-8.81,2.65-13.28.45-1.53-.74-2.25-.21-2.61,1.14a110.23,110.23,0,0,1-8.54,21.7c-1.15,2.26-1.21,5.07-1.78,7.63-1.54,6.88-4.69,13.17-7.94,19.29-3,5.62-4.64,11.12-3.2,17.38.94,4.09.86,8.33.85,12.43,0,9.9,2.42,19.15,5.89,28.25,2.06,5.42,4.31,10.76,6.81,16,3.2,6.72,8.51,10.59,15.49,12.51,9.41,2.59,18.88,4.79,28.72,4.92,2.81,0,5.37,1.61,8.21,1.67a135.83,135.83,0,0,1-19.23,1.06c-10.05,0-20.11,0-30.16-.69a54.12,54.12,0,0,1-18.39-4.29c-4.52-2-6.09-5.11-6.47-9.77-1.21-14.84-1.74-29.69-1.78-44.57,0-6.88-.45-13.76,0-20.65a13.74,13.74,0,0,0-.43-2.94c2.44-2.42,3.46-5.62,4.66-8.71.39-1-.22-1.37-1-1.81-1.86-1-4-1.55-5.22-3.51,2.46-.4,3-2.36,3.39-4.33,1.56-7.63,3-15.27,5.45-22.7,4.32-13.13,11.13-24.54,22-33.17C121.2,81.17,129.64,84.17,139.37,79.23Z" transform="translate(-6.94 -7.21)"/><path class="cls-2" d="M150.49,71.54c.41-7.49.14-15.1,3.7-22.07.33-.64.65-1.3,1-1.91,3.49-5.51,7.35-6.88,13.65-5.19,3,.78,5.31,3.4,8.73,2.75.3,0,.74.73,1.14,1.1,8.06,7.39,8.82,16.62,6.68,26.57A34.76,34.76,0,0,1,176,90a14.44,14.44,0,0,1-14.87,3.62c-5.09-1.52-8.22-5.29-9.24-10.75A80.16,80.16,0,0,1,150.49,71.54Z" transform="translate(-6.94 -7.21)"/><path class="cls-7" d="M203,157.75c-10.36,1.13-20.64-.15-30.91-1.11-6.93-.65-13.78-2.15-20.81-1.76-4.82.27-5.81,1.08-7.3,5.68-2.22,6.91-1.19,9.62,6.94,11.64,19,4.72,38.09,4.41,57.31,2.17,2.88-.33,5.78-.51,8.68-.62,1,0,2.42-.43,2.62,1.16.17,1.4.41,3-1.1,4A11.29,11.29,0,0,1,215,180.4c-6.57,1.66-13.31,1.94-20,2.16-7.34.24-14.65,1-22,.68-5.64-.25-11.15-1.3-16.75-1.65a57.41,57.41,0,0,1-11-1.56c-5.17-1.35-6.88-3.54-6.39-8.79.63-6.92.85-13.93,3.91-20.43,2.41-5.11,4.19-6.25,9.73-5.35,6.9,1.12,13.59,3.18,20.29,5.09a68.25,68.25,0,0,0,21.2,2.83c4.57-.17,9.14-1,13.77-.93a24.07,24.07,0,0,1,9.69,1.94c.73.33.65.68.53,1.24a2.36,2.36,0,0,1-2.43,2.12Z" transform="translate(-6.94 -7.21)"/><path class="cls-8" d="M171.54,186.66c4,1.54,8.33,1.09,12.41,2.14a38,38,0,0,0,4.28.61c.49.06,1,.31,1,.77s-.47.72-1,.79a56.53,56.53,0,0,1-16.22.25,153.78,153.78,0,0,0-29.46-1.79c-3.23.17-6.41,1-9.68,1-1,0-2.24,0-2.51-1.06-.23-.93.85-1.57,1.62-1.95a24.5,24.5,0,0,1,5.48-2.32c2.39-.52,1.61-1.22.51-2.33a20.51,20.51,0,0,1-5.93-11,18.44,18.44,0,0,1,.7-9.6c2-5.4,3.35-11.37,8.19-15.33-4.09,7.83-4.49,16.45-5.31,25-.51,5.43,2.39,9.45,8.24,11.09s12.15,1.86,18.25,2.6Z" transform="translate(-6.94 -7.21)"/><path class="cls-9" d="M126.84,56.07a12.61,12.61,0,0,0-3.28,10c.55,5.33,4,7.82,9.06,6.22a8.93,8.93,0,0,0,6-5.84c.82-2.4-.11-4.27-2.23-5.55s-3.83-.51-5.35,1c-.54.57-1.15,1.27-.51,2.15s1.31.22,2,.06c1-.25,2-1.45,2.87-.08s-.25,2.38-1.06,3.29a6.06,6.06,0,0,1-4.63,2,2.46,2.46,0,0,1-2.4-1.47c-1.54-3.14-.16-7.77,3-9.93s6.82-1.71,9.52,1.35a11.56,11.56,0,1,1-16.73-.85A9.49,9.49,0,0,1,126.84,56.07Z" transform="translate(-6.94 -7.21)"/><path class="cls-10" d="M86.49,131.74c2.39.69,4,3,6.66,3.14,1.26.08.6,1,.48,1.63-.66,3.32-2.84,6-3.94,9.13-.35,1-1.06.11-1.6.13-2.43-1.12-4.1-.25-5.29,2-1.47,2.75-3,5.44-5.69,7.25-2.33.75-2-.76-1.5-2,.82-2,1.61-4,2.42-6a40.34,40.34,0,0,0,2.28-8.3,3.9,3.9,0,0,1,.68-1.92c.34-.4.77-1,1.25-.85,1.41.3.85-.68.79-1.18-.14-1.3-.86-.68-1.47-.35-2.08-1.55-2.6-4.3-4.54-6-1.22-1.37-2.36-2.78-2.11-4.77.11-.82-.1-1.91,1.25-2a18.77,18.77,0,0,1,8.46,7.45C85.17,130.05,85.86,130.88,86.49,131.74Z" transform="translate(-6.94 -7.21)"/><path class="cls-11" d="M162.79,97.69c-5.36,3-13.83.41-17-5.17a18.58,18.58,0,0,1-2.6-9.3c0-2.14.2-4.33-1.1-6.25,3.16-4.06,4.79-8.47,3.29-13.67-.14-.47-.76-1.33.32-1.52a1.4,1.4,0,0,1,1.76,1.27c.06,1.16-.21,2.33-.26,3.51a61.92,61.92,0,0,0,1.95,18.59C151,92.19,156,96,162.79,97.69Z" transform="translate(-6.94 -7.21)"/><path class="cls-12" d="M76.16,121.69c-1.6,2.73-.1,4.7,1.59,6.63-.9.92-.5,1.79.08,2.68,1.77,2.72,1.58,5.46.13,8.24a11.35,11.35,0,0,0-1.62,5.7c1.69-.73,2-2,2.45-3.24s.52-2.74,2.18-3.14c-.55,5.1-2.53,9.74-4.58,14.37-.38.87-1.52,2.08.72,2.06-1.3,1.27-2.12.56-2.52-.77a34.29,34.29,0,0,1-1-4.5c-1.34-8-2.82-16-2-24.24C71.9,122.61,73.25,121.46,76.16,121.69Z" transform="translate(-6.94 -7.21)"/><path class="cls-13" d="M105,247.71c3.84.27,7.55,1,10.23,4,1.12,1.29.6,2.73-.41,3.92a6.45,6.45,0,0,1-4.32,2.47c-3.61-.12-4.73-3.11-6.14-5.58C103.49,251,103.22,249.12,105,247.71Z" transform="translate(-6.94 -7.21)"/><path class="cls-13" d="M175.77,250.29c2.52-1.73,8.86-.56,10.48,1.87,1.26,1.88.17,3.23-1,4.54a5.57,5.57,0,0,1-2.85,1.94C177.94,257.9,175,254.17,175.77,250.29Z" transform="translate(-6.94 -7.21)"/><path class="cls-14" d="M105,247.71c-2,3.29,1.27,8.13,5.5,10.44-3,1.33-5.81,1.81-8.36-.88s-2.71-4.88,0-7.67A5.13,5.13,0,0,1,105,247.71Z" transform="translate(-6.94 -7.21)"/><path class="cls-15" d="M175.77,250.29c.22,4.38,3.14,6.61,6.67,8.35-3,1.49-5.82.53-8.32-1.17-1.82-1.24-.79-3.12-.3-4.7A4.1,4.1,0,0,1,175.77,250.29Z" transform="translate(-6.94 -7.21)"/><path class="cls-16" d="M193.64,172.58c-2.51,0-5,0-7.52,0-.61,0-1.56.08-1.29-.83s-.42-2.4,1.26-2.56c1.89-.18,3.8-.38,5.69-.38,2.4,0,.77,2.45,2.3,3Z" transform="translate(-6.94 -7.21)"/><path class="cls-17" d="M173.54,168.78c.66.76,2.89-1.85,3,1.4.09,2.18-.56,2.71-2.5,2.39-.71-.12-1.46,0-2.16-.14-1-.21-2.82.58-2.48-1.7.24-1.63.86-2.7,2.78-2.06A6.37,6.37,0,0,0,173.54,168.78Z" transform="translate(-6.94 -7.21)"/><path class="cls-18" d="M167.65,169.92c.4,1.84-.47,2.2-2.06,1.83a28.08,28.08,0,0,0-3.18-.51c-1.42-.15-1.66-.75-1.52-2.22.18-1.93,1.25-1.31,2.24-1.23s2.12.27,3.19.31C167.57,168.16,168.17,168.61,167.65,169.92Z" transform="translate(-6.94 -7.21)"/><path class="cls-19" d="M147.32,167.53h10.8c1.18,0,.89.82.85,1.53s.11,1.41-.92,1.1C154.72,169.15,151,169.64,147.32,167.53Z" transform="translate(-6.94 -7.21)"/><path class="cls-20" d="M180.15,172.64c-.42-.28-2.21.79-1.74-1,.24-.91-.92-3.37,1.64-2.75,1,.24,3.18-.85,3,1.87C182.9,172.73,182.09,173.14,180.15,172.64Z" transform="translate(-6.94 -7.21)"/><path class="cls-21" d="M129.56,46.24,119.2,51.41c-.44.22-.9.85-1.39.32s-.18-1.15.28-1.66c2.59-2.86,6-4.53,9.33-6.24C128.07,44.69,129.86,44.54,129.56,46.24Z" transform="translate(-6.94 -7.21)"/><path class="cls-22" d="M129.56,46.24c-.27-1.2-2.59-.57-2.14-2.41a12.27,12.27,0,0,1,4.24-1.72c1.38-.36,1.7.62,2.15,1.52.67,1.35-.6,1.26-1.19,1.53A31.66,31.66,0,0,1,129.56,46.24Z" transform="translate(-6.94 -7.21)"/><path class="cls-23" d="M195.07,141.91a10.44,10.44,0,0,1,5.15-1.81c1.15,0,2.32-.39,1.66-2.4-.91-2.79-.85-5.88-1.12-8.77-.42-4.38-1.12-8.74-1.67-13.08a47.35,47.35,0,0,0-4.37-15.8,120.2,120.2,0,0,1-6.17-15.15,4.16,4.16,0,0,1,.17-3.1c1.93,0,2.48,1.87,2.74,2.67,2,6.24,6.15,11.46,8.4,17.56a93,93,0,0,1,3.93,13.49c.91,4.42,2,8.81,3,13.22.17.79.14,1.62.26,2.42.3,2,.13,3.92.8,6,1.62,5-1.89,7.92-7,6.63C198.94,143.3,197,143.14,195.07,141.91Z" transform="translate(-6.94 -7.21)"/><path class="cls-24" d="M212.25,207.56c.68,2.82-.45,5.38-1.3,7.87-1.37,4-5.08,5.42-8.68,6.6-2.19.72-4.33,1.88-6.92.32-2.19-1.33-1.76-2.33-.5-3.76,2-2.25,4.65-3.18,7.32-4.18,1.93-.71,3.43-1.34,2.91-4.27a28.19,28.19,0,0,1,.93-13.35c.3-1,1-1.9,2.1-1.73,1.62.25,3,1.53,3,3C211.17,201.29,213.13,204.27,212.25,207.56Z" transform="translate(-6.94 -7.21)"/><path class="cls-1" d="M175.32,65.93a22.87,22.87,0,0,1-2.38,10.77c-1.68,3.2-5.07,4.75-7.89,3.77s-6-6.12-5.5-9c.13-.69.5-.79,1-1,.85-.28,1.64-.75,2.47-1.1,2.25-1,2.7-2.48,1.46-4.55a10.29,10.29,0,0,1-.93-1.64c-.37-1-2.29-1.22-1.45-2.84s.89-3.71,2.76-4.81c3.11-1.82,7.45-.71,8.89,2.44A18.19,18.19,0,0,1,175.32,65.93Z" transform="translate(-6.94 -7.21)"/><path class="cls-25" d="M81,138.56c-1.42,1.82-1.52,4.24-2.82,6.11-.51.72-1,1.78-2,1.43s-.76-1.61-.56-2.4a14.3,14.3,0,0,1,1.54-4c2-3.24,1.93-6.25-.45-9.26-1.05-1.33-1.09-2.37,1.1-2.1a15.57,15.57,0,0,1,3.67,5.93c1.06.78.57,1.67.18,2.56Z" transform="translate(-6.94 -7.21)"/><path class="cls-26" d="M81.6,136.81l-.18-2.56c.06-1,.4-1.78,1.62-1.6,1,.15.83,1,.86,1.69a7.88,7.88,0,0,1-.25,3.31C82.38,138.41,83,135.55,81.6,136.81Z" transform="translate(-6.94 -7.21)"/></svg>