<svg id="Layer_1" data-name="Layer 1" xmlns="http://www.w3.org/2000/svg" viewBox="0 0 286.07 285.59"><defs><style>.cls-1{fill:#010101;}.cls-2{fill:#fefefe;}.cls-3{fill:#020203;}.cls-4{fill:#75cbdc;}.cls-5{fill:#4298a9;}.cls-6{fill:#4398a8;}.cls-7{fill:#4398a9;}.cls-8{fill:#fcfcfc;}.cls-9{fill:#fbfbfb;}.cls-10{fill:#f5f5f5;}.cls-11{fill:#f3f3f3;}.cls-12{fill:#f7f7f7;}.cls-13{fill:#f8f8f8;}.cls-14{fill:#f4f4f4;}.cls-15{fill:#ededed;}.cls-16{fill:#fafafa;}.cls-17{fill:#70c1d1;}.cls-18{fill:#f9f9f9;}.cls-19{fill:#f2f2f2;}.cls-20{fill:#fdfefe;}.cls-21{fill:#438d9c;}.cls-22{fill:#77c7d7;}.cls-23{fill:#97bd81;}.cls-24{fill:#dcda3f;}.cls-25{fill:#ddda3f;}.cls-26{fill:#d9d946;}.cls-27{fill:#d5d94d;}.cls-28{fill:#cad85f;}.cls-29{fill:#c1d768;}.cls-30{fill:#0f0f0f;}.cls-31{fill:#0c0c0c;}</style></defs><title>11</title><path class="cls-1" d="M146.46,7.22c35.79,0,71.58-.08,107.37.08,5.94,0,12,.23,17.74,2.08,9.39,3,15.78,9.23,19.48,18.39,2,4.87,1.88,9.82,1.71,14.92-.29,9-.45,18-.43,26.93.07,52.89,0,105.79.1,158.68,0,7-.1,14.08.37,21.15.49,7.24.36,14.73-1.86,21.85-3,9.53-9.29,15.91-18.52,19.71-5.51,2.27-11.16,1.77-16.82,1.67-1.72,0-3.44,0-5.16,0l-123.35-.14c-22.35,0-44.7-.23-67.05.14-6.89.12-13.75,0-20.62-.19-11.78-.26-21.57-4.5-28-14.91a30.38,30.38,0,0,1-4.36-19c.72-8.52.25-17.07.26-25.61q.06-51.54,0-103.06c0-24.63.12-49.26-.08-73.89a179.77,179.77,0,0,1,.6-21.15c1.34-12.21,7.9-20.51,19-25.46,5-2.22,10.21-2.16,15.45-2.16q52.05,0,104.11,0Z" transform="translate(-6.97 -7.2)"/><path class="cls-2" d="M145.52,11.54q52.74,0,105.47,0a96.3,96.3,0,0,1,16.55,1.07c12.62,2.22,21.33,14.06,21.16,25.74-.93,65.78-.32,131.57-.37,197.35,0,9.16.12,18.31-.14,27.47-.42,14.42-13.08,25.47-26.09,25.41-43.42-.22-86.84-.09-130.26-.09-25.44,0-50.88-.13-76.31.06-7.91.06-15.82.14-23.57-1.19a25.2,25.2,0,0,1-20.29-20.94c-.68-4.52-.31-9.22-.31-13.83q0-102.24,0-204.49a84.29,84.29,0,0,1,.94-15.47c2.41-12.85,14.35-21.15,25.56-21.09,35.88.2,71.76.08,107.64.08Z" transform="translate(-6.97 -7.2)"/><path class="cls-3" d="M208,230.15c-6.56,2.63-13,3.24-19.55,3.38a33.27,33.27,0,0,1-6.74-.73c-1.34-.26-1.74,0-1.78,1.35-.12,4.44-1.15,9.34,0,13.22,1.49,5.22.31,10.66,2.5,15.56.43,1-.16,1.34-.58,1.85a10.17,10.17,0,0,1-5.09,3,38.53,38.53,0,0,1-9.12,1.24c-4.47.31-6.19-2.71-4.18-6.73a16.07,16.07,0,0,1,11.42-8.76c1.41-.32,1.75-.74,1.68-2.06a86.53,86.53,0,0,1,1-17.91c.18-1.14-.21-1.55-1-1.82-2.82-1-3.39-3.45-3.69-5.85a44.81,44.81,0,0,1,.55-12.92c.64-3.91-1.37-6.87-5.24-7.18-6.19-.51-12.29-1.71-18.43-2.51-5.74-.75-11.6-.58-17.39-1-14-1-28.11-1.19-42.13-2.21-5-.37-10.22-.79-15.19-2.47-5.93-2-8.32-7.83-4.89-13.68a1.88,1.88,0,0,1,1.71-1.09c11.67-.34,23.32-.5,35,.18,9.24.54,18.52.57,27.76,1.05q12.38.64,24.73.48c4.44-.06,8.83-1,13.29-.75,1.24.08,1.61-.81,1.73-1.69.58-3.92,1.13-7.86,1.52-11.81.15-1.49-.21-3.16-2.34-2.69-5.48,1.2-11,.84-16.53.6-22-.95-43.93-.94-65.9-.45a111.66,111.66,0,0,1-14.86-.2,12.7,12.7,0,0,1-5.75-2.2c-2-1.35-1-3.77-.71-5.58,1.05-5.93,4.52-8.49,10.62-8.64,12.71-.31,25.34,1.45,38.05,1.48,11.81,0,23.59-.54,35.37-1,7.07-.27,14.31-.16,21.07-3.1,3.78-1.64,5.74-4.36,5.85-8.45.14-5.44-.56-10.9.48-16.31.32-1.67-.66-1.93-2.07-1.94-4.91,0-9.76.77-14.68.73-12.8-.1-25.62.14-38.39-.79-7.71-.56-15.42-.32-23.12-.68-3.18-.14-6.54-.08-9.44-1.92-1.54-1-2.51-2.08-2.39-4.16.1-1.67-.47-3.38-.4-5.11.17-4,.8-4.85,4.7-5.72,1.82-.4,3.09-.7,3.17-3.24.15-4.49,1-9,1.54-13.43.19-1.47-.81-1.1-1.54-1.12-2.43-.07-4.86.14-7.28-.58s-3.76-2-3.37-4.69c.27-1.88.48-3.78.91-5.62,1-4.36,5-5.23,8.32-5.9,4.94-1,9.85-2.15,14.82-3a102,102,0,0,1,20.57-1.35c2.85.07,4.17-.66,4.65-3.72.66-4.25,6.27-8.37,11.86-7.5,5.23.83,8.11,3.49,9.21,8.43.29,1.31,1.06,1.49,2.2,1.37a61.6,61.6,0,0,1,6.5-.49c1.35,0,1.35-.84,1.65-1.66A11.23,11.23,0,0,1,179,53.75c5.16-.29,8.9,2.44,11.1,7.23,1.21,2.66,3.78,1.61,5.44,1.17,10-2.63,18.62-7.59,24.29-16.69.38-.61.73-1.41,1.59-1.25,1.07.2,1,1.28,1,2,0,3.17.31,6.48-.49,9.48s1.32,2.76,2.41,2.8c2.05.06,2,1.3,1.78,2.46-2.22,10-3.14,20.12-5.09,30.12-.77,4-.8,8.08-2.26,11.89a48.32,48.32,0,0,1-3.93,8.87c-3.31,5.26-8.18,8.07-14.08,9.28-1.63.34-2.43.7-2.53,2.67-.34,7,.41,14-.5,20.95-.26,2,.21,2.58,2.42,3.24,10.63,3.13,18.29,9.5,22.05,20.44,3.92,11.38,4.06,22.91,2.88,34.62-.06.63-.12,1.27-.14,1.9,0,1.09,0,2.17,0,3.38.52-.19,1-.35,1.5-.53,3.78-1.45,5.72-1,7.36,1.55,1.41,2.23.76,5.65-1.56,7.91a31.39,31.39,0,0,1-11.08,6.67c-3.47,1.3-6.23,4-9.79,5.11-1,.32-.7,1.35-.77,2.14-.64,7.32-.39,14.69-1.17,22-.29,2.74.3,5.58.56,8.37.25,2.6.06,4.59-3,5.79a21.16,21.16,0,0,1-10.3,1.71c-3-.37-4.2-2.27-3.23-5.18,1.89-5.66,5.12-10,11.49-10.94,1-.15,1.41-.35,1.46-1.42C206.75,244.53,207.15,237.57,208,230.15Z" transform="translate(-6.97 -7.2)"/><path class="cls-4" d="M137.21,68.76c3.77,6.25,9,8.38,14.75,6a10.33,10.33,0,0,0,6-6.63,2.21,2.21,0,0,1,2.48-1.87,7.4,7.4,0,0,0,.81-.08c3.61-.38,6.67-1,8.39,4s6.26,6.72,11.51,6c4.79-.63,8.26-3.71,9.36-8.89.45-2.1,1.21-2.55,3.29-2.78a32.72,32.72,0,0,0,14.44-4.76,51.4,51.4,0,0,0,11-9.07c.9,4.57-1.16,8.24-2,12.12-1.51-.15-.84-1.78-1.76-2.52-.66,2.73.16,5.23.71,7.76,2.24-.1,4.07-1.11,6.18-3.28-.64,4.32-1.22,7.89-1.7,11.48-.86,6.44-1.27,13-2.56,19.3-2,10-5.88,19.49-16.24,22.4-5,1.41-5.88,3-6.34,8.22-.6,6.8-.6,13.6-.6,20.4a2.94,2.94,0,0,1-.1,1.34c-1.23,2.16.64,2.61,1.74,2.37,3.31-.73,5.72,1,8.26,2.45a65.34,65.34,0,0,1,6,3.66c5.15,3.81,7.32,9.49,9.22,15.3,3.62,11,3.13,22.31,1.64,33.6-.24,1.8-.07,3.62-.68,5.39-.38,1.09.21,1.28,1.33,1.17a17.58,17.58,0,0,0,4.83-1.71c1.31-.53,2.62-1,3.76.18s.2,2.53-.31,3.72-1.9,1.93-3,2.71c-3.34,2.43-6.46,5.3-10.79,5.91a18.76,18.76,0,0,1-13.76-.32c-9.06-3.63-12.69-8.27-12.74-18,0-7.27.22-14.59-1.4-21.68a63.23,63.23,0,0,1-1.3-18.11c.57-9.71-.45-19.38-.1-29.08.18-5-.47-9.79-4-13.73a3.4,3.4,0,0,0-2.8-2.82c-3.11-2.31-6.67-2.36-10.36-2.41-12.69-.17-25.38-.53-38.08-.59-5.6,0-11.15-1.38-16.78-1.64a2.23,2.23,0,0,1-2.33-1.54,3.25,3.25,0,0,1,1-3.47,7.54,7.54,0,0,1,4-1.62,17.53,17.53,0,0,0,3.73-.63c15.87-.41,31.74-.13,47.61-.15,5.08,0,10.16.06,15.23-.07,4.86-.13,5.88-.83,6.92-5.82,1-4.66,1.69-9.44.65-14.23-.85-4-3.16-5.88-7.25-5.83-4.53,0-9,.29-13.58.45a104.48,104.48,0,0,0-19.13.14,5.37,5.37,0,0,1-2.67-.09c-4.4.19-8.82-.34-13.2.49a6.16,6.16,0,0,1-3.13-.57c-5-1.49-9.89-3.54-15.08-4.49a9.45,9.45,0,0,1-2.06-.7c-1.53-.71-3.17-1.59-2.82-3.51s1.19-3.59,3.43-4.1c3.63-.83,7.34-.67,11-1,2.33-.23,4.71,0,7.06-.07A2,2,0,0,1,137.21,68.76Z" transform="translate(-6.97 -7.2)"/><path class="cls-5" d="M183.59,121.74c4.86,2.26,4.34,7,4.7,11,.43,4.68,0,9.44.2,14.15a181.47,181.47,0,0,1-.12,20.6c-.5,7.89,2,15.38,2.54,23.1.28,4.16.18,8.34.27,12.51.08,3.61.21,7.15,2,10.53a12,12,0,0,0,4.61,5.13c5.15,3,10.44,5.45,16.68,3.91a10,10,0,0,1,2.44,0,56.08,56.08,0,0,1-32.52,7.44c-1.08-.08-2.13-.43-3.2-.55-4.83-.53-5.89-1.51-5.83-6.46a57.67,57.67,0,0,1,1-9.44c1.06-5.82-2.14-10-8-10.17a11.81,11.81,0,0,1-4.43-1c.8-1,2-.87,3-.81,2.83.15,5.58-.75,8.41-.45a1.91,1.91,0,0,0,2-1.12c1.35-3.09,2.64-6.19,1.72-9.69-.43-1.63-1.26-2.43-3.12-2.21-1.61.2-3.48.51-4.33-1.6,4.67-.33,5-.68,5.92-5.63a68.49,68.49,0,0,0,1.1-11c.06-3.92-2.09-5.81-5.92-5.69-.22-1,.71-1.11,1.25-1.47a6.07,6.07,0,0,0,2.7-3.88c.71-3.13-.62-4.74-3.8-4.87-1.39-.05-2.91.42-4.08-.79,1.29-1.18,3-1.13,4.54-1.53,7.71-2,11.71-8.52,10.61-16.46C183.23,130.8,183.5,126.26,183.59,121.74Z" transform="translate(-6.97 -7.2)"/><path class="cls-4" d="M171.54,186.66a5.15,5.15,0,0,0,4.87.78c1.72-.58,2.4.13,3,1.69,1.66,4.53,0,8.47-1.93,12.38a1.35,1.35,0,0,1-1.54.85c-4-.92-8.06.58-12.09.18a69.24,69.24,0,0,1-12.71-1.94c-5.56-1.15-11.31-.85-17-1.11-11-.49-22-1.32-33-2-3.05-.53-6.13-.08-9.19-.25-.58,0-1.44.34-1.65-.45s.57-1.31,1.23-1.55c2.64-1,5.33-1.77,8-2.6,7-2.17,14.1-4.09,21.29-5.61a28.2,28.2,0,0,1,4.29-.42c9.7-.47,19.34,1,29,.83C160,187.34,165.73,186.1,171.54,186.66Z" transform="translate(-6.97 -7.2)"/><path class="cls-4" d="M168.71,153.29c1.44,0,2.89.09,4.34.1,3.69,0,5.66,3.48,4,7a7.35,7.35,0,0,1-4.37,4,2.77,2.77,0,0,1-2.32,1.13c-4.51-.07-9-.08-13.53-.12a81.09,81.09,0,0,0-11.31-.63c-12.51-.14-25-.44-37.54-.7-.6,0-1.28.21-1.82-.41.22-1.37,1.42-1.74,2.43-2.21,3.47-1.59,6.94-3.15,10.44-4.67a20.68,20.68,0,0,1,8.8-1.35c7.7.19,15.36-1,23.06-.61a1.55,1.55,0,0,0,1-.29c4-.82,8.06-.54,12.1-.58A12.47,12.47,0,0,0,168.71,153.29Z" transform="translate(-6.97 -7.2)"/><path class="cls-6" d="M121.91,107c-1.84,1.26-4.09,1.3-6.1,2.07a2.74,2.74,0,0,0-2.06,3.06c.13,2,1.64,1.24,2.67,1.38,13.75,1.89,27.6,1.45,41.42,1.82,5.52.15,11,.3,16.55.32,2.81,0,4.92.87,6.4,3.25-13.91,1.58-27.86.85-41.77.53-11.85-.27-23.67-1.32-35.54-1.11-1.06,0-2.12-.43-3.19-.5-8.69-.58-6.56-3-6.8-9.2,0-1.09.78-1.41,1.71-1.77,4.15-1.62,8.51-.75,12.64-.54C112.52,106.57,117.23,106.56,121.91,107Z" transform="translate(-6.97 -7.2)"/><path class="cls-5" d="M151.87,154.44c-.4.17-.81.5-1.2.48-5.73-.3-11.41.9-17.11.61a35.44,35.44,0,0,0-19.6,4.26c-2.35,1.31-4.91,2.27-8.16,3.75,1.44.1,2.08.17,2.72.18,12.52.2,25,.21,37.55.7,3.55.14,7.21-.13,10.72.89-4.1.53-8.14-.3-12.21-.43-10.61-.34-21.23-.06-31.85-.47a198.39,198.39,0,0,0-23.39.51,67.89,67.89,0,0,1-11.59-.15c-2.16-.2-4.61-.29-5.34-2.65s1.85-6.83,4-7.66a10.53,10.53,0,0,1,3.44-.63C92,153.54,104,155.1,116,155.28c7.89.12,15.77-.14,23.65-.6C143.7,154.44,147.79,154.51,151.87,154.44Z" transform="translate(-6.97 -7.2)"/><path class="cls-7" d="M125.17,186.61c-5,1.28-10.1,2.45-15.1,3.85q-9.72,2.72-19.34,6c3.44,1.23,7.08-.15,10.45,1.06a93.07,93.07,0,0,1-17-.9,42.61,42.61,0,0,1-8.89-1.87,6.56,6.56,0,0,1-3.63-9.13c.36-.61.86-.52,1.39-.53,16.78-.1,33.53.6,50.29,1.13A10.07,10.07,0,0,1,125.17,186.61Z" transform="translate(-6.97 -7.2)"/><path class="cls-5" d="M137.21,68.76c-.62-.3-.92-1.06-1.81-1.05-6,.09-11.94.34-17.89,1C115,69,114.42,71.3,114,72.89s1.6,2.36,3.11,2.77C122,77,127,78,131.55,80.21a18.85,18.85,0,0,1,1.81,1.13,131.1,131.1,0,0,1-18.15,1c-6.61,0-13.12,1.38-19.74,1.24-5.08-.1-5.4-.72-4.51-5.67.74-4.16,3.84-5,7-5.73,6.39-1.52,12.82-2.9,19.29-4,6.16-1.08,12.44-.94,18.68-.94C137,67.18,137.26,67.82,137.21,68.76Z" transform="translate(-6.97 -7.2)"/><path class="cls-8" d="M171.21,65a8.33,8.33,0,0,1,8.34-8.53c4.72,0,8.44,4.21,8.34,9.47-.06,3.6-4.17,7.33-8.16,7.41A8.41,8.41,0,0,1,171.21,65Z" transform="translate(-6.97 -7.2)"/><path class="cls-9" d="M155.32,64.84C155,69.5,151.23,73,147,72.58a8.36,8.36,0,0,1-7.46-8.8,8,8,0,0,1,8.61-7.53A7.89,7.89,0,0,1,155.32,64.84Z" transform="translate(-6.97 -7.2)"/><path class="cls-10" d="M189.6,88.28c.55,3.58,0,7.16-.41,10.66-.64,5.21-.91,5.16-6.45,5.19a29.89,29.89,0,0,0-3.79.22c-2.42.35-2.85-.06-2.32-2.5a8.8,8.8,0,0,1,.46-1.27c.56-1.45-.65-3.6,1.11-4.39,1.29-.59,3-.21,4.56-.25,1.36,0,2.72,0,4.08-.06,1,0,2-.31,1.94-1.4-.09-1.32-1.33-1.44-2.3-1.14-2.5.78-5,.41-7.56.51-.37,0-.7,0-.8-.49,1.4-1.17,3.1-.72,4.68-.81C185.88,92.37,188.64,91.79,189.6,88.28Z" transform="translate(-6.97 -7.2)"/><path class="cls-8" d="M189.6,88.28c-.49,4.6-.68,4.76-6.65,5.06-1.61.08-3.22,0-4.83,0-.05-2.68-.07-5.37-.17-8.06,0-1.22.54-1.54,1.62-1.55,1.52,0,3.05-.07,4.58-.17C188.12,83.33,189.28,84.32,189.6,88.28Z" transform="translate(-6.97 -7.2)"/><path class="cls-11" d="M170.2,84.36c1.72,0,3.89-.64,5,.17,1.38,1-.32,3.12,0,4.78a3.25,3.25,0,0,1,0,.54c-.05,3.57-.05,3.57-3.51,3.4-.54,0-1.09,0-1.63,0-1.88-.19-4.85.85-5.39-.43-.92-2.17-.37-5-.4-7.51,0-1.07.79-1,1.53-1,1.45,0,2.91,0,4.36,0Z" transform="translate(-6.97 -7.2)"/><path class="cls-12" d="M143.73,84.26h.54c5.26,0,5.21,0,5,5.2-.11,2.13-.7,3.33-3.15,3.13a42.89,42.89,0,0,0-5.42.23c-.45,0-1,.19-1.34,0-3-1.57-.87-4.43-1.56-6.62-.36-1.16,0-2.11,1.63-2C140.82,84.36,142.28,84.26,143.73,84.26Z" transform="translate(-6.97 -7.2)"/><path class="cls-13" d="M143.94,104.11c-5.43,0-5.43,0-5.61-5.44-.12-3.49-.12-3.49,3.33-3.49,2.17,0,4.83-.76,6.38.23s0,4,.68,5.86c1,2.93-.38,3.12-2.6,2.85A19.81,19.81,0,0,0,143.94,104.11Z" transform="translate(-6.97 -7.2)"/><path class="cls-14" d="M130.19,104.13c-6,0-6,0-5.22-6.06.25-2.11.89-3,3.14-2.82,2.06.19,4.52-.7,6.13.16,1.93,1,.21,3.82.9,5.7,1.09,3-.35,3.38-2.78,3A15.7,15.7,0,0,0,130.19,104.13Z" transform="translate(-6.97 -7.2)"/><path class="cls-15" d="M174.55,100.28a14.89,14.89,0,0,0,0,1.89c.28,2-.8,2.48-2.54,2.33a35.8,35.8,0,0,0-5.93-.32c-2.44.22-2.72-.9-2.38-2.84a30.77,30.77,0,0,0,.54-4.27c0-1.2.54-1.52,1.65-1.56,2.07-.08,4.14.15,6.2.17,2.32,0,2.72,1.07,2.47,3a12.67,12.67,0,0,0,0,1.63Z" transform="translate(-6.97 -7.2)"/><path class="cls-14" d="M156.47,104.24c-5.1.17-5.1.17-5-4.79.06-4.3.06-4.3,4.51-4.28,5.15,0,5.15,0,5.35,4.43S161.5,104.06,156.47,104.24Z" transform="translate(-6.97 -7.2)"/><path class="cls-11" d="M161.54,88.69c0,4.54,0,4.58-4.42,4.4-1.52-.06-3-.38-4.55-.58-.57-.07-1.15-.21-1.1-.92.17-2.25-.41-5.19.79-6.57,1.69-1.93,4.89-.5,7.43-.77.64-.07,1.67-.32,1.81.65A26.59,26.59,0,0,1,161.54,88.69Z" transform="translate(-6.97 -7.2)"/><path class="cls-16" d="M106.67,94.54c4.27.18,4.25.18,4.3,4.6,0,1.56.16,3.12.24,4.68-1.52,0-3.06-.16-4.57-.07-5.34.32-5.34.35-5-5C101.88,94.34,101.88,94.34,106.67,94.54Z" transform="translate(-6.97 -7.2)"/><path class="cls-17" d="M168.1,265.61c-2.55.31-2.16-.89-1.42-2.52,2-4.37,5.63-6.29,10-7.36,1.19-.29,1.45.05,1.45,1.09a15.06,15.06,0,0,0,.16,1.89c.66,5.05.68,5.11-4.31,6.16C172.07,265.27,170.07,265.37,168.1,265.61Z" transform="translate(-6.97 -7.2)"/><path class="cls-18" d="M135.05,88.74c-.09,4.44-.09,4.44-4.5,4.45-5.37,0-5.26,0-5.37-5.5,0-2.22.68-3.16,2.87-3.08.9,0,1.8-.13,2.71-.15C135.14,84.34,135.14,84.35,135.05,88.74Z" transform="translate(-6.97 -7.2)"/><path class="cls-19" d="M117.82,104.11c-5,0-5,0-4.47-5,.44-4,.44-4,4.46-3.91a13.46,13.46,0,0,0,1.9,0c2.55-.35,3.25.77,2.61,3.1a7.31,7.31,0,0,0-.17,1.62C122,104.11,122,104.11,117.82,104.11Z" transform="translate(-6.97 -7.2)"/><path class="cls-20" d="M118.38,93.18c-4.52,0-4.36,0-4.59-4.68-.14-2.76.56-3.7,3.48-3.58,5.66.24,5.67.06,5.37,5.78C122.5,93.18,122.5,93.18,118.38,93.18Z" transform="translate(-6.97 -7.2)"/><path class="cls-8" d="M106.57,92.46c-4.44,0-5.45-1.32-4.51-5.68.19-.87.76-.9,1.36-1,2.41-.28,4.88.12,7.25-.63.23-.07.71-.05.75,0,.89,2.15-.18,4.21-.29,6.32-.06,1.32-1.14.84-1.86.89C108.38,92.5,107.47,92.46,106.57,92.46Z" transform="translate(-6.97 -7.2)"/><path class="cls-21" d="M206.94,261.94c1.06,3.06,1,3.1-2.06,3.22-2.06.08-4.11.29-6.16.53-2.27.27-2.34-.77-1.65-2.47a13.59,13.59,0,0,1,5.55-6.73c1,1.36.84,3,1.19,4.59.2.9-.23,2.15,1,2.52S206.21,262.47,206.94,261.94Z" transform="translate(-6.97 -7.2)"/><path class="cls-22" d="M206.94,261.94c-.15,1.19.51,2.73-1.81,2.72-2.09,0-2.06-1.19-2-2.6.07-1.88-.82-3.67-.51-5.57l0,0a2.48,2.48,0,0,1,1-.39c2.34-.77,2.46-.68,2.54,1.82a3,3,0,0,0,.25,1.79C206.68,260.4,206.17,261.33,206.94,261.94Z" transform="translate(-6.97 -7.2)"/><path class="cls-23" d="M216.22,68.1c-2-4.2-2.18-5.92-1.2-9.27,2.46.38,1.32,2.79,2.25,4C216.9,64.6,216.12,66.26,216.22,68.1Z" transform="translate(-6.97 -7.2)"/><path class="cls-5" d="M149.69,81.42c6.67-1,13.37-.38,20.06-.55.63,0,1.29-.09,1.74.5C164.23,81.6,157,81.74,149.69,81.42Z" transform="translate(-6.97 -7.2)"/><path class="cls-21" d="M206.38,259.68c-.16-.31-.49-.64-.46-.93.34-2.85-1.12-3.06-3.28-2.29.84-.88,2.09-1.64,3-1C207,256.46,206.36,258.22,206.38,259.68Z" transform="translate(-6.97 -7.2)"/><path class="cls-24" d="M215.17,202.46c-1.87-4.09-1.9-8.07-1.58-12,.48-5.86-1.58-11.05-3.65-16.27a54.07,54.07,0,0,0-4-8.64c-1.61-2.6-3.3-5.07-6.63-5.75-1.28-.27-2.68-1.37-2-2.63a2.94,2.94,0,0,1,3.83-1.38c3.33,1.58,5.68,4.27,7.83,7.1,4.2,5.53,6.32,12.14,8.48,18.53C219.84,188.39,219,195.59,215.17,202.46Z" transform="translate(-6.97 -7.2)"/><path class="cls-25" d="M216.78,80.41c.25,8.32-3.24,15.49-7,22.56-.38.71-.93,1.69-2.08,1.32s-.7-1.35-.71-2.09c-.07-4.54,1.36-8.79,2.6-13.07.94-3.22,2.39-6.28,2.9-9.64.28-1.89,1.62-3.34,2.24-5.1.2-.55.64-.57,1.1-.54.88.06.95.75,1,1.38C216.8,77,216.78,78.68,216.78,80.41Z" transform="translate(-6.97 -7.2)"/><path class="cls-26" d="M182.3,112.88c-7.94.44-15.07.34-22.2,0a2,2,0,0,1-2.07-2c.07-1.52,1.44-1.12,2.32-1.13,2.81,0,5.85-.62,8.38.24C173,111.43,177.68,109.62,182.3,112.88Z" transform="translate(-6.97 -7.2)"/><path class="cls-27" d="M224.06,217.77c-.94,0-1.55.18-1.8-.51a1.52,1.52,0,0,1,.32-1.51,12.05,12.05,0,0,1,4-3c.68-.36,1,0,1.36.37s.83.66.43,1.1C227.07,215.73,225.88,217.46,224.06,217.77Z" transform="translate(-6.97 -7.2)"/><path class="cls-28" d="M168.06,197.12c-.87-.12-2.06.3-2.2-.64-.12-.77.71-1.62,1.71-1.72s1.8-1.54,3-.78a1.73,1.73,0,0,1,.39,2C170.46,197.69,168.94,196.72,168.06,197.12Z" transform="translate(-6.97 -7.2)"/><path class="cls-29" d="M165.22,160.94c-.48-.09-1.47.35-1.82-.74s.69-1.78,1.35-2.07a27.09,27.09,0,0,1,4.8-1.43,1.09,1.09,0,0,1,1.46,1.14c0,.71.19,1.78-.62,1.86C168.67,159.88,167.26,161.16,165.22,160.94Z" transform="translate(-6.97 -7.2)"/><path class="cls-30" d="M180.76,64.91c.11,2.07-.66,3-2.16,2.93s-2.9-.78-2.85-2.83c0-1.54.5-3,2.09-2.86A3.17,3.17,0,0,1,180.76,64.91Z" transform="translate(-6.97 -7.2)"/><path class="cls-31" d="M145,64.55c.22-1.49.42-2.8,2.3-2.87,1.73-.06,2.3.94,2.23,2.35s-.59,2.62-2.41,2.64C145.52,66.68,145.11,65.74,145,64.55Z" transform="translate(-6.97 -7.2)"/></svg>