<svg id="Layer_1" data-name="Layer 1" xmlns="http://www.w3.org/2000/svg" viewBox="0 0 286.12 285.58"><defs><style>.cls-1{fill:#010101;}.cls-2{fill:#fefefe;}.cls-3{fill:#060202;}.cls-4{fill:#fe7800;}.cls-5{fill:#d6000a;}.cls-6{fill:#fd7802;}.cls-7{fill:#fb7702;}.cls-8{fill:#d3020a;}.cls-9{fill:#d5010a;}.cls-10{fill:#d6010b;}.cls-11{fill:#d5010b;}.cls-12{fill:#fcfcfc;}.cls-13{fill:#f1f1f1;}.cls-14{fill:#f8f8f8;}.cls-15{fill:#fafafa;}.cls-16{fill:#f6f5f5;}.cls-17{fill:#ececec;}.cls-18{fill:#f5f5f5;}.cls-19{fill:#fbfbfb;}.cls-20{fill:#fdfdfd;}.cls-21{fill:#f2f2f2;}.cls-22{fill:#f17007;}.cls-23{fill:#fcfcfd;}.cls-24{fill:#ca060c;}.cls-25{fill:#ea6f0c;}.cls-26{fill:#fcc504;}.cls-27{fill:#fcc406;}.cls-28{fill:#0f0f0f;}.cls-29{fill:#0d0d0d;}</style></defs><title>12</title><path class="cls-1" d="M146.47,7.22c35.79,0,71.59-.06,107.38.07,5.58,0,11.26.24,16.7,1.77,11.72,3.29,18.62,11.43,22,22.8a22.06,22.06,0,0,1,.51,6.76c-.18,6.53-.63,13.05-.79,19.58-.11,4.07.16,8.15.16,12.23,0,52.62-.07,105.25.07,157.87,0,7-.11,14.08.37,21.15S293.16,264,291,271c-2.95,9.78-9.37,16.25-18.82,20.07-5.45,2.2-11,1.64-16.57,1.59-1.62,0-3.25,0-4.88,0l-149.26-.14c-13.08,0-26.17-.3-39.24.12-7.62.24-15.21.1-22.81-.15C24.2,292,12.73,285.18,7.61,268.61a20.69,20.69,0,0,1-.6-7.29c.88-13.62.31-27.25.34-40.88q.15-82.2,0-164.41c0-8.34-.53-16.72,1.2-24.9C10.75,20.62,17.3,13.55,27.18,9.32c5-2.15,10.23-2,15.45-2.05q51.93-.06,103.84,0Z" transform="translate(-6.94 -7.21)"/><path class="cls-2" d="M145.1,11.56q53.42,0,106.83,0a99.75,99.75,0,0,1,15.46,1c12.28,1.94,21.51,13.55,21.34,25.84-.93,65.77-.33,131.56-.36,197.34,0,9.34.16,18.67-.19,28-.49,13-11.78,24.61-24.78,24.64q-71.4.15-142.8,0c-21.44,0-42.88-.18-64.32.09-7.09.09-14.15-.19-21.18-.7-12.56-.92-22.64-10.83-23.53-22.63-.8-10.56-.21-21.23-.21-31.85q0-37.35,0-74.7,0-54.39,0-108.79a101.9,101.9,0,0,1,1-17.11C14.56,20,26.59,11.5,38,11.57c35.7.22,71.4.08,107.1.08Z" transform="translate(-6.94 -7.21)"/><path class="cls-3" d="M229.9,207.78c.56-.19,1-.36,1.54-.55,3.64-1.42,5.55-1.07,7.2,1.35,1.54,2.23,1.06,5.61-1.24,7.93a30.74,30.74,0,0,1-11.28,6.86c-3.46,1.31-6.21,4-9.79,5.11-1,.31-.67,1.36-.74,2.15-.67,7.23-.23,14.52-1.23,21.73-.37,2.71.62,5.36.63,8.1,0,5.05,0,5.47-4.77,7.09a19.23,19.23,0,0,1-8,1.05c-3.47-.33-4.83-2.32-3.67-5.57,2-5.5,5.18-9.74,11.43-10.67.76-.11,1.37-.11,1.42-1.17.35-7.05.67-14.1,1.63-21.42a85,85,0,0,1-12.6,2.78,47.44,47.44,0,0,1-13.78-.3c-1.45-.27-1.68.15-1.72,1.43-.12,4.36.37,8.73-.4,13.06-.24,1.4,1.07,2.12,1.33,3.42.71,3.6-.27,7.39,1.07,10.79,1.16,2.94-.47,4.08-2.5,5.14-4.07,2.11-8.57,2.29-13,2.31-3.57,0-4.79-3-3.12-6.5a15.9,15.9,0,0,1,11.56-9c1.47-.32,1.67-.84,1.61-2.09a90.18,90.18,0,0,1,1-17.91c.14-.94,0-1.43-.8-1.68-2.93-.95-3.61-3.48-3.91-6a46.66,46.66,0,0,1,.56-12.92c.63-3.89-1.4-6.85-5.28-7.15-6.2-.48-12.29-1.69-18.43-2.51-5.55-.75-11.23-.59-16.84-1-14.12-1-28.29-1.22-42.4-2.2-5.24-.36-10.63-.7-15.72-2.58-5.86-2.16-7.94-7.82-4.58-13.63a1.82,1.82,0,0,1,1.48-1.07c12.3-.34,24.6-.48,36.91.26,8.23.5,16.5.67,24.75.92,7.61.24,15.2.71,22.83.65,5.45-.05,10.83-1.2,16.28-.85a1.6,1.6,0,0,0,1.9-1.48c.59-4.11,1.19-8.22,1.57-12.35.15-1.64-.71-2.95-2.66-2.3a21.46,21.46,0,0,1-7.55.63c-23.68-.91-47.38-.83-71.07-.77a59,59,0,0,0-6.49.46A33.26,33.26,0,0,1,78,166c-3.74-1.3-4.3-2.88-3.4-6.89,1.33-5.91,4.62-8.43,10.75-8.57,12.89-.29,25.7,1.47,38.59,1.48,11.63,0,23.23-.55,34.83-1,7-.28,14.12-.14,20.81-3,4-1.74,5.94-4.3,6-8.56.14-5.44-.56-10.9.48-16.31.28-1.44-.45-1.82-1.84-1.9-3.2-.19-6.32.6-9.49.64-14.72.16-29.44.29-44.12-.71-7.44-.51-14.87-.34-22.3-.61a48.57,48.57,0,0,1-7-.72c-3.52-.65-4.74-2.35-5.32-6a26.49,26.49,0,0,1-.37-4.85c.13-3.57,1-4.69,4.45-5.37,2.15-.42,3.36-1,3.45-3.62.15-4.4.93-8.78,1.49-13.16.15-1.24-.67-1-1.36-1-2.53-.07-5.06.2-7.55-.61-2.24-.72-3.69-1.88-3.3-4.47.29-2,.5-3.95.94-5.88,1-4.24,4.85-5.12,8.12-5.79,4.93-1,9.85-2.15,14.82-3.06a104,104,0,0,1,20.84-1.39c2.67,0,4.05-.5,4.52-3.54.76-5,6.85-8.4,11.74-7.71,5.31.74,8.31,3.48,9.4,8.57.28,1.34,1.2,1.38,2.27,1.28,2.17-.2,4.34-.51,6.5-.5,1.62,0,1.34-1.26,1.67-2,3.64-8.56,14.23-10.1,19.89-3,1.15,1.44.73,4.37,3.84,4.19a32.84,32.84,0,0,0,5.75-1.12c7-1.63,12.33-5.74,17.47-10.31a22.81,22.81,0,0,0,4.1-5.38c.41-.66.75-1.63,1.79-1.35s.91,1.35.91,2.07c0,3.09.34,6.32-.47,9.21-.76,2.7,1.34,3.18,2.21,3.05,2.57-.39,2.18,1.35,1.93,2.44-2.2,10-3.37,20.09-5,30.13-1,5.83-2,11.45-4.28,16.9-3,7.34-8.48,11.54-16.09,13.08-1.67.34-2.38.78-2.47,2.7-.32,7,.38,14-.51,20.95-.27,2.08.31,2.55,2.46,3.2,10.59,3.18,18.29,9.53,22,20.47,3.89,11.38,4.06,22.9,2.86,34.61-.07.73-.13,1.45-.15,2.18C229.88,205.67,229.9,206.66,229.9,207.78Z" transform="translate(-6.94 -7.21)"/><path class="cls-4" d="M120.33,68.36c3.62-1.57,7.52-1,11.27-1.48,1.07-.15,2.19.06,3.27,0,3.95-.35,6.81.07,9.49,4.2,4.42,6.81,14.88,5.07,18.08-2.57,1-2.35,2.37-2.85,4.45-2.89a22.2,22.2,0,0,0,2.45-.1c2.26-.31,3.53,0,4.38,2.76,1.64,5.34,6.09,7.87,11.56,7.6,4.82-.24,8.58-3.25,9.95-8.52.66-2.54,1.81-3.09,4.35-3.39a31.45,31.45,0,0,0,13.67-4.64,54.51,54.51,0,0,0,11-9.11,23.09,23.09,0,0,1-1.43,10.73c-.58,1.7-1.18,3.4-1.61,5.15-.27,1.1.06,1.69,1.47,1.28a13.52,13.52,0,0,0,4.65-2.66c-.69,4.48-1.35,8.36-1.87,12.26-.79,6-1.07,12.11-2.31,18-2.17,10.35-5.84,19.48-16.19,22.47-5.19,1.51-6,3-6.46,8.44-.57,6.8-.51,13.6-.59,20.41,0,3.31-.16,3.29,3.25,3.22a4.27,4.27,0,0,1,1.57.39c9.7,3.64,16.72,9.59,20,20.06,3.58,11.52,3.54,23,2,34.66-.25,1.88.06,3.81-.69,5.65-.42,1,.25,1.12,1.17,1.09,1.9-.06,3.44-1.07,5.11-1.74,1.31-.53,2.58-1,3.7.3s.19,2.39-.31,3.52-1.71,1.86-2.72,2.6c-3.47,2.55-6.71,5.56-11.27,6.12-8.46,3.15-15.6-.07-21.84-5.31-3.48-2.91-4.62-7.51-4.51-12.15.17-7.82.07-15.64-1.52-23.32a77,77,0,0,1-.77-23,23.06,23.06,0,0,0-.19-6,23,23,0,0,1-.15-6.52c.62-5-.22-10-.37-14.92a15.26,15.26,0,0,0-3.72-9.71,3.61,3.61,0,0,0-3-2.88c-3.08-2.09-6.52-2.33-10.14-2.35-12.62-.06-25.23-.57-37.85-.6-5.69,0-11.32-1.56-17.07-1.64a2.18,2.18,0,0,1-2.35-1.49,3.23,3.23,0,0,1,.92-3.49,7.06,7.06,0,0,1,3.71-1.58c1.34-.24,2.71-.25,4-.62,1.81-.08,3.63-.21,5.44-.21q27.75,0,55.51,0a20.58,20.58,0,0,0,5.35-.77,3.49,3.49,0,0,0,2.83-2.53c1.55-5.54,2.31-11.17,1.26-16.85-.76-4.11-3.24-6-7.5-5.84-14.68.58-29.36.62-44,.54-4,.35-7.84.39-11.59-1.5a36.62,36.62,0,0,0-8.52-2.63c-1-.22-1.93-.46-2.89-.72C117.66,74.65,117,72.46,120.33,68.36Z" transform="translate(-6.94 -7.21)"/><path class="cls-5" d="M188.57,121.2a5.84,5.84,0,0,1,3.7,4.68,81.11,81.11,0,0,1,1.22,19.43,18.23,18.23,0,0,0-.06,2.45,99.3,99.3,0,0,1-.06,16.54c-.76,8.58,1.34,16.92,2.41,25.34a97.24,97.24,0,0,1,.29,13.86,21.6,21.6,0,0,0,2.9,11.34,6.61,6.61,0,0,0,2.23,2.32c5.4,3.47,10.9,6.53,17.73,5a13.58,13.58,0,0,1,2.71,0c-3.78,2.68-8.13,4-12.47,5.38A56.4,56.4,0,0,1,191,229.74c-2.82-.07-5.41-1.2-8.23-1.26-1.48,0-1.77-1.48-2-2.79-.91-4.34,0-8.67.38-12.93.56-5.7-2-9.32-7.74-9.78a3.1,3.1,0,0,1-1.78-.55c0-1.26,1-1.15,1.72-1.19,2.17-.11,4.3-.8,6.5-.49a1.93,1.93,0,0,0,2.14-.86c1.74-3.08,2.83-6.29,2-9.89-.38-1.64-1.19-2.44-3.07-2.25-1.57.16-3.48.58-4.29-1.59,4.56-.3,5.16-.84,6.23-7.29a58.92,58.92,0,0,0,.65-9.21c0-4-1.76-5.74-5.71-6-.32-.95.58-1,1-1.25a6.11,6.11,0,0,0,2.78-4.42c.44-3-.75-4.34-3.78-4.4a28.09,28.09,0,0,0-5.1.34c-1.12.17-2.35.47-3.21-.7,3.9-1,7.87-1.61,11.67-3.08,4.26-1.65,8.29-7.63,7.67-13A107.62,107.62,0,0,1,188.57,121.2Z" transform="translate(-6.94 -7.21)"/><path class="cls-6" d="M176.6,186.16a5.73,5.73,0,0,0,5.16.75A1.67,1.67,0,0,1,184.1,188c1.48,3.31.51,10.52-1.82,13.2-.69.79-1.36.54-2.19.41a21.49,21.49,0,0,0-8.47.82c-5.18-.79-10.36-1.61-15.54-2.35a55.54,55.54,0,0,0-8.08-.92c-12,0-23.88-1.42-35.85-1.69-5.51-.12-11.05-.38-16.57-.69-.68-.15-1.35-.35-.63-1.19a4.68,4.68,0,0,1,2.39-1.22c8.65-2.61,17.26-5.36,26.11-7.29,2-.45,4.09-.6,6.13-.92a153.35,153.35,0,0,1,16.74.46,139.78,139.78,0,0,0,24.88-.49A40.58,40.58,0,0,1,176.6,186.16Z" transform="translate(-6.94 -7.21)"/><path class="cls-7" d="M169.48,153.21c2.81.53,5.53-.54,8.35-.39,3.67.21,5.62,2.53,4.41,6.08-.73,2.13-1.75,4.34-4.47,4.74-1,1.33-2.47,1.25-3.94,1.29-13.43.38-26.81-1.23-40.24-.8-2.35.07-4.71-.06-7.07-.09-1.78-.25-3.6.26-5.36-.29L111,163.8c-.6.22-1.2.22-1-.61s1-1,1.65-1.34c4.67-2.22,9.51-4.09,14.09-6.48a6,6,0,0,1,2.14-.3c7-.94,14.14-.36,21.2-1C155.85,153.45,162.68,153.47,169.48,153.21Z" transform="translate(-6.94 -7.21)"/><path class="cls-8" d="M126.84,106.55c-1.79,1.13-3.93,1.25-5.88,1.91-1.66.57-2.39,1.51-2.26,3.2.16,2,1.71,1.17,2.72,1.29,13.32,1.7,26.72,1.57,40.11,1.86,6.05.14,12.12.17,18.18.37,2.52.09,4.63.77,5.89,3.14-8.78,1.34-17.6.81-26.43.87-14.58.1-29.08-1.3-43.63-1.67-3.71-.09-7.41.14-11.13-.2-6.4-.58-7.1-3.69-5.89-9.2.54-2.42,3.2-2.52,5.33-2.65C111.55,105,119.16,106.62,126.84,106.55Z" transform="translate(-6.94 -7.21)"/><path class="cls-9" d="M127.88,155.07c-5.28,2.44-10.57,4.85-15.83,7.34-.48.23-1.74.15-1.1,1.39-4.57.85-9.19.21-13.79.43-2.26.11-4.51.39-6.74.51a31.71,31.71,0,0,1-12.19-1.65c-.78-.27-.87-.75-1-1.42a7.64,7.64,0,0,1,7.19-8.32c8.16-.13,16.3.21,24.45.89,5.24.43,10.53.25,15.79.37C125.77,154.64,126.9,154.38,127.88,155.07Z" transform="translate(-6.94 -7.21)"/><path class="cls-10" d="M129.58,186.16c-5.26,2-10.88,2.51-16.21,4.22-5.5,1.76-11.08,3.29-16.6,5-.4.13-2.34-.35-1.19,1.38-3.32-.84-6.75-.65-10.11-1.05a21.76,21.76,0,0,1-7-2.47c-2.22-1.14-3.26-6-2-8a1.38,1.38,0,0,1,1.38-.64c13.49.2,27,.23,40.46.65C122,185.35,125.88,185,129.58,186.16Z" transform="translate(-6.94 -7.21)"/><path class="cls-11" d="M120.33,68.36a3.39,3.39,0,0,1-.51,2.07c-1.42,2.72-1.08,3.66,1.94,4.56,4,1.19,8.19,1.77,11.91,3.47a25.87,25.87,0,0,0,12,2.45c-5.86.62-11.74.16-17.6.57-4.07.29-8.2-.48-12.17.21a94.67,94.67,0,0,1-15.09,1.21c-6,.06-5.56-.37-4.64-6.18.63-4,4-4.34,6.78-5.12,4.29-1.2,8.72-1.89,13.07-2.9A10.94,10.94,0,0,1,120.33,68.36Z" transform="translate(-6.94 -7.21)"/><path class="cls-12" d="M184.38,55.89c5.64.65,8,3.47,8.41,9.38.24,3.64-4.22,7.51-8.3,7.5a8.44,8.44,0,0,1-.11-16.88Z" transform="translate(-6.94 -7.21)"/><path class="cls-12" d="M152.38,55.72c3.85-.08,8,3.54,8,7,.05,5.49-3.22,9.29-8,9.3a8.34,8.34,0,0,1-7.93-7.81A8,8,0,0,1,152.38,55.72Z" transform="translate(-6.94 -7.21)"/><path class="cls-13" d="M194.52,87.75c.6,3.57,0,7.16-.39,10.65-.66,5.21-.94,5.15-6.44,5.2a16,16,0,0,0-4,.3c-2.09.58-2.52-.43-2.14-2.05a23.48,23.48,0,0,0,.78-5.06c0-1.35.93-1.32,1.88-1.33l7.33-.12c1.07,0,2.29-.18,2.19-1.41-.12-1.45-1.47-1.34-2.56-1.1a14.7,14.7,0,0,1-8.08,0c1.4-1.18,3.1-.72,4.67-.81C190.8,91.83,193.56,91.26,194.52,87.75Z" transform="translate(-6.94 -7.21)"/><path class="cls-12" d="M194.52,87.75c-.47,4.48-.61,4.62-6.38,5-1.69.12-3.39,0-5.09,0-.05-2.69-.07-5.38-.17-8.07,0-1.21.54-1.53,1.62-1.55,1.8,0,3.59-.2,5.39-.25C193.07,82.85,194.26,84.11,194.52,87.75Z" transform="translate(-6.94 -7.21)"/><path class="cls-14" d="M174.92,83.86c1.81,0,4.05-.66,5.29.17s-.38,3.12-.05,4.8a12.3,12.3,0,0,1,0,1.36c.1,2-.1,3.29-2.78,2.62a17,17,0,0,0-5.69-.1c-2.15.22-2.78-.65-2.46-2.6a5.61,5.61,0,0,0,0-.82C169.24,83.71,169.24,83.71,174.92,83.86Z" transform="translate(-6.94 -7.21)"/><path class="cls-15" d="M148.71,83.72h.54c5.23,0,5.17,0,4.9,5.23-.11,2.16-.76,3.31-3.2,3.09a38.45,38.45,0,0,0-5.13.23c-.55,0-1.21.23-1.61,0-3-1.72-.81-4.64-1.52-6.93-.4-1.3.46-1.7,1.69-1.64C145.82,83.77,147.27,83.72,148.71,83.72Z" transform="translate(-6.94 -7.21)"/><path class="cls-14" d="M148.78,103.57c-5.34,0-5.34,0-5.51-5.27-.12-3.67-.12-3.68,3.69-3.67,2.07,0,4.64-.68,6.08.29s0,3.83.61,5.62c1.29,3.51-.87,3.11-3,3C150.06,103.55,149.42,103.57,148.78,103.57Z" transform="translate(-6.94 -7.21)"/><path class="cls-16" d="M135.35,103.59c-2-.31-4.64,1-5.4-.68-1-2.08-.12-4.78.28-7.18a1.08,1.08,0,0,1,1.12-1l.81,0c7.94-.43,7.92-.43,8.29,7.61.05,1-.33,1.25-1.2,1.24C137.9,103.58,136.54,103.59,135.35,103.59Z" transform="translate(-6.94 -7.21)"/><path class="cls-17" d="M179.48,99.75a11.07,11.07,0,0,0,0,1.63c.38,2.34-.89,2.76-2.84,2.57a25.14,25.14,0,0,0-5.39-.31c-2.78.34-3-1-2.59-3.13A11.44,11.44,0,0,1,169,99.2c.45-1.28-.49-3.14.61-3.84,1.49-1,3.49-.45,5.28-.44a2.48,2.48,0,0,1,.27,0C179.48,95.4,179.48,95.4,179.48,99.75Z" transform="translate(-6.94 -7.21)"/><path class="cls-18" d="M161.33,103.69c-5,.15-5,.15-5-4.86,0-4.25,0-4.25,4.31-4.21,5.44,0,5.44,0,5.54,4C166.35,103.53,166.35,103.53,161.33,103.69Z" transform="translate(-6.94 -7.21)"/><path class="cls-19" d="M111.07,94c4.8.18,4.77.18,4.84,4.73,0,1.49.88,3.46.21,4.35-.85,1.16-2.85,0-4.38.09-5.51.47-5.52.41-5.18-5a5.65,5.65,0,0,0,.07-1.08c-.38-2.52.65-3.53,3.16-3.09A6,6,0,0,0,111.07,94Z" transform="translate(-6.94 -7.21)"/><path class="cls-20" d="M161.74,83.73c4.86,0,4.86,0,4.78,4.78,0,.81-.14,1.63-.09,2.43.09,1.33-.51,1.79-1.76,1.67-2.33-.23-4.65-.43-7-.65-.26,0-.68,0-.76-.17-1.32-2.34.15-4.69,0-7.05-.07-1.4,1.24-.95,2.05-1S160.83,83.73,161.74,83.73Z" transform="translate(-6.94 -7.21)"/><path class="cls-21" d="M135,92.65c-4.76,0-4.76,0-4.8-4.7,0-3.63,0-3.63,3.64-4,6.28-.55,6.14-.54,6.25,5.55,0,2.54-.78,3.42-3.19,3.11A15,15,0,0,0,135,92.65Z" transform="translate(-6.94 -7.21)"/><path class="cls-22" d="M175.05,264.72c-1.29-.27-3,.61-3.65-.47-.82-1.29.82-2.36,1.4-3.5,1.87-3.68,5.56-4.54,9.07-5.66.87-.28,1.13.19,1.17,1,0,.36,0,.72.05,1.08.18,1.93,1.23,4.86.39,5.59-1.7,1.46-4.41,1.84-6.89,1.89C176.06,264.61,175.52,264.68,175.05,264.72Z" transform="translate(-6.94 -7.21)"/><path class="cls-18" d="M122.7,103.56c-5,0-5.14,0-4.36-5,.71-4.6-.54-3.87,4.46-3.84,4.52,0,4.52.11,4.28,4.5a2.72,2.72,0,0,1,0,.28C126.9,103.56,126.9,103.56,122.7,103.56Z" transform="translate(-6.94 -7.21)"/><path class="cls-20" d="M123.27,84.44c4.5,0,4.56,0,4.35,4.59-.19,4.09.44,3.57-3.74,3.6-5.09,0-5.09,0-5.09-4.92C118.79,84.47,118.79,84.47,123.27,84.44Z" transform="translate(-6.94 -7.21)"/><path class="cls-23" d="M111.53,91.91c-4.52,0-5.42-1.16-4.54-5.64.21-1,.93-.92,1.61-1,2.32-.29,4.69.13,7-.61.27-.09.89.07.93.22.56,2.17-.15,4.28-.54,6.36-.25,1.3-1.67.51-2.55.66A10.83,10.83,0,0,1,111.53,91.91Z" transform="translate(-6.94 -7.21)"/><path class="cls-24" d="M212.23,264.21c-2.95.3-5.9.63-8.85.89-1.94.18-2.19-.91-1.51-2.38a16,16,0,0,1,5.62-6.73,3.28,3.28,0,0,1,1.06,2.69C208.45,261.47,209.36,263.46,212.23,264.21Z" transform="translate(-6.94 -7.21)"/><path class="cls-25" d="M212.23,264.21c-.81,0-1.61-.07-2.42,0-1.05,0-1.65-.31-1.72-1.51-.13-2.22-.39-4.44-.6-6.66,3.16-1.81,3.4-1.67,3.82,1.93C211.56,260,211.92,262.11,212.23,264.21Z" transform="translate(-6.94 -7.21)"/><path class="cls-9" d="M121.16,163.75c1.8,0,3.61-.36,5.37.29C124.73,164.06,122.92,164.46,121.16,163.75Z" transform="translate(-6.94 -7.21)"/><path class="cls-26" d="M220.22,201.89a3.1,3.1,0,0,1-1.24-2.7c0-4.61-.85-9.19-.55-13.82a9,9,0,0,0-.52-3.46c-1.95-5.73-3.86-11.49-6.79-16.8-1.49-2.7-3.45-5.05-6.77-5.85-1.19-.29-2.45-1.23-2.06-2.74s1.77-.93,2.8-1c1.69-.12,2.86.83,4.06,1.86a33.68,33.68,0,0,1,9.08,13c2.87,6.76,6,13.45,5.09,21.08A24.36,24.36,0,0,1,220.22,201.89Z" transform="translate(-6.94 -7.21)"/><path class="cls-26" d="M222.33,80.2a55.11,55.11,0,0,1-8.55,23.46c-.27.43-.66,1-1.29.73s-.6-.86-.6-1.41a43.19,43.19,0,0,1,1.9-11.73c1.33-4.78,2.72-9.55,4.21-14.28.45-1.42,1.13-3.45,2.63-3.43,1.82,0,.85,2.21,1.26,3.38A16.13,16.13,0,0,1,222.33,80.2Z" transform="translate(-6.94 -7.21)"/><path class="cls-27" d="M186.65,111.64a1.87,1.87,0,0,1-2,1c-6.49.39-13,.91-19.45-.46-.87-.18-2.26-.23-2.19-1.58s1.48-1.38,2.3-1.36A106.68,106.68,0,0,1,186.65,111.64Z" transform="translate(-6.94 -7.21)"/><path class="cls-28" d="M185.69,64.3c.1,2.22-.72,3.13-2.21,3s-2.87-.85-2.79-2.88c.06-1.54.51-2.93,2.14-2.79A3.13,3.13,0,0,1,185.69,64.3Z" transform="translate(-6.94 -7.21)"/><path class="cls-29" d="M154.49,63.34c-.24,1.53-.59,2.78-2.43,2.78A1.86,1.86,0,0,1,150,63.93c.06-1.56.52-2.83,2.52-2.8C154.14,61.15,154.3,62.27,154.49,63.34Z" transform="translate(-6.94 -7.21)"/></svg>