<svg id="Layer_1" data-name="Layer 1" xmlns="http://www.w3.org/2000/svg" viewBox="0 0 286.13 285.43"><defs><style>.cls-1{fill:#010101;}.cls-2{fill:#fefefe;}.cls-3{fill:#010401;}.cls-4{fill:#829f5e;}.cls-5{fill:#839f5e;}.cls-6{fill:#1d8767;}.cls-7{fill:#e87;}.cls-8{fill:#849e61;}.cls-9{fill:#839f5f;}.cls-10{fill:#1f8666;}.cls-11{fill:#208666;}.cls-12{fill:#1e8667;}.cls-13{fill:#1f8667;}.cls-14{fill:#248365;}.cls-15{fill:#c5c74c;}.cls-16{fill:#d8d543;}.cls-17{fill:#dbd941;}.cls-18{fill:#ded93a;}.cls-19{fill:#020402;}.cls-20{fill:#020502;}.cls-21{fill:#ded93d;}.cls-22{fill:#238564;}.cls-23{fill:#fcfcfc;}.cls-24{fill:#8ea55e;}.cls-25{fill:#238466;}.cls-26{fill:#020202;}</style></defs><title>13</title><path class="cls-1" d="M146.47,7.31c35.79,0,71.59-.1,107.38.09,7,0,14.12.32,20.81,3.15,11,4.64,19.53,17.29,18.28,30.85a139.16,139.16,0,0,0-.5,22c.15,2.26,0,4.53,0,6.8q0,79.44.06,158.86c0,6.76-.07,13.53.37,20.33.47,7.32.37,14.91-1.94,22.09-3,9.39-9.29,15.69-18.43,19.44-5.52,2.27-11.16,1.79-16.81,1.67-1.73,0-3.45,0-5.17,0l-144.34-.14c-15.45,0-30.9-.31-46.33.14-6.81.2-13.58,0-20.36-.2C24.2,292,12.73,285.08,7.6,268.55A21,21,0,0,1,7,261.26c.88-13.62.31-27.24.34-40.86q.15-82.29,0-164.58c0-8.15-.48-16.33,1.16-24.34C10.75,20.36,17.72,13.14,28.19,9c4.71-1.86,9.59-1.64,14.44-1.65q51.91-.08,103.84,0Z" transform="translate(-6.94 -7.28)"/><path class="cls-2" d="M145.37,11.62q52.6,0,105.2,0a104,104,0,0,1,16.83,1c12.83,2.15,21.5,14.22,21.34,25.85-.95,65.83-.34,131.67-.38,197.5,0,9,.07,17.94-.13,26.92-.3,14-12.66,25.63-26.48,25.57-56.14-.24-112.28-.1-168.42-.1-12.44,0-24.89-.26-37.33.08-7,.19-14-.2-20.91-.7C22.86,287,12.5,277.38,11.57,265.21c-.84-11-.21-22.12-.22-33.19q0-30.53,0-61,0-60.77,0-121.54a97.37,97.37,0,0,1,.95-16.55C14.57,20.11,26.53,11.59,38,11.65c35.78.22,71.57.08,107.36.08Z" transform="translate(-6.94 -7.28)"/><path class="cls-3" d="M196.87,54c4.23-.07,5.13,1.06,4.38,4.89C200.07,65,196.73,70.22,194.82,76a75.27,75.27,0,0,0-3.67,21c-.48,13-1.05,25.9-1.64,38.85-.08,1.79,0,2.94,2.3,3.14s3.15,2,3.06,4.3c-.22,6.11-2.58,10.79-9,13.13a10.57,10.57,0,0,0,1.92.68c6,.73,8.9,5.65,9.32,10.93.16,2-1.49,3-2.73,4.08-.7.59-1.11,1-1,1.87.28,3.34.49,6.69.8,10,.2,2.27,1.46,3.19,3.8,3.19,8.15,0,15.82,2.1,22.28,7.11,5.42,4.21,8.12,10.35,9.08,17a86,86,0,0,1-.89,27.07c-1.23,7.06-1.31,7.05-8.45,7.09-6.72,0-13.44.08-20.16.1-3.28,0-4.53-1.47-3.62-4.61,1.51-5.21,5.15-8.55,10-10.7a4.37,4.37,0,0,1,.54-.08c1.87-.47,5.15-.62,5.37-1.5.7-2.92,1-6.37-.36-9.09-2.37-4.87-5.44-9.36-10.06-12.57a16,16,0,0,0-8.87-2.89c-5.26-.13-10.52-.1-15.79.19-6.23.33-12.49.26-18.74.23-14-.07-28-.12-41.94.63-5.42.29-10.83,1.67-16.25,1-5.94-.78-10.56,1.59-15.1,4.84-4.7,3.36-6,8.07-5.83,13.49.06,2.81-.14,5.23,4.16,4.92,2.73-.19,5.41,1.4,7.72,3.32a9.93,9.93,0,0,1,3.74,9.82c-.23,1.07-1.11,1-1.62,1.08a30.44,30.44,0,0,1-5.36.73c-5,.22-10-.25-15,.6a16.45,16.45,0,0,1-6.48-.61c-2.48-.58-4.18-3-4.44-6.36a114.19,114.19,0,0,1,1.32-29.27c1.59-8.67,5.53-16.52,13.34-21.55,2.52-1.63,2.54-3.6,1.92-6a26.73,26.73,0,0,1-.75-6.43c-.16-13.52.69-27,1.29-40.51.56-12.37,1.15-24.79,3.08-37.07,2.11-13.41,7.65-25.09,17.8-34.35,4-3.69,9-5.43,14.12-7,10.16-3.21,20.67-3.08,31.14-3.42a121.33,121.33,0,0,1,21.69,1c8.8,1.32,15.47-2.61,22.54-6.21a28.78,28.78,0,0,1,5.4-2.43c2.24-.61,4,.57,4.05,2.88A11,11,0,0,1,196.87,54Z" transform="translate(-6.94 -7.28)"/><path class="cls-4" d="M212.43,231.4l1.62-.7a16.55,16.55,0,0,1,2-1.79,12.23,12.23,0,0,0,2.49-17.3,36.65,36.65,0,0,0-8-6.93,6.9,6.9,0,0,0-3.29-1.23c-3.78-.33-7.48-1.21-11.24-1.63l-20.67.08a40.12,40.12,0,0,0-8.6-.76c-8.62-.14-17.21-.85-25.81-1.3-6.34-.34-12.49-2.24-18.68-3.63a65.93,65.93,0,0,0-9.36-1.74,8.23,8.23,0,0,1-4.57-1.59A120.49,120.49,0,0,1,96.22,182,19.11,19.11,0,0,1,91.42,171c-.6-4.77-1.38-9.53-1.79-14.3-.62-7,.75-13.93,1.53-20.87a3,3,0,0,1,.82-2,42.62,42.62,0,0,1,8.66-.65c11.25-.23,22.5-.54,33.75-.62,9.24-.08,18.48-.51,27.71-1.07q11.81-.72,23.61-1.17c1.14,0,1.14.26,1.13,1,0,1.27,0,2.55,0,3.82,0,4.17,0,4.58-4,5-8.29.83-16.31,3-24.44,4.59-8.76-.36-13.39,5.16-17.08,12-.43.79-.69,1.67-1.07,2.49a13.68,13.68,0,0,0,10.21,19.55,31.23,31.23,0,0,0,9.74.32,16.42,16.42,0,0,1,4.85.38,15.12,15.12,0,0,0,4.89.2c-5.52-.71-10.07-4.34-15.59-5.09-.89-.12-2.06-.34-1.87-1.78,6.21,1.11,12.37,2.64,18.78,2.34a94.1,94.1,0,0,0,17.13-2.48c2.12-.5,2.81,0,2.85,2.12.05,3.17.31,6.33.5,9.5.22,3.85,1.14,4.36,5,4.53,8.23.35,16.25,2,22.69,7.49,4.07,3.46,6.14,8.48,7.16,13.7,1.26,6.45.7,13,.28,19.5-.24,3.68-1,7.33-1.27,11-.12,1.63-.7,2.09-2.25,2.32a60.34,60.34,0,0,1-11.4.3,17.62,17.62,0,0,1-2.11-6.64C209.47,234.44,211.13,232.9,212.43,231.4Z" transform="translate(-6.94 -7.28)"/><path class="cls-5" d="M177,113.46c2.52,2.49,5.44,3.45,8.91,2.34,1.52-.49,2.15,0,1.94,1.64s-.3,3.24-.52,4.85c-.27,2-1.8.76-2.75,1-.58-1.25-.48-2.65-.91-3.93-.31-.92-.81-1.65-1.89-1.61s-1.22.88-1.48,1.67c-.42,1.28-.19,2.71-1,3.88-6.34,0-12.68.16-19,.06-15.86-.27-31.71.17-47.55.74-6.4.22-12.78-.54-19.16.17-.75-.77-.44-1.68-.33-2.57C95,107.91,100.42,95.34,106,82.82a23.27,23.27,0,0,1,2.9-4.6c.49-.64,1.07-1.45,2-1,.75.33.68,1.24.55,2a14.87,14.87,0,0,0,.38,5.4c1.12,6,5.29,8.38,11,6.29,2.38-.43,4.8-.53,7.09-1.63,6.6-3.2,7.17-11.42,4.68-15.9-2.83-5.13-10.56-7-15.7-3.93-1.4.84-2.45,2.14-3.9,2.9-1.76-.35-1-1.38-.43-2.08,5-6.52,10-13.08,18.7-14.91a128.58,128.58,0,0,1,26.75-.14c4.21.39,8.42.26,12.64,1.09,2.6.51,5.28-.88,7.71-2.07,4-1.94,8-3.71,11.84-6,1.18-.7,2.82-1.93,3.93-.94,1.27,1.15-.05,2.86-.53,4.23-.71,2-2.29,3.46-3.39,5.21-.51.82-1.81,1.78-.71,2.78.86.77,1.84-.11,2.63-.75a5,5,0,0,1,.45-.29c1.2-.74,2.47-2.57,3.65-1.83,1.48.94.23,2.91-.22,4.2-1.44,4.16-3.18,8.22-4.85,12.31-3.45,8.41-4.29,17.3-4.78,26.24q-.33,5.84-.53,11.67c0,1-.31,1.36-1.35,1.58a12.86,12.86,0,0,1-4.27.5c-2-.22-3.17-1.26-3.15-3.34,0-2.9.31-5.81.31-8.68,0-10.29.47-20.73-5.67-29.89a13.91,13.91,0,0,0-7.64-5.75,5.88,5.88,0,0,0-1.3-.32c-1.09-.08-2.7-.16-2.87.87-.26,1.52,1.52,1,2.41,1.38a9.15,9.15,0,0,0,3,4.94c3.9,3.62,5.19,8.44,5.37,13.55a139.54,139.54,0,0,1-.92,21.72c0,.27-.06.54-.07.81C171.64,112.35,173.14,113.82,177,113.46Z" transform="translate(-6.94 -7.28)"/><path class="cls-6" d="M92,133.83c-.35,7.23-2.13,14.38-1.58,21.63A169.2,169.2,0,0,0,92.84,174c1,5.22,4.54,8.94,8.75,12a6.19,6.19,0,0,1,1.49,1.16c4.15,5.86,10.44,6.76,16.89,7.75,5.69.88,11.3,2.34,16.91,3.71,4.38,1.06,8.85.61,13.26,1,6.67.53,13.39.51,20.05,1.26,1.76.2,3.58.22,5.21,1.09-13.93.8-27.88.32-41.82.57a288.85,288.85,0,0,0-30.55,2,9.77,9.77,0,0,1-3.76-.17c-2.6-.71-5.19,0-7.78.39-1.19-.66-1.25-1.93-1.61-3a6.52,6.52,0,0,0-2-3.45c-1.48-1.11-2.84-1.09-4,.49a6.27,6.27,0,0,0-.84,1.4c-2.57,6.39-6.11,12.39-7.76,19.15a6.83,6.83,0,0,0-.41,1.86c.25,6.07-1.18,12.11-.43,18.19.14,1.1.33,2.21-.92,2.86-1.54,0-3.08.08-4.62.06-3.4,0-4.54-.88-4.6-4.26a176,176,0,0,1,.79-22.49,64.85,64.85,0,0,1,2.27-11.65,26.7,26.7,0,0,1,9.36-13.91,11.79,11.79,0,0,1,1.49-1.17c3-1.7,2.93-4.52,2.74-7.39a217.18,217.18,0,0,1,0-28.75c.34-5.23.25-10.51.17-15.76,0-2.28.5-3.35,3-3.12S89.36,133.8,92,133.83Z" transform="translate(-6.94 -7.28)"/><path class="cls-6" d="M123,91.3c-5.21,3.16-11.13-.62-11.93-6.74-.31-2.34-1-4.68-.36-7.19a119.37,119.37,0,0,0-17.13,46.91c-3.41.5-6.88-.21-10.29.58-1.61.37-1.13-1.11-1.08-1.83.32-5.15.7-10.3,1.11-15.44a84.51,84.51,0,0,1,3.19-18.94C91.28,73.5,99.65,61.76,116,57.51a58.31,58.31,0,0,1,17.37-2.25,7.81,7.81,0,0,1-1.8,1.15c-7.74,2.28-11.88,8.7-16.66,14.38-.37.43-.68.87-.16,1.4.47.89-.17,1.56-.46,2.27-2.35,5.8.12,13.31,6.55,15.36A3.06,3.06,0,0,1,123,91.3Z" transform="translate(-6.94 -7.28)"/><path class="cls-7" d="M168.78,172.48c-4.47.41-9.45-.73-14.38-1.8a12.76,12.76,0,0,1-8.75-7.11,3.6,3.6,0,0,1-.23-2.66c1.81-6,4.46-11.25,11.25-13a192.84,192.84,0,0,1,25.38-5.39c2.32-.29,4.56-1.14,6.87-1.44,2.86-.36,3.5.55,3.45,3.4-.13,6.67-4.68,9.9-12.59,11.53-5.56,1.14-11.33,1.21-17,1.75-.72.07-1.45,0-2.17.07-1,.1-2.25,0-2.11,1.48.12,1.16,1.24,1.19,2.15,1.12,6-.41,11.92-.77,17.86-1.33a30.73,30.73,0,0,1,11.27,1c3,.83,5.24,5.19,4.74,8.36-.14.9-.53,1.19-1.39,1.27C185.21,170.5,177.48,172.81,168.78,172.48Z" transform="translate(-6.94 -7.28)"/><path class="cls-8" d="M93.59,126.25c3.9,0,7.79,0,11.69-.09,11-.19,21.91-.46,32.87-.72,13.68-.34,27.35-.36,41-.36,1.07,1.09,1.48,2.29.61,3.69-10.39.4-20.79.68-31.17,1.2-12.66.64-25.33.76-38,1.19-6,.2-12.11-.06-18.12.8A4.44,4.44,0,0,1,93.59,126.25Z" transform="translate(-6.94 -7.28)"/><path class="cls-9" d="M73.48,242.13c.64-1.13,0-2.29.07-3.41.29-8.16-.7-16.5,2.4-24.34,2-5.11,4.4-10.07,6.66-15.07.67-1.47,1.26-3.18,3.42-2.86A5.1,5.1,0,0,1,90.14,200c.58,1.51.91,3.11,1.35,4.68a64.85,64.85,0,0,0-6.29,3.67c-7.28,4.62-8.64,11.55-7.8,19.39.07.63.32,1.24.33,1.86,0,1.66.24,2.31,2.37,1.89,4.18-.82,9.6.65,10.75,7.24.15.89.28,1.78.44,2.79C85.37,242.51,79.4,241.65,73.48,242.13Z" transform="translate(-6.94 -7.28)"/><path class="cls-10" d="M152.46,172.84c1.51,2,4,1,6,2.12,2.2,1.24,4.92,1.22,7,3.13,1.22,1.11,3.53,0,5.25.82.54.25,1.39.13,1.18,1.08-.16.7-.84.55-1.35.6a3.62,3.62,0,0,1-1.09,0c-6.31-1.15-12.74-.06-19.07-1-7.53-1.14-16.25-10.82-11.15-20.2,2.38-4.37,4.41-8.8,8.46-12,3.21-2.49,6.53-4.17,10.7-2.65-7.71,1.6-12.45,6.32-14.68,13.78a9.64,9.64,0,0,0,3.53,11C148.9,170.73,150.71,171.73,152.46,172.84Z" transform="translate(-6.94 -7.28)"/><path class="cls-11" d="M177,113.46c-2,1.88-3.58,1.66-5-.58a7.47,7.47,0,0,1-.91-5.24A127.17,127.17,0,0,0,172,85.75c-.2-5.66-1.71-10.84-6.75-14.35a2.85,2.85,0,0,1-.85-4.07c5.34,1,7.89,5,9.41,9.48a60.21,60.21,0,0,1,2.8,25.07C176.27,105.71,175.83,109.64,177,113.46Z" transform="translate(-6.94 -7.28)"/><path class="cls-12" d="M196.07,201.82c1.41-1.11,2.77.16,4.18.08,8-.44,14.27,3.24,18.87,9.34,4,5.35,4.71,16-5.07,19.46.27-3.67,1.43-7.5.3-11-2.72-8.39-8.26-14.38-16.77-17.33C197.07,202.2,196.57,202,196.07,201.82Z" transform="translate(-6.94 -7.28)"/><path class="cls-13" d="M212.43,231.4c-3,3.8-1,7.82-.51,11.78l-11.65.07c-1.48,0-2.3-.46-1.68-2.13C200.59,235.8,206.59,231.57,212.43,231.4Z" transform="translate(-6.94 -7.28)"/><path class="cls-14" d="M93.59,126.25A16.35,16.35,0,0,0,92.51,132c-3,.07-6,.12-8.92.23-1.25.05-2.23-.17-2-1.71s-.85-3.78,1.77-3.74C86.81,126.79,90.16,125.79,93.59,126.25Z" transform="translate(-6.94 -7.28)"/><path class="cls-15" d="M179.79,128.77c-.2-1.23-.41-2.46-.61-3.69,2.31-1.16,4.75-.5,7.14-.51,1.12,0,1,.9.93,1.57s.35,1.81-1.06,2.1A18.45,18.45,0,0,1,179.79,128.77Z" transform="translate(-6.94 -7.28)"/><path class="cls-16" d="M179.3,123.31c-.38-1.63.23-3.18.4-4.77a1.67,1.67,0,0,1,1.69-1.71c1-.07,2.15.11,2.54,1.1.66,1.7,1.43,3.46.66,5.37Z" transform="translate(-6.94 -7.28)"/><path class="cls-17" d="M220.33,208.69a41.42,41.42,0,0,0-6.67-8.12,25.66,25.66,0,0,0-12.82-7.06c-.88-.18-2.32-.12-2.33-1.41s1.48-1,2.31-1.33c1.63-.73,3.25-.24,4.77.26,7.09,2.29,12.17,6.76,14.69,13.93A6.32,6.32,0,0,1,220.33,208.69Z" transform="translate(-6.94 -7.28)"/><path class="cls-18" d="M183.05,179.89c.1-1.85-.81-4.67,1.85-4.9,2.5-.22,2.82,2.55,3.25,4.55a9.39,9.39,0,0,1-.79,7.06c-.39.66-.55,1.68-1.62,1.52a2,2,0,0,1-1.6-1.64C183.6,184.32,182.4,182.27,183.05,179.89Z" transform="translate(-6.94 -7.28)"/><path class="cls-19" d="M123,91.3c-7.58-2.53-10.59-6.34-10.32-13a13,13,0,0,1,2.06-6.1c5.08-7.49,18-6.39,21.28,2,3.12,7.93-2.36,16.76-10.85,17Z" transform="translate(-6.94 -7.28)"/><path class="cls-20" d="M152,69.07c3.66-.43,7.2-.31,10.25,2.14,3.92,3.17,4.72,7.48,3.62,12A10.5,10.5,0,0,1,157,91.34c-1,.18-2,.31-2.93.46-5,.7-9.5-3.63-10.82-7.82a12.12,12.12,0,0,1,4.32-13.57A8.21,8.21,0,0,1,152,69.07Z" transform="translate(-6.94 -7.28)"/><path class="cls-21" d="M184.27,100.77a2.48,2.48,0,0,1-.7-2.47c.32-4.78.3-9.58,1.34-14.29a12.81,12.81,0,0,0,.22-3c-.12-7.43.75-14.81,1.13-22.22,0-.73.05-1.63,1-1.7,1.13-.1,1.18.88,1.22,1.71.16,2.85.31,5.7.49,9.21,1.21-2.23,2.07-4,3.07-5.58.4-.67,1-1.51,2-1s.26,1.27,0,1.92c-3,9.09-5.26,18.38-7.37,27.7-.58,2.55-1,5.13-1.44,7.71A3.14,3.14,0,0,1,184.27,100.77Z" transform="translate(-6.94 -7.28)"/><path class="cls-22" d="M152,69.07c-5.23,1.61-8.29,5.22-8.61,10.59A10.84,10.84,0,0,0,150,90.53a28,28,0,0,0,4.11,1.27c-7,2.37-13.89-3.15-14.17-11.28A10.94,10.94,0,0,1,152,69.07Z" transform="translate(-6.94 -7.28)"/><path class="cls-23" d="M118.05,78.14c1.24-.14,2.29-.2,2.37,2s2,3.44,4.34,3.58c2.81.17,4.26-1.43,4.71-3.84.34-1.84,1.19-2.28,2.89-2.62s1.88.62,1.9,1.69c.08,4.52-3.86,8.83-8.5,9.4A10.06,10.06,0,0,1,115.4,81C114.8,78.32,115,78.15,118.05,78.14Z" transform="translate(-6.94 -7.28)"/><path class="cls-24" d="M122.53,69.47c4.17-1.32,7,1,9.59,3.67,1.18,1.22.86,2.14-.85,2.23-2.59.13-5.13.91-7.75.56A11.4,11.4,0,0,1,122.53,69.47Z" transform="translate(-6.94 -7.28)"/><path class="cls-25" d="M122.53,69.47a12.91,12.91,0,0,1,1,6.46c-2.54,1.24-5.33,0-8.25,1.15C116.45,72.9,118.66,70.4,122.53,69.47Z" transform="translate(-6.94 -7.28)"/><path class="cls-23" d="M155.05,88.7a8.9,8.9,0,0,1-9-8.57,9.21,9.21,0,0,1,8.9-9.07c4.36,0,8.72,4.46,8.75,9A8.73,8.73,0,0,1,155.05,88.7Z" transform="translate(-6.94 -7.28)"/><path class="cls-26" d="M154.24,84.23c-2.74-.14-4.42-1.87-4.35-4.49s2.72-4.7,5.69-4.58a4.23,4.23,0,0,1,4.06,4.19A5.27,5.27,0,0,1,154.24,84.23Z" transform="translate(-6.94 -7.28)"/></svg>