<svg id="Layer_1" data-name="Layer 1" xmlns="http://www.w3.org/2000/svg" viewBox="0 0 286.04 285.48"><defs><style>.cls-1{fill:#010101;}.cls-2{fill:#fefefe;}.cls-3{fill:#010202;}.cls-4{fill:#75cbdc;}.cls-5{fill:#4299a9;}.cls-6{fill:#4298a9;}.cls-7{fill:#4498a8;}.cls-8{fill:#76c9d8;}.cls-9{fill:#75cada;}.cls-10{fill:#dfda39;}.cls-11{fill:#deda3a;}.cls-12{fill:#030303;}.cls-13{fill:#ee8777;}.cls-14{fill:#fdfdfd;}</style></defs><title>2</title><path class="cls-1" d="M146.44,7.28c35.8,0,71.59-.08,107.38.08,5.84,0,11.79.23,17.47,2,9.64,3,16.13,9.32,19.85,18.69,1.9,4.8,1.77,9.66,1.6,14.66-.31,9.33-.36,18.67-.37,28q0,79,.05,158c0,6.85-.09,13.7.37,20.59.48,7.23.35,14.72-1.87,21.84-3,9.52-9.28,15.89-18.51,19.69-5.52,2.28-11.17,1.75-16.82,1.68-1.62,0-3.25,0-4.88,0q-87.57-.06-175.14-.14c-8.07,0-16.14.33-24.2.34-6.86,0-13.82.13-20.57-1.44-10.57-2.47-17.78-8.9-21.87-19a29.35,29.35,0,0,1-1.77-14.12c.16-1.71.19-3.44.19-5.17q0-59.81,0-119.61c0-24.7.06-49.41-.05-74.11,0-6.52-.19-13,0-19.56.41-12.11,4.85-22,15.64-28.4,6.1-3.64,12.76-4.11,19.63-4.1q51.92.11,103.83,0Z" transform="translate(-6.98 -7.26)"/><path class="cls-2" d="M145.36,11.6q52.86,0,105.74,0a92.57,92.57,0,0,1,16.55,1.08c13.16,2.43,21.19,14.7,21,25.56-.91,65.55-.33,131.11-.37,196.67,0,9.34.13,18.66-.12,28-.38,14.39-13,25.6-26.23,25.55-57.14-.2-114.28-.09-171.41-.1-11.81,0-23.63-.19-35.43.07-7.73.17-15.46.12-23-1.17a25,25,0,0,1-20.39-20.81c-.75-4.69-.36-9.57-.37-14.36q0-102,0-204.09a84.87,84.87,0,0,1,.91-15.19C14.62,20,26.63,11.55,38,11.62c35.79.22,71.58.08,107.37.08Z" transform="translate(-6.98 -7.26)"/><path class="cls-3" d="M180.21,68.77c3.8.22,7.49.16,11.17.52,4.9.47,7.22,2.62,7.41,7.64a75.71,75.71,0,0,1-2.24,19.51c-1.25,5.67-1.39,11.44-2.07,17.17-.77,6.56-3.17,9.36-9.53,11.37-1.56.49-3.81-.25-4.58,1.3-.65,1.31,0,3.23-.19,4.83-.4,2.63.48,3.35,3.13,3.2a66.41,66.41,0,0,0,28-8c3.15-1.71,6.18-3.62,9.18-5.61a4.27,4.27,0,0,0,2.26-4.42c-.7-7.1,4.3-11.46,11.28-11,3.6.25,5.08,2.66,6.18,5.52s1.12,5.92-1.3,7.95c-3.43,2.88-7.53,4.41-12.19,3.51-.35-.06-.85,0-1-.27-2.12-2.92-3.76-.85-5.61.4-7.74,5.25-16,9.41-25.16,11.49a45.47,45.47,0,0,1-12.84,1.45c-1.45-.09-2.09.29-2.17,1.82-.19,3.61-.49,7.22-.82,10.83a1.91,1.91,0,0,0,1.67,2.3c1.64.42,3.23,1,4.86,1.42,10.61,2.89,19.59,8.47,25.76,17.56,7.49,11.05,7.59,23.06,1,34.38-7.8,13.31-18.9,23.29-33.63,28.84-3.5,1.33-7,2.6-10.6,3.66-.86.26-.95.62-.92,1.29.33,6.69-.66,13.4.41,20.09.25,1.54.54,1.77,2,1.33,5.66-1.7,11.18-1,16.52,1.38a8,8,0,0,1,2.48,1.58c1.57,1.59,1.21,3.48-.87,4.28a19.13,19.13,0,0,1-12.69.4c-2.35-.71-4.73-1.21-6.82-2.87-3.29-2.6-2.88-6.21-3.19-9.54-.44-4.61.12-9.24.39-13.85.13-2.11,0-3.34-3-2.5-10.65,3.05-21.6,3.75-32.64,3.36-.27,0-.54,0-.81,0-4.63-.52-5.06-.54-5.22,4-.16,4.91-1.62,9.81-.37,14.77.3,1.19-.79,1.63-1.57,1.86-5.81,1.71-11.34,4.44-17.48,5-2,.18-4.09.32-5.14-2a5.54,5.54,0,0,1,1.71-6.33c4.22-3.05,8.86-2.85,13.6-1.63,2.23.57,4.43,1.27,6.76,1.94,0-6-.18-11.94.87-17.76.25-1.35-.81-.83-1.36-.89-8.23-.87-15.6-4.06-22.53-8.37A39.89,39.89,0,0,1,83,214.5a25.65,25.65,0,0,1-1.81-13.78c1.51-13.58,9.5-23.32,19.27-31.93a30.52,30.52,0,0,1,7.65-5.49,1.16,1.16,0,0,0,.77-1.25c-.07-7.24-.33-14.47-1.11-21.67-.11-1-.49-1.16-1.34-1.22-13.47-1-24.8-7-34.95-15.35-2.15-1.77-3.7-2.48-6.29-1.7a9.66,9.66,0,0,1-6.11-.68c-3.11-1.17-4.26-3.73-3.68-7.64s4.44-7.37,8-7.41a7.88,7.88,0,0,1,7.69,7.24c.19,1.92.46,3.93-.59,5.84-.82,1.5.48,2.4,1.37,3.3,4.61,4.7,10.56,7.22,16.31,10.08A47,47,0,0,0,105,138.06c1.88.16,3.18,0,2.75-2.44-.74-4.12-.56-8.3-.63-12.46a3.24,3.24,0,0,0-2.65-3.52c-6.74-2.11-7.52-3.43-7.65-10.43-.16-8.42.84-16.78,1.13-25.18.12-3.45,2.79-4.69,7.06-6.4a4.21,4.21,0,0,1,.81-.07c4-.78,3.76-.94,3.26-5.23-.53-4.55-1-9.16-1.14-13.73-.14-3.67,3.35-4.66,6.07-5.49,7.67-2.37,15.64-3.45,23.5-5,11-2.18,21.85-1.41,32.64,1.15,6.12,1.44,11.1,3.08,10.64,13.18C180.69,64.49,181.13,66.59,180.21,68.77Z" transform="translate(-6.98 -7.26)"/><path class="cls-4" d="M90.24,182.75c4.2-7.23,10.83-12,17.6-16.35,2.07-1.32,2.33-2.56,2.72-4.33,2.28.49,4.65.65,6.88,1.25,5.19,1.39,10-.17,15.18-1.28-1.55-1-3.08-1.32-4.42-2-3.77-2-6.17-4.73-6-9.42.25-8.69.29-17.38-1.42-26-.3-1.47-.5-3.08.6-4.43,3.74-1.87,5.35-4.81,5.56-9.05a59.8,59.8,0,0,1,2.39-13.73A40.66,40.66,0,0,0,130.6,84c-.21-4-2.79-6.62-7.21-7.49a4,4,0,0,1-2-.57c-1.25-1.82-1-4-1.17-6-.38-4.66-1.09-9.27-1.82-13.89a3.9,3.9,0,0,1,.17-2.63c5.82-1.87,11.94-2.3,17.87-3.66,7.13-1.63,14.36-1.4,21.57-1a57.53,57.53,0,0,1,16.27,3.57,6.87,6.87,0,0,1,4.37,5.17c.69,2.95.45,5.94.51,8.92,0,2.56-1.91,2.88-3.86,3a34,34,0,0,0-8.35,1.89c-3.8,1.25-6.17,3.89-7.49,7.83-1.51,4.54-1.45,9.22-2,13.83-.58,4.9-1.28,9.83-.62,14.79.59,4.37,1.52,8.61,4,12.39a7.58,7.58,0,0,0,4.71,3.22c3.79.93,7.58,1.87,11.41,2.59,1.25.24,1.25.58,1.23,1.7-.17,8.69-1.15,17.36-.66,26.06a3.39,3.39,0,0,0,.55,2.51c1-1.61.22-3.21.68-4.63,11.76,2.35,22.36,7.05,29.75,16.84a31.55,31.55,0,0,1,6.1,16.2c.92,10.17-2.47,18.62-9.42,26.06-5.39,5.77-10.52,11.71-17.78,15.22-3.29,1.73-6.89,2.13-10.5,2.55-7.74.88-15.44,2.47-23.27,1.93-6.15-.43-12.36-.17-18.43-1.25-9.74-1.74-18.56-5.59-25.66-12.72-2.88-2.88-5.81-5.7-8.43-8.86-5.29-6.39-7.12-14.4-10.62-21.63A3.62,3.62,0,0,1,90.24,182.75Z" transform="translate(-6.98 -7.26)"/><path class="cls-2" d="M182.13,70.48a35.63,35.63,0,0,1,11,1.08c2.62.7,4,2.25,4,5.12.07,6.19-1.28,12.18-2.29,18.21-.93,5.61-1.56,11.24-2,16.9-.16,2.35-.31,4.63-1.58,6.74-2.25,3.73-6.21,4.47-9.85,5.26-5.63,1.23-11.14-.52-16.52-2.06-3.49-1-4.67-4.18-5.4-7.35-2.16-9.33-1-18.65.43-27.94.21-1.4-.11-2.77.49-4.22,3.23-7.76,8.93-11.55,18.09-11.74C179.94,70.46,181.31,70.48,182.13,70.48Z" transform="translate(-6.98 -7.26)"/><path class="cls-5" d="M90.24,182.75c3.34,8.08,5.59,16.66,11.08,23.74,8.65,11.16,19.28,19.29,33.52,21.89a35,35,0,0,0,5.65.57c7.16.09,14.33,1.4,21.45.57,8.51-1,17.07-1.72,25.45-3.64a54.86,54.86,0,0,1-13.18,6.68A97.51,97.51,0,0,1,156,238c-7.82,1.32-15.57,2.3-23.61,1.68-7.15-.56-14.22-1.31-21-3.53C98.8,232,89.3,224,84.06,211.61c-2-4.65-1.6-9.72-.65-14.7A30.76,30.76,0,0,1,90.24,182.75Z" transform="translate(-6.98 -7.26)"/><path class="cls-2" d="M115.94,78.12c3.81-.05,7.06.09,10.21,1.56,2.15,1,2.83,2.47,2.85,4.68A49.23,49.23,0,0,1,127.45,98c-1.36,4.94-1.61,10.11-2.27,15.18-.45,3.42-2.21,5-5.5,5.88-6.21,1.58-11.85-.52-17.55-2.29-1.46-.46-2.11-1.65-2.64-3.13-1.86-5.19-.81-10.41-.27-15.58a108.22,108.22,0,0,0,.23-13.59c0-2,.6-3.11,2.25-3.61C106.5,79.42,111.24,77.57,115.94,78.12Z" transform="translate(-6.98 -7.26)"/><path class="cls-5" d="M121.34,120.18a255.7,255.7,0,0,1,1.75,32.74c-.08,3.32,2.8,5.11,5.53,6.45,1.93.94,4,1.61,6.67,2.67-6.4,1.7-12.08,3.73-18.21,1.93-2.17-.63-4.85.46-6.52-1.9-.22-7.14-.51-14.28-.63-21.43-.09-5.79-.8-11.53-1.09-17.3-.17-3.42.07-3.65,3.2-2.64S118.24,120.24,121.34,120.18Z" transform="translate(-6.98 -7.26)"/><path class="cls-6" d="M118.52,53.42a112.38,112.38,0,0,1,2.82,22.52c-3,.32-6.11-.35-9.13.48-.9.25-1.9.2-1.75-1.23s-.55-2.88-.48-4.28c.16-3.72-.43-7.39-.71-11.07a4.08,4.08,0,0,1,3-4.69A41.61,41.61,0,0,1,118.52,53.42Z" transform="translate(-6.98 -7.26)"/><path class="cls-4" d="M229.17,121.19c-3.57,0-4.2-.45-5.08-4.1a8.28,8.28,0,0,1,2.14-8.22,9,9,0,0,1,9-2.23c2.62.79,3.92,3.42,4.33,6.07.38,2.4-.18,4.61-2.6,6S232.08,121.33,229.17,121.19Z" transform="translate(-6.98 -7.26)"/><path class="cls-4" d="M63.81,120.76c-.85,0-1.93,0-3-.15a4.91,4.91,0,0,1-4.35-4.9c0-4.06,3.13-7.87,6.66-8.16,3.35-.28,6,2.28,6.92,6.57C71,118.62,69.13,120.63,63.81,120.76Z" transform="translate(-6.98 -7.26)"/><path class="cls-7" d="M120.23,259.74c1,.65.41.82-.3,1.1a64.76,64.76,0,0,1-16.78,4.7c-2.12.24-3.54-1.52-3-3.72a4.25,4.25,0,0,1,2.65-3.18c1.8,2,3.79,2.19,6.47,1.65A46,46,0,0,1,120.23,259.74Z" transform="translate(-6.98 -7.26)"/><path class="cls-7" d="M183,265.73a17.47,17.47,0,0,1-14.2-3.61c-1.28-1-1.08-1.69.54-2s3.29-.66,4.93-1a40.29,40.29,0,0,1,7.73,5C182.45,264.55,183.38,264.73,183,265.73Z" transform="translate(-6.98 -7.26)"/><path class="cls-8" d="M120.23,259.74a26.68,26.68,0,0,1-7.12.95,16,16,0,0,0-4.81.45c-3.65,1.17-3.8,1-5.49-2.5,3.55-1.92,7.31-1.52,11-.83A58.74,58.74,0,0,1,120.23,259.74Z" transform="translate(-6.98 -7.26)"/><path class="cls-9" d="M183,265.73c-2.73-1.84-5-4.44-8.28-5.37-.68-.2-.82-.62-.45-1.22,4-.38,7.66.68,11.26,2.16,1.25.52,2.9,1.31,2.7,2.65s-2,1.43-3.33,1.65A17,17,0,0,1,183,265.73Z" transform="translate(-6.98 -7.26)"/><path d="M158.77,165.87a65.19,65.19,0,0,1,22.65,3.3c4.63,1.6,9.15,3.54,10.44,9.1a13.89,13.89,0,0,1,0,6.69c-2.75,10.75-8.85,19.1-17.9,25.5a73.36,73.36,0,0,1-26.59,11.91c-5.79,1.29-11.54.26-17.3-.07-5.17-.3-9.67-2.33-13.93-5.2-7-4.74-8.56-10.32-5.85-18.67a43,43,0,0,1,22.76-26.17A58.06,58.06,0,0,1,158.77,165.87Z" transform="translate(-6.98 -7.26)"/><path class="cls-10" d="M161.32,52c3.42-.72,6.88.68,10.41,1.19a4.59,4.59,0,0,1,3.83,3.88,23.35,23.35,0,0,1,.81,4.76c0,.73.51,1.8-.6,2.09a2.52,2.52,0,0,1-2.53-.52c-1.12-1.12-2.35-2.16-3.38-3.37a16.49,16.49,0,0,0-12.61-5.91L154.8,54c-.55,0-1.1,0-1.15-.83s.44-1.16,1.16-1.17C156.9,52,159,52,161.32,52Z" transform="translate(-6.98 -7.26)"/><path class="cls-11" d="M203.71,173.75c0,.76,0,1.39,0,2s0,1.51-1,1.6c-.81.07-1.65.15-2.12-.72a19.18,19.18,0,0,1-1.31-2.6c-2-5.54-5.81-9.52-10.76-12.55a3.43,3.43,0,0,0-1.45-.58c-.95-.08-2-.14-1.87-1.38s1.41-.83,2.21-.87c5.22-.28,8.58,3.13,12.06,6.23C202.1,167.27,204.09,170,203.71,173.75Z" transform="translate(-6.98 -7.26)"/><path class="cls-1" d="M171.11,104.21c.56-4.56-.14-9.14.23-13.72.2-2.56,1.31-3.83,4-3.23.88.2,1.82.11,2.71.27,1.76.32,3,1,2.77,3.22a24.15,24.15,0,0,0,.29,5.36c.2,1.62-.15,2.47-2,2.18a4.41,4.41,0,0,0-1.62,0c-.67.15-1.52.19-1.64,1.13-.1.75.42,1.12,1,1.5,1.24.86,3.09,1.36,3.37,2.94.4,2.19-.4,4.44-.21,6.72.09,1.11-1.34,1.36-2.31,1.47-4,.47-6.71-2.12-6.61-6.2C171.12,105.3,171.11,104.76,171.11,104.21Z" transform="translate(-6.98 -7.26)"/><path class="cls-12" d="M108.73,99c0-1.81,0-3.62,0-5.43.05-2.12,1-3.43,3.31-3.36,2,.06,4.34-.74,4.74,2.66s.32,3.91-3.28,4.42c-.65.1-1.33.13-1.56.83s.45,1.11,1,1.45a7.74,7.74,0,0,0,2.09,1.21c2.93.84,2.51,2.94,1.74,4.91-.57,1.47-1.43,3.13-3.55,2.59-3.91-1-4.39-.69-4.45-4.11C108.7,102.46,108.73,100.74,108.73,99Z" transform="translate(-6.98 -7.26)"/><path class="cls-13" d="M143.85,210.66c-1.61-2.31-4.31-2.6-6.34-3.95-.61-.4-1.94-.08-1.78-1.21.14-1,1.24-1.19,2.1-1.46,4.81-1.55,9-.22,12.86,2.75a23.27,23.27,0,0,1,6.08,6c1.36,2.18.77,3.35-.92,4.71-3.46,2.78-7.68,2.92-11.78,3.4-1.69.19-3.42.26-5.13.37-8.36.56-16-1.82-23.2-6-2-1.19-1.66-2.68-.3-3.92a17,17,0,0,1,9.77-4.66c6-.64,11.36,1.26,16.61,3.76a13.38,13.38,0,0,0,1.49.56S143.45,211,143.85,210.66Z" transform="translate(-6.98 -7.26)"/><path class="cls-14" d="M153.22,188.51c-4.3,2-8.84,2.18-13.43,1.68-1.66-.18-1.75-1.68-1.71-2.95q.19-7.73.53-15.43c0-.9.62-1.39,1.54-1.6,4.59-1.05,9.17-2.17,13.77-3.2,1-.23,2.23-.08,2.28,1.23.22,5.49,1.72,10.92.84,16.45-.34,2.14-1.27,3.89-3.87,3.87-.25-.27-.54-.59-.9-.56a15.21,15.21,0,0,1-10-2.66c-1.06-.7-1.49,0-1.45,1,.07,1.78,1.24,2.34,2.77,2.2a54.94,54.94,0,0,1,7-.47A4.5,4.5,0,0,1,153.22,188.51Z" transform="translate(-6.98 -7.26)"/><path class="cls-2" d="M175.46,178.27a26.19,26.19,0,0,1-.48,5.64c-1.15,4.5-1.12,4.55-5.57,5.24l-.54.08c-7.45.81-8.58-.13-8.82-7.48-.15-4.23-1.13-8.42-.15-12.69.29-1.25.56-1.7,1.82-1.57,3.76.37,7.52.66,11.28,1,.59.05,1.43,0,1.33.94C174,172.73,176.17,175.73,175.46,178.27Z" transform="translate(-6.98 -7.26)"/><path d="M153.22,188.51l-10.41.79c-1.17.09-2.46-.27-2.74-1.29a6.27,6.27,0,0,1,.28-3.65c.34-.9,1.17-.64,1.93,0a10.6,10.6,0,0,0,9.12,2.73c1.17-.18,1.86.1,1.77,1.42Z" transform="translate(-6.98 -7.26)"/><path class="cls-12" d="M166.88,187.12a26.16,26.16,0,0,1-3.46-.39c-1.68-.11-1.81-1-1.87-2.27,0-.62-.11-1.31.53-1.63s1.19.07,1.71.46a8.59,8.59,0,0,0,5,1.61c.73,0,1.77-.26,1.7,1-.06,1-.88,1.14-1.69,1.17Z" transform="translate(-6.98 -7.26)"/></svg>