<svg id="Layer_1" data-name="Layer 1" xmlns="http://www.w3.org/2000/svg" viewBox="0 0 286.06 285.42"><defs><style>.cls-1{fill:#010101;}.cls-2{fill:#fefefe;}.cls-3{fill:#010302;}.cls-4{fill:#839f5e;}.cls-5{fill:#1d8767;}.cls-6{fill:#1d8768;}.cls-7{fill:#ded839;}.cls-8{fill:#fcfcfc;}.cls-9{fill:#869e60;}.cls-10{fill:#208566;}.cls-11{fill:#869e63;}.cls-12{fill:#869e61;}.cls-13{fill:#fdfcfc;}.cls-14{fill:#f9f9f9;}.cls-15{fill:#327e62;}.cls-16{fill:#839d61;}.cls-17{fill:#238465;}.cls-18{fill:#809965;}.cls-19{fill:#fbfafa;}.cls-20{fill:#819e61;}.cls-21{fill:#fbfbfb;}.cls-22{fill:#879f60;}.cls-23{fill:#ddd73b;}.cls-24{fill:#819e62;}.cls-25{fill:#238464;}.cls-26{fill:#408563;}.cls-27{fill:#227f63;}.cls-28{fill:#257f64;}.cls-29{fill:#7f9360;}.cls-30{fill:#849868;}.cls-31{fill:#859a67;}.cls-32{fill:#849964;}.cls-33{fill:#829865;}.cls-34{fill:#7a8d5d;}.cls-35{fill:#839766;}.cls-36{fill:#9da45c;}.cls-37{fill:#809464;}.cls-38{fill:#d6d24d;}.cls-39{fill:#dbd83c;}.cls-40{fill:#040404;}.cls-41{fill:#e9e9e9;}</style></defs><title>17</title><path class="cls-1" d="M146.44,7.31c35.79,0,71.58-.08,107.38.08,5.84,0,11.78.23,17.47,2,9.64,3,16.12,9.33,19.85,18.69,1.92,4.79,1.77,9.66,1.62,14.65-.27,9-.45,17.94-.44,26.92.08,52.86,0,105.73.11,158.59,0,7-.11,14.07.37,21.14.49,7.23.36,14.72-1.86,21.83-3,9.53-9.28,15.9-18.5,19.71-5.52,2.27-11.17,1.77-16.82,1.68-1.72,0-3.44,0-5.16,0q-61.82-.07-123.63-.14c-22.26,0-44.52-.24-66.77.14-6.89.11-13.76-.05-20.63-.19-9.19-.19-17.55-2.73-24-9.72A30.32,30.32,0,0,1,7.1,258.54c.71-8.51.23-17.06.25-25.6q.06-51.49,0-103c0-24.62.13-49.23-.07-73.84A179.6,179.6,0,0,1,7.89,35c1.33-12.21,7.89-20.5,19-25.46,5-2.22,10.2-2.16,15.44-2.17H146.44Z" transform="translate(-6.97 -7.29)"/><path class="cls-2" d="M11.31,150.13q0-46.87,0-93.74c0-7.09.28-14.16.64-21.23C12.53,23,24.08,11.84,36.22,11.8q73.31-.24,146.62-.25,34.2,0,68.4.12a104.06,104.06,0,0,1,16.28,1.09c12.66,2.09,21.34,14,21.18,25.67-.93,65.74-.32,131.48-.37,197.23,0,9.15.12,18.3-.14,27.46-.41,14.42-13.09,25.46-26.07,25.41-47.78-.21-95.56-.09-143.34-.1-21.08,0-42.16-.14-63.23.07-7.91.08-15.82.14-23.57-1.19A25.07,25.07,0,0,1,11.69,266.4c-.75-5.06-.34-10.3-.35-15.46q0-50.4,0-100.81Z" transform="translate(-6.97 -7.29)"/><path class="cls-3" d="M98.56,86.18c-15.4-2.44-30.5-.49-45.49,3.06a38,38,0,0,1-7.51,1c-2.39.08-3.19-.87-2.62-3.18a9.22,9.22,0,0,1,4.73-6,42.9,42.9,0,0,1,15.72-4.53c12.34-1.43,25.13.79,35.4,4.16.86-2.28,0-3.19-2.31-3.91C85,73.19,73.42,70,61.18,70.61c-4.62.25-9.24.77-13.88.43a16.58,16.58,0,0,1-4-.68c-2.67-.9-3.07-3.2-.82-4.92a25.27,25.27,0,0,1,11.07-4.75c14.27-2.54,27.74.79,41,5.55.85.3,1.69.63,2.54.91s1.72.48,2.78.78c-.28-1.83.86-2.34,2.33-2.73,7.34-2,14.78-1.41,22.13-.55,3.62.42,3.51,4.34,4.6,7a3.49,3.49,0,0,1,.09,1.08c.29,4.85.3,5.11,5.07,4.83,9.85-.58,19.73-.29,29.56-1.45,5.58-.66,11.24-.27,16.87-.48,9.43-.35,18.82-1.49,28.27-1.33a28.53,28.53,0,0,1,5.64.7c3.09.67,5.58,2.17,6.09,5.67.69,4.81-.75,8.59-4.09,10.38-1.81,1-3.71,2-5.85,1.86-1.51-.08-1.82.69-1.92,1.91-.18,2.07-.48,4.13-.64,6.21-.2,2.49-1.34,4-3.93,4.39a27.69,27.69,0,0,1-5.14.47c-3.82-.22-5.45-2-5.08-5.78.22-2.23.53-4.46.81-6.87-2.63.12-5.11.31-7.61.65-1.27.17-1.36.6-1.37,1.68,0,2.35-.21,4.7-.35,7-.12,2.09-1.4,3.24-3.23,3.94-2.66,1-5.36.69-8,.14a2.76,2.76,0,0,1-2.27-3.23c.17-2,.36-4,.67-5.94.25-1.54-.12-2.12-1.8-1.84-3.65.61-7.33,1.08-11.09,1.61a13,13,0,0,1,.72,7.47,3.17,3.17,0,0,1-2.31,2.9,12.84,12.84,0,0,1-9.5-.51c-1.69-.81-1.75-2.59-1.23-4.31.66-2.2.08-2.56-2.14-1.87-7.12,2.19-10.07,7.67-11.77,14.24a19.33,19.33,0,0,0-.5,3.48c-.3,4.3.54,5.3,4.76,5.79,5.56.64,5.56.64,6-5.14.28-3.34,1.4-4.51,4.66-4.06,2.34.33,4.68.21,7,.48s3.3,1.64,3,3.93a16.32,16.32,0,0,1-.58,3.74c-.83,2.18.15,2.51,2,2.63,6.74.42,6.74.46,6.79-6.32,0-3.43,1.36-4.64,4.82-4.61a27.52,27.52,0,0,1,6.64,1.31,3,3,0,0,1,2.25,3.07,34.16,34.16,0,0,1,0,5.16c-.29,1.9.49,2.16,2,2,.9-.08,1.82,0,2.73,0,1.59,0,3.53,1.3,4.64.14.86-.89.57-2.89.78-4.4.07-.54.07-1.08.13-1.63.36-3.53,1.07-4.28,4.64-4,9.53.73,8.69,1.23,8.47,8.76-.08,2.8.84,4,3.22,5.1,3.35,1.57,6.58,3.52,7.13,7.82.24,2,0,3.3-2.33,3.68-3.85.62-7.65,1.18-11.59.62a71.27,71.27,0,0,0-7.61-.2c-10.33-.36-20.66-1-31-1-10.92-.05-21.68-1.77-32.53-2.4-3.84-.22-7.33-1.78-10.67-3.68-2.23-1.27-2.22-3.69-2.7-5.65-.59-2.43-1.38-1.82-2.81-.9a14.52,14.52,0,0,0-6.67,10.94c-.66,4.83-1.72,9.64-2,14.49-.65,10.05,2.29,18.58,13.51,23.6,3.86,1.72,7.73,3.47,11.7,4.89A55.26,55.26,0,0,0,142,185.39c9.27,1,18.67,1,27.87,2.06,10.88,1.22,22,2.75,31.73,9,8.43,5.41,12.13,13.29,13.53,22.71.07.45.06.9.1,1.36.32,3.64.31,3.53,4,3.23a32.88,32.88,0,0,1,10.79.57c4.59,1.16,9.18,7.81,8.87,12.94a41.13,41.13,0,0,1-1.65,10.41c-.58,1.79.06,2.53,1.5,3.11.75.31,1.54.53,2.26.89,4.14,2.08,4.35,6.11.33,8.62-2.89,1.81-6.24,2.36-9.59,2.62a13.91,13.91,0,0,1-6.17-.56,6.21,6.21,0,0,1-3.16-9.52,11,11,0,0,1,12.17-4.7c.05-3.17.95-6.2,1.2-9.3.53-6.7-2.65-12.67-11.34-13a39.64,39.64,0,0,0-4.36.05c-4,.3-4,.33-4.41,4.21a5.42,5.42,0,0,1-3,4.24,37.48,37.48,0,0,1-17.53,5c-22.42.68-44.86.44-67.27-.6-9-.42-18,0-26.95-.45-9.3-.44-18.7-.14-27.77-2.66-4.84-1.34-9.68-2.82-12.91-7.34-1.62-2.27-1.62-4.74-2.07-7.19-.22-1.19-.41-1.61-1.83-1.5-9.08.73-13.83,5.66-13.94,14.71a22.68,22.68,0,0,1-.9,6.42c-.5,1.56.11,2.16,1.44,2.43a11.6,11.6,0,0,1,4.87,2.2A5.92,5.92,0,0,1,49.39,253a9.93,9.93,0,0,1-15.94,2.12c-2.8-3.08-1.42-8.82,2.89-11a3.35,3.35,0,0,0,2.17-3.4c.13-3,.38-6,.66-8.93.74-7.7,7.2-14.9,15.95-14.72,2.07,0,2.7-.65,2.86-2.71a329.93,329.93,0,0,1,7.6-49.79c3.87-16.59,10.83-31.46,22.08-44.33a132.64,132.64,0,0,0,10.28-14,25.55,25.55,0,0,0,4.06-9c.23-1.11.89-2.38-.16-3.2-1.26-1-2.67-2-4.5-.73s-3.78,2.16-5.52,3.44c-4.74,3.51-9.48,7-14.51,10.08a105.51,105.51,0,0,0-15.89,11.85,23.8,23.8,0,0,1-3.5,2.56c-1.12.7-2.35,1.7-3.73.79s-1.6-2.58-1.3-4.14c1.25-6.56,5.65-11,10.51-15,6.9-5.67,15-9.23,23.19-12.64C90.46,88.56,94.55,87.61,98.56,86.18Z" transform="translate(-6.97 -7.29)"/><path class="cls-4" d="M192.78,204.56q-20-.75-40-1.49c-3-.11-6-.15-9-.16-16.88-.07-33.75-.78-50.64-.52-3.9.06-7.75,1-11.67.49a3.65,3.65,0,0,1-1.32-2c-1.1-5-3-9.91-2.7-15.21.19-4,.06-8,0-12a39,39,0,0,1,4.15-17.59,154.62,154.62,0,0,1,10-17.13,100.8,100.8,0,0,0,13.4-29.34,40.39,40.39,0,0,1,1.64-4.91c.26-.64.49-1.55,1.35-1.49s1.3,1,1.35,1.8c.17,2.91,1.05,5.74,1.14,8.63.16,4.54.18,9.08,0,13.61l-3.39,3.19c-.52-.82-1.06-1.59-2-.36-4.06,5.58-8.09,11.19-8.2,18.51a83.89,83.89,0,0,0,.53,13.81,22.39,22.39,0,0,0,3.12,8.19c-.2-3.19-.3-5.73-.22-8.25,0-1.06-.19-2.21.76-3,.86,1.21.36,2.64.64,4,1.72,8.06,6.6,13.55,14,16.83,5.26,2.34,10.43,5.12,16.11,6.26,11.64,2.32,23.46,2.93,35.3,3.71,11.59.76,23.25,2.48,33.3,9.27,3.07,2.07,6.11,4.26,7.58,7.91l-.2.14c-1-1.37-2.5-1.09-3.92-1.16-1-.05-2.16.36-3.09-.46-2.41-3.64-6.07-5.67-9.86-7.44-5.47-2.55-11.29-3.9-17.2-5.06a53.46,53.46,0,0,0-14-.89,2.84,2.84,0,0,0,2.2,1.08c5.69,1.16,11.35,2.42,17,3.89,4.44,1.15,8.45,3.31,12.47,5.41C192.17,203.12,193,203.5,192.78,204.56Z" transform="translate(-6.97 -7.29)"/><path class="cls-4" d="M206.9,216.7c1.08,0,2.16,0,3.24,0a2,2,0,0,1,2.22,2.15c.16,3.06.38,6.12.6,9.18a4,4,0,0,1-2.43,4.11,39.16,39.16,0,0,1-16.24,4.51c-3.43.21-6.88,0-10.31,0a347.53,347.53,0,0,1-55.76-8.49c-11.29-2.6-22.67-4.82-33.9-7.68-3-.77-5.55-2.62-8-4.5a2,2,0,0,1-.9-1.87C99.7,212.9,114,212,128.34,211.76a233.75,233.75,0,0,1,38.6,2.37c3.52.52,6.94.68,10.44.86,8.05.41,16.09,1,24.14,1.6,1.2,2.31.79,5,1.62,7.38.21.63,0,1.68,1,1.69s1-.94,1.27-1.59a11.83,11.83,0,0,0,.86-4.52C206.25,218.56,206.13,217.53,206.9,216.7Z" transform="translate(-6.97 -7.29)"/><path class="cls-4" d="M151.34,79.31c8.68-.72,17.37-1.06,26.08-1.3,10.23-.28,20.44-1.26,30.69-1.42a23.9,23.9,0,0,1,6.66,1c2.32.62,3.36,2.34,3.63,4.55.3,2.47-.18,4.82-2.43,6.21a10.4,10.4,0,0,1-5.9,1.77,167.16,167.16,0,0,0-26.82,1.49c-8.89,1.07-17.83,1.73-26.62,3.46a99.71,99.71,0,0,0-13.57,3.7c-7.95,2.76-11.14,9.29-12.42,17-.38,2.27-1,4.61-.15,7a4.88,4.88,0,0,0,4.25,3.52c9.39,1.56,18.88,1.9,28.34,2.34,3.7.17,7.43.06,11.14.18,8.41.28,16.82.74,25.16,1.84a20.42,20.42,0,0,1,10.83,5.29c.92.81,2.07,1.82,1.55,3.21-.44,1.19-1.86.9-2.85,1-4.08.44-8.14-.21-12.21-.35-10.33-.33-20.67-.33-31-.78-3.33-.15-6.69-.21-10-.5-6.21-1.62-12.3-3.64-18.44-5.5-3.86-1.16-7-3.67-10.28-6a3.06,3.06,0,0,1-1.34-2.55c-.09-6.51-.35-13,1.49-19.4,1.49-5.24,5.18-8.88,8.44-12.81a94.17,94.17,0,0,1,7.77-8C145.67,82,148.74,81.08,151.34,79.31Z" transform="translate(-6.97 -7.29)"/><path class="cls-5" d="M110.59,127.26c-1.1-1-.65-2.39-.63-3.6a103.52,103.52,0,0,0-1.51-20,20.16,20.16,0,0,0-2.76,6.51c-1.42,7.25-5.06,13.6-8,20.23s-7.87,12.3-11.5,18.65c-4.8,8.42-8.49,17.13-7.9,27.11a9.91,9.91,0,0,1,0,1.09,68.9,68.9,0,0,0,3.26,25.62c-6,.72-12.06,1.24-18.13,1.36-1.2,0-1.84.22-1.64-1.45,2-16.7,4.55-33.29,9.87-49.34A86,86,0,0,1,88,124.28a156.92,156.92,0,0,0,12.14-16.69,24.34,24.34,0,0,0,4.13-10.81c.26-2.64,1.77-2.87,3.62-2.68a24,24,0,0,0,6.23-.25c2-.34,1.84.45,1.65,1.83-1.08,8-2.31,15.95-2.05,24a6.16,6.16,0,0,0,.12,2.16C115.26,125.23,113.29,126.44,110.59,127.26Z" transform="translate(-6.97 -7.29)"/><path class="cls-6" d="M85.42,214.08c3.88,4.2,9,5.54,14.37,6.88,7.53,1.89,15.15,3.31,22.71,5,10.91,2.46,21.78,5.24,32.85,6.7,6.87.91,13.71,2.3,20.69,2.55,2.66.1,5.29.91,7.94,1.39-14.69.59-29.37,0-44-.36q-19.31-.48-38.63-.78c-8.74-.13-17.6,0-26.18-2.11-4.09-1-8.26-2.15-11.38-5.35-3.56-3.64-3.14-8.2-2.82-12.68.1-1.39,1.41-.88,2.2-.89,5.08-.06,10.16,0,15.25-.07C80.72,214.35,83.07,214.18,85.42,214.08Z" transform="translate(-6.97 -7.29)"/><path class="cls-5" d="M151.34,79.31a1.65,1.65,0,0,1-1.46,2c-4.08.7-6.51,3.88-9.15,6.45-3.09,3-5.8,6.44-8.63,9.72-4,4.7-5.17,10.25-5.78,16-.36,3.33,0,6.72-.14,10.07-.07,1.7.73,2.58,1.95,3.54,5.48,4.29,11.83,6.37,18.5,7.93a35.47,35.47,0,0,1,9,3.54c-4.28.47-8.43-.73-12.65-1.05-5.05-.39-10.08-1-15.11-1.54a10.17,10.17,0,0,1-1.34-.24c-4.57-1.1-7.71-2.85-8.83-8.45-1.46-7.28-1.24-14.35-.57-21.54.36-3.86,1-7.72.65-11.59-.1-1.16.32-1.24,1.13-1.22.54,0,1.08.1,1.62.17,6.41.87,6.9-.82,7.9-6.59a38.49,38.49,0,0,0,.1-5.16c.06-1.47.66-2.17,2.36-2.13C137.73,79.31,144.54,79.28,151.34,79.31Z" transform="translate(-6.97 -7.29)"/><path class="cls-7" d="M192.78,204.56a43.79,43.79,0,0,0-13.54-6.39,155.64,155.64,0,0,0-18.13-4,7.35,7.35,0,0,1-1.81-.58c-.58-.25-1.2-.64-1-1.39s.82-.64,1.36-.63c3.36,0,6.79-.38,10,.21,6.81,1.23,13.69,2.32,20.1,5.21,3.82,1.72,7.52,3.59,10.42,6.69.5.52,1.83,1,.71,2.13Z" transform="translate(-6.97 -7.29)"/><path class="cls-8" d="M123.06,78.12a8.64,8.64,0,0,1-8.58,8.65,9,9,0,0,1-8.8-8.64c-.07-4.53,4.32-8.93,8.92-8.93C119,69.21,123.05,73.45,123.06,78.12Z" transform="translate(-6.97 -7.29)"/><path class="cls-7" d="M101.23,159.3c0,3.44-.33,6.88.35,10.29.15.75.56,1.82-.46,2.13s-1.21-.87-1.6-1.52a21.84,21.84,0,0,1-3-10.59c-.26-6.3-1.24-12.73,1.4-18.76a44.1,44.1,0,0,1,7-11.52c.63-.72,1.25-2,2.36-1.35s-.17,1.62-.06,2.47a24.85,24.85,0,0,0-3.22,6.61c-2.69,6.81-3.11,13.93-2.87,21.14Z" transform="translate(-6.97 -7.29)"/><path class="cls-9" d="M75.58,63.48a95.2,95.2,0,0,1,16,3.91c1.89.58,3.73,1.33,5.61,2a3.44,3.44,0,0,1,2.36,4.71c-.52,1.36-1.45.37-2,.2-5.18-1.57-10.37-3.1-15.64-4.37a83.53,83.53,0,0,0-17.74-2.13c-.11-1,.72-1.19,1.34-1.39A67.92,67.92,0,0,1,75.58,63.48Z" transform="translate(-6.97 -7.29)"/><path class="cls-10" d="M71.24,107.12,55.59,119.74a9.74,9.74,0,0,1,1.55-6.1c5.14-8,12.75-12.93,21.16-16.83,1.12,1.51.15,2.71-.68,3.85A36.8,36.8,0,0,1,71.24,107.12Z" transform="translate(-6.97 -7.29)"/><path class="cls-10" d="M75.58,63.48c-2.46,2-5.73,1.87-8.49,3.09-1,.42-2.11.41-2.94,1.18-5.78.19-11.54,1-17.34.57-.86-.06-2.19.4-2.44-.58-.32-1.2,1.19-1.39,2-1.85a25,25,0,0,1,11.32-3.28C63.65,62.14,69.67,61.73,75.58,63.48Z" transform="translate(-6.97 -7.29)"/><path class="cls-10" d="M64.68,84.08c-6.21,1.44-12.45,2.77-19,3.78a5.81,5.81,0,0,1,3-4.68,48.57,48.57,0,0,1,27.34-4.66C71.84,79.49,68.73,82.74,64.68,84.08Z" transform="translate(-6.97 -7.29)"/><path class="cls-11" d="M64.68,84.08c1.85-1.28,3.78-2.45,5.53-3.86s3.76-1.63,5.85-1.7a64.84,64.84,0,0,1,22.72,4.6c-5.18-.43-10.32-.66-15.48-.68C77,82.42,70.87,83.33,64.68,84.08Z" transform="translate(-6.97 -7.29)"/><path class="cls-12" d="M71.24,107.12c1.85-2.16,3.66-4.34,5.56-6.45a5.13,5.13,0,0,0,1.5-3.86,142.48,142.48,0,0,1,19.09-8.23c.61-.23,1.68-1,2,.29.25,1-.91.92-1.48,1.14-6,2.27-10.42,6.82-15.68,10.14C78.57,102.47,75.09,105.08,71.24,107.12Z" transform="translate(-6.97 -7.29)"/><path class="cls-13" d="M201.45,92.79c1.44,0,3.33-.56,4.19.15s-.24,2.6-.29,4c0,.55,0,1.09,0,1.63,0,3.63-.4,4-4,4.11-4.57.13-4.57.13-4.58-4.56v-.54C196.68,92.92,196.68,92.92,201.45,92.79Z" transform="translate(-6.97 -7.29)"/><path class="cls-8" d="M183.57,94.63a11.35,11.35,0,0,0-.57,5.56c.13,2.62-1.24,3.53-3.59,3.67-4.52.26-4.52.28-4.52-4.18,0-4.25,0-4.24,4.1-4.89A14.34,14.34,0,0,1,183.57,94.63Z" transform="translate(-6.97 -7.29)"/><path class="cls-8" d="M172.8,126c-1.35,0-3,.48-4-.12-1.24-.77.14-2.36,0-3.65-.48-5.67.61-4.82,5.39-4,2.47.42,3.93,1.58,2.86,4.37a2,2,0,0,0-.07,1.08c.54,2.35-.75,2.66-2.61,2.43a12.5,12.5,0,0,0-1.62,0Z" transform="translate(-6.97 -7.29)"/><path class="cls-14" d="M150.37,125.2h-.64c-4.2-.09-4.17-.09-3.81-4.26.18-2,.7-3.54,3.23-2.91a2.44,2.44,0,0,0,.54,0c6.79-.16,7.05.22,5,6.61a.93.93,0,0,1-1.15.76Z" transform="translate(-6.97 -7.29)"/><path class="cls-15" d="M101.79,90.16c-.2-7.17.2-14.32.42-21.48,0-.85.19-1.4,1.16-1.43,2.89-.1,5.72-1.1,9.08-.35-4.27,1-7.36,3.24-8.85,7-1.74,4.41-.72,8.54,2,12.3a3.17,3.17,0,0,1-.54,4.17A2.12,2.12,0,0,1,101.79,90.16Z" transform="translate(-6.97 -7.29)"/><path class="cls-16" d="M183.87,206.85c-3.91,1.92-7.11,3.53-10.34,5.06a2.73,2.73,0,0,1-3.42-.83c-1.43-1.62-2.82-3.27-4.19-4.86,2.9,0,5.73-.08,8.55,0S180.24,206.61,183.87,206.85Z" transform="translate(-6.97 -7.29)"/><path class="cls-17" d="M235.81,259c-2.61,1-5.34.77-8,.64a3.5,3.5,0,0,1-3.22-2.14c-.55-1.4.08-2.63,1-3.71,1.45-1.66,3.07-3,5.38-3.3a1.7,1.7,0,0,1,.57,1.19,6,6,0,0,0,3.15,5.61C235.25,257.65,235.91,258.1,235.81,259Z" transform="translate(-6.97 -7.29)"/><path class="cls-18" d="M101.79,90.16c2.92.92,3.63.19,3.82-3.93,6.65,5.88,13.89,4,17.44-.09a40.54,40.54,0,0,0,2.59-3.73c0,.67,0,1.15,0,1.63,0,6.25-.26,6.17-6.53,6.74-4.59.42-9.2.15-13.78.73C104.22,91.65,102.41,92,101.79,90.16Z" transform="translate(-6.97 -7.29)"/><path class="cls-19" d="M200.45,124.32c0,3.65,0,3.61-3.26,3.43-4.66-.24-5,.6-3.93-5.13.19-1-.62-2.72,1-3a8.35,8.35,0,0,1,5.75,1C201.1,121.38,200.24,123.23,200.45,124.32Z" transform="translate(-6.97 -7.29)"/><path class="cls-16" d="M85.42,205.35c5.52-1.11,10.7-.67,16.28-.78-2.28,2-4.25,3.66-6.13,5.4a1.85,1.85,0,0,1-2.43.18A48.88,48.88,0,0,1,85.42,205.35Z" transform="translate(-6.97 -7.29)"/><path class="cls-20" d="M235.81,259c-3.06-2-5.8-4.21-4.85-8.51a3.41,3.41,0,0,1,4.09,1c1.13,1.31,2.79,1.92,4.25,2.8,2.25,1.35,2.19,2.48-.19,3.71A7.62,7.62,0,0,1,235.81,259Z" transform="translate(-6.97 -7.29)"/><path class="cls-21" d="M157.87,101.58c0-.12,0,.51-.06,1.14,0,.36,0,.81-.14,1.07-1.48,2.08-3.82,1.07-5.75,1.4-1.08.18-2.28-.22-2.34-2.1-.07-2.43.54-3.9,3.11-4.22a17.69,17.69,0,0,0,2.08-.54C158,97.52,158,97.53,157.87,101.58Z" transform="translate(-6.97 -7.29)"/><path class="cls-22" d="M186.39,206.64c5.49.64,10.57.63,15.73,1.89-2.2,1.52-4.28,2.92-6.3,4.38a1.48,1.48,0,0,1-2.18-.14C191.57,210.62,188.7,209.44,186.39,206.64Z" transform="translate(-6.97 -7.29)"/><path class="cls-23" d="M206.9,216.7c.15,2.9.19,5.79-1.08,8.51-.42.92-1,2-2,1.84s-1.07-1.24-1.24-2.18c-.49-2.74-1.29-5.44-1-8.28Z" transform="translate(-6.97 -7.29)"/><path class="cls-24" d="M39.59,246.08c2.49-.89,6.41.68,7.43,3,.78,1.75-.35,3.7-3,5.21C40.63,253.93,38.26,249.52,39.59,246.08Z" transform="translate(-6.97 -7.29)"/><path class="cls-25" d="M39.59,246.08c.15,3.43,1,6.48,4.4,8.18-2.73,1.84-5.18.53-7.53-.78-1.5-.84-1.59-2.44-1.05-3.84C36.12,247.77,37.15,246,39.59,246.08Z" transform="translate(-6.97 -7.29)"/><path class="cls-26" d="M75.33,211.65a11.22,11.22,0,0,1,.78-.81c2.1-1.66,4.2-4.59,6.33-4.61s4.24,2.89,6.67,4.76A100,100,0,0,1,75.33,211.65Z" transform="translate(-6.97 -7.29)"/><path class="cls-27" d="M69.19,212.1c-2.2,0-4.1.06-6,0-1,0-2.35.07-2.33-1.55,0-1.47-.54-3.31,1.09-4.14a2.64,2.64,0,0,1,3.4.83C66.57,208.82,67.83,210.37,69.19,212.1Z" transform="translate(-6.97 -7.29)"/><path class="cls-4" d="M204.16,210.54c1.05-1.3,3.05-1.47,3.78-3.16l.2-.14c1.49,1.64,1.86,3.81,2.73,5.74s-.13,2.14-1.62,1.94c-1-.13-1.93-.39-2.9-.59C204.93,213.47,205,211.72,204.16,210.54Z" transform="translate(-6.97 -7.29)"/><path class="cls-28" d="M67.57,206.33l11.38-1-3.79,2.87C71.24,211.17,70.32,211,67.57,206.33Z" transform="translate(-6.97 -7.29)"/><path class="cls-29" d="M119.46,204.85c-1.81,1.34-3.41,2.48-4.95,3.7-1.16.92-2.09.21-2.91-.42-1.2-.93-2.27-2-3.62-3.28Z" transform="translate(-6.97 -7.29)"/><path class="cls-30" d="M139.92,205.31c-6.33,4.29-6.91,4.3-12.46,0Z" transform="translate(-6.97 -7.29)"/><path class="cls-31" d="M188.92,213.34c-2.83.41-6.28-.83-10.54-.48l5.77-4c.37-.25.8-.59,1.18-.11C186.65,210.4,187.93,212.07,188.92,213.34Z" transform="translate(-6.97 -7.29)"/><path class="cls-32" d="M99.4,209.93c1.84-1.61,3.3-2.82,4.66-4.12.82-.79,1.35-.53,2,.12,1.05,1,2.17,1.9,3.73,3.25A38.61,38.61,0,0,1,99.4,209.93Z" transform="translate(-6.97 -7.29)"/><path class="cls-4" d="M101.11,158.2c-.8-7.29-1.39-14.54,2.87-21.14-.56,5.74-2.25,11.31-2.47,17.1C101.46,155.51,101.25,156.85,101.11,158.2Z" transform="translate(-6.97 -7.29)"/><path class="cls-33" d="M167.39,211.56l-10.56-1.17,5.59-3.42a1.11,1.11,0,0,1,1.65.27Z" transform="translate(-6.97 -7.29)"/><path class="cls-34" d="M117.36,209.55c5.71-4.79,5.71-4.79,10.36-.65C124.44,209.71,121.24,209.17,117.36,209.55Z" transform="translate(-6.97 -7.29)"/><path class="cls-35" d="M159.25,205.53c-5.53,3.71-8.08,3.57-11.92-.38C151.23,205.13,154.85,206.05,159.25,205.53Z" transform="translate(-6.97 -7.29)"/><path class="cls-36" d="M126.24,75.85a14.82,14.82,0,0,0-8-9,28.41,28.41,0,0,1,5.25.53c2.41.69,2.17,3.21,2.72,5.06A12.46,12.46,0,0,1,126.24,75.85Z" transform="translate(-6.97 -7.29)"/><path class="cls-37" d="M139.84,209c4.56-3.38,4.56-3.38,8.53.55A36.45,36.45,0,0,1,139.84,209Z" transform="translate(-6.97 -7.29)"/><path class="cls-38" d="M204.16,210.54c2.12.46,1.4,2.56,2.19,3.79-2.14,0-4.3.38-6.53-.51C201,212.21,202.73,211.57,204.16,210.54Z" transform="translate(-6.97 -7.29)"/><path class="cls-7" d="M179,137.69a24.23,24.23,0,0,1,8.39-1.71c5.92-.5,11.86-.71,17.79-1,.71-.05,1.31.09,1.55.78a1.94,1.94,0,0,1-.28,2.27,3.25,3.25,0,0,1-2.09,1.16C196.12,139,187.79,140,179,137.69Z" transform="translate(-6.97 -7.29)"/><path class="cls-39" d="M214.63,83c.32,1.65-.66,2.93-2,3.9-1,.7-2.27,1.94-3.3,1.19s.15-2.09.55-3.12c.69-1.79.79-3.33-1.42-4.17-.71-.27-1.64-.61-1.31-1.71s1.19-.92,2-1C212.62,77.91,214.64,79.61,214.63,83Z" transform="translate(-6.97 -7.29)"/><path class="cls-40" d="M114.38,73.23c2.93,0,4.89,1.61,4.91,3.91A5.09,5.09,0,0,1,114.48,82,4.73,4.73,0,0,1,110,77.53,4.13,4.13,0,0,1,114.38,73.23Z" transform="translate(-6.97 -7.29)"/><path class="cls-41" d="M114.47,76.48c.74,0,1.65-.14,1.66.86A1.68,1.68,0,0,1,114.58,79c-.91.1-1.47-.64-1.57-1.51C112.87,76.27,113.91,76.67,114.47,76.48Z" transform="translate(-6.97 -7.29)"/></svg>