<svg id="Layer_1" data-name="Layer 1" xmlns="http://www.w3.org/2000/svg" viewBox="0 0 286.07 285.42"><defs><style>.cls-1{fill:#010101;}.cls-2{fill:#fefefe;}.cls-3{fill:#010305;}.cls-4{fill:#75cbdc;}.cls-5{fill:#4298a9;}.cls-6{fill:#dbd93f;}.cls-7{fill:#fcfcfc;}.cls-8{fill:#d8d945;}.cls-9{fill:#7ac8d4;}.cls-10{fill:#4497a8;}.cls-11{fill:#4597a7;}.cls-12{fill:#4497a7;}.cls-13{fill:#d6d848;}.cls-14{fill:#80c8cc;}.cls-15{fill:#fbfbfb;}.cls-16{fill:#f9fafa;}.cls-17{fill:#4c94a1;}.cls-18{fill:#79c9d9;}.cls-19{fill:#79c3cf;}.cls-20{fill:#7dc6d1;}.cls-21{fill:#79c8d6;}.cls-22{fill:#76c9d9;}.cls-23{fill:#82c7c8;}.cls-24{fill:#d7d847;}.cls-25{fill:#77c8d9;}.cls-26{fill:#56a0ad;}.cls-27{fill:#4796a5;}.cls-28{fill:#95c6a8;}.cls-29{fill:#45919f;}.cls-30{fill:#4a939e;}.cls-31{fill:#76bbca;}.cls-32{fill:#7fc3cf;}.cls-33{fill:#7bc3d2;}.cls-34{fill:#7ac4d1;}.cls-35{fill:#7ac1ce;}.cls-36{fill:#73b5c1;}.cls-37{fill:#9cbb96;}.cls-38{fill:#7dc3d0;}.cls-39{fill:#cbcf53;}.cls-40{fill:#7dbcc8;}.cls-41{fill:#cbd45c;}.cls-42{fill:#d7d945;}.cls-43{fill:#040404;}.cls-44{fill:#c7d85d;}.cls-45{fill:#e8e8e8;}</style></defs><title>18</title><path class="cls-1" d="M146.5,7.31c35.79,0,71.58-.08,107.37.08,5.94,0,12,.22,17.74,2.09,9.38,3,15.77,9.24,19.45,18.4,1.92,4.78,1.86,9.63,1.7,14.64q-.43,13.59-.44,27.19c.08,52.77,0,105.55.11,158.32,0,7.12-.11,14.25.37,21.41s.35,14.72-1.88,21.83c-3,9.52-9.31,15.88-18.54,19.67-5.52,2.27-11.17,1.74-16.82,1.66-1.63,0-3.26,0-4.89,0l-136.17-.13c-18.17,0-36.34-.28-54.5.14-6.9.16-13.76,0-20.63-.19C27.71,292.13,18,288,11.57,277.68a30.35,30.35,0,0,1-4.48-19.19c.72-8.52.24-17.07.25-25.6q.07-51.37,0-102.73c0-24.7.13-49.41-.07-74.11a181.59,181.59,0,0,1,.58-20.87c1.34-12.54,8-21,19.58-25.87,4.87-2.06,9.9-1.94,14.94-1.95q52.05-.06,104.11,0Z" transform="translate(-6.97 -7.29)"/><path class="cls-2" d="M11.31,150.08q0-45.51,0-91c0-7.91.27-15.8.61-23.69C12.41,23.37,24,11.91,36,11.8c58.05-.55,116.09-.14,174.14-.25,13.72,0,27.44,0,41.15.13a106.46,106.46,0,0,1,16.28,1.09c12.6,2.11,21.29,14,21.13,25.71-.93,65.74-.33,131.49-.37,197.23,0,9.15.13,18.3-.15,27.46-.42,14.39-13.09,25.43-26.11,25.36-43.42-.22-86.84-.09-130.26-.09-25.35,0-50.7-.13-76,.06-7.91.06-15.82.14-23.58-1.15a25.1,25.1,0,0,1-20.52-21c-.73-5.06-.32-10.3-.33-15.46q0-50.4,0-100.81Z" transform="translate(-6.97 -7.29)"/><path class="cls-3" d="M106.06,86a113,113,0,0,0-27.19-.18C72.5,86.55,66.25,88,60,89.28a55.41,55.41,0,0,1-7.25,1c-2.5.18-3.43-1-2.65-3.34a10,10,0,0,1,4.85-6,43.2,43.2,0,0,1,15.21-4.39c12.19-1.46,24,.46,35.66,4.08.57-2.84.57-2.84-2.18-3.76-11.46-3.79-23-6.92-35.28-6.29-4.71.24-9.42.83-14.14.41-2.25-.2-5.23.07-5.87-2.76s2.28-3.62,4.16-4.65C59.42,59.81,67,59.53,74.64,60c11.15.63,21.62,4.22,32.31,8.1-.18-2,1-2.52,2.52-2.9,7.25-1.85,14.6-1.35,21.88-.54,3.71.41,3.57,4.28,4.69,6.89a5.35,5.35,0,0,1,.14,1.89c.13,4.11.15,4.37,4.35,4.14,10-.55,20.1-.28,30.11-1.44,5.67-.66,11.42-.28,17.14-.5,9.16-.35,18.27-1.47,27.45-1.29a30.73,30.73,0,0,1,5.66.53c6.68,1.38,7.51,4.85,6.55,10.81-.66,4.06-4.41,6.91-9.08,7.14-2.13.1-2.57.95-2.67,2.71-.07,1.26-.42,2.5-.5,3.76-.16,2.15.23,4.69-2.33,5.59-3.26,1.13-6.71,1.85-10,.13-1.76-.92-2-2.7-1.85-4.5.21-2.34.52-4.67.81-7.2a55.14,55.14,0,0,0-8.07.64c-1.21.15-.83.91-.85,1.57-.1,2.27-.17,4.53-.31,6.8S191,106,188.8,106.72a15.32,15.32,0,0,1-7.28.08,3,3,0,0,1-2.57-3.56c.21-1.8.38-3.61.66-5.39s.08-2.54-2-2.16c-3.56.65-7.15,1.06-10.85,1.59a12.76,12.76,0,0,1,.63,7.68,2.89,2.89,0,0,1-1.95,2.53,12.42,12.42,0,0,1-9.74-.32c-1.83-.81-1.76-2.73-1.26-4.55.44-1.56.51-2.41-1.82-1.75-7.33,2.06-10.66,7.54-12,14.27-1.57,7.72-1.55,8.94,7.08,9.51,2.25.15,2.5-.24,2.73-2.28.76-6.89.88-6.87,7.9-6.67,1.35,0,2.72-.07,4.07.07,2.5.25,3.45,1.6,3.06,4.11a16.6,16.6,0,0,1-.49,2.93c-1,2.86.27,3.33,2.86,3.32,5.88,0,5.88.1,5.89-5.66,0-4.48,1.18-5.63,5.71-5.23a30.4,30.4,0,0,1,5.57,1.13c1.81.51,2.51,1.91,2.47,3.75,0,2.08-.78,4.66.18,6.08s3.72.22,5.67.57c.8.14,1.62.18,2.41.34,1.09.23,1.4-.18,1.46-1.26.1-2,.33-4,.6-5.94.31-2.16,1.33-3.51,3.81-3.17,2.06.28,4.15.35,6.19.7a3.27,3.27,0,0,1,3,3.54c0,2.63-.81,5.7.28,7.77s4.35,2.48,6.48,4a8.53,8.53,0,0,1,3.64,6.59,2.11,2.11,0,0,1-1.9,2.67,28.41,28.41,0,0,1-10.23.94c-4.8-.68-9.6-.26-14.4-.45-11.42-.46-22.86-.53-34.26-1.21-9-.53-18-1.68-27-2.66-2.92-.32-5.46-1.81-8-3.22s-2.15-4-2.86-6.17c-.5-1.49-.9-1.38-2-.75a14.62,14.62,0,0,0-7.34,11.4c-.63,4.83-1.72,9.63-2,14.49-.61,10,2.18,18.47,13.56,23.56,3.86,1.72,7.71,3.5,11.7,4.9a56.77,56.77,0,0,0,12.67,2.57c9.27,1,18.67,1,27.86,2,10.79,1.23,21.8,2.74,31.48,8.89,8.58,5.44,12.32,13.35,13.74,22.86.08.54.06,1.09.11,1.63.33,3.4.32,3.28,3.73,2.95a32.14,32.14,0,0,1,11.06.56c4.7,1.19,9.22,8,8.8,13.24A42.47,42.47,0,0,1,244.18,248c-.49,1.45.23,2.25,1.39,2.8.81.37,1.73.54,2.53.94,4,2,4.45,6,.7,8.26a19.37,19.37,0,0,1-15.91,2.37c-4.67-1.38-6-6.05-3.07-10a10.89,10.89,0,0,1,11.82-4.26c.06-3.08.83-6.05,1.19-9.06.71-5.88-2.11-12.73-10.84-13.15a49.38,49.38,0,0,0-8.15.44c-1.34.16-1.14.94-1.06,1.68.43,3.63-1.41,5.71-4.52,7.19a40.36,40.36,0,0,1-16.11,4.22c-22.43.68-44.86.42-67.27-.61-8.9-.41-17.8,0-26.68-.44-9.39-.44-18.88-.13-28-2.68-4.84-1.34-9.68-2.83-12.89-7.37-1.61-2.28-1.59-4.75-2-7.19-.22-1.25-.51-1.56-1.87-1.45-9.16.76-13.81,5.6-13.93,14.71a22,22,0,0,1-.9,6.42c-.5,1.58.16,2.16,1.45,2.42a11.85,11.85,0,0,1,4.65,2,5.94,5.94,0,0,1,1.71,7.95,10,10,0,0,1-15.82,1.89c-2.79-3.05-1.41-8.84,2.87-11a3.34,3.34,0,0,0,2.19-3.38c.11-3,.37-6,.65-8.93.74-7.67,7.13-14.83,15.66-14.71,2.66,0,3.27-.94,3.42-3.41a258.74,258.74,0,0,1,10.19-59.41c3.85-12.84,10.67-24,19.31-34.17,3.74-4.4,6.9-9.3,10.27-14a22.17,22.17,0,0,0,3.93-8.8c.21-1.17.94-2.39-.24-3.39-1.34-1.13-2.78-1.74-4.49-.56-1,.67-2.13,1.05-3,1.77-10.69,8.39-23,14.48-33.06,23.78A15.13,15.13,0,0,1,63.45,122c-1.74.67-2.76.15-3.27-1.63-.78-2.76.21-5.17,1.51-7.47,4.28-7.53,11-12.45,18.41-16.4,7.93-4.22,16.12-7.89,25-9.87C105.29,86.57,105.48,86.35,106.06,86Z" transform="translate(-6.97 -7.29)"/><path class="cls-4" d="M117.47,127.57l-3,2.76c-.63-.23-1.24-.92-1.92-.09a8,8,0,0,0-.59.57c-3.45,5.25-7.57,10.22-7.78,16.94-.12,3.71,0,7.43,0,11.15,0,4.13,2,7.62,3.1,11.59,1.13-.67.75-1.47.87-2.1.23-1.09-.44-2.54,1.23-3,3.2,9.48,10.86,13.78,19.44,17.45,10.52,4.5,21.58,5.85,32.75,6.45,12.66.68,25.26,1.45,37.37,5.55a34.57,34.57,0,0,1,14.62,9.53c.77.84,1.69,1.67,1.64,3l0,0c-1.17-1.18-2.66-1.05-4.15-1.09-.92,0-2,.31-2.77-.46-3-3.86-7.05-6.1-11.43-7.92a88.79,88.79,0,0,0-17.46-4.77c-4.07-.8-7.94-.35-11.94-.6a5.88,5.88,0,0,0,3.2,1.47,96.68,96.68,0,0,1,16.1,3.52,58.44,58.44,0,0,1,11.83,5.41c.6.35,1.37.73.76,1.67l-39.42-1.45c-1.91-.07-3.81-.13-5.72-.14-18.15-.08-36.29-.81-54.44-.54-3.71.06-7.39.95-11.12.47a1.81,1.81,0,0,1-1.06-1.17c-1.22-4.92-3-9.73-2.94-14.9,0-3.53.11-7.07,0-10.61-.34-9.27,2.45-17.69,6.88-25.67a92.37,92.37,0,0,1,4.94-7.81,107,107,0,0,0,15.73-33c.58-2.09,1.29-4.16,2-6.19.23-.6.57-1.21,1.38-1,.61.14.81.69.92,1.23a21.88,21.88,0,0,1,.43,3.77C117.11,114.21,118.38,120.86,117.47,127.57Z" transform="translate(-6.97 -7.29)"/><path class="cls-4" d="M94.06,214c12.82-1.13,25.65-1.91,38.52-2.16A297.74,297.74,0,0,1,174.16,214a5,5,0,0,1,3.28,1.1,2.06,2.06,0,0,0,2.05.45c5.24-1.57,10.44,0,15.63.27,4.31.19,8.71-.24,13,.81a7.46,7.46,0,0,1,1.74,5.23A5.89,5.89,0,0,0,210,224c.21.66.28,1.61,1.13,1.64s1.33-.88,1.46-1.67c.36-2.22,2.18-4.31.64-6.73-.13-.19.12-.48.42-.53,5.19-.23,5.26-.24,6,4.85a65.8,65.8,0,0,1,.38,7,3.55,3.55,0,0,1-2.13,3.43,38.7,38.7,0,0,1-16.48,4.67c-3.06.19-6.14,0-9.22,0a293.44,293.44,0,0,1-37.71-4.59c-8.64-1.6-17.2-3.62-25.8-5.44s-17.33-3.85-26-5.9A21,21,0,0,1,94,216.42C93.28,215.79,91.73,214.77,94.06,214Z" transform="translate(-6.97 -7.29)"/><path class="cls-4" d="M188.61,139.15c-8.44.25-16.87-.22-25.3-.57-6.81-1.52-13.37-3.88-20-6-3.5-1.13-6.38-3.41-9.19-5.72a5.88,5.88,0,0,1-2-4.6,53.37,53.37,0,0,1,2.67-19c1.45-4.45,5-7.75,8-11.22,2.38-2.73,5.2-5.07,7.63-7.76,2.22-2.47,5.57-3,8-5,11.66-1.21,23.38-1.1,35.07-1.69,7.33-.37,14.65-1.09,22-1a25.11,25.11,0,0,1,6.39,1c2.32.65,3.3,2.38,3.57,4.59.29,2.49-.21,4.83-2.48,6.18a10.38,10.38,0,0,1-5.92,1.71c-12.48-.75-24.76,1.35-37.11,2.6a200.07,200.07,0,0,0-26.9,4.94c-9.59,2.33-14.48,10.47-15.45,18.45a33.27,33.27,0,0,0-.37,4.87c.1,3.22,1.72,4.73,4.66,5.24,9,1.58,18.15,1.91,27.27,2.33,3.62.16,7.25.15,10.88.21a259.13,259.13,0,0,1,26.26,1.85,20.57,20.57,0,0,1,11.27,5.56c.75.69,1.65,1.62,1.3,2.83-.4,1.38-1.82,1-2.75,1.08-6.89.66-13.75-.68-20.65-.42-2.22.08-4.53.42-6.7-.51,1-1,2.38-.76,3.62-.77,5.36,0,10.72,0,16.08,0a22.21,22.21,0,0,0,2.45,0c1.11-.13,2.48-.31,2.35-1.7s-1.57-1-2.48-1c-2.47.15-4.85-.5-7.69-.68,1.14.22,2-.05,2.78.47-.62,1.39-1.89,1.2-3,1.23-2.81.08-5.63.07-8.44,0a20.94,20.94,0,0,0-4.8.87C188.67,137.79,188.74,138.47,188.61,139.15Z" transform="translate(-6.97 -7.29)"/><path class="cls-5" d="M117.47,127.57c-.78-1.55-.39-3.22-.45-4.83a139.44,139.44,0,0,0-1.8-19.81c-.83,2.46-1.77,4.89-2.46,7.39a112.79,112.79,0,0,1-16.64,34.25c-6.71,9.61-11,20-10.89,32.07,0,8.94.51,17.71,3.38,26.23a162,162,0,0,1-18.15,1.33c-1.06,0-1.87.37-1.65-1.43,2-16.09,4.39-32.08,9.3-47.59a86.77,86.77,0,0,1,17-31,141,141,0,0,0,12.69-17.66,24.52,24.52,0,0,0,3.62-10.42c.19-1.67,1-2,2.22-2a59.12,59.12,0,0,0,8.41-.37c1.6-.2.86,1.07.78,1.65-1,7.72-2.19,15.42-2.07,23.24a7.61,7.61,0,0,0,.09,2.71C122.38,125,120.33,126.46,117.47,127.57Z" transform="translate(-6.97 -7.29)"/><path class="cls-5" d="M94.06,214c-1.16.66-.65,1.26.12,1.76a30.72,30.72,0,0,0,9.24,4.33c13.67,3.45,27.51,6.08,41.25,9.21,9.24,2.1,18.61,3.49,28,4.78,6.5.89,13.1,1.13,19.52,2.58-12.15.26-24.29.42-36.43-.24-2.27-.12-4.54-.08-6.81-.13-13.42-.28-26.84-.63-40.26-.84-8.75-.13-17.6.09-26.21-2.06-4.72-1.18-9.66-2.29-12.7-6.6-2.48-3.51-2.12-7.66-1.75-11.7.09-.92,1-.63,1.56-.62C77.75,214.51,85.91,214.43,94.06,214Z" transform="translate(-6.97 -7.29)"/><path class="cls-5" d="M158.45,79.3c.09,1.42-.84,1.85-2,2.13A12.09,12.09,0,0,0,150.78,85,146.29,146.29,0,0,0,138.1,98.72c-3.35,4.31-3.81,9.44-4.73,14.47a32.54,32.54,0,0,0-.5,4.3c-.38,8,2.25,11.49,11.25,14.62,6.13,2.14,12.35,4,18.53,6a3.36,3.36,0,0,1,.67.44c-4.2.42-8.27-.69-12.4-1.05-5.32-.47-10.64-1.07-15.95-1.62a14.43,14.43,0,0,1-1.59-.32c-4.46-1-7.3-2.84-8.48-8.11-1.67-7.48-1.21-14.72-.61-22.11.31-3.77,1.1-7.54.59-11.34-.12-1,.15-1.15.91-1.15a14.75,14.75,0,0,1,1.62.14c6.89.83,7.2-.68,8.21-6.85.27-1.68,0-3.44.16-5.16.07-1.16.43-1.88,2-1.85C144.66,79.31,151.55,79.27,158.45,79.3Z" transform="translate(-6.97 -7.29)"/><path class="cls-6" d="M199.31,204.53c-2.77-2.7-6.43-3.82-9.85-5.21a79.49,79.49,0,0,0-19.22-4.6c-1.35-.18-2.4-1.23-3.83-1.13-.67,0-.85-.57-.86-1.16s.5-1,1.07-.91c4,.35,7.93-.59,12,.79,2.51.86,5.42.57,8.15,1.28a57.62,57.62,0,0,1,18.78,8.09c1.27.88,2.83,2,2.74,4.07Z" transform="translate(-6.97 -7.29)"/><path class="cls-7" d="M130.14,78.18a8.63,8.63,0,0,1-8.65,8.59,9,9,0,0,1-8.71-8.72c0-4.53,4.44-8.91,9-8.89C126.13,69.19,130.15,73.52,130.14,78.18Z" transform="translate(-6.97 -7.29)"/><path class="cls-8" d="M108.81,168.64a10.27,10.27,0,0,1,0,1.36c-.08.66.31,1.59-.7,1.8s-1.18-.46-1.49-1.21c-1-2.27-1.6-4.65-2.4-7-1.17-3.37-.51-6.71-.92-10-.84-6.89,1.21-13,4.78-18.75a54.34,54.34,0,0,1,4.14-5.94,1.36,1.36,0,0,1,1.37-.6c1.18.25.63,1.31.84,2A24.8,24.8,0,0,0,111,137a47.31,47.31,0,0,0-2.82,13.35c-.32,5.6.29,11.18.09,16.77A2.11,2.11,0,0,0,108.81,168.64Z" transform="translate(-6.97 -7.29)"/><path class="cls-9" d="M83.2,63.49A101.85,101.85,0,0,1,100.1,68c.92.34,1.85.7,2.8,1,4.26,1.16,4.28,1.17,3.41,5.91-11.44-3.7-22.94-7-35.08-7.09-.1-.69.39-1,.88-1.17A61,61,0,0,1,83.2,63.49Z" transform="translate(-6.97 -7.29)"/><path class="cls-10" d="M79.4,106.53c-5.92,3.68-10.75,8.74-16.41,13-.41-2.69.07-4.31,1.84-6.92,4.07-6,9.84-10,16-13.6,1.47-.86,3.08-1.49,4.62-2.23,1.12,1.7,0,2.9-1,4.11C82.92,102.92,81.08,104.65,79.4,106.53Z" transform="translate(-6.97 -7.29)"/><path class="cls-11" d="M83.2,63.49c-3.73,2.13-8.18,2.27-12,4.24C64.59,68,58,69,51.15,68.06,55.33,61.87,74.39,61.07,83.2,63.49Z" transform="translate(-6.97 -7.29)"/><path class="cls-12" d="M71.76,84.07c-6.23,1.41-12.45,2.87-19.07,3.76.41-2,1.21-3.65,2.81-4.46a48.07,48.07,0,0,1,28.4-4.76,2.1,2.1,0,0,1-1.94.75,7.55,7.55,0,0,0-4.94,2A14.28,14.28,0,0,1,71.76,84.07Z" transform="translate(-6.97 -7.29)"/><path class="cls-13" d="M188.61,139.15c0-1.34-1.49-.81-2.15-1.65,6.13-2.24,12.44-1.56,18.68-2l-3.06-.22,0-.41c3.33,0,6.67,0,10,0,1,0,2.29-.37,2.37,1.4a2.66,2.66,0,0,1-2,2.78,7.53,7.53,0,0,1-2.43.17l-21.22-.06Z" transform="translate(-6.97 -7.29)"/><path class="cls-14" d="M71.76,84.07c1.76-1.23,3.61-2.35,5.26-3.71,2.06-1.72,4.46-1.67,6.87-1.75,9.18.3,19.91,2.62,22.24,5a94.39,94.39,0,0,0-19.32-1.13C81.74,82.61,76.78,83.58,71.76,84.07Z" transform="translate(-6.97 -7.29)"/><path class="cls-7" d="M208.7,92.79c4.16-.11,4.16-.11,3.74,4.06a2.45,2.45,0,0,0,0,.27c-.42,5.47-.88,5.82-6.42,5.58-1.49-.06-2.19-.6-2.21-2,0-.91,0-1.81,0-2.72C203.76,92.92,203.76,92.92,208.7,92.79Z" transform="translate(-6.97 -7.29)"/><path class="cls-15" d="M190.72,94.39c-.85,2.07-.64,3.88-.67,5.68-.05,2.86-.84,3.67-3.71,3.8-4.36.2-4.36.2-4.36-4.07s0-4.4,4.25-5C187.56,94.57,188.91,94.54,190.72,94.39Z" transform="translate(-6.97 -7.29)"/><path class="cls-16" d="M152.54,124.84c.13-.59.27-1,.33-1.46.24-1.76-.41-4.47,1-5,2.21-.86,5-.65,7.45-.19,1.12.2,1.56.65,1.23,2-1.4,5.75-1.32,5.77-7.37,5.07C154.43,125.17,153.63,125,152.54,124.84Z" transform="translate(-6.97 -7.29)"/><path class="cls-15" d="M175.18,126.11a14.79,14.79,0,0,0,.7-5.81c0-.62-.11-1.49.23-1.81,2-1.79,4-.33,6,.05,1.31.24,2.55.56,2.35,2.56-.51,5-.42,5-5.5,5Z" transform="translate(-6.97 -7.29)"/><path class="cls-17" d="M108.9,90.17q.19-10.85.36-21.7c0-.77.23-1.2,1-1.22,3-.09,5.88-1.1,9.23-.4A33.92,33.92,0,0,0,116.34,68a11.44,11.44,0,0,0-4.8,16.37l1.11,1.84a3.19,3.19,0,0,1-.71,4.19A1.88,1.88,0,0,1,108.9,90.17Z" transform="translate(-6.97 -7.29)"/><path class="cls-18" d="M172.67,205.84c6.18.55,11.93.09,17.94,1.18-3.6,1.76-6.93,3.45-10.32,5a2.4,2.4,0,0,1-2.76-.63C176,209.69,174.47,207.91,172.67,205.84Z" transform="translate(-6.97 -7.29)"/><path class="cls-19" d="M108.9,90.17c2.65.79,3.52-.12,3.75-4,3,2.37,6.11,4.08,10.16,3.6,4.66-.55,7.68-3.17,9.8-7.43,0,.5.09.66.09.82,0,7.77-.36,6.93-7,7.58-4.42.43-8.86.1-13.27.73C111.36,91.67,109.49,92.06,108.9,90.17Z" transform="translate(-6.97 -7.29)"/><path class="cls-15" d="M207.51,124.51c.52,2.74.19,3.91-3.24,3.38-4.75-.73-4.93.26-3.92-5.27.19-1-.64-2.74,1-3a8.4,8.4,0,0,1,5.75,1.07C208.2,121.42,207.28,123.27,207.51,124.51Z" transform="translate(-6.97 -7.29)"/><path class="cls-11" d="M242.94,259c-2.53.92-5.15.8-7.77.68a3.62,3.62,0,0,1-3.46-2.19c-.64-1.53.12-2.8,1.13-3.92a8.16,8.16,0,0,1,5.22-3.06,2.61,2.61,0,0,1,.64,2,5.08,5.08,0,0,0,2.71,4.56C242.14,257.48,243,257.86,242.94,259Z" transform="translate(-6.97 -7.29)"/><path class="cls-20" d="M79.4,106.53c.61-2.39,2.75-3.64,4.14-5.45,1-1.32,2-2.53,1.87-4.28A73.55,73.55,0,0,1,95.6,92.17a.79.79,0,0,1,.41.59c-1.15,1.63-3.22,2.61-3.42,4.9A124.57,124.57,0,0,1,79.4,106.53Z" transform="translate(-6.97 -7.29)"/><path class="cls-21" d="M92.5,205.32c5.47-1.07,10.66-.65,16.28-.74-2.27,2-4.22,3.65-6.12,5.38a1.7,1.7,0,0,1-2.18.31A44.33,44.33,0,0,1,92.5,205.32Z" transform="translate(-6.97 -7.29)"/><path class="cls-22" d="M242.94,259a4,4,0,0,0-1-.87c-3.48-1.44-4.39-4.17-3.9-7.62a3.4,3.4,0,0,1,4.08,1c1.13,1.29,2.79,1.91,4.24,2.79.73.45,1.83.82,1.67,1.87a2.6,2.6,0,0,1-1.83,1.83C245.15,258.39,244,258.66,242.94,259Z" transform="translate(-6.97 -7.29)"/><path class="cls-15" d="M165,100.68c-.1,4-2,5.35-6.36,4.52-1.29-.25-2.17-.79-1.87-2.24.27-1.3-.9-3.24,1.63-3.62a36.14,36.14,0,0,0,3.62-1C165.06,97.53,165.06,97.54,165,100.68Z" transform="translate(-6.97 -7.29)"/><path class="cls-23" d="M209,208.51c-2.1,1.52-3.92,2.82-5.73,4.15-.76.56-1.52,1.12-2.37.25-2.15-2.17-5-3.44-7.2-6,2.72-.55,5.23.34,7.76.43A67.47,67.47,0,0,1,209,208.51Z" transform="translate(-6.97 -7.29)"/><path class="cls-24" d="M213.68,216.68c1.86,3.22.16,6.08-1.08,8.88-.71,1.61-1.92,2.43-2.85-.12a4.41,4.41,0,0,1-.57-1.74c.17-2.45-.54-4.76-1.07-7.09Z" transform="translate(-6.97 -7.29)"/><path class="cls-25" d="M46.68,246.08c2.44-.88,6.43.7,7.43,3,.78,1.74-.36,3.7-3,5.21C47.77,254,45.34,249.48,46.68,246.08Z" transform="translate(-6.97 -7.29)"/><path class="cls-26" d="M96.22,211.07a125.87,125.87,0,0,1-13.93.54c2.44-2,4.58-3.54,6.54-5.32.92-.84,1.29-.07,1.75.28C92.36,207.92,94.08,209.35,96.22,211.07Z" transform="translate(-6.97 -7.29)"/><path class="cls-27" d="M46.68,246.08c.13,3.45,1,6.49,4.4,8.17-2.86,1.91-5.35.48-7.77-1-1.43-.85-1.33-2.43-.83-3.66C43.21,247.8,44.2,246,46.68,246.08Z" transform="translate(-6.97 -7.29)"/><path class="cls-28" d="M108.81,168.64c-1.34-.26-1-1.33-1-2.17,0-7.14-.19-14.28,0-21.42.06-3,1.59-5.58,3.24-8,0,3.46-1.12,6.73-1.66,10.09a50.43,50.43,0,0,0-.07,18.25C108.49,166.36,109.09,167.57,108.81,168.64Z" transform="translate(-6.97 -7.29)"/><path class="cls-29" d="M76.29,212.1c-2.1,0-3.62,0-5.14,0-3.31-.06-3.6-.39-3.17-3.68.12-.87,0-2,1.24-2.13,1-.13,2.18-.42,3,.69.58.81,1.23,1.57,1.85,2.34Z" transform="translate(-6.97 -7.29)"/><path class="cls-30" d="M86.08,205.26c-1.54,1.22-2.56,2.08-3.63,2.87-4.08,3-5,2.85-7.85-1.77Z" transform="translate(-6.97 -7.29)"/><path class="cls-4" d="M212.2,210c.75-1.16,2.46-1.27,3-2.7l0,0c2,1.77,2.24,4.37,3.15,6.65.39,1-.47,1-1.09.94-1.25-.14-2.49-.38-3.74-.59C212.5,213.05,211.38,211.8,212.2,210Z" transform="translate(-6.97 -7.29)"/><path class="cls-31" d="M115,204.79h11.5l-5,3.89a1.85,1.85,0,0,1-2.45-.3C117.71,207.34,116.51,206.17,115,204.79Z" transform="translate(-6.97 -7.29)"/><path class="cls-32" d="M146.85,205.36c-4,3.26-8.07,5-12,0Z" transform="translate(-6.97 -7.29)"/><path class="cls-33" d="M185.56,212.72a10.66,10.66,0,0,1,1.24-.89c2-.83,3.48-3.48,5.37-3s3,2.91,5.23,4.24C193.28,213.82,189.75,212.66,185.56,212.72Z" transform="translate(-6.97 -7.29)"/><path class="cls-34" d="M106.46,210c1.9-1.69,3.43-3,4.93-4.4.81-.75,1.26-.1,1.81.35,1.11.93,2.23,1.84,3.93,3.23A48.61,48.61,0,0,1,106.46,210Z" transform="translate(-6.97 -7.29)"/><path class="cls-35" d="M163.87,210.41c2.11-1.29,3.79-2.28,5.43-3.33.71-.45,1.3-.59,1.87.17,1,1.34,2,2.68,3.3,4.32Z" transform="translate(-6.97 -7.29)"/><path class="cls-36" d="M124.78,209.46c4.71-4.62,5.2-4.64,10.13-.54C131.58,209.55,128.39,209.19,124.78,209.46Z" transform="translate(-6.97 -7.29)"/><path class="cls-37" d="M124.81,66.75c2,.16,4,0,5.83.56,2.34.72,2.14,3.28,2.69,5.16A9,9,0,0,1,133.2,76,13.48,13.48,0,0,0,124.81,66.75Z" transform="translate(-6.97 -7.29)"/><path class="cls-38" d="M166.33,205.6c-5.27,4-8.66,2.9-12.1-.4C158.3,205.17,161.94,206,166.33,205.6Z" transform="translate(-6.97 -7.29)"/><path class="cls-20" d="M95.6,92.17c2.88-1.65,6.1-2.47,9.15-3.68.61-.24,1.41-.78,1.76.33s-.72,1-1.15,1.09c-2.58.66-4.6,2.37-6.92,3.5a3.6,3.6,0,0,1-2.67-1.07Z" transform="translate(-6.97 -7.29)"/><path class="cls-39" d="M212.2,210c-.14,1.6,1.61,2.67,1.24,4.34a18.93,18.93,0,0,1-6.7-.45A21.54,21.54,0,0,1,212.2,210Z" transform="translate(-6.97 -7.29)"/><path class="cls-40" d="M155.41,209.52a43.45,43.45,0,0,1-8.27-.49C151.21,205.05,151.21,205.05,155.41,209.52Z" transform="translate(-6.97 -7.29)"/><path class="cls-41" d="M95.77,92.34a2.7,2.7,0,0,1,2.67,1.07l-5.85,4.25c-.4-2.13.1-3.76,2.45-4.33C95.59,93.2,95.73,92.83,95.77,92.34Z" transform="translate(-6.97 -7.29)"/><path class="cls-42" d="M215.83,87.59c.83-1.06.63-2.5,1.22-3.48.75-1.25.17-1.84-.55-2.5-1-.88-2.87-1.82-1.67-3.07s3.31-.74,4.89,0,2.81,4.19,2.26,5.64A5.09,5.09,0,0,1,215.83,87.59Z" transform="translate(-6.97 -7.29)"/><path class="cls-43" d="M121.47,73.24c2.92,0,4.89,1.61,4.9,3.9a5.1,5.1,0,0,1-4.8,4.87,4.73,4.73,0,0,1-4.52-4.48A4.1,4.1,0,0,1,121.47,73.24Z" transform="translate(-6.97 -7.29)"/><path class="cls-44" d="M98.65,69.9c-2.61,1.56-4.59-.58-7.42-.74C94.56,65.54,96.36,69.64,98.65,69.9Z" transform="translate(-6.97 -7.29)"/><path class="cls-45" d="M121.56,76.48c.72,0,1.64-.18,1.65.86A1.69,1.69,0,0,1,121.67,79a1.52,1.52,0,0,1-1.58-1.52C120,76.27,121,76.67,121.56,76.48Z" transform="translate(-6.97 -7.29)"/></svg>