<svg id="Layer_1" data-name="Layer 1" xmlns="http://www.w3.org/2000/svg" viewBox="0 0 286.12 285.42"><defs><style>.cls-1{fill:#010101;}.cls-2{fill:#fefefe;}.cls-3{fill:#070102;}.cls-4{fill:#fe7900;}.cls-5{fill:#fe7800;}.cls-6{fill:#fe7801;}.cls-7{fill:#d6000a;}.cls-8{fill:#fcc504;}.cls-9{fill:#fcfcfc;}.cls-10{fill:#fcc503;}.cls-11{fill:#f87907;}.cls-12{fill:#d1030b;}.cls-13{fill:#ce020c;}.cls-14{fill:#cf030c;}.cls-15{fill:#f37b0d;}.cls-16{fill:#ee7c11;}.cls-17{fill:#c1110f;}.cls-18{fill:#fcfcfb;}.cls-19{fill:#faf9f8;}.cls-20{fill:#f4780c;}.cls-21{fill:#e57518;}.cls-22{fill:#fbfbfb;}.cls-23{fill:#cd040b;}.cls-24{fill:#f6780a;}.cls-25{fill:#f8770b;}.cls-26{fill:#f07d0f;}.cls-27{fill:#f77809;}.cls-28{fill:#fbc408;}.cls-29{fill:#ce050a;}.cls-30{fill:#c42c12;}.cls-31{fill:#be060f;}.cls-32{fill:#e37311;}.cls-33{fill:#be0711;}.cls-34{fill:#eb7713;}.cls-35{fill:#e17b1f;}.cls-36{fill:#eb7913;}.cls-37{fill:#e67814;}.cls-38{fill:#d67015;}.cls-39{fill:#dc9529;}.cls-40{fill:#df781d;}.cls-41{fill:#d9761f;}.cls-42{fill:#fcc306;}.cls-43{fill:#030303;}.cls-44{fill:#e1e1e1;}</style></defs><title>19</title><path class="cls-1" d="M146.48,7.31c35.8,0,71.59-.07,107.38.06,5.59,0,11.27.24,16.7,1.77,11.72,3.3,18.62,11.43,21.95,22.8a22,22,0,0,1,.51,6.75c-.19,6.53-.62,13.05-.8,19.57-.1,4,.17,8,.17,12,0,52.59-.07,105.18.06,157.77,0,7.12-.08,14.25.38,21.41s.35,14.72-1.87,21.83c-3,9.52-9.27,15.89-18.51,19.69-5.52,2.27-11.17,1.77-16.82,1.68l-4.88,0-149.26-.14c-13.08,0-26.17-.3-39.24.12-7.63.25-15.21.09-22.81-.15C24.15,291.92,12.71,285,7.6,268.53A20.71,20.71,0,0,1,7,261.24c.87-13.62.3-27.24.33-40.86q.17-82.15,0-164.31c0-8.34-.54-16.71,1.19-24.88C10.76,20.69,17.3,13.62,27.19,9.4c5-2.14,10.24-2,15.46-2.05q51.92-.06,103.83,0Z" transform="translate(-6.94 -7.29)"/><path class="cls-2" d="M11.34,150.12q0-47,0-94c0-7,.29-14,.64-21C12.56,23,24.12,11.9,36.25,11.79c56.87-.54,113.73-.14,170.6-.24,15.08,0,30.16,0,45.24.13a101,101,0,0,1,15.46,1.07c12.4,2.06,21.34,13.74,21.18,25.68-.92,65.64-.33,131.3-.37,197,0,9.24.12,18.48-.13,27.73-.39,14.11-12.84,25.49-26.36,25.43-47.32-.24-94.65-.1-142-.11-21.35,0-42.7-.14-64,.07-7.91.08-15.82.13-23.58-1.15a25,25,0,0,1-20.55-21c-.78-5.42-.35-11-.35-16.55q0-49.86,0-99.72Z" transform="translate(-6.94 -7.29)"/><path class="cls-3" d="M107.88,86c-15.58-2.23-30.67-.28-45.66,3.28a46.3,46.3,0,0,1-7.25,1c-2.53.19-3.34-.83-2.72-3.31a9.06,9.06,0,0,1,4.62-5.79,39.71,39.71,0,0,1,16.51-4.61c14.38-1,21.44.27,34.76,4.1.92-2.43-.33-3.2-2.51-3.89-11.5-3.63-23.06-6.81-35.3-6.14-4.62.26-9.24.75-13.87.42a14.75,14.75,0,0,1-4-.74c-2.53-.91-2.92-3.1-.81-4.76a24.61,24.61,0,0,1,11-4.82c14.26-2.57,27.74.72,41,5.47.84.3,1.68.63,2.53.9s1.72.5,2.84.82c.44-.83.11-2,1.77-2.51,7.62-2.15,15.3-1.61,22.92-.72,3.41.39,3.37,4.24,4.47,6.81,0,.07,0,.18,0,.27.34,1.85-.77,4.69.5,5.38,1.78,1,4.4.5,6.65.42,7.68-.3,15.37-.7,23.05-1,12.59-.57,25.2-1,37.78-1.74,5.62-.34,11.21-.89,16.79.11,4.29.77,6.42,2.7,6.8,5.88.65,5.33-.92,8.83-4.92,10.68-1.3.6-2.74,1.42-4.06,1.33-2.66-.19-2.92,1.26-3,3.24-.06,1.07-.39,2.13-.47,3.21-.15,2.15.25,4.7-2.28,5.62-3.26,1.17-6.73,1.87-10,.17-2.12-1.08-2.1-3.26-1.84-5.29.9-7,.94-6.89-6-5.94-1.84.25-2.34.76-2.24,2.53a54.35,54.35,0,0,1-.24,6c-.15,2.55-1.75,3.89-4,4.53a15.55,15.55,0,0,1-7,0,3,3,0,0,1-2.57-3.56c.2-1.81.37-3.61.65-5.4s.08-2.53-2-2.15c-3.56.65-7.16,1.06-10.85,1.59a12.92,12.92,0,0,1,.7,7.43,3.18,3.18,0,0,1-2.28,2.92,13.22,13.22,0,0,1-9.51-.45c-1.36-.59-1.68-2.06-1.46-3.53.15-1,.35-1.92.55-3.07-5.75.44-9.34,3.79-12,8.25a22.66,22.66,0,0,0-2.84,10.35c-.18,3.68.18,4.14,3.72,5,5.76,1.44,6.64.84,7.12-4.86.28-3.36,1.4-4.54,4.64-4.08,2.34.32,4.67.22,7,.47s3.31,1.62,3,3.92a17,17,0,0,1-.57,3.74c-.82,2.15.08,2.52,2,2.64,6.75.41,6.75.46,6.8-6.3,0-3.44,1.33-4.64,4.8-4.62a27,27,0,0,1,6.64,1.31,3,3,0,0,1,2.27,3,42.89,42.89,0,0,1,0,5.44c-.21,1.62.44,1.84,1.75,1.75,1-.06,2,0,3,0,1.6,0,3.61,1.31,4.65.16s.58-3.07.8-4.67c0-.18,0-.36.05-.54.49-4.72.86-5.07,5.5-4.81a37.16,37.16,0,0,1,4.56.58c1.88.36,3.12,1.37,3.11,3.48,0,2.63-.77,5.65.26,7.79s4.46,2.29,6.42,4.05c.47.42,1,.75,1.48,1.19a6.81,6.81,0,0,1,2.1,6.66c-.51,2-2.86,1.71-4.61,1.89-9,.95-17.89-.1-26.84-.33-1.45,0-2.9-.21-4.35-.21a377.71,377.71,0,0,1-45.6-2.6c-3.14-.38-6.3-.45-9.32-1.52-4-1.42-7.41-3.41-7.79-8.21-.18-2.25-1.11-1.62-2.37-.85a14.43,14.43,0,0,0-6.92,11.06c-.65,4.84-1.72,9.64-2,14.49-.65,10.15,2.32,18.7,13.74,23.73,3.7,1.63,7.38,3.35,11.18,4.72a55.5,55.5,0,0,0,12.94,2.64c9.26,1,18.66,1,27.87,2.07,10.88,1.21,22,2.74,31.72,9,8.53,5.48,12.23,13.44,13.58,23,0,.36,0,.72.08,1.09.31,3.69.3,3.58,4,3.26a32.63,32.63,0,0,1,10.79.57c4.58,1.13,9.18,7.77,8.88,12.92a41,41,0,0,1-1.63,10.41c-.57,1.79,0,2.54,1.47,3.13a16.89,16.89,0,0,1,2,.78c1.57.87,3.35,1.61,3.45,3.81a5.29,5.29,0,0,1-3.08,5.05,22.39,22.39,0,0,1-9.9,2.52,12.81,12.81,0,0,1-5.88-.68,6.23,6.23,0,0,1-3.49-8.48c2-4.44,7.78-7.06,12.75-5.64,0-3.27,1-6.38,1.21-9.56.36-6.77-2.79-12.37-11.34-12.7a37.26,37.26,0,0,0-4.36.05c-4,.29-4,.32-4.43,4.19a5.36,5.36,0,0,1-3,4.24,37.82,37.82,0,0,1-17.8,5.06q-33.51,1-67-.6c-9-.42-18,0-26.95-.45-9.3-.44-18.7-.14-27.77-2.66-4.84-1.34-9.68-2.8-12.92-7.33-1.62-2.27-1.62-4.74-2.09-7.17-.23-1.19-.42-1.64-1.84-1.53-9,.67-13.8,5.72-13.93,14.72a22,22,0,0,1-.91,6.42c-.5,1.58.18,2.16,1.47,2.42a11.56,11.56,0,0,1,4.87,2.21,5.78,5.78,0,0,1,1.68,7.3c-3.73,7.41-11.86,6.35-16,2.3-3-2.89-1.42-8.84,2.87-11a3.39,3.39,0,0,0,2.16-3.42c.17-3,.36-6,.66-8.93.76-7.7,7.19-14.79,15.7-14.67,2.23,0,2.83-.7,3-2.86a334.92,334.92,0,0,1,8.14-51.61A99.63,99.63,0,0,1,97,120.12c3.79-4.35,6.89-9.31,10.27-14a22.11,22.11,0,0,0,3.94-8.8c.22-1.17,1-2.39-.2-3.41-1.34-1.13-2.79-1.74-4.51-.57-1,.71-2.29,1.12-3.28,1.88-8.4,6.5-17.61,11.81-26.15,18.08-3.21,2.36-6.15,5.08-9.32,7.5-1.23,1-2.71,2.29-4.38,1.09s-1.46-2.93-1.06-4.71c1.45-6.3,5.67-10.69,10.48-14.41,10-7.76,21.48-12.67,33.68-15.92A1.9,1.9,0,0,0,107.88,86Z" transform="translate(-6.94 -7.29)"/><path class="cls-4" d="M202,204.53l-39.9-1.45c-2.08-.07-4.17-.15-6.25-.16-18.21-.12-36.42-.78-54.63-.53-3.52.05-7,1.11-10.54.35a3.35,3.35,0,0,1-1.12-1.82c-4-14.13-4.37-28.26.32-42.28,2-5.88,5.34-11.12,8.9-16.16a114.1,114.1,0,0,0,15.79-33.28,47.63,47.63,0,0,1,1.52-4.65c.31-.72.58-1.67,1.65-1.48.88.15,1,1,1,1.72a34.91,34.91,0,0,1,.53,4c0,5.72.7,11.4.82,17.1a2,2,0,0,1-.37,1.28,15.85,15.85,0,0,1-3.26,3.18c-.59-.9-1.21-1.34-2-.19-4.26,6.11-8.63,12.12-8.21,20.19.25,4.87-.29,9.79,1.2,14.56a11.59,11.59,0,0,0,2.55,5.14c-.19-2.88-.2-5.75-.52-8.6a91.52,91.52,0,0,1-.13-16.55c.19-2.71.84-5.73,3.72-7.34-.07,3.91-1.39,7.62-1.86,11.47a47.1,47.1,0,0,0-.06,14.32,21.61,21.61,0,0,0,11.63,15.54c8.7,4.62,17.89,8.22,27.84,9.17,8.74.84,17.52,1.25,26.25,2,11.93,1,24,2.58,34.12,10.08,2.59,1.92,5.3,3.81,6.31,7.16l0,0c-1.18-1.24-2.71-1.06-4.21-1.09a4.36,4.36,0,0,1-2.83-.48,26.11,26.11,0,0,0-11.41-8,76.59,76.59,0,0,0-27-5.44,3.86,3.86,0,0,0-2.77.57,49.25,49.25,0,0,0,9.84,2.25,71.94,71.94,0,0,1,20.72,7.15C200.65,202.72,201.94,203.05,202,204.53Z" transform="translate(-6.94 -7.29)"/><path class="cls-5" d="M216.24,216.69c1.09,0,2.17,0,3.25,0,1.37,0,1.93.77,2.11,2a66.91,66.91,0,0,1,.64,10,3.48,3.48,0,0,1-2.05,3.22,37.58,37.58,0,0,1-16.74,4.73c-3.07.18-6.15,0-9.23-.07-21.3-1-42.09-5.1-62.81-9.84-8.48-1.94-17-3.71-25.49-5.7a25.41,25.41,0,0,1-9.09-4.15c-.87-.63-2.2-1.2-1.34-2.75,14.26-1.47,28.56-2.13,42.89-2.31a231.89,231.89,0,0,1,32.16,1.58c3.25.41,6.69,0,9.71,2,1.49,1,3.09-.63,4.75-.48,3.61.32,7.23.46,10.85.7,5,.33,9.93.69,14.9,1,1.27,1.89,1.07,4.1,1.42,6.2.16,1,.09,2.68,1.15,2.77,1.38.12,1.33-1.59,1.73-2.63C215.82,220.93,214.94,218.6,216.24,216.69Z" transform="translate(-6.94 -7.29)"/><path class="cls-6" d="M160.68,79.31c11.56-1.23,23.19-1.09,34.78-1.7,7.34-.39,14.66-1.06,22-1a23.27,23.27,0,0,1,6.68,1c2.43.75,3.39,2.55,3.57,4.88.18,2.5-.41,4.78-2.8,6A11.42,11.42,0,0,1,219,90.14c-13.58-.73-26.92,1.62-40.35,3-7.77.82-15.28,2.73-22.88,4.43-9.53,2.13-14.49,9.64-15.81,17.82-.15,1-.29,2-.43,3-.65,4.83.77,7,5.55,7.86,10.09,1.91,20.32,2.16,30.55,2.29q11.68.15,23.32,1.26c2.71.26,5.42.45,8.12.67a22,22,0,0,1,12.45,5.48c.94.78,2.1,1.82,1.52,3.2-.46,1.08-1.89,1-2.88,1-8.88-.18-17.76-.46-26.64-.73-2-.06-4-.26-6-.22-6.72.13-13.41-.37-20.11-.68-7.59-2.13-15.47-3.59-22.49-7.23-9.23-4.8-9.11-5.94-8.35-16,.1-1.25.4-2.52.49-3.77.58-7.67,4.53-13.66,9.53-19.08,2.71-2.94,5.69-5.62,8.44-8.52C155.18,81.62,158.28,81.08,160.68,79.31Z" transform="translate(-6.94 -7.29)"/><path class="cls-7" d="M119.78,127.21a93.55,93.55,0,0,1-1-13.78c-.08-3.34-.58-6.59-1-10.59a24.47,24.47,0,0,0-2.35,6.27,117.48,117.48,0,0,1-16.28,34.18c-5.31,7.59-10,15.65-11,25.1-1,9.82-1.58,19.68,1.42,29.35.51,1.63.78,3.33,1.15,5-6.06,1.21-12.26,1-18.37,1.66-1.22.13-1.5-.27-1.35-1.55,1.07-9.35,2.45-18.66,4.24-27.87,2.33-11.94,5.67-23.65,11-34.65,3.34-6.85,8.46-12.47,13-18.5,4.27-5.68,8.74-11.22,12-17.58a17.4,17.4,0,0,0,2.11-7c.13-2.16,1.08-3.26,3.44-3a20.3,20.3,0,0,0,6.77-.42c1.46-.33,1.88.34,1.55,1.52-1.21,4.33-.86,8.83-1.59,13.21a46.65,46.65,0,0,0-.06,14.87C123.92,126.39,121.46,126.42,119.78,127.21Z" transform="translate(-6.94 -7.29)"/><path class="cls-7" d="M95.49,214.13c1.78,3.26,5,4.64,8.23,5.45,9.72,2.47,19.54,4.61,29.35,6.7,10.35,2.21,20.63,4.8,31.12,6.26,7.88,1.09,15.78,2.05,23.66,3.08,2.13.28,4.25.63,6.38.95a262.4,262.4,0,0,1-31.48-.15c-.55,0-1.09-.06-1.63-.06-15.52.19-31-.93-46.51-.89-6.7,0-13.45.05-20.12-.52-6.25-.53-12.58-1.56-18.24-4.54-3-1.58-5.74-3.68-5.7-7.82,0-2-1-3.91-.52-6.11.35-1.62.82-2.08,2.39-2.07,6.44,0,12.88-.06,19.32-.11C93,214.28,94.24,214.19,95.49,214.13Z" transform="translate(-6.94 -7.29)"/><path class="cls-7" d="M160.68,79.31a1.78,1.78,0,0,1-1.74,2,8.07,8.07,0,0,0-4.52,2.34,111.21,111.21,0,0,0-14.68,16c-3,4-3.15,8.76-4.14,13.31-.38,1.76-.19,3.63-.54,5.39-1.23,6.32,2.52,9.46,7.38,12,5.19,2.74,11,3.63,16.43,5.57,2.2.79,4.37,1.69,6.54,2.54-3.1.64-6.18-.14-9.16-.58-6.64-1-13.37-1-19.95-2.16a21.68,21.68,0,0,1-6.82-2.53c-1.82-1.05-1.42-3.51-2-5.32-3.23-9.63-1-19.35-.28-29,.14-1.88-.63-4.31.32-5.47,1.09-1.32,3.52.19,5.41-.06,3.45-.46,4.95-2.56,5-7.42.1-6.58.1-6.6,6.71-6.63C150,79.29,155.33,79.31,160.68,79.31Z" transform="translate(-6.94 -7.29)"/><path class="cls-8" d="M202,204.53a55.72,55.72,0,0,0-18.59-7.62c-4.58-.9-9.13-2-13.68-3-.84-.2-2-.31-1.88-1.53s1.44-.81,2.23-.83a75.07,75.07,0,0,1,32,6.72,20.51,20.51,0,0,1,7,5c.61.69,1.66,1.23,1.16,2.47A48.53,48.53,0,0,1,202,204.53Z" transform="translate(-6.94 -7.29)"/><path class="cls-9" d="M132.34,78.16a8.62,8.62,0,0,1-8.61,8.61,9.1,9.1,0,0,1-8.77-8.7c0-4.47,4.44-8.91,9-8.87S132.36,73.48,132.34,78.16Z" transform="translate(-6.94 -7.29)"/><path class="cls-10" d="M113.11,137.6a18.21,18.21,0,0,0-3.22,10.67c.19,6.86,0,13.73,1.08,20.55a6.08,6.08,0,0,1-.26,3.43,8.39,8.39,0,0,1-3-4.24c-1.82-4.62-1.79-9.49-2.24-14.36-.87-9.6,3.29-17.13,8.73-24.32.56-.74,1.24-1.94,2.36-1.37s-.2,1.59,0,2.43A26.64,26.64,0,0,0,113.11,137.6Z" transform="translate(-6.94 -7.29)"/><path class="cls-11" d="M85.23,63.61a82.07,82.07,0,0,1,17,4.29c.93.32,1.84.74,2.8,1,4.26,1.23,4.26,1.22,3.58,6-11.41-3.91-23-7-35.1-7.18,0-.27,0-.6.24-.7C77.43,65.5,81.13,63.88,85.23,63.61Z" transform="translate(-6.94 -7.29)"/><path class="cls-12" d="M80.56,107.07c-4.61,3.3-8.81,7.08-13.11,10.76-.56.47-1.13,1.18-1.8.91-1-.4-.51-1.44-.39-2.17.37-2.39,1.87-4.22,3.33-6,5.1-6.25,11.77-10.37,19-13.77,1.19,1.5.17,2.67-.62,3.83A28.83,28.83,0,0,1,80.56,107.07Z" transform="translate(-6.94 -7.29)"/><path class="cls-13" d="M85.23,63.61l-11.76,4.1A113.33,113.33,0,0,1,53,68.12C56.2,64.66,60,63.73,63.67,63A63.43,63.43,0,0,1,84.11,63C84.51,63,84.86,63.39,85.23,63.61Z" transform="translate(-6.94 -7.29)"/><path class="cls-14" d="M74,84.05c-4.29.94-8.55,2-12.87,2.75-1.6.28-3.19.63-4.79.93-1.2.22-1.46-.13-1-1.28a6.6,6.6,0,0,1,3.4-3.71c8.57-4,17.64-5,27-4.46a2.38,2.38,0,0,1,.74.31C81.71,79.1,78.28,82.55,74,84.05Z" transform="translate(-6.94 -7.29)"/><path class="cls-15" d="M74,84.05c1.69-1.17,3.46-2.26,5.06-3.55,2.2-1.78,4.71-2.06,7.37-1.91A61.38,61.38,0,0,1,108,83.14c-5.16-.48-10.29-.65-15.44-.71C86.31,82.36,80.18,83.4,74,84.05Z" transform="translate(-6.94 -7.29)"/><path class="cls-16" d="M80.56,107.07c1.83-2.11,3.64-4.24,5.5-6.33a5,5,0,0,0,1.49-3.94,149.92,149.92,0,0,1,19.1-8.22c.62-.22,1.67-1,2,.28.27,1-.88,1-1.45,1.16-5.2,1.92-9.2,5.7-13.69,8.71C89.26,101.6,85.16,104.73,80.56,107.07Z" transform="translate(-6.94 -7.29)"/><path class="cls-9" d="M211,92.78c1.26.16,3.07-.77,4,.19s-.28,2.5-.39,3.82l0,.54c-.28,4.88-2.37,6.42-7.18,5.34A1.66,1.66,0,0,1,206,101c-.07-1.08,0-2.17,0-3.26C206,92.91,206,92.91,211,92.78Z" transform="translate(-6.94 -7.29)"/><path class="cls-9" d="M192.94,94.39c-.87,2.07-.64,3.89-.68,5.68,0,2.88-.83,3.66-3.72,3.79-4.35.19-4.35.19-4.35-4.07s0-4.4,4.26-5C189.78,94.57,191.13,94.54,192.94,94.39Z" transform="translate(-6.94 -7.29)"/><path class="cls-17" d="M111.09,90.16c.06-6.32-.28-12.65.29-19a6.17,6.17,0,0,0-.14-1.87c-.35-1.54.21-2.1,1.79-2.13,2.75,0,5.46-1,8.3-.36-9.64,3.62-12.16,11.78-6.09,19.57.18,3.42-1,5-3.39,4.45A1.26,1.26,0,0,1,111.09,90.16Z" transform="translate(-6.94 -7.29)"/><path class="cls-18" d="M177.35,126.1c1-2.36.74-4.27.72-6.15s.79-2.66,2.67-2.16a7,7,0,0,0,.8.13c5.33.76,6.31,2.32,4.85,7.55-.18.64-.51.59-.92.62s-.72,0-1.08,0Z" transform="translate(-6.94 -7.29)"/><path class="cls-19" d="M159.68,125.19H159c-4.2-.08-4.17-.08-3.8-4.27.19-2,.76-3.49,3.25-2.88a2.44,2.44,0,0,0,.54,0c6.75-.18,7.05.26,5,6.64-.24.73-.59.76-1.15.72Z" transform="translate(-6.94 -7.29)"/><path class="cls-20" d="M174.8,205.72c6.36.69,12,.17,17.93,1.32-3.64,1.78-7,3.51-10.4,5a2.52,2.52,0,0,1-2.9-1C178.1,209.51,176.73,208,174.8,205.72Z" transform="translate(-6.94 -7.29)"/><path class="cls-21" d="M111.09,90.16c1.62,1,2.71.51,3.31-1.25l.84-2.51c6.51,6,15.74,4,19.68-4.22v1.93c.06,6-.36,6.14-6.28,6.67-4.59.41-9.19.23-13.77.69C113.57,91.6,111.84,92,111.09,90.16Z" transform="translate(-6.94 -7.29)"/><path class="cls-22" d="M209.74,124.11c0,3.83,0,3.83-3.41,3.63l-1.09,0c-3.35-.17-3.5-.34-3-3.67.65-4.7,1.78-5.4,6.39-3.79C211,121.06,208.93,123.18,209.74,124.11Z" transform="translate(-6.94 -7.29)"/><path class="cls-23" d="M245.13,259c-3,.18-5.93,1.83-9,.34-2.48-1.18-3.13-3-1.52-5.19a8.75,8.75,0,0,1,5.75-3.64,2.31,2.31,0,0,1,.59,1.76,5,5,0,0,0,2.73,4.68C244.37,257.39,245.27,257.84,245.13,259Z" transform="translate(-6.94 -7.29)"/><path class="cls-24" d="M94.86,205.32c5.38-1.15,10.51-.62,16.09-.74-2.3,2-4.29,3.72-6.24,5.48a1.58,1.58,0,0,1-2,.23A36.29,36.29,0,0,1,94.86,205.32Z" transform="translate(-6.94 -7.29)"/><path class="cls-25" d="M245.13,259a4.93,4.93,0,0,0-1-.87c-3.25-1.56-4.49-4.11-3.85-7.62a3.78,3.78,0,0,1,4.16,1.07,29.85,29.85,0,0,0,4,2.69c.72.5,1.91.82,1.77,1.85a2.82,2.82,0,0,1-2.06,2A7.82,7.82,0,0,1,245.13,259Z" transform="translate(-6.94 -7.29)"/><path class="cls-22" d="M167.18,101.14c-.2,1,.39,3.26-.7,3.48-2.19.45-4.63,1.34-6.86.17-1.36-.71-.49-2.24-.61-3.4-.1-.93,0-1.76,1.24-2s2.59-.74,3.89-1.07C167.28,97.52,167.28,97.53,167.18,101.14Z" transform="translate(-6.94 -7.29)"/><path class="cls-26" d="M195.78,206.71a100.56,100.56,0,0,1,15.5,1.83c-2.11,1.5-4,2.83-5.9,4.2-.82.6-1.61.93-2.4.08C200.93,210.63,198,209.5,195.78,206.71Z" transform="translate(-6.94 -7.29)"/><path class="cls-4" d="M217.34,207.32c.62.16.75.75,1,1.21.95,1.94,2.7,4.2,1.89,6-.67,1.48-3.28-.13-5.06-.1-1.95,0-4,.39-6-.6,2.37-2.81,6.1-3.69,8.27-6.5Z" transform="translate(-6.94 -7.29)"/><path class="cls-27" d="M48.86,246.07c2.51-.82,6.2.56,7.37,2.76,1,1.85-.09,3.79-3,5.49C49.87,253.74,47.63,249.47,48.86,246.07Z" transform="translate(-6.94 -7.29)"/><path class="cls-28" d="M216.24,216.69a27.65,27.65,0,0,1-.52,7,5.84,5.84,0,0,1-1.28,2.63c-1,1.11-1.69,1.53-2.3-.41-.95-3-1-6.16-1.39-9.27Z" transform="translate(-6.94 -7.29)"/><path class="cls-29" d="M48.86,246.07c.07,3.47,1.24,6.37,4.34,8.25a6.49,6.49,0,0,1-5.48.1c-1.77-.66-3.71-1.51-3.18-4C45,248.1,46.1,246.2,48.86,246.07Z" transform="translate(-6.94 -7.29)"/><path class="cls-30" d="M98.48,211.09,85,211.73c1.74-2.69,4.43-3.76,6.38-5.64.7-.68,1.31.34,1.8.7C94.86,208,96.41,209.39,98.48,211.09Z" transform="translate(-6.94 -7.29)"/><path class="cls-31" d="M78.4,212.15c-2.47,0-4.43,0-6.39,0-1,0-1.78-.39-1.85-1.52-.1-1.44-.31-3,.84-4.09a2.33,2.33,0,0,1,3,.1,10.22,10.22,0,0,1,1.64,1.77C76.47,209.46,77.23,210.56,78.4,212.15Z" transform="translate(-6.94 -7.29)"/><path class="cls-32" d="M128.75,204.81c-1.79,1.36-3.32,2.43-4.75,3.64a2.05,2.05,0,0,1-2.92-.17c-1.23-1-2.37-2.13-3.83-3.47Z" transform="translate(-6.94 -7.29)"/><path class="cls-33" d="M87.65,205.85c-2.11,1.55-3.57,2.56-5,3.68a2.32,2.32,0,0,1-2.74.37c-1.18-.75-2.84-1.62-2.71-3.07s1.92-.6,2.93-.87C82.33,205.39,84.57,205.58,87.65,205.85Z" transform="translate(-6.94 -7.29)"/><path class="cls-34" d="M199.27,213.13c-3.84.66-7.29-.41-11.31-.4,2-1.44,3.63-2.63,5.28-3.79a1.28,1.28,0,0,1,1.89.24C196.39,210.47,197.73,211.68,199.27,213.13Z" transform="translate(-6.94 -7.29)"/><path class="cls-35" d="M136.67,205.25H149C144,209.5,142.17,209.52,136.67,205.25Z" transform="translate(-6.94 -7.29)"/><path class="cls-36" d="M118.16,209.52c-2.26.17-4.52.36-6.78.52-.7.05-1.4,0-2.74,0l4.73-4.28a1.26,1.26,0,0,1,1.9,0c1.19,1,2.45,1.84,3.67,2.75Z" transform="translate(-6.94 -7.29)"/><path class="cls-37" d="M176.67,211.54l-10.54-1.1c2.18-1.35,3.94-2.46,5.72-3.54.66-.4,1.18-.15,1.62.44C174.42,208.61,175.4,209.87,176.67,211.54Z" transform="translate(-6.94 -7.29)"/><path class="cls-38" d="M127.44,209.08c4.35-4.52,5.07-4.54,9.64,0Z" transform="translate(-6.94 -7.29)"/><path class="cls-39" d="M135.42,75.79c-1.88-4.58-2.42-5.19-8-8.94.36,0,.7,0,1,0C135,67.62,136.06,69,135.42,75.79Z" transform="translate(-6.94 -7.29)"/><path class="cls-40" d="M168.43,205.53c-5.31,3.74-8.14,3.61-11.59-.33C160.65,205.18,164.17,206,168.43,205.53Z" transform="translate(-6.94 -7.29)"/><path class="cls-41" d="M157.29,209.49c-2.82,0-5.32.15-7.82-.53C153.41,204.92,153.84,204.94,157.29,209.49Z" transform="translate(-6.94 -7.29)"/><path class="cls-8" d="M188.21,137.77c3.1-1.45,5.75-1.52,8.28-1.79a107.26,107.26,0,0,1,14.89-.63,8.09,8.09,0,0,0,2.41-.21c1.09-.32,2-.44,2.37.89a2.11,2.11,0,0,1-1.19,2.71,5.42,5.42,0,0,1-2.37.46c-6.87,0-13.75.2-20.6-.58C191,138.5,189.91,138.16,188.21,137.77Z" transform="translate(-6.94 -7.29)"/><path class="cls-42" d="M219,78.12c2.94,0,5.47,2.24,5.41,4.51s-3.11,5.62-5.17,5.68c-.86,0-1.17-.4-.88-1.2s.65-1.68,1-2.53c.52-1.44.35-2.72-1.11-3.5-.85-.45-2.16-.51-1.77-1.91S218.17,78.27,219,78.12Z" transform="translate(-6.94 -7.29)"/><path class="cls-43" d="M128.58,77.19A5.08,5.08,0,0,1,123.73,82a4.72,4.72,0,0,1-4.47-4.52,4.09,4.09,0,0,1,4.21-4.25C126.58,73.23,128.6,74.79,128.58,77.19Z" transform="translate(-6.94 -7.29)"/><path class="cls-44" d="M123.74,76.46c.91,0,1.8-.08,1.68,1A1.71,1.71,0,0,1,123.78,79a1.57,1.57,0,0,1-1.51-1.66C122.25,76.18,123.36,76.76,123.74,76.46Z" transform="translate(-6.94 -7.29)"/></svg>