<svg id="Layer_1" data-name="Layer 1" xmlns="http://www.w3.org/2000/svg" viewBox="0 0 286.12 285.42"><defs><style>.cls-1{fill:#010101;}.cls-2{fill:#fefefe;}.cls-3{fill:#020304;}.cls-4{fill:#020303;}.cls-5{fill:#75cbdc;}.cls-6{fill:#4298a9;}.cls-7{fill:#ded93b;}.cls-8{fill:#fdfdfd;}.cls-9{fill:#fcfcfc;}.cls-10{fill:#dcd83e;}.cls-11{fill:#ddd93c;}.cls-12{fill:#4297a7;}.cls-13{fill:#74c9da;}.cls-14{fill:#d9d845;}.cls-15{fill:#83c4c0;}.cls-16{fill:#4398a8;}.cls-17{fill:#77c9d9;}.cls-18{fill:#030303;}.cls-19{fill:#020202;}.cls-20{fill:#ee8777;}.cls-21{fill:#fafafa;}.cls-22{fill:#f9f9f9;}</style></defs><title>21</title><path class="cls-1" d="M146.47,7.32c35.79,0,71.59-.11,107.38.09,7,0,14.12.32,20.81,3.14A31.24,31.24,0,0,1,292.94,41.4a139.16,139.16,0,0,0-.5,22c.15,2.26-.05,4.54-.05,6.81,0,53-.07,105.9.07,158.85,0,6.76-.07,13.53.37,20.33.47,7.32.36,14.91-1.94,22.09-3,9.39-9.3,15.69-18.44,19.44-5.52,2.26-11.16,1.79-16.81,1.67-1.72,0-3.44,0-5.16,0l-144.34-.14c-15.45,0-30.9-.31-46.33.15-6.81.2-13.58,0-20.36-.2-15.26-.39-26.73-7.32-31.84-23.84a20.69,20.69,0,0,1-.6-7.29c.88-13.61.31-27.24.34-40.85q.17-82.29,0-164.58c0-8.15-.49-16.33,1.15-24.34C10.76,20.36,17.73,13.14,28.19,9c4.71-1.86,9.59-1.64,14.45-1.64q51.92-.09,103.83,0Z" transform="translate(-6.94 -7.29)"/><path class="cls-2" d="M11.34,150.07q0-46.72,0-93.46c0-8-.29-16,1.07-23.9,2.31-13.28,14.69-21,25.26-21q107-.33,213.92,0a97.14,97.14,0,0,1,16,1.1c12.93,2.18,21.3,14.38,21.14,25.71-.94,65.73-.33,131.48-.37,197.22,0,9.15.12,18.3-.15,27.46-.41,14.23-12.94,25.4-26.12,25.35-52.5-.2-105-.08-157.51-.09-16.26,0-32.53-.22-48.78.09-7,.14-14-.18-20.91-.72a25.6,25.6,0,0,1-23.36-22.25c-.74-5.34-.16-10.86-.17-16.3V150.07Z" transform="translate(-6.94 -7.29)"/><path class="cls-3" d="M153.14,42.12c-1.9,4.06-2.7,8.11-3.7,12.12-.39,1.57.45,1.43,1.44,1.34,8.16-.71,16.33-.42,24.5-.32,5,.06,7.59,2.79,7.61,7.83,0,3.63.06,7.26,0,10.89a2.3,2.3,0,0,0,1.38,2.49c5.22,2.75,7.49,7.23,6.83,13-.62,5.56-3.79,9.28-9.13,11-1.47.46-1.51.94-1.38,2.41.46,5.23.55,10.49.81,15.74.05,1.08.22,2.15.35,3.23.5,4.12.5,4.15,4.52,4.79,12.76,2,21.85,9.11,28.33,20.06,8.14,13.75,11.86,28.74,13.16,44.49.51,6.14,1.07,12.28,1,18.46a43.54,43.54,0,0,1-1.46,11.26,3.67,3.67,0,0,0-.18,1.6c.91,5-3,9-7.15,10.51a72.57,72.57,0,0,1-28.36,3.73c-16.61-.82-33.24.25-49.83-.63-13.37-.71-26.76-1.24-40.12-2.41-6.3-.55-12.63-.84-18.9-1.73-1.34-.19-1.82.15-1.81,1.64,0,4.44.33,8.9-.38,13.32-.2,1.25-.35,2.5-.56,4,3.05-.59,5.76.69,8.52,1.74,1.65.63,2.55,1.81,2.18,3.58a29.51,29.51,0,0,0-.41,7.32c.06,1.41-.31,2.19-1.74,2.37-5.47.67-10.93,1.41-16.48,1-2.23-.18-2.86-1.29-2.5-3.23a52.49,52.49,0,0,0,.5-8.4c.09-3.63.83-4.57,4.44-4.34,2.61.17,3.24-.52,3.19-3.17-.08-5,.32-10,.69-14.93.08-1.08,0-1.35-1.06-1.61-8.86-2.22-9.5-3.34-8.54-12.34a286.3,286.3,0,0,1,9.22-47.19c4.77-16.94,14.28-30.71,29.44-40.18,1-.62,1.92-1.36,2.88-2,3-2.19,4.76-4.81,4.47-8.91-.44-6.15.8-12.28,1.11-18.43a2.73,2.73,0,0,0-1.39-2.8,13.19,13.19,0,0,1-6.2-12.76A13,13,0,0,1,117,75.15c1-.38,1.16-.72,1.11-1.77-.15-3,.16-6-.09-9-.2-2.38.87-3.52,2.83-4.22,6.21-2.23,12.55-3.93,19.21-3.9,2.1,0,4.42.34,6.16-.61s1-3.53,1.82-5.26c.57-1.21.89-2.53,1.43-3.76,1.33-3,3.14-5.85,2.54-9.53-.27-1.67.64-3.53,1.71-5,1.72-2.45,3.56-2.95,6.75-2.18,2.07.5,4.35.27,5.72,2.49a7.79,7.79,0,0,1-.14,8.66c-2.34,3.12-5.5,4.32-8.75,3.29A12.34,12.34,0,0,1,153.14,42.12Z" transform="translate(-6.94 -7.29)"/><path class="cls-4" d="M195.74,265.78a16.21,16.21,0,0,1-6.11-1c-3.7-1.3-4.29-2.08-3.91-5.89.72-7.21.71-7.26,7.81-8.37,1.19-.18,1.42-.46,1.4-1.6-.07-3.18,0-6.35,0-9.53,0-.82-.1-1.91.9-2,1.2-.09,1.21,1.12,1.27,2,.24,3.07.47,6.14.6,9.22.05,1.25.25,2.08,1.79,2a12.35,12.35,0,0,1,2.14.29c3.25.35,4.69,1.65,5.24,4.77.41,2.31-.23,4.69.53,7,.17.51-.24.72-.73.89A30.49,30.49,0,0,1,195.74,265.78Z" transform="translate(-6.94 -7.29)"/><path class="cls-5" d="M134.44,59.18c12.24-1,24.5-1.73,36.79-1.73a10.23,10.23,0,0,1,4,.57c-.12,1.84-2.06,3.35-1.27,5.26,1.37,3.3.44,7.18,2.69,10.23a2.52,2.52,0,0,1,.47,1.52c-6.13.88-10.34,4-11.59,10.29-1.28,6.45,1.29,11.21,7.68,14.8.11.14.31.33.27.45-1.18,3.7.64,7.25.52,10.9-.1,3,1,5.8,2,8.66,1.18-.5.73-1.53,1.15-2.15s.63-1.22,1.4-.47c.11,1.62.18,3.23.33,4.84.36,4,1,4.74,4.82,5.93l3.29,1a1.25,1.25,0,0,1-1.39.64c-1.56-.64-1.94,1-3,1.41s-.33,1.05.07,1.53a6.34,6.34,0,0,0,2.73,1.74c3.55,1.33,6.44,3.77,9.23,6.13,3.35,2.85,5.72,6.72,8.62,10.05.34.4.49,1,.89,1.36,5.93,5.43,8.81,12.64,11.63,20.07,1.05-2.5-.39-4.53-.8-6.65a47.35,47.35,0,0,0-6.89-17.85c-4.11-6-8.7-11.83-15.36-15.44-.6-.33-1.74-.58-.87-1.73,11,3.63,17.84,11.62,22.81,21.7,6.39,13,9.51,26.75,10.37,41.11.23,3.89.6,7.76.94,11.64.56,6.36-1.26,12.58-1.08,18.94a5.74,5.74,0,0,1-3.16,5.08,32.11,32.11,0,0,1-13.65,3.85c-4.88-.32-9.56-1.91-14.49-2.11a212.52,212.52,0,0,0-26.35.13c-4.12.35-8.15-.33-12.2-.56-5.51-.32-11-.88-16.51-1.52-.91-.11-2.33.11-2.32-1.21s1.34-1.31,2.33-1.42c6.13-.63,12.3-.94,18.28-2.62,1-.27,1.91-.56,2.86-.85A62.41,62.41,0,0,1,170,222c8.36,0,16.68-.83,25-.71,9.69.14,11.24-1.53,11.24-11.16,0-3.36,0-6.72,0-10.08a72.85,72.85,0,0,0-6.16-30.71c-2.72-6.18-7.11-10.91-12-15.31-1.81-1.63-3.61-3.3-5.55-4.82-10.68-8.39-22.86-11-35.92-8.31-5.21,1.09-10.3,3.4-15.29,5.6-10.83,4.77-19.47,12.19-26.63,21.48a5.17,5.17,0,0,1-2.15,2,3.72,3.72,0,0,0-3.71,1.68c-2.51,3.16-4.21,6.81-6.06,10.3a100.88,100.88,0,0,0-8.13,19.55,51,51,0,0,0-1.83,13.14c0,1.56.36,3.54-2,3.85-1.59.2-2.69-1.43-2.68-4,0-10.54,2.3-20.65,5.65-30.62,3.5-10.45,8.85-19.89,14.92-28.94a67.07,67.07,0,0,1,14-14.71c6.09-4.9,12.62-9.14,19.13-13.45a15.91,15.91,0,0,0,3.52-3c1.81-2.14,1.75-4.13-.82-5-4-1.38-4.33-3.87-3.61-7.34,1-4.87-.08-10,1.79-14.77,3.72-5.51,4-11.13.57-16.88-1.29-3.91,0-7.86-.13-11.8-.11-2.31.59-4.64.3-7A1.6,1.6,0,0,1,134.44,59.18Z" transform="translate(-6.94 -7.29)"/><path class="cls-6" d="M132.79,96.66c-.41,5.94-.51,11.91-1.44,17.81-.17,1.06-.49,2.07,1.19,2.45,2.26.51,4.71,1.58,5,4s-2,4.2-3.87,5.54c-4.36,3.06-8.87,5.92-13.3,8.87-13.46,9-23.14,21-30.23,35.51A112.74,112.74,0,0,0,79.59,204a66.4,66.4,0,0,0-.78,11.37c0,1.57.8,2.61,2.17,2.57,1.61,0,1.07-1.61,1.09-2.59a63.57,63.57,0,0,1,5.8-24.54c2.55-5.7,5.43-11.21,8.38-16.7a38.51,38.51,0,0,1,3.19-4.37c.76-1.06,1.89-1.39,2.84,0a2.31,2.31,0,0,1-.44,2.3c-5.09,7.54-7.42,16.3-10.87,24.56a70.52,70.52,0,0,0-4.48,15.65,17.23,17.23,0,0,0-.26,3.79c.15,2.67,1,3.33,3.57,3.84,16.42,3.21,33,2.37,49.6,2.46,5.71,0,11.43,0,17.14,0,1.23,0,2.58-.25,3.57.85-4.79,2-9.86,2.74-15,3.2-2.84.26-5.68.53-8.53,1.08,1.88.85,3.93.72,5.84.93,7,.78,14,1.75,21.05,1.63,8.78-.15,17.56-.51,26.34-.3,6.19.14,12.43.56,18.24,3.14a30.33,30.33,0,0,1-8.83,1.13c-7.62,0-15.24.2-22.86-.4-6.43-.51-12.87.22-19.31.29-14,.15-27.86-1.15-41.78-2-6.86-.39-13.73-.88-20.58-1.37-7-.51-14.25-.72-21-3.32-1.54-.58-2.4-1.39-2.32-3.16.74-14.7,3.75-29,7.09-43.29a95.76,95.76,0,0,1,8.44-23.38,61.46,61.46,0,0,1,21.38-23c1.45-.93,2.88-1.9,4.24-2.95,3.67-2.82,5.69-6.22,5.15-11.2-.67-6.3.49-12.64.46-19.12C123.91,102.65,128.73,100.86,132.79,96.66Z" transform="translate(-6.94 -7.29)"/><path class="cls-7" d="M191.84,130.56a50.81,50.81,0,0,1,12,10.3,49.84,49.84,0,0,1,8.89,14.73c1.64,4.14,2.38,8.47,3.86,12.61.6,1.67.1,3.74.1,5.8a2.92,2.92,0,0,1-2-2.22A47.39,47.39,0,0,0,206,155.25c-3.18-3.82-6.08-7.89-9.44-11.56a35.35,35.35,0,0,0-12.31-8.77,7.63,7.63,0,0,1-2.6-1.82c-1.31-1.34-1.23-2,.7-2.84a17,17,0,0,1,4.57-1Z" transform="translate(-6.94 -7.29)"/><path class="cls-8" d="M132.92,88.52c0,5.61-5.09,10.37-11.06,10.33A10.86,10.86,0,0,1,111,88a11.59,11.59,0,0,1,11.42-11.38C128.5,76.46,132.81,82.9,132.92,88.52Z" transform="translate(-6.94 -7.29)"/><path class="cls-9" d="M188.45,88.15a10.43,10.43,0,0,1-10.32,10.07,10.33,10.33,0,0,1,.55-20.64C183.88,77.58,188.46,82.54,188.45,88.15Z" transform="translate(-6.94 -7.29)"/><path class="cls-6" d="M134.44,59.18c-.2,2.83-.15,5.66-.35,8.5-.27,4-.43,8.07-.73,12.1-3.4-4.13-8.06-5.32-13.34-5.59.73-3.21-.32-6.34-.28-9.55,0-1.83.67-2.42,2.29-2.92A103,103,0,0,1,134.44,59.18Z" transform="translate(-6.94 -7.29)"/><path class="cls-10" d="M178.52,117.51c-1.4.26-.71,1.43-.94,2.19s.15,1.71-1,2-1.13-.77-1.46-1.45c-1.17-2.4-1.42-5-1.88-7.6-.42-2.34.19-4.77-.95-7.1-.89-1.84.83-3.55.89-5.4,1.73.4,4.43.3,5,1.33.85,1.62.24,4,.26,6.06C178.45,110.85,178.49,114.18,178.52,117.51Z" transform="translate(-6.94 -7.29)"/><path class="cls-11" d="M177.11,75a9,9,0,0,1-2.84-6.92c.15-1.93-1.15-3.46-1.08-5.4s.48-3.5,2-4.69c3.65,0,4.87,1.34,5,5.89.09,2.53,0,5.06-.06,7.58-.4,1.25.11,2.92-1.66,3.52Z" transform="translate(-6.94 -7.29)"/><path class="cls-12" d="M80,263.37c-2.23.09-5,1.05-6.54.05s-.36-4-.51-6.16c-.26-3.68-.2-3.72,3.66-3.51,1.32.07,2.7-.31,4,.36A11.12,11.12,0,0,1,80,263.37Z" transform="translate(-6.94 -7.29)"/><path class="cls-13" d="M80,263.37q.28-4.64.59-9.26c.81,0,1.63,0,2.43.06,3.86.37,4.38,1,4,4.74-.16,1.69-.23,3.39-.34,5.08l-5.11-.49C81.08,263.44,80.54,263.41,80,263.37Z" transform="translate(-6.94 -7.29)"/><path class="cls-14" d="M160,32.85c1.84.14,3.87-.21,4.56,2.31a4.09,4.09,0,0,1-1.67,4.89c-2.88.91-4.46.47-5.32-1.47C156.5,36.29,157.42,34.14,160,32.85Z" transform="translate(-6.94 -7.29)"/><path class="cls-15" d="M160,32.85c-.6,1-1.93,1.52-2.07,3-.28,3,.86,4,5,4.22-2.43,2-5,2.12-7,.16s-.6-4.25.08-6.28S158.31,32.12,160,32.85Z" transform="translate(-6.94 -7.29)"/><path class="cls-5" d="M178.53,75c.55-1.17,1.11-2.34,1.66-3.52,0,.9,0,1.79.05,2.69C180.27,75.68,179.47,75.5,178.53,75Z" transform="translate(-6.94 -7.29)"/><path class="cls-16" d="M200.51,261.88a18.45,18.45,0,0,1-10.83-.52c-1.8-.61-1.2-2.09-1-3.18a11.3,11.3,0,0,0-.23-5.7c2.88,1.1,5.78-.25,8.17,1.67a3.76,3.76,0,0,1,1.18,3.13A4.36,4.36,0,0,0,200.51,261.88Z" transform="translate(-6.94 -7.29)"/><path class="cls-17" d="M200.51,261.88c-2.45.28-3.6-.62-3.4-3.27a22.15,22.15,0,0,0-.53-4.46c2.08-1.87,4.17-.55,6.26,0s1.33,2.23,1.4,3.54,0,2.85,0,4.44A12.75,12.75,0,0,0,200.51,261.88Z" transform="translate(-6.94 -7.29)"/><path d="M160.11,223.2q-21.53,0-43,0c-7.71,0-15.34-1.05-23-1.66-1.92-.15-3.59-1.13-5.73-.95s-3-2-3-4.12a46.08,46.08,0,0,1,3-15.36c2.57-7.43,5.65-14.67,8.56-22,1.35-3.38,3.57-6.29,5.34-9.43,5.68-7.48,12.06-14.19,20-19.33a55.47,55.47,0,0,1,10.61-5.33c5.27-2,10.3-4.78,16-5.51,13.23-1.71,25.14,1.45,35.42,10.11,2.56,2.17,5,4.52,7.42,6.81,8.63,8.05,12.16,18.49,14.18,29.74,1.63,9.09,1,18.22,1,27.34,0,5.88-1.67,7.7-7.65,8.16-6.69.51-13.42.75-20.13.79C172.79,222.55,166.46,223.05,160.11,223.2Z" transform="translate(-6.94 -7.29)"/><path class="cls-18" d="M119.92,90.7a8.19,8.19,0,0,1-4.27-1.06c-1.83-1.06-2-2.93-.06-3.71,3.49-1.43,7.22-2.24,11-1.25,2.07.54,2.4,2.09,1,3.67C125.67,90.39,123.16,90.65,119.92,90.7Z" transform="translate(-6.94 -7.29)"/><path class="cls-19" d="M176.73,90.27c-2-.13-4.43-.2-5-2.42-.59-2.42,2.11-2.58,3.59-3.24a11.62,11.62,0,0,1,6.89-.6,2.28,2.28,0,0,1,2.12,1.77,2.21,2.21,0,0,1-1.27,2.47A11.78,11.78,0,0,1,176.73,90.27Z" transform="translate(-6.94 -7.29)"/><path class="cls-20" d="M106.22,219.54c8.47-7.27,17-13.68,27.8-16.3a11,11,0,0,1,7.66.85c4.09,2,8.29,3.93,11.67,7.13a9.27,9.27,0,0,0,3.59,1.86c.66.23,1.51.59,1.95-.18s-.14-1.44-.74-1.85c-2.3-1.6-4.3-3.61-6.81-4.91a9.9,9.9,0,0,1-1.13-.82c10-3.89,24.56,3.61,32.88,14-.65.7-1.51.4-2.26.43-16.33.63-32.66.76-49,.65-6.71,0-13.42.55-20.13,0C110,220.29,108.25,220.55,106.22,219.54Z" transform="translate(-6.94 -7.29)"/><path class="cls-8" d="M151.22,168.09c-.11-8.16,1.35-16,.25-23.86-.25-1.81.22-2.58,2.21-2.38,2.51.25,5.58-.71,7.41.79s.6,4.54.73,6.89c.3,5.42.24,10.86.51,16.29.09,2-.57,2.41-2.41,2.31C157,168,154,168.09,151.22,168.09Z" transform="translate(-6.94 -7.29)"/><path class="cls-8" d="M148.69,142.68c0,6.15.08,12.2-.34,18.25,0,.45-.1.89-.16,1.34-.24,1.87.77,4.59-.47,5.4-1.46,1-4,.39-6,.4-5.05,0-4.93,0-4.23-5.09a85.66,85.66,0,0,0,.9-15.68c-.08-1.64.33-2.38,2.05-2.75C143.1,144,145.74,143.06,148.69,142.68Z" transform="translate(-6.94 -7.29)"/><path class="cls-8" d="M165.12,155.29c-.08-3.17.25-7.17-.44-11.12-.2-1.14.28-1.26,1.15-1.09a4.76,4.76,0,0,1,.75.31c7.87,2.94,6.38.69,6.58,9,.12,4.62,0,9.25.08,13.86,0,1.73-.45,2.08-2.12,2-6-.23-6-.15-6-6.14Z" transform="translate(-6.94 -7.29)"/><path class="cls-8" d="M175.88,147.28a44.38,44.38,0,0,1,10,7.42c.87.79.77,2.17.85,3.34.21,3.16-.18,6.35.4,9.49.16.86-.07,1.19-.9,1.16-.19,0-.37,0-.55,0-3-.19-6.78,1.1-8.67-.62s-.5-5.47-.52-8.33A111,111,0,0,0,175.88,147.28Z" transform="translate(-6.94 -7.29)"/><path class="cls-9" d="M136.14,145.84c-.52,5.64-1,10.67-1.45,15.69,0,.36-.15.71-.18,1.07-.59,6-.59,5.92-6.56,5.87-1.92,0-1.15-1.36-1-2.06.9-5.27,1.65-10.54.72-15.88-.1-.57.13-.75.6-1C130.68,148.44,133.1,147.28,136.14,145.84Z" transform="translate(-6.94 -7.29)"/><path class="cls-9" d="M125.71,150.93a165.85,165.85,0,0,1-2,16.61c-.11.75-.34,1.18-1.17,1.1-.36,0-.72,0-1.08,0-1.66-.16-3.86,1.41-4.77,0-.71-1.08.25-3.26.48-4.95,0-.36.34-.73.28-1C116.09,156.12,121,153.9,125.71,150.93Z" transform="translate(-6.94 -7.29)"/><path class="cls-21" d="M198.44,170c-2.78-.33-5.09-.69-7.41-.85-1.29-.08-1.37-.73-1.43-1.75-.19-3.07.28-6.17-.82-9.82A30.78,30.78,0,0,1,198.44,170Z" transform="translate(-6.94 -7.29)"/><path class="cls-22" d="M115.48,158.63c-.65,3.59-1.33,6.4-1.6,9.25-.16,1.67-.9,1.89-2.24,1.85a21.49,21.49,0,0,0-6.33.68A67.66,67.66,0,0,1,115.48,158.63Z" transform="translate(-6.94 -7.29)"/></svg>