<svg id="Layer_1" data-name="Layer 1" xmlns="http://www.w3.org/2000/svg" viewBox="0 0 286.02 285.54"><defs><style>.cls-1{fill:#010101;}.cls-2{fill:#fefefe;}.cls-3{fill:#070102;}.cls-4{fill:#070202;}.cls-5{fill:#fe7900;}.cls-6{fill:#d6010b;}.cls-7{fill:#fcc603;}.cls-8{fill:#fdfdfd;}.cls-9{fill:#fdfdfc;}.cls-10{fill:#d5000a;}.cls-11{fill:#f8c60a;}.cls-12{fill:#f9c50a;}.cls-13{fill:#d40209;}.cls-14{fill:#f4a90b;}.cls-15{fill:#f77707;}.cls-16{fill:#cd030e;}.cls-17{fill:#f87708;}.cls-18{fill:#040404;}.cls-19{fill:#020203;}.cls-20{fill:#ee8777;}.cls-21{fill:#fdfcfc;}.cls-22{fill:#fcfcfc;}.cls-23{fill:#fbfbfb;}.cls-24{fill:#f8f8f8;}</style></defs><title>22</title><path class="cls-1" d="M146.47,7.26c35.79,0,71.58-.11,107.37.09,7,0,14.12.32,20.81,3.15a31.22,31.22,0,0,1,18.24,30.87c-.86,9.27-.58,18.65-.57,28,.07,53.22,0,106.45.1,159.67,0,6.76.06,13.54.36,20.32.38,8.4.46,17.08-3,25.17-4.77,11.07-17.11,19.45-30.4,18.11a86.16,86.16,0,0,0-8.66-.11q-57-.07-114.09-.14c-25.53,0-51.06-.21-76.58.14-6.89.09-13.76,0-20.63-.19-11.66-.25-21.4-4.43-27.81-14.68a31.49,31.49,0,0,1-4.53-19.2c.51-8.51.29-17.06.3-25.6q0-52.31,0-104.62c0-24.16.14-48.33-.07-72.48-.07-8.26-.51-16.53,1.22-24.61C10.76,20.52,17.4,13.43,27.42,9.26c5-2.07,10.09-1.94,15.21-1.95q51.91-.08,103.84,0Z" transform="translate(-6.99 -7.23)"/><path class="cls-2" d="M145.36,11.58q53,0,106,0a86.81,86.81,0,0,1,16.28,1.08,25.55,25.55,0,0,1,21,25.54c-.74,65.56-.24,131.12-.29,196.68,0,9.33.12,18.66-.11,28-.36,14.14-12.77,25.62-26.23,25.55-47.42-.21-94.84-.09-142.26-.09-21.25,0-42.51-.15-63.77.06-8.08.08-16.18.16-24.1-1.21a25.24,25.24,0,0,1-20.21-21c-.66-4.62-.29-9.39-.29-14.1q0-102,0-204.08a92.76,92.76,0,0,1,1-15.19c2.19-13,14.4-21.31,25.64-21.24,35.79.22,71.58.08,107.37.08Z" transform="translate(-6.99 -7.23)"/><path class="cls-3" d="M83.83,251c3-.52,5.58.55,8.19,1.56,2,.78,3,2,2.47,4.15a29.23,29.23,0,0,0-.36,7c0,1.25-.2,2-1.61,2.17-5.55.72-11.1,1.49-16.74,1-2.09-.18-2.69-1.27-2.37-3.08a55.84,55.84,0,0,0,.52-8.67c.09-3.5.83-4.43,4.32-4.19,2.74.19,3.36-.6,3.32-3.33a143.17,143.17,0,0,1,.73-14.92c.11-1.31-.38-1.26-1.22-1.45-8.38-1.94-9.42-3.66-8.48-12.18a291.66,291.66,0,0,1,9.2-47.2c4.75-16.92,14.18-30.76,29.35-40.24l.93-.56c4.4-2.77,7-6.14,6.64-12-.37-5.64.6-11.37,1-17.06a2.43,2.43,0,0,0-1.2-2.64A13.68,13.68,0,0,1,120.9,75c.74-.29,1.18-.31,1.08-1.52-.26-3.43,0-6.9-.11-10.35-.07-2.12,1.55-2.53,2.88-3a54.12,54.12,0,0,1,18.92-3.92c2.19,0,4.66.42,6.41-.64s1.11-3.7,1.86-5.55c.4-1,.66-2.06,1.13-3,1.58-3.25,3.15-6.36,2.81-10.27a7.39,7.39,0,0,1,3.43-6.49c3.22-2.28,6.32-.35,9.16.7,2.26.84,3.16,3.37,2.94,5.95-.31,3.66-2.55,5.9-5.69,7.34-2.72,1.25-5.21.16-7.45-1.25-1.37-.86-1.6-.56-2.11.77a93.35,93.35,0,0,0-2.9,10.34c-.4,1.56.36,1.46,1.37,1.39,8.25-.63,16.51-.4,24.77-.29,4.6.07,7.34,2.88,7.38,7.52,0,3.72,0,7.44,0,11.16a2.29,2.29,0,0,0,1.33,2.52c5.23,2.73,7.54,7.2,6.87,13s-3.85,9.41-9.35,11.07c-1.15.34-1.36.7-1.21,2,.46,4.23.17,8.5.7,12.75a37.54,37.54,0,0,1,.41,6.75c-.2,3.24,1.25,4.23,4,4.5,9.81,1,17.49,6,24,13,4.39,4.74,7.21,10.6,9.78,16.46a105.57,105.57,0,0,1,8.2,32.94,187.26,187.26,0,0,1,1.13,21.71,50.27,50.27,0,0,1-1.34,9.94,5.48,5.48,0,0,0-.29,2.1c.72,4.9-2.74,8.71-7.09,10.28a70.72,70.72,0,0,1-27.8,3.77c-17.06-.83-34.15.27-51.18-.65-13.19-.71-26.4-1.23-39.58-2.39-6.29-.56-12.62-.89-18.89-1.75-1.35-.19-1.64.25-1.64,1.56,0,4.53.31,9.07-.39,13.59C84.23,248.2,84.07,249.36,83.83,251Z" transform="translate(-6.99 -7.23)"/><path class="cls-4" d="M210.89,259.85c1.24,2.83-.9,3.89-3.4,4.64-5.35,1.59-10.67,1.88-15.93-.42-2.71-1.18-2.19-3.54-2-5.61.18-1.6.61-3.19.65-4.82.06-2,1.1-2.74,3.09-2.81,5.24-.19,5.24-.26,5.34-5.33,0-1.91.05-3.82.11-5.72,0-.94-.38-2.37.94-2.45s1.17,1.33,1.23,2.29c.21,2.89.44,5.78.57,8.67.06,1.28.2,2,1.86,2.22C210.12,251.45,210.84,252.42,210.89,259.85Z" transform="translate(-6.99 -7.23)"/><path class="cls-5" d="M195.05,130.46c6.09,1.13,10.53,5,14.82,9,5.29,4.91,8.18,11.49,11,17.92a98.55,98.55,0,0,1,7.27,28.26c.86,7.36,1.17,14.8,1.61,22.21.31,5.45-1.39,10.77-1.12,16.25a5.12,5.12,0,0,1-2.44,4.35,29.46,29.46,0,0,1-14.38,4.29c-12.24-2.72-24.68-2.8-37.08-2.23-10.57.5-21-.86-31.42-1.73-1.12-.09-2.9.13-2.92-1.29,0-1.71,1.83-1.35,3-1.44,6.79-.54,13.54-1.26,20.05-3.43a70.34,70.34,0,0,1,10.83-.75c8.26-.08,16.49-1,24.76-.68a19.91,19.91,0,0,0,4.07-.28c5.39-.89,6.82-2.2,6.84-7.62.06-10.05.55-20.11-1.5-30.11-2.51-12.2-7.85-22.54-17.69-30.37-2.42-1.92-4.59-4.15-7.18-5.85a43.74,43.74,0,0,0-30.43-6.83c-6.38.84-12.24,3.88-18.16,6.38C124.46,151,116.07,158.26,109,167.17a7.93,7.93,0,0,1-2.72,2.62,3.91,3.91,0,0,0-4,2.18c-2.54,4.9-6.11,9.24-7.89,14.56-1,2.93-2.5,5.63-3.69,8.48a58.55,58.55,0,0,0-4.1,20.4c0,1.25,0,2.83-1.8,2.83s-2.72-1.19-2.84-3a51.84,51.84,0,0,1,.63-10.85A104.35,104.35,0,0,1,93,171.27a130.89,130.89,0,0,1,11.2-18.65c6.09-8.11,14-14.14,22.29-19.8,3.14-2.16,6.31-4.29,9.58-6.26a11.71,11.71,0,0,0,2.49-2.11c2.85-3,2.56-5-1.41-6.46-2.53-1-3-2.37-2.61-4.79a43.77,43.77,0,0,0,.83-10,17.65,17.65,0,0,1,1.12-6.4c4-5.76,3.88-11.64.5-17.61-1.12-3.12,0-6.27,0-9.41a85.48,85.48,0,0,1,.63-10.22,10.93,10.93,0,0,1,5-.95c10.31-.09,20.57-1.54,30.9-1.17,1.69.06,3.44-.33,5,.55-1,5.89.34,11.46,2.25,17-5.6.92-9.69,3.74-11.32,9.38a12.94,12.94,0,0,0,6.43,15.15l1.62.93c-1,6.9.64,13.49,2,20.28,1.76-1,.85-3.31,2.72-3.77a49.7,49.7,0,0,1,.5,6.42c-.11,2.58,1.26,3.74,3.38,4.44s4.38,1.39,6.58,2.08c-1.42,1.24-3.13.52-4.7.73-1,.14-2.16,0-2.35,1.35-.16,1.14.82,1.54,1.68,1.84,5.66,2,10,5.85,14,10.07,3.56,3.75,6.68,7.89,9.87,12,4.05,5.16,6.19,11.26,8.76,17.21.14-1.82-.44-3.55-.65-5.31a36.2,36.2,0,0,0-1.34-5.55c-2.75-9.5-7.17-18-14.62-24.76a44.17,44.17,0,0,0-6.72-5.07C196,131.86,194.86,131.72,195.05,130.46Z" transform="translate(-6.99 -7.23)"/><path class="cls-6" d="M136.48,96.78c-.33,5.68-.24,11.4-1.32,17-.32,1.7-.32,3,1.9,3.27a5.41,5.41,0,0,1,2.2,1c2.56,1.71,2.84,3.2,1,5.63a16.34,16.34,0,0,1-4.25,3.76c-9,5.67-17.85,11.49-25.46,19-5.61,5.5-9.84,12.06-13.69,18.86a111.39,111.39,0,0,0-11.41,28.12,88.12,88.12,0,0,0-2.83,21.76,2.23,2.23,0,0,0,2.23,2.53c1.56.05.93-1.43,1-2.29.49-6.68,1.28-13.23,3.81-19.57,3.51-8.75,7.33-17.31,12.7-25.08.7-1,1.59-3.43,3.56-1.07a2.3,2.3,0,0,1-.43,2.53c-5.18,7.7-7.52,16.65-11,25.08a77.9,77.9,0,0,0-4.05,14.37,18.41,18.41,0,0,0-.38,4.05c.09,3.05.92,3.44,3.78,4.2,5.68,1.5,11.55.82,17.23,2a23.32,23.32,0,0,0,4.87.3c14.6,0,29.2,0,43.8,0,1.39,0,2.94-.41,4.07.89a49.18,49.18,0,0,1-14.18,3.16,44.42,44.42,0,0,0-8.8,1.37c1.53.17,3,.4,4.58.52,7.92.63,15.85,1.76,23.76,1.68,7-.06,13.94-.16,20.9-.3a63.79,63.79,0,0,1,19.05,2.15,7.08,7.08,0,0,1,2.75,1A37.29,37.29,0,0,1,202.4,234c-8.07-.1-16.15-.11-24.23-.37-9.15-.3-18.34.49-27.49.23-10.14-.3-20.25-1.44-30.39-1.88-7.52-.32-15-1-22.52-1.47-6.67-.39-13.51-.89-20-3.12-1.88-.66-2.8-1.67-2.67-3.78a186,186,0,0,1,3.61-26.07c1-4.78,1.66-9.62,2.88-14.33,3.11-11.94,6.38-23.87,14.18-33.83a62.1,62.1,0,0,1,18-16.11,27.8,27.8,0,0,0,4.93-4.18,8.09,8.09,0,0,0,2.72-6.81c-.52-7,.66-13.91.48-21.14C127.72,102.52,132.45,100.73,136.48,96.78Z" transform="translate(-6.99 -7.23)"/><path class="cls-7" d="M195.05,130.46a47,47,0,0,1,19.8,21.29,65.54,65.54,0,0,1,5.69,18.57c.2,1.41,1.61,3.66,0,4.15s-1.71-2.16-2.13-3.42c-3.91-11.77-11.75-20.84-20.2-29.44a26.45,26.45,0,0,0-11.29-7.28c-1.34-.39-2.44-1.05-2.2-2.61s1.49-1.88,2.88-1.87c1.72,0,3.44,0,5.17,0A4.39,4.39,0,0,1,195.05,130.46Z" transform="translate(-6.99 -7.23)"/><path class="cls-8" d="M114.82,87.85a11.54,11.54,0,0,1,11.47-11.3c6.37,0,10,5.89,10.33,12.3.25,5.36-5.2,10-11.05,10A10.88,10.88,0,0,1,114.82,87.85Z" transform="translate(-6.99 -7.23)"/><path class="cls-9" d="M192.23,88.14c0,5.33-4.68,10.17-10.13,9.94s-9.64-3.58-9.81-10.45a9.9,9.9,0,0,1,10.19-10.09C187.7,77.54,192.26,82.5,192.23,88.14Z" transform="translate(-6.99 -7.23)"/><path class="cls-10" d="M137.63,59.54a7.78,7.78,0,0,1,.58,3.72c-.57,5.29-.22,10.66-1.23,15.91a17.94,17.94,0,0,0-11.57-4.9c-.84,0-1.31-.32-1.35-1.29-.11-2.89-.29-5.77-.48-8.66a2.09,2.09,0,0,1,1.64-2.46C129.32,60.88,133.33,59.44,137.63,59.54Z" transform="translate(-6.99 -7.23)"/><path class="cls-11" d="M182.28,116.89c-.42,1.27-.81,2.56-1.28,3.81-.21.54-.14,1.42-1,1.41s-1.16-.86-1.29-1.52c-.62-3.18-1.32-6.36-1.67-9.57-.29-2.68-.87-5.35-.63-8.09.08-1,0-2,1.13-2.55l3.33.71c1.34.74,1.2,2.09,1.26,3.29.1,2.22,0,4.44.06,6.67Z" transform="translate(-6.99 -7.23)"/><path class="cls-12" d="M180.8,74.92c-3.26-4.55-3.52-9.75-3.22-15.05,0-.65.64-1.27,1-1.9,3.84-.11,5.39,1.23,5.47,5,.07,2.89-.05,5.78-.09,8.66-.44,1.13-.33,2.5-1.47,3.31Z" transform="translate(-6.99 -7.23)"/><path class="cls-13" d="M83.83,263.3c-2.16,0-4.79.8-6.36-.16-1.81-1.11-.42-4-.8-6.06a9.32,9.32,0,0,0-.21-1.61c-.57-1.46-.09-2,1.42-1.87,2.32.2,4.68-.24,7,.42C85,257.17,85.51,260.35,83.83,263.3Z" transform="translate(-6.99 -7.23)"/><path class="cls-14" d="M162,32.35c4-.07,6.6,1.46,6.71,3.92.09,2.31-2.63,5.15-5,5.25s-4.76-1.57-4.83-3.37C158.69,35,160.14,32.38,162,32.35Z" transform="translate(-6.99 -7.23)"/><path class="cls-15" d="M83.83,263.3c.08-2.86.77-5.71.3-8.6,0-.19.47-.45.72-.68,1,.08,2,.1,3,.24,2.58.39,4.38,1.25,3.11,4.47-.64,1.6.6,4-.77,5s-3.26-.36-5-.32A12.12,12.12,0,0,1,83.83,263.3Z" transform="translate(-6.99 -7.23)"/><path class="cls-5" d="M182.18,111.05c-.72-2.19,0-4.45-.33-6.64a22.13,22.13,0,0,0-1-3.32c1.54-.39,1.55.54,1.51,1.65C182.27,105.51,182.24,108.28,182.18,111.05Z" transform="translate(-6.99 -7.23)"/><path class="cls-5" d="M182.47,74.89a6.59,6.59,0,0,1,1.47-3.31,25.89,25.89,0,0,1,0,2.92C183.83,75.7,183.1,75.25,182.47,74.89Z" transform="translate(-6.99 -7.23)"/><path class="cls-16" d="M201,262.18c-1.09.05-2.17.17-3.25.13-4.33-.15-5.24-1.14-5.05-5.31.06-1.41-.49-3.48.22-4.08,1.16-1,3.09.14,4.69,0,1.13-.07,1.72.93,2.69,1.1A7.9,7.9,0,0,1,201,262.18Z" transform="translate(-6.99 -7.23)"/><path class="cls-17" d="M201,262.18a36.89,36.89,0,0,0-.7-8.12c2.46-1.72,4.74-.59,7,.44.92.41.65,1.19.66,1.86,0,1.8,0,3.59,0,5.72C205.73,261.23,203.43,262.53,201,262.18Z" transform="translate(-6.99 -7.23)"/><path d="M163.75,223.19c-13.33,0-26.67-.26-40,0-8.2.17-16.26-1.23-24.42-1.36-2.45,0-4.7-1.42-7.35-1.24-1.53.1-2.67-1.52-2.81-3.46A30.13,30.13,0,0,1,90.52,207a222,222,0,0,1,11.83-31.23c1-2.13,2.88-3.7,3.54-6,2.52-3,4.93-6,7.59-8.87,8.34-8.92,18.65-14.56,30.13-18.55,5.64-2,11.09-3.5,17.11-3.23a44.45,44.45,0,0,1,28.58,11.5c3,2.65,5.89,5.36,8.61,8.27,6.31,6.76,9.24,15.15,11.22,24,2.23,9.92,1.67,20,1.59,30a18.44,18.44,0,0,1-.56,5.1c-.71,2.38-3.06,3-5.11,3.46a30.92,30.92,0,0,1-6,.54Q181.43,222.59,163.75,223.19Z" transform="translate(-6.99 -7.23)"/><path class="cls-18" d="M123.86,90.65a8.56,8.56,0,0,1-4.2-.92c-2.06-1-2.31-3-.29-3.85a17.13,17.13,0,0,1,11-1.26c2.1.55,2.42,2.08,1,3.67C129.47,90.34,127,90.59,123.86,90.65Z" transform="translate(-6.99 -7.23)"/><path class="cls-19" d="M183.91,83.64a18,18,0,0,1,2.66.47c1.77.57,2.16,2.21.93,3.6-2.15,2.42-7.87,3.3-10.64,1.63-2-1.22-2-2.67.06-3.83A14.2,14.2,0,0,1,183.91,83.64Z" transform="translate(-6.99 -7.23)"/><path class="cls-20" d="M154.11,204.94c12.33-3.37,26.22,5.82,32.83,14.65-25.58,1-51,1-77.19.7a38.25,38.25,0,0,1,8.73-7.61c5.88-4.08,11.92-7.85,19.08-9.45a11.52,11.52,0,0,1,7.93.8c4.07,2.06,8.29,3.94,11.68,7.15a9.07,9.07,0,0,0,3.6,1.84c.66.2,1.49.62,1.92-.2s-.22-1.41-.79-1.85c-2-1.54-4.06-3-6.11-4.52C155.23,206,154.44,205.92,154.11,204.94Z" transform="translate(-6.99 -7.23)"/><path class="cls-8" d="M155.32,156.69a49.53,49.53,0,0,0-.06-12.87c-.22-1.45.08-2.14,1.74-2,2.62.2,5.71-.73,7.72.73s.73,4.64.87,7c.33,5.51.29,11,.51,16.56.06,1.55-.41,2-1.94,1.95-2.63-.13-5.26,0-7.89,0-.75,0-1.69.26-1.42-1.18C155.45,163.52,155.19,160.16,155.32,156.69Z" transform="translate(-6.99 -7.23)"/><path class="cls-8" d="M152.52,152.11c-.21,4.79-.46,9.59-.6,14.38,0,1.13-.25,1.6-1.49,1.56q-4.08-.13-8.16,0c-1.25,0-1.44-.38-1.34-1.54.62-6.66,1.53-13.31,1.21-20a1.4,1.4,0,0,1,1.32-1.67l.27-.05c2.92-.45,5.57-2.37,8.71-1.62v9Z" transform="translate(-6.99 -7.23)"/><path class="cls-8" d="M168.9,155.13c-.09-3,.26-7-.43-11-.24-1.38.44-1.39,1.35-1.08,2,.66,3.89,1.4,5.84,2.09,1.05.37,1.22,1.18,1.22,2.16q0,9.65.11,19.3c0,.27.1.7,0,.79-2.17,1.51-4.6.26-6.89.59-1.27.18-1.18-.75-1.18-1.59C168.91,163,168.9,159.54,168.9,155.13Z" transform="translate(-6.99 -7.23)"/><path class="cls-8" d="M179.6,147.16a45.65,45.65,0,0,1,9.92,7.35c1.06,1,.92,2.49,1,3.83.14,3,.15,6,.42,9,.12,1.24-.28,1.35-1.27,1.32-2.54-.08-5.09-.18-7.62-.11-1.46,0-1.82-.48-1.83-1.87C180.18,160.29,180.57,153.94,179.6,147.16Z" transform="translate(-6.99 -7.23)"/><path class="cls-21" d="M130.62,166.69a48.71,48.71,0,0,0,.91-16.11c-.08-.59.12-.78.58-1,2.12-1,4.22-2,6.34-3,1.21-.57,1.43.17,1.35,1.13-.54,6.29-1.11,12.57-1.66,18.86-.1,1.09-.56,1.57-1.73,1.54a19.6,19.6,0,0,0-4,.24C130.9,168.59,130.27,168.27,130.62,166.69Z" transform="translate(-6.99 -7.23)"/><path class="cls-22" d="M129.49,151.05c-.27,5.71-1.21,11-2,16.35-.13.88-.46,1.28-1.36,1.18a6.5,6.5,0,0,0-1.08,0c-4.88.3-4.88.3-4.16-4.59.08-.53.44-1.09.34-1.57C119.91,155.94,124.76,153.82,129.49,151.05Z" transform="translate(-6.99 -7.23)"/><path class="cls-23" d="M202.25,170c-2.8-.33-5.11-.69-7.43-.85-1.28-.09-1.37-.73-1.43-1.76-.18-3.06.22-6.16-.72-9.72A31.16,31.16,0,0,1,202.25,170Z" transform="translate(-6.99 -7.23)"/><path class="cls-24" d="M109.32,170a71.21,71.21,0,0,1,9.75-11.28,22.05,22.05,0,0,1-.6,4.54c-.76,2.08.43,5.16-2,6.18C114.48,170.3,111.93,169.86,109.32,170Z" transform="translate(-6.99 -7.23)"/></svg>