<svg id="Layer_1" data-name="Layer 1" xmlns="http://www.w3.org/2000/svg" viewBox="0 0 286.06 285.41"><defs><style>.cls-1{fill:#010101;}.cls-2{fill:#fefefe;}.cls-3{fill:#829f5e;}.cls-4{fill:#020302;}.cls-5{fill:#1d8767;}.cls-6{fill:#1e8667;}.cls-7{fill:#1f8667;}.cls-8{fill:#020502;}.cls-9{fill:#e0d93a;}.cls-10{fill:#ddd93c;}.cls-11{fill:#deda3c;}.cls-12{fill:#ded93c;}.cls-13{fill:#e0d938;}.cls-14{fill:#dad943;}.cls-15{fill:#298360;}.cls-16{fill:#e87;}.cls-17{fill:#fcfcfc;}.cls-18{fill:#020202;}.cls-19{fill:#030303;}</style></defs><title>23</title><path class="cls-1" d="M146.47,7.31c35.79,0,71.58-.08,107.37.08,5.93,0,12,.23,17.74,2.08,9.39,3,15.78,9.23,19.47,18.38,1.93,4.78,1.87,9.63,1.71,14.64q-.43,13.59-.44,27.19c.08,52.86,0,105.72.11,158.58,0,7-.11,14.07.37,21.14.49,7.23.35,14.72-1.87,21.84-3,9.52-9.29,15.89-18.52,19.68-5.52,2.27-11.17,1.77-16.82,1.68-1.63,0-3.26,0-4.89,0q-61.95-.07-123.9-.13c-22.25,0-44.51-.24-66.76.13-6.89.12-13.76,0-20.63-.19-11.77-.26-21.57-4.5-28-14.91a30.27,30.27,0,0,1-4.35-19c.71-8.51.24-17.06.25-25.6q.06-51.49,0-103c0-24.61.12-49.23-.08-73.84A179.37,179.37,0,0,1,7.89,35c1.34-12.21,7.91-20.5,19-25.45,5-2.21,10.2-2.15,15.44-2.15q52.05,0,104.11,0Z" transform="translate(-6.97 -7.29)"/><path class="cls-2" d="M11.31,150.13c0-31.25,0-62.49,0-93.74,0-7.09.29-14.16.64-21.23C12.54,23,24.09,11.84,36.23,11.8q73.31-.24,146.61-.25,34.07,0,68.13.11a97.31,97.31,0,0,1,16.55,1.07c12.64,2.21,21.34,14.05,21.18,25.7-.93,65.74-.33,131.49-.37,197.23,0,9.15.12,18.3-.14,27.46-.41,14.42-13.09,25.46-26.07,25.4-47.78-.2-95.56-.08-143.34-.09-21.08,0-42.16-.15-63.23.06-7.91.08-15.82.15-23.57-1.18A25.1,25.1,0,0,1,11.69,266.4c-.74-5-.34-10.12-.34-15.19q0-50.53,0-101.08Z" transform="translate(-6.97 -7.29)"/><path class="cls-3" d="M204.79,217.19a.5.5,0,0,1,0,.38c.34,1.87,1.94,2.53,3.3,3.35a170.57,170.57,0,0,0,20.76,10.74c.92.4,1.84.79,2.74,1.22.64.32,1.45.61,1.48,1.44s-.86,1.29-1.59,1.65a9.76,9.76,0,0,1-2.55.93,95.49,95.49,0,0,1-25.44.73c-4.29-2.65-9.23-2.12-13.92-2.79a21.12,21.12,0,0,0-5.15,0c-5.7.6-10.87-1.42-16.1-3.12-2.56-.84-2.65-1.72-.42-3.42,2-1.53,3.63-3.24,4.13-5.81,4.41-5.64,4.25-12.12,3.45-18.72-.64-5.3-3.44-8.6-8.74-9.77-4.35-1-8.71-1.82-13.08-2.65-10.44-2-21-3.18-31.48-4.83a112.86,112.86,0,0,0-11.92-1c-.92-.32-2-.35-2.83-1.74,8.32-4.19,16.42-8.69,25.2-11.82,2-.91,4.22-1,6.34-1.37,3.44-.67,6.32-2.16,8-5.43.29-3.28,1.5-6.4.84-9.86A15.47,15.47,0,0,0,140,144.5c-3.35-2-6.38-1.85-9.36.82-.7.64-1.6,1-2.55,1.76.87.5,1.77.17,2.49.52,3.35,1,5.76,2.87,6.49,6.57,1.09,5.47-1.42,9-7,9.72-4.77.6-9.54,1.19-14.3,1.91A22.17,22.17,0,0,1,101.9,163c-2.31-1.23-3.17-3-2.14-5.24,2.85-6.19,2.27-12.83,2.76-19.28a157.88,157.88,0,0,1,3.78-23.29c3.53-15.53,11.83-28.33,22.18-40,2.41-2.72,4.59-5.62,6.78-8.52,2.42-1.18,5-.8,7.48-.47,4.52.6,9.06.58,13.58.81,10.41.54,20.81,1.12,31.2,2.05,5.86.53,11.78.81,17.62,1.45,6.39.71,12.77,1.61,19.13,2.63,2.19.36,2.43,1.2.79,2.86a72.28,72.28,0,0,1-8.69,7.42c-6.68,4.88-13,10.21-19.25,15.6-2,1.67-1.9,2.21.22,3.6a31.35,31.35,0,0,0,7.15,3.31c7.92,2.68,15.78,5.52,24,7.29.92.2,2.24.09,2.43,1.32.15,1-.88,1.49-1.52,2.12A108.31,108.31,0,0,1,205.52,135a16.53,16.53,0,0,0-4.19,3.45c-1.59,1.73-1.55,2.3.46,3.58a82.66,82.66,0,0,0,15.3,7.09c3.82,1.43,7.68,2.78,11.56,4.08,3.21,1.07,3.25,2,.73,4.4-5.1,4.82-11.45,7.64-17.39,11.11-2.91,1.7-5.64,3.65-8.45,5.48-2,1.31-1.37,2,0,3.12a90.35,90.35,0,0,0,12.07,7.89c6.42,3.61,12.89,7.1,19.51,10.32a20.84,20.84,0,0,1,1.93,1c2,1.27,2,2,0,3.28A80.87,80.87,0,0,1,225.29,206a229.31,229.31,0,0,0-21.53,10.68c-.59-.14-.19.38-.15,0,0-.07.09-.05.27,0A1.21,1.21,0,0,1,204.79,217.19Z" transform="translate(-6.97 -7.29)"/><path class="cls-4" d="M203.68,237.24c9.77-.16,19.7,1.25,30-2.73-6.08-2.53-11.36-4.88-16.47-7.57a92.9,92.9,0,0,1-12.1-7.22c-.28-.21-3.19-1.13-.26-2.15,10.58,4.24,20.27,10.14,30,15.94,2,1.18.58,1.85-.28,2.51-3.74,2.84-8.14,3.7-12.7,4-22.86,1.5-45.74.85-68.61.49-5.17-.09-10.33-.6-15.5-.71-3.87-.08-7.75.36-11.62.21a125,125,0,0,1-20.23-2.09c-3.29-.67-5.73-2.66-8-4.93-1.08-1.09-2-2.74-1.5-4.19.87-2.62-.43-2.68-2.39-3-5.52-.91-11-1.84-16.17-4.29-2.25-1.07-2.85-2.49-2.18-4.76.76-2.57.94-5.32,2.49-7.63a18.65,18.65,0,0,1,1.8-2.7c1.11-1.16,2.41-2.15,3.63-3.21a15.17,15.17,0,0,1-2.74-4,11.91,11.91,0,0,1,.29-12.36c1.58-2.63,4.76-2.12,7.25-2.91,1.41-.45,3.53.72,4.33-.38s0-3,.23-4.46c.44-2.52-.21-3.5-3-3.49a21,21,0,0,1-6.33-1.35c-4.73-1.51-6.94-6.68-5.78-12.86a19.92,19.92,0,0,1,5.56-10.68c5.19-5.15,6.21-11.84,7.33-18.5.83-5,1.26-10,2-15,.36-2.35.59-4-2.46-5-5.23-1.81-8-7.39-7.1-13C84,94.65,88,90.4,93,90.08c1.57-.1,2.41-2.43,1.13-3.69-.83-.83-.54-1.41-.34-2.1.7-2.4,1.64-4.75,2.18-7.18,1.28-5.79,5.37-8.2,10.63-9.76,12.38-3.69,25-3.73,37.68-2.95,10,.62,20.11,1.07,30.15,1.79C185.17,67,196,67.55,206.61,69c6.84.94,13.77,1.44,20.53,3,2.27.53,2.35,1.27,1.07,3-3.2,4.27-7.29,7.57-11.48,10.76a211.08,211.08,0,0,0-16.8,13.79c-1.68,1.58-1,2.05.49,2.71,4.76,2.15,9.87,3.31,14.79,5,5.75,2,11.54,3.85,17.31,5.75,1.68.55,1.26,1.63.51,2.48-1.69,1.89-3.59,3.59-5.29,5.47a76.24,76.24,0,0,1-25,18.43,4.89,4.89,0,0,0,2.31,1.43c8.56,4,17.1,8,25.67,11.93,3.88,1.78,3.81,1.64,1.25,4.94-3.53,4.56-8.12,7.72-13.16,10.32-4.89,2.51-9.82,4.94-15.09,7.58l11.15,6.16c8.67,4.81,17.67,9.1,25.49,15.33.57.45,1.11.94,1.64,1.43s.11,1.11-.17,1c-2-.87-2.72.93-3.7,1.77-6.91,5.88-15.44,8.52-23.57,12-3.23,1.38-6.51,2.63-9.77,3.94h-2.7c11.77-8,24.94-11.58,36.35-19-13.15-7.24-27.11-12.77-38.75-23.33,3.58-.57,29.22-17.33,31.16-20-6-2.18-12.05-4.26-18-6.55a64,64,0,0,1-11.48-5.57c-3.07-1.95-3.12-2.43-.6-4.9a34.32,34.32,0,0,1,7.27-5.23,86.39,86.39,0,0,0,18.6-14.52c1.26-1.26,2.64-2.39,4.16-3.75-10.6-2-20.42-5.49-30.18-9.18a27.39,27.39,0,0,1-5.43-3c-1.76-1.17-.25-2.26.52-2.93,4.39-3.79,8.83-7.53,13.36-11.15,5.24-4.18,10.73-8,15.61-12.68.38-.35.91-.63.92-1.51-9.15-1.12-18.31-2.41-27.51-3.31-15.21-1.48-30.46-2.59-45.73-3.12-5.61-.2-11.2-1.13-16.84-.61a4.52,4.52,0,0,1-2.87.63,138.57,138.57,0,0,0-16.54,1.15,39.73,39.73,0,0,0-12.24,3.54,7.41,7.41,0,0,0-4.23,5c-.81,2.86-2,5.55-1.63,8.72a5,5,0,0,0,2.86,4.44,12.7,12.7,0,0,1,4,19,9.94,9.94,0,0,1-6.46,4.2c-2.44.37-3.14,1.42-3.09,3.75a97.49,97.49,0,0,1-3.11,25,24.34,24.34,0,0,1-5.45,10.5c-2.91,3.33-5.19,6.94-5.15,11.67,0,3.73,1.33,5.66,5,6.7,4.74,1.36,9.52.81,14.32.46,9.31-.7,18.61-1.52,27.88-2.65,3.25-.39,6.48-.89,9.71-1.33,3.86-.53,5.17-2.72,5-6.59a13.61,13.61,0,0,0-13.3-12.9c-1.11-.63-3.09.77-3.29-.32-.34-1.79,2-1.85,3.11-2.73,2.84-2,5.82-1.48,8.47.12,6.14,3.7,10.05,8.81,9.24,16.49-.12,1.17.09,2.36-.11,3.53-1.59,3.81-4.8,5.39-8.58,6.13-2.11.42-4.24.76-6.36,1.14-7.2,2.1-14.63,2.49-22,2.87-4,.21-7.94.68-11.91,1-1.71.16-2.31.85-2.31,2.58,0,4.31.22,4.76,4.57,4.58a30.2,30.2,0,0,1,8.74,1.27c10.53.06,20.79,2.34,31.17,3.65,8.52,1.07,16.89,2.83,25.26,4.62,7,1.48,9.8,5.08,10.22,12.27.27,4.7.67,9.34-1.5,13.79a21.09,21.09,0,0,1-2.43,3.56c-.86,1.77-2.51,2.3-4.24,2.55a59.07,59.07,0,0,1-7.84.84c-10.7.15-21.36,1-32.06,1.29-8.25.22-16.5.17-24.74.39-1.05,0-2.52-.43-3,.68-.54,1.29.88,2,1.73,2.76,2.57,2.27,5.74,3.09,9,3.46,6.3.71,12.63,1,19,1.32,9.14.41,18.28.8,27.42,1.38,2.29.15,4.5-.39,6.78-.41,12.33-.12,24.67.31,37-.23A4.16,4.16,0,0,1,203.68,237.24Z" transform="translate(-6.97 -7.29)"/><path class="cls-5" d="M130.28,148.13c7.61-1.82,14.06,6.58,14,12.49,0,2.18,1,4.4-1.53,6a13.68,13.68,0,0,1-6.08,2c-6.46.71-12.91,1.55-19.38,2.27-6.21.69-12.46.81-18.66,1.51a40.11,40.11,0,0,1-8.9.08c-8.78-.95-10-4.66-8.26-12.36a13.2,13.2,0,0,1,3.68-6.58c5.29-5.05,6.69-11.66,7.86-18.34a88,88,0,0,0,1.66-20c-.07-1.36,0-2.12,1.78-2.23a11.14,11.14,0,0,0,10.12-8.79c1.13-5.46-1.24-11.25-6-13.33-2.61-1.14-3-2.59-3.35-5.19-.56-4.3,1.48-7.71,2.77-11.32.92-2.57,3.91-3.46,6.35-4.27,9.49-3.16,19.33-3.51,29.22-3.33-1.31,3.48-4,6-6.39,8.64-7.79,8.86-14.83,18.26-18.93,29.37a123.48,123.48,0,0,0-5.94,24.07c-1.17,7.62-.79,15.32-2,22.9a25,25,0,0,1-1.8,5.67c-.83,2-.62,3.72,1.53,4.81a24.2,24.2,0,0,0,16.22,2.43,106.67,106.67,0,0,1,11-1.49c4.42-.41,6.92-1.87,7.25-5.17.41-4-.4-7.87-5-9.43C131.1,148.48,130.69,148.3,130.28,148.13Z" transform="translate(-6.97 -7.29)"/><path class="cls-5" d="M203.68,237.24c-5.58,1-11.21.56-16.83.65q-13.59.23-27.2.23A233.66,233.66,0,0,1,133.9,237c-5.49-.61-11.06,0-16.57-.73-3.57-.49-7.19-.64-10.7-1.61a14.77,14.77,0,0,1-6.7-4.43,2.43,2.43,0,0,1-.66-2.75c.46-.94,1.46-.52,2.21-.49,13,.37,26-.35,38.91-.69,8.78-.23,17.55-.95,26.32-1.51a11.35,11.35,0,0,0,5.82-2c0,3.9-3.24,5.33-6.19,7.67,5.17,1.11,9.5,3.74,14.56,3.57a125.41,125.41,0,0,1,19.17,1.17A5.36,5.36,0,0,1,203.68,237.24Z" transform="translate(-6.97 -7.29)"/><path class="cls-6" d="M109.81,184.84c-4-.16-8-.33-11.94-.48-1.52-.06-2.42-.65-2.12-2.35,0-.26,0-.55,0-.81.39-1.8-1.09-4.22.34-5.27s3.66-.56,5.55-.71c4.42-.35,8.84-.87,13.26-1,6-.14,11.85-1.51,17.82-1.76-5.89,2.41-11.63,5.14-17.29,8-2.39,1.22-4.81,2.36-7.32,3.59Z" transform="translate(-6.97 -7.29)"/><path class="cls-7" d="M143.72,115.87c-2.67,3.42-6.56,4.13-10.3,3.44-4-.74-7.31-3-8.55-7.44a17.83,17.83,0,0,1,6.51-19.28c2.62-1.84,5.6-3.35,9.07-2-.2,1-1,1.16-1.76,1.53-4.53,2.36-7.68,7.54-7.23,11.87.6,5.71,3.9,9.33,9.85,10.84C142.16,115,143.16,115,143.72,115.87Z" transform="translate(-6.97 -7.29)"/><path class="cls-8" d="M143.72,115.87c-7.52-.71-11.56-4.15-12.87-11.14a11.06,11.06,0,0,1,2.24-8.63,13.57,13.57,0,0,1,7.36-5.51c3.65-.07,7.29,0,10.32,2.46,4,3.23,5.82,7.48,4.77,12.51a12.08,12.08,0,0,1-9.44,9.8C145.31,115.56,144.51,115.7,143.72,115.87Z" transform="translate(-6.97 -7.29)"/><path class="cls-9" d="M179.78,207.89c-.1-3.06.15-5.31-1-7.47-.67-1.29-1.61-3,.26-4.1s3.58.17,4.78,1.47c3.05,3.35,3.72,7.34,2.45,11.65a19.5,19.5,0,0,1-5.21,8.47c-.52.5-1,1.27-1.79,1-1-.35-.72-1.38-.67-2.16C178.84,213.51,180.27,210.41,179.78,207.89Z" transform="translate(-6.97 -7.29)"/><path class="cls-10" d="M226.54,199.45a3.52,3.52,0,0,1-1.91,2.27c-6.25,3.91-13.15,6.4-19.93,9.16-.63.25-1.3.37-1.68-.3s.28-1,.66-1.31c5.61-4.74,11.53-9,18.33-11.9C224.57,196.27,226.68,197.22,226.54,199.45Z" transform="translate(-6.97 -7.29)"/><path class="cls-11" d="M197.24,87a19.26,19.26,0,0,1,5.95-7.54,31.23,31.23,0,0,1,9.38-5.83c1.07-.39,2.25-.77,2.89.46a2.62,2.62,0,0,1-1,3.58c-3.18,2.06-6.39,4.08-9.68,6C202.59,84.92,200.48,86.55,197.24,87Z" transform="translate(-6.97 -7.29)"/><path class="cls-12" d="M218,117.91c1,0,1.68.18,1.94,1a2.24,2.24,0,0,1-1,2.58L205.8,131.58c-1.07.83-2.14,1.66-3.22,2.48-.4.31-.78.92-1.36.38-.39-.36-.18-.86.05-1.25a38.25,38.25,0,0,1,15.85-15.1A2.58,2.58,0,0,1,218,117.91Z" transform="translate(-6.97 -7.29)"/><path class="cls-13" d="M134.45,155.14c0,2.75-2.55,5.73-5,5.81-2.19.07-4.06-2.54-4.16-5.8-.11-3.75,1.16-5.57,3.92-5.62C132.26,149.47,134.41,151.76,134.45,155.14Z" transform="translate(-6.97 -7.29)"/><path class="cls-14" d="M195.85,170.54a29,29,0,0,1,6.84-5.54,79.09,79.09,0,0,1,14.52-7.83,5.71,5.71,0,0,1,1.53-.5c.69-.07,1.56-.28,1.94.53s-.17,1.39-.73,1.87a13.06,13.06,0,0,1-2,1.45c-6.7,3.78-13.79,6.75-20.68,10.13C197.05,170.78,196.64,170.61,195.85,170.54Z" transform="translate(-6.97 -7.29)"/><path class="cls-15" d="M147.7,165.22c-.27-2.41,0-4.84-.48-7.26-1-5.24-4-8.94-8.29-11.82-2.75-1.87-5.77-1.7-8.84-1.06,1.66-3.06,5.37-3.35,8.19-2.22,6.44,2.56,10,7.61,10.65,14.43C149.16,159.87,148.15,162.57,147.7,165.22Z" transform="translate(-6.97 -7.29)"/><path class="cls-10" d="M218.65,231.25a25.54,25.54,0,0,1,8.19,1.66c.65.22,1.24.49,1.12,1.27a1.14,1.14,0,0,1-1.21.89c-3.84.16-7.62,1.47-11.51.6-1.07-.24-2.61-.08-2.76-1.6s1.21-2,2.43-2.43A12.29,12.29,0,0,1,218.65,231.25Z" transform="translate(-6.97 -7.29)"/><path class="cls-16" d="M119.16,223.74c-3.21,0-9.12.16-15,0A79,79,0,0,1,80,219.21c-1.79-.64-2.23-1.55-1.6-3.2a30.75,30.75,0,0,1,1.35-3.54c2.84-5.34,4.1-7.75,11.08-7.33,21.93,1.32,43.87,2.33,65.83,2.86,1.45,0,2.9-.09,4.35-.16a1.13,1.13,0,0,0,1.18-.89c.14-.76-.63-.86-1-1a24.14,24.14,0,0,0-8.26-1.35c-21.25-.15-42.44-1.76-63.68-2.23-2.37-.06-3.56-2-4.75-3.61a11.56,11.56,0,0,1-1.66-4c-1.28-5.13.87-7.72,6.69-7.65,6.71.09,13.42.55,20.13.77,10,.33,19.8,2.06,29.69,3.35,8.45,1.11,16.8,2.6,25.11,4.4,6.82,1.47,8.24,3,9.13,9.88a25.93,25.93,0,0,1-.46,10.8c-1.06,3.54-2.65,5-6.32,5.24C151.79,222.54,136.83,223.25,119.16,223.74Z" transform="translate(-6.97 -7.29)"/><path class="cls-17" d="M103.92,101.08a9.29,9.29,0,0,1-9.11,9.22A8.83,8.83,0,0,1,86,101.23c0-4.68,4.17-9.33,8.4-9.46C99.12,91.63,103.91,96.33,103.92,101.08Z" transform="translate(-6.97 -7.29)"/><path class="cls-17" d="M143,112.54a9.65,9.65,0,0,1-9.51-9.74c0-5.73,4.29-9.5,10.16-9.49a9.46,9.46,0,0,1,9.34,9.81C153,108.59,148.69,112.6,143,112.54Z" transform="translate(-6.97 -7.29)"/><path class="cls-18" d="M97.62,101.65a8.42,8.42,0,0,1-.89,3.93,2.44,2.44,0,0,1-2.38,1.47,2.36,2.36,0,0,1-2.31-2c-.44-2.87-.49-5.72,1.54-8.18a2,2,0,0,1,2.11-.81c.84.17,1.13.8,1.25,1.56C97.16,99,97.4,100.32,97.62,101.65Z" transform="translate(-6.97 -7.29)"/><path class="cls-19" d="M139.39,103a36.15,36.15,0,0,1,1.09-4.4c.71-2,2.34-2.41,4.05-1.14,3.14,2.34,2.48,8.51-1.09,10.13C140.94,108.72,139.25,107.18,139.39,103Z" transform="translate(-6.97 -7.29)"/></svg>