<svg id="Layer_1" data-name="Layer 1" xmlns="http://www.w3.org/2000/svg" viewBox="0 0 286.06 285.41"><defs><style>.cls-1{fill:#010101;}.cls-2{fill:#fefefe;}.cls-3{fill:#75cbdc;}.cls-4{fill:#020204;}.cls-5{fill:#4298a9;}.cls-6{fill:#4398a9;}.cls-7{fill:#4299a9;}.cls-8{fill:#020407;}.cls-9{fill:#dcd93e;}.cls-10{fill:#dbda3f;}.cls-11{fill:#d8da47;}.cls-12{fill:#dada42;}.cls-13{fill:#d6da49;}.cls-14{fill:#ddda3d;}.cls-15{fill:#4897a6;}.cls-16{fill:#ddda3e;}.cls-17{fill:#a2d094;}.cls-18{fill:#ee8777;}.cls-19{fill:#fcfcfc;}.cls-20{fill:#020202;}.cls-21{fill:#030303;}</style></defs><title>24</title><path class="cls-1" d="M146.48,7.31c35.79,0,71.59-.07,107.38.08,5.93,0,12,.23,17.73,2.09,9.39,3,15.78,9.23,19.47,18.39,1.92,4.78,1.86,9.63,1.7,14.64q-.45,13.73-.44,27.46c.08,52.68,0,105.36.1,158,0,7.12-.1,14.25.38,21.41s.35,14.72-1.88,21.83c-3,9.53-9.3,15.89-18.53,19.68-5.52,2.27-11.16,1.75-16.82,1.66-1.62,0-3.25,0-4.88,0q-61.81-.07-123.63-.13c-22.35,0-44.7-.24-67,.13-6.89.12-13.76,0-20.63-.19-11.77-.25-21.56-4.51-27.95-14.92a30.27,30.27,0,0,1-4.34-19c.71-8.51.24-17.07.25-25.6q.06-51.5,0-103c0-24.62.12-49.23-.08-73.84a179.6,179.6,0,0,1,.6-21.14c1.35-12.2,7.92-20.49,19-25.43,5-2.21,10.21-2.15,15.45-2.15q52.05,0,104.1,0Z" transform="translate(-6.97 -7.29)"/><path class="cls-2" d="M11.31,150.07c0-30.52,0-61,0-91.56,0-7.72.29-15.43.62-23.14C12.41,23.35,24,11.91,36,11.8c58.05-.54,116.09-.14,174.14-.24,13.72,0,27.44-.05,41.15.12a107.61,107.61,0,0,1,16.27,1.09c12.59,2.11,21.29,14,21.13,25.72-.93,65.74-.33,131.48-.37,197.22,0,9.16.12,18.3-.15,27.47-.42,14.38-13.09,25.38-26.12,25.35-63.86-.19-127.72-.08-191.58-.11-11.7,0-23.39.25-35.09-.45-11.27-.67-22.86-10.9-23.89-22.15-.48-5.3-.16-10.68-.16-16q0-49.86,0-99.72Z" transform="translate(-6.97 -7.29)"/><path class="cls-3" d="M196.06,217.18a.74.74,0,0,1,0,.39c.37,1.83,1.94,2.52,3.31,3.34a175.92,175.92,0,0,0,22,11.29,14,14,0,0,1,2.21,1.05c1.19.77,1.1,1.58,0,2.29a11,11,0,0,1-4.31,1.6,106.11,106.11,0,0,1-23.83.58c-4.83-2.49-10.09-3-15.34-2.85a57.31,57.31,0,0,1-20.56-3c-.83-.28-2-.34-2.15-1.37s.86-1.53,1.6-2a9.74,9.74,0,0,0,4.38-6c4.78-6.41,4.43-13.55,2.95-20.85a8.86,8.86,0,0,0-6.45-7,26.78,26.78,0,0,0-3.15-.88c-9.35-1.77-18.66-3.78-28.16-4.85-6.56-.73-13.05-2.22-19.66-2.83-1.89-.17-3.81-.1-5.69-.45-1.14-.6-3.27.1-3.44-1.42s1.84-1.74,3-2.32c7-3.48,13.81-7.26,21.2-9.85a16.16,16.16,0,0,1,5.25-1.15,12,12,0,0,0,9-5.29,23.07,23.07,0,0,0,.44-11.78c-1.22-4.95-4.59-7.94-9-9.9-2.78-1.24-5.51-1-7.7,1.46-.71.67-1.68,1-2.37,1.65s-.06.69.41.77c1.07.27,2.54-.45,3,1.23a3.17,3.17,0,0,1-2.45.78c-3.06.23-3.23.41-3.38,3.47,0,.4,0,.8,0,1.2.11,1.38-.41,2.84.6,4.07,2.12,2.26,3.15,2.45,4.95.93.94-.12,1.8-.35,2-1.47a3.38,3.38,0,0,1,.34-.62c.62-1.59,1.08-3.15-.37-4.56-1-.76-2-1.47-2.14-2.86a1.46,1.46,0,0,1,.63-1.09,2.06,2.06,0,0,1,2,.41c2.9,2.24,3.69,5.38,3.26,8.76-.38,3-2.38,4.81-5.27,5.59a63.36,63.36,0,0,1-8.35,1.2,73.54,73.54,0,0,1-11.39.83,27.73,27.73,0,0,1-9-1.83c-3.45-1.27-4.5-3.47-3.2-6.87a38,38,0,0,0,2.13-12.52C94,127.42,97,110.93,104.84,95.74A93.28,93.28,0,0,1,119.1,75.86c2.14-2.35,4.13-4.81,6.08-7.32a6,6,0,0,1,2.56-2.37c5.27-.91,10.51.18,15.73.45s10.33.45,15.49.75c11.31.68,22.6,1.71,33.89,2.68,3.89.34,7.79.41,11.45,2,1.26,1.1.77,1.74-.53,2.34a42.56,42.56,0,0,0-10.33,6.82c-1.45,1.27-2.3,2.93-3.54,5,4.75-1.86,8.38-4.49,12.15-6.89.37-.24.61-.75,1-.9,2.78-1.06,3.46-3,2.66-5.75,2.46-1.55,4.95,0,7.41,0,1.4.05,3.63-.28,4.07,1.36s-1.54,2.46-2.68,3.45C206,85,196.78,91.39,188.4,98.91c-2,1.83-2,2.25.29,3.74A32.2,32.2,0,0,0,196.1,106c7.93,2.62,15.75,5.59,24,7.25.78.16,1.85.14,2.11,1,.3,1-.72,1.53-1.36,2.16a112.71,112.71,0,0,1-24,18.62,17.8,17.8,0,0,0-4.23,3.42c-1.62,1.72-1.56,2.27.4,3.57a67.32,67.32,0,0,0,11.72,5.74c4.8,2,9.7,3.62,14.6,5.26,1.16.39,2.79.4,3.08,1.88s-1.18,2.09-2.09,2.94c-4.89,4.62-11,7.39-16.7,10.67-3.24,1.86-6.27,4-9.36,6.07-1.36.91-1.07,1.41-.11,2.15a78.54,78.54,0,0,0,7,5.11q12.26,7.38,25.11,13.66a21.2,21.2,0,0,1,2.41,1.26c1.42.9,1.75,1.87.06,2.81-2.85,1.58-5.55,3.4-8.56,4.75C212,208,203.75,211.6,196,216.17,194.75,216.9,196.06,216.86,196.06,217.18Z" transform="translate(-6.97 -7.29)"/><path class="cls-4" d="M204.76,72.79c-4.92-1.76-10.1-1.78-15.21-2.25-15.2-1.37-30.42-2.57-45.67-3.09-5.52-.19-11-1.08-16.55-.66-1.33.76-2.8.59-4.25.68-8.23.47-16.48.52-24.45,3.2a13.24,13.24,0,0,0-9.4,13.6c.11,3.09.92,5.11,3.88,6.66,4.41,2.32,6.35,7.75,5.42,13.22a11.92,11.92,0,0,1-9.12,9.42c-2.22.39-2.81,1.36-2.75,3.43a93,93,0,0,1-3.08,25,24.87,24.87,0,0,1-5.68,11c-2.84,3.17-4.83,6.76-5,11.2-.15,3.68,1.25,5.82,4.78,6.87,4.82,1.44,9.69.9,14.57.52,9.31-.71,18.61-1.5,27.88-2.64,3.15-.38,6.3-.84,9.43-1.31,4.25-.63,5.56-2.71,5.25-6.95A13.52,13.52,0,0,0,119,148.34c-1.53-.23-1.2-1-.38-1.64a24.07,24.07,0,0,1,2.68-1.61c3-1.83,5.91-1.41,8.74.19,6.14,3.46,10.31,10.51,9,17.13-.22,1.15.22,2.35-.26,3.48-2.63,4.37-7,5.44-11.58,6-1.07.12-2.13.4-3.19.6-8.07,2.22-16.35,2.68-24.65,3-3.25.12-6.47.68-9.71,1-1.52.16-1.89.93-1.94,2.33-.16,4.82-.19,5,4.66,4.76,3.59-.18,6.9,1.15,10.39,1.34,8.68.38,17.21,2,25.8,3.15,9.78,1.3,19.43,3.09,29.06,5.1,6.71,1.41,9.54,4.94,10,11.87.34,4.88.71,9.72-1.55,14.33a27,27,0,0,1-2.27,3.35c-1,1.79-2.68,2.4-4.52,2.63-2.78.34-5.57.72-8.39.84-18.93.78-37.86,1.89-56.82,1.65-.84,0-2-.3-2.33.83-.25,1,.68,1.62,1.35,2.21A13,13,0,0,0,99.42,234a87.14,87.14,0,0,0,15.66,1.83c11.34.11,22.64,1.18,34,1.51,2.37.07,4.69-.39,7.06-.4,12.25-.1,24.5.32,36.75-.21a5.5,5.5,0,0,1,2.64.52,187.7,187.7,0,0,0,22.5-.59,18.74,18.74,0,0,0,6.4-2.26c-4.43-2-8.61-3.88-12.7-5.87a108.32,108.32,0,0,1-14.57-8.26,7,7,0,0,1-2-1.78c-.7-1.08.48-.75.93-1,10.68,4.21,20.4,10.24,30.24,16.05,1.81,1.06.33,1.78-.42,2.36-3.73,2.88-8.13,3.74-12.69,4-23.05,1.52-46.11.84-69.16.48-5.08-.08-10.16-.75-15.23-.68-3.78.05-7.57.37-11.35.2a129.83,129.83,0,0,1-20.24-2.09c-3.29-.67-5.73-2.65-8-4.91-1.09-1.1-2-2.75-1.52-4.19,1-2.89-.73-2.7-2.64-3-5.41-1-10.85-1.84-15.9-4.27-2.23-1.07-2.88-2.46-2.22-4.75.77-2.66,1-5.49,2.6-7.88.59-.9,1-2.14,1.86-2.63,3.2-1.85,3.51-3.78,1-6.59a8.79,8.79,0,0,1-1.77-4.78c-.74-6.44,2.5-10.41,9-11,1.5-.14,3.55.76,4.35-.31s0-3,.25-4.47c.43-2.47-.15-3.52-2.93-3.5A20.84,20.84,0,0,1,75,174.26c-4.73-1.51-6.94-6.68-5.79-12.86a19.82,19.82,0,0,1,5.56-10.67c5.14-5.07,6.16-11.68,7.32-18.23.92-5.15,1.34-10.38,2.1-15.56.34-2.31.29-3.8-2.53-4.79-5.23-1.83-8-7.35-7.14-13a11.12,11.12,0,0,1,9.77-9.1,2.23,2.23,0,0,0,1.16-3.71c-.85-.82-.56-1.39-.35-2.08.76-2.57,1.82-5.08,2.38-7.7,1.2-5.59,5.28-7.67,10.17-9.17,12.44-3.82,25.14-3.82,37.93-3,10.06.62,20.12,1.08,30.16,1.8,10.74.77,21.52,1.43,32.19,2.8,6.42.82,12.86,1.62,19.26,2.64a7.87,7.87,0,0,1,2.29.68c.84.43,1.33.84.5,2.05-3.22,4.63-7.56,8-11.95,11.4a211.18,211.18,0,0,0-16.79,13.81c-1.65,1.56-1,2,.48,2.72,3.6,1.69,7.48,2.56,11.23,3.8L223.81,113c1.67.55,1.25,1.64.49,2.49-1.69,1.89-3.6,3.59-5.29,5.47a76.57,76.57,0,0,1-25.42,18.61c4.59,2.12,8.82,4.05,13,6,5.77,2.71,11.52,5.48,17.29,8.2,1.32.62,1.78.85.6,2.46-6.19,8.45-15.43,12.32-24.34,16.72-1.65.82-3.35,1.56-5.39,2.51,6,3.27,11.66,6.38,17.35,9.47,6.91,3.75,13.82,7.49,20,12.45.54.44,1.44,1.08,1.38,1.52-.19,1.36-1.15,0-1.6.24a14.08,14.08,0,0,0-2.09,1.71c-6.95,6.13-15.66,8.84-24,12.34-3.23,1.36-6.5,2.62-9.76,3.92h-2.63c11.67-8,24.87-11.54,36.3-19-13.19-7.09-27.06-12.8-37.9-22.48,9.58-8.21,21.72-11.61,30.62-20.73-4.77-1.68-9.31-3.23-13.83-4.89a82.44,82.44,0,0,1-16-7.35c-3.06-1.94-3.08-2.45-.52-4.89a41.19,41.19,0,0,1,8.2-5.79,84,84,0,0,0,16.89-13.2c1.48-1.45,3.05-2.81,4.83-4.44-10.31-2-20-5.35-29.51-9a36,36,0,0,1-5-2.71c-2.15-1.23-2.31-2-.43-3.62,3.65-3.13,7.31-6.25,11-9.28,5.84-4.74,12.07-9,17.58-14.16.45-.42.85-.91,1.55-1.66-4-.42-7.64-1.4-11.42-1.16A.9.9,0,0,1,204.76,72.79Z" transform="translate(-6.97 -7.29)"/><path class="cls-5" d="M119,148.34c9.16-2.27,15.32,3.75,16.43,11.3.94,6.34-1.3,8.27-7.9,9.07-8.45,1-16.88,2.35-25.37,2.8-7.12.37-14.17,1.82-21.39,1-8.48-1-9.79-4.66-8.12-12a13.7,13.7,0,0,1,3.75-6.85c5.14-5,6.68-11.46,7.82-18.09s2.1-13.43,1.72-20.26c-.08-1.36,0-2.1,1.77-2.21a11.24,11.24,0,0,0,10.13-8.82c1.13-5.4-1.27-11.27-6-13.34-2.6-1.13-3-2.5-3.34-5.12-.54-4.18,1.37-7.52,2.6-11.06,1-2.88,4.11-3.74,6.71-4.63,9.58-3.25,19.56-3.36,29.53-3.3-3.43,5.26-7.89,9.67-11.88,14.46-10.35,12.42-16.26,26.83-19.13,42.59a123.94,123.94,0,0,0-2.16,22.08A28.82,28.82,0,0,1,92,157c-1.29,3.18-.5,4.93,2.74,6.12a33.08,33.08,0,0,0,14.73,1.58c4.13-.39,8.24-1,12.35-1.58,3.35-.45,5.83-2.61,6.07-5.24.42-4.48-1.35-7.73-4.85-8.88l0,0C121.78,148.06,120.33,148.71,119,148.34Z" transform="translate(-6.97 -7.29)"/><path class="cls-6" d="M195.49,237.29c-12.4,1.29-24.85.38-37.27.64-6.7.13-13.44.31-20.11-.21-12.72-1-25.55-.38-38.19-2.61a16.63,16.63,0,0,1-8.1-4.17,3.17,3.17,0,0,1-1.31-3.36c.49-1.37,1.89-.62,2.86-.61q25.59.15,51.14-1.52c4.07-.27,8.15-.14,12.22-.58a16,16,0,0,0,7.18-2.18c-.34,3.86-3.33,5.58-6.57,7.75,5.39,1.31,10.14,3.46,15.4,3.53,6,.07,12-.11,17.86,1.15A9.37,9.37,0,0,1,195.49,237.29Z" transform="translate(-6.97 -7.29)"/><path class="cls-5" d="M102.83,184.89q-7.18-.3-14.36-.58c-1.25-.05-1.68-.52-1.51-1.86a14.93,14.93,0,0,0-.4-6.55c12.53-1.36,25.09-1.72,37.52-3.44-8.27,3.37-16.18,7.48-24.24,11.6C100.89,184.76,102.05,184.09,102.83,184.89Z" transform="translate(-6.97 -7.29)"/><path class="cls-7" d="M135.52,115.82c-3.4,3.83-7.87,3.9-12.26,2.94-5-1.08-7.16-5-7.75-9.71-.91-7.13,3.28-16.36,11.75-18.6,1.67-.44,3.36-.72,5,.15-2,1.82-4.42,2.87-6.4,4.82-5.61,5.5-3.43,16.92,5.86,19.22C133,115,134.48,114.71,135.52,115.82Z" transform="translate(-6.97 -7.29)"/><path class="cls-8" d="M135.52,115.82c-7.68-.41-12.06-3.93-13.37-10.95a11.37,11.37,0,0,1,2.64-9.35,12.28,12.28,0,0,1,7.46-4.92c6-.37,10.87,1.52,13.61,7.19a12.48,12.48,0,0,1-8.24,17.5C136.92,115.48,136.22,115.64,135.52,115.82Z" transform="translate(-6.97 -7.29)"/><path class="cls-9" d="M169.92,215.56c1.24-2.65,1-6.16,1.12-9.64a11,11,0,0,0-1.44-6.46c-.59-.92-.93-1.57-.06-2.6a2.61,2.61,0,0,1,3.16-.77,8.15,8.15,0,0,1,4.68,5c2.33,6.41-.47,11.66-4.52,16.41-.5.59-1.22,1.44-2.3,1.13C169.93,218.49,169.89,218.29,169.92,215.56Z" transform="translate(-6.97 -7.29)"/><path class="cls-10" d="M194,210.78c2.1-3.09,5-4.95,7.68-6.81,3.34-2.28,6.58-4.73,10.43-6.26a8.54,8.54,0,0,1,3.31-.74c.83,0,1.93-.35,2.29.87a2.72,2.72,0,0,1-.78,2.9c-2.74,2.86-6.33,4.08-9.84,5.52s-7.06,3.14-10.6,4.68A3.39,3.39,0,0,1,194,210.78Z" transform="translate(-6.97 -7.29)"/><path class="cls-11" d="M191.9,134.39c3.57-7.29,9.27-12.28,16-16.33a2,2,0,0,1,3,.49c1,1.11.18,2.11-.65,2.79-4,3.23-7.69,6.88-12.31,9.33-1.22.65-2.07,2-3.22,2.78C194,134,193.48,135.17,191.9,134.39Z" transform="translate(-6.97 -7.29)"/><path class="cls-12" d="M204.76,72.79l1.07,0c1.94,2.82,1.44,3.48-1.37,5.58a120,120,0,0,1-12.81,7.92,3.54,3.54,0,0,1-2.94.3c2.66-6.11,8.2-8.94,13.09-12.5C202.71,73.46,204.31,74.41,204.76,72.79Z" transform="translate(-6.97 -7.29)"/><path class="cls-13" d="M187.68,170.33a10.27,10.27,0,0,1,4.36-4.48c5.34-3.23,10.94-6,16.46-9a2.54,2.54,0,0,1,1.32-.2c.84.07,2-.4,2.37.72s-.65,2-1.43,2.31c-2.71,1.15-4.92,3.19-7.6,4.3-4.82,2-9.54,4.18-14.16,6.6A1.13,1.13,0,0,1,187.68,170.33Z" transform="translate(-6.97 -7.29)"/><path class="cls-14" d="M123.06,160c-2.11,1.79-3.78,1.45-5.53-1.13-1.12-1.29.06-3.11-1-4.42v-1c1.51-4,2.75-4.68,6.46-3.29l2.14,2.22a5.81,5.81,0,0,1,.07,5.38h0A10.94,10.94,0,0,1,123.06,160Z" transform="translate(-6.97 -7.29)"/><path class="cls-15" d="M138.85,165.89c.05-3,.25-6-.57-8.91a16.83,16.83,0,0,0-10.78-12c-2.09-.78-4.11,0-6.16.1,1.73-3.27,6.3-3.17,9-1.9,7.21,3.44,10.77,10.06,9.46,18C139.5,162.76,140,164.5,138.85,165.89Z" transform="translate(-6.97 -7.29)"/><path class="cls-16" d="M210.49,236.14c-2.14,0-3.83.22-5.36-.9-.52-.37-1.45-.14-1.43-1.22a2.22,2.22,0,0,1,1.58-2c4.47-1.92,8.73-.6,13,1,.66.25.69.76.63,1.31a.84.84,0,0,1-1,.74C215.2,234.87,212.79,236.83,210.49,236.14Z" transform="translate(-6.97 -7.29)"/><path class="cls-17" d="M123,150.12c-3.19-.92-5,.91-6.46,3.29-.15-3.79.45-4.45,4.08-4.45.79,0,1.59,0,2.39,0l0,0Z" transform="translate(-6.97 -7.29)"/><path class="cls-17" d="M125.18,157.72c0-1.79-.05-3.59-.07-5.38A3.53,3.53,0,0,1,125.18,157.72Z" transform="translate(-6.97 -7.29)"/><path class="cls-17" d="M116.51,154.4c1.89,1.12.69,2.95,1,4.42C115.41,157.76,116.77,155.89,116.51,154.4Z" transform="translate(-6.97 -7.29)"/><path class="cls-17" d="M123.06,160a2.73,2.73,0,0,1,2.12-2.23C125.44,159.38,124.72,160.11,123.06,160Z" transform="translate(-6.97 -7.29)"/><path class="cls-18" d="M111.34,223.73c-4.25,0-10.62.25-17-.07a78.08,78.08,0,0,1-23.09-4.43c-2-.73-2.25-1.73-1.57-3.43.33-.84.58-1.72,1-2.53,3-6.28,4.47-8.57,11.63-8.13q32.75,2,65.56,2.86c1.45,0,2.9-.1,4.35-.15a1.19,1.19,0,0,0,1.23-.85c.19-.75-.56-.86-1-1a21.71,21.71,0,0,0-7.7-1.38c-21.43-.11-42.81-1.76-64.23-2.22-2.42-.05-3.72-1.92-4.78-3.56a13.6,13.6,0,0,1-1.84-9.14c.12-1,.55-1.21,1.45-1.52,3.62-1.23,7.32-1.11,11-.93,6.34.3,12.69.66,19,.92,7.72.32,15.28,1.8,22.91,2.78,9.17,1.17,18.26,2.64,27.27,4.67,6.82,1.54,8.26,3,9.18,9.86a26,26,0,0,1-.45,10.81c-1.06,3.61-2.62,5-6.27,5.29C143.2,222.55,128.33,223.21,111.34,223.73Z" transform="translate(-6.97 -7.29)"/><path class="cls-19" d="M95.2,101.26a9.32,9.32,0,0,1-9.28,9,8.82,8.82,0,0,1-8.61-9c0-4.8,4.33-9.63,8.58-9.56A9.92,9.92,0,0,1,95.2,101.26Z" transform="translate(-6.97 -7.29)"/><path class="cls-19" d="M134.21,112.53a9.62,9.62,0,0,1-9.45-9.78c0-5.73,4.27-9.44,10.19-9.43a9.45,9.45,0,0,1,9.31,9.84C144.21,108.6,139.91,112.61,134.21,112.53Z" transform="translate(-6.97 -7.29)"/><path class="cls-20" d="M83.09,102.27A7.22,7.22,0,0,1,85,96.82c1.09-1.26,2.65-1.06,3.13.48a12.78,12.78,0,0,1,.43,6.93c-.38,1.5-1.1,3.06-3.07,2.78s-2.35-1.72-2.38-3.4C83.08,103.17,83.09,102.72,83.09,102.27Z" transform="translate(-6.97 -7.29)"/><path class="cls-21" d="M130.67,102.94a42.74,42.74,0,0,1,1.1-4.4c.69-2,2.21-2.34,3.87-1.18a5.24,5.24,0,0,1,2.16,5.23c-.27,2.15-1,4-3.15,5C132.18,108.74,130.51,107.12,130.67,102.94Z" transform="translate(-6.97 -7.29)"/></svg>