<svg id="Layer_1" data-name="Layer 1" xmlns="http://www.w3.org/2000/svg" viewBox="0 0 286.11 285.41"><defs><style>.cls-1{fill:#010101;}.cls-2{fill:#fefefe;}.cls-3{fill:#030101;}.cls-4{fill:#fe7900;}.cls-5{fill:#d6000a;}.cls-6{fill:#d5000a;}.cls-7{fill:#fc7802;}.cls-8{fill:#d2040c;}.cls-9{fill:#d2030b;}.cls-10{fill:#fa7605;}.cls-11{fill:#f97507;}.cls-12{fill:#fbc602;}.cls-13{fill:#fbc603;}.cls-14{fill:#020202;}.cls-15{fill:#030303;}.cls-16{fill:#ee8777;}.cls-17{fill:#040404;}</style></defs><title>3</title><path class="cls-1" d="M146.55,7.32c35.79,0,71.58-.08,107.37.07,5.93,0,12,.22,17.74,2.1,9.37,3,15.76,9.25,19.44,18.42,1.93,4.79,1.84,9.64,1.68,14.65q-.46,14-.43,28c.07,52.77,0,105.54.1,158.31,0,6.75-.1,13.52.37,20.32.5,7.32.37,14.9-1.89,22.1-3,9.52-9.31,15.87-18.55,19.65-5.53,2.26-11.18,1.72-16.83,1.64-1.63,0-3.26,0-4.89,0l-149.79-.13c-13.72,0-27.45-.34-41.15.14-6.81.24-13.58-.06-20.36-.2-11.89-.24-21.71-4.64-28.07-15.19a28.63,28.63,0,0,1-4.15-18.47,46.78,46.78,0,0,0,.24-5.16q0-52.45,0-104.9c0-30.88.1-61.77-.08-92.65A188.54,188.54,0,0,1,7.9,35.15c1.32-12.44,8-20.81,19.35-25.76,5-2.18,10.24-2,15.46-2q51.92-.06,103.84,0Z" transform="translate(-6.94 -7.3)"/><path class="cls-2" d="M11.34,150.14c0-31.43,0-62.85,0-94.28,0-6.91.3-13.8.64-20.69C12.54,23,24.07,11.93,36.24,11.8c50.86-.55,101.73-.15,152.6-.24q31.49-.06,63,.12a100.48,100.48,0,0,1,15.72,1.07c13,2.19,21.37,14.36,21.21,25.67-.92,65.46-.34,130.93-.38,196.4,0,9.43.15,18.85-.12,28.28-.4,14.08-12.8,25.51-26.35,25.44-48-.23-96.1-.1-144.16-.1-20.62,0-41.24-.16-61.86.06-7.91.09-15.82.14-23.58-1.14a25,25,0,0,1-20.56-20.95c-.77-5.15-.35-10.48-.35-15.73q0-50.27,0-100.54Z" transform="translate(-6.94 -7.3)"/><path class="cls-3" d="M122.42,258.72c0-6.29-.2-12.41,1-18.66-10.53-.66-19.68-4.75-27.72-11.07-6.21-4.9-11.44-10.84-13-19-2.21-11.88,1.79-22.08,9.11-31.17,4.9-6.08,10.36-11.6,17.29-15.44a1.42,1.42,0,0,0,.8-1.5,207.07,207.07,0,0,0-1.09-21.13c-.1-.87-.07-1.53-1.29-1.57-12.23-.38-22.23-6.53-32.19-12.68a10.51,10.51,0,0,1-3.64-3.21c-1.17-2-2.72-1.79-4.34-1.34a10.49,10.49,0,0,1-6.68-.3c-5-1.93-6-6-2.91-11.19,1.84-3.13,6-4.76,8.84-3.87,3.24,1,5.61,4.51,5.63,8.36a8.86,8.86,0,0,1-.75,4.72c-.7,1.27.59,2.23,1.43,3.09,4.46,4.58,10.21,7.09,15.81,9.86s11.08,5,17.26,5.47c1.83.15,3.25.16,2.8-2.37-.73-4.13-.56-8.31-.63-12.47,0-1.78-.54-2.92-2.59-3.55-6.75-2.08-7.58-3.45-7.71-10.39-.16-8.42.86-16.79,1.12-25.19.11-3.42,2.79-5.08,7.3-6.43,4.35-1.3,4.06-1,3.73-5.79-.31-4.32-.69-8.63-1.08-12.94-.24-2.71,2.22-4.71,6.31-5.91,7.19-2.12,14.61-3.19,21.93-4.71a74.77,74.77,0,0,1,36,1.51c6.87,2,8.68,4.8,8.63,12,0,2.24.5,4.53-.62,6.92,3.85.29,7.52.18,11.18.55,4.93.49,7.23,2.62,7.48,7.59.41,8.1-1.55,15.9-3,23.75-.8,4.38-.77,8.81-1.32,13.19-.6,4.83-2.34,8.58-7.31,10.15a22.12,22.12,0,0,0-2.47,1c-1.43.65-3.94-.13-4.32,1.21-.63,2.28-.28,4.86-.18,7.31.06,1.34,1.29.72,1.93.71a61.61,61.61,0,0,0,29.33-8.07c2.82-1.57,5.48-3.41,8.3-5,2.31-1.28,3.14-3,3-5.67-.23-6.49,3.55-10.13,10.07-10.2a7.78,7.78,0,0,1,7.87,7.46c.3,3.52-.89,6.11-4.21,7.64-3.11,1.45-6.23,2.67-9.75,1.85-.43-.1-1-.11-1.25-.39-1.93-2.69-3.48-.86-5.18.31a74.16,74.16,0,0,1-25.36,11.68,44,44,0,0,1-12.83,1.44c-1.7-.11-2.2.51-2.28,2-.2,3.52-.44,7-.78,10.56-.14,1.51.58,2.11,1.86,2.46,2.23.61,4.47,1.19,6.66,1.9,9.89,3.2,18.19,8.76,24.09,17.36,7.51,11,6.76,27.21-1.76,38.15-5.13,6.57-10.61,12.91-17.63,17.61a66.32,66.32,0,0,1-18.34,8.76c-2,.6-3.85,1.92-6.06,2-.84,0-.75.65-.72,1.16.31,6.79-.68,13.59.41,20.37.25,1.53.75,1.5,1.9,1.15,5.67-1.72,11.16-1,16.51,1.32a8.5,8.5,0,0,1,2.31,1.37c1.87,1.66,1.54,3.7-.8,4.58a19.06,19.06,0,0,1-12.69.28c-2.19-.68-4.42-1.12-6.39-2.57-3.44-2.53-3.17-6.25-3.45-9.71a96.56,96.56,0,0,1,.4-14.12c.15-2.11-.23-3.05-2.91-2.3-10.66,3-21.6,3.76-32.64,3.37h-.54c-5.35-.41-5.63-.41-5.64,5,0,4.65-1.59,9.27-.28,14,.27,1-.92,1.46-1.77,1.71-5.65,1.64-11,4.31-17,4.84-2.11.19-4.27.51-5.44-1.84a5.55,5.55,0,0,1,1.84-6.53c4.17-2.9,8.75-2.69,13.39-1.53C117.83,257.28,120,258,122.42,258.72Z" transform="translate(-6.94 -7.3)"/><path class="cls-4" d="M122.39,120.32c3.75-2,5.49-5,5.65-9.35a52.68,52.68,0,0,1,2.21-13,41.08,41.08,0,0,0,1.45-14.19,7.22,7.22,0,0,0-5.34-6.75c-1.27-.42-2.57-.74-3.86-1.11-1.27-1.91-1.2-4.16-1.28-6.26a101.68,101.68,0,0,0-1.75-13.37c-.18-1.06-.53-2.13.32-3.08,9.51-2,19-4.31,28.72-4.74a67.54,67.54,0,0,1,26.66,3.68c3.33,1.22,4.74,4.21,5,7.76.58,8.82.61,8.82-8.85,10.55-6.87,1.25-9.69,3.94-11.22,10.61-1.49,6.45-1.47,13.06-2.19,19.59A35.1,35.1,0,0,0,160,116.55c1.63,4.57,4.6,6.81,9.41,7.44,3.15.42,6.15,1.77,9.36,2.12,1,.12.5.89.48,1.48-.28,9-1,17.93-.66,26.91,0,.45.1.89.18,1.61,1.63-1.42.45-3.21,1-4.38a49.63,49.63,0,0,1,25.41,11.74c6.46,5.51,9.4,13.05,10.46,21.33,1.56,12.27-4.62,21.21-12.56,29.5-4.65,4.86-9.47,9.38-15.72,12.11-4.65,2.11-9.71,2.07-14.62,2.69-6.29.79-12.59,1.9-19,1.29-8.54-.82-17.31,0-25.51-3.27-6.76-2.7-13.39-5.63-18.35-11.31-2.56-2.93-5.49-5.51-8-8.55-5.19-6.36-7-14.27-10.45-21.44a3.72,3.72,0,0,1-.23-2.91c4.68-7.53,11.4-12.79,19-17.08,1.53-.87.29-2.76,1.43-3.76,1.94.38,3.94.63,5.82,1.12,5.44,1.42,10.59.31,16.14-1.18a27.73,27.73,0,0,0-3.71-1.67c-4.28-2-6.9-4.91-6.71-10.08.32-8.69.26-17.4-1.42-26A5,5,0,0,1,122.39,120.32Z" transform="translate(-6.94 -7.3)"/><path class="cls-2" d="M159.57,103.66c-.25-7.23,1-13.85,1.81-20.45a12.06,12.06,0,0,1,8.41-10.4,43.41,43.41,0,0,1,23.94-1.28c3.76.82,4.48,2,4.53,5.74.07,6-1.29,11.82-2.27,17.67-.92,5.52-1.52,11.06-2,16.63-.19,2.44-.26,4.81-1.59,7-2.26,3.71-6.21,4.48-9.85,5.25-5.63,1.2-11.13-.53-16.52-2.06-3.43-1-4.79-4-5.29-7.1C160.17,110.87,158.91,107.09,159.57,103.66Z" transform="translate(-6.94 -7.3)"/><path class="cls-5" d="M91.32,182.91c2.27,6.2,4.9,12.26,7.59,18.3a31.23,31.23,0,0,0,4.73,6.93c8.5,10.22,18.69,17.89,32.18,20.2,2.31.4,4.68.49,7,.72A143.51,143.51,0,0,0,178,227.72c3.11-.47,6.19-1.33,9.38-1.31-3.7,3.08-8.23,4.61-12.56,6.42a106.22,106.22,0,0,1-11.92,3.86,104.76,104.76,0,0,1-14.83,2.79,87.17,87.17,0,0,1-19.51-.07c-12.2-1.11-23.88-4.46-33-12.93-6.79-6.3-12.3-14-11.74-24.11C84.26,195.15,86.34,188.44,91.32,182.91Z" transform="translate(-6.94 -7.3)"/><path class="cls-2" d="M117.26,78.17c3.77-.13,7.13.08,10.31,1.66a4.19,4.19,0,0,1,2.53,4.07,47.87,47.87,0,0,1-1.48,13.93c-1.38,5-1.66,10.28-2.32,15.45-.43,3.38-2.19,5-5.55,5.82-6.32,1.62-12.12-.31-17.76-2.51-3.46-1.34-3-5.3-3.29-8.26a44.93,44.93,0,0,1,.56-9.74,83,83,0,0,0,.24-14.36,3,3,0,0,1,2.37-3.35C107.68,79.45,112.42,77.6,117.26,78.17Z" transform="translate(-6.94 -7.3)"/><path class="cls-5" d="M122.39,120.32A189.42,189.42,0,0,1,124.12,152c-.17,3.95,2.62,5.95,5.74,7.47,1.86.9,3.85,1.53,5.84,2.59-4.42,1.25-8.75,3-13.44,2.62-2.6-.21-5.14-1-7.78-1-1.24,0-1.93-.9-2.74-1.61-.33-5.15-.46-10.33-.56-15.47-.14-7.89-.68-15.74-1.26-23.6-.15-2,.46-3,2.57-2.38C115.83,121.57,119.1,120.52,122.39,120.32Z" transform="translate(-6.94 -7.3)"/><path class="cls-6" d="M119.79,53.25A145.74,145.74,0,0,1,122.5,76c-3,.26-6.12-.4-9.14.47-1,.3-1.75-.13-1.78-1.36-.06-2.43-.76-4.8-.58-7.26a19.66,19.66,0,0,0-.39-5.11c-1-5.15.14-6.9,5-8.36C117,53.93,118.4,53.61,119.79,53.25Z" transform="translate(-6.94 -7.3)"/><path class="cls-7" d="M234.14,106.49c3.22-.71,5.45,2.37,6.49,5.68.86,2.69-.3,5.26-3,6.85a14.05,14.05,0,0,1-6.58,2.21c-4.69.21-5.68-.79-6-5.81C224.63,110.15,228.59,106.25,234.14,106.49Z" transform="translate(-6.94 -7.3)"/><path class="cls-7" d="M64.89,120.65c-1,0-2,.08-3,0A5,5,0,0,1,57.57,116c0-4.08,3-8,6.52-8.37s6.21,2.26,7.08,6.75S70.18,120.73,64.89,120.65Z" transform="translate(-6.94 -7.3)"/><path class="cls-8" d="M121.41,259.85c.8,1.35-.62,1.2-1.08,1.35-4.66,1.56-9.18,3.55-14.18,4.05-1.88.19-3.65.79-4.75-1.19-1-1.72.16-3.92,2.47-5.31,1.86,1.94,4,2,6.57,1.54A32.06,32.06,0,0,1,121.41,259.85Z" transform="translate(-6.94 -7.3)"/><path class="cls-9" d="M184.08,265.68c-2.18,1.35-4.44.33-6.5-.14-2.7-.62-5.69-.94-7.67-3.35-.75-.92-1.5-1.77.53-2,1.31-.18,2.6-.58,3.91-.88,3.59.9,6.48,3,9.29,5.29C184,264.84,184.33,265.15,184.08,265.68Z" transform="translate(-6.94 -7.3)"/><path class="cls-10" d="M184.08,265.68c-3-2.58-6.47-4.31-9.73-6.41,4.43-.7,8.53.58,12.56,2.15a5.78,5.78,0,0,1,1.55,1.08c1.29,1.09,1.3,1.9-.43,2.63A10.53,10.53,0,0,1,184.08,265.68Z" transform="translate(-6.94 -7.3)"/><path class="cls-11" d="M121.41,259.85c-2.74.28-5.48.61-8.22.83a11.54,11.54,0,0,0-4,.57c-2.79,1.26-4.38.05-5.35-2.5,3.29-2.07,6.94-1.53,10.43-1.11C116.73,257.94,119.05,259.08,121.41,259.85Z" transform="translate(-6.94 -7.3)"/><path d="M158.87,165.8c10.22.21,18.76,1.13,26.86,4.67s8.84,10.35,6.48,17.36C186.46,205,173,213.61,157.29,219.89c-10.25,4.09-20.72,3.78-31.17,1.49a21.65,21.65,0,0,1-13.87-9.2c-3.32-5.15-2.17-10.7,0-16.11,4.37-11,12-18.8,22.49-24.14A59.27,59.27,0,0,1,158.87,165.8Z" transform="translate(-6.94 -7.3)"/><path class="cls-12" d="M161.61,52a35.6,35.6,0,0,1,10.48,1.11c3.3.8,4.7,2.49,4.91,5.82a11.77,11.77,0,0,0,.28,1.86c.28,1.16.78,2.74-.11,3.33-1,.7-2.36-.37-3.35-1.14a10.9,10.9,0,0,1-2.39-2.19c-3.06-4.56-7.72-6-12.78-6.57-1.37-.16-3.61.07-3.56-1.32s2.26-.73,3.53-.88A27.08,27.08,0,0,1,161.61,52Z" transform="translate(-6.94 -7.3)"/><path class="cls-13" d="M204.83,174.18c-.34,1.13.79,3.18-1.25,3.52-1.6.27-2.45-1.42-3-2.74-1.55-4.09-3.42-7.83-7-10.6a23.12,23.12,0,0,0-6.44-3.86c-.48-.17-1.23,0-1.17-.79,0-.58.67-.77,1.14-1,1.65-.95,3.4-.31,4.7.34,5.2,2.56,10.21,5.44,12.51,11.3A11.73,11.73,0,0,1,204.83,174.18Z" transform="translate(-6.94 -7.3)"/><path class="cls-14" d="M176.82,87.33c.81.08,1.63.09,2.43.24,1.78.33,2.92,1.07,2.72,3.26a24.16,24.16,0,0,0,.3,5.36c.22,1.68-.27,2.41-2,2.14a5.71,5.71,0,0,0-1.89.06c-.5.1-1.1.22-1.29.84a1.21,1.21,0,0,0,.75,1.57c5.34,1.7,2.89,6.19,3.42,9.59.12.78-.66,1.17-1.39,1.45-3.11,1.17-7.51-1.14-7.61-4.39-.16-5.56-.05-11.14.26-16.7C172.69,87.34,173.39,87,176.82,87.33Z" transform="translate(-6.94 -7.3)"/><path class="cls-15" d="M109.85,99c0-1.81,0-3.62,0-5.43,0-2.13,1-3.42,3.31-3.35,2,.07,4.35-.74,4.74,2.68s.31,3.89-3.3,4.41c-.65.09-1.33.13-1.55.84s.46,1.1,1,1.44a7.89,7.89,0,0,0,2.09,1.21c3,.84,2.5,3,1.73,4.92-.57,1.46-1.45,3.11-3.56,2.57-3.91-1-4.36-.69-4.45-4.12V99Z" transform="translate(-6.94 -7.3)"/><path class="cls-16" d="M145.09,211.34c-1.37-3-4.18-3-6-4.41-.72-.55-2.33-.31-2.2-1.43s1.55-1.23,2.62-1.51c3.56-.92,6.84-.74,10,1.4s6.58,4.32,8.61,8c.84,1.51.7,2.47-.41,3.49a12.14,12.14,0,0,1-5.37,3,58.65,58.65,0,0,1-15.34,1.6,38.73,38.73,0,0,1-19.75-5.87c-2.64-1.66-2.44-3,.07-5,6-4.83,12.71-4.88,19.65-2.57C139.6,208.93,142.07,210.1,145.09,211.34Z" transform="translate(-6.94 -7.3)"/><path class="cls-2" d="M154.34,188.54c-4.29,2-8.84,2.18-13.43,1.69-1.65-.18-1.74-1.69-1.71-3,.13-5.14.32-10.28.53-15.43,0-.9.62-1.39,1.54-1.59,4.59-1.06,9.17-2.18,13.77-3.21,1-.23,2.23-.08,2.28,1.23.22,5.49,1.72,10.92.84,16.45-.34,2.14-1.26,3.89-3.86,3.87-.25-.27-.55-.59-.9-.55a15.25,15.25,0,0,1-10-2.66c-1.07-.71-1.5,0-1.46,1,.07,1.78,1.24,2.34,2.78,2.2a53,53,0,0,1,7-.46A4.42,4.42,0,0,1,154.34,188.54Z" transform="translate(-6.94 -7.3)"/><path class="cls-2" d="M176.58,178.44a25.6,25.6,0,0,1-.48,5.5c-1.15,4.5-1.12,4.55-5.56,5.24l-.54.08c-7.46.82-8.58-.12-8.83-7.48-.14-4.22-1.12-8.42-.15-12.69.29-1.24.57-1.7,1.82-1.57,3.76.37,7.53.67,11.29,1,.58.06,1.41,0,1.33.94C175.18,172.76,177.19,175.77,176.58,178.44Z" transform="translate(-6.94 -7.3)"/><path d="M154.34,188.54l-10.41.79c-1.16.09-2.45-.27-2.74-1.29a6.33,6.33,0,0,1,.28-3.64c.34-.91,1.17-.65,1.94,0a10.6,10.6,0,0,0,9.11,2.74c1.17-.19,1.87.08,1.78,1.41Z" transform="translate(-6.94 -7.3)"/><path class="cls-17" d="M167.72,187.15a11.14,11.14,0,0,1-3.29-.44c-1-.2-1.72-.26-1.68-1.53,0-.78-.4-1.73.33-2.23.93-.64,1.71.22,2.38.73,1.29,1,2.82.95,4.28,1.26.65.14,1.77-.52,1.81.91,0,1.28-1,1.21-1.78,1.29C169.15,187.2,168.51,187.15,167.72,187.15Z" transform="translate(-6.94 -7.3)"/></svg>