<svg id="Layer_1" data-name="Layer 1" xmlns="http://www.w3.org/2000/svg" viewBox="0 0 286.13 285.41"><defs><style>.cls-1{fill:#010101;}.cls-2{fill:#fefefe;}.cls-3{fill:#020402;}.cls-4{fill:#829f5e;}.cls-5{fill:#e87;}.cls-6{fill:#1d8767;}.cls-7{fill:#fdfdfd;}.cls-8{fill:#208666;}.cls-9{fill:#288363;}.cls-10{fill:#dfd93a;}.cls-11{fill:#829f61;}.cls-12{fill:#fcfcfc;}.cls-13{fill:#1e8667;}.cls-14{fill:#ddd83f;}.cls-15{fill:#fafbfa;}.cls-16{fill:#f9f9f9;}.cls-17{fill:#dad843;}.cls-18{fill:#d9d844;}.cls-19{fill:#838e6f;}.cls-20{fill:#e0d937;}.cls-21{fill:#e0d938;}.cls-22{fill:#0e0e0e;}.cls-23{fill:#030203;}</style></defs><title>31</title><path class="cls-1" d="M146.49,7.33c35.79,0,71.59-.11,107.38.09,7,0,14.12.32,20.81,3.15,10.95,4.63,19.52,17.26,18.26,30.86a138,138,0,0,0-.49,22c.15,2.26-.05,4.54-.05,6.81q0,79.43.06,158.86c0,6.76-.06,13.52.37,20.32.47,7.32.37,14.91-1.94,22.1-3,9.38-9.31,15.67-18.45,19.42-5.52,2.27-11.16,1.69-16.82,1.72-1.62,0-3.25-.07-4.88-.07l-144.62-.14c-15.44,0-30.9-.31-46.33.14-6.81.21-13.58,0-20.36-.2C24.11,292,12.69,285,7.6,268.54A20.69,20.69,0,0,1,7,261.25c.88-13.62.31-27.24.34-40.85q.15-82.29,0-164.59c0-8.06-.48-16.15,1.1-24.07,2.26-11.34,9.32-18.69,20-22.8,4.65-1.78,9.43-1.55,14.19-1.56q51.93-.09,103.84,0Z" transform="translate(-6.94 -7.3)"/><path class="cls-2" d="M11.34,150.12q0-46.73,0-93.46c0-8-.29-16,1.07-23.9,2.28-13.3,14.67-21,25.22-21.08q107-.35,213.93,0a98.24,98.24,0,0,1,16,1.09c13,2.18,21.34,14.42,21.17,25.68-.93,65.74-.33,131.48-.37,197.23,0,9.15.12,18.3-.14,27.46-.39,14.09-12.81,25.46-26.37,25.4-52.59-.23-105.19-.1-157.78-.1-16.08,0-32.17-.23-48.24.09-7,.14-14-.2-20.91-.72A25.59,25.59,0,0,1,11.53,265.6c-.75-5.34-.17-10.86-.17-16.3V150.12Z" transform="translate(-6.94 -7.3)"/><path class="cls-3" d="M201.34,205.67c-1.69,6.92-3.34,13.62-4.46,20.45a68.5,68.5,0,0,1-1.49,7.11c-.65,2.3-1.7,2.52-3.42.81-3.66-3.66-4.86-8.52-6.22-13.26-1.2-4.12-2.21-8.3-3.18-12.49-.24-1-.39-1.5-1.61-1.53-12.7-.23-25.4-.63-38.1-.8-5.67-.08-5.26.28-7.41,5.41-2.82,6.74-3.8,14-6.41,20.76a12.87,12.87,0,0,1-2.88,4.54c-2,2-3.68,1.73-5-.61a12.19,12.19,0,0,1-1.4-5.72c-.24-5.81.42-11.59.61-17.38.08-2.09,0-4.18,0-6.26-.06-2.36-1.59-3.28-3.61-3-6.24.92-12.45,2.05-18.68,3.08-2,.33-2.69,1.35-2.87,3.48a120.15,120.15,0,0,1-2.8,15.59,72.89,72.89,0,0,0-.92,7.25c-.2,1.74-.72,3.16-2.77,3.43s-3.08-.74-3.82-2.34c-1.58-3.46-2-7.25-2.91-10.89-2.75-10.84-5.65-21.64-8.12-32.55-1.62-7.16-3-14.34-5.72-21.22-.38-1-.61-1.41-1.68-1.55a19.76,19.76,0,0,1-3.89-1c-1.53-.53-3.33-1-3.22-3.09A3.77,3.77,0,0,1,62.5,160c2.35-.23,1.84-1.66,1.53-2.81A96.27,96.27,0,0,1,61,125.06c.5-6.7,0-13.43.91-20.1a27.39,27.39,0,0,0,0-4.62c-.16-4.3-.22-4.35-4.36-5.22-2.16-.46-4.38-1-4.79-3.6s1.19-4,3.17-5.17a20.59,20.59,0,0,1,10.56-2.71c8.35-.13,16.71,0,25.06-.13,5-.09,9.95-.56,14.93-.86,6.72-.41,13.41.33,20.12.61,2.09.09,3.7.08,5.17-2.05,2.81-4.09,6.76-4.8,10.64-1.88.7.53.94.44,1.5,0a210.92,210.92,0,0,1,41.86-24.19c5.49-2.43,10.83-5.11,16.69-6.59,2.83-.72,4.64.88,6,2.65s.52,3.84-.94,5.42c-3.1,3.34-7.35,4.82-11.27,6.8C189.55,66.8,182.8,70,176.1,73.31c-.57.28-1.07.68-1.61,1a1.5,1.5,0,0,0-.61,2.11c.37.85,1.2.73,1.9.56a46.25,46.25,0,0,0,7.7-2.36c8.32-3.53,16.63-7.08,25-10.54,1.39-.58,2.42-1.93,4.12-1.84,1.28.06,2.74-.08,3.38,1.23a4.24,4.24,0,0,1-.09,3.9,8.38,8.38,0,0,1-2.73,3,189.74,189.74,0,0,1-18.42,11.91,34.15,34.15,0,0,0-8.42,6.35c-.47.48-1.28,1.1-.84,1.79s1.25.56,2,.44a26.81,26.81,0,0,0,9-3.55,180.09,180.09,0,0,0,16.69-10,35.14,35.14,0,0,1,5.74-3c2.12-1,3.64-.08,5,1.37s1.31,3,.61,4.76c-1.23,3.06-3.79,4.76-6.33,6.49-8.67,5.88-17.85,11-26,17.7-5,4.09-5,4.42-2.84,10.54,2.88,8.1,7,15.66,10,23.69,3.44,9.13,7,18.22,10.32,27.37.59,1.59,1.3,1.54,2.61,1.11a15.78,15.78,0,0,0,5.91-3.71A100.34,100.34,0,0,0,229,152.5a19,19,0,0,0,3-6.57c.22-.77.41-1.44,1.31-1.42a1.62,1.62,0,0,1,1.56,1.29,8.39,8.39,0,0,1,.47,1.8c.57,9.58-.44,18.9-4,27.91-2.17,5.47-4.32,10.89-8.35,15.32-.3.34-.51.83-.89,1-3.73,1.89-3.07,4.6-2.22,8a211.62,211.62,0,0,1,5.47,31.34c.17,1.76.17,3.94-1.65,4.84-2,1-3.83-.05-5.27-1.67a23,23,0,0,1-4.32-7.11c-2.93-7.62-7.5-14.33-12-21.08C201.93,206,201.66,205.9,201.34,205.67Z" transform="translate(-6.94 -7.3)"/><path class="cls-4" d="M202.05,51c1.64-1.05,3-.48,4.32.69a1.45,1.45,0,0,1,0,2.42A2.26,2.26,0,0,0,204.1,54a31.86,31.86,0,0,0-6.91,3.63c-1.17.9-2.22,1.93-1.57,3.65L175,71.47c-1.31.65-2.78,1.28-3.27,2.7a3.79,3.79,0,0,0,.5,3.86c1.09,1.29,2.42,1.36,3.95,1,6.41-1.39,12.23-4.33,18.13-7,5.74-2.6,11.79-4.52,17.3-7.65.78-.44,1.58-.71,2.21,0a1.48,1.48,0,0,1-.3,2.33c-2.77-.55-4.75,1.4-7,2.3s-4,2.47-5.89,3.82c-1.49,1-1.45,2.06-.1,3.17l-11.24,7a25,25,0,0,0-4.87,4.32c-1,1.07-1.9,2.36-1.15,3.89.84,1.69,2.52,2,4.18,1.82,4-.47,7.48-2.53,10.94-4.44a177.7,177.7,0,0,0,16.48-9.92,21.27,21.27,0,0,1,4.82-2.4c1.13-.43,1.67.11,2.38.68a1.84,1.84,0,0,1,.51,2.43,7.76,7.76,0,0,1-4,4.22c-.58-.25.14-1.92-1.4-1.16-4.39,2.14-9,3.95-13.17,6.44a4.76,4.76,0,0,0-1.27,1c-.76,1-.43,1.47.71,1.61.84.11,1.79-.58,2.53.34-3.77,2.63-7.68,5.09-11.27,8-2.93,2.34-6.38,4.16-8.57,8.12-3.12-6.88-7.36-12.55-11.43-18.36,0,3.2,1.84,5.63,3.36,8,4.6,7.25,8.06,15,11.41,22.87q8.64,20.36,16.39,41.05c.69,1.85,1.36,3.71,2,5.57s1.93,2.44,4,2.21c3.38-.38,6-2.26,8.24-4.36a88.4,88.4,0,0,0,10.22-10.88c1-1.27,1.73-2.71,2.67-4.2a26.38,26.38,0,0,1-.4,11.16c-3.47-3.11-3.46-3.11-4.89,1.7-1.59,5.3-4.36,10.12-6.24,15.3a11.75,11.75,0,0,0-1.06,4.61,10.19,10.19,0,0,0,4.23-3.28c1.08-1.17,1.66-3,3.7-3.07a33,33,0,0,1-9.31,15.34,5.75,5.75,0,0,0-1.8,6.52c2.52,8.56,3.55,17.42,5,26.18.37,2.15.44,4.31.71,6.46.15,1.17.74,2.77-1.31,3.12-1.89-4.41-3-9.09-4.46-13.62A54.83,54.83,0,0,0,210,205.52c-2.4-3.34-5.13-4.08-9-2.56a3.29,3.29,0,0,0-1.66,2c-1.8,8.57-4,17.06-5.47,25.69-.1.57.45,2.1-1.22,1.24-1.29-3.31-.39-6.67,0-9.94a37.48,37.48,0,0,0-.38-10.53c-.27-1.78-.71-3.58-.12-5.38a1.26,1.26,0,0,0-1.24-1.46,6.36,6.36,0,0,0-1.63-.05c-12.75,1.4-25.44-1.05-38.18-.52-3.34.14-6.7-.1-10.05,0-4.68.09-5.51,1.05-7.22,5.39-2.64,6.69-4.15,13.71-6.39,20.51-1-.91-.82-2.16-.83-3.3,0-5.18,0-10.35,0-15.52,0-8.95-1-10.76-9.75-11.68-6.76-.71-12.68-2.57-17.84-6.9a1.47,1.47,0,0,0-.47-.27c-7-2.43-8.77-8.7-10.79-14.71-1-3,.17-4.39,3.11-3.78,8.39,1.76,16.42-.25,24.44-2.19,4.38-1.06,8.86-2,12.54-5,8.79-.15,17.45-1.48,26.11-2.86,2.17-.34,3.63-1.94,5.24-3.21,5.32-4.19,6.88-10.11,6.71-16.45a71.71,71.71,0,0,0-4.64-24.56c-3.14-7.93-5.38-16.23-9.89-23.65C159,94.47,161.9,87.68,157,82h8.48c-2-2.09-3.82-2.07-5.78-1.93-4.41.32-8.84.58-13.26.83-1.1.06-2.21,0-.58-1.29A5.25,5.25,0,0,0,149,79c8.31-4.24,16.37-8.92,24.53-13.42C182.91,60.45,192.23,55.25,202.05,51Z" transform="translate(-6.94 -7.3)"/><path class="cls-5" d="M94.31,93.32c-8.67.45-18.12-.34-27.56.52a42.54,42.54,0,0,1-8.92-.51c-1.26-.16-2.88-.6-3.18-2.11s.84-2.41,2.05-3.18c3.42-2.19,7.3-2.63,11.16-2.74,6.71-.19,13.44-.08,20.16-.07,10.71,0,21.36-1.6,32.08-1,2.08.11,4.15.39,6.23.45s3.83-.21,4.16,3c.37,3.6,5.92,5,9.41,2.72,3.21-2.07,3.21-2.07,5.26,1.46.27.47.52,1.07,1,1.31,5.08,2.78,6.32,8,8.14,12.83,3.12,8.22,6.65,16.33,8.22,25,1.12,6.23,1.9,12.5.92,18.87-.85,5.47-6.25,10.6-11.57,11.75-12.11,2.63-24.45,2.57-36.68,3.75-10.07,1-20.13.14-30.2.45-5.78.18-11.57,1.11-17.38.11a31.47,31.47,0,0,1-3.92-.91c-.83-.25-2.25,0-2.16-1.51.07-1.25,1.16-1.68,2.11-1.78,3.78-.38,7.4-1.82,11.24-1.8,7.44,0,14.85-.72,22.28-1,10.9-.43,21.72-1.82,32.6-2.42,5.19-.29,10.42-.91,15.27-3.19s7.06-6.25,7.53-11.59c1.17-13.21-3.54-25-8.61-36.67-2.55-5.88-7.73-7.86-13.26-9.53C118.94,92.07,107,93.73,94.31,93.32Z" transform="translate(-6.94 -7.3)"/><path class="cls-6" d="M127.85,166.57c-.92,2.68-3.51,3.05-5.64,3.75C114,173,105.72,175,97,175.16a27.91,27.91,0,0,1-6.71-.84c-1.76-.41-2.71.17-2.13,1.82,2,5.71,3,12,9.64,14.87a29.64,29.64,0,0,1,7.68,5.06c2.1,1.83,4.77,1.71,7.2,1.89,3.28.24,6.4,1.12,9.62,1.56,2.51.35,3.44,1.88,4,4.07a32.37,32.37,0,0,1,1.1,8.86c-.06,5.81,0,11.62,0,17.43a5.11,5.11,0,0,1-1.31,3.19c-.67,1-.91,2.82-2.47,2.43-1.27-.32-1.59-2-1.62-3.17-.13-4.7-.46-9.42.17-14.11a63.79,63.79,0,0,0,.17-12.2c-.18-3.14-3.19-5.05-6.48-4.53-7,1.11-14.07,2.06-21,3.63a3.23,3.23,0,0,1-.81-.06,11.69,11.69,0,0,1-5.71-1.17c-2.13-.89-2.9-.28-2.54,2,.41,2.68.63,5.4,1.18,8,1,4.62,1,9.34,1.6,14,.27,1.91.14,4-1.6,5.46-2.21-4.5-2.66-9.48-3.9-14.25C80.75,210.1,78.33,201.05,76,192q-1.73-6.79-3.05-13.69c-.54-2.81-1.89-5.27-2.89-7.87-.73-1.89-.31-2.29,1.61-2.28,11.86.06,23.72-.27,35.59-.16C114.14,168,121,167.07,127.85,166.57Z" transform="translate(-6.94 -7.3)"/><path class="cls-2" d="M88.07,105c.41,6.1-.75,11.86-.57,17.67.07,1.86-.42,3.16-2.78,3.21a48.47,48.47,0,0,0-8,.87c-1.79.34-2.27,0-2.15-1.83.64-9.31,1.61-18.6,1.07-27.94-.06-1.06.3-1.4,1.37-1.39,3.18,0,6.36,0,9.53-.16,1.65-.09,1.51,1.11,1.54,2C88.14,100,88.07,102.63,88.07,105Z" transform="translate(-6.94 -7.3)"/><path class="cls-2" d="M87.08,132.32c.37,8.17.68,16,1.12,23.72.08,1.34-.17,1.75-1.51,1.71a34.72,34.72,0,0,0-8.39.43c-1.08.24-1.44-.19-1.72-1.36-1.26-5.15-.85-10.43-1.48-15.63-.41-3.31-.27-6.69-.64-10-.21-1.94.71-2.51,2.28-2.67,2.78-.28,5.59-.38,8.35-.79,1.83-.27,2.18.44,2,2A23,23,0,0,0,87.08,132.32Z" transform="translate(-6.94 -7.3)"/><path class="cls-2" d="M114.3,147.37c0-6.25-.71-12.48-.61-18.74,0-2.11.64-2.6,2.6-2.47a53.07,53.07,0,0,0,6.79-.06c1.54-.1,2.19.17,2.18,2a198.16,198.16,0,0,0,1,25c.18,1.5-.25,2-1.85,2a57.65,57.65,0,0,0-7.3.51c-2.22.27-2.88-.79-2.83-2.76C114.34,151,114.3,149.18,114.3,147.37Z" transform="translate(-6.94 -7.3)"/><path class="cls-2" d="M111.76,144.38c.77,3.41-.14,6.88.86,10.27.21.7.16,1.4-1,1.45q-4.34.18-8.65.57c-1.33.12-1.72-.35-1.72-1.64,0-8.88-.89-17.73-.61-26.62,0-1.4.4-1.85,1.83-1.84,2.53,0,5.06-.2,7.59-.38,1.23-.08,1.73.23,1.71,1.63C111.71,133.34,111.76,138.86,111.76,144.38Z" transform="translate(-6.94 -7.3)"/><path class="cls-7" d="M62.67,95.6c3.44,0,6.53.05,9.61,0,1.25,0,1.74.24,1.71,1.61-.16,6.79.3,13.58-1,20.33a32.23,32.23,0,0,0-.14,7.61c.1,1.79-.73,2.41-2.27,2.6l-.27,0-7.42.94c.08-2.49.06-5,.25-7.48.43-5.71.42-11.43.47-17.14A29.41,29.41,0,0,0,62.67,95.6Z" transform="translate(-6.94 -7.3)"/><path class="cls-2" d="M101.22,110.08c0-4.35.08-8.71,0-13.06,0-1.6.49-2,2-1.92s2.9,0,4.35,0c4.7-.1,4.81-.11,5.1,4.54.51,7.89-.87,15.75-.61,23.64,0,1-.42,1.24-1.3,1.23-2.82,0-5.63-.06-8.44,0-1.32,0-1.37-.54-1.34-1.64.09-4.26,0-8.53,0-12.79Z" transform="translate(-6.94 -7.3)"/><path class="cls-2" d="M125.26,111c0,3.62,0,7.43,0,11.24,0,1,0,1.72-1.36,1.73-2.53,0-5.08.18-7.6.45-2,.21-2.66-.36-2.57-2.47.29-7.26.94-14.5.58-21.77a17.15,17.15,0,0,0-.07-1.9c-.57-3.36-.58-3.47,2.72-3.22,2.59.2,5.16.72,7.73,1.1a1,1,0,0,1,1,1.33C124.85,101.94,125.75,106.4,125.26,111Z" transform="translate(-6.94 -7.3)"/><path class="cls-2" d="M99,137.55c-.38,5.82.56,11.58.64,17.38,0,1.77-.46,2.46-2.25,2.28a12.41,12.41,0,0,0-3.8,0c-3.06.67-3.68-1.13-3.73-3.48-.18-8.33-.87-16.65-.65-25,0-1.1.24-1.42,1.45-1.6,8.44-1.28,8.43-1.32,8.34,7.14C99,135.38,99,136.47,99,137.55Z" transform="translate(-6.94 -7.3)"/><path class="cls-2" d="M89.16,125.18c.12-2.35.25-4.69.36-7,.33-7.13.69-14.27-.22-21.39-.14-1.1,0-1.7,1.31-1.67,2.54.07,5.08.09,7.61,0,1.36,0,1.42.73,1.43,1.7.12,6.88.06,13.75-.35,20.62,0,.72-.17,1.44-.21,2.16-.26,5.06-.25,5.06-5.43,5.38C92.25,125.05,90.84,125.1,89.16,125.18Z" transform="translate(-6.94 -7.3)"/><path class="cls-2" d="M127.18,136.73c0-3,.07-6,0-9,0-1.32.36-1.73,1.68-1.68,2.53.11,5.49-.77,7.5.26,2.19,1.12.77,4.36,1,6.63.57,5.39.76,10.83.89,16.25,0,1.38,1.41,3.06.13,4-1,.76-2.76.52-4.19.74-.44.07-.87.25-1.31.33-4.71.84-4.59.74-5-4C127.51,145.77,127.34,141.26,127.18,136.73Z" transform="translate(-6.94 -7.3)"/><path class="cls-2" d="M62.58,133.15c-.64-2.44.57-3.61,3.46-3.22a1.63,1.63,0,0,0,.54,0c2-.34,4.84-1.47,5.68-.36,1.08,1.43.47,4.14.61,6.3.42,6.48.43,13,1.58,19.43.32,1.77.33,3.53-2.4,3a2.45,2.45,0,0,0-.81,0c-5.23.57-5,.53-6-4.61A130.38,130.38,0,0,1,62.58,133.15Z" transform="translate(-6.94 -7.3)"/><path class="cls-2" d="M140.67,152.82c-1.29-8.43-1-16.78-1.6-25.07-.1-1.37.44-1.81,1.7-1.63H141c8.85-.06,9,.17,9.61,9a38.52,38.52,0,0,1-.47,8.93C149.3,149.16,145.43,151.39,140.67,152.82Z" transform="translate(-6.94 -7.3)"/><path class="cls-2" d="M126.77,97.06c3.35-.11,6,1.59,8.86,2.26,1.37.31,1.37,1.07,1.38,2.15a76.64,76.64,0,0,1-.27,11.13,30.83,30.83,0,0,0,.45,9.18c.24,1.46,0,2.37-1.92,2.21-2.51-.21-5.82.82-7.37-.44s-.51-4.75-.48-7.24C127.5,109.88,127.18,103.46,126.77,97.06Z" transform="translate(-6.94 -7.3)"/><path class="cls-8" d="M201,203c1.08-2.73,3.41-1.84,5.08-1.31a9,9,0,0,1,4.46,3.34c4.83,6.6,7.2,14.23,9.52,21.9.7,2.31,1.77,4.55,1.65,7.06-3.07-1.07-4.33-3.9-5.29-6.46-2.94-7.91-7.95-14.59-12.1-21.78C203.53,204.36,202.08,203.92,201,203Z" transform="translate(-6.94 -7.3)"/><path class="cls-9" d="M202.05,51c-4.1,3-8.78,4.91-13.24,7.2-11.3,5.8-22.23,12.26-33.38,18.32C153.23,77.74,151,79,148.78,80c-.94.44-2.11.73-2.9-.48a245.58,245.58,0,0,1,39.8-22.35C191,54.82,196.23,52.14,202.05,51Z" transform="translate(-6.94 -7.3)"/><path class="cls-10" d="M228.38,176.33c-2.33,2-3.7,4.88-6.36,6.52-.67.41-1.22,1.39-2.08.79s-.46-1.47-.24-2.26c1.28-4.72,3.52-9.06,5.4-13.54a40.86,40.86,0,0,0,2.56-7.36c.23-1.14.09-2.51,1.66-2.69s2.39.93,2.89,2.29c.12.34.29.66.43,1A43.63,43.63,0,0,1,228.38,176.33Z" transform="translate(-6.94 -7.3)"/><path class="cls-11" d="M87,233.42a17.86,17.86,0,0,0,.65-7.67c-.75-6.42-1.37-12.85-2.58-19.21-.25-1.3-.84-2.95.24-3.84s2.47,0,3.72.63a42.75,42.75,0,0,0,5,1.73l-3.82,1.18c-.56.17-1.07.47-.92,1.11s.88.6,1.32.41c2.64-1.19,2.63.28,2.39,2.23a149.86,149.86,0,0,1-2.9,15.58c-.58,2.47-.14,5.05-.93,7.49C88.7,234.69,88.05,235.09,87,233.42Z" transform="translate(-6.94 -7.3)"/><path class="cls-12" d="M138.59,101.15c5.85,6.73,7.34,15.29,10.69,23.3a53.56,53.56,0,0,1-8.6-.4c-1.46-.2-1.74-.69-1.78-2a88,88,0,0,1-.1-11.37A71.15,71.15,0,0,0,138.59,101.15Z" transform="translate(-6.94 -7.3)"/><path class="cls-13" d="M192.17,206c.91,4.91,2.09,9.76,1.36,14.85-.52,3.63-.6,7.33-.88,11a40,40,0,0,1-5.21-12.37c-.95-3.46-1.66-7-2.58-10.46-.42-1.6-.15-2.33,1.68-2.38S190.29,206.27,192.17,206Z" transform="translate(-6.94 -7.3)"/><path class="cls-14" d="M206,91.9c-.8.14-1.59.35-2.39.41s-1.93.26-2.22-1a2,2,0,0,1,1.12-2.25c5-3.17,10.53-5.22,15.8-7.84.31-.15.72-.39,1,0,.68,1-.7,1.54-.68,2.42A115,115,0,0,1,206,91.9Z" transform="translate(-6.94 -7.3)"/><path class="cls-15" d="M137,80.09c3.92.09,4.63.65,4.53,3.5-.12,3.39-2.38,5.63-5.58,5.53-2.17-.08-3.65-.86-3.61-3.34C132.41,82.61,134.5,80,137,80.09Z" transform="translate(-6.94 -7.3)"/><path class="cls-16" d="M157.39,87.52a5.66,5.66,0,0,1-5.63,5.9,5.32,5.32,0,0,1-5.55-5.3,6.45,6.45,0,0,1,6.12-6C154.72,82.16,157.36,85,157.39,87.52Z" transform="translate(-6.94 -7.3)"/><path class="cls-17" d="M200.51,76.08c-.73-.22-1.76.23-2.12-.81s.36-1.7,1.06-2.3a43.19,43.19,0,0,1,12.15-7c.92-.37,1.8-.72,1.94.78C209.64,70.52,205.08,73.29,200.51,76.08Z" transform="translate(-6.94 -7.3)"/><path class="cls-18" d="M195.62,61.29c-1.75-.38-1.4-1.57-.68-2.43,2.68-3.16,6.51-4.45,10.2-5.92,1-.41,1.18.45,1.28,1.2C203.76,57.94,199.54,59.38,195.62,61.29Z" transform="translate(-6.94 -7.3)"/><path class="cls-19" d="M144,87.41c-1.52-1.54-.34-3-.18-4.28.13-1,1-.24,1.54-.17.9.14.48.71.24,1.19C145.05,85.19,144.55,86.24,144,87.41Z" transform="translate(-6.94 -7.3)"/><path class="cls-20" d="M195.5,154.49c0,.68.16,1.7-.87,1.92s-1.35-.7-1.74-1.42c-4-7.36-6.38-15.34-9.17-23.16-3.69-10.38-8-20.5-12.14-30.7-.44-1.09-.73-2.24-1.19-3.32-.62-1.45-.46-2.8.9-3.56s2.71.11,3.54,1.21a38,38,0,0,1,3.2,5,184.08,184.08,0,0,1,14.42,34.47c1.49,5,2.89,10.07,2.62,15.41A26.84,26.84,0,0,0,195.5,154.49Z" transform="translate(-6.94 -7.3)"/><path class="cls-21" d="M153.4,168.71l-1,.23a1,1,0,0,1-1.18-.39c-.29-.53.17-.85.5-1.11,2.33-1.85,4.81-3.53,7-5.52,3.67-3.32,7.72-6.42,8.69-11.78.53-3,.2-6,.3-8.95,0-.67-.27-1.6.66-1.86s1.21.53,1.61,1.16c3.07,4.74,4,15.48-1.23,20.47S159.87,168.14,153.4,168.71Z" transform="translate(-6.94 -7.3)"/><path class="cls-22" d="M136.75,82.5A1.32,1.32,0,0,1,138.23,84a1.81,1.81,0,0,1-1.66,1.79,1.21,1.21,0,0,1-1.45-1.45C135.26,83.51,135.51,82.5,136.75,82.5Z" transform="translate(-6.94 -7.3)"/><path class="cls-23" d="M148.65,87.75a3.73,3.73,0,0,1,3.91-3.58c2.15.14,3.28,1.3,3.17,3.52s-2,4.24-3.87,4.08A3.83,3.83,0,0,1,148.65,87.75Z" transform="translate(-6.94 -7.3)"/></svg>