<svg id="Layer_1" data-name="Layer 1" xmlns="http://www.w3.org/2000/svg" viewBox="0 0 286.12 285.39"><defs><style>.cls-1{fill:#010101;}.cls-2{fill:#fefefe;}.cls-3{fill:#090201;}.cls-4{fill:#fe7900;}.cls-5{fill:#e87;}.cls-6{fill:#d6000a;}.cls-7{fill:#fdfdfd;}.cls-8{fill:#d2030b;}.cls-9{fill:#cd060a;}.cls-10{fill:#fb7605;}.cls-11{fill:#fbc605;}.cls-12{fill:#d3020b;}.cls-13{fill:#fac408;}.cls-14{fill:#fafafa;}.cls-15{fill:#f9f9f8;}.cls-16{fill:#f8c30c;}.cls-17{fill:#f8c10b;}.cls-18{fill:#c2712c;}.cls-19{fill:#fbc702;}.cls-20{fill:#fbc603;}.cls-21{fill:#0f0f0f;}.cls-22{fill:#030203;}</style></defs><title>32</title><path class="cls-1" d="M146.53,7.32c35.79,0,71.59-.07,107.38.08,5.93,0,12,.23,17.74,2.09,9.38,3,15.76,9.25,19.44,18.41,1.93,4.78,1.87,9.63,1.69,14.64-.34,9.51-.37,19-.38,28.55q0,79,.06,158c0,6.66-.09,13.34.36,20.05.5,7.41.39,15.09-1.95,22.36-3,9.38-9.32,15.67-18.47,19.4-5.53,2.26-11.16,1.67-16.82,1.7-1.63,0-3.26-.06-4.89-.06L93,292.45c-11.08,0-22.18-.35-33.24.13-6.45.28-12.85-.08-19.27-.15-15.78-.17-27.54-7-32.81-23.67A21.41,21.41,0,0,1,7,260.93c.69-9.44.32-18.88.34-28.32q.09-52.19,0-104.36c0-24.25.14-48.5-.08-72.75-.07-8-.43-16,1.13-23.81C10.69,20.36,17.77,13,28.5,8.92c4.65-1.77,9.43-1.54,14.19-1.54q51.93-.09,103.84,0Z" transform="translate(-6.94 -7.3)"/><path class="cls-2" d="M11.34,150q0-47.13,0-94.28c0-7.62-.18-15.29,1-22.81C14.44,20.1,26.54,11.65,38,11.66q103.83.15,207.67-.08c7.35,0,14.75-.05,22,1.2,13.2,2.29,21.23,14.67,21.08,25.5-.92,65.56-.33,131.12-.38,196.68,0,9.34.13,18.66-.11,28-.35,14.12-12.74,25.66-26.48,25.58-47.87-.25-95.74-.1-143.62-.1-20.8,0-41.61-.19-62.41.09-7,.09-13.94-.39-20.91-.68-11.06-.47-22.35-11.1-23.31-22.08-.47-5.4-.15-10.87-.15-16.3V150Z" transform="translate(-6.94 -7.3)"/><path class="cls-3" d="M190.48,90.31c2.43,1.09,4.34.2,6.22-.62A146.87,146.87,0,0,0,218.28,77.5a41.46,41.46,0,0,1,6.21-3.21c2.09-.9,3.47,0,4.76,1.34a3.93,3.93,0,0,1,.79,4.46c-1.24,3.56-4.18,5.38-7,7.27-8.49,5.65-17.38,10.72-25.29,17.23-5.18,4.26-5.13,4.32-2.85,10.78,2.89,8.19,7.08,15.82,10.1,23.95,3.33,9,6.83,17.88,10.15,26.85.55,1.51,1.14,1.72,2.58,1.21a17.42,17.42,0,0,0,5.91-3.71,110.25,110.25,0,0,0,10.1-10.29,18.26,18.26,0,0,0,3.69-7.42c.19-.75.33-1.47,1.27-1.46a1.6,1.6,0,0,1,1.59,1.24,7.3,7.3,0,0,1,.49,1.8c.48,9.19-.26,18.18-3.67,26.9-2.23,5.72-4.32,11.44-8.47,16.13-.24.27-.4.68-.69.83-4.46,2.25-3.42,5.64-2.45,9.49a198.72,198.72,0,0,1,5.25,30.28c.18,1.84.21,4.09-1.83,5s-3.66-.16-5.05-1.7a22.57,22.57,0,0,1-4.33-7.11c-3-7.86-7.81-14.7-12.56-22.13-2.06,7.79-3.66,15.08-4.9,22.45a46.87,46.87,0,0,1-1.13,5.26c-.76,2.67-1.74,2.94-3.67,1-3.11-3.11-4.32-7.22-5.52-11.25-1.44-4.79-2.61-9.68-3.75-14.56-.24-1-.46-1.31-1.49-1.33q-19.19-.39-38.37-.84c-.72,0-1.45.13-2.17.15-2.63,0-3.69,1.46-4.66,3.91-2.86,7.19-4.2,14.81-6.8,22.06a12,12,0,0,1-3.22,4.95c-1.68,1.5-3.34,1.24-4.52-.64a11.61,11.61,0,0,1-1.58-5.94c-.24-5.81.39-11.59.61-17.38.08-2.09,0-4.18,0-6.26,0-2.34-1.51-3.37-3.54-3.08-6.33.92-12.64,2-18.93,3.16-1.17.21-2.49.54-2.6,2.27-.34,5.65-1.76,11.13-2.88,16.66-.5,2.47-.62,5-1,7.52-.21,1.62-.74,3-2.67,3.23a3.32,3.32,0,0,1-3.74-2c-1.73-3.5-2.1-7.39-3-11.12-2.74-10.85-5.62-21.66-8.14-32.56-1.62-7.06-2.9-14.19-5.63-21-.44-1.09-.57-1.84-2-1.93a13.44,13.44,0,0,1-3.88-1c-1.41-.53-3.12-1-3-3s1.26-3.7,3.15-3.9c2.27-.24,2-1.5,1.62-2.76a96.13,96.13,0,0,1-3.09-32.19c.5-6.7,0-13.42.91-20.09a30.19,30.19,0,0,0,0-4.36c-.1-4.54-.21-4.65-4.58-5.57-2.08-.44-4.16-1.09-4.57-3.51s1.14-4,3.11-5.21a20.86,20.86,0,0,1,10.82-2.74c8.63-.11,17.27.06,25.89-.12,7.16-.15,14.29-1.13,21.46-.93,4.88.13,9.76.37,14.63.67a2.33,2.33,0,0,0,2.54-1.38c2.53-4.22,7.28-5.87,11.34-2.4.85.72,1,0,1.49-.29a178,178,0,0,1,30.29-18.6c9.13-4.29,17.88-9.53,27.84-11.91,2.33-.56,5.54.59,6.43,2.66s.19,4.08-1.41,5.65c-3.08,3.05-7.06,4.68-10.9,6.4-6.83,3-13.31,6.8-20.11,9.89-.49.22-.92.58-1.4.83a1.65,1.65,0,0,0-.93,2.24c.41,1,1.35.81,2.13.59a64.87,64.87,0,0,0,7.19-2.18c8.45-3.48,16.82-7.13,25.25-10.63,1.39-.58,2.4-2,4.1-1.88,1.28.06,2.76-.13,3.41,1.17a4.24,4.24,0,0,1-.14,4.12,8.76,8.76,0,0,1-2.58,2.77,209.25,209.25,0,0,1-18.63,12A27.2,27.2,0,0,0,190.48,90.31Z" transform="translate(-6.94 -7.3)"/><path class="cls-4" d="M204.88,76.66c-3.49,2.73-7.75,4.25-11.13,7.14-1.23,1.06-2.49,2.11-3.62,3.27s-2.5,2.82-1.29,4.53c1.09,1.55,2.92,1.82,4.88,1.41,3.77-.8,7.06-2.64,10.35-4.47,5.6-3.11,11.17-6.27,16.46-9.92a20.28,20.28,0,0,1,4.62-2.22A2.23,2.23,0,0,1,228,79.22a7.28,7.28,0,0,1-3.59,4.21c-.37-.53-.13-1.78-1.5-1.08-4.35,2.23-9,4-13.18,6.45-.87.51-2.4,1-2,2.22s1.76.35,2.71.41a1.09,1.09,0,0,1,.92.46c-4.71,3.67-10,6.48-14.52,10.45-1.82,1.6-3.92,2.88-5.28,5.57-3.23-6.87-7.34-12.56-11.44-18.3-.3,2.94,1.47,5.11,2.86,7.21,5.51,8.34,9.09,17.56,13.07,26.64,6,13.8,11.27,27.89,16.56,42,1.69,4.48,4.11,5.29,8.66,2.77,5.25-2.92,8.78-7.72,12.79-12a23.64,23.64,0,0,0,4.41-6.59A33,33,0,0,1,238.1,161c-3.41-3.39-3.42-3.39-4.81,1.47-1.27,4.46-3.37,8.58-5.16,12.84-1,2.3-2.13,4.55-2.33,7.5a11.39,11.39,0,0,0,4.65-3.67c.83-1,1.42-2.41,3.12-2.2a29.92,29.92,0,0,1-8.5,14.15c-2.5,2.34-3.16,4.59-2.17,7.92,2.43,8.2,3.42,16.72,4.79,25.15.36,2.22.68,4.46.84,6.7.08,1.16.73,2.78-1.36,3.06-1.53-2.14-1.59-4.78-2.39-7.16-2.08-6.2-4-12.45-7.25-18.17a18.45,18.45,0,0,0-3.38-4.24c-2.87-2.75-4.63-2.95-8.26-.91a2.31,2.31,0,0,0-1.09,1.47q-2.72,12.76-5.48,25.52c-.12.56.54,2.23-1.25,1.26-1.12-3.14-.32-6.33.09-9.4.6-4.49-.13-8.83-.59-13.22-.12-1.17-.48-2.32.06-3.47-.62-1.46-1.94-1.12-3.06-1.09-5.32.13-10.58.77-15.95.22-9.47-1-19-.59-28.52-.8-1.27,0-2.54-.05-3.8,0-4.46.21-5.37,1.25-7,5.39-2.63,6.71-4.15,13.75-6.43,20.56-1.59-3-.92-6.24-.59-9.3.6-5.42-.24-10.67-1-16a5,5,0,0,0-4.66-4.55c-3.85-.59-7.69-1.35-11.58-1.72a8.51,8.51,0,0,1-4.5-1.72,66.91,66.91,0,0,0-9.69-6.06,6.74,6.74,0,0,1-3-2.65,51.54,51.54,0,0,1-4.95-11.19c-.69-2.54.08-3.58,2.66-3.12,11.63,2,22.52-1,33.35-4.57a7.72,7.72,0,0,0,3.88-2.4c9-.18,17.77-1.53,26.6-2.83,1.85-.28,2.79-2,4.51-2.28.82,1.4-.37,2-1.17,2.56a48.57,48.57,0,0,0-4.47,3.6c6.6,1.09,14.88-5.12,17.67-10.49,2.49-4.8,1.6-13.28-1.8-16.61a23.23,23.23,0,0,0-.19,5.79c.35,6.67-3.44,11-8.1,14.94-.54.45-1.21.89-1.93.2,1.22-1.32,2.51-2.59,3.66-4,3.62-4.38,3.67-9.62,3.68-14.92,0-11.84-4.25-22.58-8.3-33.4a73.85,73.85,0,0,0-6.09-13.3c8.24-2.43,10-6.63,5.93-13.94,2.08,0,4.05,0,6,0,.55,0,1.47.37,1.52-.57,0-.69-.68-1-1.37-1.06-4.25-.52-8.49,0-12.73.23a34.53,34.53,0,0,1-4.32.21c.16-1.14,1.21-1.24,2-1.61,14-6.67,27.06-15,40.88-22,4.36-2.2,8.64-4.57,13.28-6.15,1.53-1.16,2.67-.12,3.77.74a1.6,1.6,0,0,1,.18,2.51,3,3,0,0,0-2.61-.11,34.19,34.19,0,0,0-6.3,3.19c-1.36.94-2.62,2-2.16,4L180.39,71.53c-.56.28-1.09.6-1.63.93-2,1.22-2.23,3.06-1.41,5s2.51,2,4.38,1.63c7-1.58,13.36-4.91,19.85-7.79,5.18-2.31,10.65-4,15.55-6.89.87-.53,1.91-.8,2.32.67-.4,1.09-1.45,1.26-2.35,1.65A45.62,45.62,0,0,0,207,72.36C205.56,73.45,204.57,74.74,204.88,76.66Z" transform="translate(-6.94 -7.3)"/><path class="cls-5" d="M99.83,93.29c-8.78.49-18.14-.33-27.49.54a44.7,44.7,0,0,1-8.93-.49c-1.3-.14-2.9-.61-3.27-2-.42-1.59.86-2.56,2.14-3.37,3.44-2.15,7.33-2.57,11.2-2.67,6.63-.17,13.27-.07,19.9-.06,10.71,0,21.36-1.59,32.09-1,2.17.11,4.33.35,6.5.46,2,.09,3.68-.25,3.93,2.91.29,3.69,6,5.1,9.56,2.72,3.14-2.09,3.13-2.09,5,1.4a3.51,3.51,0,0,0,.92,1.33c6.41,4,7.48,11.11,9.9,17.33,2.62,6.77,5.43,13.52,6.63,20.76,1,6.25,1.83,12.52.89,18.87-.8,5.37-6.32,10.54-11.63,11.7-12,2.62-24.28,2.55-36.42,3.72-10.35,1-20.69.1-31,.48-5.61.21-11.21,1-16.84.08A29.85,29.85,0,0,1,69,165c-.78-.24-2,0-2.1-1.3s1.25-1.92,2.22-2c3.83-.17,7.39-1.86,11.25-1.8,7.54.13,15-.63,22.55-1,12.52-.67,25-1.77,37.47-2.95,4.91-.47,9.79-1.58,13.7-5.08a11.91,11.91,0,0,0,3.82-8.41,57.3,57.3,0,0,0-5.08-28.75c-1.54-3.34-2.37-7-4.23-10.2-2.81-4.88-7.65-6.47-12.61-8C124.28,92,112.27,93.78,99.83,93.29Z" transform="translate(-6.94 -7.3)"/><path class="cls-6" d="M132.76,166.62c.39,1.65-.9,2-1.95,2.46a85.72,85.72,0,0,1-22,5.58,37.53,37.53,0,0,1-14-.49c-1.19-.31-1.92,0-1.46,1.59a61,61,0,0,0,5.19,11.93c.71,1.3,2,1.82,3.18,2.45a43.81,43.81,0,0,1,9.15,5.82c2.21,2,4.93,1.62,7.44,2,3.23.44,6.38,1.26,9.6,1.63a4.13,4.13,0,0,1,3.83,3.58,51.74,51.74,0,0,1,1.47,16.15c-.25,3.53-.29,7.05-.3,10.58.28,1.33-.8,2.19-1.31,3.18s-.93,2.84-2.45,2.36c-1.08-.34-1.69-1.85-1.68-3.16,0-5-.36-10,.27-15a50,50,0,0,0,.1-10.59c-.37-4.21-2.9-5.83-7.1-5.1-7.2,1.27-14.43,2.39-21.64,3.57-2.78.11-5.12-1.53-8-2.19.41,4.92,1.34,9.53,1.88,14.18a73.35,73.35,0,0,1,.85,13c-.06,1,.44,2.47-1.3,2.77-1.66-1.21-1.58-3.29-1.89-4.89-2.58-13.12-7.09-25.75-9.75-38.83-1.33-6.55-2.61-13.06-5.41-19.17-.72-1.59,0-1.84,1.39-1.87,7.17-.16,14.36-.85,21.49-.46,7.55.41,15,.16,22.55-.18C124.83,167.34,128.79,166.93,132.76,166.62Z" transform="translate(-6.94 -7.3)"/><path class="cls-2" d="M93.52,105c.41,6.12-.75,11.88-.57,17.68.06,1.84-.42,3.14-2.77,3.22a66.59,66.59,0,0,0-9.12,1c-1.36.23-1-.51-1-1.15a44.79,44.79,0,0,1,.51-8.66c1-6.4.52-12.83.49-19.25,0-1.72.34-2.36,2.2-2.25a58.38,58.38,0,0,0,8.15-.13c1.68-.15,2.12.65,2.14,2C93.56,100,93.52,102.63,93.52,105Z" transform="translate(-6.94 -7.3)"/><path class="cls-2" d="M92.53,132.23c.36,8.11.67,16,1.12,23.84.08,1.4-.26,1.69-1.54,1.67a33.09,33.09,0,0,0-8.13.42c-1.08.25-1.66,0-2-1.38-1.18-5.16-.86-10.43-1.46-15.63-.41-3.5-.37-7-.6-10.57-.08-1.17.14-1.77,1.5-1.87,3-.22,5.92-.58,8.86-1,1.65-.22,2.53.13,2.24,2A15.82,15.82,0,0,0,92.53,132.23Z" transform="translate(-6.94 -7.3)"/><path class="cls-7" d="M106.16,136c0-2.63,0-5.25,0-7.88,0-.91,0-1.54,1.25-1.57,2.62,0,5.25-.16,7.86-.41,1.82-.17,2,.61,2,2.19,0,7.88.26,15.75.33,23.63,0,1.32,1.36,2.85.21,3.79-.78.65-2.42.22-3.66.37-7.43.88-7.4.89-7.46-6.56,0-2.26-.31-4.51-.38-6.77s0-4.53,0-6.79Z" transform="translate(-6.94 -7.3)"/><path class="cls-7" d="M119.76,147.19c0-6.24-.78-12.47-.59-18.73,0-1.66.28-2.42,2.19-2.3,3,.18,6.86-1.09,8.69.36s.49,5.58.63,8.52c.28,6,.23,12,1,17.89.23,1.67-.3,2.15-2,2.13a62,62,0,0,0-7.57.51c-1.69.18-2.33-.63-2.36-2.13C119.73,151.36,119.76,149.28,119.76,147.19Z" transform="translate(-6.94 -7.3)"/><path class="cls-2" d="M68.16,95.59c3.36,0,6.45.1,9.53,0,1.54-.06,1.67.56,1.76,1.86.6,9.54-1.29,19-1.16,28.49,0,1.31-.85,1.52-1.67,1.68-2.46.47-5,.82-7.43,1.2-1.13.17-1-.4-1-1.29.56-7.78.9-15.57.85-23.38A34,34,0,0,0,68.16,95.59Z" transform="translate(-6.94 -7.3)"/><path class="cls-2" d="M118.09,104.71c-.11,6.06-.85,12.11-.63,18.19,0,1.13-.25,1.64-1.49,1.6-2.72-.07-5.45-.06-8.17,0-1.17,0-1.51-.29-1.43-1.55.53-8.52.45-17,.27-25.57,0-1.66.25-2.51,2.16-2.29a29.23,29.23,0,0,0,4.08,0c4.86-.11,4.89-.12,5.19,4.71C118.17,101.44,118.09,103.07,118.09,104.71Z" transform="translate(-6.94 -7.3)"/><path class="cls-7" d="M119.22,119.59a157.1,157.1,0,0,0,.54-19c0-.54,0-1.09,0-1.63-.41-4.24-.36-4.33,4-3.78,2,.26,4.06.69,6.1,1,.78.12,1.38.26,1.3,1.3-.63,8-.21,16-.32,23.94,0,2.16-.67,2.74-2.73,2.64a36.17,36.17,0,0,0-6.23.41c-2.21.3-2.91-.59-2.61-2.67A15.85,15.85,0,0,0,119.22,119.59Z" transform="translate(-6.94 -7.3)"/><path class="cls-2" d="M104.48,138.61c-.43,4.91.53,10.67.6,16.47,0,1.71-.49,2.28-2.14,2.12a32.21,32.21,0,0,0-3.26,0c-4.22,0-4.32,0-4.4-4.14-.17-7.79-.82-15.56-.65-23.36,0-1.65.12-2.47,2.17-2.66s4.14-.22,6.21-.38c1.23-.09,1.52.39,1.5,1.55C104.44,131.36,104.48,134.53,104.48,138.61Z" transform="translate(-6.94 -7.3)"/><path class="cls-2" d="M94.55,125.3a233.81,233.81,0,0,0,.68-23.56c0-.91,0-1.81,0-2.72-.22-4-.23-4,4-3.93,5.93,0,6.07,0,6,5.92-.09,7.32-.48,14.64-.66,22,0,1.15-.3,1.51-1.51,1.56C100.31,124.66,97.62,125,94.55,125.3Z" transform="translate(-6.94 -7.3)"/><path class="cls-2" d="M137.79,126.12c4.68,0,4.47,0,4.92,4.66.68,7.11.11,14.3,1.49,21.36.13.7.08,1.13-.83,1.31a58.24,58.24,0,0,1-9.12,1.1c-1.31,0-.8-.94-.84-1.51-.68-8.13-.43-16.29-.82-24.43-.09-2,.37-2.87,2.48-2.51A17.61,17.61,0,0,0,137.79,126.12Z" transform="translate(-6.94 -7.3)"/><path class="cls-7" d="M68.08,133.21c-.76-2.77.77-3.46,3.51-3.33a30.76,30.76,0,0,0,5.38-.54c1-.13,1.17.19,1.18,1.17.12,7.24.58,14.47,1.25,21.68a6,6,0,0,0,.07,1.35c.51,1.4,1,3.05.34,4.23s-2.47.31-3.76.57c-4.08.83-4.1.79-5-3.17A105.46,105.46,0,0,1,68.08,133.21Z" transform="translate(-6.94 -7.3)"/><path class="cls-7" d="M146.05,152.72a205.52,205.52,0,0,1-1.25-21.61c0-5.18-.12-5.25,5.11-4.84,6.25.5,5-.45,5.77,5.56a41.1,41.1,0,0,1,.25,9.47C155.29,148,153,150.78,146.05,152.72Z" transform="translate(-6.94 -7.3)"/><path class="cls-2" d="M132.16,97.08c3.41-.14,6,1.57,8.77,2.2,1.45.32,1.42,1.1,1.53,2.31.44,4.64-.18,9.23-.4,13.83-.11,2.39.62,4.65.62,7,0,1.17-.32,1.69-1.52,1.51h-.27c-2.61-.07-6,.81-7.6-.48s-.43-4.75-.43-7.26A183.47,183.47,0,0,0,132.16,97.08Z" transform="translate(-6.94 -7.3)"/><path class="cls-8" d="M205.89,203.41c1.54-2.55,4.7-3,7.38-.92a18.33,18.33,0,0,1,5.15,6.21,94.16,94.16,0,0,1,8.75,25.19c-3.16-.85-4.09-3.77-5.06-6.19-3-7.51-7.66-14-11.69-20.94C209.41,205,208.24,203.38,205.89,203.41Z" transform="translate(-6.94 -7.3)"/><path class="cls-9" d="M208,51c-6.33,3.32-12.7,6.57-19,10-10,5.39-19.85,10.91-29.81,16.31-2.37,1.29-4.89,2.33-7.34,3.48-.43.07-1.15.32-1.24.18-.48-.76.3-1.18.74-1.47,2.8-1.93,5.65-3.78,8.5-5.65,11.42-7.51,23.82-13.16,36.13-19A39.83,39.83,0,0,1,208,51Z" transform="translate(-6.94 -7.3)"/><path class="cls-10" d="M92.47,232.92c1.18-3,.73-6.07.42-9.06C92.11,216.51,91,209.2,90,201.49l9.07,3.68c-1.26.41-2.53.78-3.76,1.26a1.1,1.1,0,0,0-.51.85c0,.66.58.54,1,.55,1,0,2.34-1,2.74-.11s0,2.43-.2,3.64c-.92,5-1.94,10-2.83,15.09-.38,2.12-.57,4.28-.82,6.43-.07.67-.22,1.35-1,1.43C92.81,234.41,92.51,233.74,92.47,232.92Z" transform="translate(-6.94 -7.3)"/><path class="cls-11" d="M233.57,176.91c-2.45,1.58-3.5,4.61-6.18,6-.68.35-1.23,1.39-2.07.7-.67-.55-.36-1.49-.13-2.29,1.42-5.06,3.87-9.7,5.9-14.5a39.84,39.84,0,0,0,2-6.43c.27-1.13,0-2.43,1.66-2.62s2.33.73,2.9,1.95c.19.41.3.85.45,1.27A45.29,45.29,0,0,1,233.57,176.91Z" transform="translate(-6.94 -7.3)"/><path class="cls-12" d="M197.63,205.57c1.92,7,1.83,14.11.94,21.25-.2,1.61-.33,3.23-.5,4.84-3.45-5-4.91-10.86-6.31-16.69-.5-2.09-.83-4.22-1.41-6.29-.43-1.56.19-1.88,1.56-1.94C193.87,206.65,195.88,206.71,197.63,205.57Z" transform="translate(-6.94 -7.3)"/><path class="cls-7" d="M143.79,101.24c6.17,6.55,7.49,15.21,11,23.18a73.56,73.56,0,0,1-7.92-.29c-2.07-.2-2.34-.88-2.54-2.72-.51-4.62.14-9.21,0-13.82C144.2,105.47,144,103.36,143.79,101.24Z" transform="translate(-6.94 -7.3)"/><path class="cls-13" d="M211.42,91.89c-1.61,0-3.88,1.58-4.65-.46-.84-2.24,1.88-2.79,3.31-3.55,4.15-2.21,8.43-4.16,12.69-6.16.67-.32,1.42-1.21,2.19-.43s-.76,1.31-.53,2.14A134.12,134.12,0,0,1,211.42,91.89Z" transform="translate(-6.94 -7.3)"/><path class="cls-14" d="M141.75,89.12c-2.68,0-3.92-1-3.92-3.29,0-3,2.16-5.9,4.36-5.89,4.1,0,4.79.48,4.82,3.32C147.05,86.67,144.86,89.11,141.75,89.12Z" transform="translate(-6.94 -7.3)"/><path class="cls-15" d="M162.84,87.48a5.66,5.66,0,0,1-5.61,5.93,5.29,5.29,0,0,1-5.55-5.29,6.38,6.38,0,0,1,6.09-6C160.12,82.13,162.82,85,162.84,87.48Z" transform="translate(-6.94 -7.3)"/><path class="cls-16" d="M204.88,76.66c-1.24-1.08-1.35-2,0-3.28,4.16-4.06,9.36-6.23,14.61-8.34.4,1.95-1.16,2.77-2.33,3.56C213.07,71.32,209.31,74.51,204.88,76.66Z" transform="translate(-6.94 -7.3)"/><path class="cls-17" d="M200.9,61.34c-1.59-.61-1.19-1.66-.43-2.56,2.7-3.19,6.58-4.38,10.26-5.86,1-.41,1,.67,1.24,1.32C209.1,57.88,204.94,59.51,200.9,61.34Z" transform="translate(-6.94 -7.3)"/><path class="cls-18" d="M151.8,82.68l-2.35,4.69c-1.68-1.45-.47-3-.18-4.32C149.49,82.09,150.75,83,151.8,82.68Z" transform="translate(-6.94 -7.3)"/><path class="cls-19" d="M201,154.44c-.15.78.28,1.7-.63,2s-1.37-.58-1.79-1.26c-3.08-5-4.89-10.48-6.82-15.92-3.48-9.8-7-19.59-11-29.17-1.65-3.89-3.18-7.84-4.75-11.77-.66-1.63-1-3.39,1-4.2s3,.68,3.9,2.12a136.18,136.18,0,0,1,9.55,18.57,149.66,149.66,0,0,1,7.47,20c1.38,4.83,2.84,9.73,2.56,14.87A27.45,27.45,0,0,0,201,154.44Z" transform="translate(-6.94 -7.3)"/><path class="cls-20" d="M163.88,161.5c5-3.11,8.86-7.11,9.26-13.4.15-2.35,0-4.72.05-7.08,0-.6-.21-1.36.57-1.65s1.14.27,1.52.8c3,4.26,4.26,14.9-.32,19.93s-9.65,8.41-16.56,8.68c-.59,0-1.32.59-1.68-.18s.54-1.26,1-1.67c1.54-1.25,3.14-2.44,4.77-3.58.68-.48,1.42-.83,1.35-1.84Z" transform="translate(-6.94 -7.3)"/><path class="cls-21" d="M142.83,82.52a1.3,1.3,0,0,1,.85,1.5A1.82,1.82,0,0,1,142,85.76a1.23,1.23,0,0,1-1.38-1.52C140.74,83.43,141,82.44,142.83,82.52Z" transform="translate(-6.94 -7.3)"/><path class="cls-22" d="M161.19,86.77c0,2.87-1.8,5-3.65,5a3.82,3.82,0,0,1,.24-7.61C160,84.14,161.05,85.31,161.19,86.77Z" transform="translate(-6.94 -7.3)"/></svg>