<svg id="Layer_1" data-name="Layer 1" xmlns="http://www.w3.org/2000/svg" viewBox="0 0 286.13 285.41"><defs><style>.cls-1{fill:#010101;}.cls-2{fill:#fefefe;}.cls-3{fill:#020202;}.cls-4{fill:#829f5e;}.cls-5{fill:#1d8768;}.cls-6{fill:#1d8767;}.cls-7{fill:#ec8878;}.cls-8{fill:#fdfdfd;}.cls-9{fill:#2a8263;}.cls-10{fill:#829e60;}.cls-11{fill:#fcfdfd;}.cls-12{fill:#fbfbfb;}.cls-13{fill:#fafafa;}.cls-14{fill:#fcfcfc;}.cls-15{fill:#238464;}.cls-16{fill:#f8f9f8;}.cls-17{fill:#f9f9f9;}.cls-18{fill:#298263;}.cls-19{fill:#d1cfcf;}.cls-20{fill:#dad9d8;}.cls-21{fill:#ded93b;}.cls-22{fill:#ddd93d;}.cls-23{fill:#dcda3c;}.cls-24{fill:#dbd940;}.cls-25{fill:#d7d949;}.cls-26{fill:#040404;}</style></defs><title>7</title><path class="cls-1" d="M146.48,7.33c35.8,0,71.59-.11,107.38.09,7,0,14.12.32,20.82,3.15,11,4.63,19.52,17.26,18.26,30.85a140.46,140.46,0,0,0-.5,22c.15,2.25,0,4.53,0,6.8q0,79.43.06,158.86c0,6.76-.07,13.53.37,20.32.47,7.33.37,14.91-1.94,22.1-3,9.38-9.31,15.68-18.44,19.43-5.53,2.27-11.16,1.69-16.82,1.72-1.63,0-3.26-.07-4.89-.07l-144.62-.14c-15.44,0-30.89-.31-46.32.14-6.81.21-13.58,0-20.36-.2C24.13,292,12.7,285,7.6,268.55a20.75,20.75,0,0,1-.59-7.3c.88-13.61.31-27.23.34-40.85q.15-82.29,0-164.58c0-8.07-.48-16.15,1.1-24.08,2.26-11.33,9.31-18.69,20-22.8,4.65-1.78,9.43-1.55,14.19-1.56q51.92-.09,103.83,0Z" transform="translate(-6.94 -7.3)"/><path class="cls-2" d="M11.35,150.13c0-33.61,0-67.21,0-100.82,0-5.52,0-11.11,1-16.55,2.39-12.95,14.43-21.1,25.53-21.09q104.1.13,208.21-.09c7.17,0,14.39,0,21.45,1.18,13,2.19,21.34,14.45,21.18,25.69-.93,65.74-.33,131.48-.37,197.23,0,9.06.07,18.11-.11,27.18-.29,14.22-12.74,25.75-26.39,25.69-51.77-.23-103.55-.1-155.33-.1-16.9,0-33.8-.22-50.69.09-7,.13-14-.2-20.91-.72a25.6,25.6,0,0,1-23.4-22.21c-.75-5.34-.17-10.86-.17-16.3V150.13Z" transform="translate(-6.94 -7.3)"/><path class="cls-3" d="M205.1,118.43a33,33,0,0,1,9.23-4.46c2.51-.79,5-.68,6.71,1.37s.94,4.22.06,6.41c-1.67,4.14-5.27,6.34-8.66,8.73-1.27.89-1.48,1.33-.47,2.78,2.67,3.83,5.4,7.66,6.09,12.54.4,2.87,0,5.3-2.38,7-2.59,1.87-5.36,1.13-8-.13a28,28,0,0,1-3.34-2.27v4.09c0,9.08-1.09,18.08-2,27.09a134.36,134.36,0,0,0-.83,19.24,18.13,18.13,0,0,1-2.79,10.83,6.2,6.2,0,0,1-6.28,3c-4.9-.75-9.8.09-14.67-.36-1.47-.14-2,.26-2,1.89,0,3.26-.22,6.52-.31,9.79,0,.65-.39,1.63.57,1.89,4.05,1.09,4.44,4.49,4.66,7.73a90.35,90.35,0,0,1-.07,10.79c-.1,2-1,3.52-3.48,2.94-2.95-.66-5.94,0-8.91,0-3.44-.06-3.95-.59-3.88-3.92a22,22,0,0,1,7-15.94,3.78,3.78,0,0,0,1.29-3.05,59.1,59.1,0,0,1,.47-10.3c.23-1.3-.13-1.7-1.52-1.69-9.8,0-19.61,0-29.41-.16-8.62-.15-17.23-.47-25.85-.82-2.09-.09-2.81.42-2.62,2.66a28.77,28.77,0,0,1-.24,9.21c-.15.68-.09,1,.63,1.13,5.22.6,5.49,4.83,6.15,8.62a46.4,46.4,0,0,1,.38,6.78c.1,4.68-2,6.6-6.74,6.21-.81-.06-1.61-.23-2.42-.31-6.48-.62-7.78-3.71-6.82-9.31.71-4.14,1.4-8.73,5.89-11,.61-.32.59-.83.51-1.39-.52-3.53,0-7.07-.05-10.61,0-1.59-.54-2.06-2-2-6.6.48-13.15-1.06-19.79-.29-4.42.51-6.9-2.5-6.72-7.47a24.77,24.77,0,0,1,1.12-7.2c.51-1.52.31-2.56-1.26-3.3-1.35-.63-2.69-1.64-2.13-3.32.65-1.91,1.17-4.09,3.63-4.68a18.7,18.7,0,0,1,6.49-.45c1.94.22,2.56.09,2.42-2.37-.38-6.5-.22-13-.17-19.57,0-1.52-.15-2.21-2-2.19-2.73,0-5.25-1.16-7.7-2.27-1.65-.75-2.33-2.78-1.12-3.81,1.94-1.65,1-3.3,1-5a69.26,69.26,0,0,1,1.08-15.94c1.61-8.38,3-16.79,6-24.87a90.79,90.79,0,0,1,15.19-26.32c3.1-3.86,7.09-6.77,11-9.62a7.61,7.61,0,0,0,3.29-5.7c1.38-9.61,12.94-15.39,20.53-9.67,4,3,7.12,2.34,11.24,1.7,4-.61,6.31-1.56,6.28-6,0-2.8,1.22-4,4.6-3.79,3.13.19,6.46-.51,9.7-.87,4.91-.55,9.64,1.12,14.52,1.21,2.59,0,3.16,2.52,3.23,4.64.07,2.38,1.25,2.83,3.23,2.52a17.31,17.31,0,0,1,6.45.62c4.61,1,6.28,3.37,6.9,8.45.89,7.34.16,14.67.08,22-.09,8.63-1.19,17.18-1.5,25.78A7.81,7.81,0,0,0,205.1,118.43Z" transform="translate(-6.94 -7.3)"/><path class="cls-4" d="M171.52,99.36l4.35-1.51c6.72-2.36,9.53-8,10.82-14.21,1.45-7,1.95-14.11,2.83-21.18.09-.72.16-1.24,1-1.21a49.19,49.19,0,0,1,6.78.23c4.27.73,5.29,2.17,5.86,6.53.75,5.79.39,11.59.47,17.38.16,12-1.92,24-1.62,36.07,0,.68-.49,1.48.44,1.89s1.19-.47,1.72-.92c3.31-2.83,6.85-5.26,11.19-6.33a3.52,3.52,0,0,1,3.51.78c1.06,1.05.24,2.23-.24,3.26a13.9,13.9,0,0,1-4.94,6,35.49,35.49,0,0,0-3.31,2.37c-2.91,2.4-2.66,2.29-.88,5.39,2.32,4,5.23,7.84,5.85,12.7.39,3.11-1.43,5-4.39,4.18-3.45-.91-5.93-2.87-6.89-6.51-.24-.94-.46-2.47-2-2.06-1.24.35-1.11,1.59-1,2.76a125.61,125.61,0,0,1-.38,22.78c-.68,7.48-1.58,14.94-1.86,22.43-.18,4.66-1.29,9.29-.23,14.05.62,2.79-2.48,6.5-5.26,7.44a12.29,12.29,0,0,0-2.25.9,2,2,0,0,1-2.35-.06c-2.25-1.18-4.94-.58-7.42-.67-4.24-.15-8.5.13-12.76.22-10.9-.95-21.77-2.16-32.56-4.1a98.07,98.07,0,0,1-13.7-3.33c-1.31-.44-3.3-.81-3.07-2.54s2.25-1.46,3.63-1.49a82.4,82.4,0,0,0,8.88-1.21c.84-.11,2.13-.21,1.88-1.41-.18-.89-1.38-.68-2.15-.55-6.64,1.12-13.18-.37-19.76-.81a3.1,3.1,0,0,1-1.3-.34.77.77,0,0,1-.51-.79c.38-.79,1.37-.16,2-.51,5.71-.18,11.43.09,17.12-.69,4.28-.59,8.63-.83,12.77-2.21,9.42-3.13,15.33-13.46,12.57-22.75-1-3.42-4-5.82-7.37-7.22a94.1,94.1,0,0,0-18.24-4.89,123.53,123.53,0,0,0-19.63-2.38,3.26,3.26,0,0,0-1.35-.08c-2.33.39-3.21-.75-3-2.91.27-3.14-.78-6.1-1.09-9.17-1.32-12.69.89-24.86,5-36.87,2.06-6.1,3.8-12.32,6.13-18.33.2-.51.36-1,.57-1.54,1.64-4.07,2.21-4.26,5.59-1.44s7,2.48,10.71.84c8.39-.42,16.11-10.41,14.11-18.56-.49-2,0-2.22,1.63-2.45,2-.29,4-.86,6-1.31a2.17,2.17,0,0,1,.43,2.51c-1.53,5.27-.12,10.42.76,15.54.69,4.08,1.65,8.08,3.94,11.72C162,98.15,166.19,100.46,171.52,99.36Z" transform="translate(-6.94 -7.3)"/><path class="cls-5" d="M131.7,85.32c-2.91,3.05-7.71,2.91-11.41-.36-.81-.71-1.56-1.48-2.5-2.37a88.75,88.75,0,0,0-5.87,15.33c-2,6.73-4.65,13.25-5.93,20.17-1.77,9.63-3,19.27-.64,29a8.44,8.44,0,0,1,.19,3.24c-.47,3,.51,4.59,3.68,4.49-3.9.05-7.8.31-11.68.08-2.74-.16-5.26-1.72-8.15-1.59-1.3.05-3,1.12-3.79.16-.95-1.18-.78-3.07-.74-4.71.17-7.8,1.83-15.37,3.27-23a91.49,91.49,0,0,1,15.7-36.54c3.69-5.19,8.48-9.11,13.46-12.88.54-.4,1.52-1.75,2,0C121,82,125.39,84.06,130.66,85A8.89,8.89,0,0,1,131.7,85.32Z" transform="translate(-6.94 -7.3)"/><path class="cls-2" d="M186.75,60.34c-.83,6.52-1.76,13-2.46,19.57A24.54,24.54,0,0,1,182,88.42c-2.34,4.76-6.37,6.7-11.1,7.67-3.76.78-6.06-1.71-8.21-4.25-3.3-3.89-3.47-8.67-3.51-13.37-.07-6.33.1-12.67.38-19,.32-7.39.38-5.95,6.31-6.45s11.52.23,17.27.67c2,.16,3.24.83,3.14,3.12A20.78,20.78,0,0,0,186.75,60.34Z" transform="translate(-6.94 -7.3)"/><path class="cls-6" d="M112,195l-2.21.81c7.72.09,14.64,2.31,21.74.73a5.51,5.51,0,0,1,1.08-.05c1.25,0,2.64.16,2.69,1.61s-1.4,2-2.51,2.05c-3.52.24-6.92,1.41-10.49,1.27-.93,0-2-.34-2.89.85,2.74,2.14,6.1,2.6,9.24,3.4A197.13,197.13,0,0,0,154,209.8c4.94.58,9.81,1.36,14.69,2.24-7,.18-13.94-.24-20.88-.07-5.54.14-11.05-.09-16.54-.4-10.71-.59-21.42-.21-32.12-.48-3.77-.09-7.53-.78-11.29-1.24-2-.24-2.24-1.83-2.41-3.39-.33-3,.46-6,.59-8.93a1.66,1.66,0,0,1,1.86-1.6C95.92,195.76,103.91,194.2,112,195Z" transform="translate(-6.94 -7.3)"/><path class="cls-7" d="M111.18,192.07a159.54,159.54,0,0,0-25.47,1.51c-1.3.16-2.61-.34-2.78-1.51a2.32,2.32,0,0,1,2-2.51,19.57,19.57,0,0,1,4.89-.17c9.38,1.14,18.63-.31,27.94-1.06a56.29,56.29,0,0,0,22.86-7A10.58,10.58,0,0,0,146,170.45a5.1,5.1,0,0,0-2.16-3.25c-4.18-3.25-9.2-3.31-14-3.34-12.47-.08-24.74-1.66-37-3.67a44.94,44.94,0,0,1-7.1-1.46c-.48-.17-1.19-.48-1.27-.85-.2-.85.76-.84,1.26-1.1a9.53,9.53,0,0,1,5.86-.69c6.76,1.13,13.59.52,20.35,1.11a135,135,0,0,1,32.34,6.39c6.85,2.35,9,6.93,7.4,14-1.68,7.29-6.77,11.6-15,12.82A137.39,137.39,0,0,1,111.18,192.07Z" transform="translate(-6.94 -7.3)"/><path class="cls-8" d="M121.41,72c0-7.55,4.46-11.68,11.94-12a10,10,0,0,1,10.19,9.74c0,5.25-6.47,12.73-10.83,12.73C126.18,82.53,121.37,78.06,121.41,72Z" transform="translate(-6.94 -7.3)"/><path class="cls-9" d="M171.52,99.36c-4,1.75-7.44.38-10.26-2.41A22.26,22.26,0,0,1,154.53,84c-.44-3.18-1-6.37-1.65-9.52-.81-4,.17-7.68.6-11.49,2.42-.65,2.84.5,2.85,2.69.06,6.52-.52,13.07.5,19.57C157.93,92.2,162.67,100.13,171.52,99.36Z" transform="translate(-6.94 -7.3)"/><path class="cls-10" d="M109.38,233.46a4.17,4.17,0,0,1,2.71-3.39c2-.81,3.25-.33,3.91,1.79,1.26,4,.94,8.18,1,12.31,0,.84-.14,1.42-1.25,1a11.2,11.2,0,0,0-2.11-.35,3.2,3.2,0,0,1-2.75-2.12A14.52,14.52,0,0,1,109.38,233.46Z" transform="translate(-6.94 -7.3)"/><path class="cls-10" d="M170.37,234.59c.7-.82,1.35-1.69,2.11-2.45s1.44-1.77,2.74-1.22a3.17,3.17,0,0,1,1.77,2.55,29,29,0,0,1,.34,9.43,6.28,6.28,0,0,0,.25,3.49l-3.33-.45C170.86,242.87,169.43,239.14,170.37,234.59Z" transform="translate(-6.94 -7.3)"/><path class="cls-11" d="M102.32,169.78c0-.35,0-.17,0,0-.17,5.15-.82,5.64-6,4.87-.8-.12-1-.35-1.11-1.13a85.92,85.92,0,0,1-.55-9.22c0-1.1.43-1.24,1.27-1.07.62.13,1.22.35,1.85.45C102.57,164.4,102.57,164.4,102.32,169.78Z" transform="translate(-6.94 -7.3)"/><path class="cls-12" d="M113.92,181.44c0-.18,0-.36-.06-.54-.18-4.75,1-5.75,5.9-5.27,1.13.11,1.06.67,1.06,1.39,0,2.16-.12,4.32-.06,6.49,0,1.65-.62,2.21-2.25,2.07s-3.43,1.28-4.35.25c-.75-.84-.15-2.88-.15-4.39Z" transform="translate(-6.94 -7.3)"/><path class="cls-12" d="M111,181.06a8,8,0,0,1,0,1.9c-.26,1.07.93,2.64-.15,3.09-2,.82-4.27.66-6.44.56-.56,0-.43-.68-.4-1.11.15-2.52.34-5,.46-7.56,0-.81.32-1.17,1.12-1.13.36,0,.72,0,1.09,0C111.14,176.65,111.14,176.64,111,181.06Z" transform="translate(-6.94 -7.3)"/><path class="cls-13" d="M123.6,184.94a38.52,38.52,0,0,0,.09-6.14c-.15-1.17-.8-3,.31-3.47a11.47,11.47,0,0,1,5.84-.66.76.76,0,0,1,.49.51c.16,2.51.88,5.19.2,7.46-.43,1.44-3.19,1.52-5,1.84C125,184.57,124.45,184.73,123.6,184.94Z" transform="translate(-6.94 -7.3)"/><path class="cls-14" d="M97.79,187.13c-2.11.52-2.62-.37-2.26-2.78.32-2.08-.13-4.3-.32-6.44-.11-1.27.27-1.89,1.62-1.63a3.26,3.26,0,0,0,.54,0c4.48.23,4.47.23,4,4.59-.11,1.08-.12,2.16-.17,3.24C101.09,187.15,101.09,187.15,97.79,187.13Z" transform="translate(-6.94 -7.3)"/><path class="cls-8" d="M105,169.44v-1.36c0-3.4,0-3.33,3.51-3.28,2,0,3.3.37,2.63,2.89-.28,1.1.09,2.36,0,3.52-.1,1,.67,2.33-.66,2.87a10.47,10.47,0,0,1-5.1.5c-.77-.09-.46-.85-.47-1.33,0-1.27,0-2.54,0-3.81Z" transform="translate(-6.94 -7.3)"/><path class="cls-12" d="M114,173.82c-.23-2.24-.43-4.49-.7-6.72-.19-1.56.43-1.95,1.84-1.49a5.89,5.89,0,0,0,1.33.24c4.33.43,4.23.43,4.34,5,0,2-.44,2.87-2.52,2.76A36.58,36.58,0,0,0,114,173.82Z" transform="translate(-6.94 -7.3)"/><path class="cls-14" d="M130.63,166.59a4.4,4.4,0,0,1-.19,1.23c-.78,1.46,1,3.64-.92,4.52-1.4.64-3.19.38-4.79.59-1.17.16-1.67-.25-1.66-1.44a29.36,29.36,0,0,0-.16-4.6c-.15-1.08.4-.95,1-.94s1.09,0,1.62,0Z" transform="translate(-6.94 -7.3)"/><path class="cls-15" d="M170.37,234.59a21.81,21.81,0,0,0,3.88,11.35c-2,.27-4.09.44-6.11.83-1.13.22-1.57-.11-1.41-1.16C167.31,241.73,167.89,237.85,170.37,234.59Z" transform="translate(-6.94 -7.3)"/><path class="cls-16" d="M133.6,181.86c-.07-1.4-.17-2.45-.18-3.5,0-4.73-1-4,4-4.2.65,0,2.13-.53,1.82.66-.4,1.5,2,3.26-.48,4.44C137.13,180.06,135.5,180.9,133.6,181.86Z" transform="translate(-6.94 -7.3)"/><path class="cls-17" d="M135.62,172c-.86-.34-2.26.68-2.66-.44a18.84,18.84,0,0,1-.52-4.55.39.39,0,0,1,.09-.22c.33-.41,5.7.09,6.3.69a3.24,3.24,0,0,1,.3,3.75C138.51,172.52,136.85,171.7,135.62,172Z" transform="translate(-6.94 -7.3)"/><path class="cls-18" d="M109.38,233.46c.75,3.12.64,6.44,2.39,9.35a5,5,0,0,0,1.92,2c-1.78-.14-3.56-.33-5.34-.42-1.23-.06-1.1-.9-1.14-1.7A17.35,17.35,0,0,1,109.38,233.46Z" transform="translate(-6.94 -7.3)"/><path class="cls-19" d="M143.41,173.72a8.21,8.21,0,0,1-1.48,3.26C141.24,174.27,141.24,174.27,143.41,173.72Z" transform="translate(-6.94 -7.3)"/><path class="cls-20" d="M141.63,169c1.05.27,1.82.8,1.81,1.76,0,.51-.91.72-1.35.52C141,170.73,141.63,169.8,141.63,169Z" transform="translate(-6.94 -7.3)"/><path class="cls-21" d="M194.43,165.78c0-9.39-.44-18.82.14-28.18.46-7.39-.15-14.87,1.44-22.19.18-.83-.11-2.16,1.14-2.1s1,1.44,1.15,2.37c2.23,13.09.72,26.23.44,39.34A213,213,0,0,1,195.17,192a16.36,16.36,0,0,0-.16,2.72c-.14,7.16-2.62,10.16-9.69,10.92a104,104,0,0,1-10.89.1c-.56,0-1.26-.05-1.36-.65-.15-.89.67-.88,1.27-1,3.72-.71,7.44-1.45,11.16-2.14,4.53-.84,6.47-2.6,6.66-7.14.42-9.67,2.48-19.24,1.55-29Z" transform="translate(-6.94 -7.3)"/><path class="cls-22" d="M195,97.79c1.28-8.42-.05-16.84.11-25.25,0-2.12-.45-3.38-2.84-3.11a1.74,1.74,0,0,1-2-1.42,1.79,1.79,0,0,1,1.2-2.17c2.18-1,4.31-1.22,6.42.32,1.79,1.3,1.95,2.84,1.72,5a51.86,51.86,0,0,0,.1,10,86.83,86.83,0,0,1,0,16.83c-.35,3.32-.18,6.7-1.33,9.91-.19.55.23,1.51-.63,1.56-1,.06-1.31-1-1.39-1.74C195.89,104.41,194.66,101.2,195,97.79Z" transform="translate(-6.94 -7.3)"/><path class="cls-23" d="M144.62,196c2.17-2.1,4.4-2.74,6-4.33,6.25-6.18,8.63-13.55,7.09-22.19-.11-.61-.59-1.28.11-1.72a1.77,1.77,0,0,1,2,.28,5.32,5.32,0,0,1,2.41,4.08,28.76,28.76,0,0,1-5.06,18.24C154.42,194.4,150.14,195.81,144.62,196Z" transform="translate(-6.94 -7.3)"/><path class="cls-24" d="M212.57,147.15c0,.69.72,1.52-.23,2s-1.49-.33-2.1-.88a9.43,9.43,0,0,1-2.32-3.6c-1-2.59-2.27-5.08-3.41-7.62a1.33,1.33,0,0,1,.47-1.89,1.35,1.35,0,0,1,1.9.51C209.41,139.16,211.91,142.71,212.57,147.15Z" transform="translate(-6.94 -7.3)"/><path class="cls-25" d="M204.74,129.62c-1,0-.81-.65-.5-1.26a12.56,12.56,0,0,1,3.3-3.55c2.48-2.1,5.06-4.06,7.6-6.08.56-.44,1.14-1.14,1.87-.5a1.31,1.31,0,0,1-.07,2,93.67,93.67,0,0,1-11.89,9.3A1.6,1.6,0,0,1,204.74,129.62Z" transform="translate(-6.94 -7.3)"/><path class="cls-3" d="M177.75,71.07a26.87,26.87,0,0,1-2.44,11.13c-.86,1.78-1.76,3.71-4.23,3.64s-3.9-1.75-4.91-3.75c-1.35-2.68-.74-4.51,1.81-6.1a13.12,13.12,0,0,0,1.79-1.22c1.26-1.1,1-1.91-.49-2.6-1.18-.53-3.4-.2-3.31-1.81.14-2.62.55-5.44,3.16-7.11a5,5,0,0,1,7.93,3.4C177.34,68.25,177.56,69.86,177.75,71.07Z" transform="translate(-6.94 -7.3)"/><path class="cls-26" d="M135.16,70c-.38,1.33-.73,2.72-1.17,4.08A2.55,2.55,0,0,1,131.92,76c-1.3.2-2-.68-2.61-1.59-.9-1.33-1.55-2.58.89-3,.63-.12,1.5-.45,1.43-1.36,0-.35-.52-.65-.77-1-.38-.53-1.9.58-1.49-1a3.39,3.39,0,0,1,2.37-2.72,1.92,1.92,0,0,1,2.39,1.22A29.16,29.16,0,0,1,135.16,70Z" transform="translate(-6.94 -7.3)"/></svg>