<svg xmlns="http://www.w3.org/2000/svg" viewBox="0 0 286.12 285.61"><defs><style>.cls-1{fill:#010101;}.cls-2{fill:#fefefe;}.cls-3{fill:#335496;}.cls-4{fill:#335497;}.cls-5{fill:#023487;}.cls-6{fill:#023386;}.cls-7{fill:#013486;}.cls-8{fill:#023486;}.cls-9{fill:#325497;}.cls-10{fill:#013386;}.cls-11{fill:#033487;}.cls-12{fill:#4462a0;}.cls-13{fill:#013487;}.cls-14{fill:#033587;}.cls-15{fill:#ea446b;}.cls-16{fill:#fff;}</style></defs><title>Achterkant</title><g id="Layer_1" data-name="Layer 1"><path class="cls-1" d="M146.46,7.21c35.79,0,71.58-.07,107.37.08,5.84,0,11.79.23,17.48,2,9.64,3,16.14,9.31,19.86,18.7,1.86,4.71,1.78,9.48,1.61,14.4-.31,9.24-.36,18.5-.37,27.75q0,79.34,0,158.68c0,6.85-.1,13.71.37,20.6.49,7.15.33,14.54-1.79,21.58-2.94,9.79-9.37,16.26-18.82,20.09-5.44,2.2-11,1.66-16.57,1.58-1.71,0-3.44,0-5.15,0l-163.15-.13c-9.18,0-18.37-.39-27.52.13-6.82.39-13.58,0-20.36-.18-15.23-.4-26.72-7.26-31.85-23.84A20.9,20.9,0,0,1,7,261.05c.67-8.81.33-17.63.34-26.43q.09-43.76,0-87.52c0-29.81.1-59.61-.09-89.42,0-6.07-.09-12.14.11-18.2.41-13.17,5.8-23.38,18-29.44,5.48-2.72,11.32-2.81,17.22-2.81H146.46Z" transform="translate(-6.94 -7.19)"/><path class="cls-2" d="M120.25,11.57l8.33,0c1.35,3.17.89,6.58,1.23,9.88a71,71,0,0,1,.05,9.23c-.14,6.26,0,12.53-.08,18.79,0,1.94.69,2.83,2.71,2.8,12.43-.23,24.87,0,37.3-.15,3.09,0,3.32-.52,3.65-3.74,1-9.7.25-19.42.56-29.12.25-2.56-.87-5.3,1-7.65a50.93,50.93,0,0,1,9,.06c1.22,1.15,1,2.66,1,4.08,0,7.77-.09,15.55.05,23.32a79,79,0,0,0,1,12.37c.81,1,2,.82,3,.81,13.77-.18,27.54,0,41.31-.1,3.41,0,3.6-.21,3.6-3.78,0-9.7.86-19.37.61-29.07.19-2.56-.77-5.25.91-7.63a57,57,0,0,1,9-.08c1.55,1.3,1,3.1,1.06,4.72a22.2,22.2,0,0,1,0,3.46c.15,9.78-.14,19.56.47,29.34.18,3,.17,3.16,3.33,3.13q17.54-.15,35.06-.06c1.56,0,3.35-.41,4.38,1.39-.17,3.29-.33,6.58-.5,9.87-2.39,1.38-5,1.32-7.65,1.34-10,0-20.1,0-30.14,0-4.21,0-4.21,0-4.41,4.14-.12,13.62,0,27.23,0,40.85,0,2.66.4,3,3.31,3q17.28-.15,34.56-.09c1.51,0,3.13-.29,4.37,1,0,3.43,0,6.87.05,10.3-1.25,1-2.75.8-4.18.8-10.16,0-20.33,0-30.49,0-7.53,0-7.53,0-7.53,7.4q0,15.52,0,31c0,1.33-.26,2.74.69,3.92,1,.92,2.21.7,3.36.69q16.85-.17,33.68-.08c1.52,0,3.12-.27,4.42.87l0,10.52c-1.81,1.34-3.93,1.24-6,1.24-10.59,0-21.18,0-31.77,0-1.26,0-2.55-.19-3.71.49-1.07.91-.8,2.16-.8,3.31q0,20.28,0,40.57c0,3.27.32,3.62,3.56,3.6,11.43-.08,22.86-.14,34.29-.09,1.52,0,3.12-.26,4.41.9l.16,9.87c-.38,1.27-1.49,1.19-2.44,1.26-9.3.73-18.61.66-27.92.48a7.41,7.41,0,0,1-1-.19c-3.09-.67-6.22-.25-9.34-.28a1.63,1.63,0,0,0-1.28.86,10.52,10.52,0,0,0-.37,4.06c0,12.9,0,25.81,0,38.71,0,1.59.33,3.33-1.21,4.54l-10,0c-1.55-2.91-1.19-6.17-1.31-9.24-.29-8.11-.2-16.25-.05-24.38-.14-3.54,0-7.08-.07-10.63-.06-3-.28-3.25-3.32-3.26-9.72,0-19.44-.07-29.16,0-3.65,0-7.25-.49-10.87-.56-4.28-.08-4.5.15-4.51,4.37,0,13.09,0,26.18,0,39.26,0,1.58.36,3.35-1.31,4.48l-9.86,0c-1-1-.83-2.33-.91-3.58-.87-13.3.52-26.61.1-39.92,0-.9,0-1.81,0-2.72,0-1.32-.65-2-2-1.92-6.87.24-13.75-.4-20.63.38-4.49.51-9,0-13.58.19-7.09.31-6.81-1.46-6.8,6.93q0,18.09,0,36.18c0,1.58.34,3.33-1.25,4.5l-9.87,0c-1.69-2.88-1.26-6.16-1.38-9.22-.31-8.13-.2-16.28-.06-24.42-.29-3.37.26-6.69.44-10,.22-4.07-.14-4.4-4.13-4.41q-20.25,0-40.51,0c-3.49,0-3.71.22-3.72,3.7,0,13.33,0,26.65,0,40,0,1.58.38,3.35-1.34,4.44l-9.83,0c-1.61-2.9-1.22-6.17-1.33-9.23-.31-8.12-.2-16.25-.06-24.38-.13-3.8-.1-7.6,0-11.41,0-2.16-.69-3.13-3-3.09-9.14.16-18.26-.87-27.41-.54-4.44.15-8.84-.78-13.29-.59a2.83,2.83,0,0,1-2.25-.75l.06-8.24a4.68,4.68,0,0,1,2.84-.77c9.52-.1,19-1,28.55-.64,3.91.17,7.79-.38,11.69-.51,2.19-.08,2.62-1.13,2.78-3.07.79-9.7.47-19.42.47-29.13,0-3.53.6-7.08-.26-10.59a7.57,7.57,0,0,1-.18-1.34c-.19-4.14.87-4.93-5.11-4.91q-17.26,0-34.53,0c-2.16,0-4.37.09-6.28-1.24q0-4.2,0-8.4c3.69-1.74,7.62-1.23,11.49-1.27,10.17-.17,20.33,0,30.5-.08,4.32,0,4.43-.12,4.44-4.41,0-11.9,0-23.79.09-35.69,0-1.16.24-2.39-.74-3.33-1.22-.88-2.63-.62-4-.62-12.16,0-24.32,0-36.48,0-1.88,0-3.86.22-5.37-1.35l.08-8.36c3.67-1.84,7.61-1.1,11.46-1.22,10.16-.17,20.32,0,30.48-.07,4.32,0,4.43-.13,4.44-4.42,0-13.62-.07-27.23.09-40.84,0-1.15.28-2.4-.83-3.28a5.52,5.52,0,0,0-2.66-.44c-12.34-.29-24.67-.77-37-.57-2.06,0-4.21.2-6-1.27l0-8.37c3.32-1.66,6.9-1.25,10.41-1.28,5.72-.14,11.45-.17,17.16,0,5.47.14,10.88-.69,16.32-.58,2.39,0,2.55-1.41,2.55-3.21,0-10.08.82-20.14.6-30.22.19-2.39-.82-4.94,1-7.11a48.32,48.32,0,0,1,9,.05c1.16,1.06,1,2.48,1,3.81,0,6.79.12,13.57,0,20.35-.09,4.63.62,9.2.6,13.81,0,1.88.94,2.54,2.7,2.52,2.08,0,4.16-.07,6.24.06,11.17-.14,22.33,0,33.5-.06.91,0,1.82,0,2.73,0,3.47-.07,3.75-.31,3.77-3.72,0-6.18,0-12.36,0-18.53,0-3.27-.14-6.55.12-9.81a6.52,6.52,0,0,1,.19-1c.55-1.55.29-3.16.35-4.74A4,4,0,0,1,120.25,11.57Z" transform="translate(-6.94 -7.19)"/><path class="cls-3" d="M288.17,113.66c-13.5,0-27-.1-40.5-.11-1.5,0-2.5,0-2.49-2.06,0-13.69-.1-27.38-.16-41.06,0-.54.09-1.08.14-1.62,1,0,1.09.83,1.26,1.51a13.54,13.54,0,0,1,.53,3.22c.17,10.89.57,21.79-.19,32.66-.41,5.85,0,6.43,5.92,5.91,1.68-.14,2.48-.83,2.48-2.52,0-4.36.31-8.73-.12-13.07-.71-7.16-.31-14.33-.35-21.5,0-3,.77-3.81,3.75-3.75,8.62.17,17.22-.5,25.84-.59,1.34,0,2.75-.17,3.88.85Q288.16,92.59,288.17,113.66Z" transform="translate(-6.94 -7.19)"/><path class="cls-3" d="M58.2,185.47c.68,1.38.35,2.86.34,4.29,0,12.34-.18,24.68-.16,37,0,2-.51,2.57-2.56,2.6-14.79.21-29.57.56-44.35.86l.27-.69c2.11-1.23,4.43-.62,6.66-.72,3.15-.13,3.42-.29,3.43-3.44,0-9.88,0-19.77,0-29.65,0-4.67.43-5.08,5.16-5.09q13.05,0,26.09,0c3.59,0,4.44-.21,4.32-3.51A2,2,0,0,1,58.2,185.47Z" transform="translate(-6.94 -7.19)"/><path class="cls-4" d="M234.27,254.8q.16,15.21.32,30.42c0,1.08.14,2.16.21,3.24l-.69,0a53.58,53.58,0,0,0-7.6-.16c-10.15,0-20.3-.07-30.46,0-2.16,0-3-.81-3-2.8q-.11-14.15,0-28.3c0-2.23,1.11-3.33,3.35-3.34q17.67-.08,35.35,0A3.68,3.68,0,0,1,234.27,254.8Z" transform="translate(-6.94 -7.19)"/><path class="cls-3" d="M59.21,18.62c-.13,10.9-.27,21.79-.34,32.68,0,1.39-.41,1.89-1.85,1.9-11.8.08-23.59.23-35.38.36a8.34,8.34,0,0,1-.83-4.47c.12-9.39-.15-18.77-.66-28.14a4.32,4.32,0,0,1,.35-2.38l.58-.51c2.47-1.25,5.16-1,7.72-.78,8.75.86,17.52.28,26.27.48C56.49,17.8,58,17.55,59.21,18.62Z" transform="translate(-6.94 -7.19)"/><path class="cls-3" d="M118.72,254.8q.15,15.24.3,30.46c0,1.08.18,2.16.28,3.23l-.75,0a22.11,22.11,0,0,0-5.14-.17c-10.61,0-21.22-.07-31.83,0-2.16,0-3-.79-3-2.8q-.1-14.15,0-28.3c0-2.23,1.12-3.33,3.35-3.34q17.14-.08,34.28,0A3.8,3.8,0,0,1,118.72,254.8Z" transform="translate(-6.94 -7.19)"/><path class="cls-4" d="M137.21,240q17.55-.14,35.1-.29c1.41,0,1.94.55,1.93,1.92-.08,10.53-.09,21.06-.21,31.59-.05,5.08-.16,10.16.29,15.22l-.71,0c-5.06-.44-10.14-.13-15.21-.18-6.35-.06-12.7-.1-19.05,0-2.2.05-3-.87-3-2.83-.08-9.35-.11-18.7,0-28.05,0-2.88.88-3.53,4.25-3.55,8.71-.07,17.42,0,26.13,0H169c3.66,0,3.85-.23,3.9-3.84,0-1.64,0-3.27,0-4.9-.08-2.81-.33-2.93-3.19-3.14-9.51-.71-19-.46-28.55-.58C139.73,241.43,137.92,242.09,137.21,240Z" transform="translate(-6.94 -7.19)"/><path class="cls-3" d="M288.18,229.19c-13.5,0-27-.06-40.5,0-1.83,0-2.52-.42-2.51-2.4.11-15.14.1-30.28.15-45.42,0-.6-.23-1.29.39-1.76,1.15,1.31.84,2.92.84,4.43,0,13.16,0,26.32,0,39.48,0,4.16.07,4.21,4.28,4.23,5.41,0,5.32,0,5.44-5.32.21-9.08-.89-18.13-.59-27.21.17-5,.73-5.56,5.73-5.66,7.7-.14,15.42.43,23.11-.47a4.15,4.15,0,0,1,3.6.82Q288.15,209.55,288.18,229.19Z" transform="translate(-6.94 -7.19)"/><path class="cls-3" d="M58.21,254.81q.13,15.21.29,30.43c0,1.08.16,2.16.24,3.24a141,141,0,0,1-26.3-1,16.69,16.69,0,0,1-9.72-4.34,5.67,5.67,0,0,1-.89-3.63c0-7.07,0-14.14,0-21.21,0-3.77.65-4.38,4.5-4.4,9.42,0,18.84,0,28.26,0A5.11,5.11,0,0,1,58.21,254.81Z" transform="translate(-6.94 -7.19)"/><path class="cls-3" d="M288.18,168.63q-19.89,0-39.77,0c-.92,0-2,.48-2.79-.47,1.74-1.45,3.82-.84,5.76-.89,4.32-.1,4.21,0,4.37-4.46.28-8-.82-15.95-.58-23.94,0-.91,0-1.82,0-2.73.16-3,.78-3.74,3.78-3.75,8.43,0,16.85-1,25.29-.59,1.35.06,2.76-.16,3.89.87Q288.17,150.62,288.18,168.63Z" transform="translate(-6.94 -7.19)"/><path class="cls-5" d="M118.72,254.8c-12.16,0-24.32,0-36.47-.06-2.3,0-2.91.69-2.88,2.92.12,9.17.15,18.34,0,27.51,0,2.52.83,3,3.12,3,11.07-.11,22.14-.06,33.21,0,1,0,2-.37,2.86.41h-50c.67-.89.43-1.92.43-2.9.06-14.43.15-28.86.1-43.29,0-2.23.53-2.89,2.84-2.87q22.17.25,44.34.18c2.32,0,3,.73,2.86,2.94C118.89,246.65,118.85,250.73,118.72,254.8Z" transform="translate(-6.94 -7.19)"/><path class="cls-4" d="M288.67,53.54c-2-.75-4.11-.54-6.17-.55-11.53,0-23.05-.08-34.58,0-2.39,0-3-.69-3-3.07,0-10.08-.17-20.15-.28-30.22,1.9-.45,2.66.59,2.92,2.26a18.77,18.77,0,0,1,.11,3c-.12,7.62.34,15.25-.49,22.87-.13,1.17-.54,2.87.94,3.38,1.88.64,4.08.88,5.8-.25,1.3-.86.84-2.71.68-4.1-.84-7.07-.39-14.16-.47-21.24-.07-6.08.15-6.24,6.25-6.24H277a8.21,8.21,0,0,1,4.23.76,22.85,22.85,0,0,1,7.43,16.29C288.86,42.14,288.68,47.84,288.67,53.54Z" transform="translate(-6.94 -7.19)"/><path class="cls-5" d="M234.27,254.8c-12.6,0-25.21,0-37.82-.05-2.07,0-2.61.65-2.59,2.64.09,9.35.12,18.7,0,28,0,2.28.8,2.7,2.83,2.69,11.52-.08,23-.05,34.56,0,.95,0,2-.36,2.87.4l-49.93,0c.65-1,.4-2.13.4-3.19,0-14.09.12-28.17-.06-42.26,0-2.9.87-3.45,3.51-3.35,14.62.57,29.24.27,43.86.21,2.12,0,2.66.69,2.59,2.62C234.33,246.63,234.33,250.71,234.27,254.8Z" transform="translate(-6.94 -7.19)"/><path class="cls-6" d="M58.2,185.47a4.94,4.94,0,0,0-.1.53c-.21,5.52-.21,5.52-5.88,5.52-8.89,0-17.78.06-26.67-.07-2.33,0-2.88.75-2.86,3,.1,10.89,0,21.79.09,32.68,0,2-.57,2.73-2.61,2.61-2.8-.18-5.62-.1-8.43-.13-.71-16.27-.33-32.55-.41-48.83,0-.9.07-1.8.11-2.7,14.29.61,28.59.38,42.88.57,4.61.07,3.9-.4,3.92,3.88C58.25,183.48,58.22,184.47,58.2,185.47Z" transform="translate(-6.94 -7.19)"/><path class="cls-7" d="M58.21,254.81c-10.87,0-21.74,0-32.6-.06-2.21,0-3,.54-2.93,2.85.13,8.51.05,17,0,25.55-6-3.68-10.23-9.1-10.71-15.93a250.21,250.21,0,0,1-.6-28.73c14.89.32,29.77.66,44.66.93,1.53,0,2.37.28,2.32,2.05C58.26,245.91,58.26,250.36,58.21,254.81Z" transform="translate(-6.94 -7.19)"/><path class="cls-8" d="M244.79,288.5a6.58,6.58,0,0,0,.31-2.95q.08-21.33.17-42.67c0-.94-.43-2,.4-2.83a59.92,59.92,0,0,1,11.52,0h0a2.46,2.46,0,0,0,2.42.88c7.62-.36,15.2.67,22.81.57a11.74,11.74,0,0,0,6.2-1.31c0,6.34.63,12.69-.35,19a2,2,0,0,1-.7-1.14c-.92-3.44-.92-3.37-4.4-3.48-7.45-.24-14.87.93-22.31.55-2.39-.12-2.89,1.17-2.88,3.21,0,9,0,18,0,27a6.91,6.91,0,0,1-.32,3.22Z" transform="translate(-6.94 -7.19)"/><path class="cls-8" d="M11.43,62.39l40,.78c2.26,0,4.52.13,6.78.19.56,2.87.11,5.77.26,8.65.07,1.15-.56,1.63-1.56,1.84a15.36,15.36,0,0,1-3.25.2c-8.88,0-17.77,0-26.65,0-3.71,0-3.95.18-3.88,3.78.18,10.33-.52,20.67.46,31,.16,1.76.45,3.66-.83,5.24l-11.26.44c0-11-.11-22.08-.12-33.11C11.32,75.05,11.39,68.72,11.43,62.39Z" transform="translate(-6.94 -7.19)"/><path class="cls-9" d="M257.68,288.5a4.69,4.69,0,0,1-.54-2.89c0-9.53.05-19.05,0-28.57,0-2,.41-2.85,2.68-2.85,8.23,0,16.46-.33,24.69-.48,3.75-.06,3.75,0,3.74,3.82,0,.54,0,1.09.06,1.63.31,7.28-1.2,14-5.94,19.78C275.91,286.71,267.49,289.43,257.68,288.5Z" transform="translate(-6.94 -7.19)"/><path class="cls-8" d="M137.21,240c.76,1,1.84.58,2.79.59,5.26,0,10.52-.05,15.79,0s10.67.38,16,.45c1.66,0,2,.78,1.93,2.18-.06,3-.15,6,0,9,.12,2.11-.67,2.58-2.65,2.57-10.26-.09-20.51,0-30.77-.1-2.52,0-3.21.69-3.17,3.18q.22,13.49,0,27c0,2.71.85,3.29,3.39,3.25,10.07-.14,20.15-.07,30.22,0,1,0,2-.36,2.87.42H129.16a7.67,7.67,0,0,0,.36-3.49c.07-14.16.15-28.32.1-42.48,0-2.12.52-3,2.71-2.7C133.94,240,135.58,240,137.21,240Z" transform="translate(-6.94 -7.19)"/><path class="cls-7" d="M22.72,169.16l-11.32.48,0-46.78c7.94.57,15.9.47,23.85.56,7.23.09,14.46.07,21.7.13a5.23,5.23,0,0,1,1.25.32c.54,2.87.1,5.77.26,8.66.07,1.32-.75,1.74-1.82,1.91a29.57,29.57,0,0,1-4.61.16q-12.24,0-24.48,0c-3.83,0-3.9.08-3.91,4,0,8.8,0,17.6,0,26.4C23.59,166.44,23.78,167.94,22.72,169.16Z" transform="translate(-6.94 -7.19)"/><path class="cls-8" d="M288.14,189.9c-9.59.73-19.19.55-28.78.51-2.19,0-2.83.82-2.78,2.9.24,10.77.3,21.55.61,32.32.06,2.47-.7,3.23-3.07,3a29.34,29.34,0,0,0-5.7,0c-2.2.21-2.74-.63-2.73-2.75.1-14.52.07-29,.07-43.55,0-.91,0-1.81,0-2.72,1-.54,2.13-.26,3.2-.27q19.65-.12,39.3-.18C288.19,182.74,288.16,186.32,288.14,189.9Z" transform="translate(-6.94 -7.19)"/><path class="cls-5" d="M288.17,132.62c-10-.34-19.92.6-29.89.51-1.87,0-2.28.72-2.24,2.42.23,9.87.32,19.75.59,29.62.07,2.22-.53,3.08-2.85,2.92-2.71-.18-5.44,0-8.16,0-.53-.63-.35-1.39-.35-2.09,0-13.09.11-26.18,0-39.27,0-2.06.56-2.58,2.59-2.57,11.72,0,23.43-.06,35.15-.12,1.72,0,3.45-.06,5.17-.1C288.2,126.85,288.19,129.73,288.17,132.62Z" transform="translate(-6.94 -7.19)"/><path class="cls-8" d="M288.16,71.53c-10.05-.14-20.08,1-30.14.53-2.13-.1-2.51.73-2.56,2.67-.26,11.7.68,23.37.64,35.06,0,2.39-.49,3.6-3.11,3.19a16.33,16.33,0,0,0-2.71,0c-4.55,0-4.78,0-4.45-4.68.76-10.87.19-21.75.4-32.62a21.56,21.56,0,0,0-1.07-6.85c-.33-5.11-.33-5.09,4.65-5.12,12.78-.09,25.57.26,38.36-.28C288.17,66.12,288.16,68.82,288.16,71.53Z" transform="translate(-6.94 -7.19)"/><path class="cls-10" d="M78.87,53c-2.8,0-5.61,0-8.41.15-1.45.06-1.58-.65-1.59-1.81q-.21-19.86-.47-39.7l51.29-.06a21.79,21.79,0,0,1,.11,7.64h0c-1.25,1-2.75.83-4.19.83-10.81,0-21.62,0-32.43,0-3.84,0-4,.14-4,4,.14,8.17-.46,16.36.46,24.52C79.85,50.08,80,51.68,78.87,53Z" transform="translate(-6.94 -7.19)"/><path class="cls-6" d="M235.43,11.64c0,2.51-.08,5-.13,7.54-1.37,1.92-3.44,1.84-5.41,1.72-11.06-.67-22.12-.15-33.18-.27-2.72,0-3.22.38-3,3.26.65,7.79.45,15.59.48,23.38,0,5.45,0,5.47-5.49,5.43-1.33,0-2.71.33-4-.27-.59-2.78-.28-5.6-.33-8.39-.18-10.8-.28-21.6-.41-32.4Z" transform="translate(-6.94 -7.19)"/><path class="cls-6" d="M175,11.58l-.21,7.6c-1,1.67-2.63,1.4-4.12,1.4-9.8.05-19.6,0-29.4,0-.82,0-1.63,0-2.45,0-1.81,0-2.35.88-2.19,2.58.79,8.43.21,16.87.35,25.31,0,1.41.41,3.36-1.09,4-1.81.71-3.95.43-5.91.1-1.09-.18-.64-1.36-.64-2.1,0-5.71,0-11.43,0-17.15a5.67,5.67,0,0,0-.23-2.68q-.24-9.54-.49-19.09Z" transform="translate(-6.94 -7.19)"/><path class="cls-11" d="M281.21,20.16c-7.8,0-15.6.15-23.4,0-2.28,0-2.95.64-2.9,2.91.15,6.17,0,12.35.11,18.52,0,2.88.56,5.75.52,8.66,0,1.69-.62,2.32-2.24,2.13a9.91,9.91,0,0,0-1.09,0c-6.46,0-6.8-.56-5.9-7.08,1.09-7.85.22-15.76.48-23.64.06-1.63-1.38-1.4-2.17-2q-.12-4.08-.23-8.17a120.69,120.69,0,0,1,23.51,1.18A20.86,20.86,0,0,1,281.21,20.16Z" transform="translate(-6.94 -7.19)"/><path class="cls-7" d="M20.5,18.57c1.24,4.12.6,8.41,1,12.62.66,7.16-.18,14.42.45,21.62,0,.24-.19.5-.29.75L11.4,54A142.06,142.06,0,0,1,12,34.55,21.81,21.81,0,0,1,20.5,18.57Z" transform="translate(-6.94 -7.19)"/><path class="cls-6" d="M59.21,18.62c-12.72.21-25.43-.1-38.13-.56a21.37,21.37,0,0,1,14.69-6.42c7.87-.22,15.75-.05,23.63-.05C59.34,13.93,59.27,16.28,59.21,18.62Z" transform="translate(-6.94 -7.19)"/><path class="cls-12" d="M288.62,240.15c-.34,1.66-1.23,2.21-3,2.15-8.78-.3-17.57-.44-26.37-.61-1.19,0-2.25,0-2-1.68,9.38-.1,18.76-.17,28.14-.3,1,0,2.2.46,3-.65C288.77,239.34,288.69,239.75,288.62,240.15Z" transform="translate(-6.94 -7.19)"/><path class="cls-3" d="M119.8,19.22q0-3.82-.11-7.64h.56C120,14.11,120.45,16.69,119.8,19.22Z" transform="translate(-6.94 -7.19)"/><path class="cls-3" d="M234.25,63.86c1.13.57.6,1.6.59,2.4-.23,14.81-.36,29.62-.09,44.42,0,2.22-.53,2.93-2.85,2.92q-22.07-.16-44.12,0c-2.69,0-3.27-.82-3.25-3.37.1-13.26,0-26.52,0-39.79,0-.72.09-1.44.14-2.16,2,.77,1.35,2.56,1.36,4,.08,10.79,0,21.59,0,32.39,0,1.45,0,2.9,0,4.35.08,2.86.4,3.14,3.44,3.15s3.46-.26,3.5-3.07c.06-4.63,0-9.25,0-13.88,0-6.17,0-12.34,0-18.51,0-3.61.48-4,4-4.38,10-1.07,20.11-.26,30.17-.51.91,0,1.81,0,2.72,0,3.15-.07,3.32-.27,3.42-3.46C233.42,66.77,233.15,65.18,234.25,63.86Z" transform="translate(-6.94 -7.19)"/><path class="cls-4" d="M119.15,73.16q-.06,19.31-.11,38.62c0,1.15-.35,1.61-1.55,1.62q-19,0-38.07.15c-1-1.14-.88-2.53-.88-3.88,0-6-.09-12,0-18,.08-4.9-.82-9.74-.59-14.65.19-4.2.59-4.76,4.71-4.77q16.44-.06,32.88,0C116.81,72.3,118.12,72.19,119.15,73.16Z" transform="translate(-6.94 -7.19)"/><path class="cls-4" d="M185.17,179.51c.59-.64,1.37-.37,2.06-.37,14.88,0,29.77.08,44.66,0,2.05,0,2.58.59,2.57,2.61q-.12,22.35,0,44.69c0,2-.5,2.63-2.57,2.63-14.89-.06-29.78,0-44.66.09-1.87,0-2.75-.27-2.73-2.48.13-15.17.11-30.33.15-45.5,0-.58-.27-1.3.5-1.68,1.13,1.31.88,2.91.89,4.43,0,13.35,0,26.69,0,40,0,3.51.31,3.79,3.68,3.74,2.91,0,3.24-.32,3.26-3.34,0-9.72,0-19.43,0-29.15,0-4.71.43-5.12,5.14-5.13,10.26,0,20.51,0,30.77,0,3.7,0,3.88-.19,3.87-3.82,0-6.34.5-5.86-5.9-5.87-12.44,0-24.87,0-37.31,0C188.08,180.39,186.48,180.64,185.17,179.51Z" transform="translate(-6.94 -7.19)"/><path class="cls-3" d="M167.74,63.87c6.65-.53,6.62-.53,6.59,5.94-.07,13.61-.13,27.23-.11,40.84,0,2-.28,2.88-2.63,2.86-13.15-.09-26.31,0-39.46.08-2,0-2.7-.45-2.64-2.55.17-5.34.11-10.7.13-16.05,1.7.53,1.28,2,1.31,3.18.12,3.62,0,7.25,0,10.88,0,1.67.16,3.09,2.42,3s2.39-1.47,2.39-3.13c0-10.15,0-20.31,0-30.47,0-.91,0-1.82,0-2.72.17-2.66.78-3.35,3.52-3.41,5.62-.14,11.24,0,16.86-.05,4.53,0,9.07,0,13.6,0,2,0,3-.59,3.08-2.78.08-3.38-.13-3.85-2.62-4.28C169.29,65.11,168,65.42,167.74,63.87Z" transform="translate(-6.94 -7.19)"/><path class="cls-3" d="M80.5,179q18.36.07,36.72.13c1.64,0,1.64.95,1.63,2.13,0,4.35-.08,8.71,0,13.06q.11,16.18.31,32.38c0,1.61-.22,2.46-2.18,2.46-14.05,0-28.11.06-42.16.1a5.34,5.34,0,0,1-.8-.13c.07-1.14,1-1.26,1.77-1.27,2.55,0,2.83-1.62,2.82-3.65,0-8.81,0-17.62,0-26.43,0-1,0-2,0-3,.1-3.48.66-4.1,4.21-4.12,9.8-.07,19.61,0,29.41,0,5.07,0,5.07,0,5.07-5.09s0-5.16-5.26-5.16c-9.26,0-18.52,0-27.78,0C82.89,180.36,81.23,180.84,80.5,179Z" transform="translate(-6.94 -7.19)"/><path class="cls-3" d="M22.71,114.06c-.69-12.67-.45-25.36-.58-38,0-2.25.62-2.92,2.89-2.9,10.06.12,20.12,0,30.18.12,2.47,0,3.18-.73,3-3.08s0-4.53,0-6.8c1.16.55.59,1.59.59,2.39,0,15.16-.13,30.32-.1,45.48,0,2.13-.56,2.78-2.74,2.77C44.85,113.93,33.78,114,22.71,114.06Z" transform="translate(-6.94 -7.19)"/><path class="cls-3" d="M234.28,124.37c.83.61.44,1.5.44,2.26,0,13.15-.12,26.3-.13,39.44,0,1.74-.28,2.61-2.34,2.59-15.14-.09-30.28,0-45.41-.07-.6,0-1.29.21-1.76-.41,1.32-1.38,3-.89,4.63-1,3-.14,3.29-.29,3.3-3.3.05-8.27,0-16.54,0-24.81,0-1,0-2,0-3,0-2.1,1-3.18,3.17-3.22,1.91,0,3.82-.09,5.72,0,9.46.31,18.88-.47,28.32-.58,2.78,0,3-.32,3.1-3.23C233.46,127.45,233,125.73,234.28,124.37Z" transform="translate(-6.94 -7.19)"/><path class="cls-3" d="M173.71,179.6c.68.57.4,1.35.4,2,0,15,0,30,.07,45,0,1.83-.43,2.52-2.41,2.53-13.34.09-26.69-.52-40,.07-1.55.07-2.29-.26-2.28-2.06.14-15.43.19-30.87.27-46.31,0-.45-.05-.92.4-1.22,1.14,1.31.83,2.92.84,4.43,0,13.43,0,26.86,0,40.29,0,2.94.54,3.45,2.92,3.4,1.55,0,2.34-.7,2.37-2.29s0-3.45,0-5.17c0-8.35,0-16.69,0-25,0-4,.61-4.54,4.62-4.56,9.25,0,18.5,0,27.76,0,3.92,0,4-.21,4.16-4.17C173,184.17,172.21,181.74,173.71,179.6Z" transform="translate(-6.94 -7.19)"/><path class="cls-3" d="M78.87,53c-.73-10.31-.43-20.65-.6-31,0-2.27.63-2.92,2.89-2.9,12.88.11,25.77.08,38.65.09q-.12,15.9-.21,31.82c0,1.33-.38,2-1.85,2C104.79,53,91.83,53,78.87,53Z" transform="translate(-6.94 -7.19)"/><path class="cls-3" d="M184.72,52.43c2.09,0,4.18-.16,6.26,0s2.45-.63,2.43-2.49c-.13-9.06.19-18.14-.62-27.18-.22-2.39.56-3.09,3-3.06,10.35.14,20.69,0,31,.11,2.86,0,5.73.74,8.47-.61-.12,10.52-.3,21-.32,31.58,0,2-.94,2.13-2.49,2.12q-16.2-.09-32.4-.1c-4.27,0-8.53.06-12.8,0C186.44,52.81,185.48,53.2,184.72,52.43Z" transform="translate(-6.94 -7.19)"/><path class="cls-3" d="M118.75,124.37c.92,2.73.38,5.54.37,8.3,0,11.08-.24,22.17-.35,33.26,0,1.42.15,2.57-2,2.57-13.81,0-27.62.15-41.43.24a4.47,4.47,0,0,1-.8-.14c0-.84.65-1.13,1.24-1.16,2.66-.17,2.82-1.92,2.81-4q-.06-12.78,0-25.56c0-4.55.48-5,5-5,10.15,0,20.3,0,30.44,0,3.69,0,3.76-.15,3.87-3.82C117.86,127.42,117.41,125.7,118.75,124.37Z" transform="translate(-6.94 -7.19)"/><path class="cls-3" d="M129.07,30.63c.79.84.47,1.9.47,2.86.05,5.35.2,10.7,0,16-.09,2.51.79,3.26,3.1,2.92a9.27,9.27,0,0,1,1.9,0c1.19.06,1.6-.55,1.57-1.66-.26-9.14.56-18.3-.48-27.42-.38-3.25-.13-3.64,3.09-3.64h32.63c1.17,0,2.37.17,3.42-.55-.12,10.51-.27,21-.32,31.53,0,1.58-.6,2.08-2,2.07-1.18,0-2.36.11-3.53.12-12.42,0-24.83,0-37.24.14-2,0-2.66-.51-2.62-2.57C129.16,43.86,129.08,37.24,129.07,30.63Z" transform="translate(-6.94 -7.19)"/><path class="cls-3" d="M173.76,133.73c.09,11,.16,21.94.31,32.91,0,2-1.1,1.91-2.46,1.9-11-.06-22,0-32.93-.15-2.84,0-5.72.64-8.53-.33,1-.95,2.36-.85,3.61-.86,1.66,0,2.55-.7,2.53-2.43-.07-8.7.42-17.42-.27-26.11-.37-4.7.4-5.79,5-5.81,9.62,0,19.23,0,28.84,0C171.23,132.85,172.62,132.74,173.76,133.73Z" transform="translate(-6.94 -7.19)"/><path class="cls-3" d="M22.72,169.16c0-10.78.09-21.57-.06-32.36,0-2.59.8-3.15,3.22-3.12,9.88.13,19.76,0,29.63.09,2,0,2.79-.46,2.65-2.56-.16-2.44,0-4.89,0-7.34.91.7.45,1.68.45,2.52,0,13.34-.1,26.69-.14,40,0,1.43.13,2.66-2,2.65C45.22,169,34,169.12,22.72,169.16Z" transform="translate(-6.94 -7.19)"/><path class="cls-8" d="M80.5,179c.85.8,1.9.47,2.86.47,10.62.06,21.24.17,31.85,0,2.47,0,3.2.73,3,3.08a29.87,29.87,0,0,0,0,6c.27,2.53-.8,3-3.1,3-11-.12-22,0-32.94-.1-2.12,0-2.8.55-2.78,2.74.11,10.26,0,20.52.11,30.78,0,2.69-.46,4.17-3.49,3.65a2,2,0,0,0-2,.5c-4.8.29-4.78.29-4.79-4.46,0-14.4,0-28.79-.09-43.18,0-2.15.58-2.87,2.74-2.7C74.71,179,77.61,179,80.5,179Z" transform="translate(-6.94 -7.19)"/><path class="cls-8" d="M119.15,73.16l-36.41,0c-3.85,0-4,0-3.82,3.73.59,12.21.47,24.42.5,36.64-2.81.09-5.62.16-8.43.3-1.33.07-1.94-.29-1.94-1.8q-.09-23.46-.32-46.9c0-1.62.62-2,2.1-2q23.16.18,46.33.23c1.59,0,2.35.36,2.22,2.12C119.2,68.07,119.22,70.62,119.15,73.16Z" transform="translate(-6.94 -7.19)"/><path class="cls-7" d="M118.75,124.37c0,2.26-.22,4.53-.08,6.79.13,2-.57,2.62-2.61,2.6-11-.09-22.1,0-33.15,0-3.48,0-3.49,0-3.49,3.57,0,9.15-.09,18.31.06,27.46,0,2.51-.47,3.81-3.22,3.36a1.76,1.76,0,0,0-1.75.49c-5.16.33-5.14.33-5.17-4.89-.06-12.44-.1-24.89-.28-37.33,0-2.2.63-2.8,2.74-2.66,3.44.22,6.9.17,10.35.23a10.34,10.34,0,0,0,3.76.21c10,0,19.91,0,29.87,0a8.21,8.21,0,0,1,3,.18Z" transform="translate(-6.94 -7.19)"/><path class="cls-13" d="M173.71,179.6c0,3.09-.13,6.18,0,9.27.08,2-.7,2.68-2.69,2.67-10.27-.06-20.53.05-30.8-.07-2.38,0-3.08.59-3,3,.13,10.45,0,20.9.1,31.35,0,2.17-.61,3-2.75,2.71a4.78,4.78,0,0,0-1.36,0c-2.32.38-3.13-.43-3.1-2.92.16-12.27.12-24.54.14-36.81,0-3.09,0-6.18,0-9.27,3.15-.16,6.29-.46,9.44-.46,10.77,0,21.55.05,32.33.09C172.52,179.24,173.19,179.09,173.71,179.6Z" transform="translate(-6.94 -7.19)"/><path class="cls-6" d="M234.25,63.86c0,2-.16,4,0,6,.22,2.36-.77,2.85-3,2.83-9.07-.11-18.15-.07-27.22,0-2.89,0-5.77.37-8.65.47-1.93.06-1.54,1.42-1.54,2.53q0,14.7,0,29.41V107c0,6.38-.8,7-7.33,6-1.94-.29-1.38-1.63-1.38-2.67,0-13,0-26,0-38.94,0-1,.39-2.19-.5-3.11-.28-4.46-.28-4.45,4.23-4.46q21.19,0,42.4-.09C232.27,63.72,233.26,63.81,234.25,63.86Z" transform="translate(-6.94 -7.19)"/><path class="cls-8" d="M234.28,124.37c0,2.17-.15,4.35,0,6.52.09,1.78-.55,2.32-2.33,2.33-11.58.06-23.15.84-34.74.43-2.62-.09-3.36.68-3.32,3.3.16,9.52,0,19,.11,28.56,0,2.06-.62,2.72-2.64,2.59s-4.16,0-6.24.08v0c-.37-4.71-.13-9.42-.15-14.13-.05-9,0-18,0-26.94a5.42,5.42,0,0,1,.23-2.68c3.6-.61,7.23-.23,10.83-.27,12.07-.1,24.14-.08,36.21-.09C232.9,124.05,233.66,123.79,234.28,124.37Z" transform="translate(-6.94 -7.19)"/><path class="cls-6" d="M167.74,63.87c.7.86,1.67.53,2.54.55,3.45.06,3.45,0,3.45,3.61,0,5.14,0,5.14-5.2,5.14-9.71,0-19.43.06-29.14,0-2.11,0-2.82.53-2.8,2.73.12,11.45-.05,22.89.16,34.34.05,3.07-1.55,2.73-3.53,2.83-2.22.11-3.31-.3-3.17-2.91.23-4.17.07-8.36,0-12.53,0-.88.28-1.84-.46-2.6q-.18-14.8-.35-29.63c0-.9-.15-1.9,1.27-1.88C142.94,63.63,155.34,63.22,167.74,63.87Z" transform="translate(-6.94 -7.19)"/><path class="cls-14" d="M173.76,133.73c-11.34,0-22.67.07-34-.07-2.71,0-3.33,1.08-3.06,3.41,1.1,9.49.18,19,.54,28.52.07,1.91-.56,2.61-2.46,2.45-1.53-.13-3.08,0-4.62,0a13.13,13.13,0,0,1-.28-1.85c-.09-13.18-.11-26.36-.28-39.53,0-2.21.61-2.73,2.74-2.71q19.62.21,39.25.13c2,0,2.84.46,2.6,2.57C173.92,129,173.89,131.37,173.76,133.73Z" transform="translate(-6.94 -7.19)"/><path class="cls-3" d="M185.16,124.41q0,21.87-.08,43.75c-.71-.56-.41-1.34-.42-2q0-19.75,0-39.51C184.64,125.88,184.22,125,185.16,124.41Z" transform="translate(-6.94 -7.19)"/><path class="cls-3" d="M118.74,124.37q-17.68,0-35.37,0a3.93,3.93,0,0,1-1.22-.45c10.61,0,21.23,0,31.85.16C115.57,124.12,117.21,123.39,118.74,124.37Z" transform="translate(-6.94 -7.19)"/><path class="cls-12" d="M257.19,240l-11.52,0A40.06,40.06,0,0,1,257.19,240Z" transform="translate(-6.94 -7.19)"/><path class="cls-6" d="M185.17,179.51c15.16,0,30.32.14,45.47.05,2.57,0,3.38.75,3.11,3.2a22.84,22.84,0,0,0,0,4.89c.3,2.57-.55,3.42-3.24,3.39-11.07-.15-22.15.05-33.22-.12-2.8,0-3.49.75-3.45,3.49.16,10.53,0,21.06.11,31.6,0,2-.54,2.65-2.59,2.64-6.2,0-6.19,0-6.19-6.09q0-21.52,0-43Z" transform="translate(-6.94 -7.19)"/></g><g id="Layer_2" data-name="Layer 2"><path class="cls-15" d="M64.59,144.23a5.51,5.51,0,0,1-2.69-.63,4.78,4.78,0,0,1-1.9-1.91,6.7,6.7,0,0,1-.77-2.31,16.43,16.43,0,0,1-.16-2.31,26.49,26.49,0,0,1,.18-2.92c.12-1,.27-2.12.46-3.27s.4-2.31.65-3.53c0-.27.11-.55.17-.83l-1.27,1.41c-.57.63-1.08,1.17-1.51,1.6a15.1,15.1,0,0,1-1.17,1.08,2.63,2.63,0,0,0-.75.79c-.3.51-.56,1-.77,1.4a13.66,13.66,0,0,1-.64,1.21,6,6,0,0,1-1.07,1.32,5.35,5.35,0,0,1-1.57,1,5.56,5.56,0,0,1-2.11.37c-.15,0-.42,0-.82,0a8.9,8.9,0,0,1-1.42-.18,6.18,6.18,0,0,1-1.66-.59A3.42,3.42,0,0,1,44,133.59c-.15-.68-.33-1.46-.56-2.35s-.49-1.89-.8-2.94-.63-2.15-1-3.28c0-.14-.09-.29-.13-.43-.15.76-.3,1.53-.44,2.29-.22,1.23-.41,2.43-.58,3.59s-.28,2.23-.37,3.24-.14,1.86-.14,2.62a7.68,7.68,0,0,1-.37,2.28,11.42,11.42,0,0,1-.85,2.06,8.09,8.09,0,0,1-1.31,1.81,3.78,3.78,0,0,1-2.75,1.26c-.58,0-1.06,0-1.45-.05a5.28,5.28,0,0,1-1.72-.4,4.17,4.17,0,0,1-1.43-1.09,7.52,7.52,0,0,1-.89-1.25,9.06,9.06,0,0,1-.62-1.38,5.33,5.33,0,0,1-.32-1.76,4.16,4.16,0,0,1,.13-.95l.15-.5,0-.11a15.77,15.77,0,0,0,.56-1.75c.19-.71.37-1.45.53-2.23s.35-1.66.52-2.51.36-1.76.56-2.63q.54-2.46,1.06-5a46.82,46.82,0,0,1,1.41-5.26c.22-.64.42-1.31.59-2s.35-1.44.49-2.13.27-1.3.37-1.87l.24-1.45.17-1.15a9.46,9.46,0,0,1,.49-1.88,5.5,5.5,0,0,1,1.35-2.09,4.29,4.29,0,0,1,3.1-1.2,5.75,5.75,0,0,1,1.91.38,11.61,11.61,0,0,1,1.75.78,15.65,15.65,0,0,1,1.55,1,5,5,0,0,1,1.59,1.7l.06.11,0,.11c.09.21.2.49.32.83s.25.71.37,1.1.23.82.32,1.22a7.4,7.4,0,0,1,.16,1.24c0,.14.07.36.14.66.14.57.32,1.27.55,2.09s.51,1.77.82,2.8.64,2,1,3.06c.24.68.47,1.34.71,2L53,120.3c.74-.79,1.58-1.68,2.48-2.66s1.79-2,2.68-3,1.7-2,2.48-3a29.81,29.81,0,0,0,1.88-2.7c.36-.77.74-1.53,1.15-2.25a17.87,17.87,0,0,1,1.42-2.18,9.18,9.18,0,0,1,1.75-1.77,4.51,4.51,0,0,1,2.79-1,4.17,4.17,0,0,1,2.08.62,7.73,7.73,0,0,1,1.59,1.17,8.25,8.25,0,0,1,1.34,1.6,4.85,4.85,0,0,1,.8,2.63,4.59,4.59,0,0,1-.24,1.41l-3.11,9.34c0,.12-.05.24-.07.36-.25,1.37-.48,2.78-.7,4.21s-.42,2.81-.59,4.1-.3,2.39-.39,3.41-.13,1.69-.13,2.18a15.68,15.68,0,0,0,.15,2.09,23.49,23.49,0,0,1,.2,3.12,9.38,9.38,0,0,1-.89,4,3.23,3.23,0,0,1-1.56,1.66,5,5,0,0,1-1.35.44,10,10,0,0,1-1.16.13C65.28,144.23,64.94,144.23,64.59,144.23Z" transform="translate(-6.94 -7.19)"/><path class="cls-16" d="M69.66,104.23a1.94,1.94,0,0,1,.87.31,5,5,0,0,1,1.1.81,6.07,6.07,0,0,1,.94,1.13,2.31,2.31,0,0,1,.4,1.27,2,2,0,0,1-.12.62v0a2.06,2.06,0,0,1-.44.81,4.86,4.86,0,0,1-.58.53,1.27,1.27,0,0,0-.36.62c-.11.31-.22.66-.33,1-.25.86-.51,1.9-.77,3.13s-.52,2.55-.78,3.94-.49,2.83-.71,4.29-.42,2.84-.6,4.14-.31,2.47-.4,3.51-.14,1.84-.14,2.41a19.25,19.25,0,0,0,.17,2.43,20.19,20.19,0,0,1,.18,2.78,6.91,6.91,0,0,1-.14,1.42A7.5,7.5,0,0,1,67.4,141a.71.71,0,0,1-.38.4,2.36,2.36,0,0,1-.68.22,7,7,0,0,1-.84.09c-.3,0-.6,0-.91,0a3,3,0,0,1-1.48-.32,2.28,2.28,0,0,1-.93-.94A4.38,4.38,0,0,1,61.7,139a14,14,0,0,1-.13-1.93,24,24,0,0,1,.17-2.64c.11-1,.26-2,.44-3.14s.39-2.26.63-3.44.48-2.37.74-3.56.5-2.36.75-3.5.47-2.22.68-3.24l-1.88,2.21-2,2.3c-.66.77-1.31,1.52-1.94,2.23s-1.22,1.37-1.76,2-1,1.1-1.43,1.51a12.11,12.11,0,0,1-.95.89,5,5,0,0,0-1.35,1.47c-.34.57-.63,1.1-.87,1.6s-.35.69-.53,1a3.32,3.32,0,0,1-.63.79,2.6,2.6,0,0,1-.82.52,3,3,0,0,1-1.16.19c-.13,0-.36,0-.7,0a7.92,7.92,0,0,1-1-.13,3.57,3.57,0,0,1-1-.35.94.94,0,0,1-.55-.66c-.14-.68-.34-1.49-.57-2.43s-.51-1.94-.82-3-.64-2.18-1-3.32S43.31,122,43,121s-.7-2.09-1-3-.63-1.79-.9-2.48c-.29,1.08-.57,2.23-.86,3.45s-.56,2.46-.82,3.73-.51,2.54-.74,3.81-.42,2.5-.59,3.69-.3,2.31-.39,3.37-.15,2-.15,2.84a5.18,5.18,0,0,1-.26,1.55,9.21,9.21,0,0,1-.66,1.61,5.58,5.58,0,0,1-.9,1.25,1.38,1.38,0,0,1-1,.5c-.51,0-.93,0-1.27,0a2.65,2.65,0,0,1-.9-.2,2,2,0,0,1-.57-.47,4.64,4.64,0,0,1-.57-.81,6.54,6.54,0,0,1-.44-1,2.87,2.87,0,0,1-.18-.94,1.33,1.33,0,0,1,.05-.3l.09-.34a18.66,18.66,0,0,0,.66-2c.2-.74.38-1.53.56-2.35s.35-1.67.52-2.54.36-1.72.55-2.58q.54-2.48,1.07-5a43.41,43.41,0,0,1,1.33-5c.24-.69.46-1.42.65-2.19s.36-1.5.51-2.21.27-1.37.38-2,.18-1.09.25-1.47.11-.71.18-1.19a7.45,7.45,0,0,1,.35-1.39,3.14,3.14,0,0,1,.75-1.16,1.86,1.86,0,0,1,1.36-.49,3.43,3.43,0,0,1,1.08.24,9.11,9.11,0,0,1,1.38.61,14.69,14.69,0,0,1,1.31.81,2.55,2.55,0,0,1,.82.84c.08.19.18.43.29.73s.22.63.32,1,.19.68.26,1a4.3,4.3,0,0,1,.11.86,7.11,7.11,0,0,0,.21,1.1c.15.6.34,1.32.57,2.18s.52,1.81.84,2.86.66,2.1,1,3.15.74,2.08,1.12,3.07.75,1.86,1.12,2.61l1-1.09,1.13-1.19,1.16-1.21L54.84,122l2.51-2.69c.91-1,1.82-2,2.72-3s1.77-2.1,2.58-3.16a34.56,34.56,0,0,0,2.11-3c.35-.77.72-1.5,1.12-2.21A15.69,15.69,0,0,1,67.11,106a7.24,7.24,0,0,1,1.27-1.31,2.15,2.15,0,0,1,1.28-.48m0-5a7.14,7.14,0,0,0-4.3,1.5A11.85,11.85,0,0,0,63.14,103a20.85,20.85,0,0,0-1.62,2.48c-.41.73-.81,1.5-1.17,2.28s-1,1.54-1.66,2.37c-.75,1-1.56,2-2.39,2.91s-1.74,2-2.62,2.92l-1.37,1.48c-.11-.36-.22-.7-.33-1-.3-1-.57-1.92-.8-2.75s-.4-1.47-.52-2q-.06-.23-.09-.39a10.27,10.27,0,0,0-.21-1.46q-.15-.69-.36-1.41c-.14-.44-.28-.85-.42-1.24s-.26-.69-.36-.93l-.09-.22-.11-.21a7.33,7.33,0,0,0-2.36-2.57,16.66,16.66,0,0,0-1.8-1.12,15,15,0,0,0-2.11-.94,8.29,8.29,0,0,0-2.74-.52,6.79,6.79,0,0,0-4.85,1.91,8.11,8.11,0,0,0-1.95,3,12,12,0,0,0-.61,2.37l-.07.5-.1.65c-.06.37-.14.83-.24,1.39s-.21,1.14-.35,1.79-.29,1.34-.47,2-.33,1.23-.52,1.79a49.41,49.41,0,0,0-1.5,5.58c-.34,1.67-.7,3.33-1.05,5-.2.88-.39,1.78-.57,2.67s-.34,1.68-.51,2.49-.33,1.45-.5,2.11a13.39,13.39,0,0,1-.48,1.47l-.08.22-.07.23-.12.44a5.86,5.86,0,0,0-.22,1.59,8,8,0,0,0,.46,2.59,11,11,0,0,0,.81,1.78,8.83,8.83,0,0,0,1.2,1.69,6.6,6.6,0,0,0,2.22,1.68h0l0,0a7.88,7.88,0,0,0,2.55.61c.47,0,1,.05,1.62.05a6.25,6.25,0,0,0,4.54-2,10.28,10.28,0,0,0,1.71-2.37,13.38,13.38,0,0,0,1-2.52,10.25,10.25,0,0,0,.48-3v-.05a6.15,6.15,0,0,0,2.15,1.86,8.27,8.27,0,0,0,2.33.82,12.67,12.67,0,0,0,1.8.23c.45,0,.76,0,.93,0a8.1,8.1,0,0,0,3.06-.56,7.63,7.63,0,0,0,2.33-1.5,8.5,8.5,0,0,0,1.5-1.85l.09-.15c0,.68-.08,1.32-.08,1.92a17.24,17.24,0,0,0,.19,2.68,9.5,9.5,0,0,0,1.05,3.16,7.34,7.34,0,0,0,2.89,2.88,7.89,7.89,0,0,0,3.89.94l1.16,0a13.09,13.09,0,0,0,1.48-.17,7.57,7.57,0,0,0,2-.67A5.73,5.73,0,0,0,72,143a12.24,12.24,0,0,0,.86-2.61,13,13,0,0,0,.23-2.39,25.42,25.42,0,0,0-.22-3.47,12.21,12.21,0,0,1-.13-1.74c0-.23,0-.8.12-2,.09-1,.22-2.08.38-3.3s.37-2.64.58-4,.45-2.81.69-4.14l0-.2,3-9.16a7,7,0,0,0,.37-2.2,7.37,7.37,0,0,0-1.19-4A11,11,0,0,0,75,101.69,10.64,10.64,0,0,0,73,100.16a6.67,6.67,0,0,0-3.29-.93Z" transform="translate(-6.94 -7.19)"/><path class="cls-15" d="M87.2,144a10.36,10.36,0,0,1-5-1.21,11.61,11.61,0,0,1-3.72-3.15,14.48,14.48,0,0,1-2.26-4.39,16.84,16.84,0,0,1-.77-5.1,20,20,0,0,1,.15-2.51,21.13,21.13,0,0,1,.42-2.27,22.42,22.42,0,0,1,.66-2.17c.24-.68.53-1.41.86-2.16a23.42,23.42,0,0,1,1.59-3,36,36,0,0,1,2.11-3c.76-1,1.6-2,2.47-2.92s1.77-1.84,2.66-2.67,1.83-1.63,2.73-2.32a18.83,18.83,0,0,1,2.75-1.75,11.67,11.67,0,0,1,1.31-.57c.45-.17.9-.31,1.34-.44a13.7,13.7,0,0,1,1.39-.32l.16,0a6.86,6.86,0,0,1,2.52-1.57,10.4,10.4,0,0,1,3.54-.6,12,12,0,0,1,3.92.64,13.23,13.23,0,0,1,3.43,1.8,14.27,14.27,0,0,1,2.81,2.74,16.26,16.26,0,0,1,2.07,3.47,15.62,15.62,0,0,1,.88,2.63,12.28,12.28,0,0,1,.36,3,21.57,21.57,0,0,1-.73,5.61,24.4,24.4,0,0,1-2,5A28.14,28.14,0,0,1,110,131a35,35,0,0,1-3.46,3.73,37.77,37.77,0,0,1-3.82,3.15c-1.3.93-2.6,1.78-3.87,2.51a22.23,22.23,0,0,1-2.57,1.24c-1,.41-2,.78-3,1.11s-2.09.61-3.1.84A14.55,14.55,0,0,1,87.2,144Zm9.5-29.7a2.17,2.17,0,0,0-.79.33,13.06,13.06,0,0,0-2,1.48,28,28,0,0,0-2.24,2.25c-.77.87-1.48,1.75-2.13,2.63s-1.24,1.74-1.74,2.55a12.63,12.63,0,0,0-1,1.9,16.73,16.73,0,0,0-.69,2.27,9.59,9.59,0,0,0-.26,2.2,3.51,3.51,0,0,0,.23,1.22,4.45,4.45,0,0,0,.65,1.2,3.09,3.09,0,0,0,.79.75.52.52,0,0,0,.31.12,8.07,8.07,0,0,0,2.19-.35,18.52,18.52,0,0,0,2.81-1.06,27.94,27.94,0,0,0,3-1.65A30.66,30.66,0,0,0,98.76,128a28.9,28.9,0,0,0,2.58-2.28,17.65,17.65,0,0,0,1.87-2.14c.11-.19.23-.41.36-.68s.34-.72.51-1.13.34-.87.51-1.34.32-.92.45-1.35a11.46,11.46,0,0,0,.29-1.11,2.35,2.35,0,0,0,.08-.53,5.87,5.87,0,0,0-.17-1.35,9.81,9.81,0,0,0-.51-1.53,9.55,9.55,0,0,0-.77-1.41,6,6,0,0,0-.84-1l-.07-.07a7.61,7.61,0,0,1-1,1.27,4.25,4.25,0,0,1-3.1,1.21,6.93,6.93,0,0,1-1.24-.09l-.62-.13-.26-.07Z" transform="translate(-6.94 -7.19)"/><path class="cls-16" d="M102.13,104.35a9.46,9.46,0,0,1,3.1.51,10.18,10.18,0,0,1,2.77,1.45,12.13,12.13,0,0,1,2.33,2.26,13.63,13.63,0,0,1,2.48,5.15,10,10,0,0,1,.29,2.36,19.08,19.08,0,0,1-.64,5,21.38,21.38,0,0,1-1.77,4.46,24.8,24.8,0,0,1-2.61,4,33.15,33.15,0,0,1-3.22,3.47,35.24,35.24,0,0,1-3.57,2.94c-1.23.89-2.46,1.68-3.66,2.38a21.85,21.85,0,0,1-2.29,1.09,32.52,32.52,0,0,1-5.7,1.81,11.36,11.36,0,0,1-2.44.31,7.93,7.93,0,0,1-3.8-.91,8.93,8.93,0,0,1-2.92-2.48,11.69,11.69,0,0,1-1.86-3.62,14.43,14.43,0,0,1-.65-4.34,16.75,16.75,0,0,1,.13-2.19,18.39,18.39,0,0,1,.37-2,20,20,0,0,1,.58-1.92c.23-.65.5-1.32.8-2a19.73,19.73,0,0,1,1.42-2.63,31.07,31.07,0,0,1,2-2.8q1.09-1.41,2.34-2.76c.84-.91,1.68-1.75,2.53-2.55a30,30,0,0,1,2.53-2.14A16.92,16.92,0,0,1,93,107.61a9.45,9.45,0,0,1,1-.46c.39-.14.77-.27,1.16-.38s.77-.19,1.13-.26a6,6,0,0,1,.93-.09,4.72,4.72,0,0,1,2.17-1.62,7.91,7.91,0,0,1,2.69-.45m-3.19,7.71a5,5,0,0,1-.79,0,3.83,3.83,0,0,1-.45-.1l-.39-.09a3,3,0,0,0-.61,0,4.22,4.22,0,0,0-2.06.68,15.58,15.58,0,0,0-2.38,1.76,28.47,28.47,0,0,0-2.45,2.46c-.82.92-1.58,1.86-2.27,2.8s-1.32,1.86-1.86,2.74a14.56,14.56,0,0,0-1.19,2.29,20.88,20.88,0,0,0-.8,2.61,12.33,12.33,0,0,0-.32,2.77,6.16,6.16,0,0,0,.38,2.09,7.17,7.17,0,0,0,1,1.85,5.6,5.6,0,0,0,1.43,1.33,3,3,0,0,0,1.66.52,10.8,10.8,0,0,0,2.88-.44A21.53,21.53,0,0,0,93.9,134a28.75,28.75,0,0,0,3.28-1.79,34.89,34.89,0,0,0,3.14-2.23,31.84,31.84,0,0,0,2.78-2.46,19,19,0,0,0,2.19-2.54,9.78,9.78,0,0,0,.52-1c.2-.39.39-.81.58-1.27s.37-1,.56-1.46.34-1,.48-1.46.26-.91.35-1.32a5,5,0,0,0,.13-1,8.24,8.24,0,0,0-.24-1.94,13,13,0,0,0-.65-1.94,11.7,11.7,0,0,0-1-1.78,8.23,8.23,0,0,0-1.17-1.45,6.45,6.45,0,0,0-1.31-1,2.78,2.78,0,0,0-1.35-.37.71.71,0,0,0-.62.48l-.54,1a4.67,4.67,0,0,1-.79,1,1.79,1.79,0,0,1-1.33.48m3.19-12.71a13,13,0,0,0-4.38.74,9.54,9.54,0,0,0-2.83,1.6c-.35.08-.72.17-1.08.28s-1,.31-1.52.49a12.58,12.58,0,0,0-1.61.71,20.79,20.79,0,0,0-3.09,2,36.17,36.17,0,0,0-2.94,2.48c-.94.88-1.87,1.82-2.78,2.81s-1.81,2-2.61,3.08A37.25,37.25,0,0,0,77,116.73,26.06,26.06,0,0,0,75.28,120c-.37.84-.67,1.62-.94,2.35s-.53,1.61-.73,2.42a22.21,22.21,0,0,0-.64,5.37,19.35,19.35,0,0,0,.89,5.86,16.83,16.83,0,0,0,2.66,5.16A14.13,14.13,0,0,0,81,145a12.9,12.9,0,0,0,6.16,1.5,16.84,16.84,0,0,0,3.51-.42c1.09-.24,2.21-.54,3.33-.89s2.2-.76,3.24-1.2a26.7,26.7,0,0,0,2.81-1.35h0c1.34-.78,2.72-1.67,4.08-2.65A39.88,39.88,0,0,0,112,132.6a31.27,31.27,0,0,0,3.13-4.76,26.46,26.46,0,0,0,2.17-5.5,23.93,23.93,0,0,0,.82-6.26,15.26,15.26,0,0,0-.43-3.55,19.55,19.55,0,0,0-1-3,19,19,0,0,0-2.41-4,17,17,0,0,0-3.3-3.22,15.42,15.42,0,0,0-4.1-2.14,14.48,14.48,0,0,0-4.73-.78Zm-3.19,17.71a6.93,6.93,0,0,0,3.67-1,5.67,5.67,0,0,1,.2.67,3.3,3.3,0,0,1,.1.67.36.36,0,0,0,0,.1q-.09.42-.24.9c-.12.39-.26.81-.41,1.23s-.31.84-.47,1.23-.3.7-.45,1-.16.32-.21.41A15.37,15.37,0,0,1,99.58,124a30.77,30.77,0,0,1-2.37,2.1,31.11,31.11,0,0,1-2.7,1.91,25.47,25.47,0,0,1-2.72,1.49,16.17,16.17,0,0,1-2.43.93c-.27.07-.52.13-.75.17a1.61,1.61,0,0,1-.16-.35,1,1,0,0,1-.08-.36,6.91,6.91,0,0,1,.19-1.63,14.31,14.31,0,0,1,.6-2,9.54,9.54,0,0,1,.78-1.48c.47-.75,1-1.55,1.62-2.38s1.27-1.64,2-2.45a24.23,24.23,0,0,1,2-2A11.35,11.35,0,0,1,97,116.88l.29.05a8.77,8.77,0,0,0,1.67.13Z" transform="translate(-6.94 -7.19)"/><path class="cls-15" d="M155.53,145.21a5.68,5.68,0,0,1-4-1.54,8.34,8.34,0,0,1-2-3.13,15,15,0,0,1-.85-3.58,28.91,28.91,0,0,1-.22-3.58v-.83c0-.53,0-1.27.14-2.27s.2-2,.34-3.14.28-2.4.45-3.72l0-.25-.9,1.23c-.59.79-1.15,1.59-1.69,2.38L145,129.3l-.12.17,0,0-.76,1.16a5.4,5.4,0,0,1-.5.66,9.55,9.55,0,0,1-4.89,3.6l-.73.2-.71-.22a11.79,11.79,0,0,1-2.62-1.14,8.07,8.07,0,0,1-1.83-1.5,8.41,8.41,0,0,1-1.2-1.74c-.2-.39-.44-.81-.71-1.24l-.89-1.55q-.4-.69-.69-1.23c-.44-.79-.87-1.65-1.26-2.54-.07-.15-.13-.3-.2-.46l-.56,2.57c-.14.64-.25,1.16-.35,1.58l-.18.76a12.8,12.8,0,0,0-.4,3c0,.25,0,.65,0,1.18s0,1,0,1.56,0,1.13,0,1.67,0,.87,0,1.14a4.73,4.73,0,0,1-.4,1.82,6.67,6.67,0,0,1-.95,1.62,6.53,6.53,0,0,1-1.42,1.31,4.26,4.26,0,0,1-2.46.79,13.78,13.78,0,0,1-1.67-.09,5.52,5.52,0,0,1-1.82-.54,4.65,4.65,0,0,1-1.57-1.33,7.07,7.07,0,0,1-.9-1.62,4.13,4.13,0,0,1-.28-.95,6.16,6.16,0,0,1-.12-.85c0-.3,0-.68-.06-1.12s0-.88,0-1.47a7.63,7.63,0,0,1,.24-1.61c.12-.54.28-1.2.46-2s.39-1.57.62-2.45.45-1.74.69-2.59,1-3.68,1.13-4.15l.69-2.48c.23-.84.46-1.7.69-2.56l.69-2.61c.21-.8.41-1.55.59-2.27a14.45,14.45,0,0,1,.33-1.92c.09-.42.24-1,.42-1.52a10,10,0,0,1,.79-1.79,6.13,6.13,0,0,1,1.41-1.7,4.25,4.25,0,0,1,2.75-1,11.42,11.42,0,0,1,3.95.59,6.68,6.68,0,0,1,3,2.12,9,9,0,0,1,1.54,3.15c.29,1,.58,2.18.88,3.54a3.55,3.55,0,0,0,.16.56c.12.3.39,1,.39,1l0,0a40.09,40.09,0,0,0,1.85,4.62c.2.43.41.85.63,1.27q.52-.91,1-1.74a15.18,15.18,0,0,1,1.53-2c.16-.18.4-.47.74-.89l1.31-1.62,1.58-2,1.56-2,2.18-2.77.36-.43c.09-.12.21-.26.34-.41s.47-.65.83-1.13.8-1.06,1.23-1.64.87-1.17,1.28-1.7.66-.88.84-1.13a3.8,3.8,0,0,1,3.31-1.56,4.75,4.75,0,0,1,2.22.58,8.25,8.25,0,0,1,1.56,1.06,7.91,7.91,0,0,1,1.23,1.38,4,4,0,0,1,.75,2.24,3.58,3.58,0,0,1-.36,1.58c-.11.21-.23.4-.37.62a2.94,2.94,0,0,0-.19.33h0a2.79,2.79,0,0,0-.09.36c-.1.46-.2.88-.3,1.24s-.14.58-.2.85-.09.47-.12.71a5.69,5.69,0,0,0,0,.77c0,.75,0,1.49-.05,2.23s-.08,1.49-.15,2.27-.14,1.58-.23,2.42-.19,1.71-.3,2.67c-.16,1.35-.32,2.76-.47,4.26a42,42,0,0,0-.23,4.4v1.5c0,.54,0,1.12,0,1.74s0,1.28.09,1.94c0,.23,0,.46.05.69a6.89,6.89,0,0,1,1.14,1,4,4,0,0,1,1.06,2.81,4.68,4.68,0,0,1-.62,2.27,6.57,6.57,0,0,1-1.3,1.65,6.89,6.89,0,0,1-1.8,1.22A5.59,5.59,0,0,1,155.53,145.21Z" transform="translate(-6.94 -7.19)"/><path class="cls-16" d="M156.63,102.42a2.32,2.32,0,0,1,1.07.3,5.36,5.36,0,0,1,1.06.72,5.24,5.24,0,0,1,.81.91,1.56,1.56,0,0,1,.32.83,1.46,1.46,0,0,1-.07.42l-.24.39a4,4,0,0,0-.64,1.52c-.1.45-.19.83-.28,1.17s-.16.65-.22.95a9.3,9.3,0,0,0-.16.92,8.54,8.54,0,0,0-.06,1.08c0,.71,0,1.42-.05,2.12s-.08,1.42-.14,2.17-.14,1.54-.23,2.36-.18,1.7-.29,2.65q-.24,2-.48,4.29a44.17,44.17,0,0,0-.24,4.66v1.5c0,.57,0,1.18,0,1.83s0,1.32.09,2,.1,1.33.18,2a.68.68,0,0,0,.2.15,1.21,1.21,0,0,1,.25.16,6.17,6.17,0,0,1,1.24,1,1.49,1.49,0,0,1,.38,1.09,2.16,2.16,0,0,1-.31,1.06,4.17,4.17,0,0,1-.82,1,4.91,4.91,0,0,1-1.16.78,3.1,3.1,0,0,1-1.35.31,3.14,3.14,0,0,1-2.28-.86,5.7,5.7,0,0,1-1.42-2.2,12.45,12.45,0,0,1-.71-3,25.85,25.85,0,0,1-.2-3.27v-.83c0-.45,0-1.12.13-2s.19-1.94.33-3.1.28-2.39.45-3.69.34-2.57.53-3.82.35-2.4.52-3.48.31-2,.44-2.67c-.19.24-.46.58-.8,1l-1.14,1.51c-.42.55-.87,1.14-1.33,1.76s-.92,1.22-1.36,1.82l-1.24,1.68-1,1.33c-.6.82-1.18,1.64-1.73,2.45l-1.74,2.5a2.7,2.7,0,0,0-.23.31c-.1.16-.21.34-.34.53l-.38.59a3.06,3.06,0,0,1-.34.43,7.12,7.12,0,0,1-3.66,2.8,9.26,9.26,0,0,1-2.06-.88,5.38,5.38,0,0,1-1.27-1,5.51,5.51,0,0,1-.85-1.23c-.23-.44-.49-.91-.79-1.4s-.61-1-.86-1.48-.48-.84-.67-1.19c-.41-.74-.8-1.53-1.16-2.35s-.71-1.67-1-2.53-.41-1.32-.58-1.83-.32-1-.46-1.43-.29-.89-.43-1.35-.3-1-.48-1.62c0,.11-.09.38-.19.81s-.21,1-.36,1.59-.3,1.34-.47,2.12-.35,1.57-.53,2.38-.34,1.6-.51,2.37-.32,1.46-.45,2.08-.25,1.13-.34,1.54-.16.64-.17.72a14.85,14.85,0,0,0-.48,3.62c0,.24,0,.61,0,1.11s0,1,0,1.59,0,1.11,0,1.63,0,.93,0,1.22a2.5,2.5,0,0,1-.21.88,3.85,3.85,0,0,1-.6,1,4,4,0,0,1-.88.82,1.79,1.79,0,0,1-1,.34,10.66,10.66,0,0,1-1.36-.07,2.88,2.88,0,0,1-1-.29,2,2,0,0,1-.72-.61,4.26,4.26,0,0,1-.57-1.05,1.73,1.73,0,0,1-.15-.47,5.89,5.89,0,0,1-.08-.63c0-.25,0-.56-.05-.94s0-.84,0-1.41a6,6,0,0,1,.18-1.06q.18-.8.45-1.92c.18-.74.38-1.55.61-2.41s.45-1.72.68-2.55.44-1.62.64-2.36.36-1.33.49-1.79l.69-2.48c.23-.85.47-1.72.7-2.59l.69-2.61q.34-1.29.63-2.46a12.76,12.76,0,0,1,.29-1.74,13.09,13.09,0,0,1,.38-1.37,6.68,6.68,0,0,1,.58-1.33,3.77,3.77,0,0,1,.83-1,1.77,1.77,0,0,1,1.16-.41,9.22,9.22,0,0,1,3.08.43,4.13,4.13,0,0,1,1.85,1.32,6.66,6.66,0,0,1,1.11,2.3c.27.94.55,2.06.83,3.38a6.11,6.11,0,0,0,.29,1l.36.92a42.34,42.34,0,0,0,4.64,9.73,5.42,5.42,0,0,0,1.13-1.27c.34-.51.72-1.15,1.13-1.89s.73-1.27,1.11-1.85a12.3,12.3,0,0,1,1.27-1.65c.17-.19.45-.52.83-1l1.32-1.64,1.58-2,1.58-2,1.3-1.67c.39-.48.66-.83.81-1s.31-.36.41-.48a5.18,5.18,0,0,1,.36-.42c.17-.25.46-.64.85-1.17s.82-1.07,1.25-1.66l1.26-1.68q.61-.8.9-1.2a1.39,1.39,0,0,1,1.26-.5m0-5a6.34,6.34,0,0,0-5.37,2.65l-.77,1-1.29,1.72L148,104.44l-.81,1.09-.33.39c-.07.1-.18.22-.31.38l-.08.09-.07.1-.77,1-1.32,1.67c-.48.62-1,1.27-1.55,2l-1.58,2c-.48.61-.91,1.15-1.29,1.61s-.61.73-.64.76l-.29.33c-.19-.53-.38-1.05-.55-1.57l0-.12,0-.11-.39-1s0-.06,0-.17c-.31-1.42-.61-2.66-.91-3.7a11.85,11.85,0,0,0-2-4,9,9,0,0,0-4.05-2.91,13.75,13.75,0,0,0-4.82-.75,6.72,6.72,0,0,0-4.35,1.56,8.72,8.72,0,0,0-2,2.39,13,13,0,0,0-1,2.24c-.19.61-.36,1.2-.49,1.77a18.32,18.32,0,0,0-.35,2c-.16.66-.34,1.36-.53,2.09s-.47,1.74-.7,2.62-.45,1.69-.68,2.53l-.69,2.46-.5,1.85c-.2.72-.41,1.5-.63,2.32s-.48,1.74-.71,2.64-.43,1.7-.62,2.47-.35,1.45-.47,2a9.42,9.42,0,0,0-.3,2.16c0,.61,0,1.12,0,1.52s0,.93.07,1.3.09.79.15,1.11a7,7,0,0,0,.45,1.46,9.41,9.41,0,0,0,1.21,2.15,7.18,7.18,0,0,0,2.4,2,8,8,0,0,0,2.66.8,14.93,14.93,0,0,0,2,.11,6.87,6.87,0,0,0,3.89-1.23,9.17,9.17,0,0,0,3.26-4,7.2,7.2,0,0,0,.58-2.76c0-.25,0-.61,0-1.07s0-1.12,0-1.71,0-1,0-1.5,0-1,0-1.27,0-.41,0-.63c.18.31.35.61.49.89a11.46,11.46,0,0,0,1.56,2.25,10.56,10.56,0,0,0,2.38,2,13.49,13.49,0,0,0,3.18,1.39l1.43.45,1.44-.41a11.82,11.82,0,0,0,6.15-4.42q.18-.21.36-.45v.92a33.93,33.93,0,0,0,.23,3.88,17.8,17.8,0,0,0,1,4.17,10.81,10.81,0,0,0,2.65,4,8.12,8.12,0,0,0,5.72,2.23,8,8,0,0,0,3.48-.79,9.44,9.44,0,0,0,2.43-1.64,9.1,9.1,0,0,0,1.8-2.29,7,7,0,0,0,.93-3.47,6.49,6.49,0,0,0-1.73-4.52,6.85,6.85,0,0,0-.55-.52c0-.49,0-1-.06-1.45s0-1.13,0-1.65v-1.5a39.83,39.83,0,0,1,.21-4.14c.16-1.48.32-2.89.47-4.22.12-1,.22-1.87.31-2.7s.17-1.68.23-2.47.12-1.63.16-2.37.05-1.57.05-2.35c0-.27,0-.41,0-.44a4.18,4.18,0,0,1,.09-.53c0-.22.1-.46.17-.71s.2-.81.3-1.28c.14-.22.28-.46.41-.69l0,0v0a5.82,5.82,0,0,0,.64-2.61v-.13a6.45,6.45,0,0,0-1.18-3.63,9.66,9.66,0,0,0-1.65-1.86A10.66,10.66,0,0,0,160,98.28a7.31,7.31,0,0,0-3.38-.86Z" transform="translate(-6.94 -7.19)"/><path class="cls-15" d="M170.53,143.78a7.51,7.51,0,0,1-2.25-.31A4.77,4.77,0,0,1,166,142a5.87,5.87,0,0,1-1.16-2.36,11,11,0,0,1-.3-2.8,13.21,13.21,0,0,1,.33-2.81c.17-.81.37-1.79.59-2.92s.45-2.19.66-3.12.39-1.8.58-2.66.33-1.68.48-2.52.24-1.65.31-2.57l0-.15c0-.09,0-.31,0-.65l.24-3.39c0-.67.1-1.31.15-1.91s.08-1,.1-1.46,0-.58,0-.69l0-.1A5.54,5.54,0,0,1,168,111a6.53,6.53,0,0,1,.31-1.94,8.37,8.37,0,0,1,.9-1.93,4.84,4.84,0,0,1,1.42-1.45,11,11,0,0,1,1.46-.87,10.81,10.81,0,0,1,1.64-.66,6.29,6.29,0,0,1,1.81-.29,7.54,7.54,0,0,1,1.24.13c.4.06.81.14,1.23.22s.75.15,1.1.2a2,2,0,0,0,.41.06h.06l1.44,0,2,0c1.34,0,2.7-.05,4.05-.15s2.71-.26,4.1-.48a13.18,13.18,0,0,0,1.5-.35l1.68-.52c.62-.18,1.24-.35,1.86-.48a11.3,11.3,0,0,1,2.28-.23,4.66,4.66,0,0,1,1.93.42,5.64,5.64,0,0,1,2.59,2.39,4.19,4.19,0,0,1,.55,2.09,4.34,4.34,0,0,1-.26,1.43,6.8,6.8,0,0,1-.54,1.22A8.2,8.2,0,0,1,202,111a4.28,4.28,0,0,1-1.47,1.17,8.43,8.43,0,0,1-1.66.61c-.42.1-.92.21-1.52.33-1.51.3-3,.55-4.43.74s-2.79.35-4.07.48-2.46.2-3.53.25-2,.08-2.74.08h-3.82c0,.59-.07,1.18-.11,1.79s-.06,1-.09,1.54H179c.72,0,1.44,0,2.14-.08s1.37-.1,1.86-.15c.22,0,.67-.06,1.28-.1l1.68-.12c.58,0,1.15-.09,1.7-.16a7.2,7.2,0,0,0,.87-.12l.74-.31a10.51,10.51,0,0,1,1.08-.36,9.12,9.12,0,0,1,1.18-.23,11,11,0,0,1,1.18-.06,4.58,4.58,0,0,1,2.33.59,4.28,4.28,0,0,1,1.58,1.58,5.56,5.56,0,0,1,.62,1.77,8.37,8.37,0,0,1,.14,1.53,4.21,4.21,0,0,1-1,2.81,5.74,5.74,0,0,1-1.7,1.33,7.59,7.59,0,0,1-1.76.66l-1.16.27A15,15,0,0,1,190,127l-2.42.21c-.92.07-1.89.14-2.91.2s-2,.12-2.92.16l-2.41.11-1.62,0a4.7,4.7,0,0,0-.54,0c0,.23-.07.46-.1.69-.12,1-.3,2-.54,3-.05.25-.11.54-.18.83l.74-.06,1.29-.12,5.12-.45c.62-.05,1.19-.11,1.72-.17s1.08-.14,1.69-.23l1.32-.15,1.42-.16c.48-.05,1-.11,1.43-.18a8.46,8.46,0,0,0,1.07-.21,4.22,4.22,0,0,0,.5-.16l.89-.33a10.45,10.45,0,0,1,1.09-.32,6.77,6.77,0,0,1,1.41-.16,4.71,4.71,0,0,1,2,.45,5.18,5.18,0,0,1,1.59,1.15,5.4,5.4,0,0,1,1.07,1.7,5.58,5.58,0,0,1,.4,2.08,3.67,3.67,0,0,1-.57,1.86,6.34,6.34,0,0,1-1,1.3,7.56,7.56,0,0,1-1.41,1.1,5.89,5.89,0,0,1-2,.77c-1.44.28-2.93.5-4.41.66s-2.93.33-4.6.55l-3.7.44c-1.21.14-2.34.27-3.37.41l-2.76.35c-.9.12-1.36.2-1.58.25a7,7,0,0,0-1,.23l-1.3.35c-.47.13-.91.23-1.33.32a7.88,7.88,0,0,1-1.54.17Z" transform="translate(-6.94 -7.19)"/><path class="cls-16" d="M198.51,104.8a2.26,2.26,0,0,1,.91.2,3.19,3.19,0,0,1,1.43,1.32,1.89,1.89,0,0,1,.23.88,2,2,0,0,1-.13.63,4.23,4.23,0,0,1-.35.8,4.36,4.36,0,0,1-.52.75,1.75,1.75,0,0,1-.59.49,6.33,6.33,0,0,1-1.2.45c-.39.1-.86.2-1.42.31-1.46.28-2.89.52-4.28.71s-2.72.35-4,.47-2.39.2-3.42.25-1.9.07-2.62.07h-4.92c-.43,0-.85,0-1.24,0-.05.52-.09,1.16-.13,1.9s-.09,1.51-.13,2.29-.1,1.53-.15,2.25a17.4,17.4,0,0,1-.19,1.82c.43,0,.94.08,1.51.09l1.68,0c.78,0,1.55,0,2.32-.09s1.41-.1,1.92-.15l1.19-.1,1.72-.11,1.79-.17a11.24,11.24,0,0,0,1.37-.21c.31-.15.61-.27.89-.39A7.68,7.68,0,0,1,191,119a5.27,5.27,0,0,1,.81-.15,6.28,6.28,0,0,1,.89,0,2,2,0,0,1,1.07.25,1.8,1.8,0,0,1,.67.67,2.74,2.74,0,0,1,.33,1,5.63,5.63,0,0,1,.1,1.1,1.68,1.68,0,0,1-.4,1.17,3.27,3.27,0,0,1-1,.75,5.1,5.1,0,0,1-1.2.45l-1.08.25a12.22,12.22,0,0,1-1.44.19c-.69.07-1.49.13-2.4.2s-1.86.14-2.86.21l-2.87.15-2.42.11-1.51,0a8.23,8.23,0,0,0-1.36.11c-.41.08-.84.19-1.3.31a21.09,21.09,0,0,0-.46,2.48,25.16,25.16,0,0,1-.5,2.78c-.08.38-.16.77-.25,1.17s-.16.77-.23,1.13-.13.69-.18,1-.08.55-.1.74l1.16,0c.43,0,.89,0,1.36-.07l1.44-.11c.49,0,.95-.08,1.37-.13l2.89-.25,2.17-.19c.64,0,1.24-.11,1.78-.18s1.14-.14,1.78-.23l1.2-.15,1.45-.15,1.5-.19a9.72,9.72,0,0,0,1.37-.28,4.92,4.92,0,0,0,.77-.25l.8-.29a5.91,5.91,0,0,1,.82-.24,4,4,0,0,1,.85-.1,2.32,2.32,0,0,1,1,.22,2.64,2.64,0,0,1,.82.59,2.86,2.86,0,0,1,.57.92,2.94,2.94,0,0,1,.22,1.15,1.37,1.37,0,0,1-.23.61,4.19,4.19,0,0,1-.62.79,4.75,4.75,0,0,1-.94.72,3.49,3.49,0,0,1-1.19.45c-1.39.27-2.8.48-4.21.63s-3,.34-4.67.56l-3.66.43c-1.22.14-2.36.28-3.4.42L177,140c-.8.1-1.38.19-1.77.27a10,10,0,0,0-1.16.27l-1.25.35c-.42.11-.82.2-1.2.28a5,5,0,0,1-1,.12h0a4.87,4.87,0,0,1-1.5-.2,2.18,2.18,0,0,1-1.07-.71,3.42,3.42,0,0,1-.66-1.38,8.93,8.93,0,0,1-.22-2.18,10.81,10.81,0,0,1,.27-2.27c.18-.84.38-1.83.61-3s.43-2.13.64-3.05.4-1.81.58-2.69.35-1.74.5-2.6.27-1.8.35-2.8c0-.11,0-.38.07-.81s.07-.93.11-1.52.08-1.22.13-1.88.09-1.29.14-1.88.08-1.1.11-1.53,0-.7,0-.83a2.41,2.41,0,0,0-.05-.47,3.62,3.62,0,0,1,0-.5,4,4,0,0,1,.2-1.21,5.55,5.55,0,0,1,.63-1.34,2.56,2.56,0,0,1,.74-.73,9,9,0,0,1,1.14-.67,6.94,6.94,0,0,1,1.25-.5,3.72,3.72,0,0,1,1.08-.19,5.65,5.65,0,0,1,.82.09l1.17.21,1.15.22a5.64,5.64,0,0,0,.79.09l1.49,0,2,0q2.1,0,4.23-.15t4.32-.51a17.59,17.59,0,0,0,1.83-.43l1.68-.51c.55-.17,1.1-.31,1.65-.43a8.4,8.4,0,0,1,1.76-.18m0-5a13.57,13.57,0,0,0-2.8.29c-.69.14-1.38.32-2.07.53l-1.18.36-.5.15a9.35,9.35,0,0,1-1.21.29c-1.28.2-2.58.36-3.84.45s-2.59.14-3.87.14l-1.92,0-1.42,0-.12,0-1.06-.19-1.29-.24a10.29,10.29,0,0,0-1.66-.16,8.74,8.74,0,0,0-2.53.4,13.53,13.53,0,0,0-2,.81,15.12,15.12,0,0,0-1.79,1.07,7.43,7.43,0,0,0-2.11,2.2,10.44,10.44,0,0,0-1.15,2.48,9.12,9.12,0,0,0-.42,2.68,7.82,7.82,0,0,0,.08,1.14c0,.1,0,.23,0,.39,0,.39-.05.86-.1,1.4s-.09,1.24-.14,1.93-.09,1.3-.13,1.9-.08,1.07-.11,1.49c0,.23,0,.41,0,.52l0,.1V120c-.06.83-.16,1.62-.28,2.33s-.3,1.62-.47,2.44-.37,1.72-.57,2.61-.44,2-.67,3.17-.41,2.11-.59,2.89a16.31,16.31,0,0,0-.38,3.35,13.57,13.57,0,0,0,.38,3.43,8.49,8.49,0,0,0,1.66,3.33,7.24,7.24,0,0,0,3.4,2.28,10.45,10.45,0,0,0,5.1.21c.48-.1,1-.22,1.46-.35l1.35-.37c.24-.07.46-.12.65-.16h.07l.08,0c.12,0,.49-.09,1.39-.21l2.75-.35,3.35-.41,1.8-.21,1.87-.22h.06c1.66-.21,3.19-.4,4.55-.54,1.55-.17,3.11-.4,4.63-.7a8.28,8.28,0,0,0,2.84-1.09,9.91,9.91,0,0,0,1.88-1.46,8.82,8.82,0,0,0,1.41-1.82,6.13,6.13,0,0,0,.9-3.11,8.26,8.26,0,0,0-.57-3,8.05,8.05,0,0,0-1.57-2.48,7.68,7.68,0,0,0-2.37-1.71,7.25,7.25,0,0,0-2-.59,8.26,8.26,0,0,0,1.09-1,6.68,6.68,0,0,0,1.62-4.45,10.83,10.83,0,0,0-.18-2,7.8,7.8,0,0,0-.91-2.54,6.93,6.93,0,0,0-1.28-1.62l.3,0,1.64-.36a10.78,10.78,0,0,0,2.21-.82,6.76,6.76,0,0,0,2.26-1.79,9.89,9.89,0,0,0,1-1.5,10.06,10.06,0,0,0,.74-1.66,6.69,6.69,0,0,0-.49-5.52,7.94,7.94,0,0,0-1.54-2,8.12,8.12,0,0,0-2.21-1.47,7.06,7.06,0,0,0-3-.64Z" transform="translate(-6.94 -7.19)"/><path class="cls-15" d="M236.52,145.09a4.51,4.51,0,0,1-1.61-.34,15.27,15.27,0,0,1-1.42-.6c-.49-.23-1-.5-1.57-.8s-1.08-.59-1.6-.9-1-.63-1.51-.93-.93-.63-1.29-.92l-.88-.68-1.46-1.13-1.49-1.17-1.09-.83c-.76-.58-1.51-1.18-2.24-1.8l-2.07-1.74c-.67-.56-1.36-1.1-2-1.63-.47-.36-.95-.7-1.44-1l-.83-.08h0c0,.79-.07,1.49-.09,2.08s0,1,0,1.16.12,1.83.15,2.23.11,1.8.13,2.08,0,.57,0,.69a4.79,4.79,0,0,1-1.67,4,5.9,5.9,0,0,1-3.78,1.09,4.89,4.89,0,0,1-1.28-.2,5.33,5.33,0,0,1-1.7-.82,5.45,5.45,0,0,1-1.49-1.66,5.33,5.33,0,0,1-.7-2.79,7.79,7.79,0,0,1,.06-1.06v0c0-.38-.1-.78-.12-1.19s-.06-.94-.08-1.39,0-.9,0-1.31v-1q0-.15.06-1l.12-1.82c0-.76.11-1.6.19-2.54l.24-2.74c.08-.94.17-1.85.27-2.71s.2-1.64.3-2.28c.07-.41.15-.89.26-1.45l.34-1.72.35-1.76c.13-.61.24-1.16.35-1.66.06-.3.12-.57.16-.81l0-.09a7.91,7.91,0,0,1-.53-1,4,4,0,0,1-.39-1.68,4.3,4.3,0,0,1,.88-2.66A5.41,5.41,0,0,1,207.5,105a6.94,6.94,0,0,1,1.71-.73,6.28,6.28,0,0,1,1.61-.24l.7,0,.68.07.41,0,1.81-.3c.84-.15,1.71-.29,2.62-.43s1.86-.26,2.81-.36,2-.16,2.84-.16a13,13,0,0,1,3,.4,18.11,18.11,0,0,1,3.13,1.07,20.68,20.68,0,0,1,3,1.67,14.79,14.79,0,0,1,2.72,2.29,11.58,11.58,0,0,1,2,2.92,8.43,8.43,0,0,1,.85,3.7,7.25,7.25,0,0,1-1,3.66,14.41,14.41,0,0,1-2.21,2.85,24,24,0,0,1-2.78,2.39,31.36,31.36,0,0,1-3,2c-.67.39-1.32.75-1.94,1.06l2.33,1.7,2.25,1.64,2.08,1.52c.47.33,1,.66,1.4.93s.91.53,1.37.76l1.54.78c.57.29,1.17.61,1.79,1a5.42,5.42,0,0,1,1.45,1.11,5.06,5.06,0,0,1,.9,1.3,4.66,4.66,0,0,1,.41,1.49c0,.33,0,.65,0,1a4,4,0,0,1-.73,2.25,6.25,6.25,0,0,1-1.24,1.34,6.69,6.69,0,0,1-1.55,1A5,5,0,0,1,236.52,145.09Zm-20.28-24.82a6.29,6.29,0,0,1,.82,0c.26,0,.52.08.77.13l.22,0,.12,0c.34-.11.73-.26,1.17-.44s1-.44,1.59-.7,1.11-.53,1.64-.82,1-.56,1.46-.85a9.32,9.32,0,0,0,1-.71l.6-.54a8,8,0,0,0,.65-.65,4.83,4.83,0,0,0,.43-.58.41.41,0,0,0,0-.09,2.43,2.43,0,0,0-.5-.63,4.68,4.68,0,0,0-.9-.64,8.33,8.33,0,0,0-1.21-.58,6.46,6.46,0,0,0-1.06-.34,2.58,2.58,0,0,0-.52-.09c-.34,0-.75,0-1.24,0l-1.63.12-1.76.19-1.6.21-.37.06c0,.19-.31,1.67-.31,1.67-.07.37-.14.79-.21,1.27l0,.12c0,.2-.09.5-.15.87l-.21,1.44c-.08.51-.16,1-.24,1.61v0A6.5,6.5,0,0,1,216.24,120.27Z" transform="translate(-6.94 -7.19)"/><path class="cls-16" d="M222.69,105.46a10.31,10.31,0,0,1,2.46.33,15.48,15.48,0,0,1,2.68.92,18.68,18.68,0,0,1,2.65,1.47,13.27,13.27,0,0,1,2.27,1.91,9.16,9.16,0,0,1,1.58,2.3,6,6,0,0,1,.6,2.62,4.77,4.77,0,0,1-.71,2.4,11.37,11.37,0,0,1-1.82,2.35,21.82,21.82,0,0,1-2.48,2.14,29.62,29.62,0,0,1-2.73,1.79c-.9.53-1.74,1-2.52,1.34a13.73,13.73,0,0,1-1.86.74l-.29.08L222,126l-.48.13-.26.06s.22.18.57.44l1.37,1,1.92,1.41,2.21,1.61,2.26,1.65,2,1.5c.55.39,1.08.75,1.59,1.06s1,.59,1.54.85l1.56.79c.52.26,1.07.56,1.64.89a3.64,3.64,0,0,1,.88.64,2.68,2.68,0,0,1,.46.67,1.87,1.87,0,0,1,.19.69,5.63,5.63,0,0,1,0,.71,1.54,1.54,0,0,1-.3.85,4.06,4.06,0,0,1-.75.81,4.51,4.51,0,0,1-1,.6,2.44,2.44,0,0,1-1,.24,2.46,2.46,0,0,1-.76-.19q-.52-.19-1.2-.51c-.45-.21-.94-.46-1.45-.74s-1-.56-1.53-.86-1-.58-1.4-.86-.81-.55-1.11-.79l-.9-.7c-.45-.34-.93-.71-1.44-1.12l-1.51-1.18-1.12-.85c-.72-.54-1.42-1.11-2.12-1.71l-2.09-1.76c-.7-.58-1.41-1.14-2.12-1.69a25.51,25.51,0,0,0-2.22-1.51l0,0h-.17a7,7,0,0,1-1-.07,2.36,2.36,0,0,1-.92-.33,2,2,0,0,1-.66-.75,2.84,2.84,0,0,1-.27-1.35,2.12,2.12,0,0,1,.32-1.13,3.33,3.33,0,0,1,.86-.9,4.11,4.11,0,0,1,1.22-.61,4.54,4.54,0,0,1,1.36-.21l.5,0,.56.1.5.09a1.85,1.85,0,0,0,.35,0,3.09,3.09,0,0,0,.8-.19c.38-.13.84-.3,1.35-.51s1.08-.46,1.68-.74,1.19-.57,1.77-.88,1.13-.63,1.63-.95a10.93,10.93,0,0,0,1.26-.92l.65-.57a8.82,8.82,0,0,0,.85-.87,5.84,5.84,0,0,0,.75-1,2,2,0,0,0,.32-1,2.9,2.9,0,0,0-.38-1.47,5,5,0,0,0-1-1.23,6.85,6.85,0,0,0-1.37-1,12.24,12.24,0,0,0-1.51-.73,9.58,9.58,0,0,0-1.42-.45,5.17,5.17,0,0,0-1.09-.15c-.38,0-.84,0-1.38,0l-1.72.13c-.6.06-1.21.12-1.82.2s-1.17.14-1.69.22-1,.16-1.33.25a3.41,3.41,0,0,0-.77.25c-.1.4-.18.77-.25,1.11s-.14.68-.21,1-.13.72-.2,1.11-.15.84-.22,1.34c-.05.24-.11.58-.17,1s-.14.91-.22,1.43-.15,1.07-.23,1.64-.16,1.13-.23,1.67-.13,1-.18,1.49-.08.82-.09,1.1q-.08,1.29-.15,2.85c0,1-.09,2-.14,3s-.08,1.73-.11,2.4,0,1.09,0,1.25,0,.17,0,.41,0,.52.06.87,0,.71.07,1.1.05.78.07,1.13.05.67.06.94,0,.46,0,.55a2.44,2.44,0,0,1-.72,2,3.55,3.55,0,0,1-2.23.56,3.36,3.36,0,0,1-.64-.11,2.77,2.77,0,0,1-.89-.45,2.81,2.81,0,0,1-.79-.9,2.93,2.93,0,0,1-.35-1.51,5.28,5.28,0,0,1,0-.75c0-.2,0-.36,0-.49-.06-.38-.11-.79-.14-1.24s-.06-.88-.07-1.3,0-.84,0-1.22v-1c0-.08,0-.37,0-.85s.07-1.09.12-1.83.11-1.56.19-2.48l.24-2.75c.08-.92.17-1.8.26-2.64s.19-1.56.29-2.16c.06-.38.14-.84.25-1.38s.21-1.11.33-1.69l.36-1.78c.11-.59.23-1.13.33-1.61s.19-.89.25-1.22.1-.52.1-.58a1.08,1.08,0,0,0-.17-.34l-.38-.6a5,5,0,0,1-.38-.72,1.61,1.61,0,0,1-.17-.65,1.82,1.82,0,0,1,.37-1.15,3,3,0,0,1,.89-.8,4.62,4.62,0,0,1,1.1-.47,3.82,3.82,0,0,1,.95-.15l.5,0,.56.06.51.06.33,0,2.13-.36,2.56-.42c.89-.13,1.79-.25,2.7-.34a23.67,23.67,0,0,1,2.58-.15m0-5a30.79,30.79,0,0,0-3.1.17c-1,.11-2,.23-2.93.38s-1.82.28-2.67.43l-1.44.25h0l-.79-.08c-.34,0-.64,0-.92,0a8.7,8.7,0,0,0-2.26.33,9.52,9.52,0,0,0-2.33,1,8.06,8.06,0,0,0-2.34,2.09,6.87,6.87,0,0,0-1.38,4.17,6.67,6.67,0,0,0,.61,2.72l.22.46c-.1.47-.2,1-.32,1.56s-.23,1.18-.35,1.76-.24,1.19-.34,1.74-.21,1.09-.28,1.5c-.11.72-.21,1.5-.32,2.43s-.19,1.84-.27,2.78l-.15,1.76-.09,1c-.08,1-.15,1.81-.2,2.58l0,.64-.08,1.19c-.05.82-.06,1-.06,1.18v1c0,.44,0,.91,0,1.4s0,1,.08,1.49c0,.35.06.7.1,1s0,.68,0,1.07a7.78,7.78,0,0,0,3.24,6.49,7.75,7.75,0,0,0,2.48,1.19,7.49,7.49,0,0,0,2,.29,8.41,8.41,0,0,0,5.32-1.62,7.18,7.18,0,0,0,2.63-6c0-.15,0-.42,0-.84s0-.61-.07-1,0-.7-.07-1.08,0-.63-.05-.92l.28.24,2.05,1.72c.76.65,1.55,1.29,2.34,1.88l1.08.83,1.48,1.16c.53.41,1,.79,1.48,1.15s.68.51.82.63c.45.36.94.7,1.51,1.07s1,.66,1.6,1,1.13.65,1.69.95,1.15.6,1.68.85,1.13.51,1.63.69a7.06,7.06,0,0,0,2.47.49,7.51,7.51,0,0,0,3-.66,9.85,9.85,0,0,0,2.12-1.31,9,9,0,0,0,1.73-1.88,6.49,6.49,0,0,0,1.16-3.65c0-.41,0-.82-.06-1.22a7.65,7.65,0,0,0-.63-2.29,7.9,7.9,0,0,0-1.34-2,8.14,8.14,0,0,0-2.08-1.58c-.64-.38-1.27-.72-1.87-1l-1.53-.78q-.6-.3-1.2-.66c-.39-.24-.81-.52-1.25-.84l-2.06-1.5-1.47-1.07c.6-.39,1.21-.81,1.81-1.25a26.34,26.34,0,0,0,3.07-2.65,16.52,16.52,0,0,0,2.59-3.36,9.7,9.7,0,0,0,1.38-4.9,11,11,0,0,0-1.09-4.79,14.68,14.68,0,0,0-2.43-3.54,18.17,18.17,0,0,0-3.16-2.66,22,22,0,0,0-3.38-1.87,19.64,19.64,0,0,0-3.55-1.22,15.4,15.4,0,0,0-3.63-.47ZM218,115.65l.13,0,1.7-.18c.55,0,1.06-.09,1.55-.11s.68,0,.94,0l.11,0a3.25,3.25,0,0,1,.42.13l-.15.1q-.6.38-1.29.75c-.5.26-1,.51-1.51.75s-1,.47-1.51.66l-.51.21-.25,0,0-.16c.05-.32.09-.57.13-.75l0-.11,0-.12c.06-.4.12-.77.18-1.09Z" transform="translate(-6.94 -7.19)"/><path class="cls-15" d="M254.23,144.23a4.51,4.51,0,0,1-2.39-.68,5.83,5.83,0,0,1-1.49-1.31,6.1,6.1,0,0,1-.95-1.58,4.89,4.89,0,0,1-.41-1.9c0-.31,0-.74,0-1.29s.08-1,.14-1.65.11-1.17.16-1.81.12-1.3.19-1.92c0,0,.28-2.59.31-2.9.15-1.54.27-2.81.35-3.82s.11-1.6.11-2a16.88,16.88,0,0,1-1.72-1.39c-.77-.72-1.52-1.47-2.22-2.24l-1.63-1.87-1-1.16c-.33-.4-.63-.76-.89-1.09l-.62-.77c-.1-.13-.22-.28-.35-.47-.47-.55-.92-1-1.36-1.52s-1-1.09-1.42-1.55-.8-1-1.09-1.37a3.86,3.86,0,0,1-.82-2.26,4,4,0,0,1,.87-2.4,6.08,6.08,0,0,1,2-1.68,6.64,6.64,0,0,1,2.08-.78,9.23,9.23,0,0,1,1.3-.11,5.29,5.29,0,0,1,2.57.68,10.19,10.19,0,0,1,2,1.5,23.13,23.13,0,0,1,1.91,2.1c.63.76,1.35,1.65,2.15,2.66,1.29,1.63,2.41,2.94,3.34,3.9.37-.54.8-1.14,1.27-1.8l1.65-2.3c.56-.79,1.11-1.56,1.66-2.3l1.42-2q.57-.82,1-1.35v0l.5-.67,1.15-1.55c.39-.53.78-1.07,1.18-1.65l.57-.85a5.7,5.7,0,0,1,1-1.16,4.68,4.68,0,0,1,1.5-.85,5.22,5.22,0,0,1,1.72-.27,6.13,6.13,0,0,1,3,.71A4.53,4.53,0,0,1,274.75,99a4.2,4.2,0,0,1,.73,2.35,6.93,6.93,0,0,1-.07.83c-.05.32-.11.61-.18.88l-.05.17-.07.17a19.93,19.93,0,0,1-2,3.39c-.78,1.1-1.65,2.26-2.58,3.42s-1.88,2.33-2.86,3.52-1.81,2.27-2.61,3.36c-.29.41-.56.81-.81,1.21s-.65,1-1.1,1.76L262,121.9q-.36.6-.75,1.17l-.27.4c-.11,1.82-.2,3.67-.29,5.56q-.14,3.24-.33,6.66c-.08,1.16-.14,2.07-.17,2.74a8.89,8.89,0,0,1-.18,1.78,4.85,4.85,0,0,1-2.39,3.19A7,7,0,0,1,254.23,144.23Z" transform="translate(-6.94 -7.19)"/><path class="cls-16" d="M270,99.23a3.63,3.63,0,0,1,1.78.4,2.18,2.18,0,0,1,.88.75,1.69,1.69,0,0,1,.31,1,2.56,2.56,0,0,1-.05.46c0,.22-.07.41-.11.58a17.65,17.65,0,0,1-1.73,3c-.75,1.06-1.59,2.16-2.5,3.3s-1.86,2.31-2.83,3.49-1.88,2.34-2.7,3.49c-.34.46-.64.91-.92,1.37l-1.08,1.72c-.13.21-.29.48-.5.81l-.66,1.06c-.23.37-.46.74-.7,1.09s-.45.67-.64.92q-.19,3.09-.33,6.32t-.34,6.63c-.08,1.16-.13,2.08-.16,2.77a7.8,7.8,0,0,1-.12,1.3,2.32,2.32,0,0,1-1.18,1.59,4.45,4.45,0,0,1-2.2.52,2,2,0,0,1-1.07-.3,3.21,3.21,0,0,1-.87-.77,3.67,3.67,0,0,1-.58-1,2.32,2.32,0,0,1-.22-.94c0-.27,0-.64,0-1.12s.07-1,.13-1.58.11-1.19.17-1.83.11-1.27.18-1.87.12-1.16.17-1.68.1-.93.13-1.25q.24-2.33.36-3.87c.08-1,.12-1.79.12-2.29a4.15,4.15,0,0,0-.07-.79,3.8,3.8,0,0,0-.19-.67,13,13,0,0,1-2.26-1.7c-.73-.67-1.42-1.37-2.07-2.08l-.69-.8-.91-1-1-1.12c-.32-.38-.6-.73-.86-1s-.46-.57-.61-.77a1.23,1.23,0,0,1-.24-.35c-.56-.65-1.09-1.25-1.61-1.79s-1-1.05-1.36-1.49a13.73,13.73,0,0,1-.94-1.17,1.57,1.57,0,0,1-.35-.81,1.54,1.54,0,0,1,.38-.91,3.84,3.84,0,0,1,1.23-1,4.32,4.32,0,0,1,1.27-.49,6.6,6.6,0,0,1,.9-.08,2.76,2.76,0,0,1,1.36.37,7.1,7.1,0,0,1,1.45,1.12,21.22,21.22,0,0,1,1.71,1.88c.62.75,1.33,1.63,2.12,2.63,1.4,1.76,2.6,3.15,3.61,4.19a7.12,7.12,0,0,0,2.29,1.8s.07-.2.31-.57l1-1.43,1.41-2c.54-.75,1.08-1.52,1.65-2.3l1.65-2.3q.81-1.11,1.44-2l1-1.44a4.93,4.93,0,0,0,.4-.57c.38-.51.77-1,1.16-1.57s.8-1.1,1.22-1.69l.59-.89a3.77,3.77,0,0,1,.57-.66,2.36,2.36,0,0,1,.69-.39,2.77,2.77,0,0,1,.91-.13m0-5a7.71,7.71,0,0,0-2.53.4,7.23,7.23,0,0,0-2.29,1.3,8.5,8.5,0,0,0-1.51,1.71l-.32.48-.24.35c-.38.54-.75,1.06-1.12,1.56l-1.13,1.53-1,1.33V103c-.16.21-.32.45-.5.71l-1.41,2L256.29,108c-.37.53-.74,1-1.1,1.54-.37-.44-.75-.92-1.16-1.43-.82-1-1.54-1.93-2.17-2.7a28.21,28.21,0,0,0-2.13-2.32,12.13,12.13,0,0,0-2.48-1.87,7.67,7.67,0,0,0-3.78-1,11.52,11.52,0,0,0-1.68.14,9,9,0,0,0-2.89,1.05,8.6,8.6,0,0,0-2.84,2.38,6.46,6.46,0,0,0-1.37,3.9,6.29,6.29,0,0,0,1.29,3.72,18.49,18.49,0,0,0,1.25,1.56c.43.49.93,1,1.47,1.62.37.39.77.84,1.19,1.32.16.22.3.4.41.53l.6.76.92,1.12q.51.61,1,1.2l.92,1,.63.74.06.06.06.07c.75.82,1.55,1.62,2.38,2.39.28.26.56.51.85.74,0,.2,0,.41,0,.65-.08,1-.2,2.24-.35,3.74,0,.33-.07.73-.13,1.22s-.11,1.09-.18,1.7-.13,1.28-.19,1.95-.1,1.23-.16,1.8-.11,1.2-.14,1.72-.06,1.06-.06,1.45a7.39,7.39,0,0,0,.6,2.87,8.91,8.91,0,0,0,1.33,2.2,8.61,8.61,0,0,0,2.1,1.84,7,7,0,0,0,3.71,1.06,9.38,9.38,0,0,0,4.63-1.15,7.33,7.33,0,0,0,3.61-4.78,12.15,12.15,0,0,0,.25-2.25c0-.67.09-1.55.16-2.66v-.07c.12-2.3.24-4.55.33-6.68.08-1.65.16-3.27.25-4.84l.69-1.08.33-.55.32-.51.49-.78c.45-.71.82-1.3,1.1-1.76s.45-.7.71-1.06c.76-1.06,1.6-2.14,2.5-3.23s2-2.42,2.89-3.55,1.86-2.4,2.67-3.54a21,21,0,0,0,2.22-3.84l.15-.33.1-.35a9.9,9.9,0,0,0,.24-1.16,8.17,8.17,0,0,0,.1-1.21,6.74,6.74,0,0,0-1.14-3.74,7.24,7.24,0,0,0-2.73-2.41,8.68,8.68,0,0,0-4.1-1Z" transform="translate(-6.94 -7.19)"/><path class="cls-15" d="M95.89,207.2a6,6,0,0,1-2.16-.41,6.3,6.3,0,0,1-1.85-1.1A5.87,5.87,0,0,1,90.49,204a5.1,5.1,0,0,1-.6-2.44,5.63,5.63,0,0,1,.18-1.2l.3-1.3c.06-.25.12-.5.19-.77-.66.31-1.33.59-2,.85a29.91,29.91,0,0,1-4,1.23,18.48,18.48,0,0,1-4,.48,14.07,14.07,0,0,1-4.79-.78,11,11,0,0,1-3.88-2.35,10.34,10.34,0,0,1-2.5-3.75,12.59,12.59,0,0,1-.85-4.69,21.14,21.14,0,0,1,.3-3.43,24.18,24.18,0,0,1,.92-3.76,27.26,27.26,0,0,1,4.09-7.82,39,39,0,0,1,5-5.42,35.82,35.82,0,0,1,6-4.37,31.55,31.55,0,0,1,6.69-3,24.73,24.73,0,0,1,7.26-1.1,12.6,12.6,0,0,1,3.36.43,9.34,9.34,0,0,1,2.76,1.25,6.74,6.74,0,0,1,2,2.11,5.54,5.54,0,0,1,.78,2.83,6.65,6.65,0,0,1-.54,2.51,10.2,10.2,0,0,1-1.21,2.16,8.78,8.78,0,0,1-1.79,1.81,4.71,4.71,0,0,1-2.88,1h-.12a4.47,4.47,0,0,1-1.81-.45,3.89,3.89,0,0,1-1.29-1,4.31,4.31,0,0,1-.72-1.21c-.09-.22-.18-.46-.27-.71l-.17-.38-.08,0h0a2.37,2.37,0,0,0-.42,0,7.6,7.6,0,0,0-2.21.38,14.73,14.73,0,0,0-2.74,1.21,23.55,23.55,0,0,0-2.92,1.95,26.82,26.82,0,0,0-2.84,2.52,26.13,26.13,0,0,0-2.51,2.94,22.61,22.61,0,0,0-2,3.15,18,18,0,0,0-1.28,3.2,10.71,10.71,0,0,0-.44,3,5.57,5.57,0,0,0,.11,1.08.77.77,0,0,0,.52.63,2.43,2.43,0,0,0,1,.15,11.18,11.18,0,0,0,3-.47,22.06,22.06,0,0,0,3.54-1.33A24.67,24.67,0,0,0,91,187.14a17.26,17.26,0,0,0,2.59-2.08h0s0-.07.12-.23a11.51,11.51,0,0,0,.43-1.12c.15-.45.28-.92.4-1.39s.24-1,.33-1.37A4.73,4.73,0,0,1,97,177.67a6.13,6.13,0,0,1,3.17-.77,10.48,10.48,0,0,1,1.8.16,6,6,0,0,1,1.83.64,4.5,4.5,0,0,1,1.61,1.48,4.26,4.26,0,0,1,.66,2.34,5.58,5.58,0,0,1-.37,2c-.16.44-.37.94-.62,1.49s-.45,1-.71,1.61-.49,1.21-.74,1.95-.45,1.42-.68,2.29-.46,1.81-.67,2.72-.37,1.73-.51,2.52a13.23,13.23,0,0,0-.2,1.66c0,.79-.08,1.56-.13,2.37s-.1,1.45-.13,2a5.59,5.59,0,0,1-.37,1.61,5.49,5.49,0,0,1-1,1.61,5.38,5.38,0,0,1-1.65,1.29A5.16,5.16,0,0,1,95.89,207.2Z" transform="translate(-6.94 -7.19)"/><path class="cls-16" d="M98.7,162.88a9.7,9.7,0,0,1,2.69.34,6.71,6.71,0,0,1,2,.9,4.07,4.07,0,0,1,1.27,1.32,3,3,0,0,1,.44,1.56,4.11,4.11,0,0,1-.35,1.56,7.94,7.94,0,0,1-.92,1.63,5.68,5.68,0,0,1-1.26,1.28,2.33,2.33,0,0,1-1.39.53,2.11,2.11,0,0,1-.81-.18,1.5,1.5,0,0,1-.5-.38,1.94,1.94,0,0,1-.31-.52q-.12-.3-.24-.63c-.09-.24-.2-.48-.32-.73a2.17,2.17,0,0,0-.51-.67,2.89,2.89,0,0,0-.85-.5,3.82,3.82,0,0,0-1.34-.2,9.93,9.93,0,0,0-3,.5,17.1,17.1,0,0,0-3.21,1.4,28.4,28.4,0,0,0-3.23,2.16,30.66,30.66,0,0,0-3.1,2.75,29.92,29.92,0,0,0-2.73,3.2,25.45,25.45,0,0,0-2.19,3.5,20.2,20.2,0,0,0-1.47,3.65A13.36,13.36,0,0,0,76.9,189a7.19,7.19,0,0,0,.17,1.6A3.28,3.28,0,0,0,79,193a5,5,0,0,0,2.09.38,13.73,13.73,0,0,0,3.68-.56,25.42,25.42,0,0,0,3.93-1.48,29,29,0,0,0,3.69-2.09,21.18,21.18,0,0,0,3-2.39,3.39,3.39,0,0,0,.62-1,11.4,11.4,0,0,0,.53-1.38c.17-.5.32-1,.46-1.56s.25-1,.34-1.46a2.4,2.4,0,0,1,1-1.65,3.69,3.69,0,0,1,1.9-.42,7.18,7.18,0,0,1,1.34.12,3.52,3.52,0,0,1,1.08.37,1.89,1.89,0,0,1,.72.65,1.81,1.81,0,0,1,.26,1,3.29,3.29,0,0,1-.21,1.11c-.15.38-.33.82-.55,1.3s-.47,1-.74,1.67-.54,1.34-.81,2.15-.48,1.51-.72,2.44-.48,1.86-.69,2.8-.4,1.82-.54,2.65a17,17,0,0,0-.24,2c0,.73-.07,1.49-.13,2.28s-.1,1.48-.13,2.08a3,3,0,0,1-.2.84,3.08,3.08,0,0,1-.54.89,3.11,3.11,0,0,1-.89.69,2.74,2.74,0,0,1-1.25.27,3.44,3.44,0,0,1-1.26-.24,3.75,3.75,0,0,1-1.12-.67,3.47,3.47,0,0,1-.81-1,2.74,2.74,0,0,1-.31-1.27,4.39,4.39,0,0,1,.12-.64l.3-1.29c.12-.51.25-1.06.4-1.66s.3-1.21.46-1.8.29-1.16.44-1.68.25-1,.33-1.31a38,38,0,0,1-3.25,2,30.42,30.42,0,0,1-3.53,1.64,26.71,26.71,0,0,1-3.61,1.12,15.32,15.32,0,0,1-3.49.42,11.69,11.69,0,0,1-4-.63,8.54,8.54,0,0,1-3-1.81,8,8,0,0,1-1.9-2.86,10.21,10.21,0,0,1-.67-3.77,18.49,18.49,0,0,1,.27-3,21.58,21.58,0,0,1,.83-3.38,24.67,24.67,0,0,1,1.49-3.55,25.41,25.41,0,0,1,2.22-3.56,37.39,37.39,0,0,1,4.63-5.06A33.35,33.35,0,0,1,86,166.58a29.38,29.38,0,0,1,6.17-2.71,22,22,0,0,1,6.52-1m0-5a27.26,27.26,0,0,0-8,1.21,34.33,34.33,0,0,0-7.22,3.18A37.94,37.94,0,0,0,77.12,167a42.55,42.55,0,0,0-5.26,5.75,29.71,29.71,0,0,0-4.47,8.56,26.84,26.84,0,0,0-1,4.14,23.79,23.79,0,0,0-.33,3.83,15.34,15.34,0,0,0,1,5.62,12.87,12.87,0,0,0,3.11,4.63,13.24,13.24,0,0,0,4.76,2.89,16.46,16.46,0,0,0,5.63.93,20.65,20.65,0,0,0,4.62-.55c.74-.17,1.49-.37,2.24-.61a7.48,7.48,0,0,0,.87,3,8.45,8.45,0,0,0,2,2.46,9,9,0,0,0,2.58,1.54,8.51,8.51,0,0,0,3.06.57,7.73,7.73,0,0,0,3.52-.82,7.88,7.88,0,0,0,2.42-1.89,8.35,8.35,0,0,0,1.41-2.35,7.77,7.77,0,0,0,.52-2.31v-.06c0-.58.08-1.24.13-2s.1-1.63.14-2.41v-.06a9.83,9.83,0,0,1,.17-1.32c.13-.75.29-1.55.48-2.39s.42-1.76.65-2.62.42-1.53.62-2.11.46-1.3.67-1.79l.69-1.56c.28-.61.51-1.16.7-1.67a8.31,8.31,0,0,0,.52-2.83,6.8,6.8,0,0,0-1.06-3.69,7,7,0,0,0-2.19-2.14l.3-.21a11.05,11.05,0,0,0,2.3-2.33,12.71,12.71,0,0,0,1.51-2.69,9,9,0,0,0,.73-3.46,8,8,0,0,0-1.12-4.09,9.2,9.2,0,0,0-2.76-2.91,11.83,11.83,0,0,0-3.5-1.6,15.19,15.19,0,0,0-4-.52Zm-16.77,30.4a9,9,0,0,1,.31-1.55,14.94,14.94,0,0,1,1.1-2.74,21.12,21.12,0,0,1,1.76-2.81,24.51,24.51,0,0,1,2.29-2.68A26.27,26.27,0,0,1,90,176.21a20.68,20.68,0,0,1,2.63-1.75,11.86,11.86,0,0,1,2.26-1l.34-.1a6.42,6.42,0,0,0,.87,1.3,5.92,5.92,0,0,0,.41.45,6,6,0,0,0-.8.41,7.15,7.15,0,0,0-3.3,4.92c-.08.37-.18.8-.3,1.27s-.23.83-.36,1.23a6.48,6.48,0,0,1-.23.63,15.64,15.64,0,0,1-1.93,1.5,23,23,0,0,1-3,1.72A19.7,19.7,0,0,1,83.39,188a10.1,10.1,0,0,1-1.46.31Z" transform="translate(-6.94 -7.19)"/><path class="cls-15" d="M119.33,202.46a10.36,10.36,0,0,1-5-1.21,11.38,11.38,0,0,1-3.72-3.15,14,14,0,0,1-2.26-4.39,16.84,16.84,0,0,1-.77-5.1,20,20,0,0,1,.15-2.51,20.68,20.68,0,0,1,.42-2.27,22.42,22.42,0,0,1,.66-2.17c.24-.68.53-1.41.85-2.16a24.78,24.78,0,0,1,1.59-3,35.45,35.45,0,0,1,2.12-3c.77-1,1.6-2,2.47-2.92s1.77-1.84,2.66-2.68,1.83-1.62,2.73-2.31a19.38,19.38,0,0,1,2.75-1.75,9.84,9.84,0,0,1,1.32-.57c.44-.17.89-.31,1.33-.44a11.17,11.17,0,0,1,1.4-.32l.14,0a7.14,7.14,0,0,1,2.53-1.58,10.63,10.63,0,0,1,3.53-.59,12,12,0,0,1,3.93.64,13.23,13.23,0,0,1,3.43,1.8,14.27,14.27,0,0,1,2.81,2.74,16,16,0,0,1,2.07,3.47,16.57,16.57,0,0,1,.88,2.63,12.28,12.28,0,0,1,.36,2.95,21.57,21.57,0,0,1-.73,5.61,24.4,24.4,0,0,1-2,5,27.49,27.49,0,0,1-2.88,4.37,34,34,0,0,1-3.45,3.73,37.77,37.77,0,0,1-3.82,3.15,46.08,46.08,0,0,1-3.87,2.51,26.08,26.08,0,0,1-2.57,1.24c-1,.41-2,.78-3,1.11s-2.09.61-3.1.84A14.55,14.55,0,0,1,119.33,202.46Zm9.5-29.7a2.17,2.17,0,0,0-.79.33,13.06,13.06,0,0,0-2,1.48,26.46,26.46,0,0,0-2.24,2.25c-.76.86-1.48,1.74-2.13,2.63s-1.24,1.74-1.74,2.55a12.63,12.63,0,0,0-1,1.9,16.73,16.73,0,0,0-.69,2.27,9.59,9.59,0,0,0-.26,2.2,3.51,3.51,0,0,0,.23,1.22,4.45,4.45,0,0,0,.65,1.2,3.09,3.09,0,0,0,.79.75.52.52,0,0,0,.31.12,8.07,8.07,0,0,0,2.19-.35,19.11,19.11,0,0,0,2.8-1.06,27.13,27.13,0,0,0,3-1.65,32.56,32.56,0,0,0,2.92-2.07,32,32,0,0,0,2.58-2.28,17.65,17.65,0,0,0,1.87-2.14c.11-.19.23-.41.36-.68s.34-.72.51-1.13.34-.87.51-1.34.32-.92.45-1.35a11.46,11.46,0,0,0,.29-1.11,3.36,3.36,0,0,0,.08-.53,5.87,5.87,0,0,0-.17-1.35,8.91,8.91,0,0,0-.52-1.53,8.67,8.67,0,0,0-.76-1.41,6.45,6.45,0,0,0-.84-1l-.07-.07a7.72,7.72,0,0,1-1,1.27,4.27,4.27,0,0,1-3.1,1.21,6.93,6.93,0,0,1-1.24-.09l-.6-.13-.28-.07Z" transform="translate(-6.94 -7.19)"/><path class="cls-16" d="M134.25,162.84a9.52,9.52,0,0,1,3.11.51,10.18,10.18,0,0,1,2.77,1.45,11.8,11.8,0,0,1,2.32,2.26A13.45,13.45,0,0,1,144.2,170a14.33,14.33,0,0,1,.74,2.21,10,10,0,0,1,.29,2.36,18.66,18.66,0,0,1-.65,5,20.82,20.82,0,0,1-1.76,4.46,25.5,25.5,0,0,1-2.61,4,34.26,34.26,0,0,1-3.22,3.47,35.24,35.24,0,0,1-3.57,2.94q-1.86,1.33-3.66,2.38a21.85,21.85,0,0,1-2.29,1.09,32.52,32.52,0,0,1-5.7,1.81,11.43,11.43,0,0,1-2.44.31,8,8,0,0,1-3.81-.91,9,9,0,0,1-2.91-2.48,11.69,11.69,0,0,1-1.86-3.62,14.43,14.43,0,0,1-.65-4.34,16.75,16.75,0,0,1,.13-2.19,18.39,18.39,0,0,1,.37-2,20,20,0,0,1,.58-1.92c.23-.65.5-1.32.8-2a19.73,19.73,0,0,1,1.42-2.63,29.72,29.72,0,0,1,2-2.8q1.1-1.41,2.34-2.76c.84-.91,1.68-1.76,2.53-2.55a30,30,0,0,1,2.53-2.14,16.36,16.36,0,0,1,2.38-1.52,9.45,9.45,0,0,1,1-.46c.38-.14.77-.26,1.16-.38a10.67,10.67,0,0,1,1.13-.26,6,6,0,0,1,.93-.09,4.67,4.67,0,0,1,2.17-1.62,7.89,7.89,0,0,1,2.68-.45m-3.18,7.71a5,5,0,0,1-.79-.05,3.83,3.83,0,0,1-.45-.1l-.39-.09a3,3,0,0,0-.61-.05,4.22,4.22,0,0,0-2.06.68,15.58,15.58,0,0,0-2.38,1.76,28.47,28.47,0,0,0-2.45,2.46c-.82.92-1.58,1.86-2.27,2.8s-1.32,1.86-1.86,2.74a14.56,14.56,0,0,0-1.19,2.29,20.88,20.88,0,0,0-.8,2.61,12.33,12.33,0,0,0-.32,2.77,6.16,6.16,0,0,0,.38,2.09,7.17,7.17,0,0,0,1,1.85,5.6,5.6,0,0,0,1.43,1.33,3,3,0,0,0,1.66.52,10.67,10.67,0,0,0,2.87-.44,21.22,21.22,0,0,0,3.18-1.21,27.82,27.82,0,0,0,3.27-1.79,35,35,0,0,0,5.93-4.69,19.7,19.7,0,0,0,2.19-2.54,9.78,9.78,0,0,0,.52-1c.19-.39.38-.81.58-1.27s.37-.95.55-1.46.35-1,.49-1.46.26-.91.35-1.32A5.74,5.74,0,0,0,140,176a8.24,8.24,0,0,0-.24-1.94,13,13,0,0,0-.65-1.94,11.7,11.7,0,0,0-1-1.78,8.27,8.27,0,0,0-1.18-1.45,5.65,5.65,0,0,0-1.31-1,2.74,2.74,0,0,0-1.34-.37.71.71,0,0,0-.62.48c-.16.31-.34.66-.55,1a4.34,4.34,0,0,1-.78,1,1.79,1.79,0,0,1-1.33.48m3.18-12.71a13,13,0,0,0-4.37.74,9.54,9.54,0,0,0-2.83,1.6c-.35.08-.72.17-1.09.28s-1,.31-1.51.49a12.58,12.58,0,0,0-1.61.71,20.79,20.79,0,0,0-3.09,2,35.85,35.85,0,0,0-2.94,2.48c-.93.87-1.87,1.82-2.78,2.81s-1.8,2-2.61,3.07a39,39,0,0,0-2.27,3.23,26.06,26.06,0,0,0-1.74,3.25c-.37.84-.67,1.62-.94,2.35s-.53,1.61-.73,2.42a22.21,22.21,0,0,0-.64,5.37,19.35,19.35,0,0,0,.89,5.86,16.66,16.66,0,0,0,2.66,5.15,14,14,0,0,0,4.52,3.84,12.9,12.9,0,0,0,6.16,1.5,16.84,16.84,0,0,0,3.51-.42c1.09-.24,2.21-.54,3.32-.89s2.22-.76,3.25-1.2a25.77,25.77,0,0,0,2.81-1.35h0a48.63,48.63,0,0,0,4.08-2.65,40.2,40.2,0,0,0,4.07-3.35,39.12,39.12,0,0,0,3.7-4,30.69,30.69,0,0,0,3.13-4.75,27.61,27.61,0,0,0,2.17-5.5,23.93,23.93,0,0,0,.82-6.26,15.26,15.26,0,0,0-.43-3.55,19.55,19.55,0,0,0-1-3,19.2,19.2,0,0,0-2.41-4,17,17,0,0,0-3.3-3.22,15.72,15.72,0,0,0-4.1-2.14,14.5,14.5,0,0,0-4.74-.78Zm-3.18,17.71a7,7,0,0,0,3.67-1,5.16,5.16,0,0,1,.2.67,3.3,3.3,0,0,1,.1.67.36.36,0,0,0,0,.11c-.06.27-.14.57-.24.89s-.26.8-.41,1.23-.32.85-.47,1.23-.3.7-.45,1-.16.32-.21.41a16.44,16.44,0,0,1-1.53,1.74,28.71,28.71,0,0,1-2.37,2.09,31.2,31.2,0,0,1-2.7,1.92,24.54,24.54,0,0,1-2.72,1.49,15.49,15.49,0,0,1-2.44.93c-.26.07-.51.13-.74.17a2.28,2.28,0,0,1-.17-.35,1.12,1.12,0,0,1-.07-.36,6.91,6.91,0,0,1,.19-1.63,14.31,14.31,0,0,1,.6-2,9.54,9.54,0,0,1,.78-1.48c.46-.75,1-1.55,1.62-2.38a31.3,31.3,0,0,1,2-2.44,23,23,0,0,1,2-2,10.65,10.65,0,0,1,1.41-1.08l.29,0a8.7,8.7,0,0,0,1.67.13Z" transform="translate(-6.94 -7.19)"/><path class="cls-15" d="M187.66,203.7a5.68,5.68,0,0,1-4-1.54,8.34,8.34,0,0,1-2-3.13,15.51,15.51,0,0,1-.86-3.58,31,31,0,0,1-.22-3.58V191c0-.53.05-1.27.15-2.26s.2-2,.33-3.15.29-2.4.46-3.72l0-.25-.9,1.22c-.59.8-1.15,1.6-1.69,2.39l-1.76,2.52L177,188l0,0-.75,1.16a4.59,4.59,0,0,1-.5.65,9.5,9.5,0,0,1-4.9,3.61l-.72.21-.71-.23a11.79,11.79,0,0,1-2.62-1.14,8.31,8.31,0,0,1-1.83-1.49,8.5,8.5,0,0,1-1.2-1.75c-.2-.39-.44-.81-.71-1.24l-.89-1.55q-.4-.69-.69-1.23c-.44-.79-.87-1.65-1.26-2.54-.07-.15-.14-.31-.2-.46l-.56,2.57c-.14.64-.25,1.17-.35,1.58l-.18.76a12.8,12.8,0,0,0-.4,3c0,.25,0,.65,0,1.18s0,1,0,1.56,0,1.13,0,1.67,0,.87,0,1.13a4.82,4.82,0,0,1-.4,1.84,6.62,6.62,0,0,1-2.37,2.93,4.32,4.32,0,0,1-2.46.78,13.55,13.55,0,0,1-1.67-.09,5.29,5.29,0,0,1-1.82-.54,4.65,4.65,0,0,1-1.57-1.33,6.71,6.71,0,0,1-.9-1.62,4.56,4.56,0,0,1-.29-.94c0-.22-.08-.51-.11-.86s0-.68-.06-1.12,0-.88,0-1.47a7.55,7.55,0,0,1,.24-1.61c.12-.54.27-1.2.46-2s.39-1.57.62-2.45.45-1.74.68-2.58.45-1.61.64-2.35.37-1.34.5-1.81l.69-2.48c.23-.84.46-1.7.69-2.56l.69-2.61c.21-.8.41-1.55.58-2.27a16.32,16.32,0,0,1,.33-1.92,14.82,14.82,0,0,1,.43-1.51,9.16,9.16,0,0,1,.79-1.8,5.91,5.91,0,0,1,1.4-1.69,4.24,4.24,0,0,1,2.75-1,11.48,11.48,0,0,1,4,.59,6.6,6.6,0,0,1,3,2.12,9.27,9.27,0,0,1,1.54,3.15c.29,1,.58,2.19.88,3.54a4.18,4.18,0,0,0,.16.57l.39,1,0,0A40.09,40.09,0,0,0,170,178.1c.2.43.41.85.63,1.27q.52-.92,1-1.74a15.18,15.18,0,0,1,1.53-2c.16-.18.4-.47.74-.88l1.31-1.63,1.58-2,1.56-2,2.17-2.77c.16-.18.28-.32.36-.43s.22-.26.35-.41.47-.65.83-1.13.8-1.06,1.23-1.64.87-1.17,1.28-1.7.66-.88.84-1.13a3.78,3.78,0,0,1,3.31-1.56A4.75,4.75,0,0,1,191,159a7.87,7.87,0,0,1,1.55,1.06,7.59,7.59,0,0,1,1.24,1.38,4.06,4.06,0,0,1,.75,2.24,3.58,3.58,0,0,1-.36,1.58c-.12.21-.23.4-.37.62s-.12.19-.19.32h0s0,.11-.1.36c-.1.46-.2.88-.29,1.24s-.14.58-.2.85-.09.47-.12.71a5.91,5.91,0,0,0,0,.77c0,.75,0,1.49,0,2.23s-.08,1.49-.15,2.27-.14,1.58-.23,2.42-.19,1.71-.3,2.67c-.16,1.35-.32,2.76-.47,4.26a42,42,0,0,0-.23,4.4v1.5c0,.54,0,1.12,0,1.74s0,1.28.09,1.94c0,.23,0,.46,0,.69a7.41,7.41,0,0,1,1.14,1A4,4,0,0,1,193.8,198a4.74,4.74,0,0,1-.62,2.28,6.71,6.71,0,0,1-1.3,1.64,7.14,7.14,0,0,1-1.8,1.22A5.59,5.59,0,0,1,187.66,203.7Z" transform="translate(-6.94 -7.19)"/><path class="cls-16" d="M188.76,160.91a2.32,2.32,0,0,1,1.07.3,5.36,5.36,0,0,1,1.06.72,5.24,5.24,0,0,1,.81.91,1.56,1.56,0,0,1,.32.83,1.46,1.46,0,0,1-.07.42l-.24.39a3.66,3.66,0,0,0-.32.55,4,4,0,0,0-.33,1c-.09.45-.18.83-.27,1.17s-.16.65-.23,1-.11.61-.15.92a8.43,8.43,0,0,0-.06,1.08c0,.71,0,1.42,0,2.12s-.08,1.42-.14,2.17-.14,1.54-.23,2.36-.18,1.7-.29,2.65q-.24,2-.48,4.29a44.17,44.17,0,0,0-.24,4.66v1.5c0,.57,0,1.18,0,1.83s0,1.32.09,2,.1,1.33.18,2a.93.93,0,0,0,.2.15,1.6,1.6,0,0,1,.25.15,6.88,6.88,0,0,1,1.24,1,1.49,1.49,0,0,1,.38,1.09,2.16,2.16,0,0,1-.31,1.06,4.17,4.17,0,0,1-.82,1,4.91,4.91,0,0,1-1.16.78,3.1,3.1,0,0,1-1.35.31,3.14,3.14,0,0,1-2.28-.86,5.7,5.7,0,0,1-1.42-2.2,12.45,12.45,0,0,1-.71-3,25.88,25.88,0,0,1-.21-3.27V191c0-.45.05-1.12.13-2s.2-1.94.34-3.1.28-2.39.45-3.69.34-2.57.52-3.82.36-2.41.53-3.48.31-2,.44-2.67c-.19.24-.46.58-.8,1l-1.14,1.51c-.42.55-.87,1.14-1.33,1.76s-.93,1.22-1.36,1.82l-1.24,1.68-1,1.33c-.6.82-1.18,1.64-1.73,2.45l-1.74,2.5a2.7,2.7,0,0,0-.23.31l-.34.53-.38.59a3.06,3.06,0,0,1-.34.43,7.12,7.12,0,0,1-3.66,2.8,8.82,8.82,0,0,1-2.06-.88,5.38,5.38,0,0,1-1.27-1,5.51,5.51,0,0,1-.85-1.23c-.23-.44-.49-.91-.8-1.4s-.6-1-.85-1.48-.48-.84-.67-1.19c-.41-.74-.8-1.53-1.17-2.35s-.7-1.67-1-2.53c-.22-.71-.42-1.32-.58-1.83l-.47-1.43q-.21-.66-.42-1.35c-.15-.46-.3-1-.48-1.62,0,.11-.09.38-.19.81s-.21,1-.36,1.59-.3,1.34-.47,2.12-.35,1.57-.53,2.38-.34,1.6-.51,2.37-.32,1.46-.45,2.08-.25,1.13-.35,1.54-.15.64-.16.72a14.85,14.85,0,0,0-.48,3.62c0,.24,0,.61,0,1.11s0,1,0,1.59,0,1.11,0,1.63,0,.93,0,1.21a2.5,2.5,0,0,1-.21.89,3.8,3.8,0,0,1-.6,1,3.86,3.86,0,0,1-.88.83,1.79,1.79,0,0,1-1,.34,10.66,10.66,0,0,1-1.36-.07,2.88,2.88,0,0,1-1-.29,2,2,0,0,1-.72-.61,4.62,4.62,0,0,1-.58-1,2.15,2.15,0,0,1-.14-.47,5.89,5.89,0,0,1-.08-.63c0-.25,0-.56-.05-.94s0-.84,0-1.41a6,6,0,0,1,.18-1.06q.18-.79.45-1.92c.18-.74.38-1.55.61-2.41s.44-1.72.67-2.55.45-1.62.65-2.36.36-1.33.48-1.79c.23-.8.46-1.62.7-2.48s.47-1.72.7-2.59l.69-2.61q.35-1.29.63-2.46a15,15,0,0,1,.28-1.74c.1-.43.23-.88.38-1.37a7.33,7.33,0,0,1,.59-1.33,3.62,3.62,0,0,1,.83-1,1.76,1.76,0,0,1,1.15-.41,9.24,9.24,0,0,1,3.09.43,4.19,4.19,0,0,1,1.85,1.32,6.66,6.66,0,0,1,1.11,2.3c.27.94.55,2.06.83,3.38a6.11,6.11,0,0,0,.29,1l.36.92a39.85,39.85,0,0,0,2,4.91,41.8,41.8,0,0,0,2.68,4.82,5.42,5.42,0,0,0,1.13-1.27c.34-.51.71-1.15,1.13-1.89s.73-1.27,1.1-1.85a12.58,12.58,0,0,1,1.28-1.65c.17-.19.45-.52.83-1l1.32-1.64,1.58-2,1.57-2,1.31-1.67.81-1c.18-.2.31-.36.41-.48s.21-.26.35-.42.46-.64.86-1.17.81-1.07,1.25-1.66l1.26-1.68c.41-.53.7-.93.89-1.2a1.42,1.42,0,0,1,1.27-.5m0-5a6.34,6.34,0,0,0-5.37,2.65l-.77,1-1.29,1.72-1.22,1.63L179.3,164l-.32.38c-.09.12-.2.24-.33.4l-.07.09-.07.09-.78,1-.34.44-1,1.23c-.48.62-1,1.27-1.55,2l-1.58,2c-.49.61-.91,1.15-1.29,1.6s-.62.75-.64.77l-.29.33c-.2-.53-.38-1.05-.55-1.57l0-.12,0-.11-.39-1h0a1.37,1.37,0,0,1,0-.17c-.3-1.41-.61-2.65-.91-3.7a11.71,11.71,0,0,0-2-4,9.09,9.09,0,0,0-4.06-2.93,13.88,13.88,0,0,0-4.82-.74,6.72,6.72,0,0,0-4.34,1.56,8.43,8.43,0,0,0-2,2.4,12.56,12.56,0,0,0-1,2.23c-.2.62-.36,1.21-.49,1.77a18.32,18.32,0,0,0-.35,2c-.16.66-.34,1.36-.53,2.08-.24.88-.47,1.75-.7,2.63s-.45,1.69-.68,2.53l-.69,2.46c-.13.48-.3,1.09-.5,1.84l-.63,2.33c-.24.86-.48,1.74-.71,2.63l-.62,2.48c-.19.78-.35,1.45-.47,2a9.42,9.42,0,0,0-.3,2.16c0,.61,0,1.12,0,1.52s0,.93.07,1.3.09.79.15,1.11a7,7,0,0,0,.45,1.46,9,9,0,0,0,1.21,2.15,7,7,0,0,0,2.41,2,8,8,0,0,0,2.66.8,16.3,16.3,0,0,0,2,.11,6.87,6.87,0,0,0,3.89-1.23,9.24,9.24,0,0,0,1.94-1.81,9.36,9.36,0,0,0,1.32-2.23,7.3,7.3,0,0,0,.58-2.78c0-.24,0-.6,0-1.05s0-1.12,0-1.71,0-1,0-1.52,0-1,0-1.26,0-.41,0-.63c.18.31.35.61.49.89a11.21,11.21,0,0,0,1.55,2.24,11.07,11.07,0,0,0,2.39,2,13.67,13.67,0,0,0,3.18,1.39l1.43.45,1.44-.41a11.9,11.9,0,0,0,6.15-4.43A4,4,0,0,0,178,191v.92a31.82,31.82,0,0,0,.24,3.88,17.8,17.8,0,0,0,1,4.17,10.81,10.81,0,0,0,2.65,4.05,8.33,8.33,0,0,0,9.19,1.45,9.7,9.7,0,0,0,2.44-1.65,9.28,9.28,0,0,0,1.8-2.29,7,7,0,0,0,.93-3.47,6.56,6.56,0,0,0-1.74-4.52A5.36,5.36,0,0,0,194,193c0-.49-.05-1-.07-1.45s0-1.13,0-1.65v-1.5a39.83,39.83,0,0,1,.21-4.14c.16-1.48.32-2.89.47-4.22.12-1,.22-1.87.3-2.7s.17-1.68.24-2.47.12-1.62.16-2.37,0-1.57,0-2.35a2.59,2.59,0,0,1,0-.44,4.18,4.18,0,0,1,.09-.53c0-.22.1-.46.17-.71s.2-.81.3-1.28c.14-.22.28-.45.4-.68l0,0,0,0a5.82,5.82,0,0,0,.64-2.61v-.13a6.45,6.45,0,0,0-1.18-3.63,9.73,9.73,0,0,0-1.66-1.87,11,11,0,0,0-2-1.4,7.37,7.37,0,0,0-3.38-.86Z" transform="translate(-6.94 -7.19)"/><path class="cls-15" d="M202.65,202.27a7.49,7.49,0,0,1-2.24-.31,4.77,4.77,0,0,1-2.24-1.5A5.87,5.87,0,0,1,197,198.1a10.93,10.93,0,0,1-.31-2.8,13.26,13.26,0,0,1,.34-2.81c.17-.81.37-1.79.59-2.92s.45-2.19.66-3.12.39-1.8.57-2.66.34-1.69.49-2.52.24-1.65.31-2.57l0-.15c0-.09,0-.31,0-.65l.24-3.39c.05-.67.1-1.31.15-1.91s.08-1,.1-1.46,0-.58,0-.69l0-.1a5.62,5.62,0,0,1-.08-.87,6.56,6.56,0,0,1,.32-1.94,8.37,8.37,0,0,1,.9-1.93,4.8,4.8,0,0,1,1.41-1.45,11.16,11.16,0,0,1,1.47-.87,10.81,10.81,0,0,1,1.64-.66,6.32,6.32,0,0,1,1.81-.3,8.73,8.73,0,0,1,1.23.13l1.24.23,1.1.21a2.63,2.63,0,0,0,.41,0h.06l1.44,0,2,0c1.33,0,2.69-.05,4.05-.15s2.7-.26,4.1-.48a12.52,12.52,0,0,0,1.49-.35l1.69-.52q.93-.27,1.86-.48a11.23,11.23,0,0,1,2.28-.23,4.66,4.66,0,0,1,1.93.42,5.66,5.66,0,0,1,1.5,1,5.81,5.81,0,0,1,1.09,1.4,4.21,4.21,0,0,1,.55,2.09,4.34,4.34,0,0,1-.26,1.43,6.42,6.42,0,0,1-.54,1.21,7.84,7.84,0,0,1-.77,1.14,4.28,4.28,0,0,1-1.46,1.15,8.17,8.17,0,0,1-1.67.62c-.42.1-.92.21-1.52.33-1.52.3-3,.55-4.44.74s-2.78.35-4.06.48-2.46.2-3.53.25-2,.08-2.74.08h-3.83c0,.59-.06,1.18-.1,1.79s-.06,1-.1,1.54h.46c.72,0,1.44,0,2.14-.08s1.37-.1,1.86-.15c.22,0,.67-.06,1.28-.1l1.68-.12c.58,0,1.15-.1,1.71-.16a7.27,7.27,0,0,0,.86-.12l.74-.31a10.51,10.51,0,0,1,1.08-.36,9.12,9.12,0,0,1,1.18-.23,11,11,0,0,1,1.18-.06,4.61,4.61,0,0,1,2.33.59,4.28,4.28,0,0,1,1.58,1.58,5.47,5.47,0,0,1,.62,1.77,8.37,8.37,0,0,1,.14,1.53,4.21,4.21,0,0,1-1,2.81,5.87,5.87,0,0,1-1.7,1.33,7.69,7.69,0,0,1-1.75.66l-1.17.27a12.8,12.8,0,0,1-1.73.23l-2.42.21c-.92.07-1.89.14-2.91.2s-2,.12-2.92.16l-2.41.11-1.62,0a4.7,4.7,0,0,0-.54,0c0,.23-.07.46-.1.69-.12,1-.3,2-.54,3-.05.25-.11.54-.18.83l.74-.06,1.3-.12,5.11-.45c.62,0,1.19-.11,1.72-.17s1.08-.14,1.68-.23l1.33-.15,1.42-.16c.48-.05.95-.11,1.43-.18a9.23,9.23,0,0,0,1.07-.21,4.42,4.42,0,0,0,.51-.16c.28-.12.58-.23.88-.33a9.36,9.36,0,0,1,1.1-.32,6.59,6.59,0,0,1,1.39-.16,4.72,4.72,0,0,1,2,.45,5,5,0,0,1,1.59,1.15,5.4,5.4,0,0,1,1.07,1.7,5.58,5.58,0,0,1,.4,2.08,3.67,3.67,0,0,1-.57,1.86,6.34,6.34,0,0,1-1,1.3,7.13,7.13,0,0,1-1.41,1.09,5.76,5.76,0,0,1-2,.78c-1.43.28-2.92.5-4.4.66s-2.93.33-4.6.55l-3.7.44c-1.21.14-2.34.27-3.38.41l-2.75.35c-.91.12-1.36.2-1.58.25a7,7,0,0,0-1,.23l-1.3.36c-.47.12-.91.22-1.33.31a7.25,7.25,0,0,1-1.54.17Z" transform="translate(-6.94 -7.19)"/><path class="cls-16" d="M230.64,163.29a2.3,2.3,0,0,1,.91.2,3.19,3.19,0,0,1,.82.55,3.14,3.14,0,0,1,.6.77,1.79,1.79,0,0,1,.24.88,2,2,0,0,1-.13.63,4.23,4.23,0,0,1-.35.8,5.86,5.86,0,0,1-.52.75,1.85,1.85,0,0,1-.59.49,6.33,6.33,0,0,1-1.2.45c-.39.09-.86.2-1.42.31-1.46.28-2.89.52-4.28.71s-2.72.35-4,.47-2.38.2-3.41.25-1.9.07-2.62.07h-4.93c-.42,0-.84,0-1.23-.05-.05.52-.09,1.16-.13,1.9s-.09,1.51-.14,2.29-.09,1.53-.14,2.25a17.4,17.4,0,0,1-.19,1.82c.43,0,.93.08,1.51.09l1.68,0c.78,0,1.55,0,2.32-.09s1.41-.1,1.92-.15c.25,0,.65-.06,1.19-.09l1.72-.12,1.79-.17a13.63,13.63,0,0,0,1.37-.21c.31-.15.61-.27.89-.39a7.68,7.68,0,0,1,.81-.27,5.27,5.27,0,0,1,.81-.15,6.19,6.19,0,0,1,.89-.05,2.07,2.07,0,0,1,1.07.25,1.77,1.77,0,0,1,.67.66,2.87,2.87,0,0,1,.33,1,6.52,6.52,0,0,1,.1,1.1,1.73,1.73,0,0,1-.4,1.17,3.27,3.27,0,0,1-1,.75,5.1,5.1,0,0,1-1.2.45c-.42.11-.78.19-1.09.25a10.36,10.36,0,0,1-1.44.19c-.69.07-1.48.13-2.39.2s-1.86.14-2.87.21l-2.86.15-2.42.11-1.51,0a6.5,6.5,0,0,0-1.36.12c-.41.07-.85.18-1.31.3a21.15,21.15,0,0,0-.45,2.48,27.74,27.74,0,0,1-.5,2.78c-.08.38-.16.77-.25,1.17s-.16.77-.23,1.13-.14.69-.18,1-.08.55-.1.74l1.16,0c.43,0,.89,0,1.36-.07l1.44-.11,1.37-.13,2.89-.25,2.17-.19c.64-.05,1.24-.11,1.78-.18s1.14-.14,1.78-.23l1.2-.15,1.45-.15,1.5-.19a9.72,9.72,0,0,0,1.37-.28,4.92,4.92,0,0,0,.77-.25l.8-.29a5.91,5.91,0,0,1,.82-.24,4,4,0,0,1,.84-.1,2.33,2.33,0,0,1,1,.22,2.64,2.64,0,0,1,.82.59,2.86,2.86,0,0,1,.57.92,3.14,3.14,0,0,1,.22,1.15,1.37,1.37,0,0,1-.23.61,4.19,4.19,0,0,1-.62.79,4.75,4.75,0,0,1-.94.72,3.49,3.49,0,0,1-1.19.45c-1.4.27-2.8.48-4.21.63s-3,.34-4.67.56l-3.66.43c-1.22.14-2.36.28-3.4.42l-2.77.36c-.79.1-1.38.19-1.76.27a10,10,0,0,0-1.16.27l-1.25.35c-.42.11-.82.2-1.2.28a5.1,5.1,0,0,1-1,.12h0a4.76,4.76,0,0,1-1.49-.2,2.25,2.25,0,0,1-1.08-.71,3.55,3.55,0,0,1-.65-1.38,8.88,8.88,0,0,1-.23-2.18,10.24,10.24,0,0,1,.28-2.27c.18-.84.38-1.83.6-3s.44-2.13.65-3,.4-1.81.58-2.69.35-1.74.5-2.6.27-1.8.35-2.8c0-.11,0-.38.07-.81s.06-.93.1-1.52.09-1.22.13-1.88.1-1.3.15-1.88.08-1.1.1-1.53,0-.7,0-.83a3.59,3.59,0,0,0-.05-.47,4,4,0,0,1,0-.5,4,4,0,0,1,.21-1.21,5.55,5.55,0,0,1,.63-1.34,2.56,2.56,0,0,1,.74-.73,8.34,8.34,0,0,1,1.14-.67,6.94,6.94,0,0,1,1.25-.5,3.78,3.78,0,0,1,1.08-.2,6,6,0,0,1,.82.1l1.17.21,1.15.22a5.64,5.64,0,0,0,.79.09l1.49,0,2,0q2.1,0,4.23-.15c1.42-.11,2.86-.28,4.32-.52a15.39,15.39,0,0,0,1.83-.42l1.68-.52q.83-.24,1.65-.42a8.33,8.33,0,0,1,1.76-.18m0-5a13.67,13.67,0,0,0-2.81.29c-.68.14-1.37.32-2.05.53l-.67.2-1,.31a9.35,9.35,0,0,1-1.21.29c-1.29.2-2.59.36-3.84.45s-2.6.14-3.87.14l-1.92,0-1.42,0-.13,0c-.33-.05-.68-.12-1-.19l-1.29-.24a10.91,10.91,0,0,0-1.67-.17,8.77,8.77,0,0,0-2.53.41,13.53,13.53,0,0,0-2,.81,14.35,14.35,0,0,0-1.79,1.07,7.47,7.47,0,0,0-2.12,2.2,10.81,10.81,0,0,0-1.14,2.48,9.14,9.14,0,0,0-.43,2.68,7.91,7.91,0,0,0,.09,1.14c0,.1,0,.23,0,.39,0,.39-.05.86-.1,1.4s-.09,1.24-.14,1.93-.1,1.3-.13,1.9-.08,1.07-.11,1.49c0,.23,0,.41,0,.52l0,.1v.16c-.07.83-.16,1.62-.29,2.33s-.29,1.62-.46,2.44-.37,1.72-.57,2.61-.44,2-.67,3.17-.41,2.11-.59,2.89a16.35,16.35,0,0,0-.39,3.35,13.55,13.55,0,0,0,.39,3.43,8.35,8.35,0,0,0,1.66,3.33,7.27,7.27,0,0,0,3.41,2.28,9.87,9.87,0,0,0,3,.43,10,10,0,0,0,2.09-.22c.46-.1.95-.21,1.46-.35l1.36-.37a5.67,5.67,0,0,1,.64-.15l.08,0,.08,0c.12,0,.48-.09,1.39-.21l1.53-.19,1.23-.16c1-.14,2.14-.27,3.34-.41l1.85-.22,1.81-.21h.07c1.65-.21,3.18-.4,4.55-.54,1.54-.17,3.1-.4,4.63-.7a8.64,8.64,0,0,0,2.84-1.08,10.38,10.38,0,0,0,1.88-1.47,9.18,9.18,0,0,0,1.41-1.82,6.13,6.13,0,0,0,.9-3.11,8.06,8.06,0,0,0-.58-3,7.84,7.84,0,0,0-1.56-2.48,7.63,7.63,0,0,0-2.37-1.71,7.25,7.25,0,0,0-2-.59,8.26,8.26,0,0,0,1.09-1,6.73,6.73,0,0,0,1.62-4.45,10.83,10.83,0,0,0-.18-2,7.8,7.8,0,0,0-.91-2.54,7,7,0,0,0-1.28-1.62l.3-.05,1.64-.36a11.4,11.4,0,0,0,2.21-.82,6.67,6.67,0,0,0,2.26-1.8,9.92,9.92,0,0,0,1-1.48,10.54,10.54,0,0,0,.74-1.67,7.13,7.13,0,0,0,.38-2.21,6.82,6.82,0,0,0-.87-3.31,8,8,0,0,0-1.55-2,8.22,8.22,0,0,0-2.2-1.47,7.24,7.24,0,0,0-3-.63Z" transform="translate(-6.94 -7.19)"/></g></svg>