<svg id="Layer_1" data-name="Layer 1" xmlns="http://www.w3.org/2000/svg" viewBox="0 0 286.11 285.42"><defs><style>.cls-1{fill:#010101;}.cls-2{fill:#fefefe;}.cls-3{fill:#020302;}.cls-4{fill:#020402;}.cls-5{fill:#829f5e;}.cls-6{fill:#1d8768;}.cls-7{fill:#ee8777;}.cls-8{fill:#fdfdfd;}.cls-9{fill:#1f8667;}.cls-10{fill:#e87;}.cls-11{fill:#1e8667;}.cls-12{fill:#e0d939;}.cls-13{fill:#fbfbfb;}.cls-14{fill:#3a8764;}.cls-15{fill:#829c62;}.cls-16{fill:#268263;}.cls-17{fill:#d5d442;}.cls-18{fill:#809b60;}.cls-19{fill:#dfda3a;}.cls-20{fill:#0c0b0c;}</style></defs><title>26</title><path class="cls-1" d="M146.18,7.31c35.88,0,71.77-.08,107.65.08,5.84,0,11.79.23,17.48,2,9.64,3,16.12,9.32,19.86,18.68,1.91,4.79,1.76,9.66,1.61,14.66-.27,9-.45,17.94-.43,26.91.08,52.87,0,105.73.1,158.59,0,7-.1,14.07.37,21.14.49,7.23.36,14.72-1.85,21.84-3,9.53-9.28,15.9-18.5,19.71-5.52,2.27-11.17,1.77-16.82,1.68-1.72,0-3.44,0-5.16,0q-61.81-.07-123.63-.14c-21.08,0-42.15-.09-63.23,0-7.6,0-15.19.19-22.8,0-16.25-.35-28-7.26-33.12-23.69A21.39,21.39,0,0,1,7,261c.68-9.35.32-18.7.33-28.05q.09-51.36,0-102.72c0-24.71.12-49.41-.08-74.12A183.92,183.92,0,0,1,7.91,35c1.33-12.21,7.89-20.5,19-25.47,5-2.23,10.21-2.16,15.45-2.16q51.91,0,103.83,0Z" transform="translate(-6.94 -7.29)"/><path class="cls-2" d="M11.34,150.37q0-45.65,0-91.28c0-7.91.27-15.8.6-23.69C12.42,23.39,24,11.91,36,11.8c58.05-.55,116.1-.14,174.14-.25,13.72,0,27.44,0,41.16.12a107.7,107.7,0,0,1,16.27,1.09c12.63,2.11,21.32,14,21.15,25.7-.92,65.74-.32,131.48-.36,197.23,0,9.15.12,18.3-.15,27.46-.42,14.4-13.08,25.44-26.09,25.38-43.42-.22-86.85-.09-130.27-.09-25.44,0-50.87-.14-76.31.06-7.9.06-15.82.14-23.57-1.19A25.12,25.12,0,0,1,11.7,266.37c-.73-5.06-.33-10.3-.33-15.46q0-50.26,0-100.54Z" transform="translate(-6.94 -7.29)"/><path class="cls-3" d="M171.22,140.17c4.07-3.62,8.12-5.89,12.82-6.76a8.24,8.24,0,0,1,7.11,1.64c2.85,2.31,2.11,6.67.21,10.2a40.78,40.78,0,0,1-2.64,3.77c2.32,0,4-1.15,5.76-1.79a50.11,50.11,0,0,1,11.7-3.14c1.52-.15,2-.8,1.82-2.27-.22-1.7-.29-3.42-.48-5.12-.68-5.84,3.47-7.15,7.56-7a13.71,13.71,0,0,0,4.28-.22c2.17-.59,3.69.44,4.48,2.49a13.81,13.81,0,0,1,1,8c-.52,2.24.45,2.51,2,2.42,4-.2,7.32,1.6,10.73,3.27,2.5,1.23,3.37,3,3.31,5.85-.13,6.13-2,7.21-8,8.86-1.92.53-2.6,1-2.57,3.08.12,10.43.27,20.88-.05,31.3-.24,7.77-.54,15.55-1.38,23.31-.64,5.84-4.17,8.9-9,11.11-4,1.83-8.31,2.38-12.63,2.68-6.15.43-12.31.75-18.47,1-1.21,0-1.54.4-1.52,1.56a65.9,65.9,0,0,1-1,13.23,2.26,2.26,0,0,0,.38,1.79c1.92,2.82,3.15,6.06,5.48,8.66a2,2,0,0,1-1.63,3.24c-4.33,0-8.57,1.37-13,.63-3.31-.55-3.82-1.31-1.91-4,1.51-2.14,2.82-4.61,4.8-6.21,3.52-2.84,4-6.52,4.09-10.52A26.07,26.07,0,0,1,185,235c.42-1.53,0-2.13-1.85-2.14-19.52-.09-39.05-.28-58.58-.44a80.79,80.79,0,0,1-13.54-1.06c-1.91-.34-3-.09-2.76,2.4a31.32,31.32,0,0,1-.75,10c-.14.64-.42.77.47,1.29,5,2.91,8.63,7.32,12.14,11.82.18.23.1.66.16,1.15-3.5-1.52-6.48.64-9.66.89-3.63.28-7.24.73-10.85.16s-4-2-2.07-4.94c1.08-1.56,1.82-3.58,3.27-4.63,4.77-3.42,4.78-8.18,4.63-13.26-.15-4.93,0-4.85-4.82-5.45a30.56,30.56,0,0,1-15.07-6.28c-4.53-3.49-9-7.25-11.07-12.78A71.9,71.9,0,0,1,71,195c-1.61-13-.36-25.91-.14-38.87.24-14.45,2.86-28.66,3.94-43,.67-8.8,2.63-17.27,4.64-25.78a79.34,79.34,0,0,0,2-10.33c.72-7,6.59-9.89,12.2-10.3,6.23-.45,12.47-.9,18.7-1.4,4.37-.35,4.59-.6,7.59-4,1.5-1.74,3.09-4.12,5.78-3.29s5.23,2.33,5.67,5.77c.3,2.33,2.29,1,3.51,1.31s1.74,0,2-1.37c.47-2.93,1.2-5.82,1.84-8.72a2.15,2.15,0,0,1,1.79-2,52.84,52.84,0,0,1,26.26-.37c2.81.69,4.17,2.57,4.15,5.7a22.28,22.28,0,0,1-1.29,6.89c-.58,1.76-.67,3.13,1.89,3.08s3.06,2,3.2,3.94c.28,3.62.17,7.24.63,10.86,1.65,13-.37,25.82-2,38.67C172.6,127.63,172.48,133.6,171.22,140.17Z" transform="translate(-6.94 -7.29)"/><path class="cls-4" d="M151.14,47.51l-5.56.33c-1.46.08-3.13.3-3.39-1.68s-.17-3.86,2.19-4.52a53.73,53.73,0,0,1,22.48-1.55,7.84,7.84,0,0,1,5.55,3.46c1.06,1.58.41,2.69-.29,4s-1.92,1.43-3.26,1a4.56,4.56,0,0,0-1.6-.27A128.46,128.46,0,0,1,151.14,47.51Z" transform="translate(-6.94 -7.29)"/><path class="cls-5" d="M94.52,69.33c4.18-.52,8.35-1.15,12.54-1.51,2.7-.23,5.37-.81,8.11-.63,1.38.09,1.76.21,1.5,1.83-.91,5.61.92,9.13,5.28,10.89,1,1,.62,2.24.3,3.35-2,6.86-2.45,14-2.64,21a69,69,0,0,0,1.21,15.42c1.17,5.81,6.52,9.5,12.7,8.81a18.2,18.2,0,0,0,5.26-1.26c1.75-.68,3.51-1.35,5.26-2,3.48-1.37,4.3-4.4,4.51-7.63a3.59,3.59,0,0,0-3.14-3.84,10.67,10.67,0,0,0-6.32.72c-.59.24-1.29.54-1.22,1.26.08.9.95.61,1.51.65.9.06,1.8,0,2.7,0a8.88,8.88,0,0,0-1,7.24c-3.34,1.53-6.76,1.17-10,.07s-2.9-4.27-2.84-6.73c.35-13.12.93-26.23,1.48-39.34.13-3.16,1.67-6.08,1.64-9.31,0-1.55,1.47-1.15,2.31-1,1.07.23,2.83,0,2.48,2-.63,3.6.14,7.21,0,10.82a23.64,23.64,0,0,0,3.11,13,12,12,0,0,0,16.05,5.23c1.56-.7,3-1.6,4.57-2.36,3.86-1.92,4.6-5.71,5.8-9.32,1-3.18,1-6.55,2-9.71,1.29,1.26.94,2.9.8,4.37-1.21,12.15-1.36,24.41-3.65,36.45a14.08,14.08,0,0,0,.71,8.41c2.15-3.45,2.79-7,3.56-10.45a107.41,107.41,0,0,0,2-17.5,96,96,0,0,0-.41-10.3c-.13-2.43-.39-4.86-.46-7.31,0-2-.5-4-2.36-5.22.18-1.06.37-2.12.54-3.18s.27-1.82,1.6-1.68c1.11.11,2,.46,2.09,1.69.42,6.4,1.21,12.77,1.34,19.2.25,12.37-2.41,24.47-3,36.76-.2,3.84-1.06,7.66-1.62,11.49a104.79,104.79,0,0,0-12.26,13.1c-1.55,2-3.3,2.76-5.94,1.78s-4.39.43-4.84,3.18a9.12,9.12,0,0,0,0,3.53c1.35,5.63,2.11,11.43,4.5,16.78.79,1.77,1.37,4.24,3.66,4.27s2.63-2.46,3.53-4.08a13.21,13.21,0,0,0,1.1-3.64c.77-3.47,1.44-3.9,4.62-2.61a17,17,0,0,0,6.59,1.5c9-.14,18,.07,26.57-3.28a5.45,5.45,0,0,0,2.41-1.46,66.35,66.35,0,0,1-12.18.53c-1.08,0-2.43.39-3-1.13,8.87-.44,17.45-2.69,26.17-4.07q8-1.27,16-2.58c2-.34,2.61.35,2.54,2.45-.46,14.85-.7,29.71-1.26,44.56-.12,3.25-.39,6.49-.39,9.75a4.19,4.19,0,0,1-1.09,3.22,3.43,3.43,0,0,1-2.28.75c-11.6.08-23.18,1.2-34.8.17-9.39-.84-18.81-.41-28.22.25a113.41,113.41,0,0,1-17.67-.34,95.88,95.88,0,0,1-24.17-5,21,21,0,0,1-12.57-10.9c-5.71-11.65-11.62-23.22-15.58-35.62a57.23,57.23,0,0,1-3-18.17c.14-13.6.77-27.2.7-40.81,0-6,1.27-12,2.16-18.05,1-6.35,1.65-12.75,2.68-19.11C93.11,72.83,93.34,70.93,94.52,69.33Z" transform="translate(-6.94 -7.29)"/><path class="cls-6" d="M94.52,69.33c-.93,5.78-2.23,11.54-2.67,17.36-.53,7-2.27,13.7-2.78,20.65s-.28,13.6-.33,20.39c0,8.62-.77,17.21-.66,25.84a61.56,61.56,0,0,0,3.86,19.85c3.86,10.94,9.13,21.26,14,31.75,3.29,7,8.84,10.4,15.77,12.52,12.17,3.74,24.67,4.76,37.26,4.17,5.33-.25,10.67-.3,16-.71,5-.38,10.11.38,15.17.64a185.06,185.06,0,0,0,22.59,0c4.26-.3,8.51-.23,12.77-.24-1.19,2.85-3.87,3.95-6.34,5.17a27.77,27.77,0,0,1-10,2.36c-12.65,1.18-25.34,1.25-38,1.23-14.26,0-28.52.1-42.77-.15a142,142,0,0,1-17.57-1.34c-4.18-.6-8.5-.07-12.64-1.3-9.15-2.72-16.64-7.8-21.09-16.34-2.06-4-1.7-8.81-2.62-13.22-2.88-13.77-1.36-27.62-.71-41.45.26-5.52-.08-11.06.66-16.57.92-7,1.71-14,2.47-21,.47-4.31.74-8.64,1.15-13,.64-7,3.15-13.53,4.25-20.4.3-1.87.55-3.75.88-5.61C84.42,73.28,87,69.39,94.52,69.33Z" transform="translate(-6.94 -7.29)"/><path class="cls-7" d="M156.77,164.8c7.3-3.12,14.45-6.48,22-8.84,8.09-2.54,15.56-6.8,23.86-8.7a99,99,0,0,1,25-2.59c3.72.11,6.89,2,10,3.82a2,2,0,0,1,.77.73c1.19,2.32-1.33,7.78-3.92,8.53-5.13,1.51-10.48,1.78-15.71,2.67-9.16,1.57-18.27,3.36-27.46,4.65C179.87,166.69,168.35,167.33,156.77,164.8Z" transform="translate(-6.94 -7.29)"/><path class="cls-8" d="M138.78,74.56c-.55-5.17,1.28-11.25,1.89-17.46.24-2.43,1.68-2.73,3.59-3a55.39,55.39,0,0,1,19.72.68,7.39,7.39,0,0,0,2.41.3c1.41-.14,1.78.7,1.83,1.76a13.51,13.51,0,0,1-.08,4.07c-1.86,7.16-3,14.45-4.43,21.7-.66,3.47-.81,7.08-3.57,9.58-3.55,3.22-7.66,5.66-12.67,4.36-4.34-1.13-6.31-4.67-7.61-8.75S138.91,79.78,138.78,74.56Z" transform="translate(-6.94 -7.29)"/><path class="cls-9" d="M183.54,168.19a46.35,46.35,0,0,0,12.67.11c1.31-.13,3.5-.75,3.71.23.35,1.64-1.85,1.75-3.08,2.27A46.65,46.65,0,0,1,179.39,174c-3.68.06-7.35.64-11.08.17a26.67,26.67,0,0,1-6.43-2c-1.36-.53-2.19-.54-2.37,1.28a17.53,17.53,0,0,1-3,8.07c-1.84,2.77-3.48,2.69-5.3-.09-3.14-4.8-4.14-10.33-5.29-15.79-.5-2.37-1.31-4.69-1.2-7.2.2-4.1,2.75-6.06,6.51-4.51a2.87,2.87,0,0,0,3.9-.88c3.36-3.78,6.42-7.83,10.16-11.28,1-.93,1.94-1.92,3.39-2.12.12.87.87,1.61-.33,2.56-5.37,4.26-9.12,10-13.54,15.13-.76.87-1.14,2-2.73,1.48-1.05-.34-1.58.61-1.17,1.49,2.44,5.27,2.11,11.14,3.65,16.59.13.48-.11,1.25.64,1.3s1-.66,1-1.31c.24-2.42.81-4.8.15-7.27-.33-1.23-.33-2,1.71-1.76a92.29,92.29,0,0,0,23.25.22A15.72,15.72,0,0,1,183.54,168.19Z" transform="translate(-6.94 -7.29)"/><path class="cls-10" d="M190.48,139.91a15.54,15.54,0,0,1-7.27,10.31c-5.3,3.4-11.3,5.15-17,7.53-3.07,1.28-6.09,2.69-9.14,4-.74.32-1.66.71-2.2-.13s.29-1.31.76-1.85c6.2-7.07,11.8-14.73,19.86-20,3.47-2.25,7-4.13,11.3-3.9A3.73,3.73,0,0,1,190.48,139.91Z" transform="translate(-6.94 -7.29)"/><path class="cls-11" d="M138.78,127.23c-.78,1.38-2.28,1.37-3.53,1.74-6.76,2-14.7-3.18-15.48-10.11-1.4-12.28-1.31-24.49,1.93-36.53a16,16,0,0,0,.25-2.42,10.33,10.33,0,0,0,5.44-1.58c-.3,5.83-.37,11.39-.92,16.91a186.71,186.71,0,0,0-.61,24.91c.12,3.7,2.5,5.9,6.19,6.45A29.82,29.82,0,0,0,138.78,127.23Z" transform="translate(-6.94 -7.29)"/><path class="cls-12" d="M167.8,75.44c.95-.67,1.67-.58,2.08.62a17.27,17.27,0,0,1,1.18,5c.18,5.15,1,10.31.82,15.43a94.87,94.87,0,0,1-1.59,16.68c-.93,4.33-1.55,8.7-3.5,12.74-.34.71-.36,1.74-1.43,1.73-1.24,0-.91-1.19-1.09-1.87-1.45-5.34.16-10.55.8-15.8.66-5.47,1.76-10.9,1.62-16.44s1.34-11,.95-16.51C167.69,76.47,167.75,76,167.8,75.44Z" transform="translate(-6.94 -7.29)"/><path class="cls-13" d="M129.07,65.91c-.62,2.9-.34,6.26-2.57,9-1,1.28-2.35,2.25-3.9,2-1.73-.28-2.59-1.74-2.92-3.5-.93-4.94.63-9.06,4.14-12.51,1.2-1.18,4.57.73,5.1,2.89A14,14,0,0,1,129.07,65.91Z" transform="translate(-6.94 -7.29)"/><path class="cls-13" d="M219.22,139.78c.73-2.48,2-4.83-.46-7,1.83-.74,1.8-.73,2.42.71.76,1.73.53,3.55.55,5.35a6.06,6.06,0,0,0,.66,3.45l-12.3,1c0-2.31,0-4.65,0-7-.05-3,1.46-4.41,4.49-3.93.79.13,1.57.34,2.62.57-1.38.31-2.53.58-3.67.82-.72.16-1.2.54-1.05,1.3a1.15,1.15,0,0,0,1.21.89Z" transform="translate(-6.94 -7.29)"/><path class="cls-14" d="M178.07,258.89c2-2.82,3.79-5.3,5.59-7.75.64-.86,1.15-1,1.67.24,1.09,2.46,2.34,4.85,3.64,7.51Z" transform="translate(-6.94 -7.29)"/><path class="cls-15" d="M108.31,247.62c2.83,2.44,4.81,5.73,8,8-4-.27-7.82.83-11.74.63C105.3,253.19,107.09,250.53,108.31,247.62Z" transform="translate(-6.94 -7.29)"/><path class="cls-16" d="M108.31,247.62c-.13,3.38-2.06,6-3.79,8.67-1.4,0-3.33.72-4-.41s1-2.32,1.74-3.39c1.33-1.92,2.84-3.72,4.32-5.53C107.73,245.5,107.77,247.27,108.31,247.62Z" transform="translate(-6.94 -7.29)"/><path class="cls-17" d="M141.05,123.61c-2-2.61-1.58-5.22,1-7.24,1.34,0,3.15-.81,3.67,1.07a4.34,4.34,0,0,1-1.77,5A15.43,15.43,0,0,1,141.05,123.61Z" transform="translate(-6.94 -7.29)"/><path class="cls-18" d="M144.14,45.45c5-4.7,23.47-4.2,25.51,0Z" transform="translate(-6.94 -7.29)"/><path class="cls-19" d="M221.7,213.91a7.49,7.49,0,0,1-1.63-4.55c0-.72-.06-1.45,0-2.18a244.59,244.59,0,0,0-1.52-32.24c-.54-5.42-.16-5.45-5.67-4.77-.81.1-1.72.24-2.22-.58s.14-1.55.62-2.18c1.87-2.43,7.08-3.87,10-2.87a4.67,4.67,0,0,1,3.14,5.17c-.69,9.69.84,19.4-.14,29C223.7,203.68,223.74,208.81,221.7,213.91Z" transform="translate(-6.94 -7.29)"/><path d="M145.92,78.11a52,52,0,0,1,2.65-13.94c.77-2.51,4.46-4.85,6.73-4.56,2.57.34,4,2.51,4.37,6a31.86,31.86,0,0,1-1.21,13.1,13.24,13.24,0,0,1-4.53,6.92c-3.17,2.44-6.3,1.45-7.26-2.39A15.11,15.11,0,0,1,145.92,78.11Z" transform="translate(-6.94 -7.29)"/><path class="cls-20" d="M121.87,68c.18-1.08.29-2.6,2.08-2.61,1.36,0,1.75,1.15,1.71,2.3,0,1.35-.65,2.57-2.08,2.73S121.8,69.43,121.87,68Z" transform="translate(-6.94 -7.29)"/></svg>