<svg id="Layer_1" data-name="Layer 1" xmlns="http://www.w3.org/2000/svg" viewBox="0 0 286.07 285.59"><defs><style>.cls-1{fill:#010101;}.cls-2{fill:#fefefe;}.cls-3{fill:#020202;}.cls-4{fill:#839f5e;}.cls-5{fill:#1d8767;}.cls-6{fill:#829e5e;}.cls-7{fill:#1f8667;}.cls-8{fill:#1e8666;}.cls-9{fill:#fcfcfc;}.cls-10{fill:#fbfbfc;}.cls-11{fill:#f4f4f4;}.cls-12{fill:#f3f3f3;}.cls-13{fill:#f9f9f9;}.cls-14{fill:#f8f8f8;}.cls-15{fill:#ececec;}.cls-16{fill:#f5f5f5;}.cls-17{fill:#fafafa;}.cls-18{fill:#7c9a5f;}.cls-19{fill:#f0f0f0;}.cls-20{fill:#f2f2f2;}.cls-21{fill:#458962;}.cls-22{fill:#fdfdfe;}.cls-23{fill:#fdfdfd;}.cls-24{fill:#ded93b;}.cls-25{fill:#e0d938;}.cls-26{fill:#ddda3d;}.cls-27{fill:#d5d84a;}.cls-28{fill:#d4d94d;}.cls-29{fill:#0f0f0f;}.cls-30{fill:#0c0c0c;}</style></defs><title>10</title><path class="cls-1" d="M146.45,7.22c35.8,0,71.59-.08,107.38.08,5.93,0,12,.23,17.74,2.08,9.39,3,15.78,9.23,19.48,18.38,2,4.88,1.88,9.82,1.71,14.93-.29,9-.45,17.94-.43,26.93.07,52.89,0,105.79.1,158.68,0,7-.11,14.08.37,21.15.49,7.24.36,14.73-1.86,21.85-3,9.53-9.29,15.91-18.52,19.71-5.51,2.27-11.16,1.77-16.82,1.67-1.72,0-3.44,0-5.16,0l-123.35-.14c-22.35,0-44.7-.23-67.05.14-6.89.12-13.75,0-20.62-.19-9.08-.19-17.38-2.67-23.82-9.54a30.31,30.31,0,0,1-8.5-24.34c.72-8.51.23-17.07.25-25.61q.06-51.54,0-103.06c0-24.63.13-49.26-.07-73.89a179.84,179.84,0,0,1,.6-21.15c1.33-12.21,7.9-20.51,19-25.46,5-2.22,10.21-2.16,15.45-2.16q52.05,0,104.1,0Z" transform="translate(-6.97 -7.2)"/><path class="cls-2" d="M145.41,11.54q52.74,0,105.47.05a107.59,107.59,0,0,1,16.55,1.07c12.42,2,21.45,13.76,21.28,25.88-.95,65.78-.33,131.57-.37,197.35,0,9.16.14,18.31-.17,27.48-.47,14.44-13.19,25.28-26,25.23-47.87-.18-95.74-.08-143.62-.08-21.07,0-42.15-.16-63.22.06-7.82.08-15.64.12-23.3-1.17A25.1,25.1,0,0,1,11.7,266.56c-.71-4.52-.34-9.22-.34-13.83q0-102.37,0-204.76a85,85,0,0,1,.92-15.2C14.6,20.1,26.43,11.49,38,11.56c35.79.22,71.58.08,107.37.08Z" transform="translate(-6.97 -7.2)"/><path class="cls-3" d="M216.09,208.42l1.85-.69c3.6-1.39,5.49-1,7.13,1.52,1.41,2.16.94,5.49-1.26,7.71a27.89,27.89,0,0,1-10.75,6.66c-3.68,1.3-6.55,4.16-10.29,5.35-1,.32-.77,1.3-.85,2.1-.66,7.32-.37,14.68-1.17,22-.31,2.82.36,5.75.58,8.63.19,2.48,0,4.43-2.94,5.59A21,21,0,0,1,187.81,269c-2.88-.39-4-2.28-3.05-5.09,1.86-5.66,5.09-10,11.45-11,.9-.14,1.47-.22,1.52-1.37.29-6.78.66-13.57,1.44-20.33a3.83,3.83,0,0,0-.22-.94c-6.1,2.45-12.47,3.1-18.9,3.25a36.1,36.1,0,0,1-7-.72c-1.28-.23-1.78-.15-1.81,1.3-.12,4.45-1.08,9.29,0,13.24,1.35,5.14.47,10.45,2.35,15.33a1.7,1.7,0,0,1-.39,2.08,10.47,10.47,0,0,1-5.09,3c-3,1-6.08.81-9.12,1.28a4.33,4.33,0,0,1-4.55-1.79c-1-1.69-.38-3.51.45-5.18a15.7,15.7,0,0,1,11.28-8.53c1.66-.36,1.76-1,1.69-2.31a88.23,88.23,0,0,1,1-17.64c.17-1.1-.12-1.56-1-1.84-2.82-.94-3.44-3.42-3.72-5.82a44.91,44.91,0,0,1,.6-13.19,5.74,5.74,0,0,0-5-7,486.2,486.2,0,0,0-49.4-4.27c-9.25-.35-18.51-.59-27.72-1.37-5.54-.47-11.16-.78-16.54-2.63-5.72-2-8.13-7.59-4.73-13.55.34-.59.76-1.12,1.43-1.14,10.76-.29,21.52-.61,32.29,0,7.24.39,14.49.85,21.75,1,11.24.18,22.45,1.47,33.72.79,4.43-.26,8.83-1.06,13.28-.78,1.23.08,1.65-.76,1.78-1.64.57-4,1.14-8,1.52-12.08.14-1.4-.36-2.92-2.29-2.48-5.48,1.27-11,.85-16.53.62-22-1-44.11-1-66.16-.44a122.74,122.74,0,0,1-14.86-.25,12,12,0,0,1-5.49-2.14c-2-1.36-1.07-3.76-.76-5.56,1-5.91,4.52-8.53,10.58-8.69,12.53-.32,25,1.42,37.5,1.47,12,0,23.95-.51,35.91-1,7.07-.28,14.31-.17,21.08-3.1,3.82-1.65,5.78-4.33,5.89-8.41.15-5.43-.56-10.89.48-16.3.25-1.34-.24-2-1.73-2-2.93-.11-5.79.55-8.68.6-15.07.25-30.16.32-45.2-.68-7.35-.49-14.69-.35-22-.6a26,26,0,0,1-8.53-1.27c-2.39-.91-4.22-2.17-3.93-5.35.12-1.32-.39-2.83-.37-4.28.07-4.33.7-5.19,4.9-6.08,1.8-.39,2.87-.78,3-3.16.16-4.49.94-9,1.54-13.43.19-1.41-.68-1.18-1.47-1.18-2.53,0-5.07.19-7.55-.64-2.09-.7-3.41-1.81-3.22-4.3a38.07,38.07,0,0,1,1.06-6.14c1-4.25,4.94-5,8.18-5.69,4.94-1,9.84-2.19,14.82-3a104.24,104.24,0,0,1,20.56-1.36c2.79.07,4.21-.53,4.7-3.67.76-4.95,6.83-8.21,11.81-7.55,5.37.72,8.23,3.58,9.33,8.63.27,1.21,1.09,1.26,2.07,1.17,2.26-.2,4.52-.43,6.78-.51,1,0,1.07-.6,1.32-1.33,1.71-5,5.44-7.85,10.49-8.14,5.26-.29,9,2.47,11.23,7.42,1,2.34,3.52,1.41,5,1a38.9,38.9,0,0,0,12.38-5c5-3.29,9.57-6.81,12.51-12.13.32-.59.78-1.09,1.52-.82s.82,1.22.82,1.87c-.05,3.17.34,6.49-.49,9.47-.71,2.61,1.31,3.1,2.1,3,2.54-.34,2.35,1.23,2.06,2.55-2.21,10-3.38,20.08-5,30.12a75.88,75.88,0,0,1-4.22,16.65c-3,7.45-8.5,11.72-16.26,13.22-1.59.3-2.25.79-2.33,2.57-.32,7.34.27,14.71-.5,22-.09.81-.47,1.67,1,2,11.36,2.63,19.3,9.09,23.32,20.33,4.09,11.41,4.25,23,3,34.86C216.25,204.65,216.21,206.37,216.09,208.42Z" transform="translate(-6.97 -7.2)"/><path class="cls-4" d="M174.88,121.77a3.38,3.38,0,0,0-2.88-2.84c-3-1.92-6.39-2.25-9.9-2.41-12.78-.57-25.58-.25-38.36-.64-5.49-.16-11-1.06-16.49-1.6-1.24-.12-2.41-.52-2.62-1.93a3.43,3.43,0,0,1,2-3.81c2.06-1,4.4-.93,6.57-1.53,18-.28,35.93-.17,53.89,0,3,0,6,0,9-.14,4.64-.19,5.94-1.08,6.84-5.68s1.7-9.44.7-14.23c-.88-4.17-3.21-6.2-7.39-6-11,.52-22.11.49-33.17.64-6.16.08-12.32-.13-18.48-.21-5.62-2-11.34-3.64-17.08-5.26-2.49-.7-3.09-2.16-2.27-4.61a7.27,7.27,0,0,1,1.38-2.64c3.52-1.44,7.31-1,11-1.51,1.6-.22,3.27.11,4.89,0,3.37-.31,5.66.24,7.78,3.7,4.34,7.07,15,6,18.34-1.61,1.16-2.65,2.62-3.56,5.25-3.32A10.52,10.52,0,0,0,156,66c2-.24,3.2-.13,3.92,2.52,1.43,5.24,6.17,8.12,11.41,7.84a10.75,10.75,0,0,0,10.43-9c.49-2.29,1.41-2.64,3.55-2.84a31.73,31.73,0,0,0,13.74-4.41,50.3,50.3,0,0,0,11.43-9.37,18.38,18.38,0,0,1-.81,8.9c-.66,2.25-1.49,4.45-2.12,6.71-.37,1.32-.21,2.05,1.62,1.45a10.72,10.72,0,0,0,4.54-3.1c-1.21,8-2.69,15.83-3.45,23.7a59,59,0,0,1-4.14,17.47,20.11,20.11,0,0,1-13.75,12.38c-3.63,1-5.18,3-5.53,6.87-.63,7.07-.65,14.14-.63,21.22a5,5,0,0,1-.2,1.87c-.84,2.06.95,2.5,1.87,2.14,2.33-.91,4.17.29,5.95,1.07a29.82,29.82,0,0,1,17.55,20.05c3.26,11.23,3.12,22.47,1.6,33.84-.24,1.79,0,3.62-.65,5.39-.4,1.15.28,1.24,1.34,1.16,1.89-.14,3.42-1.13,5.08-1.81,1.23-.5,2.43-.77,3.49.34s.27,2.22-.1,3.29c-.49,1.38-1.78,2-2.84,2.83-3.43,2.63-6.69,5.58-11.23,6.21-8.24,3.25-15.08-.12-21.45-4.83a11.55,11.55,0,0,1-4.32-8.26,84.7,84.7,0,0,1-.74-10.58,90.39,90.39,0,0,0-2.4-21.86,19.06,19.06,0,0,1-.3-4.33q0-18.68,0-37.33C178.89,130.55,178.34,125.74,174.88,121.77Z" transform="translate(-6.97 -7.2)"/><path class="cls-5" d="M174.88,121.77a5.86,5.86,0,0,1,3.73,4.64,41.85,41.85,0,0,1,1.1,9.14c-.06,11.17.15,22.35-.07,33.52A65.63,65.63,0,0,0,181,182.23a94.48,94.48,0,0,1,1.5,15.91c.06,3.89-.08,7.85.6,11.65,1,5.34,4.47,8.89,9.46,11a25.56,25.56,0,0,0,15.58,1.91,55.93,55.93,0,0,1-32.5,7.45c-1.79-.13-3.58-.44-5.36-.68s-2.7-1.22-3.2-3.08c-1.13-4.12-.12-8.15.42-12.11.92-6.85-1.49-10.34-8.36-10.81a5.23,5.23,0,0,1-1.23-.41c.08-1.47,1.28-1.31,2.15-1.32,2,0,4-.49,5.94-.39a2.93,2.93,0,0,0,3.11-2,16.37,16.37,0,0,0,1-8.77c-.17-1.73-1.12-2.49-3-2.3-1.44.15-3.16.51-3.75-1.57,3.85-.37,4.58-1.06,5.3-4.83a79.39,79.39,0,0,0,1.16-11.8c.14-3.54-1.7-5.41-5.24-6,.5-1.38,1.83-2.11,2.56-3.34a5.47,5.47,0,0,0,.36-5.14c-.78-1.86-2.49-1.38-4-1.5-1.21-.1-2.54.32-3.53-.79,1.45-1.23,3.34-1.26,5-1.73,7-1.94,11.2-8.33,10.12-16C174.53,131,174.82,126.37,174.88,121.77Z" transform="translate(-6.97 -7.2)"/><path class="cls-4" d="M163.37,186.71a3.49,3.49,0,0,0,3.79.85c2.6-1,3.45.62,3.7,2.48.52,3.91.27,7.75-1.93,11.28-.52.84-.94,1.23-1.88,1-2.87-.59-5.71.38-8.58.25-.2,0-.41.31-.61.48-5.32-1-10.68-1.74-16-2.62s-10.82-.66-16.24-.87c-10.83-.43-21.64-1.35-32.46-2-3.71-.22-7.44-.18-11.15-.25-1.18-2,.68-2.08,1.62-2.41,4.19-1.47,8.45-2.72,12.73-3.89,5-1.36,10-2.74,15-3.86a20.08,20.08,0,0,1,4.55-.55c7.16-.59,14.28.66,21.43.66,7,0,13.94.23,20.89-.68A32.84,32.84,0,0,1,163.37,186.71Z" transform="translate(-6.97 -7.2)"/><path class="cls-6" d="M160,153.29c1.36,0,2.72.08,4.08.09,3.74,0,5.07,1.28,4.62,5-.29,2.51-1.46,4.72-4.13,5.64a7.11,7.11,0,0,1-4.52,1.4c-15.32.31-30.6-1.12-45.94-.83-5.76.11-11.57-.42-17.37-.33-.5-.9.06-1.44.75-1.71,5.64-2.18,10.77-5.57,16.71-7l2.38-.15c3.7-.37,7.41,0,11.11-.22Z" transform="translate(-6.97 -7.2)"/><path class="cls-7" d="M113.21,107c-1.86.64-3.69,1.43-5.6,1.88a2.92,2.92,0,0,0-2.41,3.39c.13,1.7,1.76,1.1,2.85,1.25,14.32,2,28.74,1.35,43.12,1.86,5.49.19,11-.21,16.53.72a5.91,5.91,0,0,1,4.3,2.82c-4.88-.21-9.59,1.48-14.5,1.12-13.21-.94-26.48.12-39.66-1.14-7.52-.72-15-.27-22.53-.55a29.89,29.89,0,0,1-8-1.28c-1.79-.57-2.78-1.59-2.57-3.57a19.8,19.8,0,0,0,0-2.18c0-4.08,1.44-5.45,5.69-5.29C98,106.34,105.63,106.69,113.21,107Z" transform="translate(-6.97 -7.2)"/><path class="cls-5" d="M114.22,155.57c-4.74,2.2-9.5,4.34-14.19,6.64-1.14.56-2.79.45-3.27,2.09-4.4.87-8.85.35-13.28.49-4.67.14-9.32,1-14,.06-2.14-.43-4.42-.39-5.73-2.35-.8-1.2,1.23-6.23,2.74-7.38a6.33,6.33,0,0,1,3.8-1.24A266.14,266.14,0,0,1,97.91,155C103.32,155.47,108.78,155.4,114.22,155.57Z" transform="translate(-6.97 -7.2)"/><path class="cls-8" d="M115.9,186.65c-4.77,1.25-9.56,2.42-14.3,3.77-6,1.71-12.06,3.55-18.09,5.35-.77.24-2,.09-1.51,1.59a95.12,95.12,0,0,1-10.44-1.05,19.16,19.16,0,0,1-7-2.59c-2.13-1.46-2.94-6.08-1.66-8.23.43-.74,1.09-.46,1.69-.45,10.7.14,21.42.05,32.11.52,5.53.24,11,.38,16.58.53A5.38,5.38,0,0,1,115.9,186.65Z" transform="translate(-6.97 -7.2)"/><path class="cls-5" d="M106.61,68.84a7,7,0,0,1-.19,1.86c-1.47,3.71-1.06,4.22,2.83,5.24,5.24,1.39,10.73,2.17,15.33,5.41a181.77,181.77,0,0,1-19.52,1c-6.15.08-12.22,1.29-18.39,1.19-5-.08-5.4-.68-4.51-5.43.56-3,2.13-4.71,4.94-5.36,6-1.38,11.92-2.67,17.88-4A6.89,6.89,0,0,1,106.61,68.84Z" transform="translate(-6.97 -7.2)"/><path class="cls-9" d="M170.78,56.44c4.73,0,8.42,4.1,8.4,9.42,0,3.67-4.32,7.5-8.4,7.46a8.44,8.44,0,0,1,0-16.88Z" transform="translate(-6.97 -7.2)"/><path class="cls-10" d="M146.6,64.83c-.35,4.67-4.07,8.14-8.29,7.75a8.33,8.33,0,0,1-7.48-8.79,8,8,0,0,1,8.61-7.54A7.89,7.89,0,0,1,146.6,64.83Z" transform="translate(-6.97 -7.2)"/><path class="cls-11" d="M180.87,88.28a41,41,0,0,1-.4,10.67c-.66,5.19-.92,5.15-6.45,5.18a29.89,29.89,0,0,0-3.79.22c-2.43.34-2.86-.07-2.33-2.5a9.63,9.63,0,0,1,.46-1.27c.57-1.45-.65-3.61,1.11-4.4,1.3-.58,3-.2,4.57-.24,1.36,0,2.72,0,4.08-.06,1,0,2-.32,1.93-1.4-.09-1.32-1.33-1.44-2.3-1.14-2.49.79-5,.41-7.55.51-.38,0-.71,0-.8-.49,1.39-1.17,3.1-.72,4.67-.81C177.16,92.37,179.91,91.79,180.87,88.28Z" transform="translate(-6.97 -7.2)"/><path class="cls-9" d="M180.87,88.28c-.48,4.52-.57,4.62-6.38,5-1.69.12-3.4,0-5.09,0-.05-2.69-.07-5.38-.17-8.06,0-1.23.55-1.54,1.62-1.55,1.62,0,3.24-.11,4.85-.21C179.39,83.32,180.6,84.42,180.87,88.28Z" transform="translate(-6.97 -7.2)"/><path class="cls-12" d="M161.38,84.32c1.72,0,3.85-.62,5.06.16,1.52,1-.25,3.1.06,4.75a15.85,15.85,0,0,1,0,2.18c.06,1.68-.35,2.38-2.35,2a26.7,26.7,0,0,0-6.51-.15c-1.74.1-2.32-.54-2.08-2.17a7.9,7.9,0,0,0,0-1.09C155.57,84.25,155.57,84.25,161.38,84.32Z" transform="translate(-6.97 -7.2)"/><path class="cls-13" d="M135.1,84.27c6.26,0,6.25,0,5.34,6.1-.21,1.41-.67,2.24-2.37,2.18a69,69,0,0,0-7,.31c-1.41.1-2-.43-1.89-1.85a4.87,4.87,0,0,0,0-.54C128.88,84.27,128.88,84.27,135.1,84.27Z" transform="translate(-6.97 -7.2)"/><path class="cls-14" d="M135.22,104.11c-5.43,0-5.43,0-5.61-5.44-.12-3.49-.12-3.49,3.33-3.49,2.17,0,4.83-.76,6.38.23s0,4,.68,5.86c1,2.93-.38,3.12-2.6,2.85A19.81,19.81,0,0,0,135.22,104.11Z" transform="translate(-6.97 -7.2)"/><path class="cls-12" d="M121.44,104.13c-6,0-5.92,0-5.2-6.08.25-2.14.94-3,3.16-2.8,2.06.18,4.53-.71,6.13.16,1.92,1,.19,3.84.89,5.72,1.12,3-.44,3.31-2.81,3A17.44,17.44,0,0,0,121.44,104.13Z" transform="translate(-6.97 -7.2)"/><path class="cls-15" d="M165.83,100c0,4.73,0,4.72-4.7,4.26a13.81,13.81,0,0,0-3.51-.11c-2.75.44-3.06-1-2.59-3.11a8.37,8.37,0,0,1,.33-1.31c.46-1.28-.49-3.15.61-3.84,1.48-1,3.48-.46,5.27-.44a5,5,0,0,1,.54.06C165.84,96,165.84,96,165.83,100Z" transform="translate(-6.97 -7.2)"/><path class="cls-16" d="M147.68,104.23c-5,.16-5,.16-5-4.85,0-4.24,0-4.24,4.31-4.21,5.44,0,5.44,0,5.54,4C152.68,104.07,152.68,104.07,147.68,104.23Z" transform="translate(-6.97 -7.2)"/><path class="cls-12" d="M148.31,84.26c4.63-.05,4.63-.05,4.57,4.49s-.07,4.53-4.54,4.34c-1.53-.07-3-.4-4.56-.58-.78-.09-1.13-.47-1.06-1.25.19-2.07.35-4.14.58-6.21.1-.86.85-.78,1.48-.79C146,84.25,147.13,84.26,148.31,84.26Z" transform="translate(-6.97 -7.2)"/><path class="cls-17" d="M97.28,94.51c4.92.19,4.89.2,5,4.73,0,1.49.88,3.46.21,4.36-.86,1.17-2.85,0-4.38.08-5.49.43-5.49.37-5.18-5A4.93,4.93,0,0,0,93,97.59c-.43-2.82,1-3.5,3.45-3.09A3.26,3.26,0,0,0,97.28,94.51Z" transform="translate(-6.97 -7.2)"/><path class="cls-18" d="M159.62,265.52c-2.16.15-2.73,0-1.94-1.87,2-4.61,5.62-6.81,10.25-7.91,1.15-.27,1.5,0,1.49,1.08a12.6,12.6,0,0,0,.11,1.62c.75,5.58.5,5.9-5.15,6.58C162.58,265.23,160.79,265.4,159.62,265.52Z" transform="translate(-6.97 -7.2)"/><path class="cls-19" d="M121.26,93.2c-4.74,0-4.74,0-4.77-4.72,0-3.67,0-3.67,3.66-4,6.27-.49,6.12-.49,6.24,5.61,0,2.59-.85,3.39-3.22,3.1A15.2,15.2,0,0,0,121.26,93.2Z" transform="translate(-6.97 -7.2)"/><path class="cls-20" d="M109.94,95.22h.15c3.74.09,3.73.09,3.39,3.83,0,.45,0,.9-.06,1.35-.06,3.71-.06,3.71-4,3.71-5.53,0-5.53,0-4.77-5.46C105.18,95.1,105.18,95.1,109.94,95.22Z" transform="translate(-6.97 -7.2)"/><path class="cls-21" d="M190,265.67c-2,.37-2.35-.53-1.42-2.7a14.86,14.86,0,0,1,6.36-7.16c1.5-.89,2.57-.68,2.7,1.41a15.43,15.43,0,0,0,1,5.29c.62,1.46.33,2.92-1.94,2.6C194.5,264.81,192.48,265.62,190,265.67Z" transform="translate(-6.97 -7.2)"/><path class="cls-22" d="M109.79,85c4.32,0,4.39,0,4.18,4.25-.23,4.62.55,3.9-4.21,3.93s-4.63,0-4.63-4.56C105.13,85,105.13,85,109.79,85Z" transform="translate(-6.97 -7.2)"/><path class="cls-23" d="M97.84,92.46c-4.43,0-5.44-1.31-4.51-5.68.19-.88.77-.9,1.37-1,2.41-.29,4.88.12,7.25-.63.23-.08.7-.06.75,0,.9,2.15-.2,4.22-.29,6.33-.06,1.32-1.15.83-1.87.88C99.65,92.51,98.74,92.46,97.84,92.46Z" transform="translate(-6.97 -7.2)"/><path class="cls-5" d="M127.71,155.2c-3.7.57-7.41.2-11.12.22C120.29,154.71,124,155.1,127.71,155.2Z" transform="translate(-6.97 -7.2)"/><path class="cls-24" d="M206.33,202.21a25.12,25.12,0,0,1-1.49-10.91c.65-10.21-3.89-18.73-8.58-27.22a8.68,8.68,0,0,0-5.18-4.12c-1.44-.47-3.08-1.33-2.36-3s2.4-1.68,4.18-.75a21.67,21.67,0,0,1,9.23,9.63c3.13,6.17,6.37,12.41,7.33,19.4C210.27,191.17,209.66,197,206.33,202.21Z" transform="translate(-6.97 -7.2)"/><path class="cls-25" d="M208.08,80.79c-.07,8.5-3.45,15.9-7.69,23-.33.54-.73,1.27-1.39,1.14-.91-.18-.71-1.1-.77-1.8-.26-3.4.68-6.65,1.48-9.86,1.25-5,3.18-9.78,4.33-14.8a6.94,6.94,0,0,1,1.51-3.15c.5-.57.68-1.72,1.74-1.31.9.35.78,1.34.79,2.15C208.1,77.71,208.08,79.25,208.08,80.79Z" transform="translate(-6.97 -7.2)"/><path class="cls-26" d="M172.86,112.54c-5.42,1.44-10.89,1.06-16.36.8a41.47,41.47,0,0,1-5.11-.47c-.92-.15-2.18-.43-2.1-1.71s1.31-1.34,2.28-1.41a37.87,37.87,0,0,1,8.9.56C164.6,111,168.87,110.78,172.86,112.54Z" transform="translate(-6.97 -7.2)"/><path class="cls-27" d="M213.1,218.48c-.42,0-.49-.39-.28-1.06.42-1.34,4.54-4.92,5.86-4.94,1.11,0,1.39.53,1,1.57C219.17,215.42,215,218.47,213.1,218.48Z" transform="translate(-6.97 -7.2)"/><path class="cls-28" d="M156.56,160.47c-.6-.18-1.91.53-2.16-.56s1.11-1.25,1.86-1.61a10.76,10.76,0,0,1,4.67-1.14c.68,0,1.58-.21,1.74.8a1.56,1.56,0,0,1-1.15,1.66A11.88,11.88,0,0,1,156.56,160.47Z" transform="translate(-6.97 -7.2)"/><path class="cls-29" d="M167.06,65c-.08-1.63.55-3,2.15-2.81a3.23,3.23,0,0,1,2.85,3.38c.05,1.57-.82,2.45-2.29,2.29S166.8,67,167.06,65Z" transform="translate(-6.97 -7.2)"/><path class="cls-30" d="M136.27,64.46c.2-1.57.55-2.77,2.41-2.78s2.18,1.11,2.09,2.47-.72,2.57-2.52,2.51C136.65,66.61,136.35,65.6,136.27,64.46Z" transform="translate(-6.97 -7.2)"/></svg>