<svg id="Layer_1" data-name="Layer 1" xmlns="http://www.w3.org/2000/svg" viewBox="0 0 286.13 285.43"><defs><style>.cls-1{fill:#010101;}.cls-2{fill:#fefefe;}.cls-3{fill:#010407;}.cls-4{fill:#75cbdc;}.cls-5{fill:#4298a9;}.cls-6{fill:#ee8876;}.cls-7{fill:#78cada;}.cls-8{fill:#75cbdb;}.cls-9{fill:#4299a9;}.cls-10{fill:#4398a9;}.cls-11{fill:#4398aa;}.cls-12{fill:#4398a8;}.cls-13{fill:#4696a6;}.cls-14{fill:#cfd554;}.cls-15{fill:#c3d06a;}.cls-16{fill:#c0d460;}.cls-17{fill:#d9da43;}.cls-18{fill:#d6da47;}.cls-19{fill:#020508;}.cls-20{fill:#030407;}.cls-21{fill:#dcd93e;}.cls-22{fill:#4499a7;}.cls-23{fill:#fbfbfb;}.cls-24{fill:#5cabb8;}.cls-25{fill:#c3d46a;}.cls-26{fill:#fbfcfc;}.cls-27{fill:#030302;}</style></defs><title>15</title><path class="cls-1" d="M146.48,7.31c35.79,0,71.59-.1,107.38.09,7,0,14.12.32,20.81,3.15,11,4.64,19.53,17.28,18.27,30.86a139.13,139.13,0,0,0-.5,22c.15,2.25,0,4.53,0,6.8q0,79.43.06,158.86c0,6.76-.07,13.53.37,20.32.47,7.33.37,14.92-1.94,22.1-3,9.38-9.3,15.68-18.44,19.43-5.52,2.27-11.16,1.79-16.81,1.67-1.72,0-3.44,0-5.16,0l-144.35-.14c-15.44,0-30.9-.32-46.33.14-6.81.2-13.58,0-20.35-.2C24.16,292,12.71,285,7.6,268.54A21,21,0,0,1,7,261.25c.88-13.62.31-27.24.34-40.85q.15-82.3,0-164.59c0-8.15-.48-16.33,1.16-24.34C10.76,20.36,17.73,13.13,28.19,9c4.72-1.86,9.6-1.64,14.45-1.65q51.92-.08,103.84,0Z" transform="translate(-6.94 -7.28)"/><path class="cls-2" d="M11.34,149.81q0-46.61,0-93.19c0-8-.29-16,1.07-23.9,2.3-13.29,14.69-21,25.24-21.06q107-.33,213.94,0a99.46,99.46,0,0,1,16,1.1C280.53,15,288.9,27.16,288.74,38.48c-.94,65.73-.34,131.48-.38,197.22,0,9.16.12,18.3-.14,27.46-.4,14.08-12.82,25.44-26.39,25.38-52.33-.24-104.65-.1-157-.1-16.35,0-32.71-.23-49.06.09-7,.13-14-.19-20.9-.73a25.58,25.58,0,0,1-23.37-22.24c-.74-5.34-.17-10.86-.17-16.3V149.81Z" transform="translate(-6.94 -7.28)"/><path class="cls-3" d="M189.12,156.42a13.79,13.79,0,0,0,2,.67c6,.77,8.88,5.65,9.29,11,.15,2-1.52,3-2.77,4.06-.73.6-1.07,1-1,1.88.24,3.26.45,6.52.73,9.77.21,2.34,1.37,3.39,3.9,3.44a38.87,38.87,0,0,1,20.25,5.72c5.9,3.65,8.8,9.26,10.45,15.51,2.21,8.36,1.22,16.93.46,25.42-.22,2.43-.63,4.84-.9,7.26-.32,3-1.51,4.24-4.49,4.28-8.08.1-16.16,0-24.24.23-3.1.07-4-1.57-3.34-4.39,1.34-5.47,5.15-8.93,10.27-11,.08,0,.19,0,.27,0,1.84-.76,5.28-.34,5.44-1.72.4-3.36.9-7-1.13-10.31-2.63-4.26-5.32-8.39-9.58-11.28a15.81,15.81,0,0,0-8.65-2.74c-5.26-.13-10.53-.08-15.8.18-6.32.33-12.67.28-19,.24-13.9-.07-27.8-.11-41.68.63-5.33.28-10.65,1.65-16,1-6-.76-10.77,1.49-15.38,4.86s-5.95,8.06-5.81,13.5c.07,2.9,0,5.14,4.19,4.89,2.75-.16,5.41,1.42,7.72,3.33a9.94,9.94,0,0,1,3.71,9.83c-.17.77-.67.77-1.14.88a18.49,18.49,0,0,1-3.43.64c-7.33.23-14.66.64-22,.46-4.27-.11-6-2.29-6.31-6.56a114.19,114.19,0,0,1,1.34-29.27c1.59-8.66,5.53-16.52,13.33-21.54,2.42-1.56,2.6-3.48,2-5.75a27.42,27.42,0,0,1-.84-6.68c-.17-13.53.68-27,1.29-40.51.57-12.37,1.15-24.8,3.08-37.07C87.5,83.85,93,72.24,103,63c4.09-3.78,9.15-5.58,14.33-7.22,10.08-3.17,20.5-3.06,30.88-3.41a126.88,126.88,0,0,1,22.77,1c8.41,1.25,14.52-2.9,21.26-6,1.95-.89,3.75-2.1,5.85-2.68a3,3,0,0,1,4,2.87,11.44,11.44,0,0,1-1.85,6.3c1.45.44,3.23-.49,4.07,1.32.71,1.54.29,3,0,4.51-1.24,5.76-4.4,10.79-6.24,16.34a75.24,75.24,0,0,0-3.65,21c-.49,12.86-1.07,25.72-1.63,38.58-.07,1.71-.27,3.22,2.3,3.41,2.38.18,3.14,2,3.05,4.31C197.91,149.39,195.57,154.08,189.12,156.42Z" transform="translate(-6.94 -7.28)"/><path class="cls-4" d="M187.36,130.55l2.72-.3a24.57,24.57,0,0,0,.06,4.94c.7,3.26-1,4.71-3.74,4.94-8.37.72-16.43,3-24.63,4.56-8.62-.34-13.19,5.23-17.11,11.73a32.88,32.88,0,0,0-1.75,4c-3.23,7.42.34,13.13,6.91,17a15.64,15.64,0,0,0,8.39,2,83.55,83.55,0,0,1,14.91.47c-5-.47-9-4-13.82-4.82-.61-.11-1.38-.24-1.67-.8-.52-1,0-1,.8-.67,4.41.32,8.67,1.65,13.16,1.69a90.88,90.88,0,0,0,20.14-2.52c2.24-.5,2.71.13,2.75,2.16.05,3.26.28,6.52.51,9.78.26,3.55,1.24,4.22,4.76,4.19a23.65,23.65,0,0,1,9.47,1.59c-1.33,1.13-3,.52-4.44.74-.61.1-1.44,0-1.55.81s.74.85,1.32,1a23.35,23.35,0,0,1,11.94,6.51c2,2,4.74,3.35,5.95,6.56.66-3.54-1.55-5.39-3.3-7.27-2.63-2.82-5.09-6-9.25-6.78-.72-.14-1.36-.65-.72-1.58,9.18,1.37,15.72,6,19.21,14.86,3.13,7.9,2,16,1.72,24.11-.15,3.87-.91,7.71-1.29,11.57-.11,1.21-.52,1.71-1.76,1.89a60.14,60.14,0,0,1-11.38.39c-3-3.65-3.09-9.05,0-11.8l1.57-.7c.5-.39.94-.85,1.46-1.22,6.77-4.83,7.45-13.37,1.67-19.48-4.32-4.56-9.39-7.37-15.77-7.41-2,0-3.8-1.19-5.84-.8l-17.35.13c-4.86-.26-9.71-.68-14.56-1.05a86.83,86.83,0,0,0-10.06-.37c-10.19.4-20.05-1.57-29.87-3.94a103.07,103.07,0,0,0-10.4-2.13,12.51,12.51,0,0,1-8.28-4.24,27.93,27.93,0,0,0-4.83-4.38,20.6,20.6,0,0,1-8.73-15.1c-.56-5.69-2-11.29-1.89-17a147.49,147.49,0,0,1,1.66-18.15,2.81,2.81,0,0,1,.77-1.7,46.25,46.25,0,0,1,9.18-.66c16.49-.37,33-.64,49.45-1.16,8.68-.27,17.34-1,26-1.45,1.08,0,2.17.06,3.25.1.26.06.67,0,.75.19C185.33,133.64,186.35,132.12,187.36,130.55Z" transform="translate(-6.94 -7.28)"/><path class="cls-4" d="M180.29,113.47a10.94,10.94,0,0,0,4.46,2.75c-1.19,2.21-.39,5-1.87,7.08-5.54,0-11.08.16-16.61.07-16.7-.25-33.39.23-50.08.7-5.35.15-10.67-.08-16,0-4,.37-4.06.26-3.47-3.6,2.19-14.34,7.5-27.58,14.22-40.31.72-1.38,1.58-3.79,3.07-3.36,1.88.54.46,2.83.53,4.35a15.47,15.47,0,0,0,2,7.27c1.84,3.12,5.37,4,9.62,2.44,2.38-.45,4.8-.53,7.09-1.63,6.62-3.19,7.19-11.41,4.71-15.9-2.83-5.13-10.57-7-15.71-3.94-1.4.84-2.45,2.14-3.9,2.91-2.14-.51-.77-1.67-.29-2.33,4.77-6.69,10.1-12.7,18.6-14.67,4.49-.31,9-.81,13.48-.86a107.64,107.64,0,0,1,12.44.64c4.38.46,8.81-.1,13.19,1.16,2.46.71,5.12-.73,7.48-1.86,4.23-2,8.38-4.23,12.58-6.31,1.18-.59,2.66-1.7,3.72-.75s0,2.58-.42,3.77c-.91,2.39-2.74,4.24-4.08,6.38-.36.57-1,1.33-.37,1.93a1.65,1.65,0,0,0,2.21-.19c1-.78,2.06-1.48,3.1-2.21.51-.36,1.1-.89,1.71-.51.76.46.44,1.34.27,2a35.61,35.61,0,0,1-2.12,6.68c-6.06,11.9-8.08,24.63-8.23,37.79,0,2.17-.29,4.34-.37,6.51-.11,3-1.09,3.79-4.64,3.75-3,0-4.17-1.12-4.19-4.05,0-6.51,1-13,.12-19.54S181,76.4,176.89,70.82c-2.37-3.21-5.34-5.36-9.39-5.75-.92-.08-2.16.05-2.3,1-.18,1.23,1.19,1,2,1.23.81,2.36,2.48,4,4.22,5.78a14.79,14.79,0,0,1,4.09,8.71,61.66,61.66,0,0,1,.21,15.42c-.47,3.75-.22,7.58-.54,11.37S176.33,113.67,180.29,113.47Z" transform="translate(-6.94 -7.28)"/><path class="cls-5" d="M95.26,133.84c-.56,6.48-1.4,12.95-1.58,19.43-.19,6.87,1.19,13.68,2.37,20.41.9,5.15,4.28,9.09,8.57,12.13a13.76,13.76,0,0,1,2.69,2.28c2.91,3.5,6.51,5.22,11.1,5.93,7.75,1.19,15.36,3.27,23.07,4.74a49.22,49.22,0,0,0,9.7.85,159.88,159.88,0,0,1,30.27,2.32c-1.68,1-3.37-.08-5.06,0-18.68.95-37.38,0-56,1.07-4.24.25-8.47.75-12.7,1.22a16.65,16.65,0,0,1-5.63-.08c-2.4-.53-4.85.15-7.26.51-1.32-1-1.33-2.72-2-4.09-.72-1.55-1.61-2.95-3.46-3.1s-2.54,1.37-3.09,2.65c-3.6,8.44-8.42,16.43-8.42,26.14,0,4.14-.31,8.31-.39,12.48,0,1.15.18,2.38-.74,3.35-1.45,0-2.9.11-4.35.1-3.76,0-4.71-1-4.83-4.86A147.29,147.29,0,0,1,68.75,211c1.25-8.54,4.28-16.57,12-21.65,3.15-2.07,3.65-4.74,3.41-8.18a213.2,213.2,0,0,1,0-28.26c.34-5.34.3-10.72.22-16.07,0-2.49.75-3.4,3.28-3.16S92.71,133.81,95.26,133.84Z" transform="translate(-6.94 -7.28)"/><path class="cls-5" d="M136.65,55.26a14.09,14.09,0,0,1-5,2.66c-6.7,2.45-9.65,8.66-13.94,13.52-.08.1.13.47.21.72.63,1.06-.2,1.9-.5,2.79-2.2,6.45.2,12,6.4,14.78.89.39,1.95.55,2.44,1.57-3.89,2.61-9.5.28-10.87-3.13-1.13-2.8-1.45-4.11-1.23-11.49a32,32,0,0,0-5.33,8.65c-3.15,8-7.15,15.67-9.09,24.11-1,4.31-2,8.63-2.64,13-.43,2.72,2.15.78,3,1.59-3.39.85-6.86.14-10.28.45-1.41.12-3.54.84-4.08.21-1.08-1.24-.5-3.31-.31-5,1.26-10.58,1-21.4,4.35-31.65,4.92-15,13.44-26.56,29.69-30.62C125.18,56,130.82,55,136.65,55.26Z" transform="translate(-6.94 -7.28)"/><path class="cls-6" d="M171.94,172.51c-4.2.4-9.26-.77-14.28-1.83a12.65,12.65,0,0,1-8.74-7.11,3.61,3.61,0,0,1-.24-2.66c1.79-5.89,4.34-11.27,11-13,7.85-2,15.61-4.36,23.76-5.06,2.66-.23,5.24-1.28,7.9-1.75,3.66-.64,4.46.2,4.24,3.79-.23,4-2.16,6.6-5.62,8.58-5.45,3.11-11.45,3-17.35,3.63-2.88.3-5.78.41-8.67.63-1,.07-2.22,0-2.11,1.46.09,1.17,1.18,1.23,2.11,1.17,2.62-.17,5.25-.3,7.86-.59a83,83,0,0,1,18.37-.45c4.8.52,7.75,3.86,7.59,8.57,0,1-.12,1.68-1.4,1.81C188.54,170.56,180.89,172.7,171.94,172.51Z" transform="translate(-6.94 -7.28)"/><path class="cls-7" d="M182.92,128.75c-10.11.4-20.23.72-30.35,1.22-13.2.66-26.41.8-39.62,1.19-5.33.16-10.67.24-16,.5-1,.38-1.67-.17-1.6-1.1.13-1.5-.35-3.32,1.56-4.17a3.39,3.39,0,0,1,.51-.17l11.42-.08c10.15-.07,20.29-.45,30.43-.69,14.51-.33,29-.29,43.51-.49C184.11,126.18,183.94,127.45,182.92,128.75Z" transform="translate(-6.94 -7.28)"/><path class="cls-8" d="M76.69,242.09c0-7.51,0-15,1-22.47.59-4.11,2.42-7.76,4.09-11.45,1.45-3.2,2.45-6.61,4.39-9.61,1.63-2.5,3.51-2.87,5.7-.8,2,1.86,2.2,4.47,2.84,6.9a40.79,40.79,0,0,0-8.86,5.63c-3.48,2.86-4.94,6.8-5.34,11.11a31.85,31.85,0,0,0,.45,8.92c.18.89.36,1.53,1.5,1.45,8.5-.6,10.2.68,12,8.92a6.32,6.32,0,0,1,.09.87C88.6,242.36,82.63,241.7,76.69,242.09Z" transform="translate(-6.94 -7.28)"/><path class="cls-9" d="M158.43,173.53c-.09,0-.2,0-.25.09a2.07,2.07,0,0,0-.22.35c2,.58,3.95,1.16,5.94,1.72,3.37.94,6.23,3.44,10,3.29.61,0,1.37.26,1.21,1.1s-.86.49-1.36.53a25.72,25.72,0,0,1-5.93-.52c-3.59-.56-7.19.2-10.79,0a17.9,17.9,0,0,1-14.29-8.16,10.14,10.14,0,0,1-1.55-8.61c2.26-7.89,6.26-14.59,14-18.47,2.3-1.15,4.38-.54,6.59-.16-1.43.47-2.87.91-4.28,1.43-6.68,2.45-9.46,8-11,14.32-.95,3.9,1.44,6.73,4.13,9.1A21.42,21.42,0,0,0,158.43,173.53Z" transform="translate(-6.94 -7.28)"/><path class="cls-10" d="M180.29,113.47c-2.51,1.85-4.65,1.16-5.52-1.68-.66-2.17-.1-4.28-.08-6.43.09-7.87,1.45-15.75.09-23.59-.65-3.72-2-7.27-5.27-9.49a4.68,4.68,0,0,1-2.31-5c5.91.81,8.54,5.29,10.1,10.11a61,61,0,0,1,2.58,24.56C179.52,105.74,179.07,109.66,180.29,113.47Z" transform="translate(-6.94 -7.28)"/><path class="cls-11" d="M198.8,201.8c6-.26,12-.23,17.07,3.39,4,2.88,7.82,6.1,8.91,11.49,1.32,6.52-1.6,12.28-7.5,14,.33-3.67,1.29-7.4.35-11-1.7-6.59-6.24-11.18-11.61-15A19.51,19.51,0,0,0,198.8,201.8Z" transform="translate(-6.94 -7.28)"/><path class="cls-12" d="M215.71,231.41c-.09.52,0,1.21-.3,1.55-1.92,2.15-1.41,4.51-.75,6.9.31,1.12.67,2.23,1,3.35-4.06,0-8.12,0-12.18,0-1.56,0-2.21-.52-1.6-2.14C203.89,235.82,210,231.56,215.71,231.41Z" transform="translate(-6.94 -7.28)"/><path class="cls-13" d="M97.42,126.22c-1.57,1.75-1.79,4.32-.47,5.44-3.62,1-7.32.4-11,.48-1.92,0-1-1.77-1-2.75-.11-1.24-.16-2.65,1.73-2.73Z" transform="translate(-6.94 -7.28)"/><path class="cls-14" d="M182.88,123.3c.27-2.45-1-5.33,1.87-7.08l1.53.15c3.1,2,3.63,3.77,2.12,6.89Z" transform="translate(-6.94 -7.28)"/><path class="cls-15" d="M182.92,128.75c0-1.26-.09-2.52-.14-3.79,2.08-.89,4.26-.34,6.39-.5,1-.07,1.56.35,1.42,1.38s.53,2.18-1.25,2.48A21.66,21.66,0,0,1,182.92,128.75Z" transform="translate(-6.94 -7.28)"/><path class="cls-4" d="M188.4,123.26a7.86,7.86,0,0,0-2.12-6.89c1.6.38,3.45-1.8,4.64-.11.85,1.21-.21,3.13-.22,4.74S190.61,124,188.4,123.26Z" transform="translate(-6.94 -7.28)"/><path class="cls-16" d="M187.36,130.55c-.1.77.16,1.59-.66,2.21-.56.41-.9,1.09-1.78.93s-.91-.84-.91-1.43a2.23,2.23,0,0,0-.86-1.59Z" transform="translate(-6.94 -7.28)"/><path class="cls-17" d="M209.17,190.39c.65,1.92,2.69,1.18,4,2.05a33.11,33.11,0,0,1,9.93,10.45,5.76,5.76,0,0,1-.1,4.9A36.33,36.33,0,0,0,206.73,194a9.31,9.31,0,0,0-2.93-.4c-1-.09-1.9-.73-1.89-1.54a1.87,1.87,0,0,1,1.89-1.56c1.8-.06,3.61-.07,5.42-.1Z" transform="translate(-6.94 -7.28)"/><path class="cls-18" d="M191.58,181.77c.77,2.13-.78,3.68-1.14,5.49a1.27,1.27,0,0,1-2.33.09c-.82-1.33-1.86-2.55-1.85-4.24,0-1.9,0-3.8,0-5.69,0-1.29.15-2.4,1.84-2.34,1.3,0,2.48.07,2.66,1.91C190.88,178.63,192.34,180.05,191.58,181.77Z" transform="translate(-6.94 -7.28)"/><path class="cls-19" d="M126.31,91.3C118.85,89,115.68,85,115.92,78.22c.09-2.24,1.11-4.13,2-6.06,4.79-6.21,11.86-5.88,16.53-3.43s6.68,8.36,5.31,13.46a12.26,12.26,0,0,1-11.32,9Z" transform="translate(-6.94 -7.28)"/><path class="cls-20" d="M155.35,69c3.46-.25,6.88-.28,9.83,2,4,3.06,5,7.34,4,11.91s-4.15,7.51-8.89,8.45c-1,.2-2,.31-3,.46-6.36.06-11.11-4.44-11.46-11.2C145.68,75.81,148.88,69.32,155.35,69Z" transform="translate(-6.94 -7.28)"/><path class="cls-21" d="M191.72,67.08c2.2-.83,2.21-2.72,3.11-4,.49-.68.75-1.56,1.74-1.29,1.16.31.73,1.42.56,2.06-.76,2.91-1.78,5.75-2.52,8.65-.93,3.68-2.25,7.23-2.94,11-.76,4.17-2,8.24-2.92,12.37a47,47,0,0,0-.58,4.93c-1.59-1-2.6-2-1.12-3.66.19-.22.15-.67.15-1,.1-9.19,1.86-18.3,1.36-27.53-.18-3.31,1.4-6.49,1-9.86-.08-.65.11-1.27,1-1.31,1.05-.06,1.18.64,1.18,1.41C191.73,61.53,191.72,64.2,191.72,67.08Z" transform="translate(-6.94 -7.28)"/><path class="cls-22" d="M155.35,69c-8.71,3.24-11.5,12-6,18.68,2.07,2.5,5,3.44,8,4.11-3.59,1.72-6.39,1.31-9.14-1.28a15.33,15.33,0,0,1-4.71-7.73A11,11,0,0,1,155.35,69Z" transform="translate(-6.94 -7.28)"/><path class="cls-23" d="M120.79,78.2c1.78-.21,2.83-.25,2.9,2s1.76,3.34,4.06,3.55a4.18,4.18,0,0,0,4.93-3.56c.4-1.77.93-2.68,3-2.89,1.49-.16,1.78.33,1.88,1.43.42,4.63-4.11,9.47-9,9.68-5.07.23-10-4.29-10-9C118.51,77.14,120.23,78.61,120.79,78.2Z" transform="translate(-6.94 -7.28)"/><path class="cls-24" d="M134,71.81a11.08,11.08,0,0,1,1.4,1.24c.38.47,1.05,1,.76,1.63s-1.16.73-1.9.79c-5.09.43-10.18.89-15.57,1.36A9.38,9.38,0,0,1,125,69.71c2.35-.85,4.83-1.5,6.9.76-.23,1.16-2.52,2.17-.83,3.35C132.9,75.13,133,72.57,134,71.81Z" transform="translate(-6.94 -7.28)"/><path class="cls-25" d="M134,71.81c-.32,1.08.6,2.83-1.39,3-1,.09-2.52.7-3-1-.51-1.85.53-2.85,2.19-3.37A4.91,4.91,0,0,1,134,71.81Z" transform="translate(-6.94 -7.28)"/><path class="cls-26" d="M158.16,88.78A9,9,0,0,1,149.31,80a9.17,9.17,0,0,1,9.06-8.91c4.32,0,8.66,4.69,8.56,9.19A8.83,8.83,0,0,1,158.16,88.78Z" transform="translate(-6.94 -7.28)"/><path class="cls-27" d="M162.92,79.17a5.34,5.34,0,0,1-5,5.07c-2.89.07-4.75-1.61-4.8-4.32s2.45-4.73,5.51-4.75A4.26,4.26,0,0,1,162.92,79.17Z" transform="translate(-6.94 -7.28)"/></svg>