<svg id="Layer_1" data-name="Layer 1" xmlns="http://www.w3.org/2000/svg" viewBox="0 0 286.03 285.55"><defs><style>.cls-1{fill:#010101;}.cls-2{fill:#fefefe;}.cls-3{fill:#0a0101;}.cls-4{fill:#fe7900;}.cls-5{fill:#fd7902;}.cls-6{fill:#d6000a;}.cls-7{fill:#e87;}.cls-8{fill:#f97907;}.cls-9{fill:#fc7804;}.cls-10{fill:#d50209;}.cls-11{fill:#cf040a;}.cls-12{fill:#d5020a;}.cls-13{fill:#d4010b;}.cls-14{fill:#c8040d;}.cls-15{fill:#fcc206;}.cls-16{fill:#fcc504;}.cls-17{fill:#060202;}.cls-18{fill:#0a0202;}.cls-19{fill:#ce0609;}.cls-20{fill:#fcfcfb;}.cls-21{fill:#f1840f;}.cls-22{fill:#c4070d;}.cls-23{fill:#fcfcfc;}.cls-24{fill:#030202;}</style></defs><title>16</title><path class="cls-1" d="M146.46,7.26c35.79,0,71.58-.11,107.38.09,7,0,14.11.31,20.81,3.14,10.92,4.62,19.49,17.22,18.24,30.87-.88,9.63-.58,19.37-.56,29.08.07,52.77,0,105.54.1,158.31,0,6.85,0,13.72.35,20.59.39,8.4.46,17.08-3,25.17-4.77,11.1-17.12,19.46-30.39,18.12a86,86,0,0,0-8.65-.11q-57.06-.07-114.1-.13c-25.53,0-51.06-.22-76.58.13-6.89.1-13.76,0-20.63-.19-11.66-.25-21.41-4.41-27.82-14.67a31.53,31.53,0,0,1-4.53-19.19c.5-8.51.29-17.07.29-25.6q0-51.92,0-103.82c0-24.43.14-48.86-.07-73.3-.08-8.25-.5-16.52,1.21-24.61,2.26-10.61,8.89-17.71,18.91-21.89,5-2.06,10.08-1.94,15.21-1.95q51.92-.06,103.84,0Z" transform="translate(-6.99 -7.23)"/><path class="cls-2" d="M11.31,150.07V52.25c0-6.45,0-12.93,1-19.28,2-12.79,14.12-21.4,25.82-21.38,68.58.12,137.17,0,205.75-.09,7.9,0,15.86-.15,23.63,1.21a25.36,25.36,0,0,1,21.11,25.66c-.76,65.75-.25,131.49-.29,197.23,0,9.16.1,18.3-.13,27.46-.36,13.91-12.64,25.5-26.36,25.42-43.24-.24-86.48-.09-129.72-.1-25.34,0-50.69-.13-76,.06-8.09.07-16.19.16-24.11-1.18a25.06,25.06,0,0,1-20.29-20.92c-.76-5.24-.35-10.66-.35-16q0-50.13,0-100.27Z" transform="translate(-6.99 -7.23)"/><path class="cls-3" d="M207.93,53.82c4.31.16,4.95,1.08,4.08,5.42-1.2,6-4.51,11.14-6.38,16.88A74.8,74.8,0,0,0,202,96.55q-.76,19.42-1.65,38.85c-.09,1.91,0,3.35,2.43,3.59s3.08,2,2.9,4.12c-.56,6.64-1.49,9.59-8.47,13.23.44.72,1.21.64,1.88.75,5.94,1,8.59,6,8.86,11.07.1,1.83-1.44,2.88-2.66,3.84-.79.64-1.19,1.1-1.1,2.1.28,3.17.44,6.34.72,9.5.22,2.44,1.4,3.56,4.08,3.55a35,35,0,0,1,22.22,7.2c5.31,4.16,8,10.25,8.92,16.82,1.32,9,.33,18.05-.74,27.09-1,8.47-2.44,7-8.76,7.14-6.63.13-13.26.11-19.89.13-3.34,0-4.64-1.41-3.73-4.51,1.57-5.39,5.22-8.94,10.46-10.87,1.88-.69,5.2-.34,5.52-1.69.7-2.87.95-6.38-.45-9.09-2.44-4.72-5.39-9.2-10-12.34a17.56,17.56,0,0,0-10.21-3c-5.27,0-10.52,0-15.79.32-6.23.37-12.5.19-18.74.15-13.63-.09-27.25-.11-40.86.64-5.33.29-10.65,1.63-16,.95-5.93-.77-10.56,1.55-15.11,4.8-4.71,3.36-6.09,8-5.89,13.46,0,.73.18,1.45.15,2.17-.09,1.85.27,2.7,2.59,2.64,4.1-.1,7.63,1.84,10.56,4.61,2.48,2.34,2.28,5.55,2.29,8.65,0,1-.81.89-1.31,1a20.06,20.06,0,0,1-4,.76c-6.34.28-12.68.78-19,.62-6.13-.15-8-1-8.61-8.7A105.06,105.06,0,0,1,74.07,209c1.58-8.91,5.55-16.88,13.53-22,2.34-1.51,2.49-3.43,1.9-5.53a30.41,30.41,0,0,1-.84-8c-.2-12.89.56-25.77,1.27-38.6.79-14.42.9-29,4.18-43.16A55,55,0,0,1,110.52,63c4.66-4.32,10.48-6.14,16.39-7.84,9.51-2.74,19.31-2.52,29.06-2.89a120.74,120.74,0,0,1,22,1c8.71,1.28,15.27-2.66,22.27-6.17a29.65,29.65,0,0,1,5.39-2.43c2.4-.66,4.06.52,4.15,3A12.22,12.22,0,0,1,207.93,53.82Z" transform="translate(-6.99 -7.23)"/><path class="cls-4" d="M102.84,133.82c9.38-1.08,18.81-1.11,28.22-1.15,10.16,0,20.32-.37,30.46-.73,11.49-.4,23-1.28,34.46-1.59,1.46,0,1.9.21,1.78,1.6a10.2,10.2,0,0,0,0,3.26c.9,3.45-1.38,4.65-3.88,4.87-8.59.77-16.84,3.17-25.27,4.69-5.2-.41-9,2.23-12.32,5.78a30.4,30.4,0,0,0-6.4,11.58c-2.3,6.91,2.74,13.11,8.52,15.68a19.63,19.63,0,0,0,9.87,1.45,34.94,34.94,0,0,1,10,.49,5.37,5.37,0,0,0,2.6-.14c-5.7-.5-10.27-4.4-15.86-5.19-.8-.12-1.88-.37-1.75-1.67,5.88,1,11.65,2.55,17.7,2.41a97.86,97.86,0,0,0,18.23-2.46c2.39-.51,2.88.2,2.92,2.32.06,3.26.25,6.51.51,9.76s1.35,3.91,4.69,4c8.34.3,16.53,1.87,23,7.52,5,4.43,7.3,10.73,7.74,17.4.59,9.16-.41,18.26-1.59,27.33-.12.95-.41,1.51-1.42,1.64a45.59,45.59,0,0,1-11.9.29,8.78,8.78,0,0,1,.22-11.53c.53-.27,1.05-.55,1.57-.83s.77-.79,1.26-1c7.88-3.92,6.71-14.56,2.07-19.46-4.31-4.56-9.34-7.37-15.7-7.63-2-.08-3.9-.76-5.9-.88l-17.1.28a26.81,26.81,0,0,1-6.2-.27c-6.13-.54-12.26-1.34-18.43-1.19-10.81.26-21.29-1.73-31.71-4.26a90.24,90.24,0,0,0-9.35-1.82,12,12,0,0,1-7.18-3.55,59.8,59.8,0,0,0-6.27-5.64c-4.28-3.29-7.15-7.56-7.82-12.93-.81-6.56-2.32-13.06-2.1-19.71.18-5.25.76-10.48,1.36-15.7A4.48,4.48,0,0,1,102.84,133.82Z" transform="translate(-6.99 -7.23)"/><path class="cls-5" d="M144.24,55.26a116.43,116.43,0,0,1,26-.28c1.71.14,3.44.18,5.16.21a19.55,19.55,0,0,1,6.41.85c2.8,1,5.51-.32,8.08-1.39a134.72,134.72,0,0,0,13.38-6.57c1.16-.64,2.76-2,3.87-.79,1,1,.05,2.85-.59,4.06-1,2-2.53,3.72-3.69,5.65-.4.67-1.39,1.59-.41,2.37.78.61,1.73.15,2.43-.56a1.74,1.74,0,0,1,.44-.31c1.3-.72,2.65-2.83,3.83-1.92,1.43,1.09.09,3.19-.4,4.74-1.91,6-5,11.59-6.68,17.72s-2.18,12.64-2.71,19c-.33,4-.47,8-.52,12,0,1.65-.55,2.41-2.19,2.72-3.8.72-7.23.64-6.65-5a98.35,98.35,0,0,0-.43-23.32c-.77-5.71-2.51-10.94-6.43-15.26a11.76,11.76,0,0,0-8-4.11c-.9-.07-2.14,0-2.27,1-.17,1.26,1.26.93,2,1.24a11.91,11.91,0,0,0,3.48,5c4.26,4,5.14,9.41,5.32,14.92a178.5,178.5,0,0,1-.91,20c-.38,4.69.83,6.27,5.46,6.38a7.49,7.49,0,0,0,8.12,2.27c1.91-.55,2.38.11,2.29,1.94-.26,5.53-.21,5.53-5.84,5.53-14.42,0-28.85-.26-43.26.12-10,.26-20.12.16-30.17.8-5,.31-10-.19-15-.32-.63-.94-.29-1.93-.14-2.9A106,106,0,0,1,112,94c2.37-5.17,4-10.7,7.44-15.35.62-.84,1.07-2.36,2.22-2s.8,1.85.61,2.88a13,13,0,0,0,.48,5.37c1.38,5.86,5.3,7.94,11,5.89,2.29-.44,4.62-.49,6.84-1.52,6.91-3.19,7.38-11.48,5-15.78-3-5.47-10.77-7.3-16.07-4-1.2.76-2.08,2.07-3.65,2.22-1-.74-.35-1.48.09-2.11a50.28,50.28,0,0,1,8.72-9.95C137.39,57.36,140.86,56.29,144.24,55.26Z" transform="translate(-6.99 -7.23)"/><path class="cls-6" d="M102.84,133.82c-.53,7.12-1.93,14.21-1.52,21.36a152.31,152.31,0,0,0,2.33,18.53,16.88,16.88,0,0,0,6.78,10.48,47.88,47.88,0,0,1,7.07,6.35,8.88,8.88,0,0,0,5.68,3c8.27,1.06,16.27,3.42,24.42,5a63.91,63.91,0,0,0,11.34.95c10.25.16,20.45.62,30.56,2.44-6,.63-11.94.33-17.91.43-10.07.18-20.16,0-30.24.08a226.81,226.81,0,0,0-26.55,1.93,12.56,12.56,0,0,1-5.14-.17c-2.45-.7-4.85.24-7.27.34-1.31-.91-1.49-2.43-2-3.76-.63-1.71-1.53-3.2-3.51-3.35-1.79-.13-2.48,1.4-3.05,2.69-2.78,6.3-6,12.42-7.75,19.13a7.14,7.14,0,0,0-.43,2.13c.21,6.25-1.17,12.46-.45,18.72.08.72.23,1.47-.51,2-1.91,0-3.81,0-5.71,0-2.73,0-3.87-1.78-3.87-4.15,0-6.7-.33-13.41.64-20.09.64-4.35.59-8.72,2-13.06a31.62,31.62,0,0,1,11.81-16.58c1.63-1.19,2.24-2.36,2.15-4.72-.42-10.5-.77-21,.13-31.52.46-5.33-.09-10.69.42-16,.18-1.79.72-2.33,2.43-2.24C97.4,133.81,100.12,133.78,102.84,133.82Z" transform="translate(-6.99 -7.23)"/><path class="cls-6" d="M144.24,55.26A12.83,12.83,0,0,1,140,57.54c-6.71,2.4-10,8.32-14.12,13.41-.13.17,0,.53-.06.8a3.28,3.28,0,0,1-.41,2.35c-2.85,6.71.33,13.92,6.51,15.86a2.91,2.91,0,0,1,2,1.33c-3.86,2.57-9.38.27-10.82-3.22a18.17,18.17,0,0,1-1.24-11.16,45.14,45.14,0,0,0-5.89,9.64c-5.37,12-9.66,24.31-11.55,37.37-3.31.55-6.7.15-10,.87-1.5.33-1.32-.89-1.27-1.75.18-3.81,0-7.67.71-11.4.95-5.46.75-11,1.88-16.46,2.58-12.47,7.79-23.42,17.76-31.56,5.18-4.23,11.68-5.94,18.14-7.25C135.71,55.53,139.93,54.67,144.24,55.26Z" transform="translate(-6.99 -7.23)"/><path class="cls-7" d="M179.77,172.42c-4.51.43-9.59-.72-14.6-1.82a12.2,12.2,0,0,1-8.62-7.2,4.11,4.11,0,0,1-.23-2.65c1.84-6,4.53-11.19,11.34-13,8.37-2.17,16.74-4.31,25.35-5.38,2.23-.28,4.38-1.1,6.6-1.41,2.93-.42,3.69.55,3.6,3.49-.15,4.48-2.41,7.27-6.27,9.32-5.43,2.87-11.36,2.66-17.16,3.3-2.79.31-5.6.42-8.4.61-.92.07-2,.13-2,1.31,0,1.36,1.22,1.42,2.24,1.33q8.77-.77,17.58-1.35a36.31,36.31,0,0,1,11.27,1c3.12.76,5.53,5.36,4.92,8.51-.18.94-.69,1.11-1.49,1.18C196.07,170.45,188.43,172.74,179.77,172.42Z" transform="translate(-6.99 -7.23)"/><path class="cls-8" d="M104.42,126.18c3.9,0,7.8,0,11.7-.09,11-.13,22-.42,32.93-.71,12.9-.34,25.78-.24,38.67-.45,2.89,0,5.74-.72,8.66-.55,1.14.06,2,.15,1.84,1.59-.1,1,.33,2.22-1.46,2.31-1.42.08-2.81.55-4.29.54-17.51,0-34.95,1.71-52.46,1.79-10.7,0-21.4.57-32.1.9-1.53.05-3.06.2-4.58.3A4.62,4.62,0,0,1,104.42,126.18Z" transform="translate(-6.99 -7.23)"/><path class="cls-9" d="M84.71,242.05c-.54-8.39-.81-16.83,1.31-25,1.62-6.3,4.76-12.09,7.54-18,.64-1.36,1.22-3,3.27-2.68a5,5,0,0,1,4,3.24c.65,1.57,1,3.27,1.5,4.9-1.93,1.13-3.88,2.24-5.8,3.39-7.65,4.6-9.24,11.74-8.32,19.92.08.71.26,1.42.33,2.13.12,1.29.39,1.86,2,1.55,6.43-1.22,10.85,2.35,11.48,8.91.1,1.09-.3,1.22-1.14,1.23Z" transform="translate(-6.99 -7.23)"/><path class="cls-10" d="M163.24,172.75c3,1.9,6.81,1.73,9.87,3.48a20.31,20.31,0,0,0,8.49,2.64c.64.06,1.37.19,1.2,1.09-.14.72-.85.65-1.34.57-6.78-1-13.69.1-20.46-1.07s-13.26-8.52-12.42-14.72c.92-6.82,7-17.87,15.33-20.31a5.34,5.34,0,0,1,4.68.34c-2.1,1-4.5,1.3-6.43,2.68-4.72,3.38-7.23,8.1-8.2,13.73a4.18,4.18,0,0,0,.13,2.13A14.86,14.86,0,0,0,163.24,172.75Z" transform="translate(-6.99 -7.23)"/><path class="cls-11" d="M188.23,113.58c-3.38,1.78-5.16,1-6.09-2.76-.47-1.91.15-3.76.17-5.63.09-7.76,1.36-15.52.09-23.26-.66-4-2.24-7.65-5.67-10.14-1.62-1.18-2.57-2.49-1.85-4.56a9.82,9.82,0,0,1,7.06,4.36c3.86,5.43,4.71,11.75,5.42,18.14.74,6.69-.23,13.35-.08,20C187.31,111.11,187.19,112.49,188.23,113.58Z" transform="translate(-6.99 -7.23)"/><path class="cls-12" d="M206.59,201.63c8.89-1.49,19.67,3.09,24.12,10.73,3.6,6.17,2.83,15.79-5.85,18.27.12-2.24.6-4.44.67-6.71a16.15,16.15,0,0,0-3.07-10.36,38.19,38.19,0,0,0-10.61-10.13C210.16,202.35,208.14,202.79,206.59,201.63Z" transform="translate(-6.99 -7.23)"/><path class="cls-13" d="M223.29,231.46c-.09.52,0,1.21-.31,1.54-1.87,2.05-1.4,4.29-.75,6.6.31,1.12.57,2.26.85,3.39-3.81,0-7.62.22-11.43.11-2.65-.08-2.86-.7-1.48-3.16C213.05,234.81,217.15,231.56,223.29,231.46Z" transform="translate(-6.99 -7.23)"/><path class="cls-14" d="M104.42,126.18a20.43,20.43,0,0,0-1.09,5.63c-2.89.22-5.77.49-8.66.65-1.32.07-2.35-.37-2.21-2s-.55-3.7,1.93-3.74C97.74,126.64,101,125.65,104.42,126.18Z" transform="translate(-6.99 -7.23)"/><path class="cls-15" d="M231.2,208.75a36.1,36.1,0,0,0-5.85-7.44,27.83,27.83,0,0,0-14.08-8.11c-.77-.18-1.83-.06-1.9-1.12s1-1,1.76-1.25c2.39-1,4.63-.33,6.82.58,6.28,2.63,10.92,6.87,13.18,13.46A6.8,6.8,0,0,1,231.2,208.75Z" transform="translate(-6.99 -7.23)"/><path class="cls-16" d="M193.87,180.36c0-1.33,0-2.23,0-3.14a2.31,2.31,0,0,1,1.37-2.43c1.19-.53,1.87.44,2.46,1.18,2,2.53,2.17,8.15.43,10.83-1.06,1.63-2.08,1.59-3,0A10.84,10.84,0,0,1,193.87,180.36Z" transform="translate(-6.99 -7.23)"/><path class="cls-17" d="M133.85,91.29c-9.59-2.1-13-11.59-8.07-19.54a12.85,12.85,0,0,1,16.63-2.85,11.79,11.79,0,0,1,4.94,13.31,12.21,12.21,0,0,1-11.33,9C135.29,91.19,134.57,91.25,133.85,91.29Z" transform="translate(-6.99 -7.23)"/><path class="cls-18" d="M163.23,68.92c5.41-.45,10.28.54,12.81,6,3.14,6.77-.4,15-8.16,16.37l-2.93.49c-6.7-.19-11-4.62-11.08-11.26,0-2.66.08-5.21,1.84-7.43C157.66,70.62,160,69,163.23,68.92Z" transform="translate(-6.99 -7.23)"/><path class="cls-16" d="M200,68c.92-1.8,1.79-3.64,2.78-5.4.42-.77,1.08-1.75,2.12-1.18s.34,1.43.07,2.19A240.5,240.5,0,0,0,197.48,91c-.58,2.64-1,5.32-1.43,8-.1.62,0,1.52-.76,1.54-1,0-.86-1-.87-1.65-.08-5.08.73-10.09,1.33-15.11a23.22,23.22,0,0,0,.29-3.23c-.16-7.34.77-14.63,1.11-21.94,0-.68-.18-1.64.91-1.64s1.33.9,1.23,1.76C198.94,61.79,200.53,64.78,200,68Z" transform="translate(-6.99 -7.23)"/><path class="cls-19" d="M163.23,68.92c-7,2.22-9.91,7.12-8.58,14.52.56,3.1,4.7,7,8.24,7.74.7.15,1.37.39,2.06.58-4.61,1.83-6.77,1.27-10.49-2.69C148.58,82.81,149.71,74.42,157,70A9.21,9.21,0,0,1,163.23,68.92Z" transform="translate(-6.99 -7.23)"/><path class="cls-20" d="M129,78.08c1.43-.27,2.22,0,2.35,2.12s1.82,3.3,4.12,3.5a4.15,4.15,0,0,0,4.87-3.62c.38-1.85,1.08-2.59,3-2.86,1.54-.21,1.76.45,1.84,1.5.38,4.64-4.18,9.47-9.06,9.64s-9.78-4-9.92-8.76C126.1,78.09,126.1,78.09,129,78.08Z" transform="translate(-6.99 -7.23)"/><path class="cls-21" d="M132.9,69.48c4.36-1.4,7.45.69,10.2,3.7,1.12,1.23.6,2-.85,2.12-2.6.2-5.18.9-7.82.59C133.46,73.86,133.42,71.61,132.9,69.48Z" transform="translate(-6.99 -7.23)"/><path class="cls-22" d="M132.9,69.48c1.77,1.83,1.66,4.12,1.53,6.41-2.28,1.09-4.78.33-7.14.85-1.52.33-.93-.93-.65-1.56A9.48,9.48,0,0,1,132.9,69.48Z" transform="translate(-6.99 -7.23)"/><path class="cls-23" d="M165.66,88.61a8.83,8.83,0,0,1-8.75-8.8A9,9,0,0,1,166.07,71a9.22,9.22,0,0,1,8.43,9.24A8.51,8.51,0,0,1,165.66,88.61Z" transform="translate(-6.99 -7.23)"/><path class="cls-24" d="M165.05,84.17c-2.73-.16-4.42-2-4.3-4.54s2.83-4.68,5.75-4.53a4.24,4.24,0,0,1,4,4.25A5.29,5.29,0,0,1,165.05,84.17Z" transform="translate(-6.99 -7.23)"/></svg>