<svg id="Layer_1" data-name="Layer 1" xmlns="http://www.w3.org/2000/svg" viewBox="0 0 286.11 285.4"><defs><style>.cls-1{fill:#010101;}.cls-2{fill:#fefefe;}.cls-3{fill:#020302;}.cls-4{fill:#829f5e;}.cls-5{fill:#1d8767;}.cls-6{fill:#e0d937;}.cls-7{fill:#fcfcfc;}.cls-8{fill:#1e8767;}.cls-9{fill:#ddd839;}.cls-10{fill:#ded93c;}.cls-11{fill:#208667;}.cls-12{fill:#829e5f;}.cls-13{fill:#d9d742;}.cls-14{fill:#8a9b5d;}.cls-15{fill:#1f8666;}.cls-16{fill:#839e62;}.cls-17{fill:#030303;}.cls-18{fill:#040404;}.cls-19{fill:#ee8777;}.cls-20{fill:#fdfdfd;}.cls-21{fill:#fefdfe;}.cls-22{fill:#fbfbfa;}.cls-23{fill:#f9f9f9;}</style></defs><title>20</title><path class="cls-1" d="M146.51,7.33c35.79,0,71.58-.11,107.38.09,7,0,14.12.32,20.81,3.16a31.24,31.24,0,0,1,18.23,30.87,138,138,0,0,0-.49,22c.15,2.26-.05,4.54-.05,6.81q0,79.43.07,158.86c0,6.66-.09,13.34.36,20,.49,7.42.39,15.1-1.95,22.37-3,9.38-9.31,15.67-18.46,19.41-5.52,2.26-11.16,1.69-16.81,1.71-1.63,0-3.26-.06-4.89-.07l-144.61-.13c-15.45,0-30.9-.29-46.33.13-6.45.18-12.85-.08-19.27-.15-15.75-.17-27.54-6.95-32.82-23.65A21.41,21.41,0,0,1,7,261c.69-9.44.32-18.88.34-28.32q.09-52.17,0-104.36c0-24.25.14-48.5-.08-72.75-.07-8-.43-16,1.12-23.8C10.69,20.38,17.75,13,28.49,8.93c4.64-1.77,9.43-1.54,14.18-1.55q51.93-.09,103.84,0Z" transform="translate(-6.94 -7.3)"/><path class="cls-2" d="M11.34,149.82q0-46.6,0-93.19c0-8-.29-16,1.07-23.9,2.3-13.29,14.69-21,25.25-21q107-.33,213.93,0a98.12,98.12,0,0,1,16,1.1c12.94,2.18,21.31,14.39,21.15,25.7-.94,65.74-.33,131.48-.37,197.22,0,9.16.12,18.3-.15,27.46-.41,14.25-12.94,25.41-26.12,25.36-52.5-.19-105-.08-157.51-.09-16.26,0-32.53-.22-48.78.09-7,.14-14-.18-20.91-.72a25.58,25.58,0,0,1-23.36-22.25c-.74-5.34-.17-10.86-.17-16.29V149.82Z" transform="translate(-6.94 -7.3)"/><path class="cls-3" d="M76.38,251.07c3.56-.6,6.2.59,8.88,1.64,1.63.63,2.61,1.77,2.24,3.55a32.15,32.15,0,0,0-.42,7.58c0,1.35-.39,2-1.68,2.13-5.47.7-10.93,1.44-16.48,1-2.17-.17-2.92-1.18-2.56-3.17a57.31,57.31,0,0,0,.52-8.68c.09-3.38.91-4.32,4.38-4.12,2.52.15,3.3-.39,3.25-3.12-.11-5,.32-10,.67-14.94.07-1,.16-1.36-1-1.64-9.08-2.31-9.62-3.18-8.59-12.51a316.26,316.26,0,0,1,7.86-41.95,93.85,93.85,0,0,1,7.35-20,63.87,63.87,0,0,1,22.64-24.74c.45-.3.91-.59,1.37-.87,4.49-2.8,7.23-6.21,6.82-12.14-.38-5.55.57-11.19,1-16.79a2.83,2.83,0,0,0-1.5-3,13.16,13.16,0,0,1-6.07-12.83,12.79,12.79,0,0,1,8.55-11.24c1.08-.41,1.3-.73,1.22-2-.22-3.35,0-6.72-.07-10.08,0-2.1,1.58-2.49,2.93-3a53.69,53.69,0,0,1,19.18-3.9c2,0,4.16.28,5.92-.55,1.94-.93,1.05-3.48,1.94-5.15.7-1.33,1-2.87,1.63-4.25,1.34-3,2.83-5.77,2.35-9.31-.26-1.91.78-3.88,2.1-5.45,2.16-2.57,8-2.75,11.07-.36,2.74,2.15,3.22,6.46,1.05,9.58-2.84,4.1-6.94,5.13-11.35,2.47-1.83-1.11-2.28-.55-2.79,1.07-1,3.17-1.84,6.38-2.59,9.62-.37,1.59.08,1.68,1.37,1.59,8.16-.6,16.33-.41,24.5-.28,4.84.07,7.55,2.78,7.59,7.58,0,3.72.06,7.44,0,11.16a2.3,2.3,0,0,0,1.4,2.48c5.33,2.83,7.55,7.43,6.78,13.31-.71,5.42-3.88,9-9.11,10.69-1.23.39-1.55.66-1.41,2.16.48,5.22.57,10.48.84,15.72.06,1.17.21,2.34.35,3.51.48,4.1.48,4.13,4.55,4.76,12.33,1.92,21.34,8.65,27.76,19.14,8.49,13.85,12.33,29.11,13.7,45.14a192.65,192.65,0,0,1,1,19.81,46,46,0,0,1-1.36,9.93,8.29,8.29,0,0,0-.29,1.85c0,5.85-1.81,8.4-7.39,10.54-6.59,2.52-13.49,3.39-20.46,3.69-8.54.38-17.06-.31-25.59-.47-10.71-.21-21.44.71-32.12-.1-13.27-1-26.58-1.28-39.85-2.45-6.38-.56-12.8-.88-19.16-1.76-1.46-.2-1.57.43-1.57,1.62,0,4.53.28,9.07-.39,13.59A10.89,10.89,0,0,1,76.38,251.07Z" transform="translate(-6.94 -7.3)"/><path class="cls-3" d="M191.71,244.19c0-1.64,0-3.27,0-4.9,0-.83-.07-1.87,1-1.92s1.13,1,1.19,1.79c.21,3,.44,6,.57,8.94.07,1.48.25,2.3,2.17,2.53,6.29.76,7.1,1.87,7.2,8.31.07,4.4.11,4.52-3.93,5.74a22,22,0,0,1-15.14-.43c-2.91-1.18-2.44-3.55-2.2-5.73.18-1.6.58-3.19.64-4.83s.89-2.81,2.84-2.77,4.5.32,5.46-1.14.19-3.69.19-5.59Z" transform="translate(-6.94 -7.3)"/><path class="cls-4" d="M187.93,130.47c6.07,1.14,10.66,4.92,14.79,9.05,6.45,6.46,10.13,14.67,13.07,23.16,4.2,12.13,5.59,24.73,6.65,37.48.67,8.06-.94,15.87-.82,23.82a5.66,5.66,0,0,1-3,4.93,31.3,31.3,0,0,1-13.91,4,20.79,20.79,0,0,1-4.57-.63,68.37,68.37,0,0,0-15.09-1.75c-10.43,0-20.87.12-31.29,0-5.88-.09-11.71-1.14-17.59-1.5-1-.06-2.69,0-2.68-1.24s1.66-1.43,2.81-1.59c5.65-.74,11.41-.76,16.9-2.59.85-.29,1.72-.55,2.58-.81A60.42,60.42,0,0,1,166.1,222c8.63,0,17.23-.68,25.85-.74,10.35-.07,11-2.15,11-10.82,0-3.18-.1-6.35,0-9.53a72.18,72.18,0,0,0-6.33-32c-2.65-5.88-6.89-10.42-11.54-14.64-2-1.82-4-3.68-6.17-5.34-10.69-8.18-23-11.29-35.72-7.91-15.22,4-29.22,11-39.32,24-1.37,1.75-2.64,3.71-4.63,4.92-2.53-.25-3.78,1.51-4.85,3.3a166.44,166.44,0,0,0-11,22.71c-2.58,6.34-2.92,13-4.27,19.6-.26,1.24-.22,2.75-2,2.64s-2.13-1.52-2.13-3a90.94,90.94,0,0,1,4.21-27.3A123.81,123.81,0,0,1,95.8,154.38a55.55,55.55,0,0,1,10.62-11.59,190.34,190.34,0,0,1,22.31-16A14.16,14.16,0,0,0,132,124c2-2.23,1.75-4.59-1-5.42-3.47-1.06-3.64-3-3.42-6.11.34-5,1.58-10,1.33-15.13,4.27-5.61,4.67-11.46,1.09-17.56a87,87,0,0,1,0-15.14c.13-1.74-.56-3.63.56-5.27,5.41-1.26,10.95-.72,16.42-1.19,6.64-.57,13.33-.52,20-.68a9,9,0,0,1,4.52.54,27.93,27.93,0,0,0,.13,10.43,12.28,12.28,0,0,0,.52,2.09c.49,1.13.59,2.75,2,3s1.24-1.52,2-2.23a1,1,0,0,1,.72-.29c0,.9,0,1.81.06,2.71.08,1.27-.36,1.64-1.72,1.64-6.72,0-11.69,3.58-13,9.24-1.49,6.56,1.23,12.26,7.32,15.33.32.16.62.35.93.52-1,6.88.46,13.49,2,20.35,1.52-1.23.76-3.42,2.65-3.89a58.85,58.85,0,0,1,.48,6.46c-.09,2.72,1.43,3.85,3.68,4.53s4.25,1.34,6.37,2c-1.41,1.23-3.13.52-4.7.73-1,.13-2.17,0-2.39,1.28-.2,1.13.83,1.53,1.65,1.86,7.71,3,13,9,18.27,15A72.6,72.6,0,0,1,212.83,173c-1.12-14.7-8.29-30-20.49-39C190.83,132.9,188.45,132.81,187.93,130.47Z" transform="translate(-6.94 -7.3)"/><path class="cls-5" d="M156.25,223.27a41.56,41.56,0,0,1-14.46,3.12,33.42,33.42,0,0,0-7.88,1.28c8.92.75,17.72,2.26,26.67,2.1s18.17-.26,27.24,0c5.74.18,11.53.71,16.92,3.11a32.47,32.47,0,0,1-8.82,1.15q-13.47,0-26.94-.42c-7.06-.23-14.16.49-21.22.31-11.85-.32-23.68-1.14-35.51-2L91.67,230.6c-7-.46-14.26-.76-21.07-3.21-1.7-.62-2.65-1.49-2.55-3.56.69-13.79,3.57-27.23,6.53-40.64,2.13-9.63,5.07-19.08,10.1-27.69A61.39,61.39,0,0,1,105,134.36c1.15-.73,2.31-1.44,3.39-2.25,4-3.05,6.65-6.59,6-12.19-.75-6.19.48-12.44.38-18.84,5.46,1.53,10.1-.1,14.18-3.77,1.36,3.31.45,6.64-.15,9.87-.52,2.79.06,5.62-.78,8.37-.39,1.28.94,1.38,1.73,1.61,5.13,1.48,5.8,5,2.05,8.15-3.33,2.82-7.21,4.77-10.71,7.32-7.07,5.13-14.23,10.05-20.12,16.65-7.08,7.93-12.18,17-16.45,26.58-4.54,10.14-8,20.68-8.49,32-.11,2.52-.52,5-.47,7.58,0,1.19.26,2.27,1.73,2.22s1-1.26,1.07-2.08A89.44,89.44,0,0,1,86.22,187a143.12,143.12,0,0,1,8.6-15.55c.64-1,1.51-4.19,4.12-1.77a2.31,2.31,0,0,1-.48,2.52c-4.9,7.24-7.17,15.64-10.46,23.58a74.48,74.48,0,0,0-4.78,16.42,18.1,18.1,0,0,0-.27,3.52c.09,3,.84,3.59,3.82,4.16,19.87,3.76,40,2,60,2.44,2.63.06,5.26-.1,7.89.1A1.9,1.9,0,0,1,156.25,223.27Z" transform="translate(-6.94 -7.3)"/><path class="cls-6" d="M187.93,130.47A45.78,45.78,0,0,1,204.55,146c5.3,8.23,8.07,17.46,9.44,27.12.08.63.17,1.44-.57,1.64s-.86-.68-1.08-1.22c-2.85-7-5.71-14-10.69-19.89-5.24-6.2-10.05-12.81-17.2-17.11a47.51,47.51,0,0,0-4.39-2.09c-1.17-.55-2.82-.88-2.42-2.75.36-1.71,1.81-1.78,3.23-1.77,1.63,0,3.26,0,4.89,0Z" transform="translate(-6.94 -7.3)"/><path class="cls-7" d="M107.76,87.93a11.57,11.57,0,0,1,11.46-11.32c6.14,0,10.07,5.85,10.38,12,.27,5.5-5.1,10.3-11.08,10.25A10.89,10.89,0,0,1,107.76,87.93Z" transform="translate(-6.94 -7.3)"/><path class="cls-7" d="M185.17,88.13a10.11,10.11,0,0,1-10.06,10c-5.31-.15-9.7-3.35-9.89-10.37a9.91,9.91,0,0,1,10.39-10.17C180.17,77.68,185.66,82.61,185.17,88.13Z" transform="translate(-6.94 -7.3)"/><path class="cls-8" d="M130.65,59.34a114.08,114.08,0,0,1-.6,20.41c-3.41-4.09-8.09-5.24-13.34-5.6.82-3.2-.39-6.33-.26-9.55.07-1.65.53-2.36,2.1-2.82A82.07,82.07,0,0,1,130.65,59.34Z" transform="translate(-6.94 -7.3)"/><path class="cls-9" d="M175.23,116.9c-.75,1.07-.75,2.39-1.16,3.56-.22.62-.17,1.62-1.1,1.7s-1-1-1.17-1.55a54.62,54.62,0,0,1-1.6-7.12c-.44-3.58-.59-7.2-.85-10.8a2.14,2.14,0,0,1,1.2-2.25c4.7.85,4.68.85,4.65,5.42C175.17,109.54,175.22,113.22,175.23,116.9Z" transform="translate(-6.94 -7.3)"/><path class="cls-10" d="M176.94,71c-.84,1.27-.54,3.68-2.56,3.67s-2.4-2.33-2.75-3.82c-1-4.23-2.45-8.56,0-12.84,3.74,0,5.28,1.36,5.38,5.12C177.05,65.75,177,68.38,176.94,71Z" transform="translate(-6.94 -7.3)"/><path class="cls-11" d="M77.21,263.43c-1.8.16-3.62-.06-5.41.39-1.37.34-2.2,0-2.17-1.74,0-2.43.33-4.9-.35-7.29-.27-1,.29-1.14,1-1.1,2.33.11,4.7-.32,7,.43A11.28,11.28,0,0,1,77.21,263.43Z" transform="translate(-6.94 -7.3)"/><path class="cls-12" d="M77.21,263.43q0-4.67.05-9.31c.81,0,1.63,0,2.44.07,3.87.33,4.48,1,4.06,4.69-.18,1.69.7,3.95-.48,4.94s-3.28-.23-5-.32Z" transform="translate(-6.94 -7.3)"/><path class="cls-13" d="M156.3,32.78c1.84.32,4.11-.34,4.9,2.3A4,4,0,0,1,159.6,40c-2.74.92-4.51.31-5.38-1.85A4.06,4.06,0,0,1,156.3,32.78Z" transform="translate(-6.94 -7.3)"/><path class="cls-14" d="M156.3,32.78a4.45,4.45,0,0,0-1.38,5.37c.87,2,2.83,2,4.68,1.87-2.39,2-4.8,2.21-6.95.24s-.65-4.19,0-6.22C153.23,32.23,154.64,31.93,156.3,32.78Z" transform="translate(-6.94 -7.3)"/><path class="cls-15" d="M193.91,262.24a16.91,16.91,0,0,1-6.13-.38c-2.31-.49-3-1.83-2.42-3.87a10.39,10.39,0,0,0-.12-5.46c2.59,1.32,5.54-.72,7.66,1.79a1.53,1.53,0,0,1,1.52,1.25C194.71,257.82,195.24,260.11,193.91,262.24Z" transform="translate(-6.94 -7.3)"/><path class="cls-16" d="M193.91,262.24c-.41-2.63.92-5.48-1-7.92,1.83-1.33,5.76-1.15,7.5.22.74.58.56,1.26.58,1.94,0,1.79,0,3.58,0,5.56C198.77,261.35,196.38,262.46,193.91,262.24Z" transform="translate(-6.94 -7.3)"/><path d="M156.25,223.27c-12.71,0-25.41-.18-38.12,0-9.17.11-18.24-.84-27.34-1.68-1.92-.18-3.6-1.11-5.73-.92s-3-2-3-4.14a43.44,43.44,0,0,1,3.05-15.34c2.94-8.07,5.79-16.2,9.55-23.94,1.25-2.58,2.84-5,4.27-7.52,4.53-5.55,9.07-11.09,14.8-15.49a63,63,0,0,1,20.48-10.83c3.95-1.18,7.44-3.46,11.73-3.92,13.51-1.43,25.46,1.84,35.78,10.76,2.12,1.84,4.14,3.81,6.21,5.71,9,8.25,12.73,19,14.76,30.63,1.58,9,.86,18,1,27.06,0,5.7-1.55,7.62-7.18,8-9.5.61-19,.7-28.54,1.05C164,222.8,160.14,223.06,156.25,223.27Z" transform="translate(-6.94 -7.3)"/><path class="cls-17" d="M116.83,90.71a8.34,8.34,0,0,1-4.33-1c-2-1.07-2.14-3-.09-3.85a19.72,19.72,0,0,1,10.51-1.35,2.33,2.33,0,0,1,2.15,1.77c.25,1.1-.52,1.86-1.27,2.52C121.9,90.48,119.58,90.68,116.83,90.71Z" transform="translate(-6.94 -7.3)"/><path class="cls-18" d="M177.27,83.78a14.51,14.51,0,0,1,2.17.37,2.05,2.05,0,0,1,1.05,3.56c-2.07,2.43-7.83,3.38-10.62,1.74-.8-.46-1.6-1-1.55-2s.9-1.5,1.7-1.94A14.77,14.77,0,0,1,177.27,83.78Z" transform="translate(-6.94 -7.3)"/><path class="cls-19" d="M103.29,219.94a49.12,49.12,0,0,1,11.86-9.73c4.8-2.86,9.59-5.75,15.23-6.9a12.17,12.17,0,0,1,8.18.86c4,2,8.13,3.86,11.46,7a9.31,9.31,0,0,0,3.57,1.89c.69.23,1.58.59,2-.08s-.2-1.55-.87-2c-2.1-1.56-4.22-3.09-6.35-4.61-.49-.35-1.14-.5-1.33-1.2,9.92-3.06,28.7,5.24,32.76,14.55Q141.49,221.05,103.29,219.94Z" transform="translate(-6.94 -7.3)"/><path class="cls-2" d="M148.26,156.74a48.52,48.52,0,0,0-.07-12.85c-.22-1.43.08-2.15,1.76-2,2.61.19,5.7-.72,7.71.73s.74,4.64.89,7c.33,5.51.28,11,.49,16.56.06,1.54-.4,2-1.94,1.94-2.62-.12-5.26,0-7.88,0-.75,0-1.69.27-1.43-1.18C148.38,163.59,148.13,160.22,148.26,156.74Z" transform="translate(-6.94 -7.3)"/><path class="cls-2" d="M145.13,142.58c0,6.19,0,12.16,0,18.12a29.5,29.5,0,0,0-.22,4.06c.43,3-.85,3.76-3.55,3.36a24.43,24.43,0,0,0-3.53,0c-4.21,0-4.26,0-3.75-4.07a101.38,101.38,0,0,0,1-16.78c-.06-1.59.45-2.21,2-2.54C139.78,144.13,142.46,143.3,145.13,142.58Z" transform="translate(-6.94 -7.3)"/><path class="cls-20" d="M161.84,154.9c-.07-2.72.24-6.72-.42-10.67-.24-1.43.47-1.36,1.35-1.07,1.95.66,3.88,1.4,5.83,2.08,1.06.37,1.22,1.18,1.23,2.16q0,9.65.1,19.31c0,.27.1.7,0,.79-2.17,1.52-4.6.26-6.89.59-1.27.18-1.18-.75-1.18-1.59C161.84,163.05,161.84,159.61,161.84,154.9Z" transform="translate(-6.94 -7.3)"/><path class="cls-21" d="M172.56,147.24a47.92,47.92,0,0,1,9.79,7.21c1.13,1,1,2.46,1.08,3.79.17,3.07.2,6.16.43,9.22.08,1-.18,1.26-1.11,1.23-2.72-.08-5.44-.16-8.16-.12-1.32,0-1.42-.66-1.43-1.69C173.1,160.45,173.5,154,172.56,147.24Z" transform="translate(-6.94 -7.3)"/><path class="cls-7" d="M132.84,146c-.51,5.58-1,10.59-1.42,15.6,0,.36-.15.71-.19,1.07-.19,1.77.63,4.11-.74,5.17-1.13.87-3.33.26-5,.6-1.92.4-2.18-.39-1.91-2a57,57,0,0,0,1.17-9.12q0-.81,0-1.62c0-2-.9-4.8,0-5.65C126.84,148.19,129.81,147.39,132.84,146Z" transform="translate(-6.94 -7.3)"/><path class="cls-20" d="M122.45,150.93c-.29,5.92-1.24,11.15-2,16.4-.13,1-.49,1.49-1.53,1.33-.26,0-.54,0-.81,0-1.65-.16-3.76,1.41-4.75,0-.69-1,.23-3.09.46-4.69.08-.53.45-1.09.34-1.57C112.72,155.73,118.06,154,122.45,150.93Z" transform="translate(-6.94 -7.3)"/><path class="cls-22" d="M185.71,157.71c4.16,3.56,7.36,7.23,9.43,12.3l-7.85-.87c-1.07-.12-.9-.92-.95-1.63C186.15,164.39,186.48,161.25,185.71,157.71Z" transform="translate(-6.94 -7.3)"/><path class="cls-23" d="M102.24,170.07a68.73,68.73,0,0,1,9.87-11.3c-.6,3.65-1.17,6.73-1.59,9.84-.17,1.27-1,1-1.77,1.1C106.68,169.85,104.62,169.94,102.24,170.07Z" transform="translate(-6.94 -7.3)"/></svg>