<svg id="Layer_1" data-name="Layer 1" xmlns="http://www.w3.org/2000/svg" viewBox="0 0 286.11 285.41"><defs><style>.cls-1{fill:#010101;}.cls-2{fill:#fefefe;}.cls-3{fill:#070101;}.cls-4{fill:#fe7900;}.cls-5{fill:#ee8777;}.cls-6{fill:#d6000a;}.cls-7{fill:#d5000a;}.cls-8{fill:#d5010b;}.cls-9{fill:#fcfcfc;}.cls-10{fill:#c80908;}.cls-11{fill:#d4020a;}.cls-12{fill:#090202;}.cls-13{fill:#fbc603;}.cls-14{fill:#fcc404;}.cls-15{fill:#fcc306;}.cls-16{fill:#fbc505;}.cls-17{fill:#fcc504;}.cls-18{fill:#030303;}</style></defs><title>25</title><path class="cls-1" d="M146.76,7.31c35.7,0,71.4-.06,107.1.07,5.59,0,11.27.24,16.7,1.77,11.72,3.3,18.62,11.43,21.95,22.8A22.33,22.33,0,0,1,293,38.7c-.19,6.52-.63,13-.8,19.57-.1,4,.16,8,.16,11.95,0,52.59-.06,105.18.07,157.77,0,7.12-.09,14.25.38,21.41s.35,14.72-1.87,21.83c-3,9.52-9.28,15.89-18.51,19.69-5.53,2.27-11.17,1.76-16.82,1.68-1.63,0-3.26,0-4.89,0l-149.25-.14c-13.08,0-26.17-.3-39.24.12-7.63.25-15.21.09-22.81-.15-15.29-.48-26.73-7.37-31.83-23.88A20.46,20.46,0,0,1,7,261.23c.88-13.61.3-27.23.33-40.85q.17-82.15,0-164.31c0-8.33-.54-16.7,1.2-24.88,2.23-10.5,8.78-17.57,18.66-21.78,5-2.15,10.24-2,15.46-2q52-.06,104.11,0Z" transform="translate(-6.94 -7.3)"/><path class="cls-2" d="M145.38,11.64q53.28,0,106.55,0a102.28,102.28,0,0,1,15.46,1c12.28,1.95,21.51,13.55,21.34,25.83-.94,65.74-.33,131.48-.36,197.22,0,9.34.16,18.66-.19,28-.49,13-11.79,24.59-24.79,24.62q-71.4.15-142.8,0c-21.44,0-42.88-.18-64.32.09-7.09.09-14.14-.19-21.18-.7-12.6-.93-22.64-10.88-23.52-22.62-.79-10.56-.21-21.22-.21-31.83q0-37.2,0-74.38,0-54.5,0-109c0-5.71,0-11.47,1-17.1C14.57,20.08,26.58,11.58,38,11.65c35.79.22,71.58.08,107.37.08Z" transform="translate(-6.94 -7.3)"/><path class="cls-3" d="M190.48,175.55l18.32,10c6.58,3.59,13.15,7.21,19,11.95.54.44,1.48.86,1.34,1.54-.27,1.34-1.19-.11-1.66.18a17.92,17.92,0,0,0-2.08,1.74c-6.95,6.13-15.66,8.85-24,12.33-3.32,1.39-6.69,2.66-10.16,4,10.81,4.48,20.67,10.33,30.51,16.23,2,1.2.52,1.88-.31,2.51-3.75,2.84-8.15,3.69-12.72,4-23,1.51-46.1.85-69.16.47-5-.08-10-.6-15-.71-3.78-.08-7.57.38-11.35.23a125.14,125.14,0,0,1-20.51-2.11c-3.28-.67-5.71-2.67-7.94-4.94-1-1-1.85-2.59-1.47-3.94.78-2.74-.46-2.94-2.7-3.29-5.43-.84-10.85-1.81-15.9-4.25-2.25-1.08-2.81-2.52-2.14-4.77.76-2.57,1-5.31,2.5-7.62a16.44,16.44,0,0,1,1.63-2.49c1.18-1.22,2.52-2.28,3.79-3.41a14.45,14.45,0,0,1-2.86-4.25,11.71,11.71,0,0,1,.58-12.36c1.53-2.35,4.66-1.94,7.1-2.66,1.43-.42,3.52.75,4.33-.39s0-3,.22-4.48c.49-2.61-.4-3.41-3-3.45a22.31,22.31,0,0,1-6.33-1.38c-4.71-1.54-6.87-6.72-5.69-12.91a20,20,0,0,1,5.59-10.66c5.13-5.07,6.12-11.7,7.26-18.25.87-5,1.16-10.05,2-15.05.4-2.49.68-4.14-2.48-5.26-5.16-1.82-7.8-7.16-7.06-12.73.64-4.81,4.56-8.49,9.88-9.27,1.35-.2,2.39-2.76,1.22-3.65s-.7-1.46-.46-2.23c.74-2.49,1.74-4.92,2.28-7.45,1.21-5.67,5.31-7.83,10.33-9.35,15.18-4.6,30.63-3.6,46.1-2.54,6.51.45,13,.76,19.55,1.27,8.48.67,17,1.48,25.44,2,8.25.48,16.24,2.57,24.46,3a28.54,28.54,0,0,1,5.53,1c1.41.35,2.12.78.87,2.53-3.22,4.53-7.48,7.86-11.79,11.17A210,210,0,0,0,187,99.49c-1.68,1.59-1.14,2.14.51,2.87,4.45,2,9.19,3.07,13.78,4.64,6.08,2.09,12.22,4,18.32,6,1.67.56,1,1.74.32,2.56-1.7,1.89-3.55,3.63-5.3,5.47-8.19,8.66-15,13.66-25.23,18.52l12.75,6c5.78,2.72,11.54,5.47,17.33,8.15,1.47.68,1.8,1.06.63,2.64C214,164.77,204.77,168.59,196,173,194.28,173.81,192.58,174.57,190.48,175.55Z" transform="translate(-6.94 -7.3)"/><path class="cls-4" d="M117,145l-.44.32c-1,.66-3,1-2.69,2.19s2.16.1,3.26.57c3,.14,5.32,1.26,6.24,4.3s1.73,6.16-.84,9a7.9,7.9,0,0,1-5,2.45c-5.57.74-11.14,1.58-16.74,2-4.23.34-8.28-1-12.06-2.8a3.8,3.8,0,0,1-2-5.3c3-6.82,2.16-14.09,2.84-21.17,1.22-12.72,3.82-25.07,9-36.81,4-9.08,10.12-16.72,16.48-24.19,1.83-2.14,3.54-4.36,5.35-6.52a5.87,5.87,0,0,1,2.42-2.13c5.9-.56,11.76.4,17.64.57,8.33.24,16.69.62,25,1.47,11.49,1.18,23.09,1.16,34.49,3.53,4.08.84,8.38.8,13,1.57A101.66,101.66,0,0,1,200.29,84.7c-6.17,4.47-11.73,9.68-17.62,14.48-1.48,1.21-1.93,2.3.38,3.55,9.63,5.23,20.09,8,30.57,10.77,1.21.32,2.46.54,4,.89-6.33,5.54-11.83,11.75-19.05,16-3.66,2.15-7.39,4.23-10.53,7.16-3,2.78-3,3.12.41,5.25A83.88,83.88,0,0,0,204.25,150c4.46,1.66,9,3.16,13.5,4.75-1.89,2.79-27.08,19.31-30.45,19.91,2.34,3.76,6,5.79,9.5,8a278.87,278.87,0,0,0,26.25,14.2c.64.31,1.58.44,1.67,1.21.13,1-1,1.08-1.66,1.48-8.22,5.2-17.53,8.21-26,12.88-1.74.95-3.49,1.88-5.2,2.89-2.38,1.41-2.53,2.3-.21,4.09a63.19,63.19,0,0,0,7.28,4.7,174.13,174.13,0,0,0,21.55,10.33c-9.91,4.12-19.76,2.59-29.44,2.78a52.21,52.21,0,0,0-18.48-2.4c-5.76.41-11.12-1.15-16.51-2.73-.93-.28-2.15-.43-2.43-1.5-.34-1.24.78-2,1.64-2.56,1.86-1.29,2.87-3.23,4.13-5,5.26-6,4.57-13.19,3.68-20.31-.68-5.42-4.07-8.54-9.29-9.56-9.66-1.9-19.26-4-29.08-5.09-6.71-.77-13.35-2.26-20.11-2.83-2.79-.23-5.6-.3-8.4-.45-.55-.2-1.44-.23-.76-1.18a5,5,0,0,1,2-1.34c4.93-2.48,9.89-4.87,14.77-7.43,2-1.06,4.3-1.13,6.37-2,2.33-1.16,4.91-1.11,7.39-1.51,5.6-.89,8.72-4.11,9-9.34a27.19,27.19,0,0,0-1-9.61c-1.43-4.16-4.42-6.75-8.19-8.55C122.66,142.44,119.75,143.2,117,145Z" transform="translate(-6.94 -7.3)"/><path class="cls-5" d="M100.42,223.75a92.4,92.4,0,0,1-25.63-2.2A64.86,64.86,0,0,1,66.5,219c-1.49-.55-1.73-1.38-1.25-2.69a29.92,29.92,0,0,1,1.61-4.3c2.73-5,3.87-7.34,11.08-6.9q32.73,2,65.54,2.86c1.17,0,2.35-.06,3.53-.12.79,0,1.88.12,2.05-.86s-1-1.08-1.69-1.33a20.4,20.4,0,0,0-6.66-1.1c-17.34-.12-34.65-1.18-52-1.79-3.71-.12-7.43-.63-11.14-.38-3,.21-4.8-1.51-6.17-3.61a13.65,13.65,0,0,1-1.85-9.15c.11-1,.55-1.2,1.45-1.51,3.62-1.25,7.31-1.12,11-.94,6.34.3,12.69.64,19,.92,7.71.33,15.28,1.79,22.91,2.77,9.17,1.17,18.26,2.65,27.26,4.69,6.84,1.55,8.26,3,9.19,9.82a25.72,25.72,0,0,1-.5,11.07c-1,3.38-2.69,4.83-6.19,5C136.81,222.58,119.87,223.56,100.42,223.75Z" transform="translate(-6.94 -7.3)"/><path class="cls-6" d="M122.83,66.91c-3.57,5.49-8.12,10.18-12.28,15.18C99.47,95.39,93.94,111,91.38,127.81a122.77,122.77,0,0,0-1.56,20c0,3.23-1.07,6.21-2.17,9.17-1.16,3.14-.55,5,2.49,6,4.9,1.74,9.89,2.66,15.16,1.64a90.55,90.55,0,0,1,11-1.41c4.72-.32,6.62-2.44,7.16-5a8.08,8.08,0,0,0-5.09-9.58c-.42-.17-.81-.37-1.21-.56,7.22-1.55,12.93,5.28,13.72,10.55.09.63.2,1.25.28,1.88.63,5-1.78,7.64-6.87,8.12-8.75.84-17.44,2.39-26.19,2.81-8.17.38-16.28,2.47-24.62.58a7.55,7.55,0,0,1-5.86-8.34,18.18,18.18,0,0,1,4.77-10.38c6.06-6.18,6.82-14.18,8.19-22.08a90.46,90.46,0,0,0,1-16.51c0-1.11.31-1.54,1.51-1.68,5.44-.6,9.77-4.27,10.43-8.68,1-6.72-1.7-11.85-7.62-14.21-.77-.31-1.28-.65-1.45-1.41-1.22-5.56.21-10.78,3.07-15.36,1.31-2.09,4.41-3,7-3.75a52.06,52.06,0,0,1,10.34-2.07C110.87,67.23,116.82,66.21,122.83,66.91Z" transform="translate(-6.94 -7.3)"/><path class="cls-7" d="M159.38,223.05c.14,3.87-3.54,4.87-5.76,7.49,4.91,1.2,9.3,3.33,14.21,3.4,5.95.09,11.91-.13,17.8,1.1,2,.4,3.88.77,5.4,2.18a157.25,157.25,0,0,1-18.43.76c-7.61-.23-15.23.27-22.85.21q-15-.12-29.86-1.34c-4-.33-8-.07-12-.39-4.25-.34-8.46-.87-12.68-1.42a12.72,12.72,0,0,1-8.7-5.42c-1.19-1.61-.54-2.8,1.4-2.74,14,.44,28-.25,41.91-.77,8.56-.32,17.21-.21,25.72-1.74C157,224.12,158,223.17,159.38,223.05Z" transform="translate(-6.94 -7.3)"/><path class="cls-8" d="M118.57,172.91c-7.32,3.07-14.35,6.74-21.41,10.36-.35.18-2.46-.05-1,1.54-3.71-.19-7.41-.41-11.12-.56-2-.08-2.75-1-2.35-2.95a4.36,4.36,0,0,0,0-.81c0-1.5-.67-3.84,0-4.33,1.24-.88,3.26-.77,5-.89,6.51-.45,13-.72,19.54-1.27C111,173.67,114.74,172.63,118.57,172.91Z" transform="translate(-6.94 -7.3)"/><path class="cls-9" d="M90.87,101.21a9.34,9.34,0,0,1-9.24,9.08A8.8,8.8,0,0,1,73,101.36c0-4.79,4.26-9.61,8.53-9.59A9.9,9.9,0,0,1,90.87,101.21Z" transform="translate(-6.94 -7.3)"/><path class="cls-10" d="M117,145a5.74,5.74,0,0,1,6.63-2.5,15.43,15.43,0,0,1,11.27,19.55c-1.16-2.44-.78-5.2-1.94-7.74C130.62,149.1,124.52,143,117,145Z" transform="translate(-6.94 -7.3)"/><path class="cls-11" d="M131.12,115.87c-3.47,3.46-7.61,4.23-12.23,3s-7-4.59-7.63-9c-1.26-8.26,3.34-17.19,11.66-19.41,1.49-.4,3-.77,4.45.11.4,1.28-.77,1.17-1.37,1.48a13.06,13.06,0,0,0-6.91,7.54,11.45,11.45,0,0,0,8.84,15.1C129,114.89,130.32,114.8,131.12,115.87Z" transform="translate(-6.94 -7.3)"/><path class="cls-12" d="M131.12,115.87c-6-.3-10.56-2.7-12.78-8.59-1.67-4.41-.53-8.31,2.23-11.87a14,14,0,0,1,6.8-4.87c4.64-.12,8.94.53,12.28,4.34a12.57,12.57,0,0,1-6.19,20.35Z" transform="translate(-6.94 -7.3)"/><path class="cls-13" d="M173.71,207.51c-.26,2.94-2.13,6.84-5.23,10.18-.6.66-1.33,1.55-2.25,1.2s-.77-1.6-.64-2.43a62.52,62.52,0,0,0,1.15-11,19.1,19.1,0,0,0-1.34-6c-.37-1-.84-2.1.23-3s2.43-.58,3.53.16C172.43,198.81,173.84,202,173.71,207.51Z" transform="translate(-6.94 -7.3)"/><path class="cls-14" d="M213.5,199.4c-.07,1.22-1.24,2.09-2.36,2.73-6.19,3.55-12.84,6.1-19.45,8.73-.61.25-1.34.51-1.77,0s.22-1.15.66-1.53a73.89,73.89,0,0,1,18.79-12.1C211.61,196.21,213.46,197.22,213.5,199.4Z" transform="translate(-6.94 -7.3)"/><path class="cls-15" d="M204.4,118c1.44,0,2.16.12,2.45.93a2.06,2.06,0,0,1-.78,2.42c-2.75,2.2-5.48,4.41-8.27,6.55s-5.36,4-8.06,6c-.46.34-.85,1.21-1.54.66s-.09-1.19.21-1.71a39.45,39.45,0,0,1,11-11.83C201.12,119.69,202.71,118,204.4,118Z" transform="translate(-6.94 -7.3)"/><path class="cls-16" d="M184.35,86.66c1.29-3.31,3.81-5.52,6.27-7.67a40.4,40.4,0,0,1,8.44-5.3c1.09-.56,2.37-.92,3.21.21a2.22,2.22,0,0,1-.48,3.17,68,68,0,0,1-16.46,9.74C185.12,86.9,184.82,86.74,184.35,86.66Z" transform="translate(-6.94 -7.3)"/><path class="cls-13" d="M112.65,154.77c0-4.1.83-5.29,3.7-5.24s5.1,2.38,5.05,5.57c0,3-2.5,5.84-5,5.85S112.66,158.77,112.65,154.77Z" transform="translate(-6.94 -7.3)"/><path class="cls-15" d="M183.89,170.79c-.23-.15-.57-.25-.63-.43-.18-.64.33-1,.75-1.32,2.69-1.95,5.33-4,8.15-5.77a81.52,81.52,0,0,1,12.31-6.2c1-.41,2.22-1,2.87.19s-.37,2-1.36,2.58c-6.79,4-14,7-21.06,10.52C184.6,170.52,184.26,170.64,183.89,170.79Z" transform="translate(-6.94 -7.3)"/><path class="cls-17" d="M205.37,231.27a25.11,25.11,0,0,1,8.47,1.66c.63.22,1.26.48,1.1,1.28a1.22,1.22,0,0,1-1.25.86c-3.93.33-7.81,1.47-11.81.61-1-.23-2.35-.18-2.46-1.6s1-1.91,2.19-2.37A11.18,11.18,0,0,1,205.37,231.27Z" transform="translate(-6.94 -7.3)"/><path class="cls-18" d="M78.75,102.26a7.25,7.25,0,0,1,1.9-5.45c1.08-1.26,2.66-1,3.13.49a12.77,12.77,0,0,1,.42,6.93c-.38,1.53-1.11,3-3.06,2.78s-2.35-1.74-2.39-3.4C78.74,103.16,78.75,102.71,78.75,102.26Z" transform="translate(-6.94 -7.3)"/><path class="cls-9" d="M130,112.54a9.64,9.64,0,0,1-9.6-9.92c.13-5.68,4.33-9.26,10.08-9.33a9.47,9.47,0,0,1,9.43,9.74C139.91,108.51,135.68,112.57,130,112.54Z" transform="translate(-6.94 -7.3)"/><path class="cls-18" d="M126.34,102.93a37.28,37.28,0,0,1,1.1-4.37c.73-2,2.36-2.37,4.07-1.07,3,2.3,2.48,8.26-.91,10C128,108.85,126.19,107.26,126.34,102.93Z" transform="translate(-6.94 -7.3)"/></svg>