<svg id="Layer_1" data-name="Layer 1" xmlns="http://www.w3.org/2000/svg" viewBox="0 0 286.11 285.43"><defs><style>.cls-1{fill:#010101;}.cls-2{fill:#fefefe;}.cls-3{fill:#829f5e;}.cls-4{fill:#1d8767;}.cls-5{fill:#e87;}.cls-6{fill:#fdfdfd;}.cls-7{fill:#fcfcfc;}.cls-8{fill:#fbfbfb;}.cls-9{fill:#fafafa;}.cls-10{fill:#829e5f;}.cls-11{fill:#d8d743;}.cls-12{fill:#218666;}.cls-13{fill:#208566;}.cls-14{fill:#208665;}.cls-15{fill:#f5f5f5;}.cls-16{fill:#7f9c60;}.cls-17{fill:#f7f8f8;}.cls-18{fill:#050505;}.cls-19{fill:#f4f4f4;}.cls-20{fill:#f8f8f8;}.cls-21{fill:#ededed;}.cls-22{fill:#0a0a0a;}.cls-23{fill:#f0f1f0;}.cls-24{fill:#f5f4f5;}.cls-25{fill:#e4e2e4;}.cls-26{fill:#010302;}.cls-27{fill:#218667;}.cls-28{fill:#020403;}.cls-29{fill:#ded93a;}.cls-30{fill:#ded939;}.cls-31{fill:#180404;}.cls-32{fill:#080808;}.cls-33{fill:#060606;}.cls-34{fill:#050304;}.cls-35{fill:#010102;}.cls-36{fill:#0d0d0c;}</style></defs><title>4</title><path class="cls-1" d="M146.48,7.3c35.79,0,71.58-.07,107.38.08,5.75,0,11.6.25,17.21,1.94,9.77,2.95,16.34,9.29,20.1,18.77,1.91,4.8,1.77,9.66,1.61,14.66-.28,9.06-.44,18.12-.43,27.19.08,53,0,105.9.11,158.85,0,6.85-.09,13.71.37,20.6.48,7.23.35,14.72-1.87,21.83-3,9.53-9.28,15.9-18.51,19.7-5.52,2.27-11.17,1.79-16.83,1.67-1.72,0-3.44,0-5.16,0l-153.33-.14c-12.45,0-24.9-.35-37.33.14-6.82.27-13.58-.06-20.36-.19-11.9-.23-21.73-4.61-28.11-15.14a28.68,28.68,0,0,1-4.17-18.73,44.35,44.35,0,0,0,.22-5.16q0-61.44,0-122.89c0-24.79.12-49.59-.07-74.38A181.65,181.65,0,0,1,7.9,35.21c1.32-12.55,8-21,19.54-25.89,4.95-2.12,10.08-2,15.21-2q51.92-.06,103.83,0Z" transform="translate(-6.94 -7.29)"/><path class="cls-2" d="M11.34,150.07c0-30.34.05-60.67,0-91,0-7.91.28-15.8.61-23.69.5-12,12.1-23.44,24.11-23.58,48.68-.55,97.37-.15,146.06-.24q34.75-.08,69.5.12c5.43,0,10.93.05,16.27,1.09,13.08,2.55,21,14.67,20.86,25.44-.9,65.56-.32,131.12-.37,196.68,0,9.33.12,18.66-.1,28-.35,14.31-12.87,25.7-26.42,25.65-60.77-.22-121.55-.1-182.32-.1-8.45,0-16.9-.22-25.34.06a111.86,111.86,0,0,1-21.67-1.11A24.91,24.91,0,0,1,11.78,266.6c-.82-5.13-.4-10.47-.4-15.72q0-50.4,0-100.81Z" transform="translate(-6.94 -7.29)"/><path class="cls-1" d="M175.86,247.5c5.36-2.3,10.4-4.9,16.29-4.76a19.83,19.83,0,0,1,6.29,1.38c2.24.79,2.89,2.91,2,5.69s-3.3,4.55-5.69,3.88c-5.57-1.57-11.32-.81-16.95-1.61-3.27-.47-4.57-1.16-4.62-4.43-.13-8.87-.47-17.75.86-26.78a149.11,149.11,0,0,0-17.86,1.35,170,170,0,0,1-28,.64c-2.63-.12-5.27-.2-7.87-.52-1.53-.19-1.1.77-1.13,1.46-.31,6.07-.3,12.15-1.11,18.18a32.64,32.64,0,0,0-.41,8.62,25.79,25.79,0,0,1,15.08-8.18,10,10,0,0,1,7.23,1.5c2.28,1.42,1.67,3.86,1.49,6-.43,5.07-.53,4.9-5.68,5.51a86.36,86.36,0,0,1-17.9,0c-2.35-.2-2.83-2-3-3.94-.41-4,.66-7.93,1.2-11.86.75-5.48.54-11,1.33-16.48.18-1.24-.77-.9-1.41-1.05-5-1.16-10.11-.9-15.1-1.66-6.23-1-12.39-2.58-17.66-6.21a12.13,12.13,0,0,1-5.18-9.06c-1.15-9.46-2.28-18.91-1.88-28.43.37-8.78,1.3-17.54,1.84-26.32.28-4.52.25-9.07.33-13.6a3.32,3.32,0,0,0-.82-2.42c-2.27,1.87-1.87,4.68-2.38,7.07a40.83,40.83,0,0,1-1.8,6.2c-.54,1.39-1.27,2.63-3.07,2.6a4.13,4.13,0,0,1-3.93-2.36c-2.69-5.12-3.13-10.42-.64-15.62a17.24,17.24,0,0,0,1.12-11.54C65.44,114,69.38,110.08,76,111.2c3.36.58,3.47.5,3.47-2.92,0-6.36,0-12.71-.08-19.06s2.67-11.46,5.71-16.6c.89-1.5,2.54-2,4-2.7,4.72-2.42,9.74-3.3,15-3.9,12.81-1.46,25.68-1.29,38.5-2.18a247.1,247.1,0,0,1,29.93-.23c6.93.37,13.91-.59,20.8.82A36.3,36.3,0,0,1,199.58,66c5.5,2.17,6.87,4.06,6.91,10,0,1.55,0,2.5,2.09,2.89,3.9.7,6.58,4.54,6.64,8.5.06,4.42-2.42,8.22-6.46,9.21-1.62.39-1.64,1-1.66,2.36a214,214,0,0,1-1.16,23c-.26,2.1-1.08,4.05-2.81,5-2.93,1.69-3.09,4.34-3.13,7.1-.09,6.26,0,12.53-.11,18.79-.07,4.7-1.63,6.24-6.34,6.44-3,.12-6,0-9,.12-3.55.14-5.92,4.82-4.11,7.94.32.54.81,1.16.76,1.7-.5,5.46,3.66,8.56,6.56,12,1.3,1.54,4.6,1,7,1,5-.14,5.88.64,5.74,5.67,0,.71-.82,2,.78,2.1,6.44.37,9.08,4.07,10,10.18,1.41,9.12-2.31,16.28-10.51,18.93a4.45,4.45,0,0,1-2.11.3c-7-1.18-13.87.58-20.79,1.07-1.19.08-1.42.48-1.53,1.58C175.55,230.4,175.77,238.89,175.86,247.5Z" transform="translate(-6.94 -7.29)"/><path class="cls-3" d="M136.15,168c2.61,2.76,4.3,6.19,6.83,9,5.3,6,12.18,8.77,19.61,10.69,2.5.65,5.08,1,7.44,2.13-2.61,1.41-5-.44-7.12-.42-.75-.18-.56.32-.55,0,0,0,.09,0,.27,0,9.28,1.48,18.35,3.93,27.57,5.68a24.81,24.81,0,0,0,6.77.26c2.42-.22,4.7-.2,6.76,1.28.4.28,1,.74,1.35,0s-.25-1-.7-1.3a4.21,4.21,0,0,0-3.39-.67c-6.39,1.69-12.57.2-18.73-1.28-1.26-.31-3.06.26-3.56-1.71,7.6.7,15.23.26,22.84.49,4.05.11,5.86,1.89,6.65,5.91.88,4.44,2,8.9-.72,13.14a9.85,9.85,0,0,1-1.08,1.17,7,7,0,0,1-4.25.55,27.08,27.08,0,0,0-13.93,1.39,16,16,0,0,1-6.15.95c-4.61-.24-9.23-.45-13.84-.83-2.91-.24-5.75.38-8.68.11-8.31-.76-16.09-3.54-24.09-5.54a101.39,101.39,0,0,1-29-12.19c-3.74-2.33-7.76-4.52-9.41-9.08a36.05,36.05,0,0,1-2.16-9.49,231.79,231.79,0,0,1-1-26.08c.2-5.44,1.08-10.81,1.73-16.21.46-3.87,1.27-7.69,1.57-11.58.24-3.16.73-6.32,1.26-9.4,2.46-14,1.93-28.2,2-42.34,0-1.42-.3-2.93.76-4.18l22.37-2.11a15.1,15.1,0,0,1,1.9-.08c9.52.38,19-.26,28.51-.81,9.82-.57,19.56.12,29.3.39,5.19.14,10.64.41,15.67,2.47,4.35,1.79,6.11,4.84,5.35,9.38-.28,1.63-1.73,1.26-2.66,1.79-6,1.14-9.08,11.14-5.56,15.32,1.94,2.29,4.09,4.09,7.33,3.91a3.2,3.2,0,0,1,1.86.2c-.48,7.21-1,14.41-1.41,21.62-.19,3.49-2.31,5.36-5.06,6.79A81.2,81.2,0,0,1,179.18,134C172,135.61,165,138.09,158,140.2c-.07-1.53,1.28-1.83,2.2-2.43,2.68-1.76,5.77-2.62,8.68-3.87,1.18-.51,3.21-1,2.93-2.37-.31-1.56-2.31-.87-3.57-.87-9.22,0-17,4-24.33,9-4.29,2.94-8.17,6.28-11,10.79s-3.17,9.59-2.95,14.67c.13,2.94.3,6,2,8.65.36.57.58,1.54,1.49,1.28.66-.19.66-1,.76-1.64C134.52,171.48,134.44,169.4,136.15,168Z" transform="translate(-6.94 -7.29)"/><path class="cls-4" d="M101.19,68.39c0,9.35.17,18.71,0,28.06-.14,5.77-1.11,11.49-1.77,17.23-.71,6.18-1.62,12.33-2.48,18.48-.67,4.83-1.29,9.67-1.72,14.52a112.74,112.74,0,0,0,.28,26,44.85,44.85,0,0,1,.29,5.42A25,25,0,0,0,99,189.69c1.61,3,4.66,4.31,7.25,6a102.07,102.07,0,0,0,27,12c6.88,2,13.79,4,20.82,5.38a38.75,38.75,0,0,0,11.32.6A52.81,52.81,0,0,1,177,214a26.8,26.8,0,0,0,13.31-1.27,21.19,21.19,0,0,1,10.18-1c2,.24,4,.28,5.95.51-2.79,3.68-7.06,3.59-10.86,3.61-8,.05-15.74,2.23-23.71,2.59-6.94.32-13.87,1.15-20.79,1.92-8.43,1-16.84.36-25.26,0a134.44,134.44,0,0,1-28-4.46c-3-.8-6.16-1.36-9.22-2.1-5.17-1.26-8.88-5.3-9-10.53-.3-10.79-1.37-21.6-.51-32.38.91-11.48,1.79-22.95,1.51-34.48,0-1.84.06-4.17-1.85-4.66-2.18-.56-3.39,1.69-4.41,3.35s-.9,3.84-1.29,5.78a21,21,0,0,1-1.61,5.15c-.34.69-.33,1.79-1.41,1.7-.86-.07-1.32-.84-1.68-1.62-1.91-4-2.36-8.32-.46-12.34,2.15-4.56,3-8.93,1.43-13.88-1-3,.23-5.07,2.38-5.93,3.21-1.28,6.2-.55,7.82,2,.24.38.31.93.9.63a1.88,1.88,0,0,0,1.21-1.69c-.21-2.66.49-5.22.63-7.84.34-6.69-.78-13.34-.17-20.08.86-9.5,6.53-16.36,16-18.07C99.05,68.69,100.12,68.55,101.19,68.39Z" transform="translate(-6.94 -7.29)"/><path class="cls-4" d="M136.15,168c-.91,2.29-1,4.76-1.61,7.12-.17.69-.29,1.55-1.23,1.54-.67,0-1.08-.6-1.4-1.16-2.56-4.47-2.93-9.32-2.67-14.34.71-14.23,11-20.49,21.76-26.47a35.24,35.24,0,0,1,19.19-4.74c1.12,0,2.56-.34,2.91,1.28s-1.08,2-2.06,2.47c-3.95,2.08-8.41,3.08-12.14,5.63a7.42,7.42,0,0,0-.94.92c-6.94,2.75-13.46,6.11-18.37,12C135.7,156.89,134,162,136.15,168Z" transform="translate(-6.94 -7.29)"/><path class="cls-5" d="M141.65,159.82c6.93,1,14.15,2.46,21.34,4.06,4.4,1,8.74,2.13,13,3.53,1.45.47,2.88.74,2.64,2.73s-1.79,1.67-3.12,1.7c-4.77.11-9.6-.33-14,2.07a11.68,11.68,0,0,0-4.2,3.73c-.6.88-.45,2.52-2.12,2.43-2.21-.12-4.59.62-6.56-.94-4.47-3.54-7.55-8.2-10.38-13a6.91,6.91,0,0,1-.3-5.29C138.38,159.06,140.13,160.38,141.65,159.82Z" transform="translate(-6.94 -7.29)"/><path class="cls-6" d="M213,87.69a7,7,0,0,1-7.23,7.11c-3.7,0-6.6-3.09-6.64-7.08,0-3.27,2.75-6.8,5.37-6.83C209.79,80.84,213,83.38,213,87.69Z" transform="translate(-6.94 -7.29)"/><path class="cls-7" d="M191.46,133.05c-.85,7.71-2.1,15.08-2.06,22.56,0,.78.37,1.68-1,1.57-2.09-.18-.08-.78-.1-1.16s-.09-.49-.36-.57c-3-.8-2.11-3.2-1.9-5.06.44-3.77,0-7.59.77-11.33.05-.27-.22-.6-.53-1.4-2.15,5.63-1.44,11.07-1.69,17-1.17-1.92-.55-3.3-.53-4.66.1-4.33.06-8.66.53-13,.17-1.47.31-2.19,2-2.39A27.89,27.89,0,0,0,191.46,133.05Z" transform="translate(-6.94 -7.29)"/><path class="cls-8" d="M168.21,145.66c0-.64,0-1.27.07-1.9.18-4.25,2-6,6.12-6.22,1.3-.07,1,.79.93,1.39-1.1,5.86-.89,11.84-1.53,17.75-.07.64-.16,1-.86,1-1.72,0-3.44,0-5.16,0-.44,0-1,0-.86-.67a2.46,2.46,0,0,1,.26-1c.49-.67.68.13.95.3a2.07,2.07,0,0,0,3.08-.57c.84-1.26-.5-1.39-1.24-1.76-1-.49-.85-1.28-.69-2.19.53-3.09,1-6.19,1.49-9.28.08-.45.37-.87-.2-1.09s-.78.25-1.06.6c-.82,1.08-.1,2.74-1.35,3.66Z" transform="translate(-6.94 -7.29)"/><path class="cls-8" d="M198.16,130.3a114.4,114.4,0,0,0-.93,16.64c.1,2.26.29,4.52.5,6.78.13,1.46-.48,2.35-2,3a12.32,12.32,0,0,0,.29-1.26c-2.5-.81-1.68-2.19-1.13-4.07,1.26-4.32-.1-9,1.16-13.36.18-.62,0-1.44-.8-1.46s-.73.81-.81,1.42c-.54,4.21-1.34,8.4-1.05,12.67.1,1.42-.87,2-1.6,3.22-.08-7.26,1.38-14,1.57-20.89,0-1.24,1.17-1.14,1.94-1.47Z" transform="translate(-6.94 -7.29)"/><path class="cls-9" d="M176.36,153.9c.3-5,.56-10.09,1-15.13.17-1.84.87-2.45,2.39-2.75,1-.19,1.93-.4,3.42-.72-1.61,5.14-1.11,10.27-1.53,15.34-.09,1-.25,2-.28,3-.12,4.58-.6,4.91-5.45,3.68.14-.24.16-.71.27-.73,2.89-.62,1.74-2.79,1.67-4.45a60.17,60.17,0,0,1,.84-9.94,92.51,92.51,0,0,0-1.13,10.77c0,.62-.08,1.47-1.12,1.42a.3.3,0,0,1-.12-.19A.61.61,0,0,1,176.36,153.9Z" transform="translate(-6.94 -7.29)"/><path class="cls-10" d="M122.94,248.67a18.59,18.59,0,0,1,11.19-4.15c4.15-.16,5.08,1.28,4.64,5.92-4.7,2.14-9.54,1.56-14.36.65A1.71,1.71,0,0,1,122.94,248.67Z" transform="translate(-6.94 -7.29)"/><path class="cls-11" d="M178.7,191.6c7,1.89,14,4.41,21.43,2.28a6.23,6.23,0,0,1,5.43,1,1.79,1.79,0,0,1,.38,2.84c-.86,1.05-1.55.77-2.36-.28A4.14,4.14,0,0,0,200,195.9c-9.67.78-18.77-2.24-28.05-4.14-3.79-.77-7.63-1.35-11.36-2.45-.32-.09-.75-.07-.72-.83,3.46,0,6.74,1.5,10.2,1.33Z" transform="translate(-6.94 -7.29)"/><path class="cls-12" d="M205.26,98.85c-3.6,1.66-6.37-.17-8.76-2.43A8.93,8.93,0,0,1,194.19,87c.87-2.87,1.84-5.89,5.1-7.19a3.31,3.31,0,0,1,2.34-.37c-6,4.17-5.75,9.92-3.09,13.6a8.18,8.18,0,0,0,5.23,3.58C205.32,96.86,205.49,97.62,205.26,98.85Z" transform="translate(-6.94 -7.29)"/><path class="cls-13" d="M198.22,248.7c-.45,1.89-1.22,2.79-3.55,2.39a59.64,59.64,0,0,0-9.18-.47c-3-.07-6,0-9-.35,2.73-2.62,6.22-3.41,9.65-4.35,1.36,1.42,3.1,1.47,4.92,1.5C193.49,247.46,196.07,247,198.22,248.7Z" transform="translate(-6.94 -7.29)"/><path class="cls-14" d="M122.94,248.67c.52,2.26,2.43,2.16,4.06,2.2a71.23,71.23,0,0,0,11.77-.43c.28,1.45-.38,2-1.79,2.34-6.13,1.68-12.32.42-18.89,1A10.27,10.27,0,0,1,122.94,248.67Z" transform="translate(-6.94 -7.29)"/><path class="cls-8" d="M162.46,144.27c-1.52.72-1.07,2.08-1.72,3.69,0-1.64-.08-2.66,0-3.65a5,5,0,0,1,5.18-4.07c1.16.12.72.91.61,1.37-1,4.21-1.25,8.53-2,12.78-.12.68.34,1.64-1.06,1.73s-1.34-.92-1.58-1.69c-.87-2.71.47-5.27.64-7.91A3.41,3.41,0,0,0,162.46,144.27Z" transform="translate(-6.94 -7.29)"/><path class="cls-15" d="M154.24,145.66c-.69-1.5.67-1.61,1.45-2,.95-.48,2-.8,3.3-1.31-.43,3.66-.84,7.08-1.25,10.51-.06.45-.14.9-.18,1.35-.34,3.53-1,4-4.51,3.39-.37-.07-.75,0-.73-.54,0-.17.09-.43.21-.47.47-.18.47.4.74.52a3.88,3.88,0,0,0,3.15-.19c-3.16-2.58-4-7.54-2.11-11.32a5.72,5.72,0,0,1,.33,2.62A4.26,4.26,0,0,0,154.24,145.66Z" transform="translate(-6.94 -7.29)"/><path class="cls-16" d="M198.22,248.7a44.55,44.55,0,0,0-9.65-.48c-1.78.06-2.46-.66-2.45-2.3,3.65-1.57,7.28-1.17,10.91.09A1.75,1.75,0,0,1,198.22,248.7Z" transform="translate(-6.94 -7.29)"/><path class="cls-17" d="M151.89,145.74c-.58,3.43-1.14,6.74-1.7,10.08-1-.15-1.28-1-1.51-1.73-.17-.59-.31-1.05-1-.87s-.71.77-.64,1.31a3.39,3.39,0,0,0,2.57,2.79c-3.45.72-3.44.72-3.16-2.68,0-.54,0-1.08,0-1.63C146.49,147.72,146.5,147.71,151.89,145.74Z" transform="translate(-6.94 -7.29)"/><path class="cls-18" d="M176.36,153.9c1.26.47.61-.66.59-.88-.35-4.18,1.09-8.18,1.22-12.31,0-.29.38-.57.79-1.15.81,2.1.36,4.08,0,5.84-.49,2.8-.2,5.57-.39,8.35,0,.41-.24.89.3,1.17s1.53-.21,1.19.89-1.26.89-2.07.86-1.81-1-2.09.62C176,156.15,175.52,155,176.36,153.9Z" transform="translate(-6.94 -7.29)"/><path class="cls-15" d="M192.51,184.67c2.07-.31,4-.91,5.44.29,1,.81.41,2.57-.21,3.79-1,1.95-2.84.8-4.29,1-1.24.17-.53-1-.65-1.57-.17-.84.55-.87,1-1.21s2-.11,1.59-1.34-1.44-.6-2.27-.4C193.1,185.25,193,185.07,192.51,184.67Z" transform="translate(-6.94 -7.29)"/><path class="cls-15" d="M179.19,185c.31-3.27,2.69-1.14,4.08-1.5s1.61.79,1.34,1.8c-.41,1.53,1,3.94-2.24,4.15-2.6.16-3.73-.64-3.17-3.3,1-.17,2.22.46,2.74-1C181.07,184.16,180.07,185.52,179.19,185Z" transform="translate(-6.94 -7.29)"/><path class="cls-19" d="M189.24,183.93c3.29-.57,1.51,1.91,1.4,3.4-.18,2.45-1.07,3-3.44,2.52-.64-.15-1-.34-.89-1,.08-.46-.12-1.32.75-1,1.67.6,1.2-1.68,2.38-1.65a1.48,1.48,0,0,0-2.12-1c-.58.22-.51-.29-.48-.58s.19-.58.34-.6A18,18,0,0,1,189.24,183.93Z" transform="translate(-6.94 -7.29)"/><path class="cls-20" d="M171.93,187.89c-1.84-1.07-3.88-.67-5.27-2.24,2.42,2,2-2.32,4-1.19-.76-1.83-2.2-1.47-3.53-1.89C173.23,181.94,172.12,181.46,171.93,187.89Z" transform="translate(-6.94 -7.29)"/><path class="cls-21" d="M176.89,188.58l-2.14-.33c-.34-.05-.77,0-.85-.47s.1-1,.61-1c1.78,0,1.66-1.66,1.79-2.49.2-1.18-.89-1-1.7-.57-.11-.21-.31-.41-.3-.61a.86.86,0,0,1,.3-.65c1-.52,3,.76,2.93,1.84C177.39,185.71,177.11,187.13,176.89,188.58Z" transform="translate(-6.94 -7.29)"/><path class="cls-19" d="M142.53,157.62c.05-1.33,1.58-3.27-1.57-3.4a12.55,12.55,0,0,1,3.74-3.51,34.83,34.83,0,0,0-.37,3.61,25.93,25.93,0,0,0,.39,3.22c-.72.16-1.47.61-2.25,0Z" transform="translate(-6.94 -7.29)"/><path class="cls-22" d="M179.19,185c.79-.3,1.23-1.27,2.29-1.09.83.13,1.71.37,1.92,1.14s-.82.68-1.25,1c-1,.83-1.89,2.43-3,.07Z" transform="translate(-6.94 -7.29)"/><path class="cls-23" d="M161.67,182.36c1.18.13,2.56-.79,3.26.42a3.11,3.11,0,0,1-.06,2.6c-.44.79-1.39-.21-2.32.08C164.56,183.55,163.3,182.94,161.67,182.36Z" transform="translate(-6.94 -7.29)"/><path class="cls-24" d="M155.09,182.23c1.34,0,2.68,0,4,0,.87,0,1.1.38,1,1.13,0,.4.16,1-.51,1-.82.06-.74-.51-.68-1.07a.44.44,0,0,0-.68-.43C156.94,184.81,156.11,182.52,155.09,182.23Z" transform="translate(-6.94 -7.29)"/><path class="cls-8" d="M168.16,145.61a13.89,13.89,0,0,1-.82,7.15,24.69,24.69,0,0,1,.88-7.1Z" transform="translate(-6.94 -7.29)"/><path class="cls-25" d="M142.47,157.54c-.84,1.23-2.1.59-3.18.69-.42,0-.53-.43-.38-.78s.33-1,.65-1.11c.47-.21.28.4.41.64.63,1.12,1.62.82,2.57.64Z" transform="translate(-6.94 -7.29)"/><path class="cls-26" d="M168.88,74.31c10.6.43,15.79,7.67,16.26,14.63.71,10.66-9.23,18.47-19.67,15.65-.52-.15-1.05-.27-1.57-.4-6.05-1.08-11.47-9.44-10.2-16.4C154.93,81.08,160.88,73.74,168.88,74.31Z" transform="translate(-6.94 -7.29)"/><path class="cls-27" d="M168.88,74.31c-3.84.81-7.46,2-10.28,5-4.34,4.61-5.67,11.67-2.81,17.28,1.75,3.46,4.74,5.8,8.11,7.64-4.07.18-7-1.76-9.38-4.88-4.28-5.59-4.91-13.54-.94-19.07,2.14-3,5.3-4.27,8.58-5.32C164.32,74.24,166.49,72.87,168.88,74.31Z" transform="translate(-6.94 -7.29)"/><path class="cls-28" d="M125.91,78.78c3-.35,6-.58,8.47,1.59a8.43,8.43,0,0,1,2.39,10q-2.36,5.58-9.43,5.11a8.39,8.39,0,0,1-7.66-8A8.6,8.6,0,0,1,125.91,78.78Z" transform="translate(-6.94 -7.29)"/><path class="cls-29" d="M159.83,70.18c.92-1.14,2.08-.74,3.07-.75,10.07-.19,20.13.21,30.2.43,2.71.06,5.38-.57,7.63,1.56,1.09,1,1.78,2.06.89,3.53a1.57,1.57,0,0,1-1.54.93c-.73-.09-.74-.69-.76-1.24,0-1.85-1.63-2.2-2.84-2.36a55.32,55.32,0,0,0-6.19-.73c-9.87-.26-19.74-.7-29.61-1.08A3.68,3.68,0,0,1,159.83,70.18Z" transform="translate(-6.94 -7.29)"/><path class="cls-12" d="M125.91,78.78c-5.09,3.15-6.67,7-4.8,11.48,1.18,2.83,3.63,4.1,6.23,5.2-3.33,1.21-6.29.64-8.34-2.31s-3.77-6.12-1.57-9.76C119.34,80.23,122.07,78.44,125.91,78.78Z" transform="translate(-6.94 -7.29)"/><path class="cls-30" d="M195.13,120.52a52.76,52.76,0,0,0,4.23-14.7c.08-.67.24-1.28,1-1.34.53,0,.79.34,1,.76,1.9,3.92-1.21,13.38-5.06,15.33C196.14,120.67,195.83,120.56,195.13,120.52Z" transform="translate(-6.94 -7.29)"/><path class="cls-31" d="M175.83,169.9c-1.19,1.86-8.24,1.86-11.7,0C168.11,169,171.93,170.51,175.83,169.9Z" transform="translate(-6.94 -7.29)"/><path class="cls-32" d="M208.07,87.75c-.16,1-.29,2.3-1.69,2.85-.65.26-1.57,0-1.59-.59a29.3,29.3,0,0,1,.33-5.21c0-.38.76-.74,1.39-.56C207.37,84.49,208.11,86,208.07,87.75Z" transform="translate(-6.94 -7.29)"/><path class="cls-33" d="M154.24,145.66c2.11,1.73.74,3.53.25,5.31a12.08,12.08,0,0,1-.18-5.38Z" transform="translate(-6.94 -7.29)"/><path class="cls-34" d="M149.44,148.1l-.4,3.58-.71-.06C148.07,150.57,147.58,149.5,149.44,148.1Z" transform="translate(-6.94 -7.29)"/><path class="cls-6" d="M156.79,90c-.6-6.81,5.94-13.27,13-13.1,7.42.19,13.29,5.86,13.24,13.24s-6.1,13-14,13C162.18,103.19,156.8,97.37,156.79,90Z" transform="translate(-6.94 -7.29)"/><path class="cls-7" d="M135,87.05A6.26,6.26,0,0,1,129,93.37a6.1,6.1,0,0,1-6.16-6.13,6.32,6.32,0,0,1,6.06-6.36A6.12,6.12,0,0,1,135,87.05Z" transform="translate(-6.94 -7.29)"/><path class="cls-35" d="M166.82,87.25c.38-2.09,1.92-3,3.24-4.06,1.53-1.17,3.86-.31,5.05,1.64,2,3.29,1,9.24-2,11.7a4,4,0,0,1-4.25.93c-1.76-.68-2.27-2.22-2.74-3.78-.26-.87.18-1.21,1-1.5a8.35,8.35,0,0,0,3.54-1.86c.38-.41,1.29-.45,1-1.27a1.75,1.75,0,0,0-1.43-1.11C169.16,87.75,168,87.49,166.82,87.25Z" transform="translate(-6.94 -7.29)"/><path class="cls-36" d="M131.7,86.51c-.52,1-.2,2.2-1,3.09a1.53,1.53,0,0,1-1.71.47,2.4,2.4,0,0,1-1.43-1.55c-.36-1.08.66-.8,1.15-1s1.37-.41.49-1.2c-.46-.41-1.58-.34-1-1.45a1.69,1.69,0,0,1,1.58-.86c1,0,1.43.64,1.7,1.46A10,10,0,0,1,131.7,86.51Z" transform="translate(-6.94 -7.29)"/></svg>