<svg id="Layer_1" data-name="Layer 1" xmlns="http://www.w3.org/2000/svg" viewBox="0 0 286.08 285.42"><defs><style>.cls-1{fill:#010101;}.cls-2{fill:#fdfefe;}.cls-3{fill:#75cbdc;}.cls-4{fill:#4298a9;}.cls-5{fill:#4299a9;}.cls-6{fill:#ee8777;}.cls-7{fill:#fdfdfd;}.cls-8{fill:#fcfcfc;}.cls-9{fill:#fbfbfb;}.cls-10{fill:#51a5b5;}.cls-11{fill:#c1d466;}.cls-12{fill:#74cadb;}.cls-13{fill:#fafafa;}.cls-14{fill:#4499a9;}.cls-15{fill:#4398a8;}.cls-16{fill:#f5f5f5;}.cls-17{fill:#f8f8f8;}.cls-18{fill:#050505;}.cls-19{fill:#f4f4f4;}.cls-20{fill:#f8f8f7;}.cls-21{fill:#eeeded;}.cls-22{fill:#f2f2f1;}.cls-23{fill:#0a0a0a;}.cls-24{fill:#f1f0f1;}.cls-25{fill:#f4f5f6;}.cls-26{fill:#e3e3e4;}.cls-27{fill:#020304;}.cls-28{fill:#4399a9;}.cls-29{fill:#020305;}.cls-30{fill:#c8d75b;}.cls-31{fill:#dbd93f;}.cls-32{fill:#190504;}.cls-33{fill:#080908;}.cls-34{fill:#060606;}.cls-35{fill:#030303;}.cls-36{fill:#fefefe;}.cls-37{fill:#020202;}.cls-38{fill:#0e0c0e;}</style></defs><title>5</title><path class="cls-1" d="M146.55,7.31c35.79,0,71.58-.08,107.37.08a66.44,66.44,0,0,1,17.22,1.93c12.64,3.41,23.21,17,21.75,32.18-.89,9.26-.58,18.65-.56,28,.08,53.13,0,106.27.11,159.4,0,6.76-.11,13.52.36,20.32.5,7.33.37,14.91-1.89,22.1-3,9.42-9.21,15.74-18.32,19.55-5.6,2.34-11.33,1.84-17.08,1.73-1.63,0-3.26,0-4.89,0l-140-.14c-16.9,0-33.8-.29-50.69.15-6.89.17-13.75-.06-20.62-.2-9.61-.19-18.23-3.06-24.72-10.6a30.18,30.18,0,0,1-7.52-23.09c.71-8.33.25-16.7.26-25.05q.06-53,0-106c0-23.89.13-47.77-.08-71.66a183.71,183.71,0,0,1,.59-20.86C9.17,22.79,15.77,14.45,27,9.47,32.07,7.22,37.4,7.35,42.72,7.35q51.91,0,103.83,0Z" transform="translate(-6.96 -7.29)"/><path class="cls-2" d="M11.32,150.09q0-45.24,0-90.47c0-8.08.26-16.16.6-24.23C12.4,23.38,24,11.94,36,11.8c48.68-.56,97.37-.16,146.06-.25q34.75-.06,69.5.12c5.43,0,10.93.05,16.27,1.09,13.11,2.55,21,14.69,20.88,25.43-.9,65.64-.32,131.3-.37,197,0,9.24.11,18.48-.11,27.73-.33,14.32-12.86,25.75-26.4,25.67-43.24-.26-86.48-.1-129.72-.11-25.43,0-50.87-.13-76.31.07-7.9.06-15.82.14-23.57-1.15a25,25,0,0,1-20.53-21c-.76-5.24-.34-10.66-.34-16q0-50.13,0-100.27Z" transform="translate(-6.96 -7.29)"/><path class="cls-1" d="M184.69,247.47c5.31-2.33,10.37-4.89,16.26-4.73a19.38,19.38,0,0,1,6.27,1.43c2.22.84,2.87,3.25,1.89,6-.86,2.44-3.44,4.12-5.73,3.49a39.36,39.36,0,0,0-9.1-1.06c-3.26-.11-6.51-.33-9.75-.63-2.14-.2-2.43-2.24-2.5-3.64a140.14,140.14,0,0,1,.14-21.49c.62-6.16.39-6.6-5.74-5.81-16.05,2.06-32.13,3-48.52,1.13.07,9.52-1.14,18.83-1.84,28.87,4.54-5.24,9.79-8.08,15.79-8.59s9.28,1.29,8.38,7.53c-.17,1.14-.61,2.19-.21,3.45s-.79,1.67-1.82,1.75c-7.23.5-14.46,1.1-21.7.14-2.3-.31-2.77-2.13-2.91-4.06-.32-4.21.93-8.25,1.3-12.39.47-5.31.84-10.63,1.25-15.95.08-1-.7-.78-1.28-.91-4.44-1.05-9-1.17-13.48-1.49a48.68,48.68,0,0,1-16.76-4.79c-5.09-2.33-7.64-6.42-8.15-12.11-.84-9.3-2.07-18.58-1.58-27.93.44-8.5,1.33-17,1.86-25.49.28-4.53.22-9.07.3-13.61a3.08,3.08,0,0,0-.86-2.33c-2.21,1.95-1.83,4.78-2.36,7.23a40.08,40.08,0,0,1-1.73,5.94c-.57,1.5-1.31,2.8-3.24,2.73A4.16,4.16,0,0,1,75,147.7c-2.7-5.14-3-10.45-.55-15.63a17.06,17.06,0,0,0,1.06-11.54c-1.38-6.41,2.53-10.38,9-9.36,3.64.56,3.62.56,3.61-3.28,0-6.26,0-12.52-.08-18.78s2.71-11.45,5.78-16.57c.9-1.5,2.57-1.92,4-2.66,4.63-2.38,9.56-3.27,14.75-3.86,10.82-1.23,21.68-1.31,32.51-2a314.78,314.78,0,0,1,36.47-.41c5.34.28,10.69-.58,16,.35,3.61.64,7.32.52,10.82,2,5.29,2.29,6.79,4.11,6.77,9.78,0,1.89.35,2.69,2.47,3.19,4,.94,6.34,4.69,6.28,9a8.76,8.76,0,0,1-6.56,8.58c-1.48.36-1.55.91-1.56,2.17,0,7.61-.29,15.2-1.09,22.78a9.06,9.06,0,0,1-4.18,6.64A3.14,3.14,0,0,0,209,130.7c-.93,7.79-.11,15.6-.39,23.39a4.57,4.57,0,0,1-3.81,4.8c-3.78,1-7.6.23-11.38.52a5.52,5.52,0,0,0-4.2,8.07,3.46,3.46,0,0,1,.7,1.72c-.43,5.44,3.74,8.53,6.65,12,1.12,1.33,4.6,1,7,.9,4.79-.14,5.92.75,5.59,5.5-.11,1.67.14,2.21,2,2.42,5.4.61,7.25,2.91,8.69,9.89,1.89,9.18-2.14,16.51-10.45,19.12a4.47,4.47,0,0,1-2.12.24c-6.93-1.21-13.68.62-20.51,1.06-1.26.08-1.53.48-1.74,1.7-.71,4.25-.28,8.52-.47,12.77A92.9,92.9,0,0,0,184.69,247.47Z" transform="translate(-6.96 -7.29)"/><path class="cls-3" d="M213.94,98.86c-.51,7.66-.93,15.32-1.59,23-.23,2.68-2.4,4.2-4.61,5.3a76.24,76.24,0,0,1-17.45,6.3c-7.61,1.7-15,4.19-22.55,6.34-1.15,0-.56-.67-.27-1a12.57,12.57,0,0,1,3.93-2.39c2.34-1,4.82-1.65,7.07-2.87.9-.49,2.46-.78,2.1-2.09s-1.86-.77-2.89-.82c-8.07-.37-15.13,2.71-21.76,6.8a48.87,48.87,0,0,0-12.31,10.23c-5.5,6.66-6.88,19.05-2.81,26.55.25.46.42,1,1.21,1,1.59-2.15.38-5.46,2.83-7.3,2.74,3,4.6,6.62,7.38,9.63,5.21,5.67,11.93,8.18,19,10.12,1.8.49,3.69.63,5.37,1.54-2,1.33-3.93.73-5.76-.34,1.24,1.62,3.2,1,4.81,1.27,6.39,1.21,12.7,2.78,19.06,4.14a44.22,44.22,0,0,0,13.22.85,6.47,6.47,0,0,1,3.38.92,4.6,4.6,0,0,0,3.42.71,5,5,0,0,0-6.15-2.13c-5.17,1.67-10-.15-15-.79-1.42-.18-2.84-.56-4.27-.8-.7-.12-1.48-.43-.81-1.44,7.14.77,14.3.2,21.44.47,4.47.17,6.06,1.7,7,6.16s2,8.7-.73,12.84a9.58,9.58,0,0,1-1.06,1.16,6.75,6.75,0,0,1-4.23.48c-4.27-.44-8.48-.48-12.64,1a22.79,22.79,0,0,1-11,1.11c-4.32-.59-8.71-.21-13.07-.18A59,59,0,0,1,157,212.55c-7.23-2.11-14.62-3.71-21.73-6.24a128.87,128.87,0,0,1-21.76-10.56c-6.3-3.7-9.1-9.13-9.67-16.05s-1.25-13.73-1.27-20.64a190,190,0,0,1,2.85-30.88,293.2,293.2,0,0,0,3.75-55.35c0-1.5-.35-3.12.8-4.43,7.39-.7,14.77-1.41,22.16-2.07,1.62-.14,3.26-.07,4.89-.12,13-.38,25.94-1.16,38.9-1,9.46.1,19,.24,28.36,2a17.42,17.42,0,0,1,4.84,1.7,8.29,8.29,0,0,1,3.87,9c-.36,1.28-1.63,1.15-2.59,1.49-7.55,3.28-9.43,12.17-3.75,17.33C208.76,98.65,211.39,98.53,213.94,98.86Z" transform="translate(-6.96 -7.29)"/><path class="cls-4" d="M109.93,68.4c0,7.63,0,15.26,0,22.88-.08,11.89-1.89,23.6-3.47,35.34-1,7.16-2.11,14.29-2.62,21.52a150.56,150.56,0,0,0-.32,16.85,182.13,182.13,0,0,0,1.7,18.35c.7,4.9,3.58,8.4,7.85,11.15,11.18,7.19,23.43,11.48,36.12,15.18a103.27,103.27,0,0,0,33.78,4.16c4-.18,8.2,1.51,12.13,0,6.59-2.59,13.29-2.32,20.07-1.55-2.66,3.66-6.87,3.65-10.57,3.66-8.11,0-16,2-24,2.62-15.72,1.25-31.36,3.08-47.2,1.92-12.61-.92-24.76-4-36.94-6.93a10.73,10.73,0,0,1-8.26-10.22c-.22-10.7-1.45-21.41-.54-32.11a323,323,0,0,0,1.55-34.77c0-1.85.06-4.18-1.86-4.65-2.12-.51-3.4,1.63-4.42,3.33s-.88,3.68-1.25,5.53a23.62,23.62,0,0,1-1.51,5.17c-.34.77-.28,2-1.49,2-1,0-1.42-1-1.81-1.81-1.87-4.07-2.23-8.32-.3-12.35,2.13-4.46,2.85-8.78,1.34-13.61-.94-3,.2-5.15,2.28-6,3.31-1.33,6.25-.59,8,2,.21.32.32.75.72.58a2,2,0,0,0,1.37-1.86c-.21-2.65.48-5.21.61-7.83.31-6.71-.77-13.37-.15-20.1.88-9.54,6.59-16.28,16.07-18C107.8,68.7,108.87,68.56,109.93,68.4Z" transform="translate(-6.96 -7.29)"/><path class="cls-5" d="M144.84,167.94c-.55,2.28-1.14,4.55-1.63,6.84-.17.81-.11,1.73-1.15,1.89s-1.29-.86-1.62-1.54A27.55,27.55,0,0,1,138,159.85c.86-9.27,6.48-15.13,13.52-20.25a55.69,55.69,0,0,1,17.63-8.77,35.15,35.15,0,0,1,10.77-.92c.87,0,1.67.15,1.92,1.15s-.26,1.66-1.14,2.19c-2.75,1.64-5.84,2.46-8.74,3.73-1.56.67-3.25,1.16-4.17,2.79-2.69,1.21-5.36,2.49-8.09,3.62-4.66,1.93-8.24,5.27-11.45,9C144.29,156.88,142.72,162.05,144.84,167.94Z" transform="translate(-6.96 -7.29)"/><path class="cls-6" d="M150.63,159.72c5.6,1.08,11.69,2.21,17.75,3.45a137.66,137.66,0,0,1,16.2,4.21c1.38.47,3,.6,2.78,2.62-.22,2.37-2.08,1.8-3.54,1.84-4.68.11-9.41-.26-13.76,2.14a10.41,10.41,0,0,0-4.12,3.8c-1.52,2.58-6.3,3.26-8.74,1.28-4.36-3.54-7.37-8.12-10.22-12.85a7,7,0,0,1-.4-5.29C147,159,148.91,160.42,150.63,159.72Z" transform="translate(-6.96 -7.29)"/><path class="cls-7" d="M221.68,87.93a7,7,0,1,1-14-.44c.11-3.25,3.06-6.65,5.65-6.51C219.09,81.29,221.75,83.52,221.68,87.93Z" transform="translate(-6.96 -7.29)"/><path class="cls-8" d="M200.14,133.07c-.81,7.75-2.12,15.11-2,22.6,0,.86.23,1.7-1.1,1.5-1.88-.3.05-.79,0-1.21a.53.53,0,0,0-.44-.51c-2.9-.88-2-3.19-1.85-5.12.21-3.77.53-7.54.78-11.32,0-.34-.09-.72-.77-.86-1.82,5.15-1.26,10.58-1.43,16.68-1.22-2.21-.51-3.69-.52-5.14a128.12,128.12,0,0,1,.53-13c.11-1.27.29-1.83,1.75-2A29.44,29.44,0,0,0,200.14,133.07Z" transform="translate(-6.96 -7.29)"/><path class="cls-9" d="M176.91,145.66l.06-1.9c.19-4.24,1.95-6,6.13-6.22,1.31-.07,1,.8.93,1.39-1.1,5.87-.89,11.85-1.53,17.76-.07.64-.16,1-.86,1l-5.16,0c-.44,0-1,0-.87-.67a2.51,2.51,0,0,1,.27-1.05c.49-.67.68.14,1,.3a2.06,2.06,0,0,0,3.08-.57c.84-1.26-.5-1.38-1.25-1.75-1-.49-.84-1.28-.68-2.2.53-3.08,1-6.19,1.49-9.28.08-.45.37-.86-.2-1.09s-.79.26-1.06.61c-.83,1.08-.1,2.73-1.35,3.65Z" transform="translate(-6.96 -7.29)"/><path class="cls-10" d="M185.16,250c6.38-3.13,12.64-6.87,20.3-4.11,1.39.5,2,1.19,1.67,2.54s-1,3.07-2.68,2.89C198.06,250.65,191.66,250.35,185.16,250Z" transform="translate(-6.96 -7.29)"/><path class="cls-11" d="M188.52,191.62c.08.36.16.81.61.77,3.27-.27,6.21,1.48,9.51,1.48,2.14,0,4.29,1.22,6.56.81,1.92-.35,3.69-1.19,5.75-1.1a5,5,0,0,1,3.9,1.94c.49.59,1.16,1.47.62,1.8-.69.42-1.72,1.52-2.56.71-3.16-3.08-7.08-2-10.73-2.05-5.66-.12-11-1.64-16.39-3.07a58.65,58.65,0,0,0-6.54-1.19c-3.87-.55-7.48-1.86-11.94-2.79,3.67-1.72,6.41,1.3,9.32.3Z" transform="translate(-6.96 -7.29)"/><path class="cls-9" d="M206.86,130.56c-.86,7.39-1.45,14.76-.48,22.17a12.73,12.73,0,0,1-.19,2.67c-.48-.13-1.12,2.75-1.52-.09,0-.29-.86-.51-1.34-.7-1-.37-1-1-.46-1.7a8.74,8.74,0,0,0,1.26-6.16,23.43,23.43,0,0,1,.56-7.75,5.51,5.51,0,0,0,.07-1.35c0-.6-.24-1.12-.9-1.1s-.67.51-.71,1c-.36,4.13-1.33,8.21-1.08,12.39.08,1.41,0,2.68-1.6,3.43a147.13,147.13,0,0,1,1.3-15.6c.06-.53.18-1.07.21-1.61C202.25,131.75,202.24,131.75,206.86,130.56Z" transform="translate(-6.96 -7.29)"/><path class="cls-12" d="M131.66,248.66a18.81,18.81,0,0,1,10.89-4.12c4.29-.28,5.43,1.29,4.9,5.87a2.35,2.35,0,0,1-2.24,1.27,96.12,96.12,0,0,1-10.87-.05C132.66,251.5,131.37,250.72,131.66,248.66Z" transform="translate(-6.96 -7.29)"/><path class="cls-13" d="M185.06,153.91c.3-5,.61-9.92,1-14.87.17-2.28,1.16-2.83,3-3.12.8-.12,1.58-.33,2.9-.62-1.62,5.14-1.12,10.27-1.54,15.34-.09,1-.25,2-.28,3-.12,4.58-.6,4.91-5.45,3.68.14-.23.16-.7.27-.73,2.89-.61,1.74-2.78,1.68-4.45a55.94,55.94,0,0,1,.84-9.93,90.24,90.24,0,0,0-1.14,10.76c0,.62-.08,1.48-1.12,1.42,0,0-.11-.11-.12-.18A.61.61,0,0,1,185.06,153.91Z" transform="translate(-6.96 -7.29)"/><path class="cls-14" d="M213.94,98.86c-2.94,1.22-5.49.37-7.72-1.59-3-2.65-4.43-6-3.43-10,1.19-4.66,3.43-7.89,7.57-7.94-5.18,4.2-6.32,8.89-3.23,13.52a8.33,8.33,0,0,0,5.39,3.73C214,96.91,214.25,97.62,213.94,98.86Z" transform="translate(-6.96 -7.29)"/><path class="cls-9" d="M171,144.3c-1.22.77-1.11,2-1.6,3,0-.76,0-1.51,0-2.27.19-3.18,1.9-4.75,5-4.82,1,0,1,.51.87,1.15-1.06,4.47-1.4,9-2,13.59-.1.76-.26,1.14-1.1,1.11a1.22,1.22,0,0,1-1.34-.92c-1.18-3,.27-5.82.46-8.71C171.34,145.78,171.77,145.11,171,144.3Z" transform="translate(-6.96 -7.29)"/><path class="cls-15" d="M131.66,248.66a3,3,0,0,0,3.46,2.27c4.1-.32,8.26.51,12.33-.52.23,1.39-.26,2-1.74,2.38-6.1,1.66-12.28.42-19,1A10.69,10.69,0,0,1,131.66,248.66Z" transform="translate(-6.96 -7.29)"/><path class="cls-16" d="M162.94,145.67c-.61-1.27.38-1.55,1.2-1.9,1.07-.46,2.15-.88,3.55-1.44-.44,3.67-.84,7.09-1.25,10.52-.06.45-.14.9-.18,1.35-.34,3.55-1,4-4.51,3.39-.36-.07-.75,0-.73-.54,0-.16.09-.42.21-.47.48-.17.47.42.74.53a3.47,3.47,0,0,0,3.08-.24c-3.09-2.55-3.94-7.51-2-11.28a5.05,5.05,0,0,1,.32,2.41A3.72,3.72,0,0,0,162.94,145.67Z" transform="translate(-6.96 -7.29)"/><path class="cls-17" d="M158.79,156.3a9.14,9.14,0,0,0-1.13-1.5c-.55-.44,0-2.36-1.54-1.37-.92.59-.26,1.55.1,2.39s1.37,1,2,1.56c-3.36.62-3.35.62-3.08-2.77.05-.63,0-1.27,0-1.9,0-4.91.2-5.14,5.43-6.93C160,149.19,159.44,152.5,158.79,156.3Z" transform="translate(-6.96 -7.29)"/><path class="cls-18" d="M185.06,153.91c1.26.46.61-.67.59-.89-.35-4.18,1.09-8.18,1.22-12.3,0-.3.38-.58.79-1.16.81,2.1.36,4.08.05,5.84-.49,2.8-.21,5.58-.39,8.36,0,.41-.24.89.3,1.17s1.53-.21,1.19.89-1.26.89-2.07.86-1.81-1-2.09.61C184.7,156.16,184.22,155,185.06,153.91Z" transform="translate(-6.96 -7.29)"/><path class="cls-16" d="M201.39,184.41h3.75c1.13,0,2,.26,1.83,1.66s.17,3.3-1.51,3.51c-1.19.15-3.18,1.53-4-.79-.31-.93.18-1.58,1.23-1.93.53-.17,1.71-.05,1.46-1.16s-1.24-.65-2-.59C202,185.12,201.76,185.56,201.39,184.41Z" transform="translate(-6.96 -7.29)"/><path class="cls-16" d="M187.89,185c.31-3.27,2.69-1.14,4.08-1.5s1.61.8,1.34,1.81c-.41,1.52,1,3.94-2.24,4.14-2.6.16-3.73-.64-3.17-3.29,1-.17,2.22.45,2.74-1C189.77,184.17,188.77,185.53,187.89,185Z" transform="translate(-6.96 -7.29)"/><path class="cls-19" d="M197.15,189.91c-.71-.35-2,.57-2.15-.93-.19-1.35.74-.94,1.53-1.14a2.4,2.4,0,0,0,1.48-1.79c0-.79-.87-1.34-1.83-.94s-.78-.42-.63-.64c.83-1.31,2.09-.27,3.15-.46s1.38.44,1.08,1.33a10.17,10.17,0,0,0-.45,3.47C199.35,190.64,197.9,189.56,197.15,189.91Z" transform="translate(-6.96 -7.29)"/><path class="cls-20" d="M180.67,187.81c-1.8-.92-3.87-.58-5.75-2.32,1.22.25,2.34,1.26,2.41,0,.09-1.48,1.48-.76,1.85-1.63-.64-1.27-2.11-.87-3.32-1.42C181,181.84,181,181.84,180.67,187.81Z" transform="translate(-6.96 -7.29)"/><path class="cls-21" d="M186.31,184.5c-.18.88-.32,1.77-.56,2.63-.13.5.43,1.44-.63,1.41a4.07,4.07,0,0,1-2.31-.55c-.64-.5-.15-1.22.6-1.26,1.62-.09,1.42-1.61,1.58-2.38.26-1.18-.76-1.07-1.63-.69-.35.15-.34-.26-.37-.48-.06-.39.2-.93.45-.79C184.44,183,186.74,181.91,186.31,184.5Z" transform="translate(-6.96 -7.29)"/><path class="cls-22" d="M151.24,157.64c.07-1.35,1.55-3.29-1.58-3.41a12.25,12.25,0,0,1,3.86-3.59c-.53,2.42-.87,4.64.07,6.85-.88.23-1.63.64-2.41.07Z" transform="translate(-6.96 -7.29)"/><path class="cls-23" d="M187.89,185c.79-.3,1.23-1.27,2.29-1.09.83.14,1.71.37,1.92,1.15s-.82.67-1.25,1c-1,.84-1.89,2.43-2.95.08C187.89,185.72,187.89,185.33,187.89,185Z" transform="translate(-6.96 -7.29)"/><path class="cls-24" d="M171.45,185.39c1.2-1.68,1-2.18-1.7-3.06,1.75,0,3.07-.7,3.87.41a3,3,0,0,1,0,2.59C173.15,186.24,172.21,185.09,171.45,185.39Z" transform="translate(-6.96 -7.29)"/><path class="cls-25" d="M163.79,182.24c1.26,0,2.51,0,3.77,0,.61,0,1.34-.12,1.23.88,0,.41-.08,1.12-.29,1.18-.93.29-1-.31-.9-1.06a.41.41,0,0,0-.71-.33C165.58,184.58,164.76,182.64,163.79,182.24Z" transform="translate(-6.96 -7.29)"/><path class="cls-9" d="M176.86,145.61a13.88,13.88,0,0,1-.82,7.15,25.13,25.13,0,0,1,.87-7.1Z" transform="translate(-6.96 -7.29)"/><path class="cls-26" d="M151.18,157.56a2.73,2.73,0,0,1-3.41.49c-.8-.35.43-1.11.43-1.89.53,1.72,1.69,1.83,3,1.48Z" transform="translate(-6.96 -7.29)"/><path class="cls-27" d="M177.53,74.32c4,.54,8,1.13,11.14,4.12,5.51,5.21,6.81,12.54,3.19,19a15.26,15.26,0,0,1-17.61,7.21c-.52-.14-1.05-.26-1.57-.38-6.43-1.37-11.22-9.52-10.4-15.57C163.42,80.3,169.91,73.92,177.53,74.32Z" transform="translate(-6.96 -7.29)"/><path class="cls-28" d="M177.53,74.32c-2,.78-4.21.81-6.15,1.88A15.38,15.38,0,0,0,163,89.83c-.19,6.06,3.09,10.36,8.14,13.43l1.58,1c-6.9,0-10.56-4.68-12.53-11.2-2.37-7.82,1.6-15.09,9.39-17.56C172.1,74.67,174.59,72.77,177.53,74.32Z" transform="translate(-6.96 -7.29)"/><path class="cls-29" d="M135,78.69c2.93-.33,5.79-.38,8.19,1.76a8.51,8.51,0,0,1,2.36,9.81c-1.5,3.67-4.67,5.43-9.42,5.25-6.51-.25-10.2-8.67-5.69-14.29A7.34,7.34,0,0,1,135,78.69Z" transform="translate(-6.96 -7.29)"/><path class="cls-30" d="M168.14,70.12c1.07-1,2.27-.74,3.4-.74,11.07,0,22.14,0,33.21,0,2.24,0,3.83,1.23,5.4,2.54,1.27,1.06,1.17,2.14.07,3.3-.94,1-1.81,1.47-2.21-.32s-1.56-2-3.1-2.37c-8.09-1.85-16.33-.22-24.4-1.19C176.39,70.88,172.25,70.77,168.14,70.12Z" transform="translate(-6.96 -7.29)"/><path class="cls-28" d="M135,78.69c-5.16,2.77-7,6.65-5.36,11.2,1.12,3.06,3.7,4.47,6.49,5.62-3.06,1-6,.95-8.06-1.89-2.32-3.09-3.85-6.53-1.86-10.28A8.63,8.63,0,0,1,135,78.69Z" transform="translate(-6.96 -7.29)"/><path class="cls-31" d="M203.88,120.34A57.59,57.59,0,0,0,208,106.17c.11-.73-.23-1.76,1.09-1.77s1.09,1,1.15,1.75c.39,4.65-.06,9.11-3.32,12.81C206.25,119.76,205.63,121,203.88,120.34Z" transform="translate(-6.96 -7.29)"/><path class="cls-32" d="M172.92,169.86c3.83-.78,7.65.65,11.53,0C183.42,171.82,175.54,171.74,172.92,169.86Z" transform="translate(-6.96 -7.29)"/><path class="cls-33" d="M216.78,87.63c-.18,1.08-.23,2.51-1.85,3-.69.21-1.53-.17-1.54-.76a28.65,28.65,0,0,1,.37-5c.06-.41.71-.79,1.34-.67C216,84.39,216.77,85.9,216.78,87.63Z" transform="translate(-6.96 -7.29)"/><path class="cls-34" d="M162.94,145.67c2.11,1.72.74,3.52.25,5.3a12,12,0,0,1-.18-5.37Z" transform="translate(-6.96 -7.29)"/><path class="cls-35" d="M157.86,148.39a3.93,3.93,0,0,1-.55,3.25C156.84,150.55,156.21,149.43,157.86,148.39Z" transform="translate(-6.96 -7.29)"/><path class="cls-36" d="M165.49,89.87c-.58-6.42,5.69-13.15,13-13s13.31,5.92,13.14,13.24a13.36,13.36,0,0,1-13.9,13.09C170.82,103,165.49,97.38,165.49,89.87Z" transform="translate(-6.96 -7.29)"/><path class="cls-8" d="M143.72,87a6.24,6.24,0,0,1-6.26,6.37,6.12,6.12,0,0,1-6-6.34,6.3,6.3,0,0,1,6.28-6.14A6.09,6.09,0,0,1,143.72,87Z" transform="translate(-6.96 -7.29)"/><path class="cls-37" d="M175.52,87.24c.28-2,1.85-3.13,3.31-4.07,2-1.28,3.68-.19,4.85,1.51,2.29,3.3,1.13,9.65-2.1,12.06a3.86,3.86,0,0,1-4.05.69c-1.75-.71-2.23-2.26-2.68-3.82-.27-.93.35-1.15,1.11-1.45,1.15-.46,2.42-.71,3.32-1.72.38-.44,1.37-.48,1.23-1.21a1.75,1.75,0,0,0-1.57-1.29C177.79,87.75,176.66,87.48,175.52,87.24Z" transform="translate(-6.96 -7.29)"/><path class="cls-38" d="M138.16,87.25c.27-1.36-2.08-.9-1.26-2.36a1.6,1.6,0,0,1,2.1-.76,2.22,2.22,0,0,1,1.21,2.93c-.29,1.09-.1,2.48-1.47,3-1.19.45-2-.31-2.36-1.27C135.55,86.79,138.11,88.13,138.16,87.25Z" transform="translate(-6.96 -7.29)"/></svg>