<svg id="Layer_1" data-name="Layer 1" xmlns="http://www.w3.org/2000/svg" viewBox="0 0 286.12 285.43"><defs><style>.cls-1{fill:#010101;}.cls-2{fill:#fefefe;}.cls-3{fill:#fe7800;}.cls-4{fill:#d6000a;}.cls-5{fill:#d6010a;}.cls-6{fill:#e87;}.cls-7{fill:#fdfdfd;}.cls-8{fill:#fbfbfb;}.cls-9{fill:#fcfbfb;}.cls-10{fill:#fc7603;}.cls-11{fill:#d30309;}.cls-12{fill:#fbc106;}.cls-13{fill:#d2020a;}.cls-14{fill:#fafafa;}.cls-15{fill:#d4020a;}.cls-16{fill:#f5f5f5;}.cls-17{fill:#f7f7f7;}.cls-18{fill:#f67307;}.cls-19{fill:#f6f6f6;}.cls-20{fill:#f3f4f3;}.cls-21{fill:#f8f8f8;}.cls-22{fill:#eaebe9;}.cls-23{fill:#f4f4f3;}.cls-24{fill:#0b0a0b;}.cls-25{fill:#f0f1ef;}.cls-26{fill:#f5f5f3;}.cls-27{fill:#e4e4e3;}.cls-28{fill:#050203;}.cls-29{fill:#d3030a;}.cls-30{fill:#060203;}.cls-31{fill:#fbc305;}.cls-32{fill:#d6030a;}.cls-33{fill:#fbc403;}.cls-34{fill:#150404;}.cls-35{fill:#090909;}.cls-36{fill:#060706;}.cls-37{fill:#050304;}.cls-38{fill:#fcfcfc;}.cls-39{fill:#020102;}.cls-40{fill:#0e0d0d;}</style></defs><title>6</title><path class="cls-1" d="M146.49,7.31c35.79,0,71.59-.08,107.38.07,5.84,0,11.79.24,17.47,2,9.64,3,16.13,9.33,19.84,18.7,1.86,4.71,1.75,9.48,1.6,14.39-.28,9.24-.44,18.49-.43,27.74.08,52.68,0,105.36.11,158,0,7-.1,14.08.37,21.15.48,7.32.37,14.91-1.94,22.09-3,9.38-9.31,15.68-18.46,19.42-5.52,2.27-11.16,1.78-16.82,1.68-1.63,0-3.26,0-4.88,0l-125.27-.14c-21.17,0-42.34-.23-63.5.13-7.52.13-15,.06-22.53-.16C24.11,291.94,12.67,285,7.6,268.51A20.93,20.93,0,0,1,7,261.22c.88-13.61.31-27.24.34-40.85q.15-82.16,0-164.3A191.12,191.12,0,0,1,7.9,35.2c1.33-12.54,8-21,19.55-25.89,4.95-2.1,10.08-1.95,15.21-2q51.91-.06,103.83,0Z" transform="translate(-6.94 -7.29)"/><path class="cls-2" d="M145.37,11.62q53,0,106,0a90.49,90.49,0,0,1,16.28,1.07c13,2.41,21.21,14.47,21.05,25.54-.9,65.56-.32,131.12-.37,196.68,0,9.34.13,18.66-.11,28-.36,14.29-12.92,25.65-26.49,25.58-51.51-.25-103-.1-154.52-.11-16.53,0-33.07-.21-49.6.09-7.54.14-15.05-.16-22.54-.69-11.42-.82-22.35-9.46-23.47-22.36-1-11.71-.22-23.58-.23-35.37,0-7.81,0-15.62-.05-23.43q0-74.79,0-149.59c0-7.27.3-14.53.62-21.78.54-12.08,12.13-23.46,24.17-23.49,36.43-.1,72.85,0,109.27,0Z" transform="translate(-6.94 -7.29)"/><path class="cls-1" d="M90,134.24c-2.12,2.14-1.83,4.85-2.33,7.24a38.21,38.21,0,0,1-1.72,6c-.58,1.49-1.31,2.81-3.23,2.74a4.16,4.16,0,0,1-3.87-2.45c-2.69-5.15-3-10.45-.56-15.63a17.06,17.06,0,0,0,1.07-11.54c-1.37-6.45,2.53-10.41,9-9.4,3.65.57,3.64.57,3.62-3.25,0-6.35,0-12.7-.06-19.05-.07-6.16,2.69-11.3,5.79-16.3,1.31-2.12,3.87-2.54,5.92-3.62,5.36-2.82,11.34-2.64,17.13-3.31,11.27-1.29,22.62-.93,33.91-1.76a238.75,238.75,0,0,1,29.66-.27c8.17.42,16.47-.76,24.53,1.44a34.77,34.77,0,0,1,3.33,1c5.39,2.08,6.78,4,6.81,9.71,0,1.64,0,2.65,2.2,3.09,4,.81,6.54,4.64,6.54,8.85a8.79,8.79,0,0,1-6.57,8.85c-1.5.36-1.55.92-1.56,2.18,0,7.6-.3,15.2-1.09,22.78a9.07,9.07,0,0,1-4.18,6.64,3.12,3.12,0,0,0-1.51,2.53c-.93,7.79-.11,15.6-.39,23.39a4.57,4.57,0,0,1-3.83,4.79c-3.68,1-7.41.26-11.11.5a5.47,5.47,0,0,0-4.44,8.09c.27.47.7,1,.66,1.46-.53,5.34,3.53,8.37,6.28,11.88,1.55,2,4.73,1.22,7.12,1.23,5.35,0,6.08.49,5.83,5.81-.07,1.41.14,1.92,1.78,2.1,5.52.6,7.56,2.76,8.84,9.68,1.75,9.43-.53,15.31-10.35,19.35a3.73,3.73,0,0,1-2.12.26c-6.92-1.19-13.68.61-20.51,1.06-1.26.09-1.52.49-1.73,1.71-.7,4.25-.28,8.52-.47,12.77a92.93,92.93,0,0,0,.12,12.69,57,57,0,0,1,11.68-4.34,19,19,0,0,1,10.64.86c2.3.82,3.06,3.12,2.16,5.92-.84,2.64-3.4,4.41-5.79,3.77a40.49,40.49,0,0,0-9.1-1.07c-3.25-.11-6.51-.33-9.75-.63-2.14-.2-2.43-2.24-2.5-3.64a140.14,140.14,0,0,1,.14-21.49c.61-6.16.36-6.59-5.74-5.81-16.05,2-32.13,3-48.53,1.12.09,9.53-1.14,18.84-1.82,28.82a26.08,26.08,0,0,1,15.25-8.53,10.69,10.69,0,0,1,7,1.24c1.48.73,1.82,2,2,3.56.26,2.17-.89,4.22-.27,6.45.29,1.07-.93,1.42-1.86,1.48-7.22.5-14.46,1.1-21.69.14-2.28-.31-2.78-2.11-2.92-4-.32-4.21.93-8.26,1.3-12.39.47-5.32.83-10.64,1.25-16,.08-1-.69-.79-1.28-.93-4.43-1-9-1.15-13.48-1.49a48.62,48.62,0,0,1-17-4.92c-5-2.36-7.4-6.44-7.92-12-.9-9.39-2.07-18.76-1.59-28.2.42-8.15,1.06-16.29,1.81-24.41.44-4.72.16-9.44.37-14.15A3.31,3.31,0,0,0,90,134.24Z" transform="translate(-6.94 -7.29)"/><path class="cls-3" d="M190.72,191.44c7.32.92,14.67.54,22,.6a10.39,10.39,0,0,1,5.94,1.6,4.28,4.28,0,0,1,1.22,1c2.46,3.7,2.26,13.65-.34,17.2-.14.2-.45.29-.68.43a6,6,0,0,1-4,.48,28.51,28.51,0,0,0-13.44,1.16,22,22,0,0,1-11,1,47.9,47.9,0,0,0-9.8-.18c-9.31.44-18.23-1.42-27-4.14-2.43-.75-4.89-1.41-7.35-2A101.15,101.15,0,0,1,115,194.13,14.74,14.74,0,0,1,108.39,184a152.47,152.47,0,0,1-1.67-33.08c.69-12.36,2.94-24.49,4.51-36.72,1.76-13.81,2-27.68,1.74-41.58,0-1.42-.31-2.93.75-4.18l22.14-2.11c.36,0,.72-.08,1.08-.08,14.33.21,28.63-1.42,42.95-1.06,9.46.24,19,.07,28.33,2.16,6.82,1.54,8.5,3.27,8.64,8.82.06,2.3-.91,3.05-2.85,3.27-6.26,1.62-10,12.06-3.37,17.48,2.17,1.77,4.72,1.55,7.16,2-.45,7.12-.93,14.23-1.34,21.35-.21,3.49-2.24,5.56-5.16,7-5,2.48-10.1,4.77-15.65,5.83-8.6,1.63-16.74,4.88-25.17,7.11-.16-1.32.94-1.62,1.75-2.12a31.91,31.91,0,0,1,6.65-3.09,22.91,22.91,0,0,0,4.47-2c.55-.31,1.24-.66,1.14-1.38-.11-1-1-.92-1.71-1a29.51,29.51,0,0,0-11,1.17,54.94,54.94,0,0,0-24.31,15.9c-5.41,6.14-6.88,18.7-3.08,26,.32.61.49,1.41,1.54,1.57.71-1.53.73-3.29,1.31-4.87.35-.94.26-2.29,1.84-2.26,2.13,2.78,3.92,5.8,6.21,8.5,5.84,6.91,13.77,9.57,22.1,11.6,2.44.59,4.85,1.33,7.27,2-.67,1-1.54.63-2.43.43-2.46-.55-4.95-.91-7.42-1.41,8.66,1.31,17.11,3.58,25.68,5.31a33.39,33.39,0,0,0,10.26.58,9.29,9.29,0,0,1,7.08,2.33c-.74-2.46-1.79-3.41-3.89-2.89-7.08,1.73-13.83-.07-20.62-1.55C192.34,192.85,190.77,193.23,190.72,191.44Z" transform="translate(-6.94 -7.29)"/><path class="cls-4" d="M113.72,68.4c0,9.27.39,18.55-.08,27.79-.52,9.93-1.81,19.81-3.26,29.67-1.14,7.78-2.27,15.55-2.79,23.43-.65,9.92,0,19.74.75,29.59a26.71,26.71,0,0,0,2.79,10.43c1.63,3.05,4.75,4.44,7.45,6.17a100.74,100.74,0,0,0,33,13.56c3,.65,5.94,1.61,8.88,2.53a55.32,55.32,0,0,0,16.07,2.25c5.35.06,10.71-.28,16.05.45a12.2,12.2,0,0,0,6.2-.41c6.55-2.64,13.29-2.47,20.09-1.59-2.88,3.95-7.4,3.52-11.35,3.67-7.44.28-14.67,2.07-22.07,2.51-14,.83-27.92,3.39-42,2.34-11.26-.84-22.54-1.65-33.44-5-3-.93-6.19-1.24-9.23-2.07-5.15-1.39-8.39-5.06-8.71-10.42-.66-11.14-1.33-22.32-.47-33.45s1.59-22,1.47-33.12c0-2,.2-4.56-2.11-5-2-.36-3.19,1.69-4.2,3.48-1.29,2.32-.59,5-1.65,7.35-.47,1-.56,2.23-1.15,3.28-.41.74-.18,2-1.47,1.94-1,0-1.48-1-1.81-1.82-1.88-4.45-2.09-9,.07-13.36,1.86-3.75,2.59-7.34,1.15-11.46-.7-2-1.15-4.69.91-6.35a7.4,7.4,0,0,1,6.64-1.16,2.89,2.89,0,0,1,2.15,1.47c.29.59.56,1.54,1.54,1.13.76-.31.8-1.18.88-1.86a113.34,113.34,0,0,0,.38-18.15c-.38-7.09-.07-14.3,3.89-20.65,1.25-2,3.39-3,5.47-4.09A28.78,28.78,0,0,1,113.72,68.4Z" transform="translate(-6.94 -7.29)"/><path class="cls-5" d="M149.05,168.15c-1.61,1.9-1.4,4.36-2,6.58-.21.78-.06,1.74-1.09,2s-1.32-.81-1.67-1.47c-3.08-5.81-3.18-11.93-2.09-18.26s5-10.54,9.43-14.51a58.76,58.76,0,0,1,18.67-10.91c4.23-1.6,8.68-1.74,13.14-1.66.92,0,1.88.06,2.19,1.17s-.47,1.79-1.38,2.34c-3.68,2.19-8,2.87-11.62,5.26-.74.49-1.71.67-2.16,1.56-4,1.79-8.22,3.22-11.74,5.91-4.34,3.32-8.55,6.82-10.16,12.42C147.64,161.79,147.32,165,149.05,168.15Z" transform="translate(-6.94 -7.29)"/><path class="cls-6" d="M153.77,159.8c7.3.95,14.53,2.43,21.71,4.08,4.55,1.05,9,2.43,13.55,3.64,1.34.36,2.38.9,2.19,2.55s-1.47,1.76-2.81,1.79c-4.94.09-10-.43-14.57,2.15a11.27,11.27,0,0,0-4,3.58c-.6.89-.48,2.56-2.1,2.48-2.2-.11-4.57.66-6.56-.91-4.49-3.53-7.56-8.21-10.44-13-1-1.67-.69-3.61-.33-5.31C150.84,159,152.66,160.54,153.77,159.8Z" transform="translate(-6.94 -7.29)"/><path class="cls-7" d="M211.71,87.51c0-3.33,2.84-6.68,5.49-6.54,5.64.28,8.38,2.56,8.32,6.92a7,7,0,0,1-7.16,6.9C214.53,94.85,211.67,91.72,211.71,87.51Z" transform="translate(-6.94 -7.29)"/><path class="cls-8" d="M204,133.1c-.81,7.71-2.12,15.08-2,22.57,0,.85.22,1.7-1.1,1.5-1.89-.3,0-.79,0-1.21a.53.53,0,0,0-.44-.51c-2.91-.88-2.08-3.21-1.82-5.12.48-3.67-.14-7.42.75-11.06.08-.34-.22-.77-.55-1.82-2,5.86-1.55,11.28-1.82,16.61-1.14-1.61-.26-3.28-.33-4.9a115.11,115.11,0,0,1,.52-12.73c.07-1.07.27-1.5,1.46-1.7A41.3,41.3,0,0,0,204,133.1Z" transform="translate(-6.94 -7.29)"/><path class="cls-9" d="M180.75,145.66l.06-1.9c.19-4.24,2-6,6.13-6.22,1.31-.06,1,.81.93,1.4-1.11,5.87-.91,11.85-1.52,17.76-.09.9-.45,1-1.16,1-1.54,0-3.08,0-4.62-.06-.39,0-1,.21-1.09-.42a1.74,1.74,0,0,1,.25-1.29c.6-.62.75.32,1.14.48a2.19,2.19,0,0,0,2.89-.75c.8-1.28-.51-1.38-1.26-1.76-1-.49-.85-1.28-.69-2.2.55-3.08,1-6.18,1.5-9.27.08-.45.37-.87-.2-1.09s-.78.26-1.06.61c-.83,1.07-.09,2.73-1.36,3.65Z" transform="translate(-6.94 -7.29)"/><path class="cls-8" d="M204.32,153.77c-.06-7.17,1.4-13.86,1.55-20.64,0-1.16.88-1.22,1.55-1.53,1-.45,2-.78,3.38-1.31-.52,2.55-.43,4.94-.7,7.27a58.57,58.57,0,0,0,0,13.56,21,21,0,0,1,.07,3.8,1.73,1.73,0,0,1-1.36,1.52c-1.52.1.49-1-.27-1.14-3.26-.74-1.41-2.68-1-4.28,1-4.22-.23-8.63,1.05-12.85.2-.64.15-1.64-.89-1.6-.86,0-.63.92-.71,1.52-.59,4.2-1.33,8.4-1,12.66C206,152.05,205.14,152.63,204.32,153.77Z" transform="translate(-6.94 -7.29)"/><path class="cls-10" d="M135.59,248.4a21.42,21.42,0,0,1,10.79-3.87c4.29-.23,5.35,1.18,4.92,5.91a2.1,2.1,0,0,1-1.74,1.16,72.3,72.3,0,0,1-11.68,0C136.23,251.4,135,250.46,135.59,248.4Z" transform="translate(-6.94 -7.29)"/><path class="cls-8" d="M191.4,139.89c-.94,2.22-.91,4.64-1.42,6.93s-.37,4.82-.9,7.24a32,32,0,0,1,.06-5.54c.58-3.31,0-6.71.91-10,.2-.7-.51-1.74.68-2.06a27.64,27.64,0,0,1,4.46-1c.53,0,.36.93.24,1.4-1.56,6.2-.82,12.58-1.54,18.84-.08.7.49,1.82-.83,1.9a10,10,0,0,1-4.26-.19c-.09,0-.07-.52,0-.77.16-.68.43-.45.91-.19a2.66,2.66,0,0,0,2.35,0c.39-.18.81-.52.64-1.06-1.62-5.35-1.52-5.34-1.05-10.46C191.79,143.32,192.24,141.62,191.4,139.89Z" transform="translate(-6.94 -7.29)"/><path class="cls-11" d="M217.8,98.91c-5.33,2.51-13-4.13-11.19-11.69,1.22-5,3.53-7.44,7.4-7.82-1.48,1.6-3.29,2.82-4,5.14-1.69,5.18,1,10.82,6.21,12C217.82,97,218.05,97.58,217.8,98.91Z" transform="translate(-6.94 -7.29)"/><path class="cls-12" d="M190.72,191.44c3.81,1.7,8,2,12,2.81a19.06,19.06,0,0,0,10.16-.4,5.85,5.85,0,0,1,5.17,1,1.86,1.86,0,0,1,.47,3c-.85,1-1.67.64-2.36-.48a3.68,3.68,0,0,0-3.6-1.47c-10.61.84-20.52-2.77-30.69-4.7-3.21-.61-6.47-1.08-9.49-2.51,4.17-.06,8.13,1.5,12.27,1.55A30.78,30.78,0,0,1,190.72,191.44Z" transform="translate(-6.94 -7.29)"/><path class="cls-13" d="M210.65,248.81c-.48,2.19-1.62,2.56-3.92,2.29-4.85-.57-9.77-.52-14.67-.71a16.14,16.14,0,0,1-3.15-.26c2.91-2.32,6.29-3.31,9.73-4.14,1.55,1.31,3.37,1.46,5.31,1.45C206.26,247.43,208.66,247.18,210.65,248.81Z" transform="translate(-6.94 -7.29)"/><path class="cls-14" d="M175,144.27c-1.52.72-1.09,2.08-1.73,3.71,0-1.66-.08-2.67,0-3.66a5,5,0,0,1,5.17-4.08c1.15.11.74.89.62,1.36-1,4.29-1.29,8.7-2,13.05-.11.66.15,1.42-1,1.47s-1.23-.61-1.52-1.4c-1-2.83.42-5.46.56-8.19A3.56,3.56,0,0,0,175,144.27Z" transform="translate(-6.94 -7.29)"/><path class="cls-15" d="M135.59,248.4a2.64,2.64,0,0,0,3.14,2.51c4.18-.26,8.41.43,12.57-.47.15,1.17,0,1.81-1.46,2.26-6.23,1.92-12.54.4-19.25,1.08A14.75,14.75,0,0,1,135.59,248.4Z" transform="translate(-6.94 -7.29)"/><path class="cls-16" d="M166.78,145.67c-.68-1.5.67-1.62,1.45-2,1-.48,2-.79,3.3-1.3-.44,3.65-.84,7.08-1.25,10.51-.06.45-.14.9-.19,1.35-.33,3.57-1,4-4.51,3.38-.36-.06-.73,0-.72-.55a.42.42,0,0,1,.06-.25c.62-.69.6.24.9.35a3.64,3.64,0,0,0,3.09-.28c-3.09-2.45-4-7.49-2.06-11.27a5.05,5.05,0,0,1,.32,2.41A3.72,3.72,0,0,0,166.78,145.67Z" transform="translate(-6.94 -7.29)"/><path class="cls-17" d="M164.46,145.71c-.62,3.59-1.18,6.85-1.74,10.11-1-.11-1.26-1-1.49-1.7s-.31-1.08-1-.9-.78,1-.62,1.56a3.11,3.11,0,0,0,2.73,2.47c-3.73.87-3.72.86-3.38-2.31.06-.63,0-1.27,0-1.9C159,147.74,159,147.74,164.46,145.71Z" transform="translate(-6.94 -7.29)"/><path class="cls-18" d="M210.65,248.81a46.39,46.39,0,0,0-9.34-.62c-1.66.07-2.54-.54-2.67-2.2,3.74-1.85,7.47-1.15,11.17.08C211.2,246.53,210.83,247.75,210.65,248.81Z" transform="translate(-6.94 -7.29)"/><path class="cls-19" d="M205.43,184.9c1.37-.72,2.86-.49,4.32-.41,1.15.07,1.13,1,1,1.84-.13,1.28.12,2.86-1.52,3.35a12.34,12.34,0,0,1-3,.13c-.57,0-1.15,0-1-.83s-.34-1.56.87-2c.63-.21,2.25,0,1.79-1.43S206.34,185.25,205.43,184.9Z" transform="translate(-6.94 -7.29)"/><path class="cls-20" d="M191.8,185.25c-.44-3.09,1.89-1.73,3.16-1.89,1.49-.19,2.8.16,2.2,2.14-.44,1.43.92,3.79-2.23,3.91-2.58.1-3.76-.62-3.19-3.3,1-.16,2.33.46,2.79-1.09C193.5,184,192.79,186.05,191.8,185.25Z" transform="translate(-6.94 -7.29)"/><path class="cls-16" d="M201.73,183.94c3.31-.59,1.57,1.87,1.45,3.38-.19,2.38-1.17,3.05-3.44,2.53-.65-.15-1-.36-.89-1,.07-.45-.11-1.3.77-1,1.65.59,1.17-1.7,2.37-1.64-.39-1-1-1.45-2.11-1-.57.22-.53-.25-.5-.56s.18-.6.31-.62A17.74,17.74,0,0,1,201.73,183.94Z" transform="translate(-6.94 -7.29)"/><path class="cls-21" d="M183.2,184.18c-.93-1.42-2.15-1.31-3.6-1.55,6.37-.81,5-1,4.88,5-1.48-.37-2.92-.76-4.39-1.08-.51-.12-1-.41-.76-.83.46-.77.43.42.95.37C181.74,186,181.33,183.71,183.2,184.18Z" transform="translate(-6.94 -7.29)"/><path class="cls-22" d="M189.44,188.64l-1.71-.37c-.48-.1-1.21.19-1.3-.58-.07-.61.3-.89,1-1,1.4-.21,1.3-1.65,1.46-2.5s-.82-1-1.57-.56c-.49.26-.43-.22-.44-.37s0-.65.15-.72c.9-.48,1.69.3,2.59.3s.53.83.49,1.28C189.93,185.55,189.69,187,189.44,188.64Z" transform="translate(-6.94 -7.29)"/><path class="cls-23" d="M155.08,157.63c.25-1.41,1.37-3.19-1.51-3.45a14.24,14.24,0,0,1,3.83-3.68c-.58,2.55-.93,4.78,0,7-.87.22-1.62.64-2.4.06Z" transform="translate(-6.94 -7.29)"/><path class="cls-24" d="M191.8,185.25c.6-.8,1.2-1.57,2.39-1.37.73.12,1.53.39,1.74,1.05.26.84-.64.88-1.21,1.06-.24.07-.65.12-.69.27-1,3.44-1.55,0-2.29-.15Z" transform="translate(-6.94 -7.29)"/><path class="cls-25" d="M174.18,182.54c3.48-.43,3.48-.43,3.26,3-1.3-.1-1.18-.1-1.22-1.43C176.19,183,175.23,182.7,174.18,182.54Z" transform="translate(-6.94 -7.29)"/><path class="cls-26" d="M167.6,182.24c1.32,0,2.65,0,4,0,.81,0,1.21.25,1.07,1.09-.06.4.19,1-.49,1.05-.84.07-.74-.51-.71-1.08a.42.42,0,0,0-.69-.38C169.54,184.66,168.63,182.63,167.6,182.24Z" transform="translate(-6.94 -7.29)"/><path class="cls-9" d="M180.69,145.61a13.82,13.82,0,0,1-.81,7.16,25.15,25.15,0,0,1,.87-7.11Z" transform="translate(-6.94 -7.29)"/><path class="cls-27" d="M155,157.56c-1,1.22-2.4.92-3.41.48-.79-.33.44-1.1.43-1.9.52,1.75,1.68,1.85,3,1.5Z" transform="translate(-6.94 -7.29)"/><path class="cls-28" d="M183.94,74.65c8.25,1.13,13.93,7.61,13.77,15.73-.15,7.7-6.42,14.18-14.45,15-2.41.23-4.6-.81-6.92-1.13-9.72-3-13.54-15.69-7.13-23.73C173,75.73,177.77,73.4,183.94,74.65Z" transform="translate(-6.94 -7.29)"/><path class="cls-29" d="M183.94,74.65c-6.59-.46-11.82,2-15.08,7.76-4.42,7.8-1.75,16.35,6.2,20.88a14.26,14.26,0,0,1,1.28.92c-5.37.06-9.16-3.06-11.87-9.45-2.8-6.59-.4-16.45,8.49-19.16C176.65,74.48,180.11,73,183.94,74.65Z" transform="translate(-6.94 -7.29)"/><path class="cls-30" d="M138.72,78.74c5.55-.63,8.71.78,10.5,4.61a8.05,8.05,0,0,1-.84,8.67c-2.25,3.09-5.41,4-9.1,3.36a8.57,8.57,0,0,1-7.12-8.29A8.36,8.36,0,0,1,138.72,78.74Z" transform="translate(-6.94 -7.29)"/><path class="cls-31" d="M172.23,70.13c.34-.36.45-.59.56-.59,8.41-.06,16.83-.48,25.23.23a42,42,0,0,0,10-.09c2.17-.33,5.57,1.29,6.37,3.21a2,2,0,0,1-1.23,2.89c-1.15.45-1.42-.23-1.51-1.43-.11-1.47-1.57-1.91-2.8-2.13a41.43,41.43,0,0,0-5.91-.67c-9.93-.27-19.86-.7-29.78-1.09A4,4,0,0,1,172.23,70.13Z" transform="translate(-6.94 -7.29)"/><path class="cls-32" d="M138.72,78.74c-5.64,2.9-7.32,7.56-4.58,12.56,1.15,2.1,3.35,2.83,5.14,4.08-2.49,1.43-4.7.72-6.7-1a10.44,10.44,0,0,1-2.75-10.85C131,80.61,134.74,78.58,138.72,78.74Z" transform="translate(-6.94 -7.29)"/><path class="cls-33" d="M214.65,108.5c-.82,3.89-1.09,8.24-4.76,11.19-.46.36-.85,1.16-1.56.59-.45-.36-.32-1-.07-1.53a36.12,36.12,0,0,0,3.46-11.91c.12-.87-.12-2.35,1.31-2.3,1.26,0,1,1.52,1.43,2.37A5.72,5.72,0,0,1,214.65,108.5Z" transform="translate(-6.94 -7.29)"/><path class="cls-34" d="M188.3,170.19c-3.75,2.23-7.6,0-11.45.44l0-.91c1.85,0,3.7-.07,5.54,0S186.24,170.59,188.3,170.19Z" transform="translate(-6.94 -7.29)"/><path class="cls-35" d="M220.64,87.54c-.18,1.19-.31,2.5-1.7,3.06-.64.26-1.58,0-1.61-.57a30.55,30.55,0,0,1,.31-5.23,1.07,1.07,0,0,1,1.39-.54C220.34,84.91,220.57,86.16,220.64,87.54Z" transform="translate(-6.94 -7.29)"/><path class="cls-36" d="M166.78,145.67c2.11,1.72.74,3.52.24,5.3a12,12,0,0,1-.17-5.37Z" transform="translate(-6.94 -7.29)"/><path class="cls-37" d="M161.91,148.73l-.33,3c-1.11-1.12-1.14-2.15-.37-3.13Z" transform="translate(-6.94 -7.29)"/><path class="cls-7" d="M182.22,77a13.06,13.06,0,0,1,13.3,13.13c0,7.31-6,13-13.67,13.1-7.06.06-12.27-5.65-12.59-13.12C169,83.13,175.29,76.61,182.22,77Z" transform="translate(-6.94 -7.29)"/><path class="cls-38" d="M147.56,87.05a6.27,6.27,0,0,1-6.3,6.32,6.12,6.12,0,0,1-5.91-6.12,6.34,6.34,0,0,1,6.05-6.36A6.13,6.13,0,0,1,147.56,87.05Z" transform="translate(-6.94 -7.29)"/><path class="cls-39" d="M179.37,87.21c.29-2,1.85-3.12,3.32-4,2-1.26,3.67-.15,4.84,1.54,2.29,3.32,1.12,9.64-2.13,12.06a3.86,3.86,0,0,1-4.05.66c-1.75-.72-2.22-2.27-2.67-3.84-.27-.94.42-1.12,1.14-1.44,1-.42,2.16-.48,2.87-1.39.49-.61,1.81-.56,1.63-1.54s-1.09-1.25-2.1-1.33A19.29,19.29,0,0,1,179.37,87.21Z" transform="translate(-6.94 -7.29)"/><path class="cls-40" d="M142,87.07c.11-1.19-2.23-.73-1.23-2.28a1.62,1.62,0,0,1,1.89-.71c1.3.34,1.49,1.44,1.45,2.57a11.1,11.1,0,0,1-.33,1.58c-.19,1.07-.66,1.93-1.88,1.91a1.93,1.93,0,0,1-1.85-1.71C139.91,87.05,141.59,87.92,142,87.07Z" transform="translate(-6.94 -7.29)"/></svg>