<svg id="Layer_1" data-name="Layer 1" xmlns="http://www.w3.org/2000/svg" viewBox="0 0 286.13 285.43"><defs><style>.cls-1{fill:#010101;}.cls-2{fill:#fefefe;}.cls-3{fill:#020203;}.cls-4{fill:#75cbdc;}.cls-5{fill:#4298a9;}.cls-6{fill:#4299a9;}.cls-7{fill:#ec8878;}.cls-8{fill:#fdfdfd;}.cls-9{fill:#4797a8;}.cls-10{fill:#75cada;}.cls-11{fill:#75cadb;}.cls-12{fill:#fcfcfc;}.cls-13{fill:#fbfbfb;}.cls-14{fill:#fafafa;}.cls-15{fill:#4497a7;}.cls-16{fill:#f8f8f9;}.cls-17{fill:#4795a5;}.cls-18{fill:#d1d0d0;}.cls-19{fill:#d8dadb;}.cls-20{fill:#dad943;}.cls-21{fill:#d9d947;}.cls-22{fill:#dada45;}.cls-23{fill:#d6da47;}.cls-24{fill:#d1d857;}.cls-25{fill:#040404;}</style></defs><title>8</title><path class="cls-1" d="M146.47,7.31c35.79,0,71.59-.1,107.38.09,7,0,14.12.32,20.81,3.15,11,4.64,19.53,17.29,18.28,30.85a139.16,139.16,0,0,0-.5,22c.15,2.26,0,4.53-.05,6.8q0,79.44.07,158.86c0,6.76-.07,13.53.37,20.33.47,7.32.37,14.91-1.94,22.09-3,9.39-9.29,15.69-18.43,19.44-5.52,2.27-11.16,1.79-16.81,1.67-1.73,0-3.45,0-5.17,0l-144.34-.14c-15.45,0-30.9-.31-46.33.14-6.81.2-13.58,0-20.36-.2C24.2,292,12.73,285.08,7.6,268.55A21,21,0,0,1,7,261.26c.88-13.62.31-27.24.34-40.86q.15-82.29,0-164.58c0-8.15-.48-16.33,1.16-24.34C10.75,20.36,17.72,13.14,28.19,9c4.71-1.86,9.59-1.64,14.44-1.65q51.93-.08,103.84,0Z" transform="translate(-6.94 -7.28)"/><path class="cls-2" d="M11.34,149.8q0-46.59,0-93.19c0-8-.29-16,1.07-23.9,2.3-13.28,14.69-21,25.25-21q107-.33,213.93,0a99.38,99.38,0,0,1,16,1.1C280.53,15,288.9,27.16,288.74,38.48c-.95,65.74-.34,131.48-.38,197.23,0,9.15.13,18.3-.14,27.46-.42,14.24-13,25.41-26.13,25.36-52.5-.2-105-.09-157.51-.09-16.26,0-32.53-.23-48.78.09-7,.13-14-.19-20.91-.73a25.58,25.58,0,0,1-23.36-22.25c-.74-5.33-.17-10.86-.17-16.29V149.8Z" transform="translate(-6.94 -7.28)"/><path class="cls-3" d="M95.22,186.62c0-6.92,0-13.7,0-20.49,0-2.21.24-3.89-3.07-3.67-2,.13-4.14-1.09-6.1-2-2.45-1.08-2.83-3-1-4.94a2.52,2.52,0,0,0,.61-2.52,56.66,56.66,0,0,1,.8-17.28c1.42-7.87,2.85-15.73,5.35-23.35a87.38,87.38,0,0,1,16.51-28.92c3-3.63,6.93-6.41,10.76-9.14a6.27,6.27,0,0,0,2.8-4.81c1.28-9.86,8.93-13.31,18.07-11.63a7.8,7.8,0,0,1,4.37,2.56c1.4,1.57,2.72,2.18,4.94,1.46A50.32,50.32,0,0,1,158,60.21c1.29-.16,1.45-.74,1.45-1.74a16.82,16.82,0,0,1,.5-3.73c.57-2.42,1.11-4.07,4.4-3.45,2.29.43,4.82-.47,7.25-.73a39,39,0,0,1,13.48.81,7.63,7.63,0,0,0,1.07.13c5.15.52,5.27.5,6,5.78.29,2,1.69,1.56,2.54,1.42,2.15-.34,4.18.19,6.22.43,4.66.56,7.1,3.36,7.64,8.4,1.16,10.69.12,21.36-.39,32-.26,5.52-.72,11-1,16.55a11.08,11.08,0,0,0,.51,2.57A33.66,33.66,0,0,1,217,114c2.53-.76,5-.72,6.74,1.3s1,4.37,0,6.65c-1.65,3.93-5,6.09-8.3,8.35-1.43,1-1.79,1.48-.62,3.15,2.63,3.74,5.27,7.52,6,12.3.42,2.86,0,5.33-2.32,7-2.56,1.87-5.35,1.26-8-.06a31,31,0,0,1-3.28-2.24c-.46,1.18-.11,2.32-.11,3.42,0,9.27-1,18.45-2,27.65a134.44,134.44,0,0,0-.84,19.25,17.84,17.84,0,0,1-2.91,11.05,6.12,6.12,0,0,1-6.11,2.81c-4.9-.76-9.8.13-14.67-.38-1.75-.18-2.05.47-2,2.11.05,3.17-.24,6.34-.3,9.52,0,.71-.47,1.72.74,2,3.65,1,4.22,4.07,4.42,7a104.59,104.59,0,0,1-.06,11.61c-.08,2-1.06,3.22-3.38,2.73-3-.64-6.13.07-9.19,0-3.23-.11-3.71-.66-3.66-3.86a22,22,0,0,1,6.93-16,4.08,4.08,0,0,0,1.33-3.31,54,54,0,0,1,.45-9.76c.26-1.41-.05-2-1.74-2-10,0-20,0-30-.12-8.35-.14-16.69-.49-25-.85-2-.09-2.86.36-2.65,2.64a29.65,29.65,0,0,1-.23,9.21c-.14.67-.15,1.07.58,1.15,5.08.52,5.5,4.61,6.16,8.32a48.63,48.63,0,0,1,.42,7c.13,4.63-2,6.64-6.72,6.26-.81-.07-1.62-.23-2.43-.32-6.15-.63-7.78-3.24-6.87-9,.67-4.26,1.36-8.9,5.88-11.33a1.16,1.16,0,0,0,.55-1.38c-.53-3.53,0-7.08-.06-10.61,0-1.57-.48-2.09-2-2-6.6.49-13.16-1.08-19.8-.29-4.42.52-6.91-2.48-6.75-7.45a25.52,25.52,0,0,1,1.11-7.21c.49-1.51.38-2.55-1.23-3.29-1.34-.63-2.7-1.65-2.15-3.32.63-1.91,1.15-4.12,3.62-4.68a17.2,17.2,0,0,1,4.58-.55C92.52,186.67,94,186.62,95.22,186.62Z" transform="translate(-6.94 -7.28)"/><path class="cls-4" d="M174.24,99.33c1.62-.55,3.27-1,4.86-1.66,6.36-2.5,9.09-8,10.34-14,1.45-7,1.94-14.13,2.81-21.22.09-.71.13-1.24,1-1.2,2.35.13,4.69-.07,7.05.21,3.54.42,5.12,2.67,5.44,5.72a173.29,173.29,0,0,1,.31,27.15c-.49,9.31-1.41,18.6-1.47,27.94a1.1,1.1,0,0,0,.58,1.12c.78.37,1.09-.29,1.55-.71a26.45,26.45,0,0,1,11.34-6.56,3.65,3.65,0,0,1,3.52.71c1.09,1,.29,2.23-.18,3.27a14.4,14.4,0,0,1-5.62,6.44,23.55,23.55,0,0,0-4.82,4c-.56.6-1.21,1.31-.37,2.08,4.11,3.76,6.23,8.59,7.41,13.87.72,3.26-1.3,5.09-4.44,4.23-3.45-.94-5.89-3-6.78-6.6-.22-.89-.53-2.26-1.8-2s-1.23,1.49-1.13,2.68a128.86,128.86,0,0,1-.41,23.07c-.74,7.65-1.49,15.32-1.85,23-.21,4.48-1.08,8.92-.24,13.51.55,3-2.77,5.79-5.31,7.42-3,1.93-5.64.09-8.37.09-3.71,0-7.43,0-11.15-.12a53.61,53.61,0,0,1-12.72-.38c-8.28-1.06-16.59-1.86-24.81-3.31a83.57,83.57,0,0,1-15-3.91c-1.06-.4-2.66-.77-2.44-2.12s1.8-1.35,3-1.43c3.45-.22,6.86-.72,10.27-1.23.77-.11,1.93-.18,1.8-1.21s-1.3-.94-2.06-.81c-6.38,1-12.67-.05-19-.69-1-.1-2.22.06-3.08-1.37,4.15-.61,8.2.12,12.18-.42,6.13-.5,12.34-.69,18.28-2.35,12.2-3.41,15.85-12.66,14.2-23.11-.54-3.48-3.84-5.91-7.2-7.28-6.79-2.79-13.95-4.26-21.15-5.48a110.79,110.79,0,0,0-14.54-1.77,9,9,0,0,0-3.51-.14c-1.83.16-2.83-.66-3-2.36-.43-5.33-1.85-10.56-1.85-15.92a97.41,97.41,0,0,1,5.22-30.15c2.17-6.73,4.23-13.5,6.84-20.07A30.24,30.24,0,0,1,119.38,83c.61-1.12,1.38-1.35,2.37-.41.66.63,1.3,1.27,2,1.86,3.36,2.88,7,2.45,10.71.87,8.68-.51,16.11-10.51,14-19-.34-1.36-.28-1.71,1.12-1.88,1.69-.21,3.35-.69,5-1.06,1.61-.61,2.43.15,2.09,1.64-1.49,6.54.34,12.79,1.37,19.13a22.73,22.73,0,0,0,6.78,12.76C167.33,99.37,170.57,100.57,174.24,99.33Z" transform="translate(-6.94 -7.28)"/><path class="cls-5" d="M134.45,85.32c-4.21,3.72-8.73,2.77-14.06-3.08-2.32,6.27-4.88,12.33-6.72,18.67-2.17,7.46-4.72,14.79-6,22.49-1.33,8.21-.9,16.31.16,24.53.56,4.36,1.25,7.36,6.38,7-4.71,0-9.44.31-14.12-.06-2.9-.22-5.64-1.74-8.71-1.48-3.39.28-3.77-.11-3.81-3.68a79.77,79.77,0,0,1,1.6-15.33c1.72-9.22,3.29-18.49,7.14-27.12,4.08-9.11,8.87-17.83,16.2-24.82,2.42-2.3,5.15-4.26,7.78-6.34.58-.46,1.35-1.2,1.77.25,1.61,5.54,5.83,7.72,11.07,8.6A8.29,8.29,0,0,1,134.45,85.32Z" transform="translate(-6.94 -7.28)"/><path class="cls-2" d="M189.48,60.26c-.83,6.52-1.77,13-2.45,19.58a24.13,24.13,0,0,1-2.36,8.75c-2.4,4.7-6.45,6.65-11.23,7.5-3.63.65-5.91-1.63-8-4.16-3.22-3.93-3.47-8.68-3.51-13.38-.06-6.42.08-12.86.38-19.28.33-7.21.49-5.75,6-6.23,6-.54,11.89.18,17.82.67,1.89.16,3,.88,2.92,3A19.84,19.84,0,0,0,189.48,60.26Z" transform="translate(-6.94 -7.28)"/><path class="cls-6" d="M124.66,194.88c-2.64.94-5.37.26-8.06.42a22.47,22.47,0,0,0-3.37.24c5.67.38,11.25,1.72,17,1.42,1.7-.09,3.4-.38,5.1-.53,1.39-.12,2.76.25,2.86,1.79s-1.37,1.81-2.53,1.95c-3.66.45-7.34.78-11,1.19-.88.1-1.76.34-2.7.53,3.79,4.31,33.64,8.21,54.64,9.87-4.11,1.11-8.32.49-12.41.29-4.71-.23-9.42-.07-14.11-.09-16.12-.1-32.23-1.34-48.36-.86-3.79.12-7.45-1.26-11.27-1.29-1.66,0-2.06-1.63-2.21-3-.37-3.18.32-6.31.59-9.47.1-1.13,1-1.39,2-1.46A304.56,304.56,0,0,1,124.66,194.88Z" transform="translate(-6.94 -7.28)"/><path class="cls-7" d="M113.84,192.06a157.33,157.33,0,0,0-25.2,1.49c-1.34.16-2.76-.29-3-1.31A2.45,2.45,0,0,1,88,189.47a27.37,27.37,0,0,1,5.43,0c9,1,17.92-.41,26.86-1.1a56.56,56.56,0,0,0,23.37-7.21c3.62-2,5.9-6.89,5-10.78-.83-3.61-4-4.42-6.83-5.44-3-1.1-6.27-1.1-9.41-1.09-12.37,0-24.56-1.64-36.73-3.6a40.27,40.27,0,0,1-7.38-1.51c-.49-.18-1.15-.27-1.21-.91s.71-.74,1.14-1a9.93,9.93,0,0,1,6.12-.75c6.58,1.08,13.22.57,19.8,1.08a140,140,0,0,1,32.65,6.31c6.92,2.27,9.26,7.11,7.54,14.21-1.76,7.3-6.88,11.55-15.08,12.75A141,141,0,0,1,113.84,192.06Z" transform="translate(-6.94 -7.28)"/><path class="cls-8" d="M135.59,60.1c6.37-.71,10.52,4.7,10.68,9.44.17,5.21-6.44,13-10.88,13-6.46,0-11.22-4.37-11.25-10.28C124.09,64.75,128.48,60.11,135.59,60.1Z" transform="translate(-6.94 -7.28)"/><path class="cls-9" d="M174.24,99.33c-4.14,2-9.45-.42-12.72-5.11-4.05-5.84-4.7-12.51-5.82-19.16a23.45,23.45,0,0,1,.31-9.91c.41-1.58-.32-1.69-1.43-1.77,3.93-1.28,4.35-1,4.44,2.93.15,6.33-.34,12.66.5,19,.87,6.52,5.5,12.4,11.22,13.83C171.93,99.42,173.08,99.15,174.24,99.33Z" transform="translate(-6.94 -7.28)"/><path class="cls-10" d="M112.09,233.46a4.27,4.27,0,0,1,3.23-3.58,2.34,2.34,0,0,1,3.34,1.7c1.29,4.2,1,8.54,1.11,12.84,0,.86-.34,1.07-1.18.78a13.16,13.16,0,0,0-2.1-.36c-1.86-.28-2.73-1.63-3.36-3.19A13.73,13.73,0,0,1,112.09,233.46Z" transform="translate(-6.94 -7.28)"/><path class="cls-11" d="M173.12,234.51c.7-.82,1.35-1.69,2.11-2.45s1.35-1.62,2.52-1.22a3.12,3.12,0,0,1,2,2.69A30,30,0,0,1,180,243a8.82,8.82,0,0,0,.18,3.33l-3.18-.37A11.08,11.08,0,0,1,173.12,234.51Z" transform="translate(-6.94 -7.28)"/><path class="cls-12" d="M105.05,169.15c0,.06,0,.33,0,.6-.17,5.22-.72,5.65-6,4.89-.76-.11-1-.28-1.13-1.09a86.25,86.25,0,0,1-.56-9.22c0-1,.34-1.27,1.24-1.11,2,.35,3.91.73,5.88,1,.81.11,1.06.34.91,1.19C105.18,166.57,105.16,167.76,105.05,169.15Z" transform="translate(-6.94 -7.28)"/><path class="cls-13" d="M116.73,182.16c-.1-.93-.14-1.11-.14-1.29-.19-4.71,1.07-5.76,5.89-5.24,1.14.12,1.06.7,1.06,1.4,0,2.07-.07,4.15-.05,6.22,0,1.55-.34,2.56-2.27,2.33-1.49-.18-3.43,1.27-4.34.22C116.13,184.94,116.73,182.92,116.73,182.16Z" transform="translate(-6.94 -7.28)"/><path class="cls-13" d="M113.77,181.38c0,.36,0,.72,0,1.09,0,1.2.42,3.28,0,3.46-2,.85-4.24.71-6.42.7-.64,0-.66-.46-.63-.94.17-2.61.36-5.22.48-7.83,0-.84.44-1.1,1.19-1.06a4.87,4.87,0,0,0,.54,0C113.87,176.49,113.87,176.49,113.77,181.38Z" transform="translate(-6.94 -7.28)"/><path class="cls-14" d="M126.24,185a27,27,0,0,0,0-7.66c-.17-1.47.08-2.44,1.85-2.34a6.85,6.85,0,0,0,1.32-.26c3.47-.49,3.51-.46,3.67,3,.28,5.68.28,5.68-5.55,6.88C127.23,184.67,126.9,184.79,126.24,185Z" transform="translate(-6.94 -7.28)"/><path class="cls-12" d="M100.87,187c-2.58.65-3-.4-2.61-2.75a27.32,27.32,0,0,0-.32-6.23c-.13-1.37.25-1.86,1.76-1.81,4.84.17,4.83.1,4.4,4.85a18.81,18.81,0,0,0-.13,3C104.13,186.4,103.59,187.88,100.87,187Z" transform="translate(-6.94 -7.28)"/><path class="cls-8" d="M107.76,169.7v-1.63c0-3.4,0-3.33,3.52-3.28,2,0,3.31.36,2.62,2.89-.29,1.09.09,2.35,0,3.51-.1,1,.67,2.34-.65,2.88a10.32,10.32,0,0,1-5.09.49c-.77-.09-.46-.84-.47-1.33,0-1.18,0-2.35,0-3.53Z" transform="translate(-6.94 -7.28)"/><path class="cls-13" d="M123.46,169.83c0,3.53-.08,3.2-3.68,3.81-3.09.52-3.67-.52-3.36-3.2.18-1.59-1.21-3.53-.15-4.69s2.85.44,4.36.14C124.48,165.12,123.29,168,123.46,169.83Z" transform="translate(-6.94 -7.28)"/><path class="cls-14" d="M125.53,168.84c1.31-.62-1.61-3.22,1.5-2.84,2.09.25,5.54-.88,6,1.43.92,4.49-.4,5.48-5.69,5.43C124.36,172.83,126.49,170.18,125.53,168.84Z" transform="translate(-6.94 -7.28)"/><path class="cls-15" d="M173.12,234.51c-.34,4.37,1.74,7.91,3.9,11.43-2.05.25-4.11.46-6.14.78-1,.16-1.59,0-1.41-1.17C170.08,241.67,170.66,237.78,173.12,234.51Z" transform="translate(-6.94 -7.28)"/><path class="cls-16" d="M136.33,181.85c-.08-1.48-.17-2.55-.18-3.62-.06-4.7-.71-3.9,3.87-4.07.7,0,2.25-.75,2,.77s1.85,3.26-.58,4.4C139.82,180.07,138.26,180.89,136.33,181.85Z" transform="translate(-6.94 -7.28)"/><path class="cls-14" d="M138.16,171.87c-.72-.27-2.09.77-2.48-.44a18,18,0,0,1-.48-4.55c0-.12.58-.41.86-.38a39.07,39.07,0,0,1,5.08.72c1.67.42.79,1.94.94,3s-.52,1.63-1.59,1.66C139.77,171.89,139.05,171.87,138.16,171.87Z" transform="translate(-6.94 -7.28)"/><path class="cls-17" d="M112.09,233.46c.61,2.52.51,5.17,1.57,7.61a7.43,7.43,0,0,0,2.83,3.77c-1.8-.14-3.59-.35-5.39-.38-1.3,0-1.12-.84-1.16-1.65A17.41,17.41,0,0,1,112.09,233.46Z" transform="translate(-6.94 -7.28)"/><path class="cls-18" d="M144.46,176.94c.08-1-.92-2.29.44-3.08a1.56,1.56,0,0,1,1-.06C146.19,175.14,145.2,176,144.46,176.94Z" transform="translate(-6.94 -7.28)"/><path class="cls-19" d="M144.35,168.94c1.05.28,1.82.8,1.8,1.76,0,.51-.92.71-1.34.52C143.71,170.72,144.35,169.8,144.35,168.94Z" transform="translate(-6.94 -7.28)"/><path class="cls-20" d="M175.39,205.69c.79-1.29,1.29-2.12,2.28-2.07,3.1.16,5.91-1.26,9-1.41,3.36-.16,6.6-1.38,7.84-5.25a6.36,6.36,0,0,0,.38-1.8c.22-10,.88-20,1.56-30,.79-11.63-.28-23.28,1-34.82.55-4.83.44-9.62.8-14.42a3.17,3.17,0,0,1,1.58-2.65,6.56,6.56,0,0,1,1.68,5.39c-.39,3.63,1.43,7,1.05,10.67-1.27,12.06-.57,24.2-1.36,36.26-.29,4.46.16,9.14-1,13.36-1.93,7-1.57,14.18-3.14,21.11-.51,2.22-2.42,3.7-4.59,4.51C187,206.61,181.43,205.55,175.39,205.69Z" transform="translate(-6.94 -7.28)"/><path class="cls-21" d="M199.87,109.5c-1.83-2.45-1.66-5.1-1.67-7.7,0-9.51-.07-19,0-28.54,0-2.54-.69-4-3.48-3.85-1,.06-1.8-.15-1.93-1.37s.4-1.56,1.43-2.16c3.86-2.27,8.75-.17,8.49,5.15-.46,9.4-.16,18.84-.11,28.26,0,2.87-1.47,5.47-1.24,8.37C201.44,108.54,200.61,109,199.87,109.5Z" transform="translate(-6.94 -7.28)"/><path class="cls-22" d="M147.68,195.56a68.38,68.38,0,0,0,7.27-5.75c3-2.95,4.35-6.53,5.15-10.48.41-2,1.37-3.88,1.07-6a5.65,5.65,0,0,0-.61-2.83c-.56-.82-1.06-2.2.18-2.81,1.06-.51,1.9,0,2.83,1.2,3.17,4,1.77,8.11.62,12-.95,3.19-1.82,6.51-4,9.37S152.4,196.16,147.68,195.56Z" transform="translate(-6.94 -7.28)"/><path class="cls-23" d="M215.62,147.37c-.07.52.08,1.14-.54,1.42a1.34,1.34,0,0,1-1.69-.34c-1.34-1.41-2.75-2.61-3.26-4.73a27,27,0,0,0-2.65-5.7c-.53-1-.92-2.15.09-2.89s1.92.35,2.45,1A27.42,27.42,0,0,1,215.62,147.37Z" transform="translate(-6.94 -7.28)"/><path class="cls-24" d="M220.09,119.55c-.56,1.77-2.18,2.73-3.52,3.81-2.31,1.88-4.88,3.44-7.26,5.26-.71.55-1.39,1.12-2.05.39s-.16-1.4.51-2.07c3.17-3.1,6.86-5.55,10.31-8.28C218.81,118.09,219.84,118.09,220.09,119.55Z" transform="translate(-6.94 -7.28)"/><path class="cls-1" d="M180.49,71.68a27.71,27.71,0,0,1-2.31,10.14c-1,2.07-1.91,4.23-4.79,4-2.09-.17-4.54-2.65-5-5.15-.34-1.88-.51-3.75,2-4.47a5.83,5.83,0,0,0,2-1.36c1.37-1.18,1.17-2-.55-2.7-3.74-1.42-3.73-1.45-2.46-5.36,1.07-3.32,3.4-4.8,6.18-4.31s4.24,2,4.38,4.84C180,69,180.36,70.7,180.49,71.68Z" transform="translate(-6.94 -7.28)"/><path class="cls-25" d="M131.83,68.76a6.15,6.15,0,0,1,1.35-2.7,2.25,2.25,0,0,1,3.79.55c1.13,2.07.67,6.78-.83,8.49a2,2,0,0,1-2.88.54,4.11,4.11,0,0,1-2-3.34c0-.54.57-.56,1-.72.88-.33,2.23-.43,2.06-1.7S132.77,69,131.83,68.76Z" transform="translate(-6.94 -7.28)"/></svg>