<svg id="Layer_1" data-name="Layer 1" xmlns="http://www.w3.org/2000/svg" viewBox="0 0 286.02 285.72"><defs><style>.cls-1{fill:#010101;}.cls-2{fill:#fefefe;}.cls-3{fill:#050102;}.cls-4{fill:#0b0403;}.cls-5{fill:#fe7800;}.cls-6{fill:#d6000a;}.cls-7{fill:#fdfdfd;}.cls-8{fill:#e87;}.cls-9{fill:#d30209;}.cls-10{fill:#fcfbfb;}.cls-11{fill:#fc7803;}.cls-12{fill:#d1030a;}.cls-13{fill:#cf030b;}.cls-14{fill:#f97706;}.cls-15{fill:#fa7707;}.cls-16{fill:#cf040a;}.cls-17{fill:#c60910;}.cls-18{fill:#f1f1f2;}.cls-19{fill:#f6f5f6;}.cls-20{fill:#dedede;}.cls-21{fill:#deddde;}.cls-22{fill:#e2e2e2;}.cls-23{fill:#ea8c12;}.cls-24{fill:#8e100a;}.cls-25{fill:#fbc603;}.cls-26{fill:#fcc702;}.cls-27{fill:#020202;}.cls-28{fill:#160101;}</style></defs><title>9</title><path class="cls-1" d="M146.46,7.17c35.8,0,71.59-.11,107.38.09,7,0,14.12.32,20.81,3.15,10.91,4.62,19.5,17.21,18.24,30.89-.9,9.73-.57,19.57-.56,29.37.07,52.71,0,105.42.1,158.14,0,6.85,0,13.72.35,20.6.39,8.41.46,17.09-3,25.18-4.77,11.09-17.11,19.47-30.39,18.13-2.86-.29-5.77-.11-8.66-.12q-57-.06-114.1-.13c-25.53,0-51.06-.21-76.58.14-6.89.09-13.76,0-20.63-.19C27.74,292.16,18,288,11.59,277.73a31.49,31.49,0,0,1-4.53-19.2c.5-8.52.29-17.08.29-25.62q0-51.93,0-103.88c0-24.44.14-48.89-.07-73.34-.08-8.26-.51-16.54,1.21-24.62,2.26-10.63,8.89-17.72,18.92-21.9,5-2.07,10.08-1.94,15.21-1.95q51.91-.08,103.83,0Z" transform="translate(-6.99 -7.14)"/><path class="cls-2" d="M11.32,150q0-50.29,0-100.61c0-5.7-.09-11.49,1-17.1,2.71-13.5,15.13-20.77,25.23-20.8q106.7-.33,213.39,0a89.59,89.59,0,0,1,16.54,1.08,25.56,25.56,0,0,1,21.07,25.74c-.76,65.79-.26,131.57-.28,197.35,0,9.34.16,18.67-.18,28-.48,13-11.73,24.67-24.72,24.71-43.69.11-87.39,0-131.08,0-25.44,0-50.88-.13-76.31.07-8.08.06-16.18.16-24.11-1.2a25.07,25.07,0,0,1-20.26-20.95c-.75-5.34-.34-10.85-.34-16.29q0-50,0-100.06Z" transform="translate(-6.99 -7.14)"/><path class="cls-3" d="M89.24,150.13c-1.73,2.29-3,4.19-4.49,5.87s-3.59,3.09-6.24,2.41-3-2.91-3.43-5.06c-1.7-9.1-3-18.23-2.55-27.55.29-5.78,5.13-8.85,10.19-6.07,3.13,1.72,5.58,4.29,8.11,7.16.83-4.67,1.74-9.08,2.8-13.47,3.94-16.43,10.83-31.15,24.23-42.1a7.86,7.86,0,0,0,3-6c.66-8.39,9-13.43,16.07-12.87a12.68,12.68,0,0,1,9.48,5.27c1.41,2,3.15,1,4.69,1.05s1.07-1.64,1.21-2.55a26.07,26.07,0,0,1,4.85-11.7c4.05-5.51,8.3-7,14.94-5.38a42.52,42.52,0,0,0,6.56,1.52c5.83.52,8.42,5.29,11.3,9.38,4,5.68,4.19,12.24,3.32,18.85a4,4,0,0,0,1.05,3.34c10.7,13.65,20.17,28,23.72,45.37,1,4.71,1.59,9.48,2.1,14.27.63,5.86,1.4,11.71,2.1,17.57a3,3,0,0,0,1.13,2.33c1.93,1.43,1.85,3.37,1.13,5.4a4.39,4.39,0,0,1-4.22,3.27c-3.35.13-6.71.18-10.07.32-2,.08-9.28,5.9-9.71,7.71a2.84,2.84,0,0,0,2.75,3.22c4.7-.36,9.4-.82,14.1-1.22,1.18-.1,2.36-.22,3.53-.21,2.51,0,5,.09,5.84,3.22.9,3.33.06,6.31-2.67,8.08a3,3,0,0,0-1.29,3c.27,9.43-1.7,18.73-1.57,28.17a22.27,22.27,0,0,1-1.56,7.4c-2.19,6.21-7.68,7.59-13.28,8.27a200,200,0,0,1-21.17,1.73c-1.57,0-1.87.54-1.47,1.95a64.7,64.7,0,0,1,1.91,12.61c.06.87.07,1.28,1.07,1.33a10.1,10.1,0,0,1,2.64.6,7.09,7.09,0,0,1,4,10.55c-4.5,7.28-12,7.52-18,2.94-2.8-2.13-2.67-6.78,0-10.4a7,7,0,0,1,4-3.08c2.79-.52,3-2.08,2.5-4.33-.79-3.38-.21-6.88-.86-10.3-.26-1.33-.43-1.74-1.92-1.67-10.15.5-20.32,1.21-30.48,1.16-10.6,0-21.23,0-31.81-.87-1.56-.13-2,.09-1.88,1.74.25,4,.33,8,.32,12,0,.89.27,1.07,1,1.22a4.55,4.55,0,0,1,1.27.48c2.86,1.55,5.56,3.32,5.6,7s-2.27,6-5.39,7.47a16.88,16.88,0,0,1-7.56,1.95,10.33,10.33,0,0,1-9.66-7.76c-.79-3.22,1.69-7.5,5.48-9.45a5.29,5.29,0,0,1,2-.85c3.7-.08,4.07-2.28,3.85-5.3a45.29,45.29,0,0,1,.37-7.06c.14-1.56-.35-2.24-2-2.49a38.08,38.08,0,0,1-13.43-5,10.66,10.66,0,0,1-5.2-8.22,379.3,379.3,0,0,1-2.16-50.32C89.3,160.94,89.24,155.79,89.24,150.13Z" transform="translate(-6.99 -7.14)"/><path class="cls-4" d="M118.39,51.64a2.39,2.39,0,0,1,.73-2c4.36-4.56,9.25-8.37,15.39-10.18,3.64-1.08,6.46,1.28,6.47,5.06A2.3,2.3,0,0,1,139.2,47a73.6,73.6,0,0,0-16,7.84C120.7,56.35,118.36,54.71,118.39,51.64Z" transform="translate(-6.99 -7.14)"/><path class="cls-5" d="M142.51,79.89l3.58-3.4c1.91,1.62,1.21,4,1.58,6,.24,1.33,0,2.72.35,4.07,1.85,7.92,7,11.83,15.17,11.44a12.81,12.81,0,0,0,3-.28c2-.45,4.11-.06,6.21-.41,8.87-1.5,13.25-8,17-15.09a27.26,27.26,0,0,0,3-8.09c2.75,3.09,4.47,6.65,6.66,9.88,5.27,7.81,10.27,15.73,13,24.94a117.62,117.62,0,0,1,4.7,25.06c.33,4.71.89,9.4,1.48,14.08.19,1.51-.05,2.23-1.72,2.07-5.53-.52-11,.36-16.51.62a69.17,69.17,0,0,1-23.25-3.27c-6.92-2.08-13.81-4.31-21-5.34-4.75-.68-8.38.52-10.94,4.62-3.55,4.39-5.57,9.65-7.25,14.84-2.18,6.73-1.65,13.49,3.5,19.13.37.4.73.81,1.07,1.24,1.78,2.2,1.61,2.93-1,3.86a20.66,20.66,0,0,0-4.46,2c-.45.29-.93.6-.85,1.33,1,.82,2.24.55,3.35.38,12.15-1.89,24.21-1,36.28.87a59.42,59.42,0,0,0,15.19-.09c-5-1.66-10.42-1.22-15.27-3.41a7,7,0,0,1,4.27-.46c13-.2,26.09-.29,39-2.69,1.85-.35,2.18.06,2,1.81-.66,6.59-1.23,13.18-1.75,19.77-.19,2.52-.13,5.06-.21,7.59-.23,7.68-2.77,11-10.44,12.11a259.6,259.6,0,0,1-42.63,2.48c-5.39-.69-10.92-.81-16.19-1.75-8.15-1.47-16.54-2.57-24.13-6.35a19.87,19.87,0,0,1-8.82-8.64c-6.2-11.79-11.11-24.09-13.37-37.3-.84-4.93-.33-10-.84-14.94-.31-3.06-.45-6.17-.9-9.21a18.87,18.87,0,0,1,1.9-11.9c2.08-3.94,3.84-8,5.78-12a57.11,57.11,0,0,0,4.63-14.21,24.2,24.2,0,0,1,2.57-7.43A73.35,73.35,0,0,0,122.62,87c1-3.73,1.51-3.88,5.23-2.63a14.1,14.1,0,0,0,12.06-1.2A4.64,4.64,0,0,0,142.51,79.89Z" transform="translate(-6.99 -7.14)"/><path class="cls-6" d="M142.51,79.89c1.67,1.85-.16,2.67-1.2,3.35-4.51,3-9.43,3.85-14.43,1.58-2.22-1-2.83-.33-3.31,1.62-1.76,7.17-4.79,13.81-8,20.43-1.88,3.84-1.78,8.47-3.32,12.55a96,96,0,0,1-7.2,15.81c-3.43,5.68-3.51,11.59-2.66,17.85a95.74,95.74,0,0,1,.92,13c0,8.49,2.18,16.48,5,24.33,2.18,6,4.56,11.83,7.31,17.57,3.33,6.94,8.69,11.07,16,13.07a128.75,128.75,0,0,0,27.4,4.79c2.2.11,4.51.28,6.44,1.66a9.81,9.81,0,0,1-5,.94c-13,.07-25.93.48-38.89-.34-7.67-.49-15.26-1.32-22.18-5.07-2.53-1.38-4.53-2.65-5-6.25-2.8-23.49-2-47.06-2.09-70.61,1.19-2.82,2.77-5.46,3.87-8.32.55-1.44.37-2.18-1.22-2.87s-3.66-1.45-4.72-3.27c2.08-.26,2.85-2,3.16-3.57,1.27-6.53,2.34-13.13,4.42-19.45,3.46-10.51,6.92-21,15.12-29.18,2.3-2.27,4.42-4.76,6.66-7.11.89-.94,1.41-1.06,1.91.19,3.16,7.85,11.94,10.79,19.31,7.7A10.44,10.44,0,0,1,142.51,79.89Z" transform="translate(-6.99 -7.14)"/><path class="cls-7" d="M154.29,69.83c.37-5.91.16-13.42,3.64-20.31a14.83,14.83,0,0,1,1.17-2.15c4.83-6.45,6.83-6.69,14.47-4.75,2.61.66,4.66,3.11,7.72,2.37.25-.06.66.55,1,.86,6.46,6,8.78,13.45,7.76,22.19a37.86,37.86,0,0,1-9.59,21.25c-4,4.5-9.49,5.81-15.15,4.36-5.41-1.38-8.58-5.31-9.66-11A81.19,81.19,0,0,1,154.29,69.83Z" transform="translate(-6.99 -7.14)"/><path class="cls-8" d="M194.62,182.45c-14.36,2-28.81-.16-43.29-2a14.78,14.78,0,0,1-6.1-2.18,5.22,5.22,0,0,1-2.71-4.75c.56-7.93.69-16,4.3-23.34,2.33-4.78,3.93-5.75,9.22-4.87,7.17,1.18,14.1,3.35,21.07,5.29A66.24,66.24,0,0,0,198,153.3c4.49-.22,9-1.08,13.5-.89,3,.12,6,0,8.63,1.71.68.42,2,.09,1.53,1.6a2.34,2.34,0,0,1-2.28,2c-3.9.15-7.8.24-11.69.45-9.44.53-18.81-.56-28.19-1.13-6.78-.4-13.38-2.36-20.22-2.2a2.45,2.45,0,0,1-.27,0c-10.22-.25-10.63.94-12.34,10.87a4.16,4.16,0,0,0,1.68,3.82,9.42,9.42,0,0,0,4.31,2.24c11.38,2.15,22.7,4.81,34.42,4.32q15.38-.63,30.67-2.2a15.43,15.43,0,0,1,2.71-.13c1.07.07,2.59-.56,2.83,1.21.21,1.52.3,3.09-1.39,4.07-3.67,2.13-7.79,2.4-11.83,2.69C205.05,182,200,182.93,194.62,182.45Z" transform="translate(-6.99 -7.14)"/><path class="cls-9" d="M179.56,186.43l-4.32.38c5.82.91,10.86,1.71,15.9,2.48.7.11,1.74-.11,1.81.77s-1,.81-1.66.92c-7.62,1.18-15.15.36-22.72-.68a98.47,98.47,0,0,0-28.17-.2,41.62,41.62,0,0,1-4.61.25c-.66,0-1.39-.09-1.66-.72-.38-.85.41-1.35,1-1.75a15.11,15.11,0,0,1,6.39-2.9c1.83-.33,1.69-1,.55-2-7.43-6.48-8-17.1-3.64-25.67,1.73-3.36,2.47-7.27,5.49-9.9a9.4,9.4,0,0,1,.89-.62c-4,7.71-4.47,16.21-5.36,24.61-.73,6.73,3.66,10.32,9,11.58,4.95,1.16,10,1.53,15,2.19C168.79,185.87,174.18,185.94,179.56,186.43Z" transform="translate(-6.99 -7.14)"/><path class="cls-10" d="M130.67,56a12.32,12.32,0,0,0-3.32,10c.53,5.19,3.89,7.67,8.86,6.22a9,9,0,0,0,6.25-6,4.52,4.52,0,0,0-2.54-5.66c-2.19-1.07-3.86-.12-5.27,1.49-.45.51-.92,1.21-.28,1.95s1.16.2,1.76.07c1-.22,2.18-1.63,3.09-.08s-.42,2.55-1.36,3.46A5.11,5.11,0,0,1,132.37,69c-2-.76-1.63-2.85-1.7-4.53a7.36,7.36,0,0,1,4.66-7.31c3.34-1.32,6.06-.58,8.46,2.32A11.57,11.57,0,0,1,142.33,76c-4.61,4-11.86,3.26-16.12-1.55a11.55,11.55,0,0,1,.9-16.36A8.22,8.22,0,0,1,130.67,56Z" transform="translate(-6.99 -7.14)"/><path class="cls-11" d="M90.35,131.71c2.44.59,4,3.12,6.72,3.11a.58.58,0,0,1,.6.72c-1.13,3.85-2.52,7.57-5.25,10.63-2.84-1.54-4.36-1.17-5.86,1.67a37.23,37.23,0,0,1-4.14,5.93c-.78,1-1.74,1.86-3.2,1.48-.42-1.24.11-2.29.62-3.36a51.1,51.1,0,0,0,4.2-12.8c1.08-4.19-.29-7.64-3.19-10.64-1.79-2-3-4.07-1.58-6.8,4.08.89,6.55,3.86,8.91,7C88.94,129.62,89.63,130.68,90.35,131.71Z" transform="translate(-6.99 -7.14)"/><path class="cls-12" d="M166.15,97.7c-5,2.85-13.23.13-16.6-5.2-2.8-4.41-2.42-9.39-3.07-14.19-.08-.62.08-1.29-.39-1.82a14.84,14.84,0,0,0,3.15-12.67c-.11-.64-.77-1.83.48-2s1.61.88,1.61,2c0,3.72,0,7.45,0,11.17a34,34,0,0,0,2.47,12.63c1.71,4.44,5.34,7.39,9.83,9.13Z" transform="translate(-6.99 -7.14)"/><path class="cls-13" d="M79.27,121.65c0,2.44.14,4.82,2.26,6.53a1.56,1.56,0,0,0-.13,2.38c2.45,3.16,2,6.32,0,9.53-.81,1.35-1.82,2.73-1.06,4.65,1.24-.5,1.33-1.66,1.82-2.56.62-1.12.7-2.7,2.37-3-.43,4.56-2.2,8.7-4,12.83-.46,1.07-.9,2.16-1.35,3.24-1.25-1-1.34-2.54-1.56-3.88-1.38-8.45-3.12-16.87-2.52-25.52C75.32,123.19,76.56,121.87,79.27,121.65Z" transform="translate(-6.99 -7.14)"/><path class="cls-14" d="M108.21,248.19c.42-.31,1.06-1,1.23-.9,2.51,1.52,5.73.85,8.12,3,2.56,2.28,2.78,4.2.06,6.34a5.5,5.5,0,0,1-4,1.48C109.15,256.09,106.83,251.86,108.21,248.19Z" transform="translate(-6.99 -7.14)"/><path class="cls-15" d="M179.24,250.54c2.59-2.26,9.51-1,11,2,1,1.91-.43,3-1.36,4.31a6.39,6.39,0,0,1-2.7,1.75A8.06,8.06,0,0,1,179.24,250.54Z" transform="translate(-6.99 -7.14)"/><path class="cls-16" d="M108.21,248.19c-.65,4.66,2.78,7.07,5.45,9.9a5.05,5.05,0,0,1-6,.4c-2-1.23-4-2.91-3.58-5.58A5.47,5.47,0,0,1,108.21,248.19Z" transform="translate(-6.99 -7.14)"/><path class="cls-17" d="M179.24,250.54a11.34,11.34,0,0,0,7,8c-2.92,1.42-5.64.56-8.12-1C176.24,256.42,176.9,253,179.24,250.54Z" transform="translate(-6.99 -7.14)"/><path class="cls-18" d="M197.42,172.49h-7.33c-.67,0-1.75.24-1.46-.91.22-.86-.43-2.38,1.35-2.48s3.62-.29,5.43-.37c2.37-.1,1.16,2.25,2.26,3Z" transform="translate(-6.99 -7.14)"/><path class="cls-19" d="M177.37,168.7c.73.55,2.63-1.42,2.93,1.23.24,2.08-.36,3-2.52,2.57-.7-.13-1.46,0-2.14-.17-.92-.24-2.61.7-2.44-1.44.15-1.79.78-2.9,2.84-2.29A7.26,7.26,0,0,0,177.37,168.7Z" transform="translate(-6.99 -7.14)"/><path class="cls-20" d="M171.44,169.62c.4,2-.35,2.57-2.18,2.08a15.71,15.71,0,0,0-3.2-.52c-1.77-.11-1.4-1.17-1.37-2.37,0-1.56,1-1.25,1.84-1.19,1.16.09,2.33.22,3.48.39C171,168.15,172.35,168,171.44,169.62Z" transform="translate(-6.99 -7.14)"/><path class="cls-21" d="M151,167.45h11c1.21,0,.85.89.81,1.57,0,.49.15,1.34-.67,1.11C158.67,169.15,154.89,169.6,151,167.45Z" transform="translate(-6.99 -7.14)"/><path class="cls-22" d="M184.11,172.42c-.29-.29-2.22,1.07-1.91-.79.14-.87-.91-3.36,1.6-2.79,1,.23,3.26-.91,3,1.82C186.65,172.16,186.47,173.29,184.11,172.42Z" transform="translate(-6.99 -7.14)"/><path class="cls-23" d="M124,48.05A60.47,60.47,0,0,1,132.65,43a21.25,21.25,0,0,1,2.83-.92c1.37-.39,1.68.57,2.06,1.56.51,1.33-.65,1.36-1.27,1.58a56.51,56.51,0,0,0-11.13,5C123.67,50.06,122.82,49.59,124,48.05Z" transform="translate(-6.99 -7.14)"/><path class="cls-24" d="M124,48.05c-.54,1.2.29,1.68,1.14,2.15a10.14,10.14,0,0,0-.76.71c-.95,1-2.29,1.69-3.21.54-1-1.31.7-1.92,1.45-2.67A5.32,5.32,0,0,1,124,48.05Z" transform="translate(-6.99 -7.14)"/><path class="cls-25" d="M211.33,137.45v1.91c0,3.9-1.18,5-5.09,4.65a23.49,23.49,0,0,1-6.27-1.59c-.4-.16-1-.08-1-.7a1,1,0,0,1,.9-.89,26.23,26.23,0,0,1,4-.91c1.83-.19,2.22-1.18,2-2.77-.56-3.83-1-7.68-1.66-11.5-.93-5.41-1.34-10.9-2.47-16.29-1-4.84-3.11-9.21-5.16-13.6-1.83-3.93-2.53-8.29-4.7-12.09a1.11,1.11,0,0,1,.62-1.59c1-.45,1.54.09,1.94.9,1,2.09,1.91,4.24,3,6.31,3.72,7,7.64,14,9.13,21.87C208.22,119.91,211.18,128.43,211.33,137.45Z" transform="translate(-6.99 -7.14)"/><path class="cls-26" d="M215.8,207.46a56.6,56.6,0,0,1-.36,5.68c-.87,5.38-5,7.37-9.54,8.86-2,.67-4,1.53-6.28.48-2.46-1.15-2.71-1.93-.93-3.95s4.4-3.12,6.92-4.13c3.68-1.47,4.11-2.11,3.3-5.85s-.1-7.37.81-11c.29-1.13.77-2.49,2.09-2.59,1.58-.11,2.35,1.22,2.8,2.55A30.94,30.94,0,0,1,215.8,207.46Z" transform="translate(-6.99 -7.14)"/><path class="cls-27" d="M179.15,65.92a24.58,24.58,0,0,1-1.85,9.55c-1.48,3.67-5.06,5.89-8,5.1s-6.28-5.64-5.94-9c.06-.57.1-1.06.85-1.14a4.66,4.66,0,0,0,1.28-.41c4.1-1.88,4.8-3.64,1.76-6.89-2.56-2.73-.72-4.69.4-6.62s3.52-2.23,5.81-1.72c4.1.9,4.84,4.19,5.41,7.58C179.06,63.55,179.06,64.74,179.15,65.92Z" transform="translate(-6.99 -7.14)"/><path class="cls-28" d="M84.58,139.18c-1.24,1.46-1.52,3.38-2.37,5-.45.86-1.13,2-2.17,1.77-1.26-.32-.56-1.68-.68-2.59-.18-1.38.69-2.49,1.34-3.46,2.23-3.36,2.24-6.48-.29-9.63-1.18-1.47-.81-2.23,1.12-2.11C84.6,131.27,86.05,134.82,84.58,139.18Z" transform="translate(-6.99 -7.14)"/></svg>